%TF.GenerationSoftware,KiCad,Pcbnew,(6.0.4-0)*%
%TF.CreationDate,2022-05-04T20:07:09+02:00*%
%TF.ProjectId,GlowTubeLEDconnectorA_PCB,476c6f77-5475-4626-954c-4544636f6e6e,rev?*%
%TF.SameCoordinates,Original*%
%TF.FileFunction,Legend,Bot*%
%TF.FilePolarity,Positive*%
%FSLAX46Y46*%
G04 Gerber Fmt 4.6, Leading zero omitted, Abs format (unit mm)*
G04 Created by KiCad (PCBNEW (6.0.4-0)) date 2022-05-04 20:07:09*
%MOMM*%
%LPD*%
G01*
G04 APERTURE LIST*
%ADD10C,0.400000*%
%ADD11C,0.150000*%
G04 APERTURE END LIST*
D10*
X110558810Y-53717500D02*
X110796905Y-53598452D01*
X111154048Y-53598452D01*
X111511191Y-53717500D01*
X111749286Y-53955595D01*
X111868333Y-54193690D01*
X111987381Y-54669880D01*
X111987381Y-55027023D01*
X111868333Y-55503214D01*
X111749286Y-55741309D01*
X111511191Y-55979404D01*
X111154048Y-56098452D01*
X110915952Y-56098452D01*
X110558810Y-55979404D01*
X110439762Y-55860357D01*
X110439762Y-55027023D01*
X110915952Y-55027023D01*
X109011191Y-56098452D02*
X109249286Y-55979404D01*
X109368333Y-55741309D01*
X109368333Y-53598452D01*
X107701667Y-56098452D02*
X107939762Y-55979404D01*
X108058810Y-55860357D01*
X108177857Y-55622261D01*
X108177857Y-54907976D01*
X108058810Y-54669880D01*
X107939762Y-54550833D01*
X107701667Y-54431785D01*
X107344524Y-54431785D01*
X107106429Y-54550833D01*
X106987381Y-54669880D01*
X106868333Y-54907976D01*
X106868333Y-55622261D01*
X106987381Y-55860357D01*
X107106429Y-55979404D01*
X107344524Y-56098452D01*
X107701667Y-56098452D01*
X106035000Y-54431785D02*
X105558810Y-56098452D01*
X105082619Y-54907976D01*
X104606429Y-56098452D01*
X104130238Y-54431785D01*
X103535000Y-53598452D02*
X102106429Y-53598452D01*
X102820714Y-56098452D02*
X102820714Y-53598452D01*
X100201667Y-54431785D02*
X100201667Y-56098452D01*
X101273095Y-54431785D02*
X101273095Y-55741309D01*
X101154048Y-55979404D01*
X100915952Y-56098452D01*
X100558810Y-56098452D01*
X100320714Y-55979404D01*
X100201667Y-55860357D01*
X99011191Y-56098452D02*
X99011191Y-53598452D01*
X99011191Y-54550833D02*
X98773095Y-54431785D01*
X98296905Y-54431785D01*
X98058810Y-54550833D01*
X97939762Y-54669880D01*
X97820714Y-54907976D01*
X97820714Y-55622261D01*
X97939762Y-55860357D01*
X98058810Y-55979404D01*
X98296905Y-56098452D01*
X98773095Y-56098452D01*
X99011191Y-55979404D01*
X95796905Y-55979404D02*
X96035000Y-56098452D01*
X96511191Y-56098452D01*
X96749286Y-55979404D01*
X96868333Y-55741309D01*
X96868333Y-54788928D01*
X96749286Y-54550833D01*
X96511191Y-54431785D01*
X96035000Y-54431785D01*
X95796905Y-54550833D01*
X95677857Y-54788928D01*
X95677857Y-55027023D01*
X96868333Y-55265119D01*
X110439762Y-59885357D02*
X110558810Y-60004404D01*
X110915952Y-60123452D01*
X111154048Y-60123452D01*
X111511191Y-60004404D01*
X111749286Y-59766309D01*
X111868333Y-59528214D01*
X111987381Y-59052023D01*
X111987381Y-58694880D01*
X111868333Y-58218690D01*
X111749286Y-57980595D01*
X111511191Y-57742500D01*
X111154048Y-57623452D01*
X110915952Y-57623452D01*
X110558810Y-57742500D01*
X110439762Y-57861547D01*
X109011191Y-60123452D02*
X109249286Y-60004404D01*
X109368333Y-59885357D01*
X109487381Y-59647261D01*
X109487381Y-58932976D01*
X109368333Y-58694880D01*
X109249286Y-58575833D01*
X109011191Y-58456785D01*
X108654048Y-58456785D01*
X108415952Y-58575833D01*
X108296905Y-58694880D01*
X108177857Y-58932976D01*
X108177857Y-59647261D01*
X108296905Y-59885357D01*
X108415952Y-60004404D01*
X108654048Y-60123452D01*
X109011191Y-60123452D01*
X107106429Y-58456785D02*
X107106429Y-60123452D01*
X107106429Y-58694880D02*
X106987381Y-58575833D01*
X106749286Y-58456785D01*
X106392143Y-58456785D01*
X106154048Y-58575833D01*
X106035000Y-58813928D01*
X106035000Y-60123452D01*
X104844524Y-58456785D02*
X104844524Y-60123452D01*
X104844524Y-58694880D02*
X104725476Y-58575833D01*
X104487381Y-58456785D01*
X104130238Y-58456785D01*
X103892143Y-58575833D01*
X103773095Y-58813928D01*
X103773095Y-60123452D01*
X101630238Y-60004404D02*
X101868333Y-60123452D01*
X102344524Y-60123452D01*
X102582619Y-60004404D01*
X102701667Y-59766309D01*
X102701667Y-58813928D01*
X102582619Y-58575833D01*
X102344524Y-58456785D01*
X101868333Y-58456785D01*
X101630238Y-58575833D01*
X101511191Y-58813928D01*
X101511191Y-59052023D01*
X102701667Y-59290119D01*
X99368333Y-60004404D02*
X99606429Y-60123452D01*
X100082619Y-60123452D01*
X100320714Y-60004404D01*
X100439762Y-59885357D01*
X100558810Y-59647261D01*
X100558810Y-58932976D01*
X100439762Y-58694880D01*
X100320714Y-58575833D01*
X100082619Y-58456785D01*
X99606429Y-58456785D01*
X99368333Y-58575833D01*
X98654048Y-58456785D02*
X97701667Y-58456785D01*
X98296905Y-57623452D02*
X98296905Y-59766309D01*
X98177857Y-60004404D01*
X97939762Y-60123452D01*
X97701667Y-60123452D01*
X96511191Y-60123452D02*
X96749286Y-60004404D01*
X96868333Y-59885357D01*
X96987381Y-59647261D01*
X96987381Y-58932976D01*
X96868333Y-58694880D01*
X96749286Y-58575833D01*
X96511191Y-58456785D01*
X96154048Y-58456785D01*
X95915952Y-58575833D01*
X95796905Y-58694880D01*
X95677857Y-58932976D01*
X95677857Y-59647261D01*
X95796905Y-59885357D01*
X95915952Y-60004404D01*
X96154048Y-60123452D01*
X96511191Y-60123452D01*
X94606429Y-60123452D02*
X94606429Y-58456785D01*
X94606429Y-58932976D02*
X94487381Y-58694880D01*
X94368333Y-58575833D01*
X94130238Y-58456785D01*
X93892143Y-58456785D01*
X91273095Y-59409166D02*
X90082619Y-59409166D01*
X91511191Y-60123452D02*
X90677857Y-57623452D01*
X89844524Y-60123452D01*
D11*
X112505714Y-61945714D02*
X112267619Y-62612380D01*
X112029523Y-61945714D01*
X111124761Y-62612380D02*
X111696190Y-62612380D01*
X111410476Y-62612380D02*
X111410476Y-61612380D01*
X111505714Y-61755238D01*
X111600952Y-61850476D01*
X111696190Y-61898095D01*
X110696190Y-62517142D02*
X110648571Y-62564761D01*
X110696190Y-62612380D01*
X110743809Y-62564761D01*
X110696190Y-62517142D01*
X110696190Y-62612380D01*
X110029523Y-61612380D02*
X109934285Y-61612380D01*
X109839047Y-61660000D01*
X109791428Y-61707619D01*
X109743809Y-61802857D01*
X109696190Y-61993333D01*
X109696190Y-62231428D01*
X109743809Y-62421904D01*
X109791428Y-62517142D01*
X109839047Y-62564761D01*
X109934285Y-62612380D01*
X110029523Y-62612380D01*
X110124761Y-62564761D01*
X110172380Y-62517142D01*
X110220000Y-62421904D01*
X110267619Y-62231428D01*
X110267619Y-61993333D01*
X110220000Y-61802857D01*
X110172380Y-61707619D01*
X110124761Y-61660000D01*
X110029523Y-61612380D01*
X108505714Y-62612380D02*
X108505714Y-61612380D01*
X108505714Y-61993333D02*
X108410476Y-61945714D01*
X108220000Y-61945714D01*
X108124761Y-61993333D01*
X108077142Y-62040952D01*
X108029523Y-62136190D01*
X108029523Y-62421904D01*
X108077142Y-62517142D01*
X108124761Y-62564761D01*
X108220000Y-62612380D01*
X108410476Y-62612380D01*
X108505714Y-62564761D01*
X107220000Y-62564761D02*
X107315238Y-62612380D01*
X107505714Y-62612380D01*
X107600952Y-62564761D01*
X107648571Y-62469523D01*
X107648571Y-62088571D01*
X107600952Y-61993333D01*
X107505714Y-61945714D01*
X107315238Y-61945714D01*
X107220000Y-61993333D01*
X107172380Y-62088571D01*
X107172380Y-62183809D01*
X107648571Y-62279047D01*
X106886666Y-61945714D02*
X106505714Y-61945714D01*
X106743809Y-61612380D02*
X106743809Y-62469523D01*
X106696190Y-62564761D01*
X106600952Y-62612380D01*
X106505714Y-62612380D01*
X105743809Y-62612380D02*
X105743809Y-62088571D01*
X105791428Y-61993333D01*
X105886666Y-61945714D01*
X106077142Y-61945714D01*
X106172380Y-61993333D01*
X105743809Y-62564761D02*
X105839047Y-62612380D01*
X106077142Y-62612380D01*
X106172380Y-62564761D01*
X106220000Y-62469523D01*
X106220000Y-62374285D01*
X106172380Y-62279047D01*
X106077142Y-62231428D01*
X105839047Y-62231428D01*
X105743809Y-62183809D01*
X104553333Y-61707619D02*
X104505714Y-61660000D01*
X104410476Y-61612380D01*
X104172380Y-61612380D01*
X104077142Y-61660000D01*
X104029523Y-61707619D01*
X103981904Y-61802857D01*
X103981904Y-61898095D01*
X104029523Y-62040952D01*
X104600952Y-62612380D01*
X103981904Y-62612380D01*
X104999523Y-78457619D02*
X104523333Y-78457619D01*
X104475714Y-77981428D01*
X104523333Y-78029047D01*
X104618571Y-78076666D01*
X104856666Y-78076666D01*
X104951904Y-78029047D01*
X104999523Y-77981428D01*
X105047142Y-77886190D01*
X105047142Y-77648095D01*
X104999523Y-77552857D01*
X104951904Y-77505238D01*
X104856666Y-77457619D01*
X104618571Y-77457619D01*
X104523333Y-77505238D01*
X104475714Y-77552857D01*
X105332857Y-78457619D02*
X105666190Y-77457619D01*
X105999523Y-78457619D01*
X105020476Y-66272380D02*
X105496666Y-66272380D01*
X105544285Y-66748571D01*
X105496666Y-66700952D01*
X105401428Y-66653333D01*
X105163333Y-66653333D01*
X105068095Y-66700952D01*
X105020476Y-66748571D01*
X104972857Y-66843809D01*
X104972857Y-67081904D01*
X105020476Y-67177142D01*
X105068095Y-67224761D01*
X105163333Y-67272380D01*
X105401428Y-67272380D01*
X105496666Y-67224761D01*
X105544285Y-67177142D01*
X104687142Y-66272380D02*
X104353809Y-67272380D01*
X104020476Y-66272380D01*
X96420000Y-77457619D02*
X95943809Y-77457619D01*
X95943809Y-78457619D01*
X96753333Y-77981428D02*
X97086666Y-77981428D01*
X97229523Y-77457619D02*
X96753333Y-77457619D01*
X96753333Y-78457619D01*
X97229523Y-78457619D01*
X97658095Y-77457619D02*
X97658095Y-78457619D01*
X97896190Y-78457619D01*
X98039047Y-78410000D01*
X98134285Y-78314761D01*
X98181904Y-78219523D01*
X98229523Y-78029047D01*
X98229523Y-77886190D01*
X98181904Y-77695714D01*
X98134285Y-77600476D01*
X98039047Y-77505238D01*
X97896190Y-77457619D01*
X97658095Y-77457619D01*
X99372380Y-78362380D02*
X99420000Y-78410000D01*
X99515238Y-78457619D01*
X99753333Y-78457619D01*
X99848571Y-78410000D01*
X99896190Y-78362380D01*
X99943809Y-78267142D01*
X99943809Y-78171904D01*
X99896190Y-78029047D01*
X99324761Y-77457619D01*
X99943809Y-77457619D01*
X98980000Y-67272380D02*
X99456190Y-67272380D01*
X99456190Y-66272380D01*
X98646666Y-66748571D02*
X98313333Y-66748571D01*
X98170476Y-67272380D02*
X98646666Y-67272380D01*
X98646666Y-66272380D01*
X98170476Y-66272380D01*
X97741904Y-67272380D02*
X97741904Y-66272380D01*
X97503809Y-66272380D01*
X97360952Y-66320000D01*
X97265714Y-66415238D01*
X97218095Y-66510476D01*
X97170476Y-66700952D01*
X97170476Y-66843809D01*
X97218095Y-67034285D01*
X97265714Y-67129523D01*
X97360952Y-67224761D01*
X97503809Y-67272380D01*
X97741904Y-67272380D01*
X95456190Y-67272380D02*
X96027619Y-67272380D01*
X95741904Y-67272380D02*
X95741904Y-66272380D01*
X95837142Y-66415238D01*
X95932380Y-66510476D01*
X96027619Y-66558095D01*
X89178095Y-78410000D02*
X89082857Y-78457619D01*
X88940000Y-78457619D01*
X88797142Y-78410000D01*
X88701904Y-78314761D01*
X88654285Y-78219523D01*
X88606666Y-78029047D01*
X88606666Y-77886190D01*
X88654285Y-77695714D01*
X88701904Y-77600476D01*
X88797142Y-77505238D01*
X88940000Y-77457619D01*
X89035238Y-77457619D01*
X89178095Y-77505238D01*
X89225714Y-77552857D01*
X89225714Y-77886190D01*
X89035238Y-77886190D01*
X89654285Y-77457619D02*
X89654285Y-78457619D01*
X90225714Y-77457619D01*
X90225714Y-78457619D01*
X90701904Y-77457619D02*
X90701904Y-78457619D01*
X90940000Y-78457619D01*
X91082857Y-78410000D01*
X91178095Y-78314761D01*
X91225714Y-78219523D01*
X91273333Y-78029047D01*
X91273333Y-77886190D01*
X91225714Y-77695714D01*
X91178095Y-77600476D01*
X91082857Y-77505238D01*
X90940000Y-77457619D01*
X90701904Y-77457619D01*
X90671904Y-66320000D02*
X90767142Y-66272380D01*
X90910000Y-66272380D01*
X91052857Y-66320000D01*
X91148095Y-66415238D01*
X91195714Y-66510476D01*
X91243333Y-66700952D01*
X91243333Y-66843809D01*
X91195714Y-67034285D01*
X91148095Y-67129523D01*
X91052857Y-67224761D01*
X90910000Y-67272380D01*
X90814761Y-67272380D01*
X90671904Y-67224761D01*
X90624285Y-67177142D01*
X90624285Y-66843809D01*
X90814761Y-66843809D01*
X90195714Y-67272380D02*
X90195714Y-66272380D01*
X89624285Y-67272380D01*
X89624285Y-66272380D01*
X89148095Y-67272380D02*
X89148095Y-66272380D01*
X88910000Y-66272380D01*
X88767142Y-66320000D01*
X88671904Y-66415238D01*
X88624285Y-66510476D01*
X88576666Y-66700952D01*
X88576666Y-66843809D01*
X88624285Y-67034285D01*
X88671904Y-67129523D01*
X88767142Y-67224761D01*
X88910000Y-67272380D01*
X89148095Y-67272380D01*
%TO.C,designedby*%
G36*
X100932713Y-83140488D02*
G01*
X100968580Y-83171669D01*
X100983212Y-83221497D01*
X100971626Y-83266136D01*
X100933461Y-83297828D01*
X100877954Y-83299790D01*
X100834730Y-83274385D01*
X100815015Y-83227712D01*
X100827467Y-83172177D01*
X100845443Y-83149319D01*
X100887653Y-83131766D01*
X100932713Y-83140488D01*
G37*
G36*
X102233109Y-82380538D02*
G01*
X102266058Y-82396207D01*
X102274573Y-82433523D01*
X102274206Y-82444496D01*
X102261112Y-82475894D01*
X102221060Y-82488225D01*
X102177939Y-82483111D01*
X102151311Y-82452864D01*
X102155871Y-82403094D01*
X102172908Y-82384366D01*
X102221060Y-82378820D01*
X102233109Y-82380538D01*
G37*
G36*
X100952696Y-84483610D02*
G01*
X100978589Y-84529031D01*
X100971824Y-84570928D01*
X100937870Y-84599501D01*
X100882331Y-84605082D01*
X100867848Y-84601037D01*
X100837389Y-84571168D01*
X100829462Y-84526250D01*
X100848166Y-84481154D01*
X100864282Y-84465663D01*
X100906671Y-84455496D01*
X100952696Y-84483610D01*
G37*
G36*
X103571721Y-84851998D02*
G01*
X103591159Y-84871791D01*
X103595062Y-84917033D01*
X103593018Y-84943838D01*
X103573164Y-84993203D01*
X103537619Y-85015330D01*
X103493112Y-85004452D01*
X103468672Y-84978599D01*
X103451061Y-84924887D01*
X103457460Y-84867950D01*
X103477915Y-84848947D01*
X103531817Y-84845088D01*
X103571721Y-84851998D01*
G37*
G36*
X103165655Y-83136775D02*
G01*
X103201579Y-83164271D01*
X103216392Y-83209981D01*
X103204046Y-83264518D01*
X103167190Y-83298020D01*
X103112160Y-83300047D01*
X103076567Y-83281766D01*
X103054368Y-83237340D01*
X103063313Y-83175574D01*
X103081564Y-83147911D01*
X103121393Y-83130365D01*
X103165655Y-83136775D01*
G37*
G36*
X108426715Y-84848160D02*
G01*
X108464143Y-84878156D01*
X108479746Y-84921383D01*
X108470365Y-84965769D01*
X108432839Y-84999240D01*
X108382939Y-85008182D01*
X108337903Y-84991021D01*
X108308800Y-84955217D01*
X108302896Y-84910044D01*
X108327462Y-84864777D01*
X108346982Y-84851990D01*
X108391545Y-84841474D01*
X108426715Y-84848160D01*
G37*
G36*
X107135138Y-84864777D02*
G01*
X107154651Y-84901778D01*
X107154279Y-84954248D01*
X107129565Y-84996616D01*
X107088440Y-85014598D01*
X107044300Y-85005425D01*
X107009841Y-84973912D01*
X106993765Y-84928386D01*
X107004770Y-84877172D01*
X107006830Y-84873664D01*
X107043168Y-84847234D01*
X107092079Y-84843688D01*
X107135138Y-84864777D01*
G37*
G36*
X105796654Y-85234748D02*
G01*
X105841708Y-85263940D01*
X105857371Y-85317238D01*
X105851570Y-85352273D01*
X105817755Y-85391168D01*
X105755976Y-85404624D01*
X105731227Y-85401418D01*
X105688006Y-85373527D01*
X105669230Y-85326299D01*
X105681285Y-85271147D01*
X105703379Y-85245553D01*
X105757075Y-85229853D01*
X105796654Y-85234748D01*
G37*
G36*
X103766710Y-84850986D02*
G01*
X103796689Y-84884442D01*
X103806409Y-84932090D01*
X103791808Y-84981440D01*
X103747841Y-85008916D01*
X103723820Y-85011653D01*
X103677566Y-84995692D01*
X103648358Y-84958224D01*
X103642654Y-84910751D01*
X103666912Y-84864777D01*
X103674791Y-84857905D01*
X103720622Y-84841313D01*
X103766710Y-84850986D01*
G37*
G36*
X101726920Y-84851998D02*
G01*
X101746358Y-84871791D01*
X101750261Y-84917033D01*
X101748217Y-84943838D01*
X101728362Y-84993203D01*
X101692818Y-85015330D01*
X101648311Y-85004452D01*
X101623871Y-84978599D01*
X101606260Y-84924887D01*
X101612659Y-84867950D01*
X101633113Y-84848947D01*
X101687016Y-84845088D01*
X101726920Y-84851998D01*
G37*
G36*
X101334030Y-82764328D02*
G01*
X101359198Y-82785116D01*
X101371358Y-82823939D01*
X101357268Y-82862468D01*
X101322022Y-82890095D01*
X101270710Y-82896214D01*
X101256227Y-82892168D01*
X101225769Y-82862300D01*
X101217841Y-82817382D01*
X101236545Y-82772286D01*
X101253654Y-82755150D01*
X101286658Y-82745980D01*
X101334030Y-82764328D01*
G37*
G36*
X107835634Y-84081068D02*
G01*
X107865122Y-84114764D01*
X107870447Y-84153813D01*
X107848856Y-84187981D01*
X107801807Y-84196844D01*
X107783969Y-84192858D01*
X107750026Y-84166513D01*
X107744002Y-84128344D01*
X107769914Y-84091606D01*
X107792527Y-84079614D01*
X107835634Y-84081068D01*
G37*
G36*
X103042266Y-86141593D02*
G01*
X103124809Y-86179819D01*
X103188023Y-86236575D01*
X103227076Y-86308180D01*
X103237140Y-86390957D01*
X103213383Y-86481225D01*
X103189920Y-86510464D01*
X103139214Y-86550203D01*
X103076062Y-86588234D01*
X103013606Y-86616787D01*
X102964988Y-86628091D01*
X102919683Y-86638278D01*
X102866552Y-86669509D01*
X102825230Y-86711674D01*
X102808594Y-86754372D01*
X102811375Y-86775165D01*
X102839061Y-86813945D01*
X102889477Y-86834506D01*
X102954010Y-86836087D01*
X103024046Y-86817928D01*
X103090969Y-86779271D01*
X103144257Y-86737355D01*
X103192396Y-86793319D01*
X103240535Y-86849284D01*
X103184771Y-86894160D01*
X103176340Y-86900747D01*
X103086895Y-86950818D01*
X102991575Y-86974469D01*
X102896575Y-86974018D01*
X102808086Y-86951785D01*
X102732303Y-86910088D01*
X102675418Y-86851244D01*
X102643624Y-86777572D01*
X102643113Y-86691391D01*
X102650936Y-86660744D01*
X102678251Y-86609733D01*
X102726454Y-86566037D01*
X102801351Y-86525086D01*
X102908749Y-86482310D01*
X102952170Y-86466425D01*
X103015025Y-86440956D01*
X103051849Y-86419924D01*
X103069985Y-86398504D01*
X103076777Y-86371867D01*
X103073579Y-86334421D01*
X103044090Y-86293185D01*
X102992352Y-86269402D01*
X102926446Y-86264569D01*
X102854452Y-86280181D01*
X102784452Y-86317736D01*
X102729897Y-86358070D01*
X102670345Y-86315666D01*
X102610793Y-86273261D01*
X102657908Y-86226147D01*
X102664478Y-86219969D01*
X102718774Y-86181795D01*
X102781082Y-86151931D01*
X102838511Y-86135446D01*
X102945223Y-86125576D01*
X103042266Y-86141593D01*
G37*
G36*
X101342570Y-83715348D02*
G01*
X101344684Y-83719214D01*
X101346971Y-83758961D01*
X101326291Y-83795955D01*
X101291997Y-83812269D01*
X101263684Y-83804715D01*
X101239518Y-83771993D01*
X101242681Y-83724884D01*
X101244050Y-83721830D01*
X101272534Y-83700297D01*
X101312535Y-83697452D01*
X101342570Y-83715348D01*
G37*
G36*
X102427299Y-84089407D02*
G01*
X102460247Y-84105076D01*
X102468762Y-84142391D01*
X102468396Y-84153364D01*
X102455302Y-84184762D01*
X102415250Y-84197094D01*
X102372129Y-84191979D01*
X102345501Y-84161733D01*
X102350060Y-84111962D01*
X102367098Y-84093234D01*
X102415250Y-84087689D01*
X102427299Y-84089407D01*
G37*
G36*
X108415908Y-84457803D02*
G01*
X108448909Y-84488316D01*
X108456212Y-84542587D01*
X108451961Y-84567647D01*
X108433975Y-84592937D01*
X108391545Y-84598737D01*
X108365392Y-84597397D01*
X108337491Y-84582844D01*
X108326878Y-84542587D01*
X108329091Y-84500344D01*
X108346297Y-84470063D01*
X108358867Y-84463226D01*
X108391545Y-84453689D01*
X108415908Y-84457803D01*
G37*
G36*
X103369370Y-83525564D02*
G01*
X103414189Y-83554906D01*
X103430001Y-83608370D01*
X103424912Y-83641188D01*
X103392310Y-83681525D01*
X103332906Y-83695755D01*
X103296441Y-83691176D01*
X103251623Y-83661833D01*
X103235811Y-83608370D01*
X103239658Y-83582146D01*
X103259114Y-83544287D01*
X103285550Y-83529462D01*
X103332906Y-83520985D01*
X103369370Y-83525564D01*
G37*
G36*
X103363654Y-84085919D02*
G01*
X103386351Y-84101128D01*
X103391163Y-84142391D01*
X103389378Y-84173139D01*
X103374169Y-84195836D01*
X103332906Y-84200648D01*
X103302158Y-84198863D01*
X103279461Y-84183655D01*
X103274649Y-84142391D01*
X103276434Y-84111644D01*
X103291643Y-84088946D01*
X103332906Y-84084134D01*
X103363654Y-84085919D01*
G37*
G36*
X105990214Y-82004704D02*
G01*
X106009230Y-82040376D01*
X106007789Y-82068559D01*
X105983450Y-82096433D01*
X105973889Y-82098973D01*
X105935614Y-82089642D01*
X105909206Y-82058333D01*
X105907676Y-82018436D01*
X105922251Y-81998467D01*
X105956117Y-81989632D01*
X105990214Y-82004704D01*
G37*
G36*
X103588678Y-87165049D02*
G01*
X103606843Y-87186216D01*
X103623116Y-87239027D01*
X103610607Y-87291047D01*
X103573851Y-87330727D01*
X103517386Y-87346520D01*
X103492748Y-87343668D01*
X103443847Y-87316206D01*
X103415658Y-87269140D01*
X103413102Y-87214278D01*
X103441097Y-87163427D01*
X103475367Y-87140970D01*
X103533186Y-87136390D01*
X103588678Y-87165049D01*
G37*
G36*
X102467375Y-84677800D02*
G01*
X102492695Y-84716762D01*
X102490561Y-84759293D01*
X102457635Y-84790506D01*
X102398221Y-84802636D01*
X102388133Y-84802130D01*
X102345001Y-84782518D01*
X102328201Y-84741056D01*
X102342146Y-84686856D01*
X102373150Y-84655677D01*
X102419830Y-84650415D01*
X102467375Y-84677800D01*
G37*
G36*
X103935448Y-82565157D02*
G01*
X103976389Y-82587841D01*
X103993151Y-82626018D01*
X103982441Y-82664197D01*
X103946111Y-82694472D01*
X103896988Y-82695975D01*
X103894372Y-82695056D01*
X103866101Y-82668231D01*
X103855681Y-82626917D01*
X103863813Y-82587050D01*
X103891201Y-82564565D01*
X103935448Y-82565157D01*
G37*
G36*
X101713042Y-84085919D02*
G01*
X101735739Y-84101128D01*
X101740551Y-84142391D01*
X101738766Y-84173139D01*
X101723558Y-84195836D01*
X101682294Y-84200648D01*
X101651547Y-84198863D01*
X101628849Y-84183655D01*
X101624037Y-84142391D01*
X101625822Y-84111644D01*
X101641031Y-84088946D01*
X101682294Y-84084134D01*
X101713042Y-84085919D01*
G37*
G36*
X104873770Y-82388271D02*
G01*
X104900804Y-82419006D01*
X104900926Y-82457382D01*
X104870865Y-82489713D01*
X104851162Y-82497139D01*
X104807934Y-82492163D01*
X104780026Y-82462184D01*
X104778906Y-82416350D01*
X104779704Y-82413910D01*
X104801591Y-82383175D01*
X104844397Y-82378992D01*
X104873770Y-82388271D01*
G37*
G36*
X101104690Y-84088926D02*
G01*
X101139173Y-84104323D01*
X101148273Y-84142391D01*
X101148130Y-84149404D01*
X101136174Y-84183666D01*
X101097351Y-84196844D01*
X101056733Y-84191734D01*
X101030527Y-84161453D01*
X101034849Y-84112212D01*
X101051326Y-84094003D01*
X101097351Y-84087939D01*
X101104690Y-84088926D01*
G37*
G36*
X106661187Y-86401224D02*
G01*
X106685198Y-86346157D01*
X106743968Y-86260835D01*
X106817938Y-86190349D01*
X106896285Y-86146430D01*
X106956564Y-86131646D01*
X107066394Y-86130663D01*
X107171694Y-86158996D01*
X107259680Y-86214261D01*
X107279266Y-86230612D01*
X107292029Y-86229257D01*
X107294374Y-86194101D01*
X107294433Y-86187190D01*
X107299907Y-86157515D01*
X107322109Y-86145069D01*
X107372050Y-86142544D01*
X107449725Y-86142544D01*
X107449725Y-87288263D01*
X107294374Y-87288263D01*
X107294374Y-87084364D01*
X107293820Y-87019123D01*
X107291638Y-86947439D01*
X107288187Y-86898545D01*
X107283878Y-86880465D01*
X107282776Y-86880610D01*
X107259030Y-86893137D01*
X107220320Y-86919695D01*
X107159397Y-86949499D01*
X107073115Y-86968976D01*
X106981814Y-86973214D01*
X106902198Y-86960092D01*
X106877775Y-86950206D01*
X106802652Y-86901736D01*
X106732067Y-86833575D01*
X106679647Y-86758092D01*
X106663649Y-86720509D01*
X106641643Y-86618091D01*
X106641139Y-86567179D01*
X106811232Y-86567179D01*
X106826440Y-86657115D01*
X106862887Y-86736137D01*
X106920623Y-86794516D01*
X106931273Y-86800858D01*
X107006098Y-86824592D01*
X107090156Y-86826368D01*
X107163457Y-86805301D01*
X107197644Y-86779764D01*
X107246604Y-86715366D01*
X107281237Y-86634677D01*
X107294374Y-86551589D01*
X107289382Y-86493248D01*
X107253750Y-86396332D01*
X107185339Y-86319029D01*
X107159016Y-86302735D01*
X107083585Y-86281673D01*
X106999472Y-86283079D01*
X106923112Y-86307665D01*
X106892544Y-86329162D01*
X106844334Y-86393474D01*
X106817214Y-86476056D01*
X106811232Y-86567179D01*
X106641139Y-86567179D01*
X106640535Y-86506114D01*
X106661187Y-86401224D01*
G37*
G36*
X101713042Y-82377051D02*
G01*
X101735739Y-82392259D01*
X101740551Y-82433523D01*
X101738766Y-82464271D01*
X101723558Y-82486968D01*
X101682294Y-82491780D01*
X101651547Y-82489995D01*
X101628849Y-82474786D01*
X101624037Y-82433523D01*
X101625822Y-82402775D01*
X101641031Y-82380078D01*
X101682294Y-82375266D01*
X101713042Y-82377051D01*
G37*
G36*
X104660479Y-82380538D02*
G01*
X104693428Y-82396207D01*
X104701943Y-82433523D01*
X104701576Y-82444496D01*
X104688482Y-82475894D01*
X104648430Y-82488225D01*
X104605309Y-82483111D01*
X104578681Y-82452864D01*
X104583241Y-82403094D01*
X104600278Y-82384366D01*
X104648430Y-82378820D01*
X104660479Y-82380538D01*
G37*
G36*
X105800315Y-82382271D02*
G01*
X105828448Y-82414072D01*
X105825555Y-82462651D01*
X105807818Y-82481066D01*
X105767298Y-82491780D01*
X105734281Y-82484774D01*
X105706149Y-82452973D01*
X105709041Y-82404394D01*
X105726779Y-82385980D01*
X105767298Y-82375266D01*
X105800315Y-82382271D01*
G37*
G36*
X106188418Y-82188342D02*
G01*
X106214879Y-82212666D01*
X106216006Y-82248144D01*
X106190474Y-82283067D01*
X106145668Y-82297590D01*
X106117844Y-82289916D01*
X106094219Y-82257074D01*
X106097421Y-82210205D01*
X106109812Y-82194406D01*
X106147114Y-82182124D01*
X106188418Y-82188342D01*
G37*
G36*
X105990833Y-82372199D02*
G01*
X106020321Y-82405896D01*
X106025646Y-82444945D01*
X106004055Y-82479112D01*
X105957006Y-82487975D01*
X105939168Y-82483989D01*
X105905225Y-82457644D01*
X105899201Y-82419475D01*
X105925113Y-82382738D01*
X105947725Y-82370746D01*
X105990833Y-82372199D01*
G37*
G36*
X104473859Y-82748934D02*
G01*
X104506860Y-82779448D01*
X104514163Y-82833719D01*
X104509912Y-82858778D01*
X104491926Y-82884069D01*
X104449496Y-82889868D01*
X104423343Y-82888529D01*
X104395442Y-82873976D01*
X104384829Y-82833719D01*
X104387042Y-82791476D01*
X104404248Y-82761195D01*
X104416818Y-82754358D01*
X104449496Y-82744821D01*
X104473859Y-82748934D01*
G37*
G36*
X102462323Y-82586284D02*
G01*
X102478472Y-82626018D01*
X102467762Y-82664197D01*
X102431432Y-82694472D01*
X102382309Y-82695975D01*
X102363437Y-82685153D01*
X102344059Y-82648541D01*
X102347971Y-82605276D01*
X102376021Y-82572067D01*
X102379086Y-82570454D01*
X102424088Y-82565074D01*
X102462323Y-82586284D01*
G37*
G36*
X106190866Y-83140766D02*
G01*
X106226724Y-83172177D01*
X106235082Y-83191818D01*
X106236488Y-83244380D01*
X106210532Y-83283658D01*
X106165719Y-83301149D01*
X106110551Y-83288350D01*
X106108342Y-83287108D01*
X106078159Y-83250093D01*
X106072734Y-83200347D01*
X106094282Y-83155908D01*
X106096177Y-83154084D01*
X106141338Y-83133996D01*
X106190866Y-83140766D01*
G37*
G36*
X101154099Y-84864777D02*
G01*
X101173611Y-84901778D01*
X101173239Y-84954248D01*
X101148525Y-84996616D01*
X101107401Y-85014598D01*
X101063260Y-85005425D01*
X101028801Y-84973912D01*
X101012725Y-84928386D01*
X101023730Y-84877172D01*
X101025790Y-84873664D01*
X101062128Y-84847234D01*
X101111040Y-84843688D01*
X101154099Y-84864777D01*
G37*
G36*
X109295344Y-85775682D02*
G01*
X109340284Y-85783908D01*
X109367242Y-85797858D01*
X109380893Y-85822117D01*
X109403923Y-85873793D01*
X109429331Y-85938645D01*
X109437469Y-85960224D01*
X109463640Y-86027224D01*
X109500529Y-86119820D01*
X109545373Y-86231132D01*
X109595403Y-86354278D01*
X109647857Y-86482376D01*
X109679748Y-86559964D01*
X109726883Y-86674719D01*
X109767949Y-86774797D01*
X109800768Y-86854888D01*
X109823164Y-86909681D01*
X109832960Y-86933867D01*
X109832047Y-86944886D01*
X109805714Y-86955029D01*
X109745358Y-86958141D01*
X109648303Y-86958141D01*
X109565438Y-86729968D01*
X109532500Y-86639730D01*
X109498073Y-86546315D01*
X109468718Y-86467563D01*
X109448486Y-86414410D01*
X109414399Y-86327024D01*
X109375148Y-86414410D01*
X109354018Y-86462228D01*
X109320821Y-86538484D01*
X109281436Y-86629711D01*
X109240541Y-86725113D01*
X109145184Y-86948431D01*
X109046292Y-86954259D01*
X108947400Y-86960086D01*
X109137937Y-86533693D01*
X109328475Y-86107300D01*
X109262953Y-85956620D01*
X109252017Y-85931243D01*
X109224141Y-85864199D01*
X109204722Y-85813920D01*
X109197432Y-85789762D01*
X109209614Y-85779170D01*
X109246946Y-85773872D01*
X109295344Y-85775682D01*
G37*
G36*
X100945733Y-84660454D02*
G01*
X100974026Y-84698551D01*
X100975004Y-84755017D01*
X100967065Y-84778947D01*
X100945122Y-84798321D01*
X100900015Y-84798962D01*
X100871260Y-84794658D01*
X100842163Y-84777095D01*
X100831160Y-84736777D01*
X100833372Y-84694534D01*
X100850579Y-84664253D01*
X100899760Y-84647752D01*
X100945733Y-84660454D01*
G37*
G36*
X105088935Y-84483610D02*
G01*
X105114828Y-84529031D01*
X105108062Y-84570928D01*
X105074109Y-84599501D01*
X105018570Y-84605082D01*
X105004086Y-84601037D01*
X104973628Y-84571168D01*
X104965701Y-84526250D01*
X104984405Y-84481154D01*
X105000520Y-84465663D01*
X105042910Y-84455496D01*
X105088935Y-84483610D01*
G37*
G36*
X103387863Y-83149574D02*
G01*
X103402931Y-83170009D01*
X103407142Y-83214308D01*
X103394315Y-83261836D01*
X103366889Y-83295609D01*
X103343604Y-83304785D01*
X103302744Y-83296858D01*
X103270998Y-83264086D01*
X103255353Y-83215547D01*
X103262794Y-83160322D01*
X103265373Y-83155350D01*
X103296253Y-83136861D01*
X103342837Y-83134442D01*
X103387863Y-83149574D01*
G37*
G36*
X102621488Y-84089407D02*
G01*
X102654437Y-84105076D01*
X102662952Y-84142391D01*
X102662586Y-84153364D01*
X102649492Y-84184762D01*
X102609439Y-84197094D01*
X102566319Y-84191979D01*
X102539690Y-84161733D01*
X102544250Y-84111962D01*
X102561287Y-84093234D01*
X102609439Y-84087689D01*
X102621488Y-84089407D01*
G37*
G36*
X104475720Y-83330642D02*
G01*
X104513579Y-83350098D01*
X104526365Y-83369617D01*
X104536881Y-83414180D01*
X104533329Y-83441388D01*
X104503481Y-83485267D01*
X104449496Y-83501566D01*
X104448406Y-83501559D01*
X104398536Y-83485136D01*
X104367776Y-83445820D01*
X104361583Y-83396508D01*
X104385414Y-83350098D01*
X104404933Y-83337311D01*
X104449496Y-83326795D01*
X104475720Y-83330642D01*
G37*
G36*
X107662447Y-84481154D02*
G01*
X107671910Y-84495319D01*
X107681262Y-84542010D01*
X107665353Y-84583555D01*
X107628282Y-84605082D01*
X107572877Y-84599556D01*
X107538852Y-84571036D01*
X107531998Y-84529164D01*
X107557917Y-84483610D01*
X107577365Y-84467283D01*
X107622099Y-84455070D01*
X107662447Y-84481154D01*
G37*
G36*
X102437713Y-85039216D02*
G01*
X102481592Y-85069064D01*
X102497891Y-85123049D01*
X102494338Y-85150256D01*
X102464490Y-85194135D01*
X102410505Y-85210434D01*
X102409415Y-85210428D01*
X102359545Y-85194004D01*
X102328785Y-85154688D01*
X102322592Y-85105376D01*
X102346423Y-85058966D01*
X102365942Y-85046180D01*
X102410505Y-85035663D01*
X102437713Y-85039216D01*
G37*
G36*
X100933076Y-82561824D02*
G01*
X100955267Y-82585358D01*
X100963808Y-82628548D01*
X100956015Y-82672534D01*
X100932025Y-82699379D01*
X100902037Y-82704027D01*
X100862468Y-82687795D01*
X100837453Y-82653253D01*
X100833869Y-82611990D01*
X100858588Y-82575594D01*
X100886254Y-82556053D01*
X100904927Y-82552014D01*
X100933076Y-82561824D01*
G37*
G36*
X102434869Y-82748934D02*
G01*
X102467869Y-82779448D01*
X102475172Y-82833719D01*
X102470922Y-82858778D01*
X102452935Y-82884069D01*
X102410505Y-82889868D01*
X102384352Y-82888529D01*
X102356451Y-82873976D01*
X102345839Y-82833719D01*
X102348051Y-82791476D01*
X102365258Y-82761195D01*
X102377827Y-82754358D01*
X102410505Y-82744821D01*
X102434869Y-82748934D01*
G37*
G36*
X104502301Y-82590041D02*
G01*
X104517462Y-82636797D01*
X104511197Y-82667394D01*
X104477693Y-82695975D01*
X104443576Y-82698816D01*
X104405799Y-82679816D01*
X104384537Y-82644632D01*
X104385654Y-82604852D01*
X104415011Y-82572067D01*
X104419118Y-82569929D01*
X104465285Y-82565076D01*
X104502301Y-82590041D01*
G37*
G36*
X102436465Y-83526586D02*
G01*
X102472230Y-83535191D01*
X102485952Y-83558418D01*
X102488181Y-83608370D01*
X102488181Y-83686046D01*
X102410505Y-83686046D01*
X102401585Y-83686015D01*
X102355530Y-83682214D01*
X102334522Y-83666505D01*
X102326527Y-83631003D01*
X102325128Y-83587320D01*
X102331225Y-83547291D01*
X102331863Y-83545752D01*
X102358177Y-83526658D01*
X102415204Y-83524658D01*
X102436465Y-83526586D01*
G37*
G36*
X105069315Y-82561824D02*
G01*
X105091505Y-82585358D01*
X105100046Y-82628548D01*
X105092253Y-82672534D01*
X105068263Y-82699379D01*
X105038276Y-82704027D01*
X104998706Y-82687795D01*
X104973692Y-82653253D01*
X104970107Y-82611990D01*
X104994827Y-82575594D01*
X105022492Y-82556053D01*
X105041165Y-82552014D01*
X105069315Y-82561824D01*
G37*
G36*
X103804517Y-86446995D02*
G01*
X103819335Y-86397201D01*
X103847302Y-86340557D01*
X103897947Y-86262693D01*
X103972746Y-86192639D01*
X104068869Y-86145891D01*
X104099824Y-86136587D01*
X104215417Y-86125790D01*
X104325583Y-86152548D01*
X104425222Y-86215862D01*
X104436048Y-86224926D01*
X104451585Y-86230905D01*
X104457968Y-86211337D01*
X104459206Y-86159584D01*
X104446526Y-86071988D01*
X104404442Y-86003243D01*
X104331068Y-85956013D01*
X104246110Y-85932595D01*
X104156294Y-85935604D01*
X104051226Y-85966056D01*
X103953534Y-86003176D01*
X103924795Y-85947601D01*
X103923586Y-85945255D01*
X103904101Y-85904510D01*
X103896056Y-85882036D01*
X103905152Y-85869312D01*
X103944113Y-85846777D01*
X104005561Y-85822354D01*
X104080536Y-85800027D01*
X104172722Y-85786155D01*
X104287580Y-85791269D01*
X104396070Y-85818009D01*
X104488195Y-85863720D01*
X104553961Y-85925748D01*
X104555512Y-85927945D01*
X104580406Y-85969418D01*
X104599581Y-86017541D01*
X104613729Y-86077674D01*
X104623541Y-86155176D01*
X104629707Y-86255406D01*
X104632919Y-86383723D01*
X104633868Y-86545488D01*
X104633976Y-86958141D01*
X104546591Y-86958141D01*
X104541730Y-86958132D01*
X104489334Y-86955136D01*
X104465100Y-86943810D01*
X104459206Y-86919849D01*
X104457901Y-86901386D01*
X104448095Y-86893565D01*
X104421271Y-86902651D01*
X104368928Y-86929558D01*
X104278276Y-86964210D01*
X104163418Y-86974277D01*
X104051878Y-86949909D01*
X103950778Y-86892877D01*
X103867243Y-86804948D01*
X103844897Y-86770928D01*
X103821578Y-86721087D01*
X103808750Y-86662354D01*
X103802086Y-86579778D01*
X103801411Y-86556866D01*
X103962081Y-86556866D01*
X103978086Y-86647911D01*
X104020974Y-86724752D01*
X104084937Y-86782476D01*
X104164165Y-86816168D01*
X104252849Y-86820911D01*
X104345182Y-86791792D01*
X104385458Y-86759741D01*
X104431270Y-86696719D01*
X104464778Y-86621936D01*
X104477772Y-86550342D01*
X104473568Y-86509203D01*
X104445088Y-86428405D01*
X104396871Y-86357532D01*
X104337366Y-86310987D01*
X104298645Y-86295789D01*
X104209285Y-86280618D01*
X104129083Y-86292142D01*
X104110811Y-86300604D01*
X104053825Y-86345835D01*
X104003670Y-86409346D01*
X103972673Y-86476596D01*
X103962081Y-86556866D01*
X103801411Y-86556866D01*
X103799898Y-86505535D01*
X103804517Y-86446995D01*
G37*
G36*
X106213401Y-82396375D02*
G01*
X106222655Y-82439691D01*
X106220996Y-82448598D01*
X106202692Y-82474944D01*
X106158631Y-82482070D01*
X106131372Y-82478416D01*
X106097467Y-82454830D01*
X106092253Y-82418968D01*
X106120098Y-82382157D01*
X106136954Y-82372918D01*
X106180350Y-82371601D01*
X106213401Y-82396375D01*
G37*
G36*
X103557843Y-82377051D02*
G01*
X103580541Y-82392259D01*
X103585352Y-82433523D01*
X103583568Y-82464271D01*
X103568359Y-82486968D01*
X103527095Y-82491780D01*
X103496348Y-82489995D01*
X103473650Y-82474786D01*
X103468839Y-82433523D01*
X103470623Y-82402775D01*
X103485832Y-82380078D01*
X103527095Y-82375266D01*
X103557843Y-82377051D01*
G37*
G36*
X104312176Y-84677800D02*
G01*
X104337496Y-84716762D01*
X104335362Y-84759293D01*
X104302436Y-84790506D01*
X104243022Y-84802636D01*
X104232934Y-84802130D01*
X104189802Y-84782518D01*
X104173002Y-84741056D01*
X104186948Y-84686856D01*
X104217951Y-84655677D01*
X104264632Y-84650415D01*
X104312176Y-84677800D01*
G37*
G36*
X104486737Y-82948658D02*
G01*
X104520734Y-82986388D01*
X104532686Y-83030048D01*
X104517940Y-83064064D01*
X104515563Y-83066824D01*
X104473116Y-83092660D01*
X104428170Y-83090054D01*
X104391045Y-83065573D01*
X104372058Y-83025784D01*
X104381530Y-82977254D01*
X104398045Y-82956218D01*
X104440996Y-82938283D01*
X104486737Y-82948658D01*
G37*
G36*
X105794377Y-84653164D02*
G01*
X105826057Y-84685163D01*
X105834652Y-84736777D01*
X105827531Y-84770906D01*
X105806747Y-84789043D01*
X105760276Y-84792926D01*
X105727627Y-84791394D01*
X105697385Y-84779050D01*
X105685964Y-84748165D01*
X105686757Y-84716187D01*
X105702906Y-84675344D01*
X105708057Y-84669601D01*
X105751185Y-84646178D01*
X105794377Y-84653164D01*
G37*
G36*
X101726920Y-83143130D02*
G01*
X101746358Y-83162922D01*
X101750261Y-83208165D01*
X101748217Y-83234970D01*
X101728362Y-83284334D01*
X101692818Y-83306462D01*
X101648311Y-83295584D01*
X101623871Y-83269731D01*
X101606260Y-83216019D01*
X101612659Y-83159081D01*
X101633113Y-83140078D01*
X101687016Y-83136220D01*
X101726920Y-83143130D01*
G37*
G36*
X103557843Y-84085919D02*
G01*
X103580541Y-84101128D01*
X103585352Y-84142391D01*
X103583568Y-84173139D01*
X103568359Y-84195836D01*
X103527095Y-84200648D01*
X103496348Y-84198863D01*
X103473650Y-84183655D01*
X103468839Y-84142391D01*
X103470623Y-84111644D01*
X103485832Y-84088946D01*
X103527095Y-84084134D01*
X103557843Y-84085919D01*
G37*
G36*
X106505280Y-84089407D02*
G01*
X106538229Y-84105076D01*
X106546744Y-84142391D01*
X106546378Y-84153364D01*
X106533284Y-84184762D01*
X106493231Y-84197094D01*
X106450111Y-84191979D01*
X106423482Y-84161733D01*
X106428042Y-84111962D01*
X106445079Y-84093234D01*
X106493231Y-84087689D01*
X106505280Y-84089407D01*
G37*
G36*
X100952696Y-82774742D02*
G01*
X100978589Y-82820162D01*
X100971824Y-82862059D01*
X100937870Y-82890633D01*
X100882331Y-82896214D01*
X100867848Y-82892168D01*
X100837389Y-82862300D01*
X100829462Y-82817382D01*
X100848166Y-82772286D01*
X100864282Y-82756795D01*
X100906671Y-82746628D01*
X100952696Y-82774742D01*
G37*
G36*
X108058202Y-84105243D02*
G01*
X108067456Y-84148560D01*
X108065798Y-84157466D01*
X108047494Y-84183812D01*
X108003432Y-84190939D01*
X107976173Y-84187285D01*
X107942269Y-84163698D01*
X107937054Y-84127837D01*
X107964899Y-84091025D01*
X107981755Y-84081787D01*
X108025152Y-84080470D01*
X108058202Y-84105243D01*
G37*
G36*
X108220599Y-83710725D02*
G01*
X108241374Y-83742980D01*
X108240641Y-83780014D01*
X108215328Y-83805801D01*
X108202737Y-83808301D01*
X108167781Y-83794773D01*
X108143856Y-83761387D01*
X108142904Y-83721969D01*
X108157551Y-83706285D01*
X108194972Y-83699583D01*
X108220599Y-83710725D01*
G37*
G36*
X104475456Y-83526586D02*
G01*
X104511221Y-83535191D01*
X104524942Y-83558418D01*
X104527172Y-83608370D01*
X104527172Y-83686046D01*
X104449496Y-83686046D01*
X104440576Y-83686015D01*
X104394521Y-83682214D01*
X104373513Y-83666505D01*
X104365517Y-83631003D01*
X104364119Y-83587320D01*
X104370216Y-83547291D01*
X104370854Y-83545752D01*
X104397167Y-83526658D01*
X104454195Y-83524658D01*
X104475456Y-83526586D01*
G37*
G36*
X105990833Y-84081068D02*
G01*
X106020321Y-84114764D01*
X106025646Y-84153813D01*
X106004055Y-84187981D01*
X105957006Y-84196844D01*
X105939168Y-84192858D01*
X105905225Y-84166513D01*
X105899201Y-84128344D01*
X105925113Y-84091606D01*
X105947725Y-84079614D01*
X105990833Y-84081068D01*
G37*
G36*
X105599418Y-82003129D02*
G01*
X105621111Y-82032642D01*
X105620332Y-82066456D01*
X105595094Y-82094878D01*
X105548622Y-82094311D01*
X105520906Y-82074616D01*
X105507341Y-82035985D01*
X105521595Y-81999014D01*
X105525141Y-81995965D01*
X105560824Y-81988672D01*
X105599418Y-82003129D01*
G37*
G36*
X104307124Y-84295153D02*
G01*
X104323273Y-84334886D01*
X104312563Y-84373066D01*
X104276234Y-84403341D01*
X104227110Y-84404843D01*
X104208238Y-84394022D01*
X104188861Y-84357410D01*
X104192772Y-84314144D01*
X104220822Y-84280936D01*
X104223888Y-84279322D01*
X104268890Y-84273942D01*
X104307124Y-84295153D01*
G37*
G36*
X106168629Y-82565157D02*
G01*
X106209570Y-82587841D01*
X106226331Y-82626018D01*
X106215621Y-82664197D01*
X106179292Y-82694472D01*
X106130168Y-82695975D01*
X106127552Y-82695056D01*
X106099281Y-82668231D01*
X106088861Y-82626917D01*
X106096994Y-82587050D01*
X106124381Y-82564565D01*
X106168629Y-82565157D01*
G37*
G36*
X108214149Y-84089407D02*
G01*
X108247097Y-84105076D01*
X108255612Y-84142391D01*
X108255246Y-84153364D01*
X108242152Y-84184762D01*
X108202100Y-84197094D01*
X108158979Y-84191979D01*
X108132351Y-84161733D01*
X108136911Y-84111962D01*
X108153948Y-84093234D01*
X108202100Y-84087689D01*
X108214149Y-84089407D01*
G37*
G36*
X108444220Y-84298555D02*
G01*
X108459511Y-84344896D01*
X108449610Y-84381531D01*
X108413607Y-84406774D01*
X108359681Y-84403679D01*
X108341595Y-84392571D01*
X108324906Y-84356124D01*
X108329941Y-84313267D01*
X108357060Y-84280936D01*
X108360775Y-84278989D01*
X108406987Y-84273888D01*
X108444220Y-84298555D01*
G37*
G36*
X106533151Y-84282208D02*
G01*
X106539946Y-84290018D01*
X106556190Y-84334108D01*
X106547703Y-84377837D01*
X106516684Y-84404843D01*
X106483595Y-84407953D01*
X106445292Y-84389445D01*
X106423796Y-84354133D01*
X106424927Y-84313712D01*
X106454504Y-84279879D01*
X106481109Y-84265657D01*
X106507538Y-84262420D01*
X106533151Y-84282208D01*
G37*
G36*
X105602694Y-84090296D02*
G01*
X105628627Y-84118118D01*
X105633123Y-84156087D01*
X105614374Y-84189838D01*
X105564468Y-84200648D01*
X105535271Y-84198911D01*
X105512693Y-84183696D01*
X105507829Y-84142391D01*
X105509479Y-84112663D01*
X105524105Y-84089218D01*
X105563821Y-84084134D01*
X105602694Y-84090296D01*
G37*
G36*
X108187646Y-86142544D02*
G01*
X108198058Y-86142583D01*
X108242767Y-86146217D01*
X108261518Y-86160953D01*
X108265322Y-86194101D01*
X108266242Y-86222271D01*
X108274898Y-86233478D01*
X108299883Y-86214381D01*
X108302919Y-86211738D01*
X108346865Y-86182068D01*
X108401832Y-86153875D01*
X108460512Y-86134363D01*
X108571401Y-86127918D01*
X108682829Y-86159828D01*
X108775897Y-86219090D01*
X108850519Y-86308639D01*
X108895706Y-86422889D01*
X108910939Y-86560922D01*
X108905556Y-86634979D01*
X108873052Y-86748884D01*
X108815580Y-86843032D01*
X108738290Y-86914320D01*
X108646330Y-86959643D01*
X108544852Y-86975897D01*
X108439003Y-86959976D01*
X108333933Y-86908777D01*
X108265322Y-86862216D01*
X108265322Y-87288263D01*
X108109970Y-87288263D01*
X108109970Y-86521332D01*
X108270117Y-86521332D01*
X108274536Y-86621583D01*
X108306344Y-86705727D01*
X108359542Y-86770137D01*
X108428127Y-86811185D01*
X108506098Y-86825245D01*
X108587455Y-86808690D01*
X108666195Y-86757892D01*
X108666563Y-86757555D01*
X108711457Y-86709715D01*
X108734874Y-86661227D01*
X108746035Y-86593055D01*
X108744088Y-86487432D01*
X108712844Y-86399398D01*
X108649692Y-86326631D01*
X108645018Y-86322795D01*
X108568569Y-86282803D01*
X108488644Y-86276465D01*
X108412053Y-86300331D01*
X108345609Y-86350954D01*
X108296123Y-86424885D01*
X108270407Y-86518674D01*
X108270117Y-86521332D01*
X108109970Y-86521332D01*
X108109970Y-86142544D01*
X108187646Y-86142544D01*
G37*
G36*
X106746759Y-84864777D02*
G01*
X106748583Y-84866671D01*
X106768671Y-84911832D01*
X106761902Y-84961361D01*
X106730490Y-84997218D01*
X106710849Y-85005576D01*
X106658287Y-85006982D01*
X106619009Y-84981027D01*
X106601518Y-84936214D01*
X106614318Y-84881045D01*
X106615559Y-84878836D01*
X106652574Y-84848654D01*
X106702320Y-84843229D01*
X106746759Y-84864777D01*
G37*
G36*
X102241704Y-83136768D02*
G01*
X102284073Y-83161482D01*
X102291893Y-83173823D01*
X102298348Y-83221409D01*
X102281414Y-83268639D01*
X102246132Y-83297448D01*
X102211129Y-83301578D01*
X102165493Y-83284024D01*
X102135802Y-83246865D01*
X102129050Y-83200645D01*
X102152233Y-83155908D01*
X102189234Y-83136395D01*
X102241704Y-83136768D01*
G37*
G36*
X107318738Y-84095411D02*
G01*
X107333212Y-84144656D01*
X107331495Y-84173229D01*
X107316278Y-84195762D01*
X107274955Y-84200648D01*
X107244923Y-84198959D01*
X107221700Y-84184167D01*
X107216698Y-84144010D01*
X107223541Y-84102389D01*
X107240972Y-84079204D01*
X107280077Y-84074187D01*
X107318738Y-84095411D01*
G37*
G36*
X104707768Y-83155908D02*
G01*
X104709592Y-83157803D01*
X104729680Y-83202964D01*
X104722911Y-83252492D01*
X104691500Y-83288350D01*
X104671858Y-83296708D01*
X104619296Y-83298114D01*
X104580018Y-83272159D01*
X104562527Y-83227345D01*
X104575327Y-83172177D01*
X104576568Y-83169968D01*
X104613583Y-83139785D01*
X104663329Y-83134360D01*
X104707768Y-83155908D01*
G37*
G36*
X105081972Y-84660454D02*
G01*
X105110264Y-84698551D01*
X105111243Y-84755017D01*
X105103303Y-84778947D01*
X105081360Y-84798321D01*
X105036253Y-84798962D01*
X105007498Y-84794658D01*
X104978401Y-84777095D01*
X104967398Y-84736777D01*
X104969611Y-84694534D01*
X104986817Y-84664253D01*
X105035999Y-84647752D01*
X105081972Y-84660454D01*
G37*
G36*
X103169788Y-84273767D02*
G01*
X103175706Y-84278183D01*
X103199715Y-84316607D01*
X103200226Y-84361475D01*
X103180029Y-84398716D01*
X103141917Y-84414257D01*
X103130933Y-84413555D01*
X103088163Y-84393854D01*
X103064954Y-84356505D01*
X103065757Y-84314261D01*
X103095024Y-84279879D01*
X103117040Y-84267758D01*
X103143824Y-84261187D01*
X103169788Y-84273767D01*
G37*
G36*
X100935473Y-83333621D02*
G01*
X100967654Y-83350587D01*
X100979760Y-83391081D01*
X100976832Y-83441492D01*
X100948631Y-83485518D01*
X100897332Y-83501566D01*
X100895675Y-83501552D01*
X100844926Y-83484986D01*
X100813933Y-83445680D01*
X100808048Y-83396227D01*
X100832619Y-83349222D01*
X100865452Y-83334146D01*
X100915150Y-83330774D01*
X100935473Y-83333621D01*
G37*
G36*
X105602694Y-82381428D02*
G01*
X105628627Y-82409249D01*
X105633123Y-82447218D01*
X105614374Y-82480969D01*
X105564468Y-82491780D01*
X105535271Y-82490043D01*
X105512693Y-82474827D01*
X105507829Y-82433523D01*
X105509479Y-82403794D01*
X105524105Y-82380349D01*
X105563821Y-82375266D01*
X105602694Y-82381428D01*
G37*
G36*
X105822768Y-84865533D02*
G01*
X105848344Y-84906412D01*
X105847443Y-84958676D01*
X105841336Y-84971644D01*
X105804673Y-85001608D01*
X105755365Y-85011613D01*
X105711476Y-84996616D01*
X105688924Y-84961709D01*
X105684868Y-84909422D01*
X105705903Y-84864777D01*
X105734359Y-84845912D01*
X105781259Y-84843035D01*
X105822768Y-84865533D01*
G37*
G36*
X105382684Y-82744912D02*
G01*
X105424237Y-82765315D01*
X105443996Y-82804530D01*
X105438897Y-82849630D01*
X105405880Y-82887688D01*
X105378691Y-82897709D01*
X105337846Y-82888803D01*
X105308006Y-82858006D01*
X105297439Y-82815739D01*
X105314414Y-82772422D01*
X105330853Y-82758232D01*
X105371897Y-82744226D01*
X105382684Y-82744912D01*
G37*
G36*
X107281093Y-84260313D02*
G01*
X107309631Y-84278862D01*
X107339079Y-84307031D01*
X107352631Y-84329535D01*
X107341298Y-84363536D01*
X107311425Y-84398675D01*
X107278155Y-84414257D01*
X107244203Y-84408328D01*
X107209119Y-84379061D01*
X107202094Y-84335568D01*
X107227794Y-84289421D01*
X107249271Y-84271242D01*
X107274955Y-84258905D01*
X107281093Y-84260313D01*
G37*
G36*
X102434869Y-84457803D02*
G01*
X102467869Y-84488316D01*
X102475172Y-84542587D01*
X102470922Y-84567647D01*
X102452935Y-84592937D01*
X102410505Y-84598737D01*
X102384352Y-84597397D01*
X102356451Y-84582844D01*
X102345839Y-84542587D01*
X102348051Y-84500344D01*
X102365258Y-84470063D01*
X102377827Y-84463226D01*
X102410505Y-84453689D01*
X102434869Y-84457803D01*
G37*
G36*
X103949576Y-84653164D02*
G01*
X103981256Y-84685163D01*
X103989851Y-84736777D01*
X103982730Y-84770906D01*
X103961946Y-84789043D01*
X103915475Y-84792926D01*
X103882826Y-84791394D01*
X103852584Y-84779050D01*
X103841163Y-84748165D01*
X103841956Y-84716187D01*
X103858105Y-84675344D01*
X103863256Y-84669601D01*
X103906384Y-84646178D01*
X103949576Y-84653164D01*
G37*
G36*
X103761210Y-82383597D02*
G01*
X103789967Y-82414725D01*
X103786161Y-82463702D01*
X103769684Y-82481911D01*
X103723659Y-82487975D01*
X103717586Y-82487166D01*
X103680800Y-82470571D01*
X103666593Y-82428668D01*
X103665097Y-82400233D01*
X103677719Y-82379608D01*
X103717918Y-82375266D01*
X103761210Y-82383597D01*
G37*
G36*
X102273574Y-85239854D02*
G01*
X102298969Y-85272114D01*
X102310021Y-85314374D01*
X102326092Y-85270930D01*
X102337592Y-85248494D01*
X102364272Y-85233531D01*
X102415172Y-85233524D01*
X102436457Y-85235454D01*
X102472229Y-85244060D01*
X102485952Y-85267287D01*
X102488181Y-85317238D01*
X102488015Y-85340509D01*
X102482608Y-85378673D01*
X102461475Y-85394809D01*
X102413872Y-85401030D01*
X102370247Y-85402320D01*
X102341738Y-85392055D01*
X102328181Y-85363624D01*
X102316800Y-85320102D01*
X102300729Y-85363546D01*
X102290199Y-85384672D01*
X102263926Y-85400700D01*
X102213751Y-85400952D01*
X102203567Y-85399829D01*
X102146916Y-85378323D01*
X102122075Y-85335314D01*
X102130831Y-85273546D01*
X102141237Y-85256078D01*
X102180012Y-85231962D01*
X102229023Y-85226512D01*
X102273574Y-85239854D01*
G37*
G36*
X103178831Y-84473197D02*
G01*
X103203999Y-84493985D01*
X103216159Y-84532808D01*
X103202070Y-84571337D01*
X103166823Y-84598964D01*
X103115511Y-84605082D01*
X103101028Y-84601037D01*
X103070570Y-84571168D01*
X103062643Y-84526250D01*
X103081346Y-84481154D01*
X103098455Y-84464019D01*
X103131459Y-84454849D01*
X103178831Y-84473197D01*
G37*
G36*
X101146886Y-82774742D02*
G01*
X101172779Y-82820162D01*
X101166013Y-82862059D01*
X101132060Y-82890633D01*
X101076521Y-82896214D01*
X101062037Y-82892168D01*
X101031579Y-82862300D01*
X101023652Y-82817382D01*
X101042356Y-82772286D01*
X101058471Y-82756795D01*
X101100861Y-82746628D01*
X101146886Y-82774742D01*
G37*
G36*
X104711443Y-84676161D02*
G01*
X104723751Y-84703560D01*
X104723160Y-84753836D01*
X104720192Y-84764207D01*
X104698472Y-84794623D01*
X104653708Y-84802636D01*
X104635709Y-84801319D01*
X104587544Y-84779390D01*
X104565414Y-84737804D01*
X104575719Y-84686122D01*
X104580687Y-84678301D01*
X104620121Y-84651999D01*
X104669535Y-84650858D01*
X104711443Y-84676161D01*
G37*
G36*
X102621488Y-82380538D02*
G01*
X102654437Y-82396207D01*
X102662952Y-82433523D01*
X102662586Y-82444496D01*
X102649492Y-82475894D01*
X102609439Y-82488225D01*
X102566319Y-82483111D01*
X102539690Y-82452864D01*
X102544250Y-82403094D01*
X102561287Y-82384366D01*
X102609439Y-82378820D01*
X102621488Y-82380538D01*
G37*
G36*
X106289763Y-86148567D02*
G01*
X106384272Y-86184319D01*
X106438954Y-86217566D01*
X106466992Y-86246568D01*
X106466427Y-86276798D01*
X106440936Y-86316855D01*
X106404015Y-86364942D01*
X106327093Y-86321709D01*
X106279511Y-86299679D01*
X106183358Y-86279573D01*
X106089990Y-86287909D01*
X106007279Y-86322140D01*
X105943099Y-86379720D01*
X105905326Y-86458102D01*
X105891998Y-86511504D01*
X106517615Y-86511504D01*
X106517189Y-86594035D01*
X106504381Y-86684474D01*
X106463396Y-86783518D01*
X106400540Y-86869774D01*
X106322320Y-86934581D01*
X106235242Y-86969281D01*
X106180604Y-86976276D01*
X106058512Y-86967605D01*
X105949241Y-86927404D01*
X105856999Y-86860382D01*
X105785995Y-86771246D01*
X105740439Y-86664702D01*
X105738137Y-86647437D01*
X105892634Y-86647437D01*
X105929467Y-86710505D01*
X105977605Y-86768062D01*
X106051201Y-86810858D01*
X106133855Y-86825720D01*
X106215503Y-86811100D01*
X106286082Y-86765445D01*
X106297723Y-86753152D01*
X106329916Y-86710389D01*
X106342845Y-86678059D01*
X106338246Y-86665230D01*
X106319643Y-86656180D01*
X106280826Y-86650760D01*
X106215592Y-86648127D01*
X106117739Y-86647437D01*
X105892634Y-86647437D01*
X105738137Y-86647437D01*
X105724540Y-86545459D01*
X105742507Y-86418224D01*
X105780636Y-86334308D01*
X105844622Y-86252103D01*
X105922900Y-86185628D01*
X106004672Y-86146090D01*
X106064023Y-86134380D01*
X106177321Y-86131347D01*
X106289763Y-86148567D01*
G37*
G36*
X102435894Y-84845636D02*
G01*
X102478262Y-84870350D01*
X102486082Y-84882691D01*
X102492538Y-84930277D01*
X102475604Y-84977508D01*
X102440322Y-85006317D01*
X102405319Y-85010446D01*
X102359683Y-84992892D01*
X102329991Y-84955734D01*
X102323240Y-84909514D01*
X102346423Y-84864777D01*
X102383424Y-84845264D01*
X102435894Y-84845636D01*
G37*
G36*
X103173799Y-84656954D02*
G01*
X103205912Y-84694125D01*
X103213028Y-84748165D01*
X103207673Y-84769524D01*
X103186270Y-84788288D01*
X103138716Y-84792926D01*
X103106067Y-84791394D01*
X103075825Y-84779050D01*
X103064405Y-84748165D01*
X103065197Y-84716187D01*
X103081346Y-84675344D01*
X103097624Y-84661290D01*
X103138716Y-84647284D01*
X103173799Y-84656954D01*
G37*
G36*
X102435894Y-83136768D02*
G01*
X102478262Y-83161482D01*
X102486082Y-83173823D01*
X102492538Y-83221409D01*
X102475604Y-83268639D01*
X102440322Y-83297448D01*
X102405319Y-83301578D01*
X102359683Y-83284024D01*
X102329991Y-83246865D01*
X102323240Y-83200645D01*
X102346423Y-83155908D01*
X102383424Y-83136395D01*
X102435894Y-83136768D01*
G37*
G36*
X105375492Y-82550391D02*
G01*
X105406283Y-82568689D01*
X105436159Y-82602531D01*
X105449573Y-82634925D01*
X105449165Y-82642379D01*
X105429561Y-82681401D01*
X105390932Y-82700990D01*
X105347709Y-82697636D01*
X105314323Y-82667827D01*
X105298259Y-82634301D01*
X105299593Y-82609523D01*
X105324736Y-82580552D01*
X105346213Y-82562373D01*
X105371897Y-82550037D01*
X105375492Y-82550391D01*
G37*
G36*
X103760229Y-84091528D02*
G01*
X103786564Y-84113263D01*
X103792115Y-84151928D01*
X103769962Y-84187415D01*
X103719207Y-84200648D01*
X103690454Y-84198926D01*
X103667907Y-84183709D01*
X103663028Y-84142391D01*
X103664689Y-84112574D01*
X103679364Y-84089194D01*
X103719207Y-84084134D01*
X103760229Y-84091528D01*
G37*
G36*
X102462323Y-84295153D02*
G01*
X102478472Y-84334886D01*
X102467762Y-84373066D01*
X102431432Y-84403341D01*
X102382309Y-84404843D01*
X102363437Y-84394022D01*
X102344059Y-84357410D01*
X102347971Y-84314144D01*
X102376021Y-84280936D01*
X102379086Y-84279322D01*
X102424088Y-84273942D01*
X102462323Y-84295153D01*
G37*
G36*
X104279670Y-84457803D02*
G01*
X104312670Y-84488316D01*
X104319973Y-84542587D01*
X104315723Y-84567647D01*
X104297736Y-84592937D01*
X104255307Y-84598737D01*
X104229153Y-84597397D01*
X104201253Y-84582844D01*
X104190640Y-84542587D01*
X104192852Y-84500344D01*
X104210059Y-84470063D01*
X104222629Y-84463226D01*
X104255307Y-84453689D01*
X104279670Y-84457803D01*
G37*
G36*
X102467375Y-82968931D02*
G01*
X102492695Y-83007894D01*
X102490561Y-83050425D01*
X102457635Y-83081637D01*
X102398221Y-83093767D01*
X102388133Y-83093261D01*
X102345001Y-83073650D01*
X102328201Y-83032188D01*
X102342146Y-82977987D01*
X102373150Y-82946808D01*
X102419830Y-82941546D01*
X102467375Y-82968931D01*
G37*
G36*
X100940241Y-82394062D02*
G01*
X100960116Y-82427354D01*
X100958802Y-82453429D01*
X100935665Y-82487279D01*
X100897600Y-82498747D01*
X100858337Y-82480645D01*
X100836678Y-82457853D01*
X100829614Y-82437192D01*
X100840050Y-82404932D01*
X100863832Y-82381154D01*
X100902836Y-82377671D01*
X100940241Y-82394062D01*
G37*
G36*
X101320854Y-84845644D02*
G01*
X101356778Y-84873139D01*
X101371591Y-84918850D01*
X101359245Y-84973386D01*
X101322389Y-85006888D01*
X101267359Y-85008916D01*
X101231766Y-84990634D01*
X101209566Y-84946208D01*
X101218512Y-84884442D01*
X101236763Y-84856779D01*
X101276592Y-84839233D01*
X101320854Y-84845644D01*
G37*
G36*
X101494242Y-82551445D02*
G01*
X101522781Y-82569994D01*
X101552229Y-82598162D01*
X101565781Y-82620667D01*
X101554448Y-82654668D01*
X101524575Y-82689806D01*
X101491305Y-82705388D01*
X101457353Y-82699460D01*
X101422269Y-82670192D01*
X101415243Y-82626700D01*
X101440944Y-82580552D01*
X101462421Y-82562373D01*
X101488105Y-82550037D01*
X101494242Y-82551445D01*
G37*
G36*
X106556244Y-84676161D02*
G01*
X106568552Y-84703560D01*
X106567961Y-84753836D01*
X106564993Y-84764207D01*
X106543273Y-84794623D01*
X106498510Y-84802636D01*
X106480510Y-84801319D01*
X106432345Y-84779390D01*
X106410216Y-84737804D01*
X106420521Y-84686122D01*
X106425488Y-84678301D01*
X106464922Y-84651999D01*
X106514336Y-84650858D01*
X106556244Y-84676161D01*
G37*
G36*
X103571721Y-83143130D02*
G01*
X103591159Y-83162922D01*
X103595062Y-83208165D01*
X103593018Y-83234970D01*
X103573164Y-83284334D01*
X103537619Y-83306462D01*
X103493112Y-83295584D01*
X103468672Y-83269731D01*
X103451061Y-83216019D01*
X103457460Y-83159081D01*
X103477915Y-83140078D01*
X103531817Y-83136220D01*
X103571721Y-83143130D01*
G37*
G36*
X105096147Y-83155908D02*
G01*
X105115660Y-83192909D01*
X105115288Y-83245379D01*
X105090574Y-83287748D01*
X105049450Y-83305729D01*
X105005309Y-83296556D01*
X104970850Y-83265043D01*
X104954774Y-83219517D01*
X104965779Y-83168304D01*
X104967839Y-83164796D01*
X105004177Y-83138366D01*
X105053089Y-83134819D01*
X105096147Y-83155908D01*
G37*
G36*
X107639178Y-84653164D02*
G01*
X107670858Y-84685163D01*
X107679453Y-84736777D01*
X107672332Y-84770906D01*
X107651549Y-84789043D01*
X107605077Y-84792926D01*
X107572428Y-84791394D01*
X107542186Y-84779050D01*
X107530765Y-84748165D01*
X107531558Y-84716187D01*
X107547707Y-84675344D01*
X107552858Y-84669601D01*
X107595986Y-84646178D01*
X107639178Y-84653164D01*
G37*
G36*
X106530698Y-84469205D02*
G01*
X106561391Y-84514319D01*
X106563517Y-84521304D01*
X106557841Y-84565208D01*
X106525668Y-84597131D01*
X106477689Y-84605436D01*
X106463136Y-84601604D01*
X106430580Y-84572036D01*
X106421717Y-84527077D01*
X106440827Y-84481154D01*
X106447780Y-84473660D01*
X106489349Y-84454696D01*
X106530698Y-84469205D01*
G37*
G36*
X106199594Y-82954751D02*
G01*
X106230505Y-82996673D01*
X106230929Y-83043363D01*
X106201118Y-83079586D01*
X106148342Y-83093767D01*
X106136107Y-83093456D01*
X106097437Y-83081439D01*
X106078890Y-83044968D01*
X106076102Y-83009263D01*
X106090608Y-82967292D01*
X106106777Y-82952465D01*
X106153544Y-82939005D01*
X106199594Y-82954751D01*
G37*
G36*
X104280695Y-83136768D02*
G01*
X104323064Y-83161482D01*
X104330884Y-83173823D01*
X104337339Y-83221409D01*
X104320405Y-83268639D01*
X104285123Y-83297448D01*
X104250120Y-83301578D01*
X104204484Y-83284024D01*
X104174793Y-83246865D01*
X104168041Y-83200645D01*
X104191224Y-83155908D01*
X104228225Y-83136395D01*
X104280695Y-83136768D01*
G37*
G36*
X103977967Y-83156665D02*
G01*
X104003543Y-83197543D01*
X104002642Y-83249807D01*
X103996535Y-83262775D01*
X103959872Y-83292740D01*
X103910563Y-83302744D01*
X103866675Y-83287748D01*
X103844122Y-83252840D01*
X103840066Y-83200554D01*
X103861102Y-83155908D01*
X103889557Y-83137043D01*
X103936458Y-83134166D01*
X103977967Y-83156665D01*
G37*
G36*
X108408338Y-84089407D02*
G01*
X108441287Y-84105076D01*
X108449802Y-84142391D01*
X108449436Y-84153364D01*
X108436342Y-84184762D01*
X108396289Y-84197094D01*
X108353169Y-84191979D01*
X108326540Y-84161733D01*
X108331100Y-84111962D01*
X108348138Y-84093234D01*
X108396289Y-84087689D01*
X108408338Y-84089407D01*
G37*
G36*
X101717377Y-84656954D02*
G01*
X101749490Y-84694125D01*
X101756606Y-84748165D01*
X101751251Y-84769524D01*
X101729848Y-84788288D01*
X101682294Y-84792926D01*
X101649645Y-84791394D01*
X101619403Y-84779050D01*
X101607982Y-84748165D01*
X101608775Y-84716187D01*
X101624924Y-84675344D01*
X101641202Y-84661290D01*
X101682294Y-84647284D01*
X101717377Y-84656954D01*
G37*
G36*
X101685889Y-84259259D02*
G01*
X101716681Y-84277557D01*
X101746557Y-84311399D01*
X101759970Y-84343794D01*
X101759562Y-84351248D01*
X101739958Y-84390270D01*
X101701330Y-84409859D01*
X101658107Y-84406504D01*
X101624721Y-84376695D01*
X101608657Y-84343169D01*
X101609991Y-84318392D01*
X101635134Y-84289421D01*
X101656611Y-84271242D01*
X101682294Y-84258905D01*
X101685889Y-84259259D01*
G37*
G36*
X104685897Y-84469205D02*
G01*
X104716589Y-84514319D01*
X104718716Y-84521304D01*
X104713040Y-84565208D01*
X104680867Y-84597131D01*
X104632888Y-84605436D01*
X104618335Y-84601604D01*
X104585779Y-84572036D01*
X104576916Y-84527077D01*
X104596025Y-84481154D01*
X104602979Y-84473660D01*
X104644547Y-84454696D01*
X104685897Y-84469205D01*
G37*
G36*
X101725252Y-84468709D02*
G01*
X101750975Y-84506611D01*
X101752059Y-84559647D01*
X101734897Y-84594397D01*
X101695518Y-84608446D01*
X101648487Y-84597528D01*
X101613806Y-84564638D01*
X101605063Y-84520574D01*
X101627921Y-84476397D01*
X101640723Y-84465690D01*
X101685098Y-84452787D01*
X101725252Y-84468709D01*
G37*
G36*
X107861759Y-84865533D02*
G01*
X107887335Y-84906412D01*
X107886434Y-84958676D01*
X107880327Y-84971644D01*
X107843664Y-85001608D01*
X107794356Y-85011613D01*
X107750467Y-84996616D01*
X107727914Y-84961709D01*
X107723858Y-84909422D01*
X107744894Y-84864777D01*
X107773350Y-84845912D01*
X107820250Y-84843035D01*
X107861759Y-84865533D01*
G37*
G36*
X104484666Y-83139291D02*
G01*
X104522094Y-83169287D01*
X104537698Y-83212515D01*
X104528316Y-83256900D01*
X104490790Y-83290371D01*
X104440890Y-83299313D01*
X104395854Y-83282153D01*
X104366751Y-83246349D01*
X104360848Y-83201176D01*
X104385414Y-83155908D01*
X104404933Y-83143122D01*
X104449496Y-83132605D01*
X104484666Y-83139291D01*
G37*
G36*
X103367989Y-82948085D02*
G01*
X103400102Y-82985256D01*
X103407218Y-83039296D01*
X103401862Y-83060655D01*
X103380460Y-83079420D01*
X103332906Y-83084058D01*
X103300257Y-83082525D01*
X103270015Y-83070182D01*
X103258594Y-83039296D01*
X103259387Y-83007318D01*
X103275536Y-82966475D01*
X103291814Y-82952421D01*
X103332906Y-82938416D01*
X103367989Y-82948085D01*
G37*
G36*
X105069315Y-84270692D02*
G01*
X105091505Y-84294226D01*
X105100046Y-84337417D01*
X105092253Y-84381402D01*
X105068263Y-84408247D01*
X105038276Y-84412896D01*
X104998706Y-84396663D01*
X104973692Y-84362121D01*
X104970107Y-84320858D01*
X104994827Y-84284462D01*
X105022492Y-84264921D01*
X105041165Y-84260883D01*
X105069315Y-84270692D01*
G37*
G36*
X100741572Y-86444204D02*
G01*
X100778798Y-86327837D01*
X100846234Y-86235364D01*
X100944634Y-86165549D01*
X101010955Y-86140018D01*
X101112774Y-86126463D01*
X101211381Y-86139339D01*
X101293730Y-86178175D01*
X101321304Y-86198061D01*
X101354180Y-86216687D01*
X101368473Y-86211026D01*
X101371591Y-86181382D01*
X101371624Y-86178592D01*
X101378544Y-86155637D01*
X101404367Y-86145085D01*
X101458976Y-86142544D01*
X101546362Y-86142544D01*
X101546362Y-87288263D01*
X101371591Y-87288263D01*
X101371591Y-86885747D01*
X101280915Y-86931653D01*
X101199532Y-86962221D01*
X101086510Y-86973326D01*
X100978192Y-86951271D01*
X100881406Y-86898854D01*
X100802986Y-86818872D01*
X100749762Y-86714124D01*
X100739901Y-86666425D01*
X100733628Y-86590888D01*
X100733898Y-86546405D01*
X100892189Y-86546405D01*
X100904831Y-86640021D01*
X100941153Y-86720674D01*
X100996409Y-86783187D01*
X101065859Y-86822388D01*
X101144759Y-86833100D01*
X101228366Y-86810149D01*
X101239730Y-86804056D01*
X101296989Y-86760589D01*
X101339308Y-86709773D01*
X101365871Y-86643147D01*
X101376199Y-86548712D01*
X101362377Y-86453762D01*
X101326406Y-86369914D01*
X101270286Y-86308784D01*
X101258359Y-86301976D01*
X101202938Y-86285115D01*
X101135732Y-86278477D01*
X101100872Y-86280558D01*
X101012529Y-86309129D01*
X100945808Y-86368886D01*
X100904565Y-86456852D01*
X100892189Y-86546405D01*
X100733898Y-86546405D01*
X100734116Y-86510568D01*
X100741572Y-86444204D01*
G37*
G36*
X105406980Y-82948085D02*
G01*
X105439092Y-82985256D01*
X105446208Y-83039296D01*
X105440853Y-83060655D01*
X105419450Y-83079420D01*
X105371897Y-83084058D01*
X105339248Y-83082525D01*
X105309006Y-83070182D01*
X105297585Y-83039296D01*
X105298378Y-83007318D01*
X105314527Y-82966475D01*
X105330805Y-82952421D01*
X105371897Y-82938416D01*
X105406980Y-82948085D01*
G37*
G36*
X105780249Y-84274025D02*
G01*
X105821191Y-84296710D01*
X105837952Y-84334886D01*
X105827242Y-84373066D01*
X105790912Y-84403341D01*
X105741789Y-84404843D01*
X105739173Y-84403924D01*
X105710902Y-84377100D01*
X105700482Y-84335786D01*
X105708615Y-84295919D01*
X105736002Y-84273434D01*
X105780249Y-84274025D01*
G37*
G36*
X100945733Y-82951585D02*
G01*
X100974026Y-82989682D01*
X100975004Y-83046149D01*
X100967065Y-83070079D01*
X100945122Y-83089452D01*
X100900015Y-83090093D01*
X100871260Y-83085790D01*
X100842163Y-83068227D01*
X100831160Y-83027908D01*
X100833372Y-82985665D01*
X100850579Y-82955384D01*
X100899760Y-82938884D01*
X100945733Y-82951585D01*
G37*
G36*
X108428786Y-84657527D02*
G01*
X108462783Y-84695257D01*
X108474735Y-84738917D01*
X108459989Y-84772932D01*
X108457612Y-84775692D01*
X108415165Y-84801528D01*
X108370219Y-84798922D01*
X108333094Y-84774441D01*
X108314107Y-84734652D01*
X108323579Y-84686122D01*
X108340094Y-84665086D01*
X108383044Y-84647152D01*
X108428786Y-84657527D01*
G37*
G36*
X103766710Y-83142117D02*
G01*
X103796689Y-83175574D01*
X103806409Y-83223222D01*
X103791808Y-83272571D01*
X103747841Y-83300047D01*
X103723820Y-83302784D01*
X103677566Y-83286823D01*
X103648358Y-83249355D01*
X103642654Y-83201883D01*
X103666912Y-83155908D01*
X103674791Y-83149036D01*
X103720622Y-83132445D01*
X103766710Y-83142117D01*
G37*
G36*
X101124784Y-83701019D02*
G01*
X101151055Y-83725131D01*
X101149955Y-83760714D01*
X101124903Y-83796534D01*
X101087029Y-83812269D01*
X101063246Y-83802872D01*
X101044939Y-83768901D01*
X101048491Y-83724884D01*
X101053669Y-83715701D01*
X101085715Y-83697860D01*
X101124784Y-83701019D01*
G37*
G36*
X100933076Y-84270692D02*
G01*
X100955267Y-84294226D01*
X100963808Y-84337417D01*
X100956015Y-84381402D01*
X100932025Y-84408247D01*
X100902037Y-84412896D01*
X100862468Y-84396663D01*
X100837453Y-84362121D01*
X100833869Y-84320858D01*
X100858588Y-84284462D01*
X100886254Y-84264921D01*
X100904927Y-84260883D01*
X100933076Y-84270692D01*
G37*
G36*
X105800315Y-84091140D02*
G01*
X105828448Y-84122941D01*
X105825555Y-84171520D01*
X105807818Y-84189934D01*
X105767298Y-84200648D01*
X105734281Y-84193643D01*
X105706149Y-84161842D01*
X105709041Y-84113263D01*
X105726779Y-84094848D01*
X105767298Y-84084134D01*
X105800315Y-84091140D01*
G37*
G36*
X104874762Y-83140488D02*
G01*
X104910629Y-83171669D01*
X104925261Y-83221497D01*
X104913675Y-83266136D01*
X104875510Y-83297828D01*
X104820003Y-83299790D01*
X104776779Y-83274385D01*
X104757064Y-83227712D01*
X104769516Y-83172177D01*
X104787492Y-83149319D01*
X104829702Y-83131766D01*
X104874762Y-83140488D01*
G37*
G36*
X107310038Y-84656954D02*
G01*
X107342150Y-84694125D01*
X107349267Y-84748165D01*
X107343911Y-84769524D01*
X107322509Y-84788288D01*
X107274955Y-84792926D01*
X107242306Y-84791394D01*
X107212064Y-84779050D01*
X107200643Y-84748165D01*
X107201436Y-84716187D01*
X107217585Y-84675344D01*
X107233863Y-84661290D01*
X107274955Y-84647284D01*
X107310038Y-84656954D01*
G37*
G36*
X105416522Y-83143130D02*
G01*
X105435960Y-83162922D01*
X105439863Y-83208165D01*
X105437820Y-83234970D01*
X105417965Y-83284334D01*
X105382420Y-83306462D01*
X105337914Y-83295584D01*
X105313473Y-83269731D01*
X105295862Y-83216019D01*
X105302261Y-83159081D01*
X105322716Y-83140078D01*
X105376618Y-83136220D01*
X105416522Y-83143130D01*
G37*
G36*
X104688349Y-84282208D02*
G01*
X104695145Y-84290018D01*
X104711389Y-84334108D01*
X104702902Y-84377837D01*
X104671882Y-84404843D01*
X104638794Y-84407953D01*
X104600491Y-84389445D01*
X104578995Y-84354133D01*
X104580126Y-84313712D01*
X104609703Y-84279879D01*
X104636308Y-84265657D01*
X104662737Y-84262420D01*
X104688349Y-84282208D01*
G37*
G36*
X107315069Y-84473197D02*
G01*
X107345159Y-84500803D01*
X107352320Y-84539739D01*
X107334511Y-84576137D01*
X107297256Y-84599801D01*
X107246079Y-84600535D01*
X107234970Y-84596728D01*
X107202988Y-84565509D01*
X107197200Y-84520569D01*
X107220582Y-84476397D01*
X107236921Y-84462481D01*
X107269224Y-84454927D01*
X107315069Y-84473197D01*
G37*
G36*
X108423017Y-83897035D02*
G01*
X108450074Y-83929095D01*
X108447115Y-83977330D01*
X108430964Y-83995134D01*
X108391545Y-84006459D01*
X108360073Y-83999368D01*
X108333016Y-83967309D01*
X108335975Y-83919073D01*
X108352126Y-83901270D01*
X108391545Y-83889945D01*
X108423017Y-83897035D01*
G37*
G36*
X101720169Y-83908198D02*
G01*
X101730842Y-83948202D01*
X101721770Y-83986202D01*
X101687062Y-84002966D01*
X101650524Y-83997142D01*
X101627260Y-83965787D01*
X101631582Y-83917711D01*
X101646100Y-83900491D01*
X101687062Y-83893438D01*
X101720169Y-83908198D01*
G37*
G36*
X103387863Y-84858443D02*
G01*
X103402931Y-84878877D01*
X103407142Y-84923176D01*
X103394315Y-84970704D01*
X103366889Y-85004477D01*
X103343604Y-85013654D01*
X103302744Y-85005727D01*
X103270998Y-84972954D01*
X103255353Y-84924416D01*
X103262794Y-84869190D01*
X103265373Y-84864219D01*
X103296253Y-84845730D01*
X103342837Y-84843310D01*
X103387863Y-84858443D01*
G37*
G36*
X107835015Y-83713573D02*
G01*
X107854031Y-83749244D01*
X107852591Y-83777428D01*
X107828251Y-83805302D01*
X107818690Y-83807841D01*
X107780415Y-83798510D01*
X107754008Y-83767201D01*
X107752477Y-83727305D01*
X107767053Y-83707335D01*
X107800919Y-83698501D01*
X107835015Y-83713573D01*
G37*
G36*
X102427299Y-82380538D02*
G01*
X102460247Y-82396207D01*
X102468762Y-82433523D01*
X102468396Y-82444496D01*
X102455302Y-82475894D01*
X102415250Y-82488225D01*
X102372129Y-82483111D01*
X102345501Y-82452864D01*
X102350060Y-82403094D01*
X102367098Y-82384366D01*
X102415250Y-82378820D01*
X102427299Y-82380538D01*
G37*
G36*
X103972845Y-84481154D02*
G01*
X103982307Y-84495319D01*
X103991660Y-84542010D01*
X103975750Y-84583555D01*
X103938680Y-84605082D01*
X103883275Y-84599556D01*
X103849250Y-84571036D01*
X103842396Y-84529164D01*
X103868314Y-84483610D01*
X103887763Y-84467283D01*
X103932497Y-84455070D01*
X103972845Y-84481154D01*
G37*
G36*
X104466289Y-84089407D02*
G01*
X104499238Y-84105076D01*
X104507753Y-84142391D01*
X104507387Y-84153364D01*
X104494293Y-84184762D01*
X104454240Y-84197094D01*
X104411120Y-84191979D01*
X104384491Y-84161733D01*
X104389051Y-84111962D01*
X104406089Y-84093234D01*
X104454240Y-84087689D01*
X104466289Y-84089407D01*
G37*
G36*
X105611511Y-84850986D02*
G01*
X105641490Y-84884442D01*
X105651210Y-84932090D01*
X105636609Y-84981440D01*
X105592642Y-85008916D01*
X105568621Y-85011653D01*
X105522367Y-84995692D01*
X105493159Y-84958224D01*
X105487455Y-84910751D01*
X105511713Y-84864777D01*
X105519593Y-84857905D01*
X105565424Y-84841313D01*
X105611511Y-84850986D01*
G37*
G36*
X104280695Y-84845636D02*
G01*
X104323064Y-84870350D01*
X104330884Y-84882691D01*
X104337339Y-84930277D01*
X104320405Y-84977508D01*
X104285123Y-85006317D01*
X104250120Y-85010446D01*
X104204484Y-84992892D01*
X104174793Y-84955734D01*
X104168041Y-84909514D01*
X104191224Y-84864777D01*
X104228225Y-84845264D01*
X104280695Y-84845636D01*
G37*
G36*
X102272341Y-86149207D02*
G01*
X102364548Y-86184319D01*
X102417998Y-86216712D01*
X102446986Y-86245793D01*
X102447392Y-86275591D01*
X102422985Y-86314503D01*
X102387838Y-86360238D01*
X102307705Y-86319358D01*
X102237083Y-86292076D01*
X102136638Y-86280063D01*
X102042671Y-86297398D01*
X101963278Y-86342199D01*
X101906555Y-86412587D01*
X101904949Y-86415722D01*
X101884791Y-86461026D01*
X101876484Y-86491121D01*
X101876563Y-86491748D01*
X101898256Y-86500308D01*
X101957821Y-86506492D01*
X102054412Y-86510242D01*
X102187187Y-86511504D01*
X102497891Y-86511504D01*
X102497464Y-86594035D01*
X102484656Y-86684474D01*
X102443671Y-86783518D01*
X102380815Y-86869774D01*
X102302595Y-86934581D01*
X102215518Y-86969281D01*
X102195662Y-86972612D01*
X102067042Y-86974309D01*
X101951792Y-86942297D01*
X101854342Y-86880263D01*
X101779121Y-86791896D01*
X101730561Y-86680885D01*
X101726065Y-86647437D01*
X101875487Y-86647437D01*
X101905442Y-86705365D01*
X101906772Y-86707890D01*
X101960305Y-86770981D01*
X102033815Y-86810077D01*
X102116516Y-86823384D01*
X102197625Y-86809105D01*
X102266357Y-86765445D01*
X102277998Y-86753152D01*
X102310191Y-86710389D01*
X102323120Y-86678059D01*
X102318680Y-86665383D01*
X102300305Y-86656255D01*
X102261763Y-86650789D01*
X102196835Y-86648133D01*
X102099303Y-86647437D01*
X101875487Y-86647437D01*
X101726065Y-86647437D01*
X101713090Y-86550919D01*
X101714791Y-86504923D01*
X101741240Y-86379971D01*
X101797939Y-86276100D01*
X101882616Y-86196607D01*
X101992998Y-86144788D01*
X102054231Y-86132710D01*
X102162787Y-86131353D01*
X102272341Y-86149207D01*
G37*
G36*
X107625051Y-84274025D02*
G01*
X107665992Y-84296710D01*
X107682753Y-84334886D01*
X107672043Y-84373066D01*
X107635714Y-84403341D01*
X107586590Y-84404843D01*
X107583975Y-84403924D01*
X107555703Y-84377100D01*
X107545283Y-84335786D01*
X107553416Y-84295919D01*
X107580803Y-84273434D01*
X107625051Y-84274025D01*
G37*
G36*
X100956728Y-83531831D02*
G01*
X100983695Y-83570803D01*
X100987639Y-83582539D01*
X100989778Y-83640347D01*
X100961951Y-83680630D01*
X100908736Y-83695755D01*
X100869158Y-83690861D01*
X100824103Y-83661668D01*
X100808441Y-83608370D01*
X100812288Y-83582146D01*
X100831744Y-83544287D01*
X100861235Y-83528784D01*
X100909900Y-83520985D01*
X100956728Y-83531831D01*
G37*
G36*
X101525979Y-83714009D02*
G01*
X101536652Y-83754012D01*
X101527581Y-83792012D01*
X101492873Y-83808776D01*
X101456335Y-83802952D01*
X101433071Y-83771598D01*
X101437393Y-83723522D01*
X101451910Y-83706301D01*
X101492873Y-83699248D01*
X101525979Y-83714009D01*
G37*
G36*
X105800433Y-84464483D02*
G01*
X105829007Y-84498436D01*
X105834588Y-84553975D01*
X105830542Y-84568459D01*
X105800674Y-84598917D01*
X105755756Y-84606844D01*
X105710660Y-84588140D01*
X105695168Y-84572025D01*
X105685002Y-84529635D01*
X105713116Y-84483610D01*
X105758536Y-84457717D01*
X105800433Y-84464483D01*
G37*
G36*
X101543062Y-84858443D02*
G01*
X101558130Y-84878877D01*
X101562340Y-84923176D01*
X101549513Y-84970704D01*
X101522088Y-85004477D01*
X101498803Y-85013654D01*
X101457942Y-85005727D01*
X101426196Y-84972954D01*
X101410551Y-84924416D01*
X101417993Y-84869190D01*
X101420572Y-84864219D01*
X101451452Y-84845730D01*
X101498035Y-84843310D01*
X101543062Y-84858443D01*
G37*
G36*
X106552570Y-84864777D02*
G01*
X106554393Y-84866671D01*
X106574481Y-84911832D01*
X106567712Y-84961361D01*
X106536301Y-84997218D01*
X106516659Y-85005576D01*
X106464098Y-85006982D01*
X106424820Y-84981027D01*
X106407329Y-84936214D01*
X106420128Y-84881045D01*
X106421369Y-84878836D01*
X106458384Y-84848654D01*
X106508130Y-84843229D01*
X106552570Y-84864777D01*
G37*
G36*
X108029205Y-83713573D02*
G01*
X108048220Y-83749244D01*
X108046780Y-83777428D01*
X108022441Y-83805302D01*
X108012880Y-83807841D01*
X107974604Y-83798510D01*
X107948197Y-83767201D01*
X107946667Y-83727305D01*
X107961242Y-83707335D01*
X107995108Y-83698501D01*
X108029205Y-83713573D01*
G37*
G36*
X104707768Y-84864777D02*
G01*
X104709592Y-84866671D01*
X104729680Y-84911832D01*
X104722911Y-84961361D01*
X104691500Y-84997218D01*
X104671858Y-85005576D01*
X104619296Y-85006982D01*
X104580018Y-84981027D01*
X104562527Y-84936214D01*
X104575327Y-84881045D01*
X104576568Y-84878836D01*
X104613583Y-84848654D01*
X104663329Y-84843229D01*
X104707768Y-84864777D01*
G37*
G36*
X106188812Y-82755614D02*
G01*
X106217386Y-82789567D01*
X106222967Y-82845107D01*
X106212604Y-82871266D01*
X106177979Y-82895183D01*
X106134211Y-82895218D01*
X106096341Y-82868582D01*
X106078021Y-82840005D01*
X106075023Y-82808842D01*
X106101495Y-82774742D01*
X106146915Y-82748849D01*
X106188812Y-82755614D01*
G37*
G36*
X103379035Y-83337941D02*
G01*
X103411065Y-83376614D01*
X103415331Y-83389365D01*
X103417186Y-83447397D01*
X103387981Y-83486948D01*
X103331806Y-83501566D01*
X103306381Y-83498532D01*
X103261181Y-83471134D01*
X103241588Y-83424047D01*
X103253915Y-83368089D01*
X103283696Y-83336949D01*
X103331627Y-83324451D01*
X103379035Y-83337941D01*
G37*
G36*
X103343693Y-82744912D02*
G01*
X103385246Y-82765315D01*
X103405005Y-82804530D01*
X103399907Y-82849630D01*
X103366889Y-82887688D01*
X103339700Y-82897709D01*
X103298855Y-82888803D01*
X103269015Y-82858006D01*
X103258448Y-82815739D01*
X103275423Y-82772422D01*
X103291862Y-82758232D01*
X103332906Y-82744226D01*
X103343693Y-82744912D01*
G37*
G36*
X103339044Y-82551445D02*
G01*
X103367582Y-82569994D01*
X103397031Y-82598162D01*
X103410582Y-82620667D01*
X103399249Y-82654668D01*
X103369376Y-82689806D01*
X103336106Y-82705388D01*
X103302154Y-82699460D01*
X103267070Y-82670192D01*
X103260045Y-82626700D01*
X103285746Y-82580552D01*
X103307223Y-82562373D01*
X103332906Y-82550037D01*
X103339044Y-82551445D01*
G37*
G36*
X103935448Y-84274025D02*
G01*
X103976389Y-84296710D01*
X103993151Y-84334886D01*
X103982441Y-84373066D01*
X103946111Y-84403341D01*
X103896988Y-84404843D01*
X103894372Y-84403924D01*
X103866101Y-84377100D01*
X103855681Y-84335786D01*
X103863813Y-84295919D01*
X103891201Y-84273434D01*
X103935448Y-84274025D01*
G37*
G36*
X105022355Y-86708682D02*
G01*
X105079119Y-86765445D01*
X105111619Y-86794118D01*
X105159318Y-86816490D01*
X105224761Y-86822208D01*
X105232383Y-86822150D01*
X105304433Y-86812321D01*
X105352478Y-86783370D01*
X105355234Y-86780555D01*
X105369335Y-86762243D01*
X105379218Y-86737402D01*
X105385618Y-86699573D01*
X105389276Y-86642294D01*
X105390929Y-86559102D01*
X105391316Y-86443538D01*
X105391316Y-86142544D01*
X105569360Y-86142544D01*
X105562868Y-86467812D01*
X105560057Y-86585445D01*
X105556306Y-86678436D01*
X105551018Y-86745390D01*
X105543440Y-86792892D01*
X105532816Y-86827527D01*
X105518392Y-86855877D01*
X105496826Y-86886012D01*
X105426197Y-86943161D01*
X105339037Y-86972104D01*
X105243141Y-86972355D01*
X105146309Y-86943424D01*
X105056339Y-86884823D01*
X105037889Y-86870004D01*
X105024862Y-86871552D01*
X105022355Y-86906583D01*
X105021955Y-86922529D01*
X105014313Y-86946430D01*
X104988807Y-86956242D01*
X104934970Y-86958141D01*
X104847585Y-86958141D01*
X104847585Y-86142544D01*
X105022355Y-86142544D01*
X105022355Y-86708682D01*
G37*
G36*
X101518852Y-84085919D02*
G01*
X101541550Y-84101128D01*
X101546362Y-84142391D01*
X101544577Y-84173139D01*
X101529368Y-84195836D01*
X101488105Y-84200648D01*
X101457357Y-84198863D01*
X101434660Y-84183655D01*
X101429848Y-84142391D01*
X101431633Y-84111644D01*
X101446841Y-84088946D01*
X101488105Y-84084134D01*
X101518852Y-84085919D01*
G37*
G36*
X101523188Y-82948085D02*
G01*
X101555300Y-82985256D01*
X101562416Y-83039296D01*
X101557061Y-83060655D01*
X101535658Y-83079420D01*
X101488105Y-83084058D01*
X101455456Y-83082525D01*
X101425214Y-83070182D01*
X101413793Y-83039296D01*
X101414586Y-83007318D01*
X101430735Y-82966475D01*
X101447013Y-82952421D01*
X101488105Y-82938416D01*
X101523188Y-82948085D01*
G37*
G36*
X103604771Y-86958141D02*
G01*
X103430001Y-86958141D01*
X103430001Y-86142544D01*
X103604771Y-86142544D01*
X103604771Y-86958141D01*
G37*
G36*
X105795928Y-82005334D02*
G01*
X105815040Y-82040376D01*
X105815709Y-82054576D01*
X105799946Y-82089186D01*
X105766122Y-82098975D01*
X105726986Y-82078433D01*
X105711512Y-82054693D01*
X105708986Y-82016159D01*
X105726059Y-81995253D01*
X105761140Y-81989122D01*
X105795928Y-82005334D01*
G37*
G36*
X108035667Y-84849634D02*
G01*
X108071525Y-84881045D01*
X108079883Y-84900687D01*
X108081289Y-84953248D01*
X108055334Y-84992526D01*
X108010520Y-85010017D01*
X107955352Y-84997218D01*
X107953143Y-84995977D01*
X107922961Y-84958962D01*
X107917535Y-84909216D01*
X107939083Y-84864777D01*
X107940978Y-84862953D01*
X107986139Y-84842865D01*
X108035667Y-84849634D01*
G37*
G36*
X101297614Y-84088748D02*
G01*
X101334401Y-84105343D01*
X101348607Y-84147246D01*
X101350104Y-84175681D01*
X101337481Y-84196306D01*
X101297283Y-84200648D01*
X101253990Y-84192318D01*
X101225234Y-84161189D01*
X101229039Y-84112212D01*
X101245516Y-84094003D01*
X101291541Y-84087939D01*
X101297614Y-84088748D01*
G37*
G36*
X108222744Y-84845636D02*
G01*
X108265113Y-84870350D01*
X108272933Y-84882691D01*
X108279388Y-84930277D01*
X108262454Y-84977508D01*
X108227172Y-85006317D01*
X108192169Y-85010446D01*
X108146533Y-84992892D01*
X108116842Y-84955734D01*
X108110090Y-84909514D01*
X108133273Y-84864777D01*
X108170274Y-84845264D01*
X108222744Y-84845636D01*
G37*
G36*
X97537218Y-82260248D02*
G01*
X97727239Y-82260929D01*
X97910766Y-82262100D01*
X98083756Y-82263756D01*
X98242167Y-82265893D01*
X98381956Y-82268506D01*
X98499080Y-82271592D01*
X98589497Y-82275147D01*
X98649164Y-82279165D01*
X98674038Y-82283643D01*
X98695362Y-82303714D01*
X98734511Y-82366420D01*
X98750031Y-82433740D01*
X98749964Y-82436541D01*
X98731519Y-82486636D01*
X98688746Y-82536079D01*
X98633818Y-82573837D01*
X98578906Y-82588874D01*
X98529034Y-82598300D01*
X98475462Y-82626020D01*
X98447737Y-82655456D01*
X98433810Y-82695963D01*
X98431002Y-82760317D01*
X98431671Y-82779520D01*
X98438100Y-82832158D01*
X98452830Y-82888099D01*
X98477843Y-82950732D01*
X98515118Y-83023449D01*
X98566636Y-83109638D01*
X98634376Y-83212689D01*
X98720319Y-83335993D01*
X98826445Y-83482939D01*
X98954733Y-83656917D01*
X99022156Y-83750689D01*
X99166139Y-83977856D01*
X99274407Y-84193562D01*
X99346903Y-84397400D01*
X99383571Y-84588963D01*
X99384356Y-84767847D01*
X99349202Y-84933644D01*
X99278051Y-85085948D01*
X99170849Y-85224354D01*
X99137648Y-85260269D01*
X99111125Y-85296322D01*
X99105024Y-85324111D01*
X99114697Y-85354405D01*
X99136993Y-85390957D01*
X99189678Y-85434430D01*
X99269328Y-85464401D01*
X99381446Y-85483533D01*
X99410946Y-85487236D01*
X99532717Y-85514163D01*
X99643297Y-85561539D01*
X99731876Y-85616211D01*
X99823736Y-85688037D01*
X99905628Y-85766750D01*
X99971564Y-85845901D01*
X100015554Y-85919040D01*
X100031610Y-85979719D01*
X100029601Y-85998366D01*
X100002862Y-86055538D01*
X99954180Y-86104790D01*
X99895287Y-86132936D01*
X99870830Y-86140576D01*
X99839144Y-86159842D01*
X99805377Y-86193877D01*
X99765550Y-86247592D01*
X99715687Y-86325902D01*
X99651811Y-86433719D01*
X99537650Y-86603303D01*
X99404816Y-86745799D01*
X99257482Y-86853194D01*
X99094718Y-86926310D01*
X99089327Y-86928473D01*
X99076729Y-86940139D01*
X99068435Y-86964735D01*
X99063581Y-87008735D01*
X99061302Y-87078615D01*
X99060735Y-87180849D01*
X99060041Y-87258559D01*
X99056400Y-87349287D01*
X99049783Y-87405145D01*
X99040351Y-87424196D01*
X99029765Y-87423372D01*
X98972423Y-87400531D01*
X98904234Y-87351009D01*
X98831211Y-87281059D01*
X98759368Y-87196939D01*
X98694721Y-87104902D01*
X98643282Y-87011203D01*
X98625559Y-86974101D01*
X98587753Y-86906769D01*
X98551099Y-86863078D01*
X98508360Y-86833494D01*
X98468683Y-86807497D01*
X98408347Y-86758142D01*
X98350175Y-86701796D01*
X98339538Y-86690183D01*
X98244663Y-86558742D01*
X98173327Y-86401324D01*
X98124741Y-86215736D01*
X98098118Y-85999784D01*
X98094136Y-85953058D01*
X98074573Y-85832224D01*
X98040190Y-85722897D01*
X97987938Y-85621415D01*
X97914766Y-85524113D01*
X97817623Y-85427327D01*
X97693459Y-85327393D01*
X97539224Y-85220647D01*
X97351866Y-85103425D01*
X97215058Y-85016974D01*
X96994604Y-84856132D01*
X96804515Y-84684732D01*
X96639354Y-84496983D01*
X96493682Y-84287094D01*
X96362063Y-84049274D01*
X96338826Y-84001629D01*
X96254991Y-83804587D01*
X96200229Y-83624900D01*
X96172967Y-83457649D01*
X96162408Y-83376075D01*
X96144835Y-83319157D01*
X96116854Y-83278024D01*
X96109985Y-83270991D01*
X96050013Y-83235413D01*
X95986163Y-83237086D01*
X95924977Y-83276078D01*
X95920368Y-83280847D01*
X95886032Y-83332673D01*
X95865511Y-83403184D01*
X95857667Y-83498624D01*
X95861360Y-83625239D01*
X95872275Y-83723792D01*
X95894502Y-83824446D01*
X95930333Y-83931159D01*
X95982203Y-84050175D01*
X96052545Y-84187742D01*
X96143792Y-84350106D01*
X96167489Y-84391252D01*
X96257839Y-84555378D01*
X96328486Y-84699349D01*
X96382665Y-84831823D01*
X96423610Y-84961458D01*
X96454555Y-85096915D01*
X96478733Y-85246850D01*
X96483213Y-85281686D01*
X96494300Y-85444359D01*
X96483606Y-85582143D01*
X96449206Y-85702337D01*
X96389178Y-85812239D01*
X96301599Y-85919148D01*
X96260283Y-85960305D01*
X96138023Y-86053488D01*
X96009224Y-86109666D01*
X95871290Y-86130112D01*
X95798435Y-86128562D01*
X95735721Y-86116445D01*
X95681096Y-86090013D01*
X95661357Y-86076717D01*
X95587654Y-86001109D01*
X95542866Y-85907588D01*
X95528389Y-85804201D01*
X95545623Y-85698994D01*
X95595964Y-85600014D01*
X95610995Y-85579193D01*
X95657282Y-85514835D01*
X95696970Y-85459353D01*
X95741363Y-85383523D01*
X95789425Y-85247439D01*
X95817818Y-85080136D01*
X95826835Y-84880312D01*
X95826528Y-84823818D01*
X95824223Y-84731462D01*
X95817910Y-84657810D01*
X95805474Y-84589381D01*
X95784803Y-84512690D01*
X95753783Y-84414257D01*
X95735733Y-84358577D01*
X95682530Y-84193852D01*
X95639847Y-84059506D01*
X95606533Y-83950489D01*
X95581435Y-83861752D01*
X95563401Y-83788246D01*
X95551279Y-83724920D01*
X95543916Y-83666726D01*
X95540160Y-83608614D01*
X95538859Y-83545534D01*
X95538860Y-83472437D01*
X95538861Y-83472349D01*
X95541255Y-83343147D01*
X95548307Y-83240329D01*
X95561303Y-83151593D01*
X95581531Y-83064639D01*
X95592790Y-83024776D01*
X95657892Y-82843830D01*
X95739816Y-82679847D01*
X95835276Y-82537201D01*
X95940987Y-82420268D01*
X96053662Y-82333420D01*
X96170018Y-82281034D01*
X96201836Y-82276834D01*
X96268384Y-82272922D01*
X96364821Y-82269536D01*
X96487106Y-82266674D01*
X96631196Y-82264330D01*
X96793047Y-82262501D01*
X96968617Y-82261183D01*
X97153864Y-82260371D01*
X97344745Y-82260061D01*
X97537218Y-82260248D01*
G37*
G36*
X106940949Y-84864777D02*
G01*
X106960462Y-84901778D01*
X106960089Y-84954248D01*
X106935375Y-84996616D01*
X106894251Y-85014598D01*
X106850110Y-85005425D01*
X106815652Y-84973912D01*
X106799575Y-84928386D01*
X106810580Y-84877172D01*
X106812640Y-84873664D01*
X106848978Y-84847234D01*
X106897890Y-84843688D01*
X106940949Y-84864777D01*
G37*
G36*
X105096147Y-84864777D02*
G01*
X105115660Y-84901778D01*
X105115288Y-84954248D01*
X105090574Y-84996616D01*
X105049450Y-85014598D01*
X105005309Y-85005425D01*
X104970850Y-84973912D01*
X104954774Y-84928386D01*
X104965779Y-84877172D01*
X104967839Y-84873664D01*
X105004177Y-84847234D01*
X105053089Y-84843688D01*
X105096147Y-84864777D01*
G37*
G36*
X104873770Y-84097140D02*
G01*
X104900804Y-84127875D01*
X104900926Y-84166250D01*
X104870865Y-84198582D01*
X104851162Y-84206007D01*
X104807934Y-84201032D01*
X104780026Y-84171053D01*
X104778906Y-84125218D01*
X104779704Y-84122779D01*
X104801591Y-84092044D01*
X104844397Y-84087860D01*
X104873770Y-84097140D01*
G37*
G36*
X102233109Y-84089407D02*
G01*
X102266058Y-84105076D01*
X102274573Y-84142391D01*
X102274206Y-84153364D01*
X102261112Y-84184762D01*
X102221060Y-84197094D01*
X102177939Y-84191979D01*
X102151311Y-84161733D01*
X102155871Y-84111962D01*
X102172908Y-84093234D01*
X102221060Y-84087689D01*
X102233109Y-84089407D01*
G37*
%TD*%
M02*
