%TF.GenerationSoftware,KiCad,Pcbnew,(6.0.0-0)*%
%TF.CreationDate,2022-03-12T21:24:33+01:00*%
%TF.ProjectId,GlowTubeLEDconnectorA_PCB,476c6f77-5475-4626-954c-4544636f6e6e,rev?*%
%TF.SameCoordinates,Original*%
%TF.FileFunction,Profile,NP*%
%FSLAX46Y46*%
G04 Gerber Fmt 4.6, Leading zero omitted, Abs format (unit mm)*
G04 Created by KiCad (PCBNEW (6.0.0-0)) date 2022-03-12 21:24:33*
%MOMM*%
%LPD*%
G01*
G04 APERTURE LIST*
%TA.AperFunction,Profile*%
%ADD10C,0.100000*%
%TD*%
G04 APERTURE END LIST*
D10*
X122710000Y-69660000D02*
G75*
G03*
X122710000Y-69660000I-19700000J0D01*
G01*
X118370000Y-64660000D02*
X118370000Y-74660000D01*
X118370000Y-64660000D02*
G75*
G03*
X118070000Y-64360000I-300000J0D01*
G01*
X107258428Y-64360000D02*
X118070000Y-64360000D01*
X107258428Y-64360000D02*
G75*
G03*
X106958428Y-64660000I0J-300000D01*
G01*
X106958428Y-74660000D02*
X106958428Y-64660000D01*
X106958428Y-74660000D02*
G75*
G03*
X107258428Y-74960000I300000J0D01*
G01*
X118070000Y-74960000D02*
X107258428Y-74960000D01*
X118070000Y-74960000D02*
G75*
G03*
X118370000Y-74660000I0J300000D01*
G01*
X104658428Y-70610000D02*
X99358428Y-70610000D01*
X104658428Y-70610000D02*
G75*
G03*
X104958428Y-70310000I2J299998D01*
G01*
X104958428Y-69010000D02*
X104958428Y-70310000D01*
X104958428Y-69010000D02*
G75*
G03*
X104658428Y-68710000I-299998J2D01*
G01*
X99358428Y-68710000D02*
X104658428Y-68710000D01*
X99358428Y-68710000D02*
G75*
G03*
X99058428Y-69010000I0J-300000D01*
G01*
X99058428Y-70310000D02*
X99058428Y-69010000D01*
X99058428Y-70310000D02*
G75*
G03*
X99358428Y-70610000I300000J0D01*
G01*
X91758428Y-70610000D02*
X86458428Y-70610000D01*
X91758428Y-70610000D02*
G75*
G03*
X92058428Y-70310000I2J299998D01*
G01*
X92058428Y-69010000D02*
X92058428Y-70310000D01*
X92058428Y-69010000D02*
G75*
G03*
X91758428Y-68710000I-299998J2D01*
G01*
X86458428Y-68710000D02*
X91758428Y-68710000D01*
X86458428Y-68710000D02*
G75*
G03*
X86158428Y-69010000I0J-300000D01*
G01*
X86158428Y-70310000D02*
X86158428Y-69010000D01*
X86158428Y-70310000D02*
G75*
G03*
X86458428Y-70610000I300000J0D01*
G01*
M02*
