%TF.GenerationSoftware,KiCad,Pcbnew,(6.0.4-0)*%
%TF.CreationDate,2022-05-05T14:31:54+02:00*%
%TF.ProjectId,GlowTubeLEDconnectorA_PCB,476c6f77-5475-4626-954c-4544636f6e6e,rev?*%
%TF.SameCoordinates,Original*%
%TF.FileFunction,Legend,Bot*%
%TF.FilePolarity,Positive*%
%FSLAX46Y46*%
G04 Gerber Fmt 4.6, Leading zero omitted, Abs format (unit mm)*
G04 Created by KiCad (PCBNEW (6.0.4-0)) date 2022-05-05 14:31:54*
%MOMM*%
%LPD*%
G01*
G04 APERTURE LIST*
%ADD10C,0.150000*%
%ADD11C,0.400000*%
%ADD12C,0.010000*%
G04 APERTURE END LIST*
D10*
X108362023Y-52597904D02*
X108362023Y-51797904D01*
X108057261Y-51797904D01*
X107981071Y-51836000D01*
X107942976Y-51874095D01*
X107904880Y-51950285D01*
X107904880Y-52064571D01*
X107942976Y-52140761D01*
X107981071Y-52178857D01*
X108057261Y-52216952D01*
X108362023Y-52216952D01*
X107104880Y-52521714D02*
X107142976Y-52559809D01*
X107257261Y-52597904D01*
X107333452Y-52597904D01*
X107447738Y-52559809D01*
X107523928Y-52483619D01*
X107562023Y-52407428D01*
X107600119Y-52255047D01*
X107600119Y-52140761D01*
X107562023Y-51988380D01*
X107523928Y-51912190D01*
X107447738Y-51836000D01*
X107333452Y-51797904D01*
X107257261Y-51797904D01*
X107142976Y-51836000D01*
X107104880Y-51874095D01*
X106495357Y-52178857D02*
X106381071Y-52216952D01*
X106342976Y-52255047D01*
X106304880Y-52331238D01*
X106304880Y-52445523D01*
X106342976Y-52521714D01*
X106381071Y-52559809D01*
X106457261Y-52597904D01*
X106762023Y-52597904D01*
X106762023Y-51797904D01*
X106495357Y-51797904D01*
X106419166Y-51836000D01*
X106381071Y-51874095D01*
X106342976Y-51950285D01*
X106342976Y-52026476D01*
X106381071Y-52102666D01*
X106419166Y-52140761D01*
X106495357Y-52178857D01*
X106762023Y-52178857D01*
X105466785Y-52064571D02*
X105162023Y-52064571D01*
X105352500Y-52597904D02*
X105352500Y-51912190D01*
X105314404Y-51836000D01*
X105238214Y-51797904D01*
X105162023Y-51797904D01*
X104895357Y-52597904D02*
X104895357Y-52064571D01*
X104895357Y-51797904D02*
X104933452Y-51836000D01*
X104895357Y-51874095D01*
X104857261Y-51836000D01*
X104895357Y-51797904D01*
X104895357Y-51874095D01*
X104400119Y-52597904D02*
X104476309Y-52559809D01*
X104514404Y-52483619D01*
X104514404Y-51797904D01*
X103790595Y-52559809D02*
X103866785Y-52597904D01*
X104019166Y-52597904D01*
X104095357Y-52559809D01*
X104133452Y-52483619D01*
X104133452Y-52178857D01*
X104095357Y-52102666D01*
X104019166Y-52064571D01*
X103866785Y-52064571D01*
X103790595Y-52102666D01*
X103752499Y-52178857D01*
X103752499Y-52255047D01*
X104133452Y-52331238D01*
X103447738Y-52559809D02*
X103371547Y-52597904D01*
X103219166Y-52597904D01*
X103142976Y-52559809D01*
X103104880Y-52483619D01*
X103104880Y-52445523D01*
X103142976Y-52369333D01*
X103219166Y-52331238D01*
X103333452Y-52331238D01*
X103409642Y-52293142D01*
X103447738Y-52216952D01*
X103447738Y-52178857D01*
X103409642Y-52102666D01*
X103333452Y-52064571D01*
X103219166Y-52064571D01*
X103142976Y-52102666D01*
X102762023Y-52521714D02*
X102723928Y-52559809D01*
X102762023Y-52597904D01*
X102800119Y-52559809D01*
X102762023Y-52521714D01*
X102762023Y-52597904D01*
X102762023Y-52102666D02*
X102723928Y-52140761D01*
X102762023Y-52178857D01*
X102800119Y-52140761D01*
X102762023Y-52102666D01*
X102762023Y-52178857D01*
X108362023Y-53885904D02*
X108362023Y-53085904D01*
X108019166Y-53885904D02*
X108019166Y-53466857D01*
X108057261Y-53390666D01*
X108133452Y-53352571D01*
X108247738Y-53352571D01*
X108323928Y-53390666D01*
X108362023Y-53428761D01*
X107752500Y-53352571D02*
X107447738Y-53352571D01*
X107638214Y-53085904D02*
X107638214Y-53771619D01*
X107600119Y-53847809D01*
X107523928Y-53885904D01*
X107447738Y-53885904D01*
X107295357Y-53352571D02*
X106990595Y-53352571D01*
X107181071Y-53085904D02*
X107181071Y-53771619D01*
X107142976Y-53847809D01*
X107066785Y-53885904D01*
X106990595Y-53885904D01*
X106723928Y-53352571D02*
X106723928Y-54152571D01*
X106723928Y-53390666D02*
X106647738Y-53352571D01*
X106495357Y-53352571D01*
X106419166Y-53390666D01*
X106381071Y-53428761D01*
X106342976Y-53504952D01*
X106342976Y-53733523D01*
X106381071Y-53809714D01*
X106419166Y-53847809D01*
X106495357Y-53885904D01*
X106647738Y-53885904D01*
X106723928Y-53847809D01*
X106038214Y-53847809D02*
X105962023Y-53885904D01*
X105809642Y-53885904D01*
X105733452Y-53847809D01*
X105695357Y-53771619D01*
X105695357Y-53733523D01*
X105733452Y-53657333D01*
X105809642Y-53619238D01*
X105923928Y-53619238D01*
X106000119Y-53581142D01*
X106038214Y-53504952D01*
X106038214Y-53466857D01*
X106000119Y-53390666D01*
X105923928Y-53352571D01*
X105809642Y-53352571D01*
X105733452Y-53390666D01*
X105352500Y-53809714D02*
X105314404Y-53847809D01*
X105352500Y-53885904D01*
X105390595Y-53847809D01*
X105352500Y-53809714D01*
X105352500Y-53885904D01*
X105352500Y-53390666D02*
X105314404Y-53428761D01*
X105352500Y-53466857D01*
X105390595Y-53428761D01*
X105352500Y-53390666D01*
X105352500Y-53466857D01*
X104400119Y-53047809D02*
X105085833Y-54076380D01*
X103562023Y-53047809D02*
X104247738Y-54076380D01*
X103295357Y-53885904D02*
X103295357Y-53085904D01*
X103295357Y-53390666D02*
X103219166Y-53352571D01*
X103066785Y-53352571D01*
X102990595Y-53390666D01*
X102952500Y-53428761D01*
X102914404Y-53504952D01*
X102914404Y-53733523D01*
X102952500Y-53809714D01*
X102990595Y-53847809D01*
X103066785Y-53885904D01*
X103219166Y-53885904D01*
X103295357Y-53847809D01*
X102571547Y-53885904D02*
X102571547Y-53352571D01*
X102571547Y-53085904D02*
X102609642Y-53124000D01*
X102571547Y-53162095D01*
X102533452Y-53124000D01*
X102571547Y-53085904D01*
X102571547Y-53162095D01*
X102304880Y-53352571D02*
X102000119Y-53352571D01*
X102190595Y-53085904D02*
X102190595Y-53771619D01*
X102152500Y-53847809D01*
X102076309Y-53885904D01*
X102000119Y-53885904D01*
X101733452Y-53809714D02*
X101695357Y-53847809D01*
X101733452Y-53885904D01*
X101771547Y-53847809D01*
X101733452Y-53809714D01*
X101733452Y-53885904D01*
X101238214Y-53885904D02*
X101314404Y-53847809D01*
X101352500Y-53771619D01*
X101352500Y-53085904D01*
X101009642Y-53352571D02*
X100819166Y-53885904D01*
X100628690Y-53352571D02*
X100819166Y-53885904D01*
X100895357Y-54076380D01*
X100933452Y-54114476D01*
X101009642Y-54152571D01*
X99752500Y-53047809D02*
X100438214Y-54076380D01*
X99562023Y-53085904D02*
X99066785Y-53085904D01*
X99333452Y-53390666D01*
X99219166Y-53390666D01*
X99142976Y-53428761D01*
X99104880Y-53466857D01*
X99066785Y-53543047D01*
X99066785Y-53733523D01*
X99104880Y-53809714D01*
X99142976Y-53847809D01*
X99219166Y-53885904D01*
X99447738Y-53885904D01*
X99523928Y-53847809D01*
X99562023Y-53809714D01*
X98342976Y-53885904D02*
X98723928Y-53885904D01*
X98723928Y-53085904D01*
X98076309Y-53085904D02*
X98076309Y-53733523D01*
X98038214Y-53809714D01*
X98000119Y-53847809D01*
X97923928Y-53885904D01*
X97771547Y-53885904D01*
X97695357Y-53847809D01*
X97657261Y-53809714D01*
X97619166Y-53733523D01*
X97619166Y-53085904D01*
X96781071Y-53809714D02*
X96819166Y-53847809D01*
X96933452Y-53885904D01*
X97009642Y-53885904D01*
X97123928Y-53847809D01*
X97200119Y-53771619D01*
X97238214Y-53695428D01*
X97276309Y-53543047D01*
X97276309Y-53428761D01*
X97238214Y-53276380D01*
X97200119Y-53200190D01*
X97123928Y-53124000D01*
X97009642Y-53085904D01*
X96933452Y-53085904D01*
X96819166Y-53124000D01*
X96781071Y-53162095D01*
X96514404Y-53352571D02*
X96323928Y-53885904D01*
X96133452Y-53352571D02*
X96323928Y-53885904D01*
X96400119Y-54076380D01*
X96438214Y-54114476D01*
X96514404Y-54152571D01*
X95904880Y-53085904D02*
X95409642Y-53085904D01*
X95676309Y-53390666D01*
X95562023Y-53390666D01*
X95485833Y-53428761D01*
X95447738Y-53466857D01*
X95409642Y-53543047D01*
X95409642Y-53733523D01*
X95447738Y-53809714D01*
X95485833Y-53847809D01*
X95562023Y-53885904D01*
X95790595Y-53885904D01*
X95866785Y-53847809D01*
X95904880Y-53809714D01*
X94723928Y-53885904D02*
X94723928Y-53466857D01*
X94762023Y-53390666D01*
X94838214Y-53352571D01*
X94990595Y-53352571D01*
X95066785Y-53390666D01*
X94723928Y-53847809D02*
X94800119Y-53885904D01*
X94990595Y-53885904D01*
X95066785Y-53847809D01*
X95104880Y-53771619D01*
X95104880Y-53695428D01*
X95066785Y-53619238D01*
X94990595Y-53581142D01*
X94800119Y-53581142D01*
X94723928Y-53543047D01*
X115222976Y-61202142D02*
X115270595Y-61249761D01*
X115413452Y-61297380D01*
X115508690Y-61297380D01*
X115651547Y-61249761D01*
X115746785Y-61154523D01*
X115794404Y-61059285D01*
X115842023Y-60868809D01*
X115842023Y-60725952D01*
X115794404Y-60535476D01*
X115746785Y-60440238D01*
X115651547Y-60345000D01*
X115508690Y-60297380D01*
X115413452Y-60297380D01*
X115270595Y-60345000D01*
X115222976Y-60392619D01*
X114651547Y-61297380D02*
X114746785Y-61249761D01*
X114794404Y-61202142D01*
X114842023Y-61106904D01*
X114842023Y-60821190D01*
X114794404Y-60725952D01*
X114746785Y-60678333D01*
X114651547Y-60630714D01*
X114508690Y-60630714D01*
X114413452Y-60678333D01*
X114365833Y-60725952D01*
X114318214Y-60821190D01*
X114318214Y-61106904D01*
X114365833Y-61202142D01*
X114413452Y-61249761D01*
X114508690Y-61297380D01*
X114651547Y-61297380D01*
X113889642Y-60630714D02*
X113889642Y-61297380D01*
X113889642Y-60725952D02*
X113842023Y-60678333D01*
X113746785Y-60630714D01*
X113603928Y-60630714D01*
X113508690Y-60678333D01*
X113461071Y-60773571D01*
X113461071Y-61297380D01*
X112984880Y-60630714D02*
X112984880Y-61297380D01*
X112984880Y-60725952D02*
X112937261Y-60678333D01*
X112842023Y-60630714D01*
X112699166Y-60630714D01*
X112603928Y-60678333D01*
X112556309Y-60773571D01*
X112556309Y-61297380D01*
X111699166Y-61249761D02*
X111794404Y-61297380D01*
X111984880Y-61297380D01*
X112080119Y-61249761D01*
X112127738Y-61154523D01*
X112127738Y-60773571D01*
X112080119Y-60678333D01*
X111984880Y-60630714D01*
X111794404Y-60630714D01*
X111699166Y-60678333D01*
X111651547Y-60773571D01*
X111651547Y-60868809D01*
X112127738Y-60964047D01*
X110794404Y-61249761D02*
X110889642Y-61297380D01*
X111080119Y-61297380D01*
X111175357Y-61249761D01*
X111222976Y-61202142D01*
X111270595Y-61106904D01*
X111270595Y-60821190D01*
X111222976Y-60725952D01*
X111175357Y-60678333D01*
X111080119Y-60630714D01*
X110889642Y-60630714D01*
X110794404Y-60678333D01*
X110508690Y-60630714D02*
X110127738Y-60630714D01*
X110365833Y-60297380D02*
X110365833Y-61154523D01*
X110318214Y-61249761D01*
X110222976Y-61297380D01*
X110127738Y-61297380D01*
X109651547Y-61297380D02*
X109746785Y-61249761D01*
X109794404Y-61202142D01*
X109842023Y-61106904D01*
X109842023Y-60821190D01*
X109794404Y-60725952D01*
X109746785Y-60678333D01*
X109651547Y-60630714D01*
X109508690Y-60630714D01*
X109413452Y-60678333D01*
X109365833Y-60725952D01*
X109318214Y-60821190D01*
X109318214Y-61106904D01*
X109365833Y-61202142D01*
X109413452Y-61249761D01*
X109508690Y-61297380D01*
X109651547Y-61297380D01*
X108889642Y-61297380D02*
X108889642Y-60630714D01*
X108889642Y-60821190D02*
X108842023Y-60725952D01*
X108794404Y-60678333D01*
X108699166Y-60630714D01*
X108603928Y-60630714D01*
X107556309Y-61011666D02*
X107080119Y-61011666D01*
X107651547Y-61297380D02*
X107318214Y-60297380D01*
X106984880Y-61297380D01*
X105889642Y-61297380D02*
X105889642Y-60297380D01*
X105508690Y-60297380D01*
X105413452Y-60345000D01*
X105365833Y-60392619D01*
X105318214Y-60487857D01*
X105318214Y-60630714D01*
X105365833Y-60725952D01*
X105413452Y-60773571D01*
X105508690Y-60821190D01*
X105889642Y-60821190D01*
X104318214Y-61202142D02*
X104365833Y-61249761D01*
X104508690Y-61297380D01*
X104603928Y-61297380D01*
X104746785Y-61249761D01*
X104842023Y-61154523D01*
X104889642Y-61059285D01*
X104937261Y-60868809D01*
X104937261Y-60725952D01*
X104889642Y-60535476D01*
X104842023Y-60440238D01*
X104746785Y-60345000D01*
X104603928Y-60297380D01*
X104508690Y-60297380D01*
X104365833Y-60345000D01*
X104318214Y-60392619D01*
X103556309Y-60773571D02*
X103413452Y-60821190D01*
X103365833Y-60868809D01*
X103318214Y-60964047D01*
X103318214Y-61106904D01*
X103365833Y-61202142D01*
X103413452Y-61249761D01*
X103508690Y-61297380D01*
X103889642Y-61297380D01*
X103889642Y-60297380D01*
X103556309Y-60297380D01*
X103461071Y-60345000D01*
X103413452Y-60392619D01*
X103365833Y-60487857D01*
X103365833Y-60583095D01*
X103413452Y-60678333D01*
X103461071Y-60725952D01*
X103556309Y-60773571D01*
X103889642Y-60773571D01*
X115889642Y-62240714D02*
X115651547Y-62907380D01*
X115413452Y-62240714D01*
X114508690Y-62907380D02*
X115080119Y-62907380D01*
X114794404Y-62907380D02*
X114794404Y-61907380D01*
X114889642Y-62050238D01*
X114984880Y-62145476D01*
X115080119Y-62193095D01*
X114080119Y-62812142D02*
X114032500Y-62859761D01*
X114080119Y-62907380D01*
X114127738Y-62859761D01*
X114080119Y-62812142D01*
X114080119Y-62907380D01*
X113413452Y-61907380D02*
X113318214Y-61907380D01*
X113222976Y-61955000D01*
X113175357Y-62002619D01*
X113127738Y-62097857D01*
X113080119Y-62288333D01*
X113080119Y-62526428D01*
X113127738Y-62716904D01*
X113175357Y-62812142D01*
X113222976Y-62859761D01*
X113318214Y-62907380D01*
X113413452Y-62907380D01*
X113508690Y-62859761D01*
X113556309Y-62812142D01*
X113603928Y-62716904D01*
X113651547Y-62526428D01*
X113651547Y-62288333D01*
X113603928Y-62097857D01*
X113556309Y-62002619D01*
X113508690Y-61955000D01*
X113413452Y-61907380D01*
X111889642Y-62907380D02*
X111889642Y-61907380D01*
X111889642Y-62288333D02*
X111794404Y-62240714D01*
X111603928Y-62240714D01*
X111508690Y-62288333D01*
X111461071Y-62335952D01*
X111413452Y-62431190D01*
X111413452Y-62716904D01*
X111461071Y-62812142D01*
X111508690Y-62859761D01*
X111603928Y-62907380D01*
X111794404Y-62907380D01*
X111889642Y-62859761D01*
X110603928Y-62859761D02*
X110699166Y-62907380D01*
X110889642Y-62907380D01*
X110984880Y-62859761D01*
X111032500Y-62764523D01*
X111032500Y-62383571D01*
X110984880Y-62288333D01*
X110889642Y-62240714D01*
X110699166Y-62240714D01*
X110603928Y-62288333D01*
X110556309Y-62383571D01*
X110556309Y-62478809D01*
X111032500Y-62574047D01*
X110270595Y-62240714D02*
X109889642Y-62240714D01*
X110127738Y-61907380D02*
X110127738Y-62764523D01*
X110080119Y-62859761D01*
X109984880Y-62907380D01*
X109889642Y-62907380D01*
X109127738Y-62907380D02*
X109127738Y-62383571D01*
X109175357Y-62288333D01*
X109270595Y-62240714D01*
X109461071Y-62240714D01*
X109556309Y-62288333D01*
X109127738Y-62859761D02*
X109222976Y-62907380D01*
X109461071Y-62907380D01*
X109556309Y-62859761D01*
X109603928Y-62764523D01*
X109603928Y-62669285D01*
X109556309Y-62574047D01*
X109461071Y-62526428D01*
X109222976Y-62526428D01*
X109127738Y-62478809D01*
X107937261Y-62002619D02*
X107889642Y-61955000D01*
X107794404Y-61907380D01*
X107556309Y-61907380D01*
X107461071Y-61955000D01*
X107413452Y-62002619D01*
X107365833Y-62097857D01*
X107365833Y-62193095D01*
X107413452Y-62335952D01*
X107984880Y-62907380D01*
X107365833Y-62907380D01*
X90671904Y-66320000D02*
X90767142Y-66272380D01*
X90910000Y-66272380D01*
X91052857Y-66320000D01*
X91148095Y-66415238D01*
X91195714Y-66510476D01*
X91243333Y-66700952D01*
X91243333Y-66843809D01*
X91195714Y-67034285D01*
X91148095Y-67129523D01*
X91052857Y-67224761D01*
X90910000Y-67272380D01*
X90814761Y-67272380D01*
X90671904Y-67224761D01*
X90624285Y-67177142D01*
X90624285Y-66843809D01*
X90814761Y-66843809D01*
X90195714Y-67272380D02*
X90195714Y-66272380D01*
X89624285Y-67272380D01*
X89624285Y-66272380D01*
X89148095Y-67272380D02*
X89148095Y-66272380D01*
X88910000Y-66272380D01*
X88767142Y-66320000D01*
X88671904Y-66415238D01*
X88624285Y-66510476D01*
X88576666Y-66700952D01*
X88576666Y-66843809D01*
X88624285Y-67034285D01*
X88671904Y-67129523D01*
X88767142Y-67224761D01*
X88910000Y-67272380D01*
X89148095Y-67272380D01*
D11*
X114475238Y-57040000D02*
X114713333Y-56920952D01*
X115070476Y-56920952D01*
X115427619Y-57040000D01*
X115665714Y-57278095D01*
X115784761Y-57516190D01*
X115903809Y-57992380D01*
X115903809Y-58349523D01*
X115784761Y-58825714D01*
X115665714Y-59063809D01*
X115427619Y-59301904D01*
X115070476Y-59420952D01*
X114832380Y-59420952D01*
X114475238Y-59301904D01*
X114356190Y-59182857D01*
X114356190Y-58349523D01*
X114832380Y-58349523D01*
X112927619Y-59420952D02*
X113165714Y-59301904D01*
X113284761Y-59063809D01*
X113284761Y-56920952D01*
X111618095Y-59420952D02*
X111856190Y-59301904D01*
X111975238Y-59182857D01*
X112094285Y-58944761D01*
X112094285Y-58230476D01*
X111975238Y-57992380D01*
X111856190Y-57873333D01*
X111618095Y-57754285D01*
X111260952Y-57754285D01*
X111022857Y-57873333D01*
X110903809Y-57992380D01*
X110784761Y-58230476D01*
X110784761Y-58944761D01*
X110903809Y-59182857D01*
X111022857Y-59301904D01*
X111260952Y-59420952D01*
X111618095Y-59420952D01*
X109951428Y-57754285D02*
X109475238Y-59420952D01*
X108999047Y-58230476D01*
X108522857Y-59420952D01*
X108046666Y-57754285D01*
X107451428Y-56920952D02*
X106022857Y-56920952D01*
X106737142Y-59420952D02*
X106737142Y-56920952D01*
X104118095Y-57754285D02*
X104118095Y-59420952D01*
X105189523Y-57754285D02*
X105189523Y-59063809D01*
X105070476Y-59301904D01*
X104832380Y-59420952D01*
X104475238Y-59420952D01*
X104237142Y-59301904D01*
X104118095Y-59182857D01*
X102927619Y-59420952D02*
X102927619Y-56920952D01*
X102927619Y-57873333D02*
X102689523Y-57754285D01*
X102213333Y-57754285D01*
X101975238Y-57873333D01*
X101856190Y-57992380D01*
X101737142Y-58230476D01*
X101737142Y-58944761D01*
X101856190Y-59182857D01*
X101975238Y-59301904D01*
X102213333Y-59420952D01*
X102689523Y-59420952D01*
X102927619Y-59301904D01*
X99713333Y-59301904D02*
X99951428Y-59420952D01*
X100427619Y-59420952D01*
X100665714Y-59301904D01*
X100784761Y-59063809D01*
X100784761Y-58111428D01*
X100665714Y-57873333D01*
X100427619Y-57754285D01*
X99951428Y-57754285D01*
X99713333Y-57873333D01*
X99594285Y-58111428D01*
X99594285Y-58349523D01*
X100784761Y-58587619D01*
D10*
X96500952Y-77447619D02*
X96024761Y-77447619D01*
X96024761Y-78447619D01*
X96834285Y-77971428D02*
X97167619Y-77971428D01*
X97310476Y-77447619D02*
X96834285Y-77447619D01*
X96834285Y-78447619D01*
X97310476Y-78447619D01*
X97739047Y-77447619D02*
X97739047Y-78447619D01*
X97977142Y-78447619D01*
X98120000Y-78400000D01*
X98215238Y-78304761D01*
X98262857Y-78209523D01*
X98310476Y-78019047D01*
X98310476Y-77876190D01*
X98262857Y-77685714D01*
X98215238Y-77590476D01*
X98120000Y-77495238D01*
X97977142Y-77447619D01*
X97739047Y-77447619D01*
X98691428Y-78352380D02*
X98739047Y-78400000D01*
X98834285Y-78447619D01*
X99072380Y-78447619D01*
X99167619Y-78400000D01*
X99215238Y-78352380D01*
X99262857Y-78257142D01*
X99262857Y-78161904D01*
X99215238Y-78019047D01*
X98643809Y-77447619D01*
X99262857Y-77447619D01*
X105020476Y-66272380D02*
X105496666Y-66272380D01*
X105544285Y-66748571D01*
X105496666Y-66700952D01*
X105401428Y-66653333D01*
X105163333Y-66653333D01*
X105068095Y-66700952D01*
X105020476Y-66748571D01*
X104972857Y-66843809D01*
X104972857Y-67081904D01*
X105020476Y-67177142D01*
X105068095Y-67224761D01*
X105163333Y-67272380D01*
X105401428Y-67272380D01*
X105496666Y-67224761D01*
X105544285Y-67177142D01*
X104687142Y-66272380D02*
X104353809Y-67272380D01*
X104020476Y-66272380D01*
X89178095Y-78410000D02*
X89082857Y-78457619D01*
X88940000Y-78457619D01*
X88797142Y-78410000D01*
X88701904Y-78314761D01*
X88654285Y-78219523D01*
X88606666Y-78029047D01*
X88606666Y-77886190D01*
X88654285Y-77695714D01*
X88701904Y-77600476D01*
X88797142Y-77505238D01*
X88940000Y-77457619D01*
X89035238Y-77457619D01*
X89178095Y-77505238D01*
X89225714Y-77552857D01*
X89225714Y-77886190D01*
X89035238Y-77886190D01*
X89654285Y-77457619D02*
X89654285Y-78457619D01*
X90225714Y-77457619D01*
X90225714Y-78457619D01*
X90701904Y-77457619D02*
X90701904Y-78457619D01*
X90940000Y-78457619D01*
X91082857Y-78410000D01*
X91178095Y-78314761D01*
X91225714Y-78219523D01*
X91273333Y-78029047D01*
X91273333Y-77886190D01*
X91225714Y-77695714D01*
X91178095Y-77600476D01*
X91082857Y-77505238D01*
X90940000Y-77457619D01*
X90701904Y-77457619D01*
X98599047Y-67272380D02*
X99075238Y-67272380D01*
X99075238Y-66272380D01*
X98265714Y-66748571D02*
X97932380Y-66748571D01*
X97789523Y-67272380D02*
X98265714Y-67272380D01*
X98265714Y-66272380D01*
X97789523Y-66272380D01*
X97360952Y-67272380D02*
X97360952Y-66272380D01*
X97122857Y-66272380D01*
X96980000Y-66320000D01*
X96884761Y-66415238D01*
X96837142Y-66510476D01*
X96789523Y-66700952D01*
X96789523Y-66843809D01*
X96837142Y-67034285D01*
X96884761Y-67129523D01*
X96980000Y-67224761D01*
X97122857Y-67272380D01*
X97360952Y-67272380D01*
X95837142Y-67272380D02*
X96408571Y-67272380D01*
X96122857Y-67272380D02*
X96122857Y-66272380D01*
X96218095Y-66415238D01*
X96313333Y-66510476D01*
X96408571Y-66558095D01*
X104999523Y-78457619D02*
X104523333Y-78457619D01*
X104475714Y-77981428D01*
X104523333Y-78029047D01*
X104618571Y-78076666D01*
X104856666Y-78076666D01*
X104951904Y-78029047D01*
X104999523Y-77981428D01*
X105047142Y-77886190D01*
X105047142Y-77648095D01*
X104999523Y-77552857D01*
X104951904Y-77505238D01*
X104856666Y-77457619D01*
X104618571Y-77457619D01*
X104523333Y-77505238D01*
X104475714Y-77552857D01*
X105332857Y-78457619D02*
X105666190Y-77457619D01*
X105999523Y-78457619D01*
%TO.C,qrcode*%
G36*
X91453442Y-58193442D02*
G01*
X90418818Y-58193442D01*
X90418818Y-57158819D01*
X91453442Y-57158819D01*
X91453442Y-58193442D01*
G37*
G36*
X97661181Y-58193442D02*
G01*
X96626558Y-58193442D01*
X96626558Y-57158819D01*
X97661181Y-57158819D01*
X97661181Y-58193442D01*
G37*
G36*
X92143190Y-63021684D02*
G01*
X91798316Y-63021684D01*
X91798316Y-62676810D01*
X92143190Y-62676810D01*
X92143190Y-63021684D01*
G37*
G36*
X97661181Y-64401182D02*
G01*
X96626558Y-64401182D01*
X96626558Y-63366558D01*
X97661181Y-63366558D01*
X97661181Y-64401182D01*
G37*
G36*
X95591934Y-56813945D02*
G01*
X95247060Y-56813945D01*
X95247060Y-56469070D01*
X95591934Y-56469070D01*
X95591934Y-56813945D01*
G37*
G36*
X89729070Y-58883191D02*
G01*
X89729070Y-58521073D01*
X90091188Y-58521073D01*
X91781072Y-58521073D01*
X91781072Y-56831188D01*
X90091188Y-56831188D01*
X90091188Y-58521073D01*
X89729070Y-58521073D01*
X89729070Y-56469070D01*
X92143190Y-56469070D01*
X92143190Y-58883191D01*
X89729070Y-58883191D01*
G37*
G36*
X95247060Y-58193442D02*
G01*
X94902186Y-58193442D01*
X94902186Y-57848568D01*
X95247060Y-57848568D01*
X95247060Y-58193442D01*
G37*
G36*
X95591934Y-58883191D02*
G01*
X95247060Y-58883191D01*
X95247060Y-58193442D01*
X95591934Y-58193442D01*
X95591934Y-58883191D01*
G37*
G36*
X95936809Y-58883191D02*
G01*
X95936809Y-58521073D01*
X96298927Y-58521073D01*
X97988812Y-58521073D01*
X97988812Y-56831188D01*
X96298927Y-56831188D01*
X96298927Y-58521073D01*
X95936809Y-58521073D01*
X95936809Y-56469070D01*
X98350930Y-56469070D01*
X98350930Y-58883191D01*
X95936809Y-58883191D01*
G37*
G36*
X98350930Y-59572940D02*
G01*
X98006055Y-59572940D01*
X98006055Y-59228066D01*
X98350930Y-59228066D01*
X98350930Y-59572940D01*
G37*
G36*
X97661181Y-59572940D02*
G01*
X97316306Y-59572940D01*
X97316306Y-59228066D01*
X97661181Y-59228066D01*
X97661181Y-59572940D01*
G37*
G36*
X98006055Y-59917814D02*
G01*
X97661181Y-59917814D01*
X97661181Y-59572940D01*
X98006055Y-59572940D01*
X98006055Y-59917814D01*
G37*
G36*
X90763693Y-59572940D02*
G01*
X91108567Y-59572940D01*
X91108567Y-60607563D01*
X90763693Y-60607563D01*
X90763693Y-60262689D01*
X90418818Y-60262689D01*
X90418818Y-59917814D01*
X90763693Y-59917814D01*
X90763693Y-59572940D01*
G37*
G36*
X90073944Y-59572940D02*
G01*
X90418818Y-59572940D01*
X90418818Y-59228066D01*
X90763693Y-59228066D01*
X90763693Y-59572940D01*
X90418818Y-59572940D01*
X90418818Y-59917814D01*
X90073944Y-59917814D01*
X90073944Y-60262689D01*
X89729070Y-60262689D01*
X89729070Y-59228066D01*
X90073944Y-59228066D01*
X90073944Y-59572940D01*
G37*
G36*
X95591934Y-60607563D02*
G01*
X95247060Y-60607563D01*
X95247060Y-60262689D01*
X94902186Y-60262689D01*
X94902186Y-59917814D01*
X95591934Y-59917814D01*
X95591934Y-60607563D01*
G37*
G36*
X98006055Y-60607563D02*
G01*
X97316306Y-60607563D01*
X97316306Y-60262689D01*
X98006055Y-60262689D01*
X98006055Y-60607563D01*
G37*
G36*
X94557311Y-61642186D02*
G01*
X94212437Y-61642186D01*
X94212437Y-61297312D01*
X94557311Y-61297312D01*
X94557311Y-61642186D01*
G37*
G36*
X96281683Y-59572940D02*
G01*
X95591934Y-59572940D01*
X95591934Y-59228066D01*
X96281683Y-59228066D01*
X96281683Y-59572940D01*
G37*
G36*
X96971432Y-60262689D02*
G01*
X96626558Y-60262689D01*
X96626558Y-60607563D01*
X96281683Y-60607563D01*
X96281683Y-60262689D01*
X95936809Y-60262689D01*
X95936809Y-59917814D01*
X96281683Y-59917814D01*
X96281683Y-59572940D01*
X96971432Y-59572940D01*
X96971432Y-60262689D01*
G37*
G36*
X96281683Y-60952438D02*
G01*
X95936809Y-60952438D01*
X95936809Y-60607563D01*
X96281683Y-60607563D01*
X96281683Y-60952438D01*
G37*
G36*
X97661181Y-61297312D02*
G01*
X96281683Y-61297312D01*
X96281683Y-60952438D01*
X97661181Y-60952438D01*
X97661181Y-61297312D01*
G37*
G36*
X96281683Y-61642186D02*
G01*
X95936809Y-61642186D01*
X95936809Y-61297312D01*
X96281683Y-61297312D01*
X96281683Y-61642186D01*
G37*
G36*
X98350930Y-61642186D02*
G01*
X97661181Y-61642186D01*
X97661181Y-61297312D01*
X98350930Y-61297312D01*
X98350930Y-61642186D01*
G37*
G36*
X96626558Y-61987061D02*
G01*
X96971432Y-61987061D01*
X96971432Y-61642186D01*
X97316306Y-61642186D01*
X97316306Y-62331935D01*
X95936809Y-62331935D01*
X95936809Y-61987061D01*
X96281683Y-61987061D01*
X96281683Y-61642186D01*
X96626558Y-61642186D01*
X96626558Y-61987061D01*
G37*
G36*
X98350930Y-62331935D02*
G01*
X97661181Y-62331935D01*
X97661181Y-61987061D01*
X98350930Y-61987061D01*
X98350930Y-62331935D01*
G37*
G36*
X90073944Y-65090930D02*
G01*
X89729070Y-65090930D01*
X89729070Y-64746056D01*
X90073944Y-64746056D01*
X90073944Y-65090930D01*
G37*
G36*
X93522688Y-57158819D02*
G01*
X93177814Y-57158819D01*
X93177814Y-57503694D01*
X93522688Y-57503694D01*
X93522688Y-57848568D01*
X93867562Y-57848568D01*
X93867562Y-58193442D01*
X94212437Y-58193442D01*
X94212437Y-58883191D01*
X93867562Y-58883191D01*
X93867562Y-58538317D01*
X93522688Y-58538317D01*
X93522688Y-58193442D01*
X92832939Y-58193442D01*
X92832939Y-57158819D01*
X93177814Y-57158819D01*
X93177814Y-56813945D01*
X93522688Y-56813945D01*
X93522688Y-57158819D01*
G37*
G36*
X93867562Y-57158819D02*
G01*
X93867562Y-57503694D01*
X93522688Y-57503694D01*
X93522688Y-57158819D01*
X93867562Y-57158819D01*
G37*
G36*
X93177814Y-61987061D02*
G01*
X93177814Y-61642186D01*
X92832939Y-61642186D01*
X92832939Y-60952438D01*
X93177814Y-60952438D01*
X93177814Y-60607563D01*
X92832939Y-60607563D01*
X92832939Y-60952438D01*
X92488065Y-60952438D01*
X92488065Y-60607563D01*
X92143190Y-60607563D01*
X92143190Y-59917814D01*
X92488065Y-59917814D01*
X92488065Y-60262689D01*
X92832939Y-60262689D01*
X92832939Y-58883191D01*
X93177814Y-58883191D01*
X93177814Y-58538317D01*
X93522688Y-58538317D01*
X93522688Y-59228066D01*
X93177814Y-59228066D01*
X93177814Y-59572940D01*
X94557311Y-59572940D01*
X94557311Y-59917814D01*
X94212437Y-59917814D01*
X94212437Y-60607563D01*
X93867562Y-60607563D01*
X93867562Y-60262689D01*
X93522688Y-60262689D01*
X93522688Y-61987061D01*
X93177814Y-61987061D01*
G37*
G36*
X93867562Y-63366558D02*
G01*
X93867562Y-64056307D01*
X93522688Y-64056307D01*
X93522688Y-63711433D01*
X91453442Y-63711433D01*
X91453442Y-64056307D01*
X91798316Y-64056307D01*
X91798316Y-64401182D01*
X92143190Y-64401182D01*
X92143190Y-64056307D01*
X92488065Y-64056307D01*
X92488065Y-64401182D01*
X92832939Y-64401182D01*
X92832939Y-65090930D01*
X92143190Y-65090930D01*
X92143190Y-64746056D01*
X91108567Y-64746056D01*
X91108567Y-64401182D01*
X90763693Y-64401182D01*
X90763693Y-64056307D01*
X91108567Y-64056307D01*
X91108567Y-63366558D01*
X91453442Y-63366558D01*
X92488065Y-63366558D01*
X92488065Y-63021684D01*
X92832939Y-63021684D01*
X93177814Y-63021684D01*
X93177814Y-62676810D01*
X92832939Y-62676810D01*
X92832939Y-63021684D01*
X92488065Y-63021684D01*
X92488065Y-62331935D01*
X91453442Y-62331935D01*
X91453442Y-63366558D01*
X91108567Y-63366558D01*
X91108567Y-61987061D01*
X90763693Y-61987061D01*
X90763693Y-61642186D01*
X90418818Y-61642186D01*
X90418818Y-61297312D01*
X91108567Y-61297312D01*
X91108567Y-61642186D01*
X91798316Y-61642186D01*
X91798316Y-61987061D01*
X92832939Y-61987061D01*
X92832939Y-62331935D01*
X93177814Y-62331935D01*
X93177814Y-62676810D01*
X93867562Y-62676810D01*
X93867562Y-61987061D01*
X94557311Y-61987061D01*
X94557311Y-62331935D01*
X94212437Y-62331935D01*
X94212437Y-63021684D01*
X94557311Y-63021684D01*
X94557311Y-63366558D01*
X93867562Y-63366558D01*
X93867562Y-63021684D01*
X93522688Y-63021684D01*
X93522688Y-63366558D01*
X93867562Y-63366558D01*
G37*
G36*
X93867562Y-56813945D02*
G01*
X93522688Y-56813945D01*
X93522688Y-56469070D01*
X93867562Y-56469070D01*
X93867562Y-56813945D01*
G37*
G36*
X93177814Y-56813945D02*
G01*
X92832939Y-56813945D01*
X92832939Y-56469070D01*
X93177814Y-56469070D01*
X93177814Y-56813945D01*
G37*
G36*
X94902186Y-56813945D02*
G01*
X94557311Y-56813945D01*
X94557311Y-57158819D01*
X94212437Y-57158819D01*
X94212437Y-56469070D01*
X94902186Y-56469070D01*
X94902186Y-56813945D01*
G37*
G36*
X95591934Y-57503694D02*
G01*
X94557311Y-57503694D01*
X94557311Y-57158819D01*
X95591934Y-57158819D01*
X95591934Y-57503694D01*
G37*
G36*
X94557311Y-58193442D02*
G01*
X94212437Y-58193442D01*
X94212437Y-57503694D01*
X94557311Y-57503694D01*
X94557311Y-58193442D01*
G37*
G36*
X92832939Y-58883191D02*
G01*
X92488065Y-58883191D01*
X92488065Y-58193442D01*
X92832939Y-58193442D01*
X92832939Y-58883191D01*
G37*
G36*
X94902186Y-59228066D02*
G01*
X95247060Y-59228066D01*
X95247060Y-59572940D01*
X94557311Y-59572940D01*
X94557311Y-59228066D01*
X94212437Y-59228066D01*
X94212437Y-58883191D01*
X94557311Y-58883191D01*
X94557311Y-58538317D01*
X94902186Y-58538317D01*
X94902186Y-59228066D01*
G37*
G36*
X94902186Y-60952438D02*
G01*
X94212437Y-60952438D01*
X94212437Y-60607563D01*
X94902186Y-60607563D01*
X94902186Y-60952438D01*
G37*
G36*
X95247060Y-61297312D02*
G01*
X94902186Y-61297312D01*
X94902186Y-60952438D01*
X95247060Y-60952438D01*
X95247060Y-61297312D01*
G37*
G36*
X92143190Y-60952438D02*
G01*
X92488065Y-60952438D01*
X92488065Y-61297312D01*
X92143190Y-61297312D01*
X92143190Y-61642186D01*
X91798316Y-61642186D01*
X91798316Y-61297312D01*
X91453442Y-61297312D01*
X91453442Y-60607563D01*
X92143190Y-60607563D01*
X92143190Y-60952438D01*
G37*
G36*
X91798316Y-59572940D02*
G01*
X92143190Y-59572940D01*
X92143190Y-59917814D01*
X91798316Y-59917814D01*
X91798316Y-60262689D01*
X91453442Y-60262689D01*
X91453442Y-59228066D01*
X91798316Y-59228066D01*
X91798316Y-59572940D01*
G37*
G36*
X90418818Y-62331935D02*
G01*
X90073944Y-62331935D01*
X90073944Y-61987061D01*
X90418818Y-61987061D01*
X90418818Y-62331935D01*
G37*
G36*
X95591934Y-63021684D02*
G01*
X94557311Y-63021684D01*
X94557311Y-62676810D01*
X95247060Y-62676810D01*
X95247060Y-61987061D01*
X94902186Y-61987061D01*
X94902186Y-61642186D01*
X95591934Y-61642186D01*
X95591934Y-63021684D01*
G37*
G36*
X90073944Y-63711433D02*
G01*
X89729070Y-63711433D01*
X89729070Y-62331935D01*
X90073944Y-62331935D01*
X90073944Y-63711433D01*
G37*
G36*
X90763693Y-64056307D02*
G01*
X90418818Y-64056307D01*
X90418818Y-64401182D01*
X89729070Y-64401182D01*
X89729070Y-64056307D01*
X90073944Y-64056307D01*
X90073944Y-63711433D01*
X90763693Y-63711433D01*
X90763693Y-64056307D01*
G37*
G36*
X90073944Y-60952438D02*
G01*
X90418818Y-60952438D01*
X90418818Y-61297312D01*
X90073944Y-61297312D01*
X90073944Y-61642186D01*
X89729070Y-61642186D01*
X89729070Y-60607563D01*
X90073944Y-60607563D01*
X90073944Y-60952438D01*
G37*
G36*
X91108567Y-65090930D02*
G01*
X90763693Y-65090930D01*
X90763693Y-64746056D01*
X91108567Y-64746056D01*
X91108567Y-65090930D01*
G37*
G36*
X93867562Y-64746056D02*
G01*
X94557311Y-64746056D01*
X94557311Y-65090930D01*
X93522688Y-65090930D01*
X93522688Y-64401182D01*
X93867562Y-64401182D01*
X93867562Y-64746056D01*
G37*
G36*
X95247060Y-64056307D02*
G01*
X94557311Y-64056307D01*
X94557311Y-63711433D01*
X94902186Y-63711433D01*
X94902186Y-63366558D01*
X95247060Y-63366558D01*
X95247060Y-64056307D01*
G37*
G36*
X95591934Y-64401182D02*
G01*
X95247060Y-64401182D01*
X95247060Y-64056307D01*
X95591934Y-64056307D01*
X95591934Y-64401182D01*
G37*
G36*
X94557311Y-64401182D02*
G01*
X94212437Y-64401182D01*
X94212437Y-64056307D01*
X94557311Y-64056307D01*
X94557311Y-64401182D01*
G37*
G36*
X95247060Y-64746056D02*
G01*
X94902186Y-64746056D01*
X94902186Y-64401182D01*
X95247060Y-64401182D01*
X95247060Y-64746056D01*
G37*
G36*
X95591934Y-65090930D02*
G01*
X95247060Y-65090930D01*
X95247060Y-64746056D01*
X95591934Y-64746056D01*
X95591934Y-65090930D01*
G37*
G36*
X95936809Y-65090930D02*
G01*
X95936809Y-64728812D01*
X96298927Y-64728812D01*
X97988812Y-64728812D01*
X97988812Y-63038928D01*
X96298927Y-63038928D01*
X96298927Y-64728812D01*
X95936809Y-64728812D01*
X95936809Y-62676810D01*
X98350930Y-62676810D01*
X98350930Y-65090930D01*
X95936809Y-65090930D01*
G37*
%TO.C,OSHW logo*%
G36*
X113725675Y-81496657D02*
G01*
X113748046Y-81512416D01*
X113786267Y-81544967D01*
X113836979Y-81591267D01*
X113896819Y-81648274D01*
X113962429Y-81712942D01*
X114179352Y-81930228D01*
X114010399Y-82178747D01*
X113841447Y-82427267D01*
X113892817Y-82538405D01*
X113892969Y-82538734D01*
X113923817Y-82609582D01*
X113955339Y-82688477D01*
X113980734Y-82758400D01*
X113984577Y-82769678D01*
X114003953Y-82822033D01*
X114021426Y-82862717D01*
X114033612Y-82883713D01*
X114038574Y-82886678D01*
X114068366Y-82896625D01*
X114118953Y-82909495D01*
X114184806Y-82923947D01*
X114260400Y-82938645D01*
X114283043Y-82942790D01*
X114364962Y-82957884D01*
X114441400Y-82972101D01*
X114504663Y-82984005D01*
X114547057Y-82992161D01*
X114623257Y-83007201D01*
X114623257Y-83324508D01*
X114623240Y-83363524D01*
X114622918Y-83458708D01*
X114621967Y-83529745D01*
X114620104Y-83580266D01*
X114617045Y-83613902D01*
X114612506Y-83634282D01*
X114606205Y-83645038D01*
X114597857Y-83649801D01*
X114589776Y-83651730D01*
X114556828Y-83658555D01*
X114504264Y-83668978D01*
X114437431Y-83681982D01*
X114361672Y-83696551D01*
X114282335Y-83711667D01*
X114204763Y-83726315D01*
X114134302Y-83739477D01*
X114076298Y-83750137D01*
X114036096Y-83757279D01*
X114019041Y-83759886D01*
X114017888Y-83761459D01*
X114008615Y-83781881D01*
X113992568Y-83820955D01*
X113972365Y-83872371D01*
X113944328Y-83941647D01*
X113909814Y-84021710D01*
X113877462Y-84092272D01*
X113870048Y-84108111D01*
X113849245Y-84157707D01*
X113836781Y-84195962D01*
X113835137Y-84215644D01*
X113835985Y-84217038D01*
X113849452Y-84237580D01*
X113876150Y-84277484D01*
X113913461Y-84332860D01*
X113958766Y-84399823D01*
X114009448Y-84474483D01*
X114066555Y-84559308D01*
X114109393Y-84625200D01*
X114138540Y-84673522D01*
X114155683Y-84707267D01*
X114162505Y-84729428D01*
X114160694Y-84742998D01*
X114160085Y-84744016D01*
X114143703Y-84763790D01*
X114110305Y-84799825D01*
X114063329Y-84848549D01*
X114006214Y-84906388D01*
X113942397Y-84969773D01*
X113876198Y-85034095D01*
X113811352Y-85094553D01*
X113763701Y-85135345D01*
X113732010Y-85157516D01*
X113715042Y-85162111D01*
X113712825Y-85161079D01*
X113689476Y-85147163D01*
X113647088Y-85119970D01*
X113589631Y-85082111D01*
X113521077Y-85036197D01*
X113445399Y-84984840D01*
X113198702Y-84816374D01*
X113087294Y-84866938D01*
X113084057Y-84868403D01*
X113015657Y-84898035D01*
X112943093Y-84927507D01*
X112881543Y-84950642D01*
X112881271Y-84950738D01*
X112832405Y-84968633D01*
X112794788Y-84983747D01*
X112776543Y-84992816D01*
X112776248Y-84993145D01*
X112770054Y-85011718D01*
X112759861Y-85053955D01*
X112746652Y-85115304D01*
X112731410Y-85191211D01*
X112715119Y-85277125D01*
X112714551Y-85280204D01*
X112698287Y-85367872D01*
X112683392Y-85447259D01*
X112670829Y-85513299D01*
X112661562Y-85560921D01*
X112656556Y-85585057D01*
X112656236Y-85586395D01*
X112652940Y-85596727D01*
X112646262Y-85604494D01*
X112632538Y-85610060D01*
X112608105Y-85613793D01*
X112569298Y-85616058D01*
X112512454Y-85617222D01*
X112433910Y-85617652D01*
X112330000Y-85617714D01*
X112316944Y-85617714D01*
X112216067Y-85617629D01*
X112140144Y-85617135D01*
X112085509Y-85615865D01*
X112048500Y-85613453D01*
X112025453Y-85609533D01*
X112012704Y-85603738D01*
X112006589Y-85595701D01*
X112003444Y-85585057D01*
X112003354Y-85584675D01*
X111998186Y-85559653D01*
X111988791Y-85511319D01*
X111976133Y-85444740D01*
X111961175Y-85364986D01*
X111944881Y-85277125D01*
X111943552Y-85269936D01*
X111927309Y-85184660D01*
X111912195Y-85109758D01*
X111899192Y-85049781D01*
X111889285Y-85009283D01*
X111883456Y-84992816D01*
X111883425Y-84992790D01*
X111865057Y-84983680D01*
X111827360Y-84968543D01*
X111778457Y-84950642D01*
X111775703Y-84949670D01*
X111713183Y-84926041D01*
X111640457Y-84896405D01*
X111572706Y-84866938D01*
X111461297Y-84816374D01*
X111214601Y-84984840D01*
X111197225Y-84996689D01*
X111122798Y-85047053D01*
X111056386Y-85091388D01*
X111001961Y-85127084D01*
X110963494Y-85151529D01*
X110944958Y-85162111D01*
X110932257Y-85159685D01*
X110903421Y-85140890D01*
X110858857Y-85103670D01*
X110797330Y-85046980D01*
X110717602Y-84969773D01*
X110710468Y-84962745D01*
X110647204Y-84899778D01*
X110591010Y-84842732D01*
X110545323Y-84795183D01*
X110513586Y-84760703D01*
X110499236Y-84742869D01*
X110499190Y-84742783D01*
X110497367Y-84729205D01*
X110504090Y-84707180D01*
X110521054Y-84673696D01*
X110549956Y-84625739D01*
X110592492Y-84560296D01*
X110650356Y-84474355D01*
X110660217Y-84459849D01*
X110710087Y-84386365D01*
X110754095Y-84321313D01*
X110789620Y-84268583D01*
X110814041Y-84232064D01*
X110824736Y-84215644D01*
X110825542Y-84212166D01*
X110820482Y-84186215D01*
X110805323Y-84143841D01*
X110782537Y-84092272D01*
X110751571Y-84024830D01*
X110716996Y-83944805D01*
X110687634Y-83872371D01*
X110680355Y-83853623D01*
X110661290Y-83805754D01*
X110647285Y-83772404D01*
X110640959Y-83759886D01*
X110633975Y-83758950D01*
X110602587Y-83753539D01*
X110551213Y-83744194D01*
X110485198Y-83731931D01*
X110409887Y-83717768D01*
X110330625Y-83702720D01*
X110252757Y-83687805D01*
X110181630Y-83674039D01*
X110122588Y-83662438D01*
X110080978Y-83654020D01*
X110062143Y-83649801D01*
X110059020Y-83648611D01*
X110051409Y-83642195D01*
X110045746Y-83628535D01*
X110041749Y-83604001D01*
X110039134Y-83564962D01*
X110037616Y-83507787D01*
X110036914Y-83428846D01*
X110036743Y-83324508D01*
X110036743Y-83007201D01*
X110112943Y-82992161D01*
X110122160Y-82990358D01*
X110171109Y-82981020D01*
X110238795Y-82968331D01*
X110317522Y-82953727D01*
X110399600Y-82938645D01*
X110431922Y-82932578D01*
X110504145Y-82917819D01*
X110564334Y-82903863D01*
X110606960Y-82892048D01*
X110626490Y-82883713D01*
X110635340Y-82870095D01*
X110651452Y-82834062D01*
X110667935Y-82787428D01*
X110673737Y-82769966D01*
X110695094Y-82712642D01*
X110722641Y-82644799D01*
X110751893Y-82577645D01*
X110767537Y-82542570D01*
X110789826Y-82490178D01*
X110805143Y-82450942D01*
X110810838Y-82431437D01*
X110810522Y-82429964D01*
X110799719Y-82409271D01*
X110775362Y-82369335D01*
X110739919Y-82314028D01*
X110695864Y-82247219D01*
X110645668Y-82172780D01*
X110480499Y-81930377D01*
X110697497Y-81713017D01*
X110718484Y-81692101D01*
X110782658Y-81629495D01*
X110840010Y-81575505D01*
X110887180Y-81533174D01*
X110920808Y-81505543D01*
X110937533Y-81495657D01*
X110955697Y-81503179D01*
X110993735Y-81524773D01*
X111047274Y-81557849D01*
X111112116Y-81599809D01*
X111184060Y-81648057D01*
X111254725Y-81695709D01*
X111318474Y-81737672D01*
X111370487Y-81770835D01*
X111406721Y-81792622D01*
X111423133Y-81800457D01*
X111424095Y-81800386D01*
X111445897Y-81792662D01*
X111484560Y-81774677D01*
X111532388Y-81749987D01*
X111532890Y-81749716D01*
X111596413Y-81717901D01*
X111639940Y-81702358D01*
X111666948Y-81702315D01*
X111680910Y-81717000D01*
X111686820Y-81731456D01*
X111702771Y-81770169D01*
X111727340Y-81829684D01*
X111759221Y-81906835D01*
X111797107Y-81998459D01*
X111839690Y-82101393D01*
X111885663Y-82212474D01*
X111927333Y-82313528D01*
X111969732Y-82417220D01*
X112007244Y-82509881D01*
X112038612Y-82588358D01*
X112062575Y-82649500D01*
X112077877Y-82690157D01*
X112083257Y-82707175D01*
X112072982Y-82722781D01*
X112044437Y-82748838D01*
X112004029Y-82779113D01*
X111907021Y-82858316D01*
X111820207Y-82959525D01*
X111756678Y-83070884D01*
X111716823Y-83189107D01*
X111701035Y-83310905D01*
X111709704Y-83432990D01*
X111743222Y-83552075D01*
X111801979Y-83664871D01*
X111886368Y-83768089D01*
X111930369Y-83808287D01*
X112035789Y-83879362D01*
X112148590Y-83925699D01*
X112265475Y-83948401D01*
X112383147Y-83948572D01*
X112498310Y-83927313D01*
X112607665Y-83885730D01*
X112707917Y-83824924D01*
X112795767Y-83745999D01*
X112867920Y-83650059D01*
X112921078Y-83538205D01*
X112951943Y-83411543D01*
X112957608Y-83350493D01*
X112949815Y-83218224D01*
X112914716Y-83092734D01*
X112853351Y-82976241D01*
X112766757Y-82870961D01*
X112655971Y-82779113D01*
X112617069Y-82750070D01*
X112587896Y-82723728D01*
X112576743Y-82707200D01*
X112581190Y-82692791D01*
X112595622Y-82654185D01*
X112618827Y-82594799D01*
X112649548Y-82517785D01*
X112686526Y-82426297D01*
X112728504Y-82323484D01*
X112774222Y-82212498D01*
X112815822Y-82111928D01*
X112858778Y-82008053D01*
X112897171Y-81915181D01*
X112929695Y-81836475D01*
X112955042Y-81775101D01*
X112971905Y-81734221D01*
X112978975Y-81717000D01*
X112979057Y-81716796D01*
X112993202Y-81702255D01*
X113020341Y-81702421D01*
X113063977Y-81718073D01*
X113127612Y-81749987D01*
X113132621Y-81752674D01*
X113179875Y-81776850D01*
X113217189Y-81793963D01*
X113236867Y-81800457D01*
X113252995Y-81792782D01*
X113289041Y-81771129D01*
X113340908Y-81738072D01*
X113404555Y-81696190D01*
X113475940Y-81648057D01*
X113546276Y-81600869D01*
X113611330Y-81558733D01*
X113665180Y-81525422D01*
X113703626Y-81503531D01*
X113722466Y-81495657D01*
X113725675Y-81496657D01*
G37*
D12*
X113725675Y-81496657D02*
X113748046Y-81512416D01*
X113786267Y-81544967D01*
X113836979Y-81591267D01*
X113896819Y-81648274D01*
X113962429Y-81712942D01*
X114179352Y-81930228D01*
X114010399Y-82178747D01*
X113841447Y-82427267D01*
X113892817Y-82538405D01*
X113892969Y-82538734D01*
X113923817Y-82609582D01*
X113955339Y-82688477D01*
X113980734Y-82758400D01*
X113984577Y-82769678D01*
X114003953Y-82822033D01*
X114021426Y-82862717D01*
X114033612Y-82883713D01*
X114038574Y-82886678D01*
X114068366Y-82896625D01*
X114118953Y-82909495D01*
X114184806Y-82923947D01*
X114260400Y-82938645D01*
X114283043Y-82942790D01*
X114364962Y-82957884D01*
X114441400Y-82972101D01*
X114504663Y-82984005D01*
X114547057Y-82992161D01*
X114623257Y-83007201D01*
X114623257Y-83324508D01*
X114623240Y-83363524D01*
X114622918Y-83458708D01*
X114621967Y-83529745D01*
X114620104Y-83580266D01*
X114617045Y-83613902D01*
X114612506Y-83634282D01*
X114606205Y-83645038D01*
X114597857Y-83649801D01*
X114589776Y-83651730D01*
X114556828Y-83658555D01*
X114504264Y-83668978D01*
X114437431Y-83681982D01*
X114361672Y-83696551D01*
X114282335Y-83711667D01*
X114204763Y-83726315D01*
X114134302Y-83739477D01*
X114076298Y-83750137D01*
X114036096Y-83757279D01*
X114019041Y-83759886D01*
X114017888Y-83761459D01*
X114008615Y-83781881D01*
X113992568Y-83820955D01*
X113972365Y-83872371D01*
X113944328Y-83941647D01*
X113909814Y-84021710D01*
X113877462Y-84092272D01*
X113870048Y-84108111D01*
X113849245Y-84157707D01*
X113836781Y-84195962D01*
X113835137Y-84215644D01*
X113835985Y-84217038D01*
X113849452Y-84237580D01*
X113876150Y-84277484D01*
X113913461Y-84332860D01*
X113958766Y-84399823D01*
X114009448Y-84474483D01*
X114066555Y-84559308D01*
X114109393Y-84625200D01*
X114138540Y-84673522D01*
X114155683Y-84707267D01*
X114162505Y-84729428D01*
X114160694Y-84742998D01*
X114160085Y-84744016D01*
X114143703Y-84763790D01*
X114110305Y-84799825D01*
X114063329Y-84848549D01*
X114006214Y-84906388D01*
X113942397Y-84969773D01*
X113876198Y-85034095D01*
X113811352Y-85094553D01*
X113763701Y-85135345D01*
X113732010Y-85157516D01*
X113715042Y-85162111D01*
X113712825Y-85161079D01*
X113689476Y-85147163D01*
X113647088Y-85119970D01*
X113589631Y-85082111D01*
X113521077Y-85036197D01*
X113445399Y-84984840D01*
X113198702Y-84816374D01*
X113087294Y-84866938D01*
X113084057Y-84868403D01*
X113015657Y-84898035D01*
X112943093Y-84927507D01*
X112881543Y-84950642D01*
X112881271Y-84950738D01*
X112832405Y-84968633D01*
X112794788Y-84983747D01*
X112776543Y-84992816D01*
X112776248Y-84993145D01*
X112770054Y-85011718D01*
X112759861Y-85053955D01*
X112746652Y-85115304D01*
X112731410Y-85191211D01*
X112715119Y-85277125D01*
X112714551Y-85280204D01*
X112698287Y-85367872D01*
X112683392Y-85447259D01*
X112670829Y-85513299D01*
X112661562Y-85560921D01*
X112656556Y-85585057D01*
X112656236Y-85586395D01*
X112652940Y-85596727D01*
X112646262Y-85604494D01*
X112632538Y-85610060D01*
X112608105Y-85613793D01*
X112569298Y-85616058D01*
X112512454Y-85617222D01*
X112433910Y-85617652D01*
X112330000Y-85617714D01*
X112316944Y-85617714D01*
X112216067Y-85617629D01*
X112140144Y-85617135D01*
X112085509Y-85615865D01*
X112048500Y-85613453D01*
X112025453Y-85609533D01*
X112012704Y-85603738D01*
X112006589Y-85595701D01*
X112003444Y-85585057D01*
X112003354Y-85584675D01*
X111998186Y-85559653D01*
X111988791Y-85511319D01*
X111976133Y-85444740D01*
X111961175Y-85364986D01*
X111944881Y-85277125D01*
X111943552Y-85269936D01*
X111927309Y-85184660D01*
X111912195Y-85109758D01*
X111899192Y-85049781D01*
X111889285Y-85009283D01*
X111883456Y-84992816D01*
X111883425Y-84992790D01*
X111865057Y-84983680D01*
X111827360Y-84968543D01*
X111778457Y-84950642D01*
X111775703Y-84949670D01*
X111713183Y-84926041D01*
X111640457Y-84896405D01*
X111572706Y-84866938D01*
X111461297Y-84816374D01*
X111214601Y-84984840D01*
X111197225Y-84996689D01*
X111122798Y-85047053D01*
X111056386Y-85091388D01*
X111001961Y-85127084D01*
X110963494Y-85151529D01*
X110944958Y-85162111D01*
X110932257Y-85159685D01*
X110903421Y-85140890D01*
X110858857Y-85103670D01*
X110797330Y-85046980D01*
X110717602Y-84969773D01*
X110710468Y-84962745D01*
X110647204Y-84899778D01*
X110591010Y-84842732D01*
X110545323Y-84795183D01*
X110513586Y-84760703D01*
X110499236Y-84742869D01*
X110499190Y-84742783D01*
X110497367Y-84729205D01*
X110504090Y-84707180D01*
X110521054Y-84673696D01*
X110549956Y-84625739D01*
X110592492Y-84560296D01*
X110650356Y-84474355D01*
X110660217Y-84459849D01*
X110710087Y-84386365D01*
X110754095Y-84321313D01*
X110789620Y-84268583D01*
X110814041Y-84232064D01*
X110824736Y-84215644D01*
X110825542Y-84212166D01*
X110820482Y-84186215D01*
X110805323Y-84143841D01*
X110782537Y-84092272D01*
X110751571Y-84024830D01*
X110716996Y-83944805D01*
X110687634Y-83872371D01*
X110680355Y-83853623D01*
X110661290Y-83805754D01*
X110647285Y-83772404D01*
X110640959Y-83759886D01*
X110633975Y-83758950D01*
X110602587Y-83753539D01*
X110551213Y-83744194D01*
X110485198Y-83731931D01*
X110409887Y-83717768D01*
X110330625Y-83702720D01*
X110252757Y-83687805D01*
X110181630Y-83674039D01*
X110122588Y-83662438D01*
X110080978Y-83654020D01*
X110062143Y-83649801D01*
X110059020Y-83648611D01*
X110051409Y-83642195D01*
X110045746Y-83628535D01*
X110041749Y-83604001D01*
X110039134Y-83564962D01*
X110037616Y-83507787D01*
X110036914Y-83428846D01*
X110036743Y-83324508D01*
X110036743Y-83007201D01*
X110112943Y-82992161D01*
X110122160Y-82990358D01*
X110171109Y-82981020D01*
X110238795Y-82968331D01*
X110317522Y-82953727D01*
X110399600Y-82938645D01*
X110431922Y-82932578D01*
X110504145Y-82917819D01*
X110564334Y-82903863D01*
X110606960Y-82892048D01*
X110626490Y-82883713D01*
X110635340Y-82870095D01*
X110651452Y-82834062D01*
X110667935Y-82787428D01*
X110673737Y-82769966D01*
X110695094Y-82712642D01*
X110722641Y-82644799D01*
X110751893Y-82577645D01*
X110767537Y-82542570D01*
X110789826Y-82490178D01*
X110805143Y-82450942D01*
X110810838Y-82431437D01*
X110810522Y-82429964D01*
X110799719Y-82409271D01*
X110775362Y-82369335D01*
X110739919Y-82314028D01*
X110695864Y-82247219D01*
X110645668Y-82172780D01*
X110480499Y-81930377D01*
X110697497Y-81713017D01*
X110718484Y-81692101D01*
X110782658Y-81629495D01*
X110840010Y-81575505D01*
X110887180Y-81533174D01*
X110920808Y-81505543D01*
X110937533Y-81495657D01*
X110955697Y-81503179D01*
X110993735Y-81524773D01*
X111047274Y-81557849D01*
X111112116Y-81599809D01*
X111184060Y-81648057D01*
X111254725Y-81695709D01*
X111318474Y-81737672D01*
X111370487Y-81770835D01*
X111406721Y-81792622D01*
X111423133Y-81800457D01*
X111424095Y-81800386D01*
X111445897Y-81792662D01*
X111484560Y-81774677D01*
X111532388Y-81749987D01*
X111532890Y-81749716D01*
X111596413Y-81717901D01*
X111639940Y-81702358D01*
X111666948Y-81702315D01*
X111680910Y-81717000D01*
X111686820Y-81731456D01*
X111702771Y-81770169D01*
X111727340Y-81829684D01*
X111759221Y-81906835D01*
X111797107Y-81998459D01*
X111839690Y-82101393D01*
X111885663Y-82212474D01*
X111927333Y-82313528D01*
X111969732Y-82417220D01*
X112007244Y-82509881D01*
X112038612Y-82588358D01*
X112062575Y-82649500D01*
X112077877Y-82690157D01*
X112083257Y-82707175D01*
X112072982Y-82722781D01*
X112044437Y-82748838D01*
X112004029Y-82779113D01*
X111907021Y-82858316D01*
X111820207Y-82959525D01*
X111756678Y-83070884D01*
X111716823Y-83189107D01*
X111701035Y-83310905D01*
X111709704Y-83432990D01*
X111743222Y-83552075D01*
X111801979Y-83664871D01*
X111886368Y-83768089D01*
X111930369Y-83808287D01*
X112035789Y-83879362D01*
X112148590Y-83925699D01*
X112265475Y-83948401D01*
X112383147Y-83948572D01*
X112498310Y-83927313D01*
X112607665Y-83885730D01*
X112707917Y-83824924D01*
X112795767Y-83745999D01*
X112867920Y-83650059D01*
X112921078Y-83538205D01*
X112951943Y-83411543D01*
X112957608Y-83350493D01*
X112949815Y-83218224D01*
X112914716Y-83092734D01*
X112853351Y-82976241D01*
X112766757Y-82870961D01*
X112655971Y-82779113D01*
X112617069Y-82750070D01*
X112587896Y-82723728D01*
X112576743Y-82707200D01*
X112581190Y-82692791D01*
X112595622Y-82654185D01*
X112618827Y-82594799D01*
X112649548Y-82517785D01*
X112686526Y-82426297D01*
X112728504Y-82323484D01*
X112774222Y-82212498D01*
X112815822Y-82111928D01*
X112858778Y-82008053D01*
X112897171Y-81915181D01*
X112929695Y-81836475D01*
X112955042Y-81775101D01*
X112971905Y-81734221D01*
X112978975Y-81717000D01*
X112979057Y-81716796D01*
X112993202Y-81702255D01*
X113020341Y-81702421D01*
X113063977Y-81718073D01*
X113127612Y-81749987D01*
X113132621Y-81752674D01*
X113179875Y-81776850D01*
X113217189Y-81793963D01*
X113236867Y-81800457D01*
X113252995Y-81792782D01*
X113289041Y-81771129D01*
X113340908Y-81738072D01*
X113404555Y-81696190D01*
X113475940Y-81648057D01*
X113546276Y-81600869D01*
X113611330Y-81558733D01*
X113665180Y-81525422D01*
X113703626Y-81503531D01*
X113722466Y-81495657D01*
X113725675Y-81496657D01*
G36*
X115189693Y-80568695D02*
G01*
X115193238Y-80492479D01*
X115202517Y-80436706D01*
X115219625Y-80395387D01*
X115246656Y-80362533D01*
X115285708Y-80332154D01*
X115310555Y-80318340D01*
X115350385Y-80309035D01*
X115406335Y-80309770D01*
X115437615Y-80312717D01*
X115475347Y-80321717D01*
X115505506Y-80341280D01*
X115540592Y-80377733D01*
X115545280Y-80383057D01*
X115576823Y-80424031D01*
X115591872Y-80459717D01*
X115595714Y-80502034D01*
X115595714Y-80564221D01*
X115552258Y-80547818D01*
X115520576Y-80528644D01*
X115493038Y-80483653D01*
X115487289Y-80469248D01*
X115455145Y-80428454D01*
X115411389Y-80407919D01*
X115363746Y-80409765D01*
X115319943Y-80436114D01*
X115304889Y-80452545D01*
X115291237Y-80477333D01*
X115295507Y-80499856D01*
X115320084Y-80523036D01*
X115367349Y-80549798D01*
X115439686Y-80583066D01*
X115588457Y-80648184D01*
X115592405Y-80712692D01*
X115590662Y-80760936D01*
X115568719Y-80821904D01*
X115541021Y-80855503D01*
X115483595Y-80893034D01*
X115415473Y-80911994D01*
X115345053Y-80910493D01*
X115280733Y-80886645D01*
X115266574Y-80877487D01*
X115234096Y-80849151D01*
X115211884Y-80813305D01*
X115198196Y-80764616D01*
X115191285Y-80697751D01*
X115190372Y-80653753D01*
X115278007Y-80653753D01*
X115281631Y-80693743D01*
X115290758Y-80732848D01*
X115319227Y-80782116D01*
X115360322Y-80809878D01*
X115409410Y-80813636D01*
X115461856Y-80790891D01*
X115476391Y-80779519D01*
X115493990Y-80753780D01*
X115486632Y-80728343D01*
X115453152Y-80701186D01*
X115392386Y-80670286D01*
X115382331Y-80665810D01*
X115334249Y-80644983D01*
X115298274Y-80630335D01*
X115281556Y-80624800D01*
X115279023Y-80628874D01*
X115278007Y-80653753D01*
X115190372Y-80653753D01*
X115189410Y-80607378D01*
X115189693Y-80568695D01*
G37*
X115189693Y-80568695D02*
X115193238Y-80492479D01*
X115202517Y-80436706D01*
X115219625Y-80395387D01*
X115246656Y-80362533D01*
X115285708Y-80332154D01*
X115310555Y-80318340D01*
X115350385Y-80309035D01*
X115406335Y-80309770D01*
X115437615Y-80312717D01*
X115475347Y-80321717D01*
X115505506Y-80341280D01*
X115540592Y-80377733D01*
X115545280Y-80383057D01*
X115576823Y-80424031D01*
X115591872Y-80459717D01*
X115595714Y-80502034D01*
X115595714Y-80564221D01*
X115552258Y-80547818D01*
X115520576Y-80528644D01*
X115493038Y-80483653D01*
X115487289Y-80469248D01*
X115455145Y-80428454D01*
X115411389Y-80407919D01*
X115363746Y-80409765D01*
X115319943Y-80436114D01*
X115304889Y-80452545D01*
X115291237Y-80477333D01*
X115295507Y-80499856D01*
X115320084Y-80523036D01*
X115367349Y-80549798D01*
X115439686Y-80583066D01*
X115588457Y-80648184D01*
X115592405Y-80712692D01*
X115590662Y-80760936D01*
X115568719Y-80821904D01*
X115541021Y-80855503D01*
X115483595Y-80893034D01*
X115415473Y-80911994D01*
X115345053Y-80910493D01*
X115280733Y-80886645D01*
X115266574Y-80877487D01*
X115234096Y-80849151D01*
X115211884Y-80813305D01*
X115198196Y-80764616D01*
X115191285Y-80697751D01*
X115190372Y-80653753D01*
X115278007Y-80653753D01*
X115281631Y-80693743D01*
X115290758Y-80732848D01*
X115319227Y-80782116D01*
X115360322Y-80809878D01*
X115409410Y-80813636D01*
X115461856Y-80790891D01*
X115476391Y-80779519D01*
X115493990Y-80753780D01*
X115486632Y-80728343D01*
X115453152Y-80701186D01*
X115392386Y-80670286D01*
X115382331Y-80665810D01*
X115334249Y-80644983D01*
X115298274Y-80630335D01*
X115281556Y-80624800D01*
X115279023Y-80628874D01*
X115278007Y-80653753D01*
X115190372Y-80653753D01*
X115189410Y-80607378D01*
X115189693Y-80568695D01*
G36*
X113100463Y-80553687D02*
G01*
X113108655Y-80476538D01*
X113126481Y-80418724D01*
X113156025Y-80374578D01*
X113199375Y-80338432D01*
X113240668Y-80317537D01*
X113310013Y-80305910D01*
X113379264Y-80318623D01*
X113441855Y-80354055D01*
X113491221Y-80410582D01*
X113497182Y-80421005D01*
X113505055Y-80439267D01*
X113510894Y-80462571D01*
X113515001Y-80494915D01*
X113517675Y-80540296D01*
X113519219Y-80602713D01*
X113519933Y-80686163D01*
X113520117Y-80794642D01*
X113520171Y-81131399D01*
X113473000Y-81111638D01*
X113460528Y-81106230D01*
X113440676Y-81094015D01*
X113429313Y-81075518D01*
X113423067Y-81043171D01*
X113418571Y-80989407D01*
X113414465Y-80941134D01*
X113409037Y-80909443D01*
X113401261Y-80897617D01*
X113389543Y-80900788D01*
X113359682Y-80911933D01*
X113306316Y-80914696D01*
X113248907Y-80904375D01*
X113199375Y-80882139D01*
X113172124Y-80861557D01*
X113137135Y-80821400D01*
X113114726Y-80769914D01*
X113102810Y-80701432D01*
X113099458Y-80614353D01*
X113200857Y-80614353D01*
X113201163Y-80663878D01*
X113203278Y-80712218D01*
X113208610Y-80743413D01*
X113218540Y-80764353D01*
X113234450Y-80781927D01*
X113243796Y-80789841D01*
X113292224Y-80811157D01*
X113342960Y-80807802D01*
X113387013Y-80779893D01*
X113396496Y-80768827D01*
X113408061Y-80747991D01*
X113414748Y-80718894D01*
X113417827Y-80674619D01*
X113418571Y-80608252D01*
X113418228Y-80555423D01*
X113416058Y-80507638D01*
X113410693Y-80476791D01*
X113400783Y-80456065D01*
X113384979Y-80438644D01*
X113381276Y-80435295D01*
X113333701Y-80410581D01*
X113283365Y-80413110D01*
X113236483Y-80442712D01*
X113222523Y-80458047D01*
X113210840Y-80478378D01*
X113204314Y-80506486D01*
X113201476Y-80549450D01*
X113200857Y-80614353D01*
X113099458Y-80614353D01*
X113099302Y-80610286D01*
X113100463Y-80553687D01*
G37*
X113100463Y-80553687D02*
X113108655Y-80476538D01*
X113126481Y-80418724D01*
X113156025Y-80374578D01*
X113199375Y-80338432D01*
X113240668Y-80317537D01*
X113310013Y-80305910D01*
X113379264Y-80318623D01*
X113441855Y-80354055D01*
X113491221Y-80410582D01*
X113497182Y-80421005D01*
X113505055Y-80439267D01*
X113510894Y-80462571D01*
X113515001Y-80494915D01*
X113517675Y-80540296D01*
X113519219Y-80602713D01*
X113519933Y-80686163D01*
X113520117Y-80794642D01*
X113520171Y-81131399D01*
X113473000Y-81111638D01*
X113460528Y-81106230D01*
X113440676Y-81094015D01*
X113429313Y-81075518D01*
X113423067Y-81043171D01*
X113418571Y-80989407D01*
X113414465Y-80941134D01*
X113409037Y-80909443D01*
X113401261Y-80897617D01*
X113389543Y-80900788D01*
X113359682Y-80911933D01*
X113306316Y-80914696D01*
X113248907Y-80904375D01*
X113199375Y-80882139D01*
X113172124Y-80861557D01*
X113137135Y-80821400D01*
X113114726Y-80769914D01*
X113102810Y-80701432D01*
X113099458Y-80614353D01*
X113200857Y-80614353D01*
X113201163Y-80663878D01*
X113203278Y-80712218D01*
X113208610Y-80743413D01*
X113218540Y-80764353D01*
X113234450Y-80781927D01*
X113243796Y-80789841D01*
X113292224Y-80811157D01*
X113342960Y-80807802D01*
X113387013Y-80779893D01*
X113396496Y-80768827D01*
X113408061Y-80747991D01*
X113414748Y-80718894D01*
X113417827Y-80674619D01*
X113418571Y-80608252D01*
X113418228Y-80555423D01*
X113416058Y-80507638D01*
X113410693Y-80476791D01*
X113400783Y-80456065D01*
X113384979Y-80438644D01*
X113381276Y-80435295D01*
X113333701Y-80410581D01*
X113283365Y-80413110D01*
X113236483Y-80442712D01*
X113222523Y-80458047D01*
X113210840Y-80478378D01*
X113204314Y-80506486D01*
X113201476Y-80549450D01*
X113200857Y-80614353D01*
X113099458Y-80614353D01*
X113099302Y-80610286D01*
X113100463Y-80553687D01*
G36*
X109618748Y-80447000D02*
G01*
X109618349Y-80414661D01*
X109617071Y-80306545D01*
X109616815Y-80223814D01*
X109618366Y-80163574D01*
X109622510Y-80122927D01*
X109630036Y-80098977D01*
X109641729Y-80088829D01*
X109658376Y-80089586D01*
X109680764Y-80098352D01*
X109709679Y-80112231D01*
X109715858Y-80115192D01*
X109741587Y-80129689D01*
X109755024Y-80146935D01*
X109760166Y-80175692D01*
X109761010Y-80224717D01*
X109761048Y-80312743D01*
X109851724Y-80312743D01*
X109907502Y-80315185D01*
X109951360Y-80325092D01*
X109987782Y-80345114D01*
X109990497Y-80347071D01*
X110027454Y-80380131D01*
X110053174Y-80420069D01*
X110069394Y-80472343D01*
X110077852Y-80542412D01*
X110080286Y-80635733D01*
X110079747Y-80703831D01*
X110077293Y-80755413D01*
X110071842Y-80791184D01*
X110062314Y-80817985D01*
X110047629Y-80842662D01*
X110034148Y-80861520D01*
X109985201Y-80912432D01*
X109929744Y-80940082D01*
X109860072Y-80948835D01*
X109780336Y-80940110D01*
X109711405Y-80908815D01*
X109656887Y-80853619D01*
X109652777Y-80847776D01*
X109643192Y-80832247D01*
X109635849Y-80814502D01*
X109630388Y-80790710D01*
X109626450Y-80757042D01*
X109623677Y-80709667D01*
X109621708Y-80644755D01*
X109621472Y-80631397D01*
X109760971Y-80631397D01*
X109761650Y-80668870D01*
X109769017Y-80737020D01*
X109785832Y-80781670D01*
X109813766Y-80806074D01*
X109854491Y-80813486D01*
X109871650Y-80811906D01*
X109901340Y-80796234D01*
X109920969Y-80761309D01*
X109931812Y-80704099D01*
X109935143Y-80621570D01*
X109935118Y-80608303D01*
X109933739Y-80548416D01*
X109929313Y-80509268D01*
X109920539Y-80483847D01*
X109906114Y-80465143D01*
X109905216Y-80464250D01*
X109869763Y-80440048D01*
X109835404Y-80442433D01*
X109796597Y-80471740D01*
X109787105Y-80481756D01*
X109773124Y-80502292D01*
X109765240Y-80529003D01*
X109761755Y-80569501D01*
X109760971Y-80631397D01*
X109621472Y-80631397D01*
X109620185Y-80558476D01*
X109618748Y-80447000D01*
G37*
X109618748Y-80447000D02*
X109618349Y-80414661D01*
X109617071Y-80306545D01*
X109616815Y-80223814D01*
X109618366Y-80163574D01*
X109622510Y-80122927D01*
X109630036Y-80098977D01*
X109641729Y-80088829D01*
X109658376Y-80089586D01*
X109680764Y-80098352D01*
X109709679Y-80112231D01*
X109715858Y-80115192D01*
X109741587Y-80129689D01*
X109755024Y-80146935D01*
X109760166Y-80175692D01*
X109761010Y-80224717D01*
X109761048Y-80312743D01*
X109851724Y-80312743D01*
X109907502Y-80315185D01*
X109951360Y-80325092D01*
X109987782Y-80345114D01*
X109990497Y-80347071D01*
X110027454Y-80380131D01*
X110053174Y-80420069D01*
X110069394Y-80472343D01*
X110077852Y-80542412D01*
X110080286Y-80635733D01*
X110079747Y-80703831D01*
X110077293Y-80755413D01*
X110071842Y-80791184D01*
X110062314Y-80817985D01*
X110047629Y-80842662D01*
X110034148Y-80861520D01*
X109985201Y-80912432D01*
X109929744Y-80940082D01*
X109860072Y-80948835D01*
X109780336Y-80940110D01*
X109711405Y-80908815D01*
X109656887Y-80853619D01*
X109652777Y-80847776D01*
X109643192Y-80832247D01*
X109635849Y-80814502D01*
X109630388Y-80790710D01*
X109626450Y-80757042D01*
X109623677Y-80709667D01*
X109621708Y-80644755D01*
X109621472Y-80631397D01*
X109760971Y-80631397D01*
X109761650Y-80668870D01*
X109769017Y-80737020D01*
X109785832Y-80781670D01*
X109813766Y-80806074D01*
X109854491Y-80813486D01*
X109871650Y-80811906D01*
X109901340Y-80796234D01*
X109920969Y-80761309D01*
X109931812Y-80704099D01*
X109935143Y-80621570D01*
X109935118Y-80608303D01*
X109933739Y-80548416D01*
X109929313Y-80509268D01*
X109920539Y-80483847D01*
X109906114Y-80465143D01*
X109905216Y-80464250D01*
X109869763Y-80440048D01*
X109835404Y-80442433D01*
X109796597Y-80471740D01*
X109787105Y-80481756D01*
X109773124Y-80502292D01*
X109765240Y-80529003D01*
X109761755Y-80569501D01*
X109760971Y-80631397D01*
X109621472Y-80631397D01*
X109620185Y-80558476D01*
X109618748Y-80447000D01*
G36*
X113765674Y-80311679D02*
G01*
X113783432Y-80313886D01*
X113829233Y-80318555D01*
X113861257Y-80320415D01*
X113870756Y-80320131D01*
X113909726Y-80317052D01*
X113956840Y-80311679D01*
X113971915Y-80309832D01*
X114009890Y-80309107D01*
X114037675Y-80320571D01*
X114069326Y-80348873D01*
X114115257Y-80394804D01*
X114115257Y-80654945D01*
X114114899Y-80731820D01*
X114113784Y-80805114D01*
X114112048Y-80863150D01*
X114109833Y-80901337D01*
X114107279Y-80915086D01*
X114106744Y-80915049D01*
X114088192Y-80908207D01*
X114056847Y-80893132D01*
X114014392Y-80871178D01*
X114010396Y-80642760D01*
X114006400Y-80414343D01*
X113919314Y-80414343D01*
X113915343Y-80664714D01*
X113914084Y-80732773D01*
X113912282Y-80805518D01*
X113910329Y-80863270D01*
X113908388Y-80901352D01*
X113906623Y-80915086D01*
X113906115Y-80915038D01*
X113888518Y-80909985D01*
X113856166Y-80899151D01*
X113810457Y-80883217D01*
X113810235Y-80663294D01*
X113810012Y-80625091D01*
X113808469Y-80550854D01*
X113805708Y-80488855D01*
X113802023Y-80444692D01*
X113797708Y-80423959D01*
X113782268Y-80412869D01*
X113750759Y-80409444D01*
X113716114Y-80414343D01*
X113712143Y-80664714D01*
X113710722Y-80728337D01*
X113707775Y-80803644D01*
X113703921Y-80862714D01*
X113699458Y-80901282D01*
X113694683Y-80915086D01*
X113676059Y-80910718D01*
X113644226Y-80898242D01*
X113607257Y-80881398D01*
X113607257Y-80394804D01*
X113653188Y-80348873D01*
X113663680Y-80338573D01*
X113692745Y-80315680D01*
X113722057Y-80308265D01*
X113765674Y-80311679D01*
G37*
X113765674Y-80311679D02*
X113783432Y-80313886D01*
X113829233Y-80318555D01*
X113861257Y-80320415D01*
X113870756Y-80320131D01*
X113909726Y-80317052D01*
X113956840Y-80311679D01*
X113971915Y-80309832D01*
X114009890Y-80309107D01*
X114037675Y-80320571D01*
X114069326Y-80348873D01*
X114115257Y-80394804D01*
X114115257Y-80654945D01*
X114114899Y-80731820D01*
X114113784Y-80805114D01*
X114112048Y-80863150D01*
X114109833Y-80901337D01*
X114107279Y-80915086D01*
X114106744Y-80915049D01*
X114088192Y-80908207D01*
X114056847Y-80893132D01*
X114014392Y-80871178D01*
X114010396Y-80642760D01*
X114006400Y-80414343D01*
X113919314Y-80414343D01*
X113915343Y-80664714D01*
X113914084Y-80732773D01*
X113912282Y-80805518D01*
X113910329Y-80863270D01*
X113908388Y-80901352D01*
X113906623Y-80915086D01*
X113906115Y-80915038D01*
X113888518Y-80909985D01*
X113856166Y-80899151D01*
X113810457Y-80883217D01*
X113810235Y-80663294D01*
X113810012Y-80625091D01*
X113808469Y-80550854D01*
X113805708Y-80488855D01*
X113802023Y-80444692D01*
X113797708Y-80423959D01*
X113782268Y-80412869D01*
X113750759Y-80409444D01*
X113716114Y-80414343D01*
X113712143Y-80664714D01*
X113710722Y-80728337D01*
X113707775Y-80803644D01*
X113703921Y-80862714D01*
X113699458Y-80901282D01*
X113694683Y-80915086D01*
X113676059Y-80910718D01*
X113644226Y-80898242D01*
X113607257Y-80881398D01*
X113607257Y-80394804D01*
X113653188Y-80348873D01*
X113663680Y-80338573D01*
X113692745Y-80315680D01*
X113722057Y-80308265D01*
X113765674Y-80311679D01*
G36*
X114542656Y-80310019D02*
G01*
X114571774Y-80322330D01*
X114608743Y-80339174D01*
X114608743Y-80555279D01*
X114608507Y-80610673D01*
X114606271Y-80694793D01*
X114600577Y-80757200D01*
X114590097Y-80802642D01*
X114573503Y-80835867D01*
X114549469Y-80861622D01*
X114516667Y-80884656D01*
X114474876Y-80903665D01*
X114397713Y-80915086D01*
X114362505Y-80913780D01*
X114331401Y-80905879D01*
X114302441Y-80886183D01*
X114265169Y-80849516D01*
X114241199Y-80823622D01*
X114216230Y-80790003D01*
X114204969Y-80758494D01*
X114202343Y-80718515D01*
X114202343Y-80653083D01*
X114246965Y-80676158D01*
X114282327Y-80704276D01*
X114306549Y-80742152D01*
X114310709Y-80752449D01*
X114342406Y-80792363D01*
X114386446Y-80812376D01*
X114434469Y-80810428D01*
X114478114Y-80784457D01*
X114496580Y-80763365D01*
X114507337Y-80736381D01*
X114495822Y-80712366D01*
X114460019Y-80688209D01*
X114397910Y-80660801D01*
X114388485Y-80657015D01*
X114331942Y-80632241D01*
X114283420Y-80607811D01*
X114252549Y-80588514D01*
X114221629Y-80554047D01*
X114201073Y-80499043D01*
X114203256Y-80440017D01*
X114227576Y-80384155D01*
X114273432Y-80338645D01*
X114310562Y-80319273D01*
X114382289Y-80305708D01*
X114422148Y-80307538D01*
X114459047Y-80317432D01*
X114473203Y-80338194D01*
X114467909Y-80372387D01*
X114466369Y-80376908D01*
X114454158Y-80400884D01*
X114433826Y-80409958D01*
X114395092Y-80409351D01*
X114367743Y-80408526D01*
X114335743Y-80415608D01*
X114313818Y-80436781D01*
X114301330Y-80462848D01*
X114299938Y-80490155D01*
X114300002Y-80490315D01*
X114316193Y-80505070D01*
X114350845Y-80526543D01*
X114395679Y-80550542D01*
X114442418Y-80572875D01*
X114482783Y-80589348D01*
X114508496Y-80595771D01*
X114512321Y-80589482D01*
X114517136Y-80559885D01*
X114520434Y-80511553D01*
X114521657Y-80450628D01*
X114521942Y-80408458D01*
X114523282Y-80355347D01*
X114525472Y-80318975D01*
X114528231Y-80305486D01*
X114542656Y-80310019D01*
G37*
X114542656Y-80310019D02*
X114571774Y-80322330D01*
X114608743Y-80339174D01*
X114608743Y-80555279D01*
X114608507Y-80610673D01*
X114606271Y-80694793D01*
X114600577Y-80757200D01*
X114590097Y-80802642D01*
X114573503Y-80835867D01*
X114549469Y-80861622D01*
X114516667Y-80884656D01*
X114474876Y-80903665D01*
X114397713Y-80915086D01*
X114362505Y-80913780D01*
X114331401Y-80905879D01*
X114302441Y-80886183D01*
X114265169Y-80849516D01*
X114241199Y-80823622D01*
X114216230Y-80790003D01*
X114204969Y-80758494D01*
X114202343Y-80718515D01*
X114202343Y-80653083D01*
X114246965Y-80676158D01*
X114282327Y-80704276D01*
X114306549Y-80742152D01*
X114310709Y-80752449D01*
X114342406Y-80792363D01*
X114386446Y-80812376D01*
X114434469Y-80810428D01*
X114478114Y-80784457D01*
X114496580Y-80763365D01*
X114507337Y-80736381D01*
X114495822Y-80712366D01*
X114460019Y-80688209D01*
X114397910Y-80660801D01*
X114388485Y-80657015D01*
X114331942Y-80632241D01*
X114283420Y-80607811D01*
X114252549Y-80588514D01*
X114221629Y-80554047D01*
X114201073Y-80499043D01*
X114203256Y-80440017D01*
X114227576Y-80384155D01*
X114273432Y-80338645D01*
X114310562Y-80319273D01*
X114382289Y-80305708D01*
X114422148Y-80307538D01*
X114459047Y-80317432D01*
X114473203Y-80338194D01*
X114467909Y-80372387D01*
X114466369Y-80376908D01*
X114454158Y-80400884D01*
X114433826Y-80409958D01*
X114395092Y-80409351D01*
X114367743Y-80408526D01*
X114335743Y-80415608D01*
X114313818Y-80436781D01*
X114301330Y-80462848D01*
X114299938Y-80490155D01*
X114300002Y-80490315D01*
X114316193Y-80505070D01*
X114350845Y-80526543D01*
X114395679Y-80550542D01*
X114442418Y-80572875D01*
X114482783Y-80589348D01*
X114508496Y-80595771D01*
X114512321Y-80589482D01*
X114517136Y-80559885D01*
X114520434Y-80511553D01*
X114521657Y-80450628D01*
X114521942Y-80408458D01*
X114523282Y-80355347D01*
X114525472Y-80318975D01*
X114528231Y-80305486D01*
X114542656Y-80310019D01*
G36*
X109064299Y-80609065D02*
G01*
X109065086Y-80538881D01*
X109067790Y-80489978D01*
X109073394Y-80455822D01*
X109082881Y-80429876D01*
X109097232Y-80405603D01*
X109100763Y-80400567D01*
X109138122Y-80360857D01*
X109180689Y-80330908D01*
X109202548Y-80321190D01*
X109281092Y-80304980D01*
X109358769Y-80315465D01*
X109430355Y-80351293D01*
X109490626Y-80411113D01*
X109495714Y-80419127D01*
X109512270Y-80465658D01*
X109523427Y-80530448D01*
X109528840Y-80605273D01*
X109528167Y-80681904D01*
X109521063Y-80752118D01*
X109507185Y-80807688D01*
X109489351Y-80844699D01*
X109439145Y-80902267D01*
X109371115Y-80938038D01*
X109287842Y-80950335D01*
X109265602Y-80949669D01*
X109200109Y-80936053D01*
X109146313Y-80901751D01*
X109096943Y-80842662D01*
X109094005Y-80838278D01*
X109080713Y-80814701D01*
X109072068Y-80788051D01*
X109067096Y-80751841D01*
X109064826Y-80699587D01*
X109064322Y-80629808D01*
X109209429Y-80629808D01*
X109210875Y-80691850D01*
X109218093Y-80750958D01*
X109232994Y-80788314D01*
X109257364Y-80807848D01*
X109292992Y-80813486D01*
X109306560Y-80812365D01*
X109344570Y-80791806D01*
X109369688Y-80745701D01*
X109381752Y-80674487D01*
X109380598Y-80578601D01*
X109380134Y-80572431D01*
X109373371Y-80519522D01*
X109361329Y-80485971D01*
X109340995Y-80462984D01*
X109306903Y-80441452D01*
X109273186Y-80440320D01*
X109238457Y-80465143D01*
X109232416Y-80471675D01*
X109220583Y-80491221D01*
X109213596Y-80519614D01*
X109210273Y-80563570D01*
X109209429Y-80629808D01*
X109064322Y-80629808D01*
X109064286Y-80624800D01*
X109064299Y-80609065D01*
G37*
X109064299Y-80609065D02*
X109065086Y-80538881D01*
X109067790Y-80489978D01*
X109073394Y-80455822D01*
X109082881Y-80429876D01*
X109097232Y-80405603D01*
X109100763Y-80400567D01*
X109138122Y-80360857D01*
X109180689Y-80330908D01*
X109202548Y-80321190D01*
X109281092Y-80304980D01*
X109358769Y-80315465D01*
X109430355Y-80351293D01*
X109490626Y-80411113D01*
X109495714Y-80419127D01*
X109512270Y-80465658D01*
X109523427Y-80530448D01*
X109528840Y-80605273D01*
X109528167Y-80681904D01*
X109521063Y-80752118D01*
X109507185Y-80807688D01*
X109489351Y-80844699D01*
X109439145Y-80902267D01*
X109371115Y-80938038D01*
X109287842Y-80950335D01*
X109265602Y-80949669D01*
X109200109Y-80936053D01*
X109146313Y-80901751D01*
X109096943Y-80842662D01*
X109094005Y-80838278D01*
X109080713Y-80814701D01*
X109072068Y-80788051D01*
X109067096Y-80751841D01*
X109064826Y-80699587D01*
X109064322Y-80629808D01*
X109209429Y-80629808D01*
X109210875Y-80691850D01*
X109218093Y-80750958D01*
X109232994Y-80788314D01*
X109257364Y-80807848D01*
X109292992Y-80813486D01*
X109306560Y-80812365D01*
X109344570Y-80791806D01*
X109369688Y-80745701D01*
X109381752Y-80674487D01*
X109380598Y-80578601D01*
X109380134Y-80572431D01*
X109373371Y-80519522D01*
X109361329Y-80485971D01*
X109340995Y-80462984D01*
X109306903Y-80441452D01*
X109273186Y-80440320D01*
X109238457Y-80465143D01*
X109232416Y-80471675D01*
X109220583Y-80491221D01*
X109213596Y-80519614D01*
X109210273Y-80563570D01*
X109209429Y-80629808D01*
X109064322Y-80629808D01*
X109064286Y-80624800D01*
X109064299Y-80609065D01*
G36*
X112637102Y-80309548D02*
G01*
X112669362Y-80321856D01*
X112676959Y-80325455D01*
X112688824Y-80333602D01*
X112697006Y-80346996D01*
X112702357Y-80370392D01*
X112705731Y-80408545D01*
X112707981Y-80466210D01*
X112709960Y-80548143D01*
X112710502Y-80572093D01*
X112712597Y-80647734D01*
X112715317Y-80700672D01*
X112719485Y-80735925D01*
X112725921Y-80758513D01*
X112735450Y-80773456D01*
X112748894Y-80785773D01*
X112788695Y-80807366D01*
X112837659Y-80811524D01*
X112881471Y-80795001D01*
X112912992Y-80760790D01*
X112925086Y-80711886D01*
X112925422Y-80698593D01*
X112932028Y-80674528D01*
X112951530Y-80670856D01*
X112989717Y-80685187D01*
X112998562Y-80689783D01*
X113022466Y-80716814D01*
X113022939Y-80757006D01*
X113000164Y-80812591D01*
X112979273Y-80842883D01*
X112925858Y-80885916D01*
X112859926Y-80910245D01*
X112789426Y-80913557D01*
X112722309Y-80893533D01*
X112717727Y-80890997D01*
X112680296Y-80861943D01*
X112646830Y-80824590D01*
X112640993Y-80816148D01*
X112629835Y-80796447D01*
X112621864Y-80773065D01*
X112616382Y-80740933D01*
X112612693Y-80694981D01*
X112610101Y-80630141D01*
X112607908Y-80541343D01*
X112607598Y-80526331D01*
X112606600Y-80429001D01*
X112608006Y-80360066D01*
X112611836Y-80319052D01*
X112618111Y-80305486D01*
X112637102Y-80309548D01*
G37*
X112637102Y-80309548D02*
X112669362Y-80321856D01*
X112676959Y-80325455D01*
X112688824Y-80333602D01*
X112697006Y-80346996D01*
X112702357Y-80370392D01*
X112705731Y-80408545D01*
X112707981Y-80466210D01*
X112709960Y-80548143D01*
X112710502Y-80572093D01*
X112712597Y-80647734D01*
X112715317Y-80700672D01*
X112719485Y-80735925D01*
X112725921Y-80758513D01*
X112735450Y-80773456D01*
X112748894Y-80785773D01*
X112788695Y-80807366D01*
X112837659Y-80811524D01*
X112881471Y-80795001D01*
X112912992Y-80760790D01*
X112925086Y-80711886D01*
X112925422Y-80698593D01*
X112932028Y-80674528D01*
X112951530Y-80670856D01*
X112989717Y-80685187D01*
X112998562Y-80689783D01*
X113022466Y-80716814D01*
X113022939Y-80757006D01*
X113000164Y-80812591D01*
X112979273Y-80842883D01*
X112925858Y-80885916D01*
X112859926Y-80910245D01*
X112789426Y-80913557D01*
X112722309Y-80893533D01*
X112717727Y-80890997D01*
X112680296Y-80861943D01*
X112646830Y-80824590D01*
X112640993Y-80816148D01*
X112629835Y-80796447D01*
X112621864Y-80773065D01*
X112616382Y-80740933D01*
X112612693Y-80694981D01*
X112610101Y-80630141D01*
X112607908Y-80541343D01*
X112607598Y-80526331D01*
X112606600Y-80429001D01*
X112608006Y-80360066D01*
X112611836Y-80319052D01*
X112618111Y-80305486D01*
X112637102Y-80309548D01*
G36*
X110769775Y-80305509D02*
G01*
X110804732Y-80318844D01*
X110830903Y-80331677D01*
X110847987Y-80348220D01*
X110857914Y-80373535D01*
X110862614Y-80412684D01*
X110864018Y-80470732D01*
X110864057Y-80552739D01*
X110864256Y-80618105D01*
X110865441Y-80680827D01*
X110868271Y-80723666D01*
X110873391Y-80751780D01*
X110881447Y-80770325D01*
X110893086Y-80784457D01*
X110921697Y-80804400D01*
X110969761Y-80811917D01*
X111017312Y-80792921D01*
X111020450Y-80790489D01*
X111030231Y-80779252D01*
X111037447Y-80761230D01*
X111042701Y-80731974D01*
X111046598Y-80687038D01*
X111049744Y-80621972D01*
X111052743Y-80532330D01*
X111060000Y-80292303D01*
X111121686Y-80319956D01*
X111183371Y-80347609D01*
X111183371Y-80566754D01*
X111183116Y-80626289D01*
X111180914Y-80709108D01*
X111175339Y-80770773D01*
X111165059Y-80816252D01*
X111148742Y-80850516D01*
X111125057Y-80878534D01*
X111092672Y-80905277D01*
X111046093Y-80932220D01*
X110972713Y-80949809D01*
X110898980Y-80942178D01*
X110831190Y-80910320D01*
X110775634Y-80855230D01*
X110764119Y-80837984D01*
X110754568Y-80818438D01*
X110747794Y-80793802D01*
X110743181Y-80759289D01*
X110740112Y-80710111D01*
X110737971Y-80641481D01*
X110736141Y-80548611D01*
X110731596Y-80290993D01*
X110769775Y-80305509D01*
G37*
X110769775Y-80305509D02*
X110804732Y-80318844D01*
X110830903Y-80331677D01*
X110847987Y-80348220D01*
X110857914Y-80373535D01*
X110862614Y-80412684D01*
X110864018Y-80470732D01*
X110864057Y-80552739D01*
X110864256Y-80618105D01*
X110865441Y-80680827D01*
X110868271Y-80723666D01*
X110873391Y-80751780D01*
X110881447Y-80770325D01*
X110893086Y-80784457D01*
X110921697Y-80804400D01*
X110969761Y-80811917D01*
X111017312Y-80792921D01*
X111020450Y-80790489D01*
X111030231Y-80779252D01*
X111037447Y-80761230D01*
X111042701Y-80731974D01*
X111046598Y-80687038D01*
X111049744Y-80621972D01*
X111052743Y-80532330D01*
X111060000Y-80292303D01*
X111121686Y-80319956D01*
X111183371Y-80347609D01*
X111183371Y-80566754D01*
X111183116Y-80626289D01*
X111180914Y-80709108D01*
X111175339Y-80770773D01*
X111165059Y-80816252D01*
X111148742Y-80850516D01*
X111125057Y-80878534D01*
X111092672Y-80905277D01*
X111046093Y-80932220D01*
X110972713Y-80949809D01*
X110898980Y-80942178D01*
X110831190Y-80910320D01*
X110775634Y-80855230D01*
X110764119Y-80837984D01*
X110754568Y-80818438D01*
X110747794Y-80793802D01*
X110743181Y-80759289D01*
X110740112Y-80710111D01*
X110737971Y-80641481D01*
X110736141Y-80548611D01*
X110731596Y-80290993D01*
X110769775Y-80305509D01*
G36*
X111929215Y-80305532D02*
G01*
X111947027Y-80310580D01*
X111979491Y-80321420D01*
X112025200Y-80337354D01*
X112025177Y-80542763D01*
X112025143Y-80561049D01*
X112023222Y-80656374D01*
X112017322Y-80728457D01*
X112005999Y-80782187D01*
X111987813Y-80822451D01*
X111961321Y-80854139D01*
X111925082Y-80882139D01*
X111889737Y-80899667D01*
X111833227Y-80913215D01*
X111777644Y-80913985D01*
X111734914Y-80900805D01*
X111731702Y-80898985D01*
X111721795Y-80899180D01*
X111715025Y-80914428D01*
X111710139Y-80949387D01*
X111705886Y-81008711D01*
X111698629Y-81130453D01*
X111651457Y-81110556D01*
X111604286Y-81090658D01*
X111604286Y-80693491D01*
X111604481Y-80590502D01*
X111605002Y-80497859D01*
X111605801Y-80419300D01*
X111606828Y-80358561D01*
X111608037Y-80319377D01*
X111609377Y-80305486D01*
X111609901Y-80305532D01*
X111627713Y-80310580D01*
X111660177Y-80321420D01*
X111705886Y-80337354D01*
X111705886Y-80541827D01*
X111706176Y-80622168D01*
X111707526Y-80680438D01*
X111710631Y-80720091D01*
X111716188Y-80746382D01*
X111724893Y-80764564D01*
X111737444Y-80779893D01*
X111746001Y-80788045D01*
X111792272Y-80810625D01*
X111843272Y-80808625D01*
X111890007Y-80781927D01*
X111896811Y-80775302D01*
X111907707Y-80761544D01*
X111915164Y-80743358D01*
X111919831Y-80715823D01*
X111922358Y-80674019D01*
X111923398Y-80613027D01*
X111923600Y-80527927D01*
X111923697Y-80484766D01*
X111924326Y-80413776D01*
X111925444Y-80356924D01*
X111926937Y-80319172D01*
X111928691Y-80305486D01*
X111929215Y-80305532D01*
G37*
X111929215Y-80305532D02*
X111947027Y-80310580D01*
X111979491Y-80321420D01*
X112025200Y-80337354D01*
X112025177Y-80542763D01*
X112025143Y-80561049D01*
X112023222Y-80656374D01*
X112017322Y-80728457D01*
X112005999Y-80782187D01*
X111987813Y-80822451D01*
X111961321Y-80854139D01*
X111925082Y-80882139D01*
X111889737Y-80899667D01*
X111833227Y-80913215D01*
X111777644Y-80913985D01*
X111734914Y-80900805D01*
X111731702Y-80898985D01*
X111721795Y-80899180D01*
X111715025Y-80914428D01*
X111710139Y-80949387D01*
X111705886Y-81008711D01*
X111698629Y-81130453D01*
X111651457Y-81110556D01*
X111604286Y-81090658D01*
X111604286Y-80693491D01*
X111604481Y-80590502D01*
X111605002Y-80497859D01*
X111605801Y-80419300D01*
X111606828Y-80358561D01*
X111608037Y-80319377D01*
X111609377Y-80305486D01*
X111609901Y-80305532D01*
X111627713Y-80310580D01*
X111660177Y-80321420D01*
X111705886Y-80337354D01*
X111705886Y-80541827D01*
X111706176Y-80622168D01*
X111707526Y-80680438D01*
X111710631Y-80720091D01*
X111716188Y-80746382D01*
X111724893Y-80764564D01*
X111737444Y-80779893D01*
X111746001Y-80788045D01*
X111792272Y-80810625D01*
X111843272Y-80808625D01*
X111890007Y-80781927D01*
X111896811Y-80775302D01*
X111907707Y-80761544D01*
X111915164Y-80743358D01*
X111919831Y-80715823D01*
X111922358Y-80674019D01*
X111923398Y-80613027D01*
X111923600Y-80527927D01*
X111923697Y-80484766D01*
X111924326Y-80413776D01*
X111925444Y-80356924D01*
X111926937Y-80319172D01*
X111928691Y-80305486D01*
X111929215Y-80305532D01*
G36*
X112440470Y-80305577D02*
G01*
X112459763Y-80312890D01*
X112491716Y-80328322D01*
X112535876Y-80351158D01*
X112530629Y-80556922D01*
X112530264Y-80570568D01*
X112526096Y-80666349D01*
X112518732Y-80738538D01*
X112506670Y-80791942D01*
X112488407Y-80831367D01*
X112462440Y-80861620D01*
X112427267Y-80887507D01*
X112426616Y-80887913D01*
X112369744Y-80909032D01*
X112303967Y-80912600D01*
X112240517Y-80899431D01*
X112190624Y-80870339D01*
X112168675Y-80847673D01*
X112126496Y-80779918D01*
X112112286Y-80706050D01*
X112112286Y-80655230D01*
X112159001Y-80674872D01*
X112191308Y-80694692D01*
X112216769Y-80735840D01*
X112219384Y-80744325D01*
X112247522Y-80787549D01*
X112289933Y-80810897D01*
X112338630Y-80811900D01*
X112385627Y-80788086D01*
X112392643Y-80781944D01*
X112416107Y-80755255D01*
X112419981Y-80731986D01*
X112402232Y-80709138D01*
X112360821Y-80683713D01*
X112293714Y-80652712D01*
X112289176Y-80650748D01*
X112214678Y-80616010D01*
X112163797Y-80585237D01*
X112132475Y-80554512D01*
X112116657Y-80519918D01*
X112112286Y-80477538D01*
X112118014Y-80430554D01*
X112146938Y-80370415D01*
X112197822Y-80327212D01*
X112234626Y-80314241D01*
X112286566Y-80307144D01*
X112337001Y-80308660D01*
X112373017Y-80319368D01*
X112376842Y-80322034D01*
X112387002Y-80340663D01*
X112379952Y-80373495D01*
X112367703Y-80399265D01*
X112348061Y-80409994D01*
X112310809Y-80409461D01*
X112259092Y-80412538D01*
X112225299Y-80433788D01*
X112213886Y-80473123D01*
X112213896Y-80474253D01*
X112220813Y-80497087D01*
X112244341Y-80518037D01*
X112290086Y-80542185D01*
X112352296Y-80571259D01*
X112393501Y-80587075D01*
X112417288Y-80586056D01*
X112428403Y-80565163D01*
X112431592Y-80521359D01*
X112431600Y-80451607D01*
X112431956Y-80408548D01*
X112433587Y-80355374D01*
X112436239Y-80318978D01*
X112439578Y-80305486D01*
X112440470Y-80305577D01*
G37*
X112440470Y-80305577D02*
X112459763Y-80312890D01*
X112491716Y-80328322D01*
X112535876Y-80351158D01*
X112530629Y-80556922D01*
X112530264Y-80570568D01*
X112526096Y-80666349D01*
X112518732Y-80738538D01*
X112506670Y-80791942D01*
X112488407Y-80831367D01*
X112462440Y-80861620D01*
X112427267Y-80887507D01*
X112426616Y-80887913D01*
X112369744Y-80909032D01*
X112303967Y-80912600D01*
X112240517Y-80899431D01*
X112190624Y-80870339D01*
X112168675Y-80847673D01*
X112126496Y-80779918D01*
X112112286Y-80706050D01*
X112112286Y-80655230D01*
X112159001Y-80674872D01*
X112191308Y-80694692D01*
X112216769Y-80735840D01*
X112219384Y-80744325D01*
X112247522Y-80787549D01*
X112289933Y-80810897D01*
X112338630Y-80811900D01*
X112385627Y-80788086D01*
X112392643Y-80781944D01*
X112416107Y-80755255D01*
X112419981Y-80731986D01*
X112402232Y-80709138D01*
X112360821Y-80683713D01*
X112293714Y-80652712D01*
X112289176Y-80650748D01*
X112214678Y-80616010D01*
X112163797Y-80585237D01*
X112132475Y-80554512D01*
X112116657Y-80519918D01*
X112112286Y-80477538D01*
X112118014Y-80430554D01*
X112146938Y-80370415D01*
X112197822Y-80327212D01*
X112234626Y-80314241D01*
X112286566Y-80307144D01*
X112337001Y-80308660D01*
X112373017Y-80319368D01*
X112376842Y-80322034D01*
X112387002Y-80340663D01*
X112379952Y-80373495D01*
X112367703Y-80399265D01*
X112348061Y-80409994D01*
X112310809Y-80409461D01*
X112259092Y-80412538D01*
X112225299Y-80433788D01*
X112213886Y-80473123D01*
X112213896Y-80474253D01*
X112220813Y-80497087D01*
X112244341Y-80518037D01*
X112290086Y-80542185D01*
X112352296Y-80571259D01*
X112393501Y-80587075D01*
X112417288Y-80586056D01*
X112428403Y-80565163D01*
X112431592Y-80521359D01*
X112431600Y-80451607D01*
X112431956Y-80408548D01*
X112433587Y-80355374D01*
X112436239Y-80318978D01*
X112439578Y-80305486D01*
X112440470Y-80305577D01*
G36*
X110172316Y-80555922D02*
G01*
X110174922Y-80532613D01*
X110194340Y-80449648D01*
X110229427Y-80386552D01*
X110282788Y-80338192D01*
X110285804Y-80336196D01*
X110353638Y-80307815D01*
X110424465Y-80305289D01*
X110492711Y-80326903D01*
X110552804Y-80370938D01*
X110599171Y-80435678D01*
X110599950Y-80437239D01*
X110615357Y-80477442D01*
X110626643Y-80523134D01*
X110632630Y-80566028D01*
X110632139Y-80597840D01*
X110623993Y-80610286D01*
X110616756Y-80609529D01*
X110582149Y-80595765D01*
X110542922Y-80570454D01*
X110509552Y-80541155D01*
X110492517Y-80515428D01*
X110474808Y-80480529D01*
X110438515Y-80448788D01*
X110396370Y-80436114D01*
X110380923Y-80439779D01*
X110350431Y-80458226D01*
X110323872Y-80483834D01*
X110312514Y-80507066D01*
X110312518Y-80507152D01*
X110325404Y-80517821D01*
X110359759Y-80537067D01*
X110410407Y-80562187D01*
X110472171Y-80590476D01*
X110472511Y-80590626D01*
X110539612Y-80620502D01*
X110584589Y-80642027D01*
X110611855Y-80658563D01*
X110625822Y-80673469D01*
X110630903Y-80690107D01*
X110631510Y-80711838D01*
X110626167Y-80763914D01*
X110599749Y-80834665D01*
X110555527Y-80890265D01*
X110498303Y-80928761D01*
X110432880Y-80948203D01*
X110364063Y-80946641D01*
X110296653Y-80922122D01*
X110235456Y-80872698D01*
X110201550Y-80823788D01*
X110177194Y-80753973D01*
X110173233Y-80717252D01*
X110312514Y-80717252D01*
X110320034Y-80757085D01*
X110346103Y-80793283D01*
X110383846Y-80812050D01*
X110425923Y-80810155D01*
X110464995Y-80784368D01*
X110480353Y-80766549D01*
X110484000Y-80752987D01*
X110469209Y-80740051D01*
X110432356Y-80720667D01*
X110431275Y-80720119D01*
X110387795Y-80699413D01*
X110348898Y-80682895D01*
X110324222Y-80675907D01*
X110314324Y-80685247D01*
X110312514Y-80717252D01*
X110173233Y-80717252D01*
X110167701Y-80665945D01*
X110172316Y-80555922D01*
G37*
X110172316Y-80555922D02*
X110174922Y-80532613D01*
X110194340Y-80449648D01*
X110229427Y-80386552D01*
X110282788Y-80338192D01*
X110285804Y-80336196D01*
X110353638Y-80307815D01*
X110424465Y-80305289D01*
X110492711Y-80326903D01*
X110552804Y-80370938D01*
X110599171Y-80435678D01*
X110599950Y-80437239D01*
X110615357Y-80477442D01*
X110626643Y-80523134D01*
X110632630Y-80566028D01*
X110632139Y-80597840D01*
X110623993Y-80610286D01*
X110616756Y-80609529D01*
X110582149Y-80595765D01*
X110542922Y-80570454D01*
X110509552Y-80541155D01*
X110492517Y-80515428D01*
X110474808Y-80480529D01*
X110438515Y-80448788D01*
X110396370Y-80436114D01*
X110380923Y-80439779D01*
X110350431Y-80458226D01*
X110323872Y-80483834D01*
X110312514Y-80507066D01*
X110312518Y-80507152D01*
X110325404Y-80517821D01*
X110359759Y-80537067D01*
X110410407Y-80562187D01*
X110472171Y-80590476D01*
X110472511Y-80590626D01*
X110539612Y-80620502D01*
X110584589Y-80642027D01*
X110611855Y-80658563D01*
X110625822Y-80673469D01*
X110630903Y-80690107D01*
X110631510Y-80711838D01*
X110626167Y-80763914D01*
X110599749Y-80834665D01*
X110555527Y-80890265D01*
X110498303Y-80928761D01*
X110432880Y-80948203D01*
X110364063Y-80946641D01*
X110296653Y-80922122D01*
X110235456Y-80872698D01*
X110201550Y-80823788D01*
X110177194Y-80753973D01*
X110173233Y-80717252D01*
X110312514Y-80717252D01*
X110320034Y-80757085D01*
X110346103Y-80793283D01*
X110383846Y-80812050D01*
X110425923Y-80810155D01*
X110464995Y-80784368D01*
X110480353Y-80766549D01*
X110484000Y-80752987D01*
X110469209Y-80740051D01*
X110432356Y-80720667D01*
X110431275Y-80720119D01*
X110387795Y-80699413D01*
X110348898Y-80682895D01*
X110324222Y-80675907D01*
X110314324Y-80685247D01*
X110312514Y-80717252D01*
X110173233Y-80717252D01*
X110167701Y-80665945D01*
X110172316Y-80555922D01*
G36*
X114716828Y-80310019D02*
G01*
X114745946Y-80322330D01*
X114746819Y-80322728D01*
X114761940Y-80330644D01*
X114772109Y-80341505D01*
X114778309Y-80360529D01*
X114781522Y-80392931D01*
X114782730Y-80443929D01*
X114782914Y-80518739D01*
X114783286Y-80566196D01*
X114787250Y-80655385D01*
X114796327Y-80720713D01*
X114811476Y-80765607D01*
X114833655Y-80793493D01*
X114863825Y-80807797D01*
X114868010Y-80808794D01*
X114924520Y-80809573D01*
X114968590Y-80784256D01*
X114999028Y-80733498D01*
X115004456Y-80718825D01*
X115016829Y-80686351D01*
X115023095Y-80671428D01*
X115035964Y-80673484D01*
X115064067Y-80684643D01*
X115090279Y-80703073D01*
X115102229Y-80737902D01*
X115098664Y-80762849D01*
X115076765Y-80813453D01*
X115041356Y-80860872D01*
X114999948Y-80893666D01*
X114982600Y-80901248D01*
X114916911Y-80913924D01*
X114847171Y-80908903D01*
X114787247Y-80886645D01*
X114762327Y-80869920D01*
X114737090Y-80845957D01*
X114719088Y-80815474D01*
X114707142Y-80773977D01*
X114700070Y-80716968D01*
X114696692Y-80639953D01*
X114695829Y-80538435D01*
X114695998Y-80485973D01*
X114696847Y-80414285D01*
X114698289Y-80357075D01*
X114700186Y-80319191D01*
X114702403Y-80305486D01*
X114716828Y-80310019D01*
G37*
X114716828Y-80310019D02*
X114745946Y-80322330D01*
X114746819Y-80322728D01*
X114761940Y-80330644D01*
X114772109Y-80341505D01*
X114778309Y-80360529D01*
X114781522Y-80392931D01*
X114782730Y-80443929D01*
X114782914Y-80518739D01*
X114783286Y-80566196D01*
X114787250Y-80655385D01*
X114796327Y-80720713D01*
X114811476Y-80765607D01*
X114833655Y-80793493D01*
X114863825Y-80807797D01*
X114868010Y-80808794D01*
X114924520Y-80809573D01*
X114968590Y-80784256D01*
X114999028Y-80733498D01*
X115004456Y-80718825D01*
X115016829Y-80686351D01*
X115023095Y-80671428D01*
X115035964Y-80673484D01*
X115064067Y-80684643D01*
X115090279Y-80703073D01*
X115102229Y-80737902D01*
X115098664Y-80762849D01*
X115076765Y-80813453D01*
X115041356Y-80860872D01*
X114999948Y-80893666D01*
X114982600Y-80901248D01*
X114916911Y-80913924D01*
X114847171Y-80908903D01*
X114787247Y-80886645D01*
X114762327Y-80869920D01*
X114737090Y-80845957D01*
X114719088Y-80815474D01*
X114707142Y-80773977D01*
X114700070Y-80716968D01*
X114696692Y-80639953D01*
X114695829Y-80538435D01*
X114695998Y-80485973D01*
X114696847Y-80414285D01*
X114698289Y-80357075D01*
X114700186Y-80319191D01*
X114702403Y-80305486D01*
X114716828Y-80310019D01*
%TO.C,designedby*%
G36*
X98392435Y-82572973D02*
G01*
X98425384Y-82588642D01*
X98433899Y-82625957D01*
X98433532Y-82636930D01*
X98420438Y-82668328D01*
X98380386Y-82680660D01*
X98337265Y-82675545D01*
X98310637Y-82645299D01*
X98315197Y-82595528D01*
X98332234Y-82576800D01*
X98380386Y-82571255D01*
X98392435Y-82572973D01*
G37*
G36*
X101033096Y-82580706D02*
G01*
X101060130Y-82611441D01*
X101060252Y-82649816D01*
X101030191Y-82682148D01*
X101010488Y-82689573D01*
X100967260Y-82684598D01*
X100939352Y-82654619D01*
X100938232Y-82608784D01*
X100939030Y-82606345D01*
X100960917Y-82575610D01*
X101003723Y-82571426D01*
X101033096Y-82580706D01*
G37*
G36*
X101255473Y-83348343D02*
G01*
X101274986Y-83385344D01*
X101274614Y-83437814D01*
X101249900Y-83480182D01*
X101208776Y-83498164D01*
X101164635Y-83488991D01*
X101130176Y-83457478D01*
X101114100Y-83411952D01*
X101125105Y-83360738D01*
X101127165Y-83357230D01*
X101163503Y-83330800D01*
X101212415Y-83327254D01*
X101255473Y-83348343D01*
G37*
G36*
X103100275Y-83348343D02*
G01*
X103119788Y-83385344D01*
X103119415Y-83437814D01*
X103094701Y-83480182D01*
X103053577Y-83498164D01*
X103009436Y-83488991D01*
X102974978Y-83457478D01*
X102958901Y-83411952D01*
X102969906Y-83360738D01*
X102971966Y-83357230D01*
X103008304Y-83330800D01*
X103057216Y-83327254D01*
X103100275Y-83348343D01*
G37*
G36*
X93696544Y-80743814D02*
G01*
X93886565Y-80744495D01*
X94070092Y-80745666D01*
X94243082Y-80747322D01*
X94401493Y-80749459D01*
X94541282Y-80752072D01*
X94658406Y-80755158D01*
X94748823Y-80758713D01*
X94808490Y-80762731D01*
X94833364Y-80767209D01*
X94854688Y-80787280D01*
X94893837Y-80849986D01*
X94909357Y-80917306D01*
X94909290Y-80920107D01*
X94890845Y-80970202D01*
X94848072Y-81019645D01*
X94793144Y-81057403D01*
X94738232Y-81072440D01*
X94688360Y-81081866D01*
X94634788Y-81109586D01*
X94607063Y-81139022D01*
X94593136Y-81179529D01*
X94590328Y-81243883D01*
X94590997Y-81263086D01*
X94597426Y-81315724D01*
X94612156Y-81371665D01*
X94637169Y-81434298D01*
X94674444Y-81507015D01*
X94725962Y-81593204D01*
X94793702Y-81696255D01*
X94879645Y-81819559D01*
X94985771Y-81966505D01*
X95114059Y-82140483D01*
X95181482Y-82234255D01*
X95325465Y-82461422D01*
X95433733Y-82677128D01*
X95506229Y-82880966D01*
X95542897Y-83072529D01*
X95543682Y-83251413D01*
X95508528Y-83417210D01*
X95437377Y-83569514D01*
X95330175Y-83707920D01*
X95296974Y-83743835D01*
X95270451Y-83779888D01*
X95264350Y-83807677D01*
X95274023Y-83837971D01*
X95296319Y-83874523D01*
X95349004Y-83917996D01*
X95428654Y-83947967D01*
X95540772Y-83967099D01*
X95570272Y-83970802D01*
X95692043Y-83997729D01*
X95802623Y-84045105D01*
X95891202Y-84099777D01*
X95983062Y-84171603D01*
X96064954Y-84250316D01*
X96130890Y-84329467D01*
X96174880Y-84402606D01*
X96190936Y-84463285D01*
X96188927Y-84481932D01*
X96162188Y-84539104D01*
X96113506Y-84588356D01*
X96054613Y-84616502D01*
X96030156Y-84624142D01*
X95998470Y-84643408D01*
X95964703Y-84677443D01*
X95924876Y-84731158D01*
X95875013Y-84809468D01*
X95811137Y-84917285D01*
X95696976Y-85086869D01*
X95564142Y-85229365D01*
X95416808Y-85336760D01*
X95254044Y-85409876D01*
X95248653Y-85412039D01*
X95236055Y-85423705D01*
X95227761Y-85448301D01*
X95222907Y-85492301D01*
X95220628Y-85562181D01*
X95220061Y-85664415D01*
X95219367Y-85742125D01*
X95215726Y-85832853D01*
X95209109Y-85888711D01*
X95199677Y-85907762D01*
X95189091Y-85906938D01*
X95131749Y-85884097D01*
X95063560Y-85834575D01*
X94990537Y-85764625D01*
X94918694Y-85680505D01*
X94854047Y-85588468D01*
X94802608Y-85494769D01*
X94784885Y-85457667D01*
X94747079Y-85390335D01*
X94710425Y-85346644D01*
X94667686Y-85317060D01*
X94628009Y-85291063D01*
X94567673Y-85241708D01*
X94509501Y-85185362D01*
X94498864Y-85173749D01*
X94403989Y-85042308D01*
X94332653Y-84884890D01*
X94284067Y-84699302D01*
X94257444Y-84483350D01*
X94253462Y-84436624D01*
X94233899Y-84315790D01*
X94199516Y-84206463D01*
X94147264Y-84104981D01*
X94074092Y-84007679D01*
X93976949Y-83910893D01*
X93852785Y-83810959D01*
X93698550Y-83704213D01*
X93511192Y-83586991D01*
X93374384Y-83500540D01*
X93153930Y-83339698D01*
X92963841Y-83168298D01*
X92798680Y-82980549D01*
X92653008Y-82770660D01*
X92521389Y-82532840D01*
X92498152Y-82485195D01*
X92414317Y-82288153D01*
X92359555Y-82108466D01*
X92332293Y-81941215D01*
X92321734Y-81859641D01*
X92304161Y-81802723D01*
X92276180Y-81761590D01*
X92269311Y-81754557D01*
X92209339Y-81718979D01*
X92145489Y-81720652D01*
X92084303Y-81759644D01*
X92079694Y-81764413D01*
X92045358Y-81816239D01*
X92024837Y-81886750D01*
X92016993Y-81982190D01*
X92020686Y-82108805D01*
X92031601Y-82207358D01*
X92053828Y-82308012D01*
X92089659Y-82414725D01*
X92141529Y-82533741D01*
X92211871Y-82671308D01*
X92303118Y-82833672D01*
X92326815Y-82874818D01*
X92417165Y-83038944D01*
X92487812Y-83182915D01*
X92541991Y-83315389D01*
X92582936Y-83445024D01*
X92613881Y-83580481D01*
X92638059Y-83730416D01*
X92642539Y-83765252D01*
X92653626Y-83927925D01*
X92642932Y-84065709D01*
X92608532Y-84185903D01*
X92548504Y-84295805D01*
X92460925Y-84402714D01*
X92419609Y-84443871D01*
X92297349Y-84537054D01*
X92168550Y-84593232D01*
X92030616Y-84613678D01*
X91957761Y-84612128D01*
X91895047Y-84600011D01*
X91840422Y-84573579D01*
X91820683Y-84560283D01*
X91746980Y-84484675D01*
X91702192Y-84391154D01*
X91687715Y-84287767D01*
X91704949Y-84182560D01*
X91755290Y-84083580D01*
X91770321Y-84062759D01*
X91816608Y-83998401D01*
X91856296Y-83942919D01*
X91900689Y-83867089D01*
X91948751Y-83731005D01*
X91977144Y-83563702D01*
X91986161Y-83363878D01*
X91985854Y-83307384D01*
X91983549Y-83215028D01*
X91977236Y-83141376D01*
X91964800Y-83072947D01*
X91944129Y-82996256D01*
X91913109Y-82897823D01*
X91895059Y-82842143D01*
X91841856Y-82677418D01*
X91799173Y-82543072D01*
X91765859Y-82434055D01*
X91740761Y-82345318D01*
X91722727Y-82271812D01*
X91710605Y-82208486D01*
X91703242Y-82150292D01*
X91699486Y-82092180D01*
X91698185Y-82029100D01*
X91698186Y-81956003D01*
X91698187Y-81955915D01*
X91700581Y-81826713D01*
X91707633Y-81723895D01*
X91720629Y-81635159D01*
X91740857Y-81548205D01*
X91752116Y-81508342D01*
X91817218Y-81327396D01*
X91899142Y-81163413D01*
X91994602Y-81020767D01*
X92100313Y-80903834D01*
X92212988Y-80816986D01*
X92329344Y-80764600D01*
X92361162Y-80760400D01*
X92427710Y-80756488D01*
X92524147Y-80753102D01*
X92646432Y-80750240D01*
X92790522Y-80747896D01*
X92952373Y-80746067D01*
X93127943Y-80744749D01*
X93313190Y-80743937D01*
X93504071Y-80743627D01*
X93696544Y-80743814D01*
G37*
G36*
X104382070Y-83329202D02*
G01*
X104424439Y-83353916D01*
X104432259Y-83366257D01*
X104438714Y-83413843D01*
X104421780Y-83461074D01*
X104386498Y-83489883D01*
X104351495Y-83494012D01*
X104305859Y-83476458D01*
X104276168Y-83439300D01*
X104269416Y-83393080D01*
X104292599Y-83348343D01*
X104329600Y-83328830D01*
X104382070Y-83329202D01*
G37*
G36*
X97456940Y-82572314D02*
G01*
X97493727Y-82588909D01*
X97507933Y-82630812D01*
X97509430Y-82659247D01*
X97496807Y-82679872D01*
X97456609Y-82684214D01*
X97413316Y-82675884D01*
X97384560Y-82644755D01*
X97388365Y-82595778D01*
X97404842Y-82577569D01*
X97450867Y-82571505D01*
X97456940Y-82572314D01*
G37*
G36*
X104194993Y-83333200D02*
G01*
X104230851Y-83364611D01*
X104239209Y-83384253D01*
X104240615Y-83436814D01*
X104214660Y-83476092D01*
X104169846Y-83493583D01*
X104114678Y-83480784D01*
X104112469Y-83479543D01*
X104082287Y-83442528D01*
X104076861Y-83392782D01*
X104098409Y-83348343D01*
X104100304Y-83346519D01*
X104145465Y-83326431D01*
X104194993Y-83333200D01*
G37*
G36*
X101955254Y-80488900D02*
G01*
X101974366Y-80523942D01*
X101975035Y-80538142D01*
X101959272Y-80572752D01*
X101925448Y-80582541D01*
X101886312Y-80561999D01*
X101870838Y-80538259D01*
X101868312Y-80499725D01*
X101885385Y-80478819D01*
X101920466Y-80472688D01*
X101955254Y-80488900D01*
G37*
G36*
X99764097Y-85441707D02*
G01*
X99589327Y-85441707D01*
X99589327Y-84626110D01*
X99764097Y-84626110D01*
X99764097Y-85441707D01*
G37*
G36*
X97682514Y-81431651D02*
G01*
X97714626Y-81468822D01*
X97721742Y-81522862D01*
X97716387Y-81544221D01*
X97694984Y-81562986D01*
X97647431Y-81567624D01*
X97614782Y-81566091D01*
X97584540Y-81553748D01*
X97573119Y-81522862D01*
X97573912Y-81490884D01*
X97590061Y-81450041D01*
X97606339Y-81435987D01*
X97647431Y-81421982D01*
X97682514Y-81431651D01*
G37*
G36*
X97678178Y-82569485D02*
G01*
X97700876Y-82584694D01*
X97705688Y-82625957D01*
X97703903Y-82656705D01*
X97688694Y-82679402D01*
X97647431Y-82684214D01*
X97616683Y-82682429D01*
X97593986Y-82667221D01*
X97589174Y-82625957D01*
X97590959Y-82595210D01*
X97606167Y-82572512D01*
X97647431Y-82567700D01*
X97678178Y-82569485D01*
G37*
G36*
X101181681Y-85192248D02*
G01*
X101238445Y-85249011D01*
X101270945Y-85277684D01*
X101318644Y-85300056D01*
X101384087Y-85305774D01*
X101391709Y-85305716D01*
X101463759Y-85295887D01*
X101511804Y-85266936D01*
X101514560Y-85264121D01*
X101528661Y-85245809D01*
X101538544Y-85220968D01*
X101544944Y-85183139D01*
X101548602Y-85125860D01*
X101550255Y-85042668D01*
X101550642Y-84927104D01*
X101550642Y-84626110D01*
X101728686Y-84626110D01*
X101722194Y-84951378D01*
X101719383Y-85069011D01*
X101715632Y-85162002D01*
X101710344Y-85228956D01*
X101702766Y-85276458D01*
X101692142Y-85311093D01*
X101677718Y-85339443D01*
X101656152Y-85369578D01*
X101585523Y-85426727D01*
X101498363Y-85455670D01*
X101402467Y-85455921D01*
X101305635Y-85426990D01*
X101215665Y-85368389D01*
X101197215Y-85353570D01*
X101184188Y-85355118D01*
X101181681Y-85390149D01*
X101181281Y-85406095D01*
X101173639Y-85429996D01*
X101148133Y-85439808D01*
X101094296Y-85441707D01*
X101006911Y-85441707D01*
X101006911Y-84626110D01*
X101181681Y-84626110D01*
X101181681Y-85192248D01*
G37*
G36*
X100094774Y-82757591D02*
G01*
X100135715Y-82780276D01*
X100152477Y-82818452D01*
X100141767Y-82856632D01*
X100105437Y-82886907D01*
X100056314Y-82888409D01*
X100053698Y-82887490D01*
X100025427Y-82860666D01*
X100015007Y-82819352D01*
X100023139Y-82779485D01*
X100050527Y-82757000D01*
X100094774Y-82757591D01*
G37*
G36*
X99498370Y-81035011D02*
G01*
X99526908Y-81053560D01*
X99556357Y-81081728D01*
X99569908Y-81104233D01*
X99558575Y-81138234D01*
X99528702Y-81173372D01*
X99495432Y-81188954D01*
X99461480Y-81183026D01*
X99426396Y-81153758D01*
X99419371Y-81110266D01*
X99445072Y-81064118D01*
X99466549Y-81045939D01*
X99492232Y-81033603D01*
X99498370Y-81035011D01*
G37*
G36*
X99503019Y-81228478D02*
G01*
X99544572Y-81248881D01*
X99564331Y-81288096D01*
X99559233Y-81333196D01*
X99526215Y-81371254D01*
X99499026Y-81381275D01*
X99458181Y-81372369D01*
X99428341Y-81341572D01*
X99417774Y-81299305D01*
X99434749Y-81255988D01*
X99451188Y-81241798D01*
X99492232Y-81227792D01*
X99503019Y-81228478D01*
G37*
G36*
X99538361Y-81821507D02*
G01*
X99570391Y-81860180D01*
X99574657Y-81872931D01*
X99576512Y-81930963D01*
X99547307Y-81970514D01*
X99491132Y-81985132D01*
X99465707Y-81982098D01*
X99420507Y-81954700D01*
X99400914Y-81907613D01*
X99413241Y-81851655D01*
X99443022Y-81820515D01*
X99490953Y-81808017D01*
X99538361Y-81821507D01*
G37*
G36*
X102348138Y-81239180D02*
G01*
X102376712Y-81273133D01*
X102382293Y-81328673D01*
X102371930Y-81354832D01*
X102337305Y-81378749D01*
X102293537Y-81378784D01*
X102255667Y-81352148D01*
X102237347Y-81323571D01*
X102234349Y-81292408D01*
X102260821Y-81258308D01*
X102306241Y-81232415D01*
X102348138Y-81239180D01*
G37*
G36*
X100867094Y-83348343D02*
G01*
X100868918Y-83350237D01*
X100889006Y-83395398D01*
X100882237Y-83444927D01*
X100850826Y-83480784D01*
X100831184Y-83489142D01*
X100778622Y-83490548D01*
X100739344Y-83464593D01*
X100721853Y-83419780D01*
X100734653Y-83364611D01*
X100735894Y-83362402D01*
X100772909Y-83332220D01*
X100822655Y-83326795D01*
X100867094Y-83348343D01*
G37*
G36*
X104188531Y-82197139D02*
G01*
X104207546Y-82232810D01*
X104206106Y-82260994D01*
X104181767Y-82288868D01*
X104172206Y-82291407D01*
X104133930Y-82282076D01*
X104107523Y-82250767D01*
X104105993Y-82210871D01*
X104120568Y-82190901D01*
X104154434Y-82182067D01*
X104188531Y-82197139D01*
G37*
G36*
X102711896Y-83348343D02*
G01*
X102713719Y-83350237D01*
X102733807Y-83395398D01*
X102727038Y-83444927D01*
X102695627Y-83480784D01*
X102675985Y-83489142D01*
X102623424Y-83490548D01*
X102584146Y-83464593D01*
X102566655Y-83419780D01*
X102579454Y-83364611D01*
X102580695Y-83362402D01*
X102617710Y-83332220D01*
X102667456Y-83326795D01*
X102711896Y-83348343D01*
G37*
G36*
X97702388Y-83342009D02*
G01*
X97717456Y-83362443D01*
X97721666Y-83406742D01*
X97708839Y-83454270D01*
X97681414Y-83488043D01*
X97658129Y-83497220D01*
X97617268Y-83489293D01*
X97585522Y-83456520D01*
X97569877Y-83407982D01*
X97577319Y-83352756D01*
X97579898Y-83347785D01*
X97610778Y-83329296D01*
X97657361Y-83326876D01*
X97702388Y-83342009D01*
G37*
G36*
X101959759Y-82948049D02*
G01*
X101988333Y-82982002D01*
X101993914Y-83037541D01*
X101989868Y-83052025D01*
X101960000Y-83082483D01*
X101915082Y-83090410D01*
X101869986Y-83071706D01*
X101854494Y-83055591D01*
X101844328Y-83013201D01*
X101872442Y-82967176D01*
X101917862Y-82941283D01*
X101959759Y-82948049D01*
G37*
G36*
X97685305Y-82197575D02*
G01*
X97695978Y-82237578D01*
X97686907Y-82275578D01*
X97652199Y-82292342D01*
X97615661Y-82286518D01*
X97592397Y-82255164D01*
X97596719Y-82207088D01*
X97611236Y-82189867D01*
X97652199Y-82182814D01*
X97685305Y-82197575D01*
G37*
G36*
X97116054Y-82015397D02*
G01*
X97143021Y-82054369D01*
X97146965Y-82066105D01*
X97149104Y-82123913D01*
X97121277Y-82164196D01*
X97068062Y-82179321D01*
X97028484Y-82174427D01*
X96983429Y-82145234D01*
X96967767Y-82091936D01*
X96971614Y-82065712D01*
X96991070Y-82027853D01*
X97020561Y-82012350D01*
X97069226Y-82004551D01*
X97116054Y-82015397D01*
G37*
G36*
X103784377Y-82757591D02*
G01*
X103825318Y-82780276D01*
X103842079Y-82818452D01*
X103831369Y-82856632D01*
X103795040Y-82886907D01*
X103745916Y-82888409D01*
X103743301Y-82887490D01*
X103715029Y-82860666D01*
X103704609Y-82819352D01*
X103712742Y-82779485D01*
X103740129Y-82757000D01*
X103784377Y-82757591D01*
G37*
G36*
X98431667Y-84632773D02*
G01*
X98523874Y-84667885D01*
X98577324Y-84700278D01*
X98606312Y-84729359D01*
X98606718Y-84759157D01*
X98582311Y-84798069D01*
X98547164Y-84843804D01*
X98467031Y-84802924D01*
X98396409Y-84775642D01*
X98295964Y-84763629D01*
X98201997Y-84780964D01*
X98122604Y-84825765D01*
X98065881Y-84896153D01*
X98064275Y-84899288D01*
X98044117Y-84944592D01*
X98035810Y-84974687D01*
X98035889Y-84975314D01*
X98057582Y-84983874D01*
X98117147Y-84990058D01*
X98213738Y-84993808D01*
X98346513Y-84995070D01*
X98657217Y-84995070D01*
X98656790Y-85077601D01*
X98643982Y-85168040D01*
X98602997Y-85267084D01*
X98540141Y-85353340D01*
X98461921Y-85418147D01*
X98374844Y-85452847D01*
X98354988Y-85456178D01*
X98226368Y-85457875D01*
X98111118Y-85425863D01*
X98013668Y-85363829D01*
X97938447Y-85275462D01*
X97889887Y-85164451D01*
X97885391Y-85131003D01*
X98034813Y-85131003D01*
X98064768Y-85188931D01*
X98066098Y-85191456D01*
X98119631Y-85254547D01*
X98193141Y-85293643D01*
X98275842Y-85306950D01*
X98356951Y-85292671D01*
X98425683Y-85249011D01*
X98437324Y-85236718D01*
X98469517Y-85193955D01*
X98482446Y-85161625D01*
X98478006Y-85148949D01*
X98459631Y-85139821D01*
X98421089Y-85134355D01*
X98356161Y-85131699D01*
X98258629Y-85131003D01*
X98034813Y-85131003D01*
X97885391Y-85131003D01*
X97872416Y-85034485D01*
X97874117Y-84988489D01*
X97900566Y-84863537D01*
X97957265Y-84759666D01*
X98041942Y-84680173D01*
X98152324Y-84628354D01*
X98213557Y-84616276D01*
X98322113Y-84614919D01*
X98431667Y-84632773D01*
G37*
G36*
X100440021Y-83329202D02*
G01*
X100482390Y-83353916D01*
X100490210Y-83366257D01*
X100496665Y-83413843D01*
X100479731Y-83461074D01*
X100444449Y-83489883D01*
X100409446Y-83494012D01*
X100363810Y-83476458D01*
X100334119Y-83439300D01*
X100327367Y-83393080D01*
X100350550Y-83348343D01*
X100387551Y-83328830D01*
X100440021Y-83329202D01*
G37*
G36*
X101770837Y-83334552D02*
G01*
X101800816Y-83368008D01*
X101810536Y-83415656D01*
X101795935Y-83465006D01*
X101751968Y-83492482D01*
X101727947Y-83495219D01*
X101681693Y-83479258D01*
X101652485Y-83441790D01*
X101646781Y-83394317D01*
X101671039Y-83348343D01*
X101678919Y-83341471D01*
X101724750Y-83324879D01*
X101770837Y-83334552D01*
G37*
G36*
X100625615Y-82572973D02*
G01*
X100658564Y-82588642D01*
X100667079Y-82625957D01*
X100666713Y-82636930D01*
X100653619Y-82668328D01*
X100613566Y-82680660D01*
X100570446Y-82675545D01*
X100543817Y-82645299D01*
X100548377Y-82595528D01*
X100565415Y-82576800D01*
X100613566Y-82571255D01*
X100625615Y-82572973D01*
G37*
G36*
X100132171Y-82964720D02*
G01*
X100141633Y-82978885D01*
X100150986Y-83025576D01*
X100135076Y-83067121D01*
X100098006Y-83088648D01*
X100042601Y-83083122D01*
X100008576Y-83054602D01*
X100001722Y-83012730D01*
X100027640Y-82967176D01*
X100047089Y-82950849D01*
X100091823Y-82938636D01*
X100132171Y-82964720D01*
G37*
G36*
X98586625Y-80864104D02*
G01*
X98619573Y-80879773D01*
X98628088Y-80917089D01*
X98627722Y-80928062D01*
X98614628Y-80959460D01*
X98574576Y-80971791D01*
X98531455Y-80966677D01*
X98504827Y-80936430D01*
X98509386Y-80886660D01*
X98526424Y-80867932D01*
X98574576Y-80862386D01*
X98586625Y-80864104D01*
G37*
G36*
X103994341Y-82197139D02*
G01*
X104013357Y-82232810D01*
X104011917Y-82260994D01*
X103987577Y-82288868D01*
X103978016Y-82291407D01*
X103939741Y-82282076D01*
X103913334Y-82250767D01*
X103911803Y-82210871D01*
X103926379Y-82190901D01*
X103960245Y-82182067D01*
X103994341Y-82197139D01*
G37*
G36*
X99547189Y-83342009D02*
G01*
X99562257Y-83362443D01*
X99566468Y-83406742D01*
X99553641Y-83454270D01*
X99526215Y-83488043D01*
X99502930Y-83497220D01*
X99462070Y-83489293D01*
X99430324Y-83456520D01*
X99414679Y-83407982D01*
X99422120Y-83352756D01*
X99424699Y-83347785D01*
X99455579Y-83329296D01*
X99502163Y-83326876D01*
X99547189Y-83342009D01*
G37*
G36*
X97879495Y-82391764D02*
G01*
X97890168Y-82431768D01*
X97881096Y-82469768D01*
X97846388Y-82486532D01*
X97809850Y-82480708D01*
X97786586Y-82449353D01*
X97790908Y-82401277D01*
X97805426Y-82384057D01*
X97846388Y-82377004D01*
X97879495Y-82391764D01*
G37*
G36*
X104582343Y-82380601D02*
G01*
X104609400Y-82412661D01*
X104606441Y-82460896D01*
X104590290Y-82478700D01*
X104550871Y-82490025D01*
X104519399Y-82482934D01*
X104492342Y-82450875D01*
X104495301Y-82402639D01*
X104511452Y-82384836D01*
X104550871Y-82373511D01*
X104582343Y-82380601D01*
G37*
G36*
X103474395Y-82956763D02*
G01*
X103504485Y-82984369D01*
X103511646Y-83023305D01*
X103493837Y-83059703D01*
X103456582Y-83083367D01*
X103405405Y-83084101D01*
X103394296Y-83080294D01*
X103362314Y-83049075D01*
X103356526Y-83004135D01*
X103379908Y-82959963D01*
X103396247Y-82946047D01*
X103428550Y-82938493D01*
X103474395Y-82956763D01*
G37*
G36*
X100847675Y-82765774D02*
G01*
X100854471Y-82773584D01*
X100870715Y-82817674D01*
X100862228Y-82861403D01*
X100831208Y-82888409D01*
X100798120Y-82891519D01*
X100759817Y-82873011D01*
X100738321Y-82837699D01*
X100739452Y-82797278D01*
X100769029Y-82763445D01*
X100795634Y-82749223D01*
X100822063Y-82745986D01*
X100847675Y-82765774D01*
G37*
G36*
X101575848Y-81626696D02*
G01*
X101595286Y-81646488D01*
X101599189Y-81691731D01*
X101597146Y-81718536D01*
X101577291Y-81767900D01*
X101541746Y-81790028D01*
X101497240Y-81779150D01*
X101472799Y-81753297D01*
X101455188Y-81699585D01*
X101461587Y-81642647D01*
X101482042Y-81623644D01*
X101535944Y-81619786D01*
X101575848Y-81626696D01*
G37*
G36*
X103469364Y-83140520D02*
G01*
X103501476Y-83177691D01*
X103508593Y-83231731D01*
X103503237Y-83253090D01*
X103481835Y-83271854D01*
X103434281Y-83276492D01*
X103401632Y-83274960D01*
X103371390Y-83262616D01*
X103359969Y-83231731D01*
X103360762Y-83199753D01*
X103376911Y-83158910D01*
X103393189Y-83144856D01*
X103434281Y-83130850D01*
X103469364Y-83140520D01*
G37*
G36*
X101034088Y-81624054D02*
G01*
X101069955Y-81655235D01*
X101084587Y-81705063D01*
X101073001Y-81749702D01*
X101034836Y-81781394D01*
X100979329Y-81783356D01*
X100936105Y-81757951D01*
X100916390Y-81711278D01*
X100928842Y-81655743D01*
X100946818Y-81632885D01*
X100989028Y-81615332D01*
X101034088Y-81624054D01*
G37*
G36*
X101959641Y-82574706D02*
G01*
X101987774Y-82606507D01*
X101984881Y-82655086D01*
X101967144Y-82673500D01*
X101926624Y-82684214D01*
X101893607Y-82677209D01*
X101865475Y-82645408D01*
X101868367Y-82596829D01*
X101886105Y-82578414D01*
X101926624Y-82567700D01*
X101959641Y-82574706D01*
G37*
G36*
X97092402Y-82754258D02*
G01*
X97114593Y-82777792D01*
X97123134Y-82820983D01*
X97115341Y-82864968D01*
X97091351Y-82891813D01*
X97061363Y-82896462D01*
X97021794Y-82880229D01*
X96996779Y-82845687D01*
X96993195Y-82804424D01*
X97017914Y-82768028D01*
X97045580Y-82748487D01*
X97064253Y-82744449D01*
X97092402Y-82754258D01*
G37*
G36*
X97284110Y-82184585D02*
G01*
X97310381Y-82208697D01*
X97309281Y-82244280D01*
X97284229Y-82280100D01*
X97246355Y-82295835D01*
X97222572Y-82286438D01*
X97204265Y-82252467D01*
X97207817Y-82208450D01*
X97212995Y-82199267D01*
X97245041Y-82181426D01*
X97284110Y-82184585D01*
G37*
G36*
X99926036Y-81625683D02*
G01*
X99956015Y-81659140D01*
X99965735Y-81706788D01*
X99951134Y-81756137D01*
X99907167Y-81783613D01*
X99883146Y-81786350D01*
X99836892Y-81770389D01*
X99807684Y-81732921D01*
X99801980Y-81685449D01*
X99826238Y-81639474D01*
X99834117Y-81632602D01*
X99879948Y-81616011D01*
X99926036Y-81625683D01*
G37*
G36*
X104588112Y-83141093D02*
G01*
X104622109Y-83178823D01*
X104634061Y-83222483D01*
X104619315Y-83256498D01*
X104616938Y-83259258D01*
X104574491Y-83285094D01*
X104529545Y-83282488D01*
X104492420Y-83258007D01*
X104473433Y-83218218D01*
X104482905Y-83169688D01*
X104499420Y-83148652D01*
X104542370Y-83130718D01*
X104588112Y-83141093D01*
G37*
G36*
X97105059Y-81435151D02*
G01*
X97133352Y-81473248D01*
X97134330Y-81529715D01*
X97126391Y-81553645D01*
X97104448Y-81573018D01*
X97059341Y-81573659D01*
X97030586Y-81569356D01*
X97001489Y-81551793D01*
X96990486Y-81511474D01*
X96992698Y-81469231D01*
X97009905Y-81438950D01*
X97059086Y-81422450D01*
X97105059Y-81435151D01*
G37*
G36*
X101939575Y-82757591D02*
G01*
X101980517Y-82780276D01*
X101997278Y-82818452D01*
X101986568Y-82856632D01*
X101950238Y-82886907D01*
X101901115Y-82888409D01*
X101898499Y-82887490D01*
X101870228Y-82860666D01*
X101859808Y-82819352D01*
X101867941Y-82779485D01*
X101895328Y-82757000D01*
X101939575Y-82757591D01*
G37*
G36*
X101566306Y-81431651D02*
G01*
X101598418Y-81468822D01*
X101605534Y-81522862D01*
X101600179Y-81544221D01*
X101578776Y-81562986D01*
X101531223Y-81567624D01*
X101498574Y-81566091D01*
X101468332Y-81553748D01*
X101456911Y-81522862D01*
X101457704Y-81490884D01*
X101473853Y-81450041D01*
X101490131Y-81435987D01*
X101531223Y-81421982D01*
X101566306Y-81431651D01*
G37*
G36*
X96900898Y-84927770D02*
G01*
X96938124Y-84811403D01*
X97005560Y-84718930D01*
X97103960Y-84649115D01*
X97170281Y-84623584D01*
X97272100Y-84610029D01*
X97370707Y-84622905D01*
X97453056Y-84661741D01*
X97480630Y-84681627D01*
X97513506Y-84700253D01*
X97527799Y-84694592D01*
X97530917Y-84664948D01*
X97530950Y-84662158D01*
X97537870Y-84639203D01*
X97563693Y-84628651D01*
X97618302Y-84626110D01*
X97705688Y-84626110D01*
X97705688Y-85771829D01*
X97530917Y-85771829D01*
X97530917Y-85369313D01*
X97440241Y-85415219D01*
X97358858Y-85445787D01*
X97245836Y-85456892D01*
X97137518Y-85434837D01*
X97040732Y-85382420D01*
X96962312Y-85302438D01*
X96909088Y-85197690D01*
X96899227Y-85149991D01*
X96892954Y-85074454D01*
X96893224Y-85029971D01*
X97051515Y-85029971D01*
X97064157Y-85123587D01*
X97100479Y-85204240D01*
X97155735Y-85266753D01*
X97225185Y-85305954D01*
X97304085Y-85316666D01*
X97387692Y-85293715D01*
X97399056Y-85287622D01*
X97456315Y-85244155D01*
X97498634Y-85193339D01*
X97525197Y-85126713D01*
X97535525Y-85032278D01*
X97521703Y-84937328D01*
X97485732Y-84853480D01*
X97429612Y-84792350D01*
X97417685Y-84785542D01*
X97362264Y-84768681D01*
X97295058Y-84762043D01*
X97260198Y-84764124D01*
X97171855Y-84792695D01*
X97105134Y-84852452D01*
X97063891Y-84940418D01*
X97051515Y-85029971D01*
X96893224Y-85029971D01*
X96893442Y-84994134D01*
X96900898Y-84927770D01*
G37*
G36*
X101228641Y-82754258D02*
G01*
X101250831Y-82777792D01*
X101259372Y-82820983D01*
X101251579Y-82864968D01*
X101227589Y-82891813D01*
X101197602Y-82896462D01*
X101158032Y-82880229D01*
X101133018Y-82845687D01*
X101129433Y-82804424D01*
X101154153Y-82768028D01*
X101181818Y-82748487D01*
X101200491Y-82744449D01*
X101228641Y-82754258D01*
G37*
G36*
X99527315Y-81431651D02*
G01*
X99559428Y-81468822D01*
X99566544Y-81522862D01*
X99561188Y-81544221D01*
X99539786Y-81562986D01*
X99492232Y-81567624D01*
X99459583Y-81566091D01*
X99429341Y-81553748D01*
X99417920Y-81522862D01*
X99418713Y-81490884D01*
X99434862Y-81450041D01*
X99451140Y-81435987D01*
X99492232Y-81421982D01*
X99527315Y-81431651D01*
G37*
G36*
X100643992Y-81622857D02*
G01*
X100681420Y-81652853D01*
X100697024Y-81696081D01*
X100687642Y-81740466D01*
X100650116Y-81773937D01*
X100600216Y-81782879D01*
X100555180Y-81765719D01*
X100526077Y-81729915D01*
X100520174Y-81684742D01*
X100544740Y-81639474D01*
X100564259Y-81626688D01*
X100608822Y-81616171D01*
X100643992Y-81622857D01*
G37*
G36*
X104021085Y-83349099D02*
G01*
X104046661Y-83389978D01*
X104045760Y-83442242D01*
X104039653Y-83455210D01*
X104002990Y-83485174D01*
X103953682Y-83495179D01*
X103909793Y-83480182D01*
X103887240Y-83445275D01*
X103883184Y-83392988D01*
X103904220Y-83348343D01*
X103932676Y-83329478D01*
X103979576Y-83326601D01*
X104021085Y-83349099D01*
G37*
G36*
X97884578Y-82952275D02*
G01*
X97910301Y-82990177D01*
X97911385Y-83043213D01*
X97894223Y-83077963D01*
X97854844Y-83092012D01*
X97807813Y-83081094D01*
X97773132Y-83048204D01*
X97764389Y-83004140D01*
X97787247Y-82959963D01*
X97800049Y-82949256D01*
X97844424Y-82936353D01*
X97884578Y-82952275D01*
G37*
G36*
X100845223Y-82952771D02*
G01*
X100875915Y-82997885D01*
X100878042Y-83004870D01*
X100872366Y-83048774D01*
X100840193Y-83080697D01*
X100792214Y-83089002D01*
X100777661Y-83085170D01*
X100745105Y-83055602D01*
X100736242Y-83010643D01*
X100755351Y-82964720D01*
X100762305Y-82957226D01*
X100803873Y-82938262D01*
X100845223Y-82952771D01*
G37*
G36*
X97845215Y-82742825D02*
G01*
X97876007Y-82761123D01*
X97905883Y-82794965D01*
X97919296Y-82827360D01*
X97918888Y-82834814D01*
X97899284Y-82873836D01*
X97860656Y-82893425D01*
X97817433Y-82890070D01*
X97784047Y-82860261D01*
X97767983Y-82826735D01*
X97769317Y-82801958D01*
X97794460Y-82772987D01*
X97815937Y-82754808D01*
X97841620Y-82742471D01*
X97845215Y-82742825D01*
G37*
G36*
X97876703Y-83140520D02*
G01*
X97908816Y-83177691D01*
X97915932Y-83231731D01*
X97910577Y-83253090D01*
X97889174Y-83271854D01*
X97841620Y-83276492D01*
X97808971Y-83274960D01*
X97778729Y-83262616D01*
X97767308Y-83231731D01*
X97768101Y-83199753D01*
X97784250Y-83158910D01*
X97800528Y-83144856D01*
X97841620Y-83130850D01*
X97876703Y-83140520D01*
G37*
G36*
X104567664Y-82572973D02*
G01*
X104600613Y-82588642D01*
X104609128Y-82625957D01*
X104608762Y-82636930D01*
X104595668Y-82668328D01*
X104555615Y-82680660D01*
X104512495Y-82675545D01*
X104485866Y-82645299D01*
X104490426Y-82595528D01*
X104507464Y-82576800D01*
X104555615Y-82571255D01*
X104567664Y-82572973D01*
G37*
G36*
X100137293Y-81640231D02*
G01*
X100162869Y-81681109D01*
X100161968Y-81733373D01*
X100155861Y-81746341D01*
X100119198Y-81776306D01*
X100069889Y-81786310D01*
X100026001Y-81771314D01*
X100003448Y-81736406D01*
X99999392Y-81684120D01*
X100020428Y-81639474D01*
X100048883Y-81620609D01*
X100095784Y-81617732D01*
X100137293Y-81640231D01*
G37*
G36*
X100440021Y-81620334D02*
G01*
X100482390Y-81645048D01*
X100490210Y-81657389D01*
X100496665Y-81704975D01*
X100479731Y-81752205D01*
X100444449Y-81781014D01*
X100409446Y-81785144D01*
X100363810Y-81767590D01*
X100334119Y-81730431D01*
X100327367Y-81684211D01*
X100350550Y-81639474D01*
X100387551Y-81619961D01*
X100440021Y-81620334D01*
G37*
G36*
X102358920Y-81438317D02*
G01*
X102389831Y-81480239D01*
X102390255Y-81526929D01*
X102360444Y-81563152D01*
X102307668Y-81577333D01*
X102295433Y-81577022D01*
X102256763Y-81565005D01*
X102238216Y-81528534D01*
X102235428Y-81492829D01*
X102249934Y-81450858D01*
X102266103Y-81436031D01*
X102312870Y-81422571D01*
X102358920Y-81438317D01*
G37*
G36*
X102690024Y-82952771D02*
G01*
X102720717Y-82997885D01*
X102722843Y-83004870D01*
X102717167Y-83048774D01*
X102684994Y-83080697D01*
X102637015Y-83089002D01*
X102622462Y-83085170D01*
X102589906Y-83055602D01*
X102581043Y-83010643D01*
X102600153Y-82964720D01*
X102607106Y-82957226D01*
X102648675Y-82938262D01*
X102690024Y-82952771D01*
G37*
G36*
X103798504Y-83136730D02*
G01*
X103830184Y-83168729D01*
X103838779Y-83220343D01*
X103831658Y-83254472D01*
X103810875Y-83272609D01*
X103764403Y-83276492D01*
X103731754Y-83274960D01*
X103701512Y-83262616D01*
X103690091Y-83231731D01*
X103690884Y-83199753D01*
X103707033Y-83158910D01*
X103712184Y-83153167D01*
X103755312Y-83129744D01*
X103798504Y-83136730D01*
G37*
G36*
X101255473Y-81639474D02*
G01*
X101274986Y-81676475D01*
X101274614Y-81728945D01*
X101249900Y-81771314D01*
X101208776Y-81789295D01*
X101164635Y-81780122D01*
X101130176Y-81748609D01*
X101114100Y-81703083D01*
X101125105Y-81651870D01*
X101127165Y-81648362D01*
X101163503Y-81621932D01*
X101212415Y-81618385D01*
X101255473Y-81639474D01*
G37*
G36*
X99731047Y-81626696D02*
G01*
X99750485Y-81646488D01*
X99754388Y-81691731D01*
X99752344Y-81718536D01*
X99732490Y-81767900D01*
X99696945Y-81790028D01*
X99652438Y-81779150D01*
X99627998Y-81753297D01*
X99610387Y-81699585D01*
X99616786Y-81642647D01*
X99637241Y-81623644D01*
X99691143Y-81619786D01*
X99731047Y-81626696D01*
G37*
G36*
X102715570Y-83159727D02*
G01*
X102727878Y-83187126D01*
X102727287Y-83237402D01*
X102724319Y-83247773D01*
X102702599Y-83278189D01*
X102657836Y-83286202D01*
X102639836Y-83284885D01*
X102591671Y-83262956D01*
X102569542Y-83221370D01*
X102579847Y-83169688D01*
X102584814Y-83161867D01*
X102624248Y-83135565D01*
X102673662Y-83134424D01*
X102715570Y-83159727D01*
G37*
G36*
X97653568Y-81035011D02*
G01*
X97682107Y-81053560D01*
X97711555Y-81081728D01*
X97725107Y-81104233D01*
X97713774Y-81138234D01*
X97683901Y-81173372D01*
X97650631Y-81188954D01*
X97616679Y-81183026D01*
X97581595Y-81153758D01*
X97574569Y-81110266D01*
X97600270Y-81064118D01*
X97621747Y-81045939D01*
X97647431Y-81033603D01*
X97653568Y-81035011D01*
G37*
G36*
X97480180Y-83329210D02*
G01*
X97516104Y-83356705D01*
X97530917Y-83402416D01*
X97518571Y-83456952D01*
X97481715Y-83490454D01*
X97426685Y-83492482D01*
X97391092Y-83474200D01*
X97368892Y-83429774D01*
X97377838Y-83368008D01*
X97396089Y-83340345D01*
X97435918Y-83322799D01*
X97480180Y-83329210D01*
G37*
G36*
X97099567Y-80877628D02*
G01*
X97119442Y-80910920D01*
X97118128Y-80936995D01*
X97094991Y-80970845D01*
X97056926Y-80982313D01*
X97017663Y-80964211D01*
X96996004Y-80941419D01*
X96988940Y-80920758D01*
X96999376Y-80888498D01*
X97023158Y-80864720D01*
X97062162Y-80861237D01*
X97099567Y-80877628D01*
G37*
G36*
X98626701Y-81452497D02*
G01*
X98652021Y-81491460D01*
X98649887Y-81533991D01*
X98616961Y-81565203D01*
X98557547Y-81577333D01*
X98547459Y-81576827D01*
X98504327Y-81557216D01*
X98487527Y-81515754D01*
X98501472Y-81461553D01*
X98532476Y-81430374D01*
X98579156Y-81425112D01*
X98626701Y-81452497D01*
G37*
G36*
X100438996Y-82941369D02*
G01*
X100471996Y-82971882D01*
X100479299Y-83026153D01*
X100475049Y-83051213D01*
X100457062Y-83076503D01*
X100414633Y-83082303D01*
X100388479Y-83080963D01*
X100360579Y-83066410D01*
X100349966Y-83026153D01*
X100352178Y-82983910D01*
X100369385Y-82953629D01*
X100381955Y-82946792D01*
X100414633Y-82937255D01*
X100438996Y-82941369D01*
G37*
G36*
X98621649Y-82778719D02*
G01*
X98637798Y-82818452D01*
X98627088Y-82856632D01*
X98590758Y-82886907D01*
X98541635Y-82888409D01*
X98522763Y-82877588D01*
X98503385Y-82840976D01*
X98507297Y-82797710D01*
X98535347Y-82764502D01*
X98538412Y-82762888D01*
X98583414Y-82757508D01*
X98621649Y-82778719D01*
G37*
G36*
X99919555Y-82575094D02*
G01*
X99945890Y-82596829D01*
X99951441Y-82635494D01*
X99929288Y-82670981D01*
X99878533Y-82684214D01*
X99849780Y-82682492D01*
X99827233Y-82667275D01*
X99822354Y-82625957D01*
X99824015Y-82596140D01*
X99838690Y-82572760D01*
X99878533Y-82567700D01*
X99919555Y-82575094D01*
G37*
G36*
X101534818Y-81033957D02*
G01*
X101565609Y-81052255D01*
X101595485Y-81086097D01*
X101608899Y-81118491D01*
X101608491Y-81125945D01*
X101588887Y-81164967D01*
X101550258Y-81184556D01*
X101507035Y-81181202D01*
X101473649Y-81151393D01*
X101457585Y-81117867D01*
X101458919Y-81093089D01*
X101484062Y-81064118D01*
X101505539Y-81045939D01*
X101531223Y-81033603D01*
X101534818Y-81033957D01*
G37*
G36*
X98595220Y-81620334D02*
G01*
X98637588Y-81645048D01*
X98645408Y-81657389D01*
X98651864Y-81704975D01*
X98634930Y-81752205D01*
X98599648Y-81781014D01*
X98564645Y-81785144D01*
X98519009Y-81767590D01*
X98489317Y-81730431D01*
X98482566Y-81684211D01*
X98505749Y-81639474D01*
X98542750Y-81619961D01*
X98595220Y-81620334D01*
G37*
G36*
X99333125Y-83140520D02*
G01*
X99365238Y-83177691D01*
X99372354Y-83231731D01*
X99366999Y-83253090D01*
X99345596Y-83271854D01*
X99298042Y-83276492D01*
X99265393Y-83274960D01*
X99235151Y-83262616D01*
X99223731Y-83231731D01*
X99224523Y-83199753D01*
X99240672Y-83158910D01*
X99256950Y-83144856D01*
X99298042Y-83130850D01*
X99333125Y-83140520D01*
G37*
G36*
X98595220Y-83329202D02*
G01*
X98637588Y-83353916D01*
X98645408Y-83366257D01*
X98651864Y-83413843D01*
X98634930Y-83461074D01*
X98599648Y-83489883D01*
X98564645Y-83494012D01*
X98519009Y-83476458D01*
X98489317Y-83439300D01*
X98482566Y-83393080D01*
X98505749Y-83348343D01*
X98542750Y-83328830D01*
X98595220Y-83329202D01*
G37*
G36*
X102449089Y-84632133D02*
G01*
X102543598Y-84667885D01*
X102598280Y-84701132D01*
X102626318Y-84730134D01*
X102625753Y-84760364D01*
X102600262Y-84800421D01*
X102563341Y-84848508D01*
X102486419Y-84805275D01*
X102438837Y-84783245D01*
X102342684Y-84763139D01*
X102249316Y-84771475D01*
X102166605Y-84805706D01*
X102102425Y-84863286D01*
X102064652Y-84941668D01*
X102051324Y-84995070D01*
X102676941Y-84995070D01*
X102676515Y-85077601D01*
X102663707Y-85168040D01*
X102622722Y-85267084D01*
X102559866Y-85353340D01*
X102481646Y-85418147D01*
X102394568Y-85452847D01*
X102339930Y-85459842D01*
X102217838Y-85451171D01*
X102108567Y-85410970D01*
X102016325Y-85343948D01*
X101945321Y-85254812D01*
X101899765Y-85148268D01*
X101897463Y-85131003D01*
X102051960Y-85131003D01*
X102088793Y-85194071D01*
X102136931Y-85251628D01*
X102210527Y-85294424D01*
X102293181Y-85309286D01*
X102374829Y-85294666D01*
X102445408Y-85249011D01*
X102457049Y-85236718D01*
X102489242Y-85193955D01*
X102502171Y-85161625D01*
X102497572Y-85148796D01*
X102478969Y-85139746D01*
X102440152Y-85134326D01*
X102374918Y-85131693D01*
X102277065Y-85131003D01*
X102051960Y-85131003D01*
X101897463Y-85131003D01*
X101883866Y-85029025D01*
X101901833Y-84901790D01*
X101939962Y-84817874D01*
X102003948Y-84735669D01*
X102082226Y-84669194D01*
X102163998Y-84629656D01*
X102223349Y-84617946D01*
X102336647Y-84614913D01*
X102449089Y-84632133D01*
G37*
G36*
X98780814Y-80864104D02*
G01*
X98813763Y-80879773D01*
X98822278Y-80917089D01*
X98821912Y-80928062D01*
X98808818Y-80959460D01*
X98768765Y-80971791D01*
X98725645Y-80966677D01*
X98699016Y-80936430D01*
X98703576Y-80886660D01*
X98720613Y-80867932D01*
X98768765Y-80862386D01*
X98780814Y-80864104D01*
G37*
G36*
X100870769Y-83159727D02*
G01*
X100883077Y-83187126D01*
X100882486Y-83237402D01*
X100879518Y-83247773D01*
X100857798Y-83278189D01*
X100813034Y-83286202D01*
X100795035Y-83284885D01*
X100746870Y-83262956D01*
X100724740Y-83221370D01*
X100735045Y-83169688D01*
X100740013Y-83161867D01*
X100779447Y-83135565D01*
X100828861Y-83134424D01*
X100870769Y-83159727D01*
G37*
G36*
X97306212Y-81258308D02*
G01*
X97332105Y-81303728D01*
X97325339Y-81345625D01*
X97291386Y-81374199D01*
X97235847Y-81379780D01*
X97221363Y-81375734D01*
X97190905Y-81345866D01*
X97182978Y-81300948D01*
X97201682Y-81255852D01*
X97217797Y-81240361D01*
X97260187Y-81230194D01*
X97306212Y-81258308D01*
G37*
G36*
X99338157Y-82956763D02*
G01*
X99363325Y-82977551D01*
X99375485Y-83016374D01*
X99361396Y-83054903D01*
X99326149Y-83082530D01*
X99274837Y-83088648D01*
X99260354Y-83084603D01*
X99229896Y-83054734D01*
X99221969Y-83009816D01*
X99240672Y-82964720D01*
X99257781Y-82947585D01*
X99290785Y-82938415D01*
X99338157Y-82956763D01*
G37*
G36*
X98432900Y-83723420D02*
G01*
X98458295Y-83755680D01*
X98469347Y-83797940D01*
X98485418Y-83754496D01*
X98496918Y-83732060D01*
X98523598Y-83717097D01*
X98574498Y-83717090D01*
X98595783Y-83719020D01*
X98631555Y-83727626D01*
X98645278Y-83750853D01*
X98647507Y-83800804D01*
X98647341Y-83824075D01*
X98641934Y-83862239D01*
X98620801Y-83878375D01*
X98573198Y-83884596D01*
X98529573Y-83885886D01*
X98501064Y-83875621D01*
X98487507Y-83847190D01*
X98476126Y-83803668D01*
X98460055Y-83847112D01*
X98449525Y-83868238D01*
X98423252Y-83884266D01*
X98373077Y-83884518D01*
X98362893Y-83883395D01*
X98306242Y-83861889D01*
X98281401Y-83818880D01*
X98290157Y-83757112D01*
X98300563Y-83739644D01*
X98339338Y-83715528D01*
X98388349Y-83710078D01*
X98432900Y-83723420D01*
G37*
G36*
X99920536Y-80867163D02*
G01*
X99949293Y-80898291D01*
X99945487Y-80947268D01*
X99929010Y-80965477D01*
X99882985Y-80971541D01*
X99876912Y-80970732D01*
X99840126Y-80954137D01*
X99825919Y-80912234D01*
X99824423Y-80883799D01*
X99837045Y-80863174D01*
X99877244Y-80858832D01*
X99920536Y-80867163D01*
G37*
G36*
X100108902Y-83136730D02*
G01*
X100140582Y-83168729D01*
X100149177Y-83220343D01*
X100142056Y-83254472D01*
X100121272Y-83272609D01*
X100074801Y-83276492D01*
X100042152Y-83274960D01*
X100011910Y-83262616D01*
X100000489Y-83231731D01*
X100001282Y-83199753D01*
X100017431Y-83158910D01*
X100022582Y-83153167D01*
X100065710Y-83129744D01*
X100108902Y-83136730D01*
G37*
G36*
X98594195Y-82941369D02*
G01*
X98627195Y-82971882D01*
X98634498Y-83026153D01*
X98630248Y-83051213D01*
X98612261Y-83076503D01*
X98569831Y-83082303D01*
X98543678Y-83080963D01*
X98515777Y-83066410D01*
X98505165Y-83026153D01*
X98507377Y-82983910D01*
X98524584Y-82953629D01*
X98537153Y-82946792D01*
X98569831Y-82937255D01*
X98594195Y-82941369D01*
G37*
G36*
X103440419Y-82743879D02*
G01*
X103468957Y-82762428D01*
X103498405Y-82790597D01*
X103511957Y-82813101D01*
X103500624Y-82847102D01*
X103470751Y-82882241D01*
X103437481Y-82897823D01*
X103403529Y-82891894D01*
X103368445Y-82862627D01*
X103361420Y-82819134D01*
X103387120Y-82772987D01*
X103408597Y-82754808D01*
X103434281Y-82742471D01*
X103440419Y-82743879D01*
G37*
G36*
X101542010Y-81228478D02*
G01*
X101583563Y-81248881D01*
X101603322Y-81288096D01*
X101598223Y-81333196D01*
X101565206Y-81371254D01*
X101538017Y-81381275D01*
X101497172Y-81372369D01*
X101467332Y-81341572D01*
X101456765Y-81299305D01*
X101473740Y-81255988D01*
X101490179Y-81241798D01*
X101531223Y-81227792D01*
X101542010Y-81228478D01*
G37*
G36*
X101982094Y-83349099D02*
G01*
X102007670Y-83389978D01*
X102006769Y-83442242D01*
X102000662Y-83455210D01*
X101963999Y-83485174D01*
X101914691Y-83495179D01*
X101870802Y-83480182D01*
X101848250Y-83445275D01*
X101844194Y-83392988D01*
X101865229Y-83348343D01*
X101893685Y-83329478D01*
X101940585Y-83326601D01*
X101982094Y-83349099D01*
G37*
G36*
X101762020Y-80864994D02*
G01*
X101787953Y-80892815D01*
X101792449Y-80930784D01*
X101773700Y-80964535D01*
X101723794Y-80975346D01*
X101694597Y-80973609D01*
X101672019Y-80958393D01*
X101667155Y-80917089D01*
X101668805Y-80887360D01*
X101683431Y-80863915D01*
X101723147Y-80858832D01*
X101762020Y-80864994D01*
G37*
G36*
X97094799Y-81817187D02*
G01*
X97126980Y-81834153D01*
X97139086Y-81874647D01*
X97136158Y-81925058D01*
X97107957Y-81969084D01*
X97056658Y-81985132D01*
X97055001Y-81985118D01*
X97004252Y-81968552D01*
X96973259Y-81929246D01*
X96967374Y-81879793D01*
X96991945Y-81832788D01*
X97024778Y-81817712D01*
X97074476Y-81814340D01*
X97094799Y-81817187D01*
G37*
G36*
X99329114Y-82757333D02*
G01*
X99335032Y-82761749D01*
X99359041Y-82800173D01*
X99359552Y-82845041D01*
X99339355Y-82882282D01*
X99301243Y-82897823D01*
X99290259Y-82897121D01*
X99247489Y-82877420D01*
X99224280Y-82840071D01*
X99225083Y-82797827D01*
X99254350Y-82763445D01*
X99276366Y-82751324D01*
X99303150Y-82744753D01*
X99329114Y-82757333D01*
G37*
G36*
X101241298Y-83144020D02*
G01*
X101269590Y-83182117D01*
X101270569Y-83238583D01*
X101262629Y-83262513D01*
X101240686Y-83281887D01*
X101195579Y-83282528D01*
X101166824Y-83278224D01*
X101137727Y-83260661D01*
X101126724Y-83220343D01*
X101128937Y-83178100D01*
X101146143Y-83147819D01*
X101195325Y-83131318D01*
X101241298Y-83144020D01*
G37*
G36*
X100867094Y-81639474D02*
G01*
X100868918Y-81641369D01*
X100889006Y-81686530D01*
X100882237Y-81736058D01*
X100850826Y-81771916D01*
X100831184Y-81780274D01*
X100778622Y-81781680D01*
X100739344Y-81755725D01*
X100721853Y-81710911D01*
X100734653Y-81655743D01*
X100735894Y-81653534D01*
X100772909Y-81623351D01*
X100822655Y-81617926D01*
X100867094Y-81639474D01*
G37*
G36*
X103478064Y-82578977D02*
G01*
X103492538Y-82628222D01*
X103490821Y-82656795D01*
X103475604Y-82679328D01*
X103434281Y-82684214D01*
X103404249Y-82682525D01*
X103381026Y-82667733D01*
X103376024Y-82627576D01*
X103382867Y-82585955D01*
X103400298Y-82562770D01*
X103439403Y-82557753D01*
X103478064Y-82578977D01*
G37*
G36*
X98401030Y-81620334D02*
G01*
X98443399Y-81645048D01*
X98451219Y-81657389D01*
X98457674Y-81704975D01*
X98440740Y-81752205D01*
X98405458Y-81781014D01*
X98370455Y-81785144D01*
X98324819Y-81767590D01*
X98295128Y-81730431D01*
X98288376Y-81684211D01*
X98311559Y-81639474D01*
X98348560Y-81619961D01*
X98401030Y-81620334D01*
G37*
G36*
X102906085Y-83348343D02*
G01*
X102907909Y-83350237D01*
X102927997Y-83395398D01*
X102921228Y-83444927D01*
X102889816Y-83480784D01*
X102870175Y-83489142D01*
X102817613Y-83490548D01*
X102778335Y-83464593D01*
X102760844Y-83419780D01*
X102773644Y-83364611D01*
X102774885Y-83362402D01*
X102811900Y-83332220D01*
X102861646Y-83326795D01*
X102906085Y-83348343D01*
G37*
G36*
X104346972Y-84626110D02*
G01*
X104357384Y-84626149D01*
X104402093Y-84629783D01*
X104420844Y-84644519D01*
X104424648Y-84677667D01*
X104425568Y-84705837D01*
X104434224Y-84717044D01*
X104459209Y-84697947D01*
X104462245Y-84695304D01*
X104506191Y-84665634D01*
X104561158Y-84637441D01*
X104619838Y-84617929D01*
X104730727Y-84611484D01*
X104842155Y-84643394D01*
X104935223Y-84702656D01*
X105009845Y-84792205D01*
X105055032Y-84906455D01*
X105070265Y-85044488D01*
X105064882Y-85118545D01*
X105032378Y-85232450D01*
X104974906Y-85326598D01*
X104897616Y-85397886D01*
X104805656Y-85443209D01*
X104704178Y-85459463D01*
X104598329Y-85443542D01*
X104493259Y-85392343D01*
X104424648Y-85345782D01*
X104424648Y-85771829D01*
X104269296Y-85771829D01*
X104269296Y-85004898D01*
X104429443Y-85004898D01*
X104433862Y-85105149D01*
X104465670Y-85189293D01*
X104518868Y-85253703D01*
X104587453Y-85294751D01*
X104665424Y-85308811D01*
X104746781Y-85292256D01*
X104825521Y-85241458D01*
X104825889Y-85241121D01*
X104870783Y-85193281D01*
X104894200Y-85144793D01*
X104905361Y-85076621D01*
X104903414Y-84970998D01*
X104872170Y-84882964D01*
X104809018Y-84810197D01*
X104804344Y-84806361D01*
X104727895Y-84766369D01*
X104647970Y-84760031D01*
X104571379Y-84783897D01*
X104504935Y-84834520D01*
X104455449Y-84908451D01*
X104429733Y-85002240D01*
X104429443Y-85004898D01*
X104269296Y-85004898D01*
X104269296Y-84626110D01*
X104346972Y-84626110D01*
G37*
G36*
X101762020Y-82573862D02*
G01*
X101787953Y-82601684D01*
X101792449Y-82639653D01*
X101773700Y-82673404D01*
X101723794Y-82684214D01*
X101694597Y-82682477D01*
X101672019Y-82667262D01*
X101667155Y-82625957D01*
X101668805Y-82596229D01*
X101683431Y-82572784D01*
X101723147Y-82567700D01*
X101762020Y-82573862D01*
G37*
G36*
X102692477Y-82765774D02*
G01*
X102699272Y-82773584D01*
X102715516Y-82817674D01*
X102707029Y-82861403D01*
X102676010Y-82888409D01*
X102642921Y-82891519D01*
X102604618Y-82873011D01*
X102583122Y-82837699D01*
X102584253Y-82797278D01*
X102613830Y-82763445D01*
X102640435Y-82749223D01*
X102666864Y-82745986D01*
X102692477Y-82765774D01*
G37*
G36*
X104603546Y-82782121D02*
G01*
X104618837Y-82828462D01*
X104608936Y-82865097D01*
X104572933Y-82890340D01*
X104519007Y-82887245D01*
X104500921Y-82876137D01*
X104484232Y-82839690D01*
X104489267Y-82796833D01*
X104516386Y-82764502D01*
X104520101Y-82762555D01*
X104566313Y-82757454D01*
X104603546Y-82782121D01*
G37*
G36*
X104373475Y-82572973D02*
G01*
X104406423Y-82588642D01*
X104414938Y-82625957D01*
X104414572Y-82636930D01*
X104401478Y-82668328D01*
X104361426Y-82680660D01*
X104318305Y-82675545D01*
X104291677Y-82645299D01*
X104296237Y-82595528D01*
X104313274Y-82576800D01*
X104361426Y-82571255D01*
X104373475Y-82572973D01*
G37*
G36*
X102327955Y-81048723D02*
G01*
X102368896Y-81071407D01*
X102385657Y-81109584D01*
X102374947Y-81147763D01*
X102338618Y-81178038D01*
X102289494Y-81179541D01*
X102286878Y-81178622D01*
X102258607Y-81151797D01*
X102248187Y-81110483D01*
X102256320Y-81070616D01*
X102283707Y-81048131D01*
X102327955Y-81048723D01*
G37*
G36*
X100466450Y-82778719D02*
G01*
X100482599Y-82818452D01*
X100471889Y-82856632D01*
X100435560Y-82886907D01*
X100386436Y-82888409D01*
X100367564Y-82877588D01*
X100348187Y-82840976D01*
X100352098Y-82797710D01*
X100380148Y-82764502D01*
X100383214Y-82762888D01*
X100428216Y-82757508D01*
X100466450Y-82778719D01*
G37*
G36*
X101758744Y-80486695D02*
G01*
X101780437Y-80516208D01*
X101779658Y-80550022D01*
X101754420Y-80578444D01*
X101707948Y-80577877D01*
X101680232Y-80558182D01*
X101666667Y-80519551D01*
X101680921Y-80482580D01*
X101684467Y-80479531D01*
X101720150Y-80472238D01*
X101758744Y-80486695D01*
G37*
G36*
X102150159Y-82564634D02*
G01*
X102179647Y-82598330D01*
X102184972Y-82637379D01*
X102163381Y-82671547D01*
X102116332Y-82680410D01*
X102098494Y-82676424D01*
X102064551Y-82650079D01*
X102058527Y-82611910D01*
X102084439Y-82575172D01*
X102107051Y-82563180D01*
X102150159Y-82564634D01*
G37*
G36*
X100634782Y-82010152D02*
G01*
X100670547Y-82018757D01*
X100684268Y-82041984D01*
X100686498Y-82091936D01*
X100686498Y-82169612D01*
X100608822Y-82169612D01*
X100599902Y-82169581D01*
X100553847Y-82165780D01*
X100532839Y-82150071D01*
X100524843Y-82114569D01*
X100523445Y-82070886D01*
X100529542Y-82030857D01*
X100530180Y-82029318D01*
X100556493Y-82010224D01*
X100613521Y-82008224D01*
X100634782Y-82010152D01*
G37*
G36*
X104379925Y-82194291D02*
G01*
X104400700Y-82226546D01*
X104399967Y-82263580D01*
X104374654Y-82289367D01*
X104362063Y-82291867D01*
X104327107Y-82278339D01*
X104303182Y-82244953D01*
X104302230Y-82205535D01*
X104316877Y-82189851D01*
X104354298Y-82183149D01*
X104379925Y-82194291D01*
G37*
G36*
X104217528Y-82588809D02*
G01*
X104226782Y-82632126D01*
X104225124Y-82641032D01*
X104206820Y-82667378D01*
X104162758Y-82674505D01*
X104135499Y-82670851D01*
X104101595Y-82647264D01*
X104096380Y-82611403D01*
X104124225Y-82574591D01*
X104141081Y-82565353D01*
X104184478Y-82564036D01*
X104217528Y-82588809D01*
G37*
G36*
X97112022Y-81258308D02*
G01*
X97137915Y-81303728D01*
X97131150Y-81345625D01*
X97097196Y-81374199D01*
X97041657Y-81379780D01*
X97027174Y-81375734D01*
X96996715Y-81345866D01*
X96988788Y-81300948D01*
X97007492Y-81255852D01*
X97023608Y-81240361D01*
X97065997Y-81230194D01*
X97112022Y-81258308D01*
G37*
G36*
X102664606Y-82572973D02*
G01*
X102697555Y-82588642D01*
X102706070Y-82625957D01*
X102705704Y-82636930D01*
X102692610Y-82668328D01*
X102652557Y-82680660D01*
X102609437Y-82675545D01*
X102582808Y-82645299D01*
X102587368Y-82595528D01*
X102604405Y-82576800D01*
X102652557Y-82571255D01*
X102664606Y-82572973D01*
G37*
G36*
X99717169Y-82569485D02*
G01*
X99739867Y-82584694D01*
X99744678Y-82625957D01*
X99742894Y-82656705D01*
X99727685Y-82679402D01*
X99686421Y-82684214D01*
X99655674Y-82682429D01*
X99632976Y-82667221D01*
X99628165Y-82625957D01*
X99629949Y-82595210D01*
X99645158Y-82572512D01*
X99686421Y-82567700D01*
X99717169Y-82569485D01*
G37*
G36*
X97886246Y-81626696D02*
G01*
X97905684Y-81646488D01*
X97909587Y-81691731D01*
X97907543Y-81718536D01*
X97887688Y-81767900D01*
X97852144Y-81790028D01*
X97807637Y-81779150D01*
X97783197Y-81753297D01*
X97765586Y-81699585D01*
X97771985Y-81642647D01*
X97792439Y-81623644D01*
X97846342Y-81619786D01*
X97886246Y-81626696D01*
G37*
G36*
X101953703Y-83136730D02*
G01*
X101985383Y-83168729D01*
X101993978Y-83220343D01*
X101986857Y-83254472D01*
X101966073Y-83272609D01*
X101919602Y-83276492D01*
X101886953Y-83274960D01*
X101856711Y-83262616D01*
X101845290Y-83231731D01*
X101846083Y-83199753D01*
X101862232Y-83158910D01*
X101867383Y-83153167D01*
X101910511Y-83129744D01*
X101953703Y-83136730D01*
G37*
G36*
X100646063Y-81432224D02*
G01*
X100680060Y-81469954D01*
X100692012Y-81513614D01*
X100677266Y-81547630D01*
X100674889Y-81550390D01*
X100632442Y-81576226D01*
X100587496Y-81573620D01*
X100550371Y-81549139D01*
X100531384Y-81509350D01*
X100540856Y-81460820D01*
X100557371Y-81439784D01*
X100600322Y-81421849D01*
X100646063Y-81432224D01*
G37*
G36*
X100471502Y-83161366D02*
G01*
X100496822Y-83200328D01*
X100494688Y-83242859D01*
X100461762Y-83274072D01*
X100402348Y-83286202D01*
X100392260Y-83285696D01*
X100349128Y-83266084D01*
X100332328Y-83224622D01*
X100346274Y-83170422D01*
X100377277Y-83139243D01*
X100423958Y-83133981D01*
X100471502Y-83161366D01*
G37*
G36*
X99717169Y-80860617D02*
G01*
X99739867Y-80875825D01*
X99744678Y-80917089D01*
X99742894Y-80947837D01*
X99727685Y-80970534D01*
X99686421Y-80975346D01*
X99655674Y-80973561D01*
X99632976Y-80958352D01*
X99628165Y-80917089D01*
X99629949Y-80886341D01*
X99645158Y-80863644D01*
X99686421Y-80858832D01*
X99717169Y-80860617D01*
G37*
G36*
X102372727Y-80879941D02*
G01*
X102381981Y-80923257D01*
X102380322Y-80932164D01*
X102362018Y-80958510D01*
X102317957Y-80965636D01*
X102290698Y-80961982D01*
X102256793Y-80938396D01*
X102251579Y-80902534D01*
X102279424Y-80865723D01*
X102296280Y-80856484D01*
X102339676Y-80855167D01*
X102372727Y-80879941D01*
G37*
G36*
X99963843Y-84930561D02*
G01*
X99978661Y-84880767D01*
X100006628Y-84824123D01*
X100057273Y-84746259D01*
X100132072Y-84676205D01*
X100228195Y-84629457D01*
X100259150Y-84620153D01*
X100374743Y-84609356D01*
X100484909Y-84636114D01*
X100584548Y-84699428D01*
X100595374Y-84708492D01*
X100610911Y-84714471D01*
X100617294Y-84694903D01*
X100618532Y-84643150D01*
X100605852Y-84555554D01*
X100563768Y-84486809D01*
X100490394Y-84439579D01*
X100405436Y-84416161D01*
X100315620Y-84419170D01*
X100210552Y-84449622D01*
X100112860Y-84486742D01*
X100084121Y-84431167D01*
X100082912Y-84428821D01*
X100063427Y-84388076D01*
X100055382Y-84365602D01*
X100064478Y-84352878D01*
X100103439Y-84330343D01*
X100164887Y-84305920D01*
X100239862Y-84283593D01*
X100332048Y-84269721D01*
X100446906Y-84274835D01*
X100555396Y-84301575D01*
X100647521Y-84347286D01*
X100713287Y-84409314D01*
X100714838Y-84411511D01*
X100739732Y-84452984D01*
X100758907Y-84501107D01*
X100773055Y-84561240D01*
X100782867Y-84638742D01*
X100789033Y-84738972D01*
X100792245Y-84867289D01*
X100793194Y-85029054D01*
X100793302Y-85441707D01*
X100705917Y-85441707D01*
X100701056Y-85441698D01*
X100648660Y-85438702D01*
X100624426Y-85427376D01*
X100618532Y-85403415D01*
X100617227Y-85384952D01*
X100607421Y-85377131D01*
X100580597Y-85386217D01*
X100528254Y-85413124D01*
X100437602Y-85447776D01*
X100322744Y-85457843D01*
X100211204Y-85433475D01*
X100110104Y-85376443D01*
X100026569Y-85288514D01*
X100004223Y-85254494D01*
X99980904Y-85204653D01*
X99968076Y-85145920D01*
X99961412Y-85063344D01*
X99960737Y-85040432D01*
X100121407Y-85040432D01*
X100137412Y-85131477D01*
X100180300Y-85208318D01*
X100244263Y-85266042D01*
X100323491Y-85299734D01*
X100412175Y-85304477D01*
X100504508Y-85275358D01*
X100544784Y-85243307D01*
X100590596Y-85180285D01*
X100624104Y-85105502D01*
X100637098Y-85033908D01*
X100632894Y-84992769D01*
X100604414Y-84911971D01*
X100556197Y-84841098D01*
X100496692Y-84794553D01*
X100457971Y-84779355D01*
X100368611Y-84764184D01*
X100288409Y-84775708D01*
X100270137Y-84784170D01*
X100213151Y-84829401D01*
X100162996Y-84892912D01*
X100131999Y-84960162D01*
X100121407Y-85040432D01*
X99960737Y-85040432D01*
X99959224Y-84989101D01*
X99963843Y-84930561D01*
G37*
G36*
X101228641Y-81045390D02*
G01*
X101250831Y-81068924D01*
X101259372Y-81112114D01*
X101251579Y-81156100D01*
X101227589Y-81182945D01*
X101197602Y-81187593D01*
X101158032Y-81171361D01*
X101133018Y-81136819D01*
X101129433Y-81095556D01*
X101154153Y-81059160D01*
X101181818Y-81039619D01*
X101200491Y-81035580D01*
X101228641Y-81045390D01*
G37*
G36*
X98595791Y-82010152D02*
G01*
X98631556Y-82018757D01*
X98645278Y-82041984D01*
X98647507Y-82091936D01*
X98647507Y-82169612D01*
X98569831Y-82169612D01*
X98560911Y-82169581D01*
X98514856Y-82165780D01*
X98493848Y-82150071D01*
X98485853Y-82114569D01*
X98484454Y-82070886D01*
X98490551Y-82030857D01*
X98491189Y-82029318D01*
X98517503Y-82010224D01*
X98574530Y-82008224D01*
X98595791Y-82010152D01*
G37*
G36*
X100661627Y-81073607D02*
G01*
X100676788Y-81120363D01*
X100670523Y-81150960D01*
X100637019Y-81179541D01*
X100602902Y-81182382D01*
X100565125Y-81163382D01*
X100543863Y-81128198D01*
X100544980Y-81088418D01*
X100574337Y-81055633D01*
X100578444Y-81053495D01*
X100624611Y-81048642D01*
X100661627Y-81073607D01*
G37*
G36*
X98594195Y-81232500D02*
G01*
X98627195Y-81263014D01*
X98634498Y-81317285D01*
X98630248Y-81342344D01*
X98612261Y-81367635D01*
X98569831Y-81373434D01*
X98543678Y-81372095D01*
X98515777Y-81357542D01*
X98505165Y-81317285D01*
X98507377Y-81275042D01*
X98524584Y-81244761D01*
X98537153Y-81237924D01*
X98569831Y-81228387D01*
X98594195Y-81232500D01*
G37*
G36*
X97092402Y-81045390D02*
G01*
X97114593Y-81068924D01*
X97123134Y-81112114D01*
X97115341Y-81156100D01*
X97091351Y-81182945D01*
X97061363Y-81187593D01*
X97021794Y-81171361D01*
X96996779Y-81136819D01*
X96993195Y-81095556D01*
X97017914Y-81059160D01*
X97045580Y-81039619D01*
X97064253Y-81035580D01*
X97092402Y-81045390D01*
G37*
G36*
X98597039Y-83522782D02*
G01*
X98640918Y-83552630D01*
X98657217Y-83606615D01*
X98653664Y-83633822D01*
X98623816Y-83677701D01*
X98569831Y-83694000D01*
X98568741Y-83693994D01*
X98518871Y-83677570D01*
X98488111Y-83638254D01*
X98481918Y-83588942D01*
X98505749Y-83542532D01*
X98525268Y-83529746D01*
X98569831Y-83519229D01*
X98597039Y-83522782D01*
G37*
G36*
X103821773Y-82964720D02*
G01*
X103831236Y-82978885D01*
X103840588Y-83025576D01*
X103824679Y-83067121D01*
X103787608Y-83088648D01*
X103732203Y-83083122D01*
X103698178Y-83054602D01*
X103691324Y-83012730D01*
X103717243Y-82967176D01*
X103736691Y-82950849D01*
X103781425Y-82938636D01*
X103821773Y-82964720D01*
G37*
G36*
X100635046Y-81814208D02*
G01*
X100672905Y-81833664D01*
X100685691Y-81853183D01*
X100696207Y-81897746D01*
X100692655Y-81924954D01*
X100662807Y-81968833D01*
X100608822Y-81985132D01*
X100607732Y-81985125D01*
X100557862Y-81968702D01*
X100527102Y-81929386D01*
X100520909Y-81880074D01*
X100544740Y-81833664D01*
X100564259Y-81820877D01*
X100608822Y-81810361D01*
X100635046Y-81814208D01*
G37*
G36*
X98780814Y-82572973D02*
G01*
X98813763Y-82588642D01*
X98822278Y-82625957D01*
X98821912Y-82636930D01*
X98808818Y-82668328D01*
X98768765Y-82680660D01*
X98725645Y-82675545D01*
X98699016Y-82645299D01*
X98703576Y-82595528D01*
X98720613Y-82576800D01*
X98768765Y-82571255D01*
X98780814Y-82572973D01*
G37*
G36*
X99547189Y-81633140D02*
G01*
X99562257Y-81653575D01*
X99566468Y-81697874D01*
X99553641Y-81745402D01*
X99526215Y-81779175D01*
X99502930Y-81788351D01*
X99462070Y-81780424D01*
X99430324Y-81747652D01*
X99414679Y-81699113D01*
X99422120Y-81643888D01*
X99424699Y-81638916D01*
X99455579Y-81620427D01*
X99502163Y-81618008D01*
X99547189Y-81633140D01*
G37*
G36*
X101248261Y-82967176D02*
G01*
X101274154Y-83012597D01*
X101267388Y-83054494D01*
X101233435Y-83083067D01*
X101177896Y-83088648D01*
X101163412Y-83084603D01*
X101132954Y-83054734D01*
X101125027Y-83009816D01*
X101143731Y-82964720D01*
X101159846Y-82949229D01*
X101202236Y-82939062D01*
X101248261Y-82967176D01*
G37*
G36*
X97105059Y-83144020D02*
G01*
X97133352Y-83182117D01*
X97134330Y-83238583D01*
X97126391Y-83262513D01*
X97104448Y-83281887D01*
X97059341Y-83282528D01*
X97030586Y-83278224D01*
X97001489Y-83260661D01*
X96990486Y-83220343D01*
X96992698Y-83178100D01*
X97009905Y-83147819D01*
X97059086Y-83131318D01*
X97105059Y-83144020D01*
G37*
G36*
X105454670Y-84259248D02*
G01*
X105499610Y-84267474D01*
X105526568Y-84281424D01*
X105540219Y-84305683D01*
X105563249Y-84357359D01*
X105588657Y-84422211D01*
X105596795Y-84443790D01*
X105622966Y-84510790D01*
X105659855Y-84603386D01*
X105704699Y-84714698D01*
X105754729Y-84837844D01*
X105807183Y-84965942D01*
X105839074Y-85043530D01*
X105886209Y-85158285D01*
X105927275Y-85258363D01*
X105960094Y-85338454D01*
X105982490Y-85393247D01*
X105992286Y-85417433D01*
X105991373Y-85428452D01*
X105965040Y-85438595D01*
X105904684Y-85441707D01*
X105807629Y-85441707D01*
X105724764Y-85213534D01*
X105691826Y-85123296D01*
X105657399Y-85029881D01*
X105628044Y-84951129D01*
X105607812Y-84897976D01*
X105573725Y-84810590D01*
X105534474Y-84897976D01*
X105513344Y-84945794D01*
X105480147Y-85022050D01*
X105440762Y-85113277D01*
X105399867Y-85208679D01*
X105304510Y-85431997D01*
X105205618Y-85437825D01*
X105106726Y-85443652D01*
X105297263Y-85017259D01*
X105487801Y-84590866D01*
X105422279Y-84440186D01*
X105411343Y-84414809D01*
X105383467Y-84347765D01*
X105364048Y-84297486D01*
X105356758Y-84273328D01*
X105368940Y-84262736D01*
X105406272Y-84257438D01*
X105454670Y-84259248D01*
G37*
G36*
X97313425Y-83348343D02*
G01*
X97332937Y-83385344D01*
X97332565Y-83437814D01*
X97307851Y-83480182D01*
X97266727Y-83498164D01*
X97222586Y-83488991D01*
X97188127Y-83457478D01*
X97172051Y-83411952D01*
X97183056Y-83360738D01*
X97185116Y-83357230D01*
X97221454Y-83330800D01*
X97270366Y-83327254D01*
X97313425Y-83348343D01*
G37*
G36*
X102350192Y-81624332D02*
G01*
X102386050Y-81655743D01*
X102394408Y-81675384D01*
X102395814Y-81727946D01*
X102369858Y-81767224D01*
X102325045Y-81784715D01*
X102269877Y-81771916D01*
X102267668Y-81770674D01*
X102237485Y-81733659D01*
X102232060Y-81683913D01*
X102253608Y-81639474D01*
X102255503Y-81637650D01*
X102300664Y-81617562D01*
X102350192Y-81624332D01*
G37*
G36*
X98621649Y-81069850D02*
G01*
X98637798Y-81109584D01*
X98627088Y-81147763D01*
X98590758Y-81178038D01*
X98541635Y-81179541D01*
X98522763Y-81168719D01*
X98503385Y-81132107D01*
X98507297Y-81088842D01*
X98535347Y-81055633D01*
X98538412Y-81054020D01*
X98583414Y-81048640D01*
X98621649Y-81069850D01*
G37*
G36*
X100633185Y-81232500D02*
G01*
X100666186Y-81263014D01*
X100673489Y-81317285D01*
X100669238Y-81342344D01*
X100651252Y-81367635D01*
X100608822Y-81373434D01*
X100582669Y-81372095D01*
X100554768Y-81357542D01*
X100544155Y-81317285D01*
X100546368Y-81275042D01*
X100563574Y-81244761D01*
X100576144Y-81237924D01*
X100608822Y-81228387D01*
X100633185Y-81232500D01*
G37*
G36*
X102150159Y-80855765D02*
G01*
X102179647Y-80889462D01*
X102184972Y-80928511D01*
X102163381Y-80962678D01*
X102116332Y-80971541D01*
X102098494Y-80967555D01*
X102064551Y-80941210D01*
X102058527Y-80903041D01*
X102084439Y-80866304D01*
X102107051Y-80854312D01*
X102150159Y-80855765D01*
G37*
G36*
X102347744Y-80671908D02*
G01*
X102374205Y-80696232D01*
X102375332Y-80731710D01*
X102349800Y-80766633D01*
X102304994Y-80781156D01*
X102277170Y-80773482D01*
X102253545Y-80740640D01*
X102256747Y-80693771D01*
X102269138Y-80677972D01*
X102306440Y-80665690D01*
X102347744Y-80671908D01*
G37*
G36*
X101959641Y-80865837D02*
G01*
X101987774Y-80897638D01*
X101984881Y-80946217D01*
X101967144Y-80964632D01*
X101926624Y-80975346D01*
X101893607Y-80968340D01*
X101865475Y-80936539D01*
X101868367Y-80887960D01*
X101886105Y-80869546D01*
X101926624Y-80858832D01*
X101959641Y-80865837D01*
G37*
G36*
X100819805Y-80864104D02*
G01*
X100852754Y-80879773D01*
X100861269Y-80917089D01*
X100860902Y-80928062D01*
X100847808Y-80959460D01*
X100807756Y-80971791D01*
X100764635Y-80966677D01*
X100738007Y-80936430D01*
X100742567Y-80886660D01*
X100759604Y-80867932D01*
X100807756Y-80862386D01*
X100819805Y-80864104D01*
G37*
G36*
X97872368Y-80860617D02*
G01*
X97895065Y-80875825D01*
X97899877Y-80917089D01*
X97898092Y-80947837D01*
X97882884Y-80970534D01*
X97841620Y-80975346D01*
X97810873Y-80973561D01*
X97788175Y-80958352D01*
X97783363Y-80917089D01*
X97785148Y-80886341D01*
X97800357Y-80863644D01*
X97841620Y-80858832D01*
X97872368Y-80860617D01*
G37*
G36*
X102820513Y-84884790D02*
G01*
X102844524Y-84829723D01*
X102903294Y-84744401D01*
X102977264Y-84673915D01*
X103055611Y-84629996D01*
X103115890Y-84615212D01*
X103225720Y-84614229D01*
X103331020Y-84642562D01*
X103419006Y-84697827D01*
X103438592Y-84714178D01*
X103451355Y-84712823D01*
X103453700Y-84677667D01*
X103453759Y-84670756D01*
X103459233Y-84641081D01*
X103481435Y-84628635D01*
X103531376Y-84626110D01*
X103609051Y-84626110D01*
X103609051Y-85771829D01*
X103453700Y-85771829D01*
X103453700Y-85567930D01*
X103453146Y-85502689D01*
X103450964Y-85431005D01*
X103447513Y-85382111D01*
X103443204Y-85364031D01*
X103442102Y-85364176D01*
X103418356Y-85376703D01*
X103379646Y-85403261D01*
X103318723Y-85433065D01*
X103232441Y-85452542D01*
X103141140Y-85456780D01*
X103061524Y-85443658D01*
X103037101Y-85433772D01*
X102961978Y-85385302D01*
X102891393Y-85317141D01*
X102838973Y-85241658D01*
X102822975Y-85204075D01*
X102800969Y-85101657D01*
X102800465Y-85050745D01*
X102970558Y-85050745D01*
X102985766Y-85140681D01*
X103022213Y-85219703D01*
X103079949Y-85278082D01*
X103090599Y-85284424D01*
X103165424Y-85308158D01*
X103249482Y-85309934D01*
X103322783Y-85288867D01*
X103356970Y-85263330D01*
X103405930Y-85198932D01*
X103440563Y-85118243D01*
X103453700Y-85035155D01*
X103448708Y-84976814D01*
X103413076Y-84879898D01*
X103344665Y-84802595D01*
X103318342Y-84786301D01*
X103242911Y-84765239D01*
X103158798Y-84766645D01*
X103082438Y-84791231D01*
X103051870Y-84812728D01*
X103003660Y-84877040D01*
X102976540Y-84959622D01*
X102970558Y-85050745D01*
X102800465Y-85050745D01*
X102799861Y-84989680D01*
X102820513Y-84884790D01*
G37*
G36*
X97264016Y-82572492D02*
G01*
X97298499Y-82587889D01*
X97307599Y-82625957D01*
X97307456Y-82632970D01*
X97295500Y-82667232D01*
X97256677Y-82680410D01*
X97216059Y-82675300D01*
X97189853Y-82645019D01*
X97194175Y-82595778D01*
X97210652Y-82577569D01*
X97256677Y-82571505D01*
X97264016Y-82572492D01*
G37*
G36*
X101033096Y-80871837D02*
G01*
X101060130Y-80902572D01*
X101060252Y-80940948D01*
X101030191Y-80973279D01*
X101010488Y-80980705D01*
X100967260Y-80975729D01*
X100939352Y-80945750D01*
X100938232Y-80899916D01*
X100939030Y-80897476D01*
X100960917Y-80866741D01*
X101003723Y-80862558D01*
X101033096Y-80871837D01*
G37*
G36*
X97872368Y-82569485D02*
G01*
X97895065Y-82584694D01*
X97899877Y-82625957D01*
X97898092Y-82656705D01*
X97882884Y-82679402D01*
X97841620Y-82684214D01*
X97810873Y-82682429D01*
X97788175Y-82667221D01*
X97783363Y-82625957D01*
X97785148Y-82595210D01*
X97800357Y-82572512D01*
X97841620Y-82567700D01*
X97872368Y-82569485D01*
G37*
G36*
X100094774Y-81048723D02*
G01*
X100135715Y-81071407D01*
X100152477Y-81109584D01*
X100141767Y-81147763D01*
X100105437Y-81178038D01*
X100056314Y-81179541D01*
X100053698Y-81178622D01*
X100025427Y-81151797D01*
X100015007Y-81110483D01*
X100023139Y-81070616D01*
X100050527Y-81048131D01*
X100094774Y-81048723D01*
G37*
G36*
X98626701Y-83161366D02*
G01*
X98652021Y-83200328D01*
X98649887Y-83242859D01*
X98616961Y-83274072D01*
X98557547Y-83286202D01*
X98547459Y-83285696D01*
X98504327Y-83266084D01*
X98487527Y-83224622D01*
X98501472Y-83170422D01*
X98532476Y-83139243D01*
X98579156Y-83133981D01*
X98626701Y-83161366D01*
G37*
G36*
X99748004Y-85648615D02*
G01*
X99766169Y-85669782D01*
X99782442Y-85722593D01*
X99769933Y-85774613D01*
X99733177Y-85814293D01*
X99676712Y-85830086D01*
X99652074Y-85827234D01*
X99603173Y-85799772D01*
X99574984Y-85752706D01*
X99572428Y-85697844D01*
X99600423Y-85646993D01*
X99634693Y-85624536D01*
X99692512Y-85619956D01*
X99748004Y-85648615D01*
G37*
G36*
X102149540Y-80488270D02*
G01*
X102168556Y-80523942D01*
X102167115Y-80552125D01*
X102142776Y-80579999D01*
X102133215Y-80582539D01*
X102094940Y-80573208D01*
X102068532Y-80541899D01*
X102067002Y-80502002D01*
X102081577Y-80482033D01*
X102115443Y-80473198D01*
X102149540Y-80488270D01*
G37*
G36*
X99522980Y-82569485D02*
G01*
X99545677Y-82584694D01*
X99550489Y-82625957D01*
X99548704Y-82656705D01*
X99533495Y-82679402D01*
X99492232Y-82684214D01*
X99461484Y-82682429D01*
X99438787Y-82667221D01*
X99433975Y-82625957D01*
X99435760Y-82595210D01*
X99450969Y-82572512D01*
X99492232Y-82567700D01*
X99522980Y-82569485D01*
G37*
G36*
X99528696Y-82009130D02*
G01*
X99573515Y-82038472D01*
X99589327Y-82091936D01*
X99584238Y-82124754D01*
X99551636Y-82165091D01*
X99492232Y-82179321D01*
X99455767Y-82174742D01*
X99410949Y-82145399D01*
X99395137Y-82091936D01*
X99398984Y-82065712D01*
X99418440Y-82027853D01*
X99444876Y-82013028D01*
X99492232Y-82004551D01*
X99528696Y-82009130D01*
G37*
G36*
X104575234Y-82941369D02*
G01*
X104608235Y-82971882D01*
X104615538Y-83026153D01*
X104611287Y-83051213D01*
X104593301Y-83076503D01*
X104550871Y-83082303D01*
X104524718Y-83080963D01*
X104496817Y-83066410D01*
X104486204Y-83026153D01*
X104488417Y-82983910D01*
X104505623Y-82953629D01*
X104518193Y-82946792D01*
X104550871Y-82937255D01*
X104575234Y-82941369D01*
G37*
G36*
X98586625Y-82572973D02*
G01*
X98619573Y-82588642D01*
X98628088Y-82625957D01*
X98627722Y-82636930D01*
X98614628Y-82668328D01*
X98574576Y-82680660D01*
X98531455Y-82675545D01*
X98504827Y-82645299D01*
X98509386Y-82595528D01*
X98526424Y-82576800D01*
X98574576Y-82571255D01*
X98586625Y-82572973D01*
G37*
G36*
X97501896Y-82198914D02*
G01*
X97504010Y-82202780D01*
X97506297Y-82242527D01*
X97485617Y-82279521D01*
X97451323Y-82295835D01*
X97423010Y-82288281D01*
X97398844Y-82255559D01*
X97402007Y-82208450D01*
X97403376Y-82205396D01*
X97431860Y-82183863D01*
X97471861Y-82181018D01*
X97501896Y-82198914D01*
G37*
G36*
X99201592Y-84625159D02*
G01*
X99284135Y-84663385D01*
X99347349Y-84720141D01*
X99386402Y-84791746D01*
X99396466Y-84874523D01*
X99372709Y-84964791D01*
X99349246Y-84994030D01*
X99298540Y-85033769D01*
X99235388Y-85071800D01*
X99172932Y-85100353D01*
X99124314Y-85111657D01*
X99079009Y-85121844D01*
X99025878Y-85153075D01*
X98984556Y-85195240D01*
X98967920Y-85237938D01*
X98970701Y-85258731D01*
X98998387Y-85297511D01*
X99048803Y-85318072D01*
X99113336Y-85319653D01*
X99183372Y-85301494D01*
X99250295Y-85262837D01*
X99303583Y-85220921D01*
X99351722Y-85276885D01*
X99399861Y-85332850D01*
X99344097Y-85377726D01*
X99335666Y-85384313D01*
X99246221Y-85434384D01*
X99150901Y-85458035D01*
X99055901Y-85457584D01*
X98967412Y-85435351D01*
X98891629Y-85393654D01*
X98834744Y-85334810D01*
X98802950Y-85261138D01*
X98802439Y-85174957D01*
X98810262Y-85144310D01*
X98837577Y-85093299D01*
X98885780Y-85049603D01*
X98960677Y-85008652D01*
X99068075Y-84965876D01*
X99111496Y-84949991D01*
X99174351Y-84924522D01*
X99211175Y-84903490D01*
X99229311Y-84882070D01*
X99236103Y-84855433D01*
X99232905Y-84817987D01*
X99203416Y-84776751D01*
X99151678Y-84752968D01*
X99085772Y-84748135D01*
X99013778Y-84763747D01*
X98943778Y-84801302D01*
X98889223Y-84841636D01*
X98829671Y-84799232D01*
X98770119Y-84756827D01*
X98817234Y-84709713D01*
X98823804Y-84703535D01*
X98878100Y-84665361D01*
X98940408Y-84635497D01*
X98997837Y-84619012D01*
X99104549Y-84609142D01*
X99201592Y-84625159D01*
G37*
G36*
X103994960Y-82564634D02*
G01*
X104024448Y-82598330D01*
X104029773Y-82637379D01*
X104008182Y-82671547D01*
X103961133Y-82680410D01*
X103943295Y-82676424D01*
X103909352Y-82650079D01*
X103903328Y-82611910D01*
X103929240Y-82575172D01*
X103951853Y-82563180D01*
X103994960Y-82564634D01*
G37*
G36*
X97493356Y-81247894D02*
G01*
X97518524Y-81268682D01*
X97530684Y-81307505D01*
X97516594Y-81346034D01*
X97481348Y-81373661D01*
X97430036Y-81379780D01*
X97415553Y-81375734D01*
X97385095Y-81345866D01*
X97377167Y-81300948D01*
X97395871Y-81255852D01*
X97412980Y-81238716D01*
X97445984Y-81229546D01*
X97493356Y-81247894D01*
G37*
G36*
X97886246Y-83335564D02*
G01*
X97905684Y-83355357D01*
X97909587Y-83400599D01*
X97907543Y-83427404D01*
X97887688Y-83476769D01*
X97852144Y-83498896D01*
X97807637Y-83488018D01*
X97783197Y-83462165D01*
X97765586Y-83408453D01*
X97771985Y-83351516D01*
X97792439Y-83332513D01*
X97846342Y-83328654D01*
X97886246Y-83335564D01*
G37*
G36*
X99926036Y-83334552D02*
G01*
X99956015Y-83368008D01*
X99965735Y-83415656D01*
X99951134Y-83465006D01*
X99907167Y-83492482D01*
X99883146Y-83495219D01*
X99836892Y-83479258D01*
X99807684Y-83441790D01*
X99801980Y-83394317D01*
X99826238Y-83348343D01*
X99834117Y-83341471D01*
X99879948Y-83324879D01*
X99926036Y-83334552D01*
G37*
G36*
X101955980Y-83718314D02*
G01*
X102001034Y-83747506D01*
X102016697Y-83800804D01*
X102010896Y-83835839D01*
X101977081Y-83874734D01*
X101915302Y-83888190D01*
X101890553Y-83884984D01*
X101847332Y-83857093D01*
X101828556Y-83809865D01*
X101840611Y-83754713D01*
X101862705Y-83729119D01*
X101916401Y-83713419D01*
X101955980Y-83718314D01*
G37*
G36*
X103294464Y-83348343D02*
G01*
X103313977Y-83385344D01*
X103313605Y-83437814D01*
X103288891Y-83480182D01*
X103247766Y-83498164D01*
X103203626Y-83488991D01*
X103169167Y-83457478D01*
X103153091Y-83411952D01*
X103164096Y-83360738D01*
X103166156Y-83357230D01*
X103202494Y-83330800D01*
X103251405Y-83327254D01*
X103294464Y-83348343D01*
G37*
G36*
X104586041Y-83331726D02*
G01*
X104623469Y-83361722D01*
X104639072Y-83404949D01*
X104629691Y-83449335D01*
X104592165Y-83482806D01*
X104542265Y-83491748D01*
X104497229Y-83474587D01*
X104468126Y-83438783D01*
X104462222Y-83393610D01*
X104486788Y-83348343D01*
X104506308Y-83335556D01*
X104550871Y-83325040D01*
X104586041Y-83331726D01*
G37*
G36*
X99324981Y-81620341D02*
G01*
X99360905Y-81647837D01*
X99375718Y-81693547D01*
X99363372Y-81748084D01*
X99326516Y-81781586D01*
X99271486Y-81783613D01*
X99235893Y-81765332D01*
X99213694Y-81720906D01*
X99222639Y-81659140D01*
X99240890Y-81631477D01*
X99280719Y-81613931D01*
X99324981Y-81620341D01*
G37*
G36*
X99731047Y-83335564D02*
G01*
X99750485Y-83355357D01*
X99754388Y-83400599D01*
X99752344Y-83427404D01*
X99732490Y-83476769D01*
X99696945Y-83498896D01*
X99652438Y-83488018D01*
X99627998Y-83462165D01*
X99610387Y-83408453D01*
X99616786Y-83351516D01*
X99637241Y-83332513D01*
X99691143Y-83328654D01*
X99731047Y-83335564D01*
G37*
G36*
X97112022Y-82967176D02*
G01*
X97137915Y-83012597D01*
X97131150Y-83054494D01*
X97097196Y-83083067D01*
X97041657Y-83088648D01*
X97027174Y-83084603D01*
X96996715Y-83054734D01*
X96988788Y-83009816D01*
X97007492Y-82964720D01*
X97023608Y-82949229D01*
X97065997Y-82939062D01*
X97112022Y-82967176D01*
G37*
G36*
X98392435Y-80864104D02*
G01*
X98425384Y-80879773D01*
X98433899Y-80917089D01*
X98433532Y-80928062D01*
X98420438Y-80959460D01*
X98380386Y-80971791D01*
X98337265Y-80966677D01*
X98310637Y-80936430D01*
X98315197Y-80886660D01*
X98332234Y-80867932D01*
X98380386Y-80862386D01*
X98392435Y-80864104D01*
G37*
G36*
X97092039Y-81624054D02*
G01*
X97127906Y-81655235D01*
X97142538Y-81705063D01*
X97130952Y-81749702D01*
X97092787Y-81781394D01*
X97037280Y-81783356D01*
X96994056Y-81757951D01*
X96974341Y-81711278D01*
X96986793Y-81655743D01*
X97004769Y-81632885D01*
X97046979Y-81615332D01*
X97092039Y-81624054D01*
G37*
%TD*%
M02*
