%TF.GenerationSoftware,KiCad,Pcbnew,(6.0.4-0)*%
%TF.CreationDate,2022-06-24T15:18:25+02:00*%
%TF.ProjectId,GlowTubeLEDconnectorA_PCB,476c6f77-5475-4626-954c-4544636f6e6e,rev?*%
%TF.SameCoordinates,Original*%
%TF.FileFunction,Copper,L1,Top*%
%TF.FilePolarity,Positive*%
%FSLAX46Y46*%
G04 Gerber Fmt 4.6, Leading zero omitted, Abs format (unit mm)*
G04 Created by KiCad (PCBNEW (6.0.4-0)) date 2022-06-24 15:18:25*
%MOMM*%
%LPD*%
G01*
G04 APERTURE LIST*
%TA.AperFunction,SMDPad,CuDef*%
%ADD10R,2.800000X1.600000*%
%TD*%
%TA.AperFunction,SMDPad,CuDef*%
%ADD11R,2.800000X2.000000*%
%TD*%
%TA.AperFunction,ViaPad*%
%ADD12C,0.800000*%
%TD*%
%TA.AperFunction,Conductor*%
%ADD13C,1.500000*%
%TD*%
%TA.AperFunction,Conductor*%
%ADD14C,1.000000*%
%TD*%
G04 APERTURE END LIST*
D10*
%TO.P,U2,1,5V*%
%TO.N,+5V*%
X111045600Y-65826200D03*
D11*
%TO.P,U2,2,Data*%
%TO.N,LED2 DATA OUT*%
X111045600Y-68325466D03*
%TO.P,U2,3,GND*%
%TO.N,GND*%
X111045600Y-71024732D03*
%TD*%
D10*
%TO.P,U1,1,5V*%
%TO.N,+5V*%
X116834400Y-73493800D03*
D11*
%TO.P,U1,2,Data*%
%TO.N,LED1 DATA OUT*%
X116834400Y-70994534D03*
%TO.P,U1,3,GND*%
%TO.N,GND*%
X116834400Y-68295268D03*
%TD*%
D12*
%TO.N,+5V*%
X108220000Y-65840000D03*
X112490000Y-74310000D03*
X114290000Y-74200000D03*
X107340000Y-66720000D03*
%TO.N,LED1 DATA OUT*%
X113790000Y-72370000D03*
%TO.N,GND*%
X92360000Y-74950000D03*
X119155268Y-68295268D03*
X119570000Y-69310000D03*
X93730000Y-76320000D03*
%TO.N,LED2 DATA OUT*%
X100080000Y-74320000D03*
%TD*%
D13*
%TO.N,+5V*%
X114290000Y-74200000D02*
X116128200Y-74200000D01*
X112490000Y-74310000D02*
X112600000Y-74200000D01*
X112600000Y-74200000D02*
X114290000Y-74200000D01*
X108220000Y-65840000D02*
X107340000Y-66720000D01*
X108220000Y-65840000D02*
X111031800Y-65840000D01*
X111031800Y-65840000D02*
X111045600Y-65826200D01*
X107340000Y-66720000D02*
X107340000Y-66710000D01*
X116128200Y-74200000D02*
X116834400Y-73493800D01*
X107340000Y-66710000D02*
X107430000Y-66620000D01*
D14*
%TO.N,LED1 DATA OUT*%
X115165466Y-70994534D02*
X116834400Y-70994534D01*
X116959866Y-71120000D02*
X116834400Y-70994534D01*
X113790000Y-72370000D02*
X115165466Y-70994534D01*
D13*
%TO.N,GND*%
X119570000Y-68710000D02*
X119570000Y-69310000D01*
X107210000Y-76320000D02*
X95430000Y-76320000D01*
X111045600Y-71024732D02*
X111045600Y-72484400D01*
X119155268Y-68295268D02*
X119570000Y-68710000D01*
X119570000Y-69310000D02*
X119570000Y-69360000D01*
X95430000Y-76320000D02*
X93730000Y-76320000D01*
X93730000Y-76320000D02*
X92360000Y-74950000D01*
X116834400Y-68295268D02*
X119155268Y-68295268D01*
X111045600Y-72484400D02*
X107210000Y-76320000D01*
D14*
%TO.N,LED2 DATA OUT*%
X111045600Y-68325466D02*
X109094534Y-68325466D01*
X103100000Y-74320000D02*
X100080000Y-74320000D01*
X109094534Y-68325466D02*
X103100000Y-74320000D01*
%TD*%
%TA.AperFunction,Conductor*%
%TO.N,GND*%
G36*
X103542985Y-50485967D02*
G01*
X103548700Y-50486126D01*
X104412701Y-50529895D01*
X104418402Y-50530314D01*
X105279504Y-50613228D01*
X105285180Y-50613905D01*
X106141650Y-50735799D01*
X106147286Y-50736732D01*
X106997315Y-50897347D01*
X107002907Y-50898535D01*
X107844822Y-51097555D01*
X107850355Y-51098997D01*
X108682322Y-51335989D01*
X108687780Y-51337678D01*
X109508189Y-51612183D01*
X109513549Y-51614113D01*
X110111501Y-51844844D01*
X110320658Y-51925551D01*
X110325908Y-51927715D01*
X111118098Y-52275462D01*
X111123225Y-52277853D01*
X111656797Y-52541560D01*
X111898766Y-52661149D01*
X111903833Y-52663798D01*
X112661208Y-53081892D01*
X112666149Y-53084767D01*
X113403761Y-53536776D01*
X113408566Y-53539873D01*
X114124901Y-54024868D01*
X114129562Y-54028180D01*
X114823195Y-54545198D01*
X114827668Y-54548694D01*
X115094489Y-54767084D01*
X115497124Y-55096637D01*
X115501465Y-55100358D01*
X116145346Y-55678079D01*
X116149514Y-55681992D01*
X116766563Y-56288364D01*
X116770548Y-56292463D01*
X117359415Y-56926160D01*
X117363211Y-56930435D01*
X117922755Y-57590226D01*
X117926353Y-57594670D01*
X118455361Y-58279127D01*
X118458754Y-58283728D01*
X118956199Y-58991521D01*
X118959379Y-58996272D01*
X119424187Y-59725875D01*
X119427149Y-59730765D01*
X119858379Y-60480696D01*
X119861116Y-60485716D01*
X120164909Y-61074302D01*
X120257899Y-61254467D01*
X120260398Y-61259593D01*
X120621900Y-62045553D01*
X120624151Y-62050755D01*
X120829208Y-62555748D01*
X120949631Y-62852316D01*
X120951661Y-62857660D01*
X121240434Y-63673127D01*
X121242220Y-63678559D01*
X121493705Y-64506296D01*
X121495240Y-64511796D01*
X121613226Y-64974669D01*
X121708918Y-65350085D01*
X121710201Y-65355643D01*
X121766438Y-65627201D01*
X121885632Y-66202767D01*
X121886664Y-66208390D01*
X122023484Y-67062589D01*
X122024260Y-67068253D01*
X122064439Y-67420900D01*
X122121163Y-67918753D01*
X122122192Y-67927788D01*
X122122709Y-67933472D01*
X122180987Y-68788302D01*
X122181549Y-68796549D01*
X122181808Y-68802242D01*
X122197004Y-69471887D01*
X122201453Y-69667928D01*
X122201478Y-69672102D01*
X122197411Y-70060512D01*
X122197313Y-70069826D01*
X122197200Y-70073996D01*
X122167037Y-70764867D01*
X122159432Y-70939041D01*
X122159054Y-70944730D01*
X122082165Y-71806261D01*
X122082152Y-71806403D01*
X122081517Y-71812068D01*
X122050801Y-72039251D01*
X121965602Y-72669391D01*
X121964712Y-72675014D01*
X121810025Y-73526195D01*
X121808883Y-73531759D01*
X121615745Y-74375044D01*
X121614342Y-74380586D01*
X121383163Y-75214191D01*
X121381511Y-75219664D01*
X121327688Y-75384337D01*
X121112739Y-76041974D01*
X121110858Y-76047316D01*
X120805058Y-76856592D01*
X120802916Y-76861893D01*
X120460735Y-77656430D01*
X120458361Y-77661615D01*
X120340441Y-77904462D01*
X120080486Y-78439817D01*
X120077876Y-78444896D01*
X119950300Y-78679863D01*
X119665087Y-79205160D01*
X119662246Y-79210121D01*
X119215389Y-79950883D01*
X119212325Y-79955710D01*
X118732350Y-80675401D01*
X118729071Y-80680085D01*
X118216917Y-81377300D01*
X118213429Y-81381829D01*
X117670191Y-82055070D01*
X117666501Y-82059437D01*
X117437190Y-82318627D01*
X117132557Y-82662953D01*
X117093268Y-82707361D01*
X117089390Y-82711548D01*
X116493938Y-83326007D01*
X116487354Y-83332801D01*
X116483290Y-83336808D01*
X115982083Y-83809121D01*
X115853703Y-83930101D01*
X115849454Y-83933927D01*
X115193599Y-84498051D01*
X115189181Y-84501680D01*
X114508424Y-85035461D01*
X114503847Y-85038885D01*
X113799539Y-85541264D01*
X113794810Y-85544478D01*
X113068476Y-86014364D01*
X113063615Y-86017355D01*
X112316686Y-86453825D01*
X112311700Y-86456589D01*
X111545736Y-86858729D01*
X111540635Y-86861261D01*
X111295226Y-86976219D01*
X110757227Y-87228236D01*
X110751996Y-87230543D01*
X109952752Y-87561601D01*
X109947422Y-87563668D01*
X109134003Y-87858121D01*
X109128584Y-87859945D01*
X108302625Y-88117203D01*
X108297129Y-88118779D01*
X107460359Y-88338301D01*
X107454798Y-88339626D01*
X106608917Y-88520968D01*
X106603301Y-88522039D01*
X105750063Y-88664822D01*
X105744424Y-88665635D01*
X105444255Y-88701959D01*
X104885603Y-88769563D01*
X104879913Y-88770121D01*
X104017275Y-88834983D01*
X104011566Y-88835283D01*
X103529370Y-88849594D01*
X103146809Y-88860948D01*
X103141112Y-88860987D01*
X102479394Y-88850592D01*
X102276149Y-88847399D01*
X102270436Y-88847180D01*
X101406959Y-88794368D01*
X101401262Y-88793890D01*
X100541049Y-88701959D01*
X100535379Y-88701222D01*
X100136562Y-88640195D01*
X99680230Y-88570366D01*
X99674642Y-88569381D01*
X99250467Y-88484622D01*
X98826314Y-88399868D01*
X98820734Y-88398621D01*
X98405109Y-88295765D01*
X97980949Y-88190795D01*
X97975474Y-88189308D01*
X97301287Y-87989604D01*
X97146001Y-87943606D01*
X97140558Y-87941859D01*
X96886058Y-87853731D01*
X96323068Y-87658778D01*
X96317736Y-87656795D01*
X95915832Y-87496858D01*
X95513941Y-87336926D01*
X95508678Y-87334692D01*
X94720220Y-86978690D01*
X94715064Y-86976219D01*
X94205787Y-86717848D01*
X93943589Y-86584827D01*
X93938560Y-86582131D01*
X93714323Y-86455264D01*
X93185600Y-86156127D01*
X93180710Y-86153211D01*
X92447849Y-85693489D01*
X92443126Y-85690375D01*
X91731872Y-85197879D01*
X91727270Y-85194537D01*
X91039086Y-84670280D01*
X91034618Y-84666713D01*
X90370945Y-84111797D01*
X90366644Y-84108031D01*
X89728850Y-83523600D01*
X89724723Y-83519643D01*
X89114069Y-82906853D01*
X89110127Y-82902713D01*
X88527916Y-82262872D01*
X88524165Y-82258557D01*
X87971578Y-81592964D01*
X87968026Y-81588483D01*
X87722590Y-81263957D01*
X87446183Y-80898482D01*
X87442846Y-80893854D01*
X87292708Y-80675401D01*
X86952852Y-80180908D01*
X86949722Y-80176124D01*
X86492587Y-79441707D01*
X86489676Y-79436786D01*
X86066310Y-78682355D01*
X86063626Y-78677307D01*
X85674925Y-77904462D01*
X85672473Y-77899298D01*
X85319233Y-77109621D01*
X85317017Y-77104350D01*
X84999959Y-76299451D01*
X84997985Y-76294086D01*
X84717762Y-75475621D01*
X84716034Y-75470171D01*
X84473240Y-74639878D01*
X84471760Y-74634356D01*
X84393403Y-74312925D01*
X99066645Y-74312925D01*
X99084570Y-74509888D01*
X99140410Y-74699619D01*
X99143263Y-74705077D01*
X99143265Y-74705081D01*
X99189109Y-74792771D01*
X99232040Y-74874890D01*
X99355968Y-75029025D01*
X99360692Y-75032989D01*
X99367933Y-75039065D01*
X99507474Y-75156154D01*
X99512872Y-75159121D01*
X99512877Y-75159125D01*
X99622999Y-75219664D01*
X99680787Y-75251433D01*
X99686654Y-75253294D01*
X99686656Y-75253295D01*
X99845726Y-75303755D01*
X99869306Y-75311235D01*
X100023227Y-75328500D01*
X103038157Y-75328500D01*
X103051764Y-75329237D01*
X103083262Y-75332659D01*
X103083267Y-75332659D01*
X103089388Y-75333324D01*
X103115638Y-75331027D01*
X103139388Y-75328950D01*
X103144214Y-75328621D01*
X103146686Y-75328500D01*
X103149769Y-75328500D01*
X103161738Y-75327326D01*
X103192506Y-75324310D01*
X103193819Y-75324188D01*
X103238084Y-75320315D01*
X103286413Y-75316087D01*
X103291532Y-75314600D01*
X103296833Y-75314080D01*
X103385834Y-75287209D01*
X103386967Y-75286874D01*
X103470414Y-75262630D01*
X103470418Y-75262628D01*
X103476336Y-75260909D01*
X103481068Y-75258456D01*
X103486169Y-75256916D01*
X103519863Y-75239001D01*
X103568260Y-75213269D01*
X103569426Y-75212657D01*
X103646453Y-75172729D01*
X103651926Y-75169892D01*
X103656089Y-75166569D01*
X103660796Y-75164066D01*
X103732918Y-75105245D01*
X103733774Y-75104554D01*
X103772973Y-75073262D01*
X103775477Y-75070758D01*
X103776195Y-75070116D01*
X103780528Y-75066415D01*
X103814062Y-75039065D01*
X103843288Y-75003737D01*
X103851277Y-74994958D01*
X104628778Y-74217457D01*
X111229806Y-74217457D01*
X111233335Y-74442081D01*
X111234415Y-74447586D01*
X111274104Y-74649881D01*
X111276585Y-74662529D01*
X111278623Y-74667755D01*
X111278624Y-74667760D01*
X111293175Y-74705081D01*
X111358190Y-74871835D01*
X111475570Y-75063382D01*
X111479305Y-75067575D01*
X111479308Y-75067578D01*
X111567506Y-75166569D01*
X111625015Y-75231115D01*
X111801801Y-75369734D01*
X111806760Y-75372359D01*
X111806759Y-75372359D01*
X111988533Y-75468602D01*
X112000341Y-75474854D01*
X112005687Y-75476560D01*
X112005689Y-75476561D01*
X112115925Y-75511742D01*
X112214357Y-75543156D01*
X112219914Y-75543888D01*
X112219916Y-75543888D01*
X112325721Y-75557817D01*
X112437086Y-75572479D01*
X112442685Y-75572215D01*
X112442687Y-75572215D01*
X112549287Y-75567187D01*
X112661488Y-75561896D01*
X112880470Y-75511742D01*
X112981611Y-75468602D01*
X113031043Y-75458500D01*
X116036804Y-75458500D01*
X116053251Y-75459578D01*
X116069716Y-75461746D01*
X116069720Y-75461746D01*
X116075286Y-75462479D01*
X116156689Y-75458640D01*
X116162624Y-75458500D01*
X116185199Y-75458500D01*
X116211189Y-75456181D01*
X116216448Y-75455822D01*
X116299688Y-75451896D01*
X116305147Y-75450646D01*
X116305152Y-75450645D01*
X116317170Y-75447892D01*
X116334099Y-75445211D01*
X116351962Y-75443617D01*
X116357378Y-75442135D01*
X116357380Y-75442135D01*
X116432333Y-75421630D01*
X116437451Y-75420344D01*
X116513200Y-75402995D01*
X116513202Y-75402994D01*
X116518670Y-75401742D01*
X116529170Y-75397263D01*
X116535167Y-75394706D01*
X116551342Y-75389073D01*
X116563239Y-75385818D01*
X116563243Y-75385817D01*
X116568651Y-75384337D01*
X116643867Y-75348461D01*
X116648676Y-75346290D01*
X116720149Y-75315804D01*
X116720150Y-75315804D01*
X116725309Y-75313603D01*
X116740310Y-75303749D01*
X116755225Y-75295346D01*
X116771418Y-75287622D01*
X116775969Y-75284352D01*
X116775972Y-75284350D01*
X116839081Y-75239001D01*
X116843432Y-75236011D01*
X116909210Y-75192804D01*
X116909218Y-75192798D01*
X116913074Y-75190265D01*
X116933862Y-75171743D01*
X116944139Y-75163510D01*
X116953854Y-75156529D01*
X117028260Y-75079748D01*
X117029649Y-75078338D01*
X117268782Y-74839205D01*
X117331094Y-74805179D01*
X117357877Y-74802300D01*
X118282534Y-74802300D01*
X118344716Y-74795545D01*
X118481105Y-74744415D01*
X118597661Y-74657061D01*
X118685015Y-74540505D01*
X118736145Y-74404116D01*
X118742900Y-74341934D01*
X118742900Y-72645666D01*
X118736145Y-72583484D01*
X118685015Y-72447095D01*
X118664507Y-72419731D01*
X118639660Y-72353224D01*
X118654714Y-72283842D01*
X118664507Y-72268603D01*
X118679629Y-72248425D01*
X118685015Y-72241239D01*
X118736145Y-72104850D01*
X118742900Y-72042668D01*
X118742900Y-69946400D01*
X118736145Y-69884218D01*
X118685015Y-69747829D01*
X118664195Y-69720049D01*
X118639347Y-69653543D01*
X118654400Y-69584160D01*
X118664195Y-69568919D01*
X118679186Y-69548916D01*
X118687724Y-69533322D01*
X118732878Y-69412874D01*
X118736505Y-69397619D01*
X118742031Y-69346754D01*
X118742400Y-69339940D01*
X118742400Y-68567383D01*
X118737925Y-68552144D01*
X118736535Y-68550939D01*
X118728852Y-68549268D01*
X114944516Y-68549268D01*
X114929277Y-68553743D01*
X114928072Y-68555133D01*
X114926401Y-68562816D01*
X114926401Y-69339937D01*
X114926771Y-69346758D01*
X114932295Y-69397620D01*
X114935921Y-69412872D01*
X114981076Y-69533322D01*
X114989614Y-69548916D01*
X115004605Y-69568919D01*
X115029453Y-69635425D01*
X115014400Y-69704808D01*
X115004605Y-69720049D01*
X114983785Y-69747829D01*
X114932655Y-69884218D01*
X114931802Y-69892074D01*
X114927439Y-69932232D01*
X114900197Y-69997794D01*
X114837330Y-70039621D01*
X114795052Y-70051904D01*
X114795048Y-70051906D01*
X114789130Y-70053625D01*
X114784398Y-70056078D01*
X114779297Y-70057618D01*
X114773854Y-70060512D01*
X114697206Y-70101265D01*
X114696040Y-70101877D01*
X114619013Y-70141805D01*
X114613540Y-70144642D01*
X114609377Y-70147965D01*
X114604670Y-70150468D01*
X114599895Y-70154362D01*
X114599894Y-70154363D01*
X114532568Y-70209273D01*
X114531541Y-70210101D01*
X114495258Y-70239065D01*
X114495253Y-70239070D01*
X114492494Y-70241272D01*
X114489993Y-70243773D01*
X114489275Y-70244415D01*
X114484927Y-70248128D01*
X114451404Y-70275469D01*
X114447481Y-70280211D01*
X114447479Y-70280213D01*
X114422169Y-70310807D01*
X114414179Y-70319587D01*
X113168695Y-71565071D01*
X113106383Y-71599097D01*
X113035568Y-71594032D01*
X112978732Y-71551485D01*
X112953921Y-71484965D01*
X112953600Y-71475976D01*
X112953600Y-71296847D01*
X112949125Y-71281608D01*
X112947735Y-71280403D01*
X112940052Y-71278732D01*
X111317715Y-71278732D01*
X111302476Y-71283207D01*
X111301271Y-71284597D01*
X111299600Y-71292280D01*
X111299600Y-72514616D01*
X111304075Y-72529855D01*
X111305465Y-72531060D01*
X111313148Y-72532731D01*
X112490269Y-72532731D01*
X112497090Y-72532361D01*
X112547952Y-72526837D01*
X112563203Y-72523211D01*
X112634737Y-72496394D01*
X112705544Y-72491211D01*
X112767913Y-72525131D01*
X112799716Y-72578380D01*
X112824148Y-72660335D01*
X112851741Y-72752896D01*
X112854614Y-72758345D01*
X112856943Y-72764052D01*
X112855375Y-72764692D01*
X112867842Y-72826324D01*
X112842062Y-72892475D01*
X112784611Y-72934186D01*
X112742308Y-72941500D01*
X112691395Y-72941500D01*
X112674948Y-72940422D01*
X112658483Y-72938254D01*
X112658479Y-72938254D01*
X112652913Y-72937521D01*
X112571511Y-72941360D01*
X112565575Y-72941500D01*
X112543001Y-72941500D01*
X112518886Y-72943652D01*
X112517013Y-72943819D01*
X112511750Y-72944178D01*
X112495933Y-72944924D01*
X112428511Y-72948104D01*
X112423048Y-72949355D01*
X112423042Y-72949356D01*
X112411032Y-72952107D01*
X112394100Y-72954789D01*
X112376238Y-72956383D01*
X112370827Y-72957863D01*
X112370823Y-72957864D01*
X112324157Y-72970631D01*
X112295848Y-72978376D01*
X112290750Y-72979656D01*
X112209530Y-72998258D01*
X112204369Y-73000459D01*
X112204370Y-73000459D01*
X112193033Y-73005294D01*
X112176858Y-73010927D01*
X112164961Y-73014182D01*
X112164957Y-73014183D01*
X112159549Y-73015663D01*
X112154483Y-73018079D01*
X112154484Y-73018079D01*
X112084333Y-73051539D01*
X112079524Y-73053710D01*
X112002891Y-73086397D01*
X111987890Y-73096251D01*
X111972975Y-73104654D01*
X111956782Y-73112378D01*
X111952234Y-73115646D01*
X111952229Y-73115649D01*
X111889114Y-73161002D01*
X111884777Y-73163982D01*
X111815125Y-73209735D01*
X111794344Y-73228251D01*
X111784048Y-73236500D01*
X111774346Y-73243471D01*
X111699968Y-73320223D01*
X111698579Y-73321633D01*
X111559802Y-73460410D01*
X111452406Y-73588854D01*
X111341101Y-73783993D01*
X111339232Y-73789270D01*
X111339230Y-73789275D01*
X111292272Y-73921881D01*
X111266111Y-73995759D01*
X111229806Y-74217457D01*
X104628778Y-74217457D01*
X106376717Y-72469518D01*
X106776834Y-72069401D01*
X109137601Y-72069401D01*
X109137971Y-72076222D01*
X109143495Y-72127084D01*
X109147121Y-72142336D01*
X109192276Y-72262786D01*
X109200814Y-72278381D01*
X109277315Y-72380456D01*
X109289876Y-72393017D01*
X109391951Y-72469518D01*
X109407546Y-72478056D01*
X109527994Y-72523210D01*
X109543249Y-72526837D01*
X109594114Y-72532363D01*
X109600928Y-72532732D01*
X110773485Y-72532732D01*
X110788724Y-72528257D01*
X110789929Y-72526867D01*
X110791600Y-72519184D01*
X110791600Y-71296847D01*
X110787125Y-71281608D01*
X110785735Y-71280403D01*
X110778052Y-71278732D01*
X109155716Y-71278732D01*
X109140477Y-71283207D01*
X109139272Y-71284597D01*
X109137601Y-71292280D01*
X109137601Y-72069401D01*
X106776834Y-72069401D01*
X108922505Y-69923729D01*
X108984817Y-69889703D01*
X109055632Y-69894768D01*
X109112468Y-69937315D01*
X109137279Y-70003835D01*
X109137600Y-70012824D01*
X109137600Y-70752617D01*
X109142075Y-70767856D01*
X109143465Y-70769061D01*
X109151148Y-70770732D01*
X112935484Y-70770732D01*
X112950723Y-70766257D01*
X112951928Y-70764867D01*
X112953599Y-70757184D01*
X112953599Y-69980063D01*
X112953229Y-69973242D01*
X112947705Y-69922380D01*
X112944079Y-69907128D01*
X112898924Y-69786678D01*
X112890386Y-69771084D01*
X112875395Y-69751081D01*
X112850547Y-69684575D01*
X112865600Y-69615192D01*
X112875395Y-69599951D01*
X112896215Y-69572171D01*
X112947345Y-69435782D01*
X112954100Y-69373600D01*
X112954100Y-68023153D01*
X114926400Y-68023153D01*
X114930875Y-68038392D01*
X114932265Y-68039597D01*
X114939948Y-68041268D01*
X116562285Y-68041268D01*
X116577524Y-68036793D01*
X116578729Y-68035403D01*
X116580400Y-68027720D01*
X116580400Y-68023153D01*
X117088400Y-68023153D01*
X117092875Y-68038392D01*
X117094265Y-68039597D01*
X117101948Y-68041268D01*
X118724284Y-68041268D01*
X118739523Y-68036793D01*
X118740728Y-68035403D01*
X118742399Y-68027720D01*
X118742399Y-67250599D01*
X118742029Y-67243778D01*
X118736505Y-67192916D01*
X118732879Y-67177664D01*
X118687724Y-67057214D01*
X118679186Y-67041619D01*
X118602685Y-66939544D01*
X118590124Y-66926983D01*
X118488049Y-66850482D01*
X118472454Y-66841944D01*
X118352006Y-66796790D01*
X118336751Y-66793163D01*
X118285886Y-66787637D01*
X118279072Y-66787268D01*
X117106515Y-66787268D01*
X117091276Y-66791743D01*
X117090071Y-66793133D01*
X117088400Y-66800816D01*
X117088400Y-68023153D01*
X116580400Y-68023153D01*
X116580400Y-66805384D01*
X116575925Y-66790145D01*
X116574535Y-66788940D01*
X116566852Y-66787269D01*
X115389731Y-66787269D01*
X115382910Y-66787639D01*
X115332048Y-66793163D01*
X115316796Y-66796789D01*
X115196346Y-66841944D01*
X115180751Y-66850482D01*
X115078676Y-66926983D01*
X115066115Y-66939544D01*
X114989614Y-67041619D01*
X114981076Y-67057214D01*
X114935922Y-67177662D01*
X114932295Y-67192917D01*
X114926769Y-67243782D01*
X114926400Y-67250596D01*
X114926400Y-68023153D01*
X112954100Y-68023153D01*
X112954100Y-67277332D01*
X112947345Y-67215150D01*
X112896215Y-67078761D01*
X112875707Y-67051397D01*
X112850860Y-66984890D01*
X112865914Y-66915508D01*
X112875707Y-66900269D01*
X112890829Y-66880091D01*
X112896215Y-66872905D01*
X112947345Y-66736516D01*
X112954100Y-66674334D01*
X112954100Y-64978066D01*
X112947345Y-64915884D01*
X112896215Y-64779495D01*
X112808861Y-64662939D01*
X112692305Y-64575585D01*
X112555916Y-64524455D01*
X112493734Y-64517700D01*
X109597466Y-64517700D01*
X109535284Y-64524455D01*
X109407303Y-64572433D01*
X109404505Y-64573482D01*
X109360275Y-64581500D01*
X108311396Y-64581500D01*
X108294949Y-64580422D01*
X108294270Y-64580333D01*
X108272914Y-64577521D01*
X108267314Y-64577785D01*
X108267313Y-64577785D01*
X108191504Y-64581360D01*
X108185569Y-64581500D01*
X108163001Y-64581500D01*
X108160218Y-64581748D01*
X108160204Y-64581749D01*
X108137023Y-64583818D01*
X108131760Y-64584177D01*
X108102342Y-64585564D01*
X108048512Y-64588103D01*
X108031023Y-64592108D01*
X108014104Y-64594788D01*
X108009618Y-64595189D01*
X107996238Y-64596383D01*
X107990830Y-64597862D01*
X107990827Y-64597863D01*
X107915870Y-64618369D01*
X107910752Y-64619655D01*
X107835000Y-64637005D01*
X107834998Y-64637006D01*
X107829530Y-64638258D01*
X107819030Y-64642737D01*
X107813033Y-64645294D01*
X107796858Y-64650927D01*
X107790806Y-64652583D01*
X107779549Y-64655663D01*
X107774494Y-64658074D01*
X107774489Y-64658076D01*
X107704317Y-64691546D01*
X107699508Y-64693717D01*
X107628053Y-64724195D01*
X107628047Y-64724198D01*
X107622892Y-64726397D01*
X107607902Y-64736244D01*
X107592974Y-64744655D01*
X107576782Y-64752378D01*
X107572229Y-64755650D01*
X107572225Y-64755652D01*
X107509103Y-64801010D01*
X107504753Y-64803999D01*
X107435126Y-64849735D01*
X107414338Y-64868257D01*
X107404061Y-64876490D01*
X107394346Y-64883471D01*
X107390444Y-64887498D01*
X107319970Y-64960221D01*
X107318581Y-64961632D01*
X106669852Y-65610360D01*
X106652642Y-65624371D01*
X106652652Y-65624385D01*
X106652182Y-65624746D01*
X106649935Y-65626575D01*
X106649333Y-65626971D01*
X106645125Y-65629735D01*
X106641687Y-65632798D01*
X106641682Y-65632802D01*
X106607144Y-65663575D01*
X106602490Y-65667722D01*
X106514737Y-65755475D01*
X106502347Y-65766342D01*
X106484708Y-65779877D01*
X106430188Y-65839794D01*
X106429842Y-65840174D01*
X106425743Y-65844469D01*
X106409802Y-65860410D01*
X106408007Y-65862557D01*
X106408005Y-65862559D01*
X106393068Y-65880423D01*
X106389600Y-65884398D01*
X106337288Y-65941888D01*
X106337281Y-65941897D01*
X106333515Y-65946036D01*
X106330538Y-65950782D01*
X106330537Y-65950783D01*
X106323987Y-65961225D01*
X106313911Y-65975093D01*
X106306004Y-65984549D01*
X106305997Y-65984559D01*
X106302406Y-65988854D01*
X106293030Y-66005292D01*
X106261118Y-66061240D01*
X106258413Y-66065759D01*
X106214136Y-66136344D01*
X106212043Y-66141549D01*
X106212042Y-66141552D01*
X106207448Y-66152979D01*
X106199988Y-66168411D01*
X106193880Y-66179119D01*
X106193876Y-66179128D01*
X106191101Y-66183993D01*
X106189232Y-66189270D01*
X106189230Y-66189275D01*
X106163285Y-66262542D01*
X106161420Y-66267478D01*
X106130344Y-66344783D01*
X106129208Y-66350270D01*
X106129207Y-66350272D01*
X106126706Y-66362349D01*
X106122101Y-66378844D01*
X106116111Y-66395759D01*
X106115204Y-66401298D01*
X106102643Y-66478001D01*
X106101683Y-66483180D01*
X106084787Y-66564767D01*
X106084521Y-66569379D01*
X106084521Y-66569380D01*
X106083185Y-66592548D01*
X106081738Y-66605653D01*
X106080712Y-66611919D01*
X106080711Y-66611929D01*
X106079806Y-66617457D01*
X106079894Y-66623061D01*
X106079935Y-66625715D01*
X106079902Y-66626870D01*
X106079806Y-66627457D01*
X106079834Y-66629236D01*
X106081484Y-66734264D01*
X106081500Y-66736243D01*
X106081500Y-66776999D01*
X106081748Y-66779775D01*
X106081885Y-66781314D01*
X106082368Y-66790529D01*
X106083335Y-66852081D01*
X106084416Y-66857591D01*
X106090990Y-66891102D01*
X106092848Y-66904156D01*
X106096383Y-66943762D01*
X106107634Y-66984890D01*
X106112622Y-67003123D01*
X106114731Y-67012111D01*
X106126585Y-67072529D01*
X106141034Y-67109589D01*
X106145170Y-67122096D01*
X106155663Y-67160451D01*
X106158074Y-67165505D01*
X106158077Y-67165514D01*
X106182162Y-67216009D01*
X106185829Y-67224483D01*
X106196959Y-67253030D01*
X106208190Y-67281835D01*
X106211117Y-67286611D01*
X106228970Y-67315745D01*
X106235261Y-67327331D01*
X106252378Y-67363218D01*
X106269475Y-67387011D01*
X106288300Y-67413209D01*
X106293394Y-67420876D01*
X106325570Y-67473382D01*
X106329307Y-67477576D01*
X106329309Y-67477579D01*
X106352022Y-67503071D01*
X106360268Y-67513363D01*
X106383471Y-67545654D01*
X106387502Y-67549560D01*
X106387506Y-67549565D01*
X106427679Y-67588495D01*
X106434051Y-67595138D01*
X106475015Y-67641115D01*
X106506308Y-67665652D01*
X106516237Y-67674314D01*
X106544799Y-67701992D01*
X106557111Y-67710265D01*
X106595898Y-67736329D01*
X106603368Y-67741757D01*
X106651801Y-67779734D01*
X106686941Y-67798339D01*
X106698258Y-67805112D01*
X106731262Y-67827290D01*
X106787650Y-67852043D01*
X106795926Y-67856043D01*
X106850341Y-67884854D01*
X106888228Y-67896945D01*
X106900542Y-67901599D01*
X106936967Y-67917588D01*
X106942418Y-67918897D01*
X106942422Y-67918898D01*
X106996830Y-67931960D01*
X107005724Y-67934444D01*
X107046400Y-67947425D01*
X107064357Y-67953156D01*
X107103778Y-67958346D01*
X107116743Y-67960749D01*
X107149946Y-67968721D01*
X107149957Y-67968723D01*
X107155411Y-67970032D01*
X107216863Y-67973575D01*
X107226052Y-67974444D01*
X107230383Y-67975014D01*
X107281516Y-67981746D01*
X107281519Y-67981746D01*
X107287086Y-67982479D01*
X107326812Y-67980605D01*
X107339995Y-67980674D01*
X107379690Y-67982963D01*
X107440806Y-67975568D01*
X107450003Y-67974796D01*
X107511488Y-67971896D01*
X107550252Y-67963018D01*
X107563236Y-67960752D01*
X107585948Y-67958004D01*
X107597146Y-67956649D01*
X107597147Y-67956649D01*
X107602715Y-67955975D01*
X107661572Y-67937868D01*
X107670477Y-67935482D01*
X107704072Y-67927788D01*
X107725000Y-67922995D01*
X107725002Y-67922994D01*
X107730470Y-67921742D01*
X107735626Y-67919543D01*
X107738057Y-67918753D01*
X107809025Y-67916729D01*
X107869821Y-67953394D01*
X107901144Y-68017108D01*
X107893047Y-68087641D01*
X107866085Y-68127680D01*
X105442068Y-70551698D01*
X102719171Y-73274595D01*
X102656859Y-73308621D01*
X102630076Y-73311500D01*
X100030231Y-73311500D01*
X100027175Y-73311800D01*
X100027168Y-73311800D01*
X99968660Y-73317537D01*
X99883167Y-73325920D01*
X99877266Y-73327702D01*
X99877264Y-73327702D01*
X99803947Y-73349838D01*
X99693831Y-73383084D01*
X99519204Y-73475934D01*
X99454155Y-73528987D01*
X99370713Y-73597040D01*
X99370710Y-73597043D01*
X99365938Y-73600935D01*
X99362011Y-73605682D01*
X99362009Y-73605684D01*
X99243799Y-73748575D01*
X99243797Y-73748579D01*
X99239870Y-73753325D01*
X99145802Y-73927299D01*
X99087318Y-74116232D01*
X99066645Y-74312925D01*
X84393403Y-74312925D01*
X84266873Y-73793877D01*
X84265645Y-73788293D01*
X84099094Y-72939379D01*
X84098121Y-72933745D01*
X84028742Y-72469518D01*
X83970254Y-72078165D01*
X83969538Y-72072499D01*
X83880611Y-71211971D01*
X83880153Y-71206272D01*
X83830356Y-70342639D01*
X83830156Y-70336925D01*
X83828961Y-70239065D01*
X83822033Y-69672105D01*
X83819587Y-69471887D01*
X83819647Y-69466170D01*
X83848329Y-68601562D01*
X83848648Y-68595854D01*
X83852315Y-68549268D01*
X83916523Y-67733419D01*
X83917101Y-67727735D01*
X83920308Y-67701992D01*
X84024026Y-66869290D01*
X84024861Y-66863634D01*
X84170621Y-66010904D01*
X84171712Y-66005292D01*
X84356004Y-65160051D01*
X84357349Y-65154494D01*
X84579789Y-64318505D01*
X84581384Y-64313015D01*
X84841519Y-63487973D01*
X84843361Y-63482561D01*
X85140659Y-62670153D01*
X85142745Y-62664830D01*
X85401804Y-62045530D01*
X85476595Y-61866737D01*
X85478919Y-61861518D01*
X85848618Y-61079414D01*
X85851178Y-61074302D01*
X86255975Y-60309774D01*
X86258764Y-60304783D01*
X86697826Y-59559403D01*
X86700838Y-59554544D01*
X87173284Y-58829813D01*
X87176515Y-58825096D01*
X87187850Y-58809323D01*
X87681317Y-58122591D01*
X87684751Y-58118033D01*
X88220922Y-57439124D01*
X88224566Y-57434719D01*
X88790977Y-56780835D01*
X88794818Y-56776599D01*
X89254246Y-56292463D01*
X89390323Y-56149068D01*
X89394297Y-56145065D01*
X90017691Y-55545160D01*
X90021888Y-55541302D01*
X90671787Y-54970352D01*
X90676166Y-54966677D01*
X91351310Y-54425784D01*
X91355852Y-54422311D01*
X92054842Y-53912599D01*
X92059537Y-53909336D01*
X92780931Y-53431855D01*
X92785759Y-53428816D01*
X93528069Y-52984552D01*
X93533022Y-52981738D01*
X94294719Y-52571606D01*
X94299809Y-52569012D01*
X95079340Y-52193850D01*
X95084546Y-52191489D01*
X95169171Y-52155393D01*
X95880271Y-51852083D01*
X95885544Y-51849973D01*
X96695900Y-51546994D01*
X96701259Y-51545128D01*
X97524522Y-51279221D01*
X97529953Y-51277602D01*
X98364408Y-51049322D01*
X98369936Y-51047944D01*
X99032913Y-50898535D01*
X99213873Y-50857754D01*
X99219478Y-50856624D01*
X100071150Y-50704918D01*
X100076800Y-50704043D01*
X100934482Y-50591127D01*
X100940165Y-50590510D01*
X101802129Y-50516613D01*
X101807819Y-50516255D01*
X102567942Y-50485725D01*
X102672200Y-50481538D01*
X102677917Y-50481438D01*
X103542985Y-50485967D01*
G37*
%TD.AperFunction*%
%TD*%
M02*
