%TF.GenerationSoftware,KiCad,Pcbnew,(6.0.4-0)*%
%TF.CreationDate,2022-05-05T14:31:54+02:00*%
%TF.ProjectId,GlowTubeLEDconnectorA_PCB,476c6f77-5475-4626-954c-4544636f6e6e,rev?*%
%TF.SameCoordinates,Original*%
%TF.FileFunction,Copper,L2,Bot*%
%TF.FilePolarity,Positive*%
%FSLAX46Y46*%
G04 Gerber Fmt 4.6, Leading zero omitted, Abs format (unit mm)*
G04 Created by KiCad (PCBNEW (6.0.4-0)) date 2022-05-05 14:31:54*
%MOMM*%
%LPD*%
G01*
G04 APERTURE LIST*
%TA.AperFunction,SMDPad,CuDef*%
%ADD10R,2.000000X3.500000*%
%TD*%
%TA.AperFunction,ViaPad*%
%ADD11C,0.800000*%
%TD*%
%TA.AperFunction,Conductor*%
%ADD12C,1.500000*%
%TD*%
%TA.AperFunction,Conductor*%
%ADD13C,1.000000*%
%TD*%
G04 APERTURE END LIST*
D10*
%TO.P,P6,1*%
%TO.N,GND*%
X89950000Y-69710000D03*
%TD*%
%TO.P,P4,1*%
%TO.N,+5V*%
X105090000Y-75010800D03*
%TD*%
%TO.P,P3,1*%
%TO.N,GND*%
X89950000Y-75010800D03*
%TD*%
%TO.P,P2,1*%
%TO.N,LED1 DATA OUT*%
X97480000Y-69710000D03*
%TD*%
%TO.P,P5,1*%
%TO.N,LED2 DATA OUT*%
X97480000Y-75010800D03*
%TD*%
%TO.P,P1,1*%
%TO.N,+5V*%
X105090000Y-69710000D03*
%TD*%
D11*
%TO.N,+5V*%
X108220000Y-65840000D03*
X114330000Y-76690000D03*
X115610000Y-76690000D03*
X107340000Y-66720000D03*
%TO.N,LED1 DATA OUT*%
X119520000Y-65970000D03*
%TO.N,GND*%
X93490000Y-70210000D03*
X119155268Y-68295268D03*
X92050000Y-69410000D03*
X119570000Y-69310000D03*
%TO.N,LED2 DATA OUT*%
X100080000Y-74320000D03*
%TD*%
D12*
%TO.N,+5V*%
X109090000Y-73900000D02*
X107979200Y-75010800D01*
X115610000Y-76690000D02*
X106769200Y-76690000D01*
X109090000Y-70820000D02*
X109090000Y-73900000D01*
X105090000Y-69710000D02*
X105090000Y-68970000D01*
X105090000Y-69710000D02*
X107980000Y-69710000D01*
X107979200Y-75010800D02*
X105090000Y-75010800D01*
X106769200Y-76690000D02*
X105090000Y-75010800D01*
X107980000Y-69710000D02*
X109090000Y-70820000D01*
X105090000Y-68970000D02*
X108220000Y-65840000D01*
D13*
%TO.N,LED1 DATA OUT*%
X116410000Y-63030000D02*
X117200000Y-63820000D01*
X117370000Y-63820000D02*
X119520000Y-65970000D01*
X105780000Y-63540000D02*
X106290000Y-63030000D01*
X106290000Y-63030000D02*
X116410000Y-63030000D01*
X117200000Y-63820000D02*
X117370000Y-63820000D01*
X99610000Y-69710000D02*
X105780000Y-63540000D01*
X97480000Y-69710000D02*
X99610000Y-69710000D01*
D12*
%TO.N,GND*%
X85920000Y-73600000D02*
X85920000Y-70750000D01*
X89950000Y-75010800D02*
X87330800Y-75010800D01*
X119560000Y-68680000D02*
X119560000Y-76580000D01*
X85920000Y-70750000D02*
X86960000Y-69710000D01*
X119560000Y-76580000D02*
X116720000Y-79420000D01*
X86960000Y-69710000D02*
X89950000Y-69710000D01*
X119180000Y-68300000D02*
X119560000Y-68680000D01*
X89950000Y-77270000D02*
X89950000Y-75010800D01*
X92050000Y-69410000D02*
X90250000Y-69410000D01*
X92100000Y-79420000D02*
X89950000Y-77270000D01*
X90250000Y-69410000D02*
X89950000Y-69710000D01*
X116720000Y-79420000D02*
X92100000Y-79420000D01*
X87330800Y-75010800D02*
X85920000Y-73600000D01*
X92050000Y-69410000D02*
X92690000Y-69410000D01*
X92690000Y-69410000D02*
X93490000Y-70210000D01*
X93490000Y-70210000D02*
X93560000Y-70280000D01*
D13*
%TO.N,LED2 DATA OUT*%
X98170800Y-74320000D02*
X97480000Y-75010800D01*
X100080000Y-74320000D02*
X98170800Y-74320000D01*
%TD*%
%TA.AperFunction,Conductor*%
%TO.N,GND*%
G36*
X103552985Y-50475967D02*
G01*
X103558700Y-50476126D01*
X104422701Y-50519895D01*
X104428402Y-50520314D01*
X105289504Y-50603228D01*
X105295180Y-50603905D01*
X106151650Y-50725799D01*
X106157286Y-50726732D01*
X107007315Y-50887347D01*
X107012907Y-50888535D01*
X107854822Y-51087555D01*
X107860355Y-51088997D01*
X108692322Y-51325989D01*
X108697780Y-51327678D01*
X109518189Y-51602183D01*
X109523549Y-51604113D01*
X110121501Y-51834844D01*
X110330658Y-51915551D01*
X110335908Y-51917715D01*
X111128098Y-52265462D01*
X111133225Y-52267853D01*
X111666797Y-52531560D01*
X111908766Y-52651149D01*
X111913833Y-52653798D01*
X112671208Y-53071892D01*
X112676149Y-53074767D01*
X113413761Y-53526776D01*
X113418566Y-53529873D01*
X114134901Y-54014868D01*
X114139562Y-54018180D01*
X114833195Y-54535198D01*
X114837668Y-54538694D01*
X115104489Y-54757084D01*
X115507124Y-55086637D01*
X115511465Y-55090358D01*
X116155346Y-55668079D01*
X116159514Y-55671992D01*
X116776563Y-56278364D01*
X116780548Y-56282463D01*
X117369415Y-56916160D01*
X117373211Y-56920435D01*
X117932755Y-57580226D01*
X117936353Y-57584670D01*
X118465361Y-58269127D01*
X118468754Y-58273728D01*
X118966199Y-58981521D01*
X118969379Y-58986272D01*
X119434187Y-59715875D01*
X119437149Y-59720765D01*
X119868379Y-60470696D01*
X119871116Y-60475716D01*
X120174909Y-61064302D01*
X120267899Y-61244467D01*
X120270398Y-61249593D01*
X120631900Y-62035553D01*
X120634151Y-62040755D01*
X120839208Y-62545748D01*
X120959631Y-62842316D01*
X120961661Y-62847660D01*
X121250434Y-63663127D01*
X121252219Y-63668557D01*
X121411225Y-64191906D01*
X121503705Y-64496296D01*
X121505240Y-64501796D01*
X121708644Y-65299777D01*
X121718918Y-65340085D01*
X121720201Y-65345643D01*
X121794085Y-65702414D01*
X121895632Y-66192767D01*
X121896664Y-66198390D01*
X122033484Y-67052589D01*
X122034260Y-67058253D01*
X122079790Y-67457865D01*
X122131912Y-67915328D01*
X122132192Y-67917788D01*
X122132709Y-67923472D01*
X122190987Y-68778302D01*
X122191549Y-68786549D01*
X122191808Y-68792242D01*
X122207004Y-69461887D01*
X122211453Y-69657928D01*
X122211478Y-69662102D01*
X122208040Y-69990444D01*
X122207313Y-70059826D01*
X122207200Y-70063996D01*
X122170921Y-70894948D01*
X122169432Y-70929041D01*
X122169054Y-70934730D01*
X122094545Y-71769592D01*
X122092152Y-71796403D01*
X122091517Y-71802068D01*
X122069724Y-71963250D01*
X121975602Y-72659391D01*
X121974712Y-72665014D01*
X121820025Y-73516195D01*
X121818883Y-73521759D01*
X121625745Y-74365044D01*
X121624342Y-74370586D01*
X121393163Y-75204191D01*
X121391511Y-75209664D01*
X121352768Y-75328200D01*
X121122739Y-76031974D01*
X121120858Y-76037316D01*
X120891335Y-76644732D01*
X120815058Y-76846592D01*
X120812917Y-76851890D01*
X120472429Y-77642497D01*
X120470735Y-77646430D01*
X120468361Y-77651615D01*
X120323422Y-77950105D01*
X120090486Y-78429817D01*
X120087876Y-78434896D01*
X119960300Y-78669863D01*
X119675087Y-79195160D01*
X119672246Y-79200121D01*
X119225389Y-79940883D01*
X119222325Y-79945710D01*
X118742350Y-80665401D01*
X118739071Y-80670085D01*
X118226917Y-81367300D01*
X118223429Y-81371829D01*
X117680191Y-82045070D01*
X117676501Y-82049437D01*
X117447189Y-82308627D01*
X117142557Y-82652953D01*
X117103268Y-82697361D01*
X117099390Y-82701548D01*
X116503938Y-83316007D01*
X116497354Y-83322801D01*
X116493290Y-83326808D01*
X115992083Y-83799121D01*
X115863703Y-83920101D01*
X115859454Y-83923927D01*
X115203599Y-84488051D01*
X115199181Y-84491680D01*
X114518424Y-85025461D01*
X114513847Y-85028885D01*
X113809539Y-85531264D01*
X113804810Y-85534478D01*
X113078476Y-86004364D01*
X113073615Y-86007355D01*
X112326686Y-86443825D01*
X112321700Y-86446589D01*
X111555736Y-86848729D01*
X111550635Y-86851261D01*
X111305226Y-86966219D01*
X110767227Y-87218236D01*
X110761996Y-87220543D01*
X109962752Y-87551601D01*
X109957422Y-87553668D01*
X109144003Y-87848121D01*
X109138584Y-87849945D01*
X108312625Y-88107203D01*
X108307129Y-88108779D01*
X107470359Y-88328301D01*
X107464798Y-88329626D01*
X106618917Y-88510968D01*
X106613301Y-88512039D01*
X105760063Y-88654822D01*
X105754424Y-88655635D01*
X105454255Y-88691959D01*
X104895603Y-88759563D01*
X104889913Y-88760121D01*
X104027275Y-88824983D01*
X104021566Y-88825283D01*
X103539370Y-88839594D01*
X103156809Y-88850948D01*
X103151112Y-88850987D01*
X102489394Y-88840592D01*
X102286149Y-88837399D01*
X102280436Y-88837180D01*
X101416959Y-88784368D01*
X101411262Y-88783890D01*
X100551049Y-88691959D01*
X100545379Y-88691222D01*
X100146562Y-88630195D01*
X99690230Y-88560366D01*
X99684642Y-88559381D01*
X99260467Y-88474622D01*
X98836314Y-88389868D01*
X98830734Y-88388621D01*
X98415109Y-88285765D01*
X97990949Y-88180795D01*
X97985474Y-88179308D01*
X97311287Y-87979604D01*
X97156001Y-87933606D01*
X97150558Y-87931859D01*
X96896058Y-87843731D01*
X96333068Y-87648778D01*
X96327736Y-87646795D01*
X95925832Y-87486858D01*
X95523941Y-87326926D01*
X95518678Y-87324692D01*
X94730220Y-86968690D01*
X94725064Y-86966219D01*
X94215787Y-86707848D01*
X93953589Y-86574827D01*
X93948560Y-86572131D01*
X93724323Y-86445264D01*
X93195600Y-86146127D01*
X93190710Y-86143211D01*
X92457849Y-85683489D01*
X92453126Y-85680375D01*
X91741872Y-85187879D01*
X91737270Y-85184537D01*
X91049086Y-84660280D01*
X91044618Y-84656713D01*
X90380945Y-84101797D01*
X90376644Y-84098031D01*
X89738850Y-83513600D01*
X89734723Y-83509643D01*
X89124069Y-82896853D01*
X89120127Y-82892713D01*
X88537916Y-82252872D01*
X88534165Y-82248557D01*
X87981578Y-81582964D01*
X87978026Y-81578483D01*
X87732590Y-81253957D01*
X87456183Y-80888482D01*
X87452846Y-80883854D01*
X87302708Y-80665401D01*
X86962852Y-80170908D01*
X86959722Y-80166124D01*
X86502587Y-79431707D01*
X86499676Y-79426786D01*
X86076310Y-78672355D01*
X86073626Y-78667307D01*
X85684925Y-77894462D01*
X85682473Y-77889298D01*
X85654050Y-77825758D01*
X85329230Y-77099614D01*
X85327017Y-77094350D01*
X85326498Y-77093033D01*
X85213224Y-76805469D01*
X88442001Y-76805469D01*
X88442371Y-76812290D01*
X88447895Y-76863152D01*
X88451521Y-76878404D01*
X88496676Y-76998854D01*
X88505214Y-77014449D01*
X88581715Y-77116524D01*
X88594276Y-77129085D01*
X88696351Y-77205586D01*
X88711946Y-77214124D01*
X88832394Y-77259278D01*
X88847649Y-77262905D01*
X88898514Y-77268431D01*
X88905328Y-77268800D01*
X89677885Y-77268800D01*
X89693124Y-77264325D01*
X89694329Y-77262935D01*
X89696000Y-77255252D01*
X89696000Y-77250684D01*
X90204000Y-77250684D01*
X90208475Y-77265923D01*
X90209865Y-77267128D01*
X90217548Y-77268799D01*
X90994669Y-77268799D01*
X91001490Y-77268429D01*
X91052352Y-77262905D01*
X91067604Y-77259279D01*
X91188054Y-77214124D01*
X91203649Y-77205586D01*
X91305724Y-77129085D01*
X91318285Y-77116524D01*
X91394786Y-77014449D01*
X91403324Y-76998854D01*
X91448478Y-76878406D01*
X91452105Y-76863151D01*
X91457631Y-76812286D01*
X91458000Y-76805472D01*
X91458000Y-75282915D01*
X91453525Y-75267676D01*
X91452135Y-75266471D01*
X91444452Y-75264800D01*
X90222115Y-75264800D01*
X90206876Y-75269275D01*
X90205671Y-75270665D01*
X90204000Y-75278348D01*
X90204000Y-77250684D01*
X89696000Y-77250684D01*
X89696000Y-75282915D01*
X89691525Y-75267676D01*
X89690135Y-75266471D01*
X89682452Y-75264800D01*
X88460116Y-75264800D01*
X88444877Y-75269275D01*
X88443672Y-75270665D01*
X88442001Y-75278348D01*
X88442001Y-76805469D01*
X85213224Y-76805469D01*
X85009956Y-76289443D01*
X85007985Y-76284086D01*
X84727762Y-75465621D01*
X84726034Y-75460171D01*
X84483240Y-74629878D01*
X84481760Y-74624356D01*
X84276873Y-73783877D01*
X84275645Y-73778293D01*
X84109094Y-72929379D01*
X84108121Y-72923745D01*
X84090184Y-72803724D01*
X87320838Y-72803724D01*
X87322778Y-72818563D01*
X87323038Y-72820696D01*
X87338452Y-72957475D01*
X87387474Y-73097553D01*
X87466440Y-73223209D01*
X87571391Y-73328140D01*
X87697062Y-73407082D01*
X87703737Y-73409417D01*
X87703740Y-73409418D01*
X87767106Y-73431579D01*
X87837150Y-73456077D01*
X87844182Y-73456868D01*
X87926842Y-73466167D01*
X87933635Y-73467119D01*
X87967279Y-73472772D01*
X87972076Y-73473578D01*
X87984628Y-73473729D01*
X88012193Y-73469776D01*
X88030079Y-73468500D01*
X88316000Y-73468500D01*
X88384121Y-73488502D01*
X88430614Y-73542158D01*
X88442000Y-73594500D01*
X88442000Y-74738685D01*
X88446475Y-74753924D01*
X88447865Y-74755129D01*
X88455548Y-74756800D01*
X91439884Y-74756800D01*
X91455123Y-74752325D01*
X91456328Y-74750935D01*
X91457999Y-74743252D01*
X91457999Y-73594500D01*
X91478001Y-73526379D01*
X91531657Y-73479886D01*
X91583999Y-73468500D01*
X91931344Y-73468500D01*
X91952222Y-73470242D01*
X91959614Y-73471484D01*
X91967284Y-73472773D01*
X91967287Y-73472773D01*
X91972076Y-73473578D01*
X91984628Y-73473729D01*
X91989445Y-73473038D01*
X91989448Y-73473038D01*
X92016577Y-73469148D01*
X92020331Y-73468667D01*
X92125044Y-73456849D01*
X92132071Y-73456056D01*
X92272115Y-73407029D01*
X92278107Y-73403263D01*
X92278109Y-73403262D01*
X92391748Y-73331838D01*
X92391750Y-73331837D01*
X92397741Y-73328071D01*
X92502651Y-73223141D01*
X92544168Y-73157056D01*
X92577821Y-73103490D01*
X92577823Y-73103486D01*
X92581584Y-73097500D01*
X92583918Y-73090830D01*
X92583920Y-73090825D01*
X92628249Y-72964124D01*
X92628250Y-72964120D01*
X92630585Y-72957446D01*
X92640690Y-72867751D01*
X92641642Y-72860967D01*
X92647298Y-72827353D01*
X92647299Y-72827343D01*
X92648105Y-72822552D01*
X92648258Y-72810000D01*
X92647359Y-72803724D01*
X94820838Y-72803724D01*
X94822778Y-72818563D01*
X94823038Y-72820696D01*
X94838452Y-72957475D01*
X94887474Y-73097553D01*
X94966440Y-73223209D01*
X95071391Y-73328140D01*
X95197062Y-73407082D01*
X95203737Y-73409417D01*
X95203740Y-73409418D01*
X95267106Y-73431579D01*
X95337150Y-73456077D01*
X95344182Y-73456868D01*
X95426842Y-73466167D01*
X95433635Y-73467119D01*
X95467279Y-73472772D01*
X95472076Y-73473578D01*
X95484628Y-73473729D01*
X95512193Y-73469776D01*
X95530079Y-73468500D01*
X95845500Y-73468500D01*
X95913621Y-73488502D01*
X95960114Y-73542158D01*
X95971500Y-73594500D01*
X95971500Y-76808934D01*
X95978255Y-76871116D01*
X96029385Y-77007505D01*
X96116739Y-77124061D01*
X96233295Y-77211415D01*
X96369684Y-77262545D01*
X96431866Y-77269300D01*
X98528134Y-77269300D01*
X98590316Y-77262545D01*
X98726705Y-77211415D01*
X98843261Y-77124061D01*
X98930615Y-77007505D01*
X98981745Y-76871116D01*
X98988500Y-76808934D01*
X98988500Y-75454500D01*
X99008502Y-75386379D01*
X99062158Y-75339886D01*
X99114500Y-75328500D01*
X100129769Y-75328500D01*
X100132825Y-75328200D01*
X100132832Y-75328200D01*
X100191340Y-75322463D01*
X100276833Y-75314080D01*
X100282734Y-75312298D01*
X100282736Y-75312298D01*
X100395183Y-75278348D01*
X100466169Y-75256916D01*
X100640796Y-75164066D01*
X100727062Y-75093709D01*
X100789287Y-75042960D01*
X100789290Y-75042957D01*
X100794062Y-75039065D01*
X100807215Y-75023166D01*
X100916201Y-74891425D01*
X100916203Y-74891421D01*
X100920130Y-74886675D01*
X101014198Y-74712701D01*
X101072682Y-74523768D01*
X101080536Y-74449044D01*
X101092711Y-74333204D01*
X101092711Y-74333202D01*
X101093355Y-74327075D01*
X101084624Y-74231138D01*
X101075989Y-74136251D01*
X101075988Y-74136248D01*
X101075430Y-74130112D01*
X101019590Y-73940381D01*
X100990006Y-73883791D01*
X100937771Y-73783877D01*
X100927960Y-73765110D01*
X100804032Y-73610975D01*
X100652526Y-73483846D01*
X100647128Y-73480879D01*
X100647123Y-73480875D01*
X100484608Y-73391533D01*
X100484609Y-73391533D01*
X100479213Y-73388567D01*
X100473346Y-73386706D01*
X100473344Y-73386705D01*
X100296564Y-73330627D01*
X100296563Y-73330627D01*
X100290694Y-73328765D01*
X100158995Y-73313993D01*
X100093530Y-73286522D01*
X100053307Y-73228018D01*
X100051100Y-73157056D01*
X100066347Y-73121753D01*
X100081584Y-73097500D01*
X100083918Y-73090830D01*
X100083920Y-73090825D01*
X100128249Y-72964124D01*
X100128250Y-72964120D01*
X100130585Y-72957446D01*
X100140690Y-72867751D01*
X100141642Y-72860967D01*
X100147298Y-72827353D01*
X100147299Y-72827343D01*
X100148105Y-72822552D01*
X100148258Y-72810000D01*
X100144302Y-72782376D01*
X100143029Y-72764514D01*
X100143029Y-71963250D01*
X100144775Y-71942345D01*
X100147299Y-71927344D01*
X100147299Y-71927341D01*
X100148105Y-71922552D01*
X100148258Y-71910000D01*
X100143413Y-71876171D01*
X100142933Y-71872420D01*
X100142224Y-71866121D01*
X100130557Y-71762561D01*
X100081558Y-71622513D01*
X100002628Y-71496877D01*
X99897723Y-71391952D01*
X99772103Y-71312997D01*
X99632064Y-71263972D01*
X99542396Y-71253852D01*
X99535613Y-71252900D01*
X99497180Y-71246426D01*
X99490269Y-71246341D01*
X99489493Y-71246331D01*
X99489492Y-71246331D01*
X99484628Y-71246271D01*
X99479819Y-71246959D01*
X99479815Y-71246959D01*
X99456938Y-71250231D01*
X99439100Y-71251500D01*
X99114500Y-71251500D01*
X99046379Y-71231498D01*
X98999886Y-71177842D01*
X98988500Y-71125500D01*
X98988500Y-70844500D01*
X99008502Y-70776379D01*
X99062158Y-70729886D01*
X99114500Y-70718500D01*
X99548157Y-70718500D01*
X99561764Y-70719237D01*
X99593262Y-70722659D01*
X99593267Y-70722659D01*
X99599388Y-70723324D01*
X99625638Y-70721027D01*
X99649388Y-70718950D01*
X99654214Y-70718621D01*
X99656686Y-70718500D01*
X99659769Y-70718500D01*
X99671738Y-70717326D01*
X99702506Y-70714310D01*
X99703819Y-70714188D01*
X99748084Y-70710315D01*
X99796413Y-70706087D01*
X99801532Y-70704600D01*
X99806833Y-70704080D01*
X99895834Y-70677209D01*
X99896967Y-70676874D01*
X99980414Y-70652630D01*
X99980418Y-70652628D01*
X99986336Y-70650909D01*
X99991068Y-70648456D01*
X99996169Y-70646916D01*
X100026047Y-70631030D01*
X100078260Y-70603269D01*
X100079426Y-70602657D01*
X100156453Y-70562729D01*
X100161926Y-70559892D01*
X100166089Y-70556569D01*
X100170796Y-70554066D01*
X100242918Y-70495245D01*
X100243774Y-70494554D01*
X100282973Y-70463262D01*
X100285477Y-70460758D01*
X100286195Y-70460116D01*
X100290528Y-70456415D01*
X100324062Y-70429065D01*
X100353288Y-70393737D01*
X100361277Y-70384958D01*
X106452963Y-64293271D01*
X106452970Y-64293265D01*
X106670830Y-64075405D01*
X106733142Y-64041379D01*
X106759925Y-64038500D01*
X112326050Y-64038500D01*
X112394171Y-64058502D01*
X112440664Y-64112158D01*
X112450768Y-64182432D01*
X112421274Y-64247012D01*
X112415145Y-64253595D01*
X112371906Y-64296834D01*
X112292958Y-64422480D01*
X112290622Y-64429157D01*
X112254288Y-64532992D01*
X112243947Y-64562543D01*
X112243155Y-64569573D01*
X112243154Y-64569577D01*
X112232870Y-64660855D01*
X112232162Y-64666133D01*
X112226309Y-64703724D01*
X112227473Y-64712626D01*
X112227473Y-64712628D01*
X112228771Y-64722552D01*
X112229677Y-64729476D01*
X112230436Y-64735283D01*
X112231500Y-64751621D01*
X112231500Y-74560633D01*
X112230000Y-74580018D01*
X112227690Y-74594851D01*
X112227690Y-74594855D01*
X112226309Y-74603724D01*
X112227473Y-74612626D01*
X112227473Y-74612629D01*
X112228449Y-74620090D01*
X112228721Y-74622320D01*
X112243061Y-74749590D01*
X112243947Y-74757457D01*
X112292958Y-74897520D01*
X112371906Y-75023166D01*
X112476834Y-75128094D01*
X112589384Y-75198814D01*
X112636421Y-75251991D01*
X112647242Y-75322158D01*
X112618410Y-75387036D01*
X112559078Y-75426028D01*
X112522348Y-75431500D01*
X109642478Y-75431500D01*
X109574357Y-75411498D01*
X109527864Y-75357842D01*
X109517760Y-75287568D01*
X109547254Y-75222988D01*
X109553383Y-75216404D01*
X109637929Y-75131859D01*
X109915267Y-74854521D01*
X109927658Y-74843654D01*
X109940841Y-74833538D01*
X109945292Y-74830123D01*
X109949065Y-74825977D01*
X109949070Y-74825972D01*
X110000149Y-74769836D01*
X110004247Y-74765541D01*
X110020198Y-74749590D01*
X110036942Y-74729564D01*
X110040401Y-74725599D01*
X110047208Y-74718119D01*
X110096485Y-74663964D01*
X110106016Y-74648770D01*
X110116085Y-74634910D01*
X110127593Y-74621147D01*
X110168869Y-74548782D01*
X110171579Y-74544253D01*
X110212885Y-74478405D01*
X110215864Y-74473656D01*
X110222553Y-74457017D01*
X110230012Y-74441587D01*
X110236119Y-74430881D01*
X110236123Y-74430872D01*
X110238898Y-74426007D01*
X110266712Y-74347462D01*
X110268573Y-74342537D01*
X110297561Y-74270428D01*
X110299656Y-74265217D01*
X110303296Y-74247639D01*
X110307902Y-74231146D01*
X110313888Y-74214241D01*
X110327352Y-74132021D01*
X110328314Y-74126833D01*
X110344276Y-74049756D01*
X110345213Y-74045233D01*
X110346816Y-74017437D01*
X110348263Y-74004331D01*
X110349286Y-73998086D01*
X110349287Y-73998079D01*
X110350193Y-73992543D01*
X110348516Y-73885769D01*
X110348500Y-73883791D01*
X110348500Y-70911395D01*
X110349578Y-70894948D01*
X110351746Y-70878483D01*
X110351746Y-70878479D01*
X110352479Y-70872913D01*
X110348640Y-70791511D01*
X110348500Y-70785576D01*
X110348500Y-70763001D01*
X110346181Y-70737011D01*
X110345822Y-70731749D01*
X110342160Y-70654113D01*
X110341896Y-70648512D01*
X110337892Y-70631030D01*
X110335211Y-70614100D01*
X110334116Y-70601832D01*
X110333617Y-70596238D01*
X110311630Y-70515867D01*
X110310344Y-70510749D01*
X110292995Y-70435000D01*
X110292994Y-70434998D01*
X110291742Y-70429530D01*
X110284706Y-70413033D01*
X110279073Y-70396858D01*
X110275817Y-70384958D01*
X110275816Y-70384956D01*
X110274337Y-70379549D01*
X110238461Y-70304333D01*
X110236290Y-70299524D01*
X110205804Y-70228051D01*
X110205804Y-70228050D01*
X110203603Y-70222891D01*
X110193749Y-70207890D01*
X110185343Y-70192970D01*
X110180035Y-70181841D01*
X110177622Y-70176782D01*
X110128994Y-70109108D01*
X110126011Y-70104768D01*
X110082804Y-70038990D01*
X110082798Y-70038982D01*
X110080265Y-70035126D01*
X110061743Y-70014338D01*
X110053506Y-70004056D01*
X110049799Y-69998897D01*
X110046529Y-69994346D01*
X109969747Y-69919939D01*
X109968337Y-69918550D01*
X108934525Y-68884737D01*
X108923657Y-68872346D01*
X108913538Y-68859159D01*
X108910123Y-68854708D01*
X108905977Y-68850935D01*
X108905972Y-68850930D01*
X108849836Y-68799851D01*
X108845541Y-68795753D01*
X108829590Y-68779802D01*
X108827440Y-68778004D01*
X108809577Y-68763068D01*
X108805602Y-68759600D01*
X108748112Y-68707288D01*
X108748103Y-68707281D01*
X108743964Y-68703515D01*
X108728773Y-68693986D01*
X108714907Y-68683911D01*
X108705451Y-68676004D01*
X108705441Y-68675997D01*
X108701146Y-68672406D01*
X108628752Y-68631113D01*
X108624232Y-68628408D01*
X108558404Y-68587114D01*
X108558401Y-68587112D01*
X108553656Y-68584136D01*
X108548451Y-68582043D01*
X108548448Y-68582042D01*
X108537021Y-68577448D01*
X108521589Y-68569988D01*
X108510881Y-68563880D01*
X108510872Y-68563876D01*
X108506007Y-68561101D01*
X108500730Y-68559232D01*
X108500725Y-68559230D01*
X108427458Y-68533285D01*
X108422522Y-68531420D01*
X108350416Y-68502434D01*
X108345217Y-68500344D01*
X108339730Y-68499208D01*
X108339728Y-68499207D01*
X108327651Y-68496706D01*
X108311156Y-68492101D01*
X108294241Y-68486111D01*
X108211990Y-68472641D01*
X108206820Y-68471683D01*
X108125233Y-68454787D01*
X108120621Y-68454521D01*
X108120620Y-68454521D01*
X108097452Y-68453185D01*
X108084347Y-68451738D01*
X108078090Y-68450714D01*
X108078086Y-68450714D01*
X108072543Y-68449806D01*
X108066930Y-68449894D01*
X108066928Y-68449894D01*
X107965736Y-68451484D01*
X107963757Y-68451500D01*
X107692477Y-68451500D01*
X107624356Y-68431498D01*
X107577863Y-68377842D01*
X107567759Y-68307568D01*
X107597253Y-68242988D01*
X107603382Y-68236405D01*
X108324574Y-67515214D01*
X109150198Y-66689590D01*
X109257593Y-66561147D01*
X109368898Y-66366007D01*
X109433664Y-66183114D01*
X109442015Y-66159531D01*
X109442016Y-66159528D01*
X109443888Y-66154241D01*
X109480193Y-65932543D01*
X109476665Y-65707919D01*
X109475585Y-65702414D01*
X109434496Y-65492979D01*
X109434495Y-65492975D01*
X109433415Y-65487471D01*
X109408490Y-65423540D01*
X109353845Y-65283385D01*
X109351810Y-65278165D01*
X109234430Y-65086618D01*
X109084984Y-64918886D01*
X108993556Y-64847196D01*
X108912614Y-64783728D01*
X108912609Y-64783725D01*
X108908198Y-64780266D01*
X108903247Y-64777645D01*
X108903243Y-64777642D01*
X108714619Y-64677772D01*
X108714618Y-64677771D01*
X108709659Y-64675146D01*
X108495643Y-64606844D01*
X108490086Y-64606112D01*
X108490084Y-64606112D01*
X108384278Y-64592183D01*
X108272913Y-64577521D01*
X108267314Y-64577785D01*
X108267312Y-64577785D01*
X108160712Y-64582813D01*
X108048511Y-64588104D01*
X107959245Y-64608549D01*
X107834995Y-64637006D01*
X107834992Y-64637007D01*
X107829530Y-64638258D01*
X107747049Y-64673439D01*
X107628048Y-64724197D01*
X107628045Y-64724199D01*
X107622891Y-64726397D01*
X107618206Y-64729474D01*
X107618203Y-64729476D01*
X107438990Y-64847196D01*
X107435125Y-64849735D01*
X107392490Y-64887722D01*
X104865617Y-67414595D01*
X104803305Y-67448621D01*
X104776522Y-67451500D01*
X104041866Y-67451500D01*
X103979684Y-67458255D01*
X103843295Y-67509385D01*
X103726739Y-67596739D01*
X103639385Y-67713295D01*
X103588255Y-67849684D01*
X103581500Y-67911866D01*
X103581500Y-71125500D01*
X103561498Y-71193621D01*
X103507842Y-71240114D01*
X103455500Y-71251500D01*
X103037843Y-71251500D01*
X103016914Y-71249750D01*
X103013026Y-71249095D01*
X102997180Y-71246426D01*
X102990207Y-71246340D01*
X102989492Y-71246331D01*
X102989491Y-71246331D01*
X102984628Y-71246271D01*
X102979820Y-71246959D01*
X102979814Y-71246959D01*
X102950741Y-71251117D01*
X102946988Y-71251596D01*
X102876104Y-71259570D01*
X102837156Y-71263951D01*
X102830483Y-71266285D01*
X102830478Y-71266286D01*
X102703753Y-71310608D01*
X102703750Y-71310609D01*
X102697075Y-71312944D01*
X102571409Y-71391883D01*
X102466463Y-71496809D01*
X102387500Y-71622459D01*
X102338480Y-71762531D01*
X102334023Y-71802084D01*
X102327401Y-71860845D01*
X102326693Y-71866118D01*
X102320838Y-71903724D01*
X102322002Y-71912626D01*
X102322002Y-71912628D01*
X102324965Y-71935283D01*
X102326029Y-71951621D01*
X102326029Y-72760633D01*
X102324529Y-72780018D01*
X102322219Y-72794851D01*
X102322219Y-72794855D01*
X102320838Y-72803724D01*
X102322778Y-72818563D01*
X102323038Y-72820696D01*
X102338452Y-72957475D01*
X102387474Y-73097553D01*
X102466440Y-73223209D01*
X102571391Y-73328140D01*
X102697062Y-73407082D01*
X102703737Y-73409417D01*
X102703740Y-73409418D01*
X102767106Y-73431579D01*
X102837150Y-73456077D01*
X102844182Y-73456868D01*
X102926842Y-73466167D01*
X102933635Y-73467119D01*
X102967279Y-73472772D01*
X102972076Y-73473578D01*
X102984628Y-73473729D01*
X103012193Y-73469776D01*
X103030079Y-73468500D01*
X103455500Y-73468500D01*
X103523621Y-73488502D01*
X103570114Y-73542158D01*
X103581500Y-73594500D01*
X103581500Y-76808934D01*
X103588255Y-76871116D01*
X103639385Y-77007505D01*
X103726739Y-77124061D01*
X103843295Y-77211415D01*
X103979684Y-77262545D01*
X104041866Y-77269300D01*
X105516522Y-77269300D01*
X105584643Y-77289302D01*
X105605617Y-77306205D01*
X105814675Y-77515263D01*
X105825542Y-77527653D01*
X105839077Y-77545292D01*
X105898994Y-77599812D01*
X105899374Y-77600158D01*
X105903669Y-77604257D01*
X105919610Y-77620198D01*
X105939636Y-77636942D01*
X105943591Y-77640392D01*
X106005236Y-77696485D01*
X106009990Y-77699467D01*
X106020430Y-77706016D01*
X106034290Y-77716085D01*
X106048053Y-77727593D01*
X106052934Y-77730377D01*
X106120418Y-77768869D01*
X106124948Y-77771579D01*
X106195544Y-77815864D01*
X106200748Y-77817956D01*
X106212183Y-77822553D01*
X106227613Y-77830012D01*
X106238319Y-77836119D01*
X106238328Y-77836123D01*
X106243193Y-77838898D01*
X106321738Y-77866712D01*
X106326650Y-77868568D01*
X106403983Y-77899656D01*
X106421561Y-77903296D01*
X106438054Y-77907902D01*
X106454959Y-77913888D01*
X106460493Y-77914794D01*
X106460496Y-77914795D01*
X106537177Y-77927352D01*
X106542349Y-77928311D01*
X106623967Y-77945213D01*
X106639598Y-77946114D01*
X106651763Y-77946816D01*
X106664869Y-77948263D01*
X106671114Y-77949286D01*
X106671121Y-77949287D01*
X106676657Y-77950193D01*
X106682271Y-77950105D01*
X106682273Y-77950105D01*
X106783430Y-77948516D01*
X106785409Y-77948500D01*
X115666999Y-77948500D01*
X115669786Y-77948251D01*
X115669792Y-77948251D01*
X115739929Y-77941991D01*
X115833762Y-77933617D01*
X115839176Y-77932136D01*
X115839181Y-77932135D01*
X115995763Y-77889298D01*
X116050451Y-77874337D01*
X116055509Y-77871925D01*
X116055513Y-77871923D01*
X116173042Y-77815864D01*
X116253218Y-77777622D01*
X116435654Y-77646529D01*
X116591992Y-77485201D01*
X116717290Y-77298738D01*
X116807588Y-77093033D01*
X116826397Y-77014691D01*
X116858722Y-76880046D01*
X116858722Y-76880045D01*
X116860032Y-76874589D01*
X116872963Y-76650310D01*
X116845975Y-76427285D01*
X116779918Y-76212565D01*
X116676882Y-76012936D01*
X116540123Y-75834708D01*
X116373964Y-75683515D01*
X116369217Y-75680537D01*
X116369214Y-75680535D01*
X116188405Y-75567115D01*
X116183656Y-75564136D01*
X115975217Y-75480344D01*
X115755233Y-75434787D01*
X115750622Y-75434521D01*
X115750621Y-75434521D01*
X115700048Y-75431605D01*
X115700044Y-75431605D01*
X115698225Y-75431500D01*
X115337652Y-75431500D01*
X115269531Y-75411498D01*
X115223038Y-75357842D01*
X115212934Y-75287568D01*
X115242428Y-75222988D01*
X115270614Y-75198815D01*
X115383166Y-75128094D01*
X115488094Y-75023166D01*
X115567042Y-74897520D01*
X115616053Y-74757457D01*
X115626157Y-74667775D01*
X115627111Y-74660977D01*
X115632770Y-74627343D01*
X115632770Y-74627342D01*
X115633576Y-74622552D01*
X115633729Y-74610000D01*
X115629773Y-74582376D01*
X115628500Y-74564514D01*
X115628500Y-64763250D01*
X115630246Y-64742345D01*
X115632770Y-64727344D01*
X115632770Y-64727341D01*
X115633576Y-64722552D01*
X115633729Y-64710000D01*
X115629016Y-64677088D01*
X115628540Y-64673369D01*
X115619862Y-64596348D01*
X115616053Y-64562543D01*
X115605713Y-64532992D01*
X115569378Y-64429157D01*
X115567042Y-64422480D01*
X115488094Y-64296834D01*
X115444855Y-64253595D01*
X115410829Y-64191283D01*
X115415894Y-64120468D01*
X115458441Y-64063632D01*
X115524961Y-64038821D01*
X115533950Y-64038500D01*
X115940074Y-64038500D01*
X116008195Y-64058502D01*
X116029169Y-64075404D01*
X116443149Y-64489383D01*
X116452251Y-64499527D01*
X116475968Y-64529025D01*
X116480696Y-64532992D01*
X116514421Y-64561291D01*
X116518069Y-64564472D01*
X116519881Y-64566115D01*
X116522075Y-64568309D01*
X116555349Y-64595642D01*
X116556147Y-64596304D01*
X116627474Y-64656154D01*
X116632144Y-64658722D01*
X116636261Y-64662103D01*
X116716624Y-64705193D01*
X116718120Y-64705995D01*
X116719280Y-64706624D01*
X116795389Y-64748466D01*
X116795394Y-64748468D01*
X116800787Y-64751433D01*
X116805865Y-64753044D01*
X116810563Y-64755563D01*
X116879232Y-64776557D01*
X116879571Y-64776661D01*
X116931826Y-64808060D01*
X118842075Y-66718309D01*
X118956261Y-66812103D01*
X119130563Y-66905562D01*
X119239219Y-66938782D01*
X119313800Y-66961584D01*
X119313802Y-66961584D01*
X119319698Y-66963387D01*
X119377551Y-66969264D01*
X119510334Y-66982752D01*
X119510339Y-66982752D01*
X119516462Y-66983374D01*
X119640525Y-66971646D01*
X119707229Y-66965341D01*
X119707231Y-66965341D01*
X119713362Y-66964761D01*
X119808129Y-66936510D01*
X119896993Y-66910019D01*
X119896995Y-66910018D01*
X119902896Y-66908259D01*
X120077846Y-66816018D01*
X120231547Y-66691553D01*
X120358146Y-66539604D01*
X120452822Y-66365959D01*
X120511965Y-66177232D01*
X120514927Y-66149972D01*
X120532659Y-65986736D01*
X120532659Y-65986732D01*
X120533324Y-65980611D01*
X120516087Y-65783587D01*
X120514368Y-65777670D01*
X120514367Y-65777665D01*
X120462627Y-65599578D01*
X120460909Y-65593664D01*
X120369892Y-65418074D01*
X120312082Y-65345656D01*
X120275458Y-65299777D01*
X120275451Y-65299770D01*
X120273262Y-65297027D01*
X118126855Y-63150621D01*
X118117753Y-63140478D01*
X118097897Y-63115782D01*
X118094032Y-63110975D01*
X118055578Y-63078708D01*
X118051931Y-63075528D01*
X118050119Y-63073885D01*
X118047925Y-63071691D01*
X118014651Y-63044358D01*
X118013853Y-63043696D01*
X117942526Y-62983846D01*
X117937856Y-62981278D01*
X117933739Y-62977897D01*
X117851914Y-62934023D01*
X117850755Y-62933394D01*
X117774619Y-62891538D01*
X117774611Y-62891535D01*
X117769213Y-62888567D01*
X117764131Y-62886955D01*
X117759437Y-62884438D01*
X117753539Y-62882635D01*
X117753537Y-62882634D01*
X117690432Y-62863341D01*
X117638176Y-62831942D01*
X117166855Y-62360621D01*
X117157753Y-62350478D01*
X117137897Y-62325782D01*
X117134032Y-62320975D01*
X117095578Y-62288708D01*
X117091931Y-62285528D01*
X117090119Y-62283885D01*
X117087925Y-62281691D01*
X117054651Y-62254358D01*
X117053853Y-62253696D01*
X116982526Y-62193846D01*
X116977856Y-62191278D01*
X116973739Y-62187897D01*
X116891914Y-62144023D01*
X116890755Y-62143394D01*
X116814619Y-62101538D01*
X116814611Y-62101535D01*
X116809213Y-62098567D01*
X116804131Y-62096955D01*
X116799437Y-62094438D01*
X116710469Y-62067238D01*
X116709441Y-62066918D01*
X116620694Y-62038765D01*
X116615398Y-62038171D01*
X116610302Y-62036613D01*
X116517743Y-62027210D01*
X116516607Y-62027089D01*
X116482992Y-62023319D01*
X116470270Y-62021892D01*
X116470266Y-62021892D01*
X116466773Y-62021500D01*
X116463246Y-62021500D01*
X116462261Y-62021445D01*
X116456581Y-62020998D01*
X116427175Y-62018011D01*
X116419663Y-62017248D01*
X116419661Y-62017248D01*
X116413538Y-62016626D01*
X116371259Y-62020623D01*
X116367891Y-62020941D01*
X116356033Y-62021500D01*
X106351843Y-62021500D01*
X106338236Y-62020763D01*
X106306738Y-62017341D01*
X106306733Y-62017341D01*
X106300612Y-62016676D01*
X106274362Y-62018973D01*
X106250612Y-62021050D01*
X106245786Y-62021379D01*
X106243314Y-62021500D01*
X106240231Y-62021500D01*
X106228262Y-62022674D01*
X106197494Y-62025690D01*
X106196181Y-62025812D01*
X106151916Y-62029685D01*
X106103587Y-62033913D01*
X106098468Y-62035400D01*
X106093167Y-62035920D01*
X106004166Y-62062791D01*
X106003033Y-62063126D01*
X105919586Y-62087370D01*
X105919582Y-62087372D01*
X105913664Y-62089091D01*
X105908932Y-62091544D01*
X105903831Y-62093084D01*
X105898388Y-62095978D01*
X105821740Y-62136731D01*
X105820574Y-62137343D01*
X105743547Y-62177271D01*
X105738074Y-62180108D01*
X105733911Y-62183431D01*
X105729204Y-62185934D01*
X105657082Y-62244755D01*
X105656226Y-62245446D01*
X105617027Y-62276738D01*
X105614523Y-62279242D01*
X105613805Y-62279884D01*
X105609472Y-62283585D01*
X105575938Y-62310935D01*
X105546706Y-62346270D01*
X105538729Y-62355036D01*
X105107028Y-62786738D01*
X99229171Y-68664595D01*
X99166858Y-68698620D01*
X99140075Y-68701500D01*
X99114500Y-68701500D01*
X99046379Y-68681498D01*
X98999886Y-68627842D01*
X98988500Y-68575500D01*
X98988500Y-67911866D01*
X98981745Y-67849684D01*
X98930615Y-67713295D01*
X98843261Y-67596739D01*
X98726705Y-67509385D01*
X98590316Y-67458255D01*
X98528134Y-67451500D01*
X96431866Y-67451500D01*
X96369684Y-67458255D01*
X96233295Y-67509385D01*
X96116739Y-67596739D01*
X96029385Y-67713295D01*
X95978255Y-67849684D01*
X95971500Y-67911866D01*
X95971500Y-71125500D01*
X95951498Y-71193621D01*
X95897842Y-71240114D01*
X95845500Y-71251500D01*
X95537843Y-71251500D01*
X95516914Y-71249750D01*
X95513026Y-71249095D01*
X95497180Y-71246426D01*
X95490207Y-71246340D01*
X95489492Y-71246331D01*
X95489491Y-71246331D01*
X95484628Y-71246271D01*
X95479820Y-71246959D01*
X95479814Y-71246959D01*
X95450741Y-71251117D01*
X95446988Y-71251596D01*
X95376104Y-71259570D01*
X95337156Y-71263951D01*
X95330483Y-71266285D01*
X95330478Y-71266286D01*
X95203753Y-71310608D01*
X95203750Y-71310609D01*
X95197075Y-71312944D01*
X95071409Y-71391883D01*
X94966463Y-71496809D01*
X94887500Y-71622459D01*
X94838480Y-71762531D01*
X94834023Y-71802084D01*
X94827401Y-71860845D01*
X94826693Y-71866118D01*
X94820838Y-71903724D01*
X94822002Y-71912626D01*
X94822002Y-71912628D01*
X94824965Y-71935283D01*
X94826029Y-71951621D01*
X94826029Y-72760633D01*
X94824529Y-72780018D01*
X94822219Y-72794851D01*
X94822219Y-72794855D01*
X94820838Y-72803724D01*
X92647359Y-72803724D01*
X92644302Y-72782376D01*
X92643029Y-72764514D01*
X92643029Y-71963250D01*
X92644775Y-71942345D01*
X92647299Y-71927344D01*
X92647299Y-71927341D01*
X92648105Y-71922552D01*
X92648258Y-71910000D01*
X92643413Y-71876171D01*
X92642933Y-71872420D01*
X92642224Y-71866121D01*
X92630557Y-71762561D01*
X92581558Y-71622513D01*
X92502628Y-71496877D01*
X92397723Y-71391952D01*
X92272103Y-71312997D01*
X92132064Y-71263972D01*
X92042396Y-71253852D01*
X92035613Y-71252900D01*
X91997180Y-71246426D01*
X91990269Y-71246341D01*
X91989493Y-71246331D01*
X91989492Y-71246331D01*
X91984628Y-71246271D01*
X91979819Y-71246959D01*
X91979815Y-71246959D01*
X91956938Y-71250231D01*
X91939100Y-71251500D01*
X91584000Y-71251500D01*
X91515879Y-71231498D01*
X91469386Y-71177842D01*
X91458000Y-71125500D01*
X91458000Y-69982115D01*
X91453525Y-69966876D01*
X91452135Y-69965671D01*
X91444452Y-69964000D01*
X88460116Y-69964000D01*
X88444877Y-69968475D01*
X88443672Y-69969865D01*
X88442001Y-69977548D01*
X88442001Y-71125500D01*
X88421999Y-71193621D01*
X88368343Y-71240114D01*
X88316001Y-71251500D01*
X88037843Y-71251500D01*
X88016914Y-71249750D01*
X88013026Y-71249095D01*
X87997180Y-71246426D01*
X87990207Y-71246340D01*
X87989492Y-71246331D01*
X87989491Y-71246331D01*
X87984628Y-71246271D01*
X87979820Y-71246959D01*
X87979814Y-71246959D01*
X87950741Y-71251117D01*
X87946988Y-71251596D01*
X87876104Y-71259570D01*
X87837156Y-71263951D01*
X87830483Y-71266285D01*
X87830478Y-71266286D01*
X87703753Y-71310608D01*
X87703750Y-71310609D01*
X87697075Y-71312944D01*
X87571409Y-71391883D01*
X87466463Y-71496809D01*
X87387500Y-71622459D01*
X87338480Y-71762531D01*
X87334023Y-71802084D01*
X87327401Y-71860845D01*
X87326693Y-71866118D01*
X87320838Y-71903724D01*
X87322002Y-71912626D01*
X87322002Y-71912628D01*
X87324965Y-71935283D01*
X87326029Y-71951621D01*
X87326029Y-72760633D01*
X87324529Y-72780018D01*
X87322219Y-72794851D01*
X87322219Y-72794855D01*
X87320838Y-72803724D01*
X84090184Y-72803724D01*
X84037544Y-72451500D01*
X83980254Y-72068165D01*
X83979538Y-72062499D01*
X83967233Y-71943421D01*
X83931250Y-71595224D01*
X83890611Y-71201971D01*
X83890153Y-71196272D01*
X83853242Y-70556119D01*
X83840356Y-70332630D01*
X83840156Y-70326925D01*
X83838384Y-70181841D01*
X83832033Y-69662105D01*
X83829587Y-69461887D01*
X83829647Y-69456170D01*
X83830254Y-69437885D01*
X88442000Y-69437885D01*
X88446475Y-69453124D01*
X88447865Y-69454329D01*
X88455548Y-69456000D01*
X89677885Y-69456000D01*
X89693124Y-69451525D01*
X89694329Y-69450135D01*
X89696000Y-69442452D01*
X89696000Y-69437885D01*
X90204000Y-69437885D01*
X90208475Y-69453124D01*
X90209865Y-69454329D01*
X90217548Y-69456000D01*
X91439884Y-69456000D01*
X91455123Y-69451525D01*
X91456328Y-69450135D01*
X91457999Y-69442452D01*
X91457999Y-67915331D01*
X91457629Y-67908510D01*
X91452105Y-67857648D01*
X91448479Y-67842396D01*
X91403324Y-67721946D01*
X91394786Y-67706351D01*
X91318285Y-67604276D01*
X91305724Y-67591715D01*
X91203649Y-67515214D01*
X91188054Y-67506676D01*
X91067606Y-67461522D01*
X91052351Y-67457895D01*
X91001486Y-67452369D01*
X90994672Y-67452000D01*
X90222115Y-67452000D01*
X90206876Y-67456475D01*
X90205671Y-67457865D01*
X90204000Y-67465548D01*
X90204000Y-69437885D01*
X89696000Y-69437885D01*
X89696000Y-67470116D01*
X89691525Y-67454877D01*
X89690135Y-67453672D01*
X89682452Y-67452001D01*
X88905331Y-67452001D01*
X88898510Y-67452371D01*
X88847648Y-67457895D01*
X88832396Y-67461521D01*
X88711946Y-67506676D01*
X88696351Y-67515214D01*
X88594276Y-67591715D01*
X88581715Y-67604276D01*
X88505214Y-67706351D01*
X88496676Y-67721946D01*
X88451522Y-67842394D01*
X88447895Y-67857649D01*
X88442369Y-67908514D01*
X88442000Y-67915328D01*
X88442000Y-69437885D01*
X83830254Y-69437885D01*
X83852019Y-68781789D01*
X83858329Y-68591557D01*
X83858648Y-68585854D01*
X83860378Y-68563880D01*
X83926523Y-67723419D01*
X83927101Y-67717735D01*
X83959076Y-67461029D01*
X84034026Y-66859290D01*
X84034861Y-66853634D01*
X84180621Y-66000904D01*
X84181712Y-65995292D01*
X84366004Y-65150051D01*
X84367349Y-65144494D01*
X84589789Y-64308505D01*
X84591384Y-64303015D01*
X84851519Y-63477973D01*
X84853361Y-63472561D01*
X85150659Y-62660153D01*
X85152745Y-62654830D01*
X85294615Y-62315679D01*
X85486595Y-61856737D01*
X85488919Y-61851518D01*
X85858618Y-61069414D01*
X85861178Y-61064302D01*
X86265975Y-60299774D01*
X86268764Y-60294783D01*
X86707826Y-59549403D01*
X86710838Y-59544544D01*
X87183284Y-58819813D01*
X87186515Y-58815096D01*
X87197850Y-58799323D01*
X87691317Y-58112591D01*
X87694751Y-58108033D01*
X88230922Y-57429124D01*
X88234566Y-57424719D01*
X88800977Y-56770835D01*
X88804818Y-56766599D01*
X89264246Y-56282463D01*
X89400323Y-56139068D01*
X89404297Y-56135065D01*
X90027691Y-55535160D01*
X90031888Y-55531302D01*
X90681787Y-54960352D01*
X90686166Y-54956677D01*
X91361310Y-54415784D01*
X91365852Y-54412311D01*
X92064842Y-53902599D01*
X92069537Y-53899336D01*
X92790931Y-53421855D01*
X92795759Y-53418816D01*
X93538069Y-52974552D01*
X93543022Y-52971738D01*
X94304719Y-52561606D01*
X94309809Y-52559012D01*
X95089340Y-52183850D01*
X95094546Y-52181489D01*
X95179171Y-52145393D01*
X95890271Y-51842083D01*
X95895544Y-51839973D01*
X96705900Y-51536994D01*
X96711259Y-51535128D01*
X97534522Y-51269221D01*
X97539953Y-51267602D01*
X98374408Y-51039322D01*
X98379936Y-51037944D01*
X99042913Y-50888535D01*
X99223873Y-50847754D01*
X99229478Y-50846624D01*
X100081150Y-50694918D01*
X100086800Y-50694043D01*
X100944482Y-50581127D01*
X100950165Y-50580510D01*
X101812129Y-50506613D01*
X101817819Y-50506255D01*
X102577942Y-50475725D01*
X102682200Y-50471538D01*
X102687917Y-50471438D01*
X103552985Y-50475967D01*
G37*
%TD.AperFunction*%
%TD*%
M02*
