%TF.GenerationSoftware,KiCad,Pcbnew,(6.0.4-0)*%
%TF.CreationDate,2022-05-04T20:07:09+02:00*%
%TF.ProjectId,GlowTubeLEDconnectorA_PCB,476c6f77-5475-4626-954c-4544636f6e6e,rev?*%
%TF.SameCoordinates,Original*%
%TF.FileFunction,Legend,Top*%
%TF.FilePolarity,Positive*%
%FSLAX46Y46*%
G04 Gerber Fmt 4.6, Leading zero omitted, Abs format (unit mm)*
G04 Created by KiCad (PCBNEW (6.0.4-0)) date 2022-05-04 20:07:09*
%MOMM*%
%LPD*%
G01*
G04 APERTURE LIST*
%ADD10C,0.150000*%
G04 APERTURE END LIST*
D10*
X119489523Y-73122380D02*
X119013333Y-73122380D01*
X118965714Y-73598571D01*
X119013333Y-73550952D01*
X119108571Y-73503333D01*
X119346666Y-73503333D01*
X119441904Y-73550952D01*
X119489523Y-73598571D01*
X119537142Y-73693809D01*
X119537142Y-73931904D01*
X119489523Y-74027142D01*
X119441904Y-74074761D01*
X119346666Y-74122380D01*
X119108571Y-74122380D01*
X119013333Y-74074761D01*
X118965714Y-74027142D01*
X119822857Y-73122380D02*
X120156190Y-74122380D01*
X120489523Y-73122380D01*
X118810952Y-71522380D02*
X118810952Y-70522380D01*
X119049047Y-70522380D01*
X119191904Y-70570000D01*
X119287142Y-70665238D01*
X119334761Y-70760476D01*
X119382380Y-70950952D01*
X119382380Y-71093809D01*
X119334761Y-71284285D01*
X119287142Y-71379523D01*
X119191904Y-71474761D01*
X119049047Y-71522380D01*
X118810952Y-71522380D01*
X119334761Y-67920000D02*
X119239523Y-67872380D01*
X119096666Y-67872380D01*
X118953809Y-67920000D01*
X118858571Y-68015238D01*
X118810952Y-68110476D01*
X118763333Y-68300952D01*
X118763333Y-68443809D01*
X118810952Y-68634285D01*
X118858571Y-68729523D01*
X118953809Y-68824761D01*
X119096666Y-68872380D01*
X119191904Y-68872380D01*
X119334761Y-68824761D01*
X119382380Y-68777142D01*
X119382380Y-68443809D01*
X119191904Y-68443809D01*
X107812380Y-65392380D02*
X107336190Y-65392380D01*
X107288571Y-65868571D01*
X107336190Y-65820952D01*
X107431428Y-65773333D01*
X107669523Y-65773333D01*
X107764761Y-65820952D01*
X107812380Y-65868571D01*
X107859999Y-65963809D01*
X107859999Y-66201904D01*
X107812380Y-66297142D01*
X107764761Y-66344761D01*
X107669523Y-66392380D01*
X107431428Y-66392380D01*
X107336190Y-66344761D01*
X107288571Y-66297142D01*
X108145714Y-65392380D02*
X108479047Y-66392380D01*
X108812380Y-65392380D01*
X108348095Y-68932380D02*
X108348095Y-67932380D01*
X108586190Y-67932380D01*
X108729047Y-67980000D01*
X108824285Y-68075238D01*
X108871904Y-68170476D01*
X108919523Y-68360952D01*
X108919523Y-68503809D01*
X108871904Y-68694285D01*
X108824285Y-68789523D01*
X108729047Y-68884761D01*
X108586190Y-68932380D01*
X108348095Y-68932380D01*
X108871904Y-70720000D02*
X108776666Y-70672380D01*
X108633809Y-70672380D01*
X108490952Y-70720000D01*
X108395714Y-70815238D01*
X108348095Y-70910476D01*
X108300476Y-71100952D01*
X108300476Y-71243809D01*
X108348095Y-71434285D01*
X108395714Y-71529523D01*
X108490952Y-71624761D01*
X108633809Y-71672380D01*
X108729047Y-71672380D01*
X108871904Y-71624761D01*
X108919523Y-71577142D01*
X108919523Y-71243809D01*
X108729047Y-71243809D01*
M02*
