%TF.GenerationSoftware,KiCad,Pcbnew,(6.0.4-0)*%
%TF.CreationDate,2022-05-05T14:31:54+02:00*%
%TF.ProjectId,GlowTubeLEDconnectorA_PCB,476c6f77-5475-4626-954c-4544636f6e6e,rev?*%
%TF.SameCoordinates,Original*%
%TF.FileFunction,Profile,NP*%
%FSLAX46Y46*%
G04 Gerber Fmt 4.6, Leading zero omitted, Abs format (unit mm)*
G04 Created by KiCad (PCBNEW (6.0.4-0)) date 2022-05-05 14:31:54*
%MOMM*%
%LPD*%
G01*
G04 APERTURE LIST*
%TA.AperFunction,Profile*%
%ADD10C,0.100000*%
%TD*%
G04 APERTURE END LIST*
D10*
X91984529Y-72960000D02*
X87984529Y-72960000D01*
X114970000Y-74760000D02*
X112890000Y-74760000D01*
X95484529Y-71760000D02*
X99484529Y-71760000D01*
X95334529Y-72810000D02*
X95334529Y-71910000D01*
X107134500Y-71910000D02*
G75*
G03*
X106984529Y-71760000I-150000J0D01*
G01*
X115120000Y-64710000D02*
G75*
G03*
X114970000Y-64560000I-150000J0D01*
G01*
X91984529Y-72960029D02*
G75*
G03*
X92134529Y-72810000I-29J150029D01*
G01*
X102834529Y-72810000D02*
X102834529Y-71910000D01*
X87834529Y-72810000D02*
X87834529Y-71910000D01*
X115120000Y-64710000D02*
X115120000Y-74610000D01*
X112740000Y-74610000D02*
G75*
G03*
X112890000Y-74760000I150000J0D01*
G01*
X95484529Y-71760029D02*
G75*
G03*
X95334529Y-71910000I-29J-149971D01*
G01*
X112890000Y-64560000D02*
G75*
G03*
X112740000Y-64710000I0J-150000D01*
G01*
X122720000Y-69660000D02*
G75*
G03*
X122720000Y-69660000I-19700000J0D01*
G01*
X106984529Y-72960000D02*
X102984529Y-72960000D01*
X99484529Y-72960029D02*
G75*
G03*
X99634529Y-72810000I-29J150029D01*
G01*
X99634529Y-71910000D02*
X99634529Y-72810000D01*
X87834500Y-72810000D02*
G75*
G03*
X87984529Y-72960000I150000J0D01*
G01*
X106984529Y-72960029D02*
G75*
G03*
X107134529Y-72810000I-29J150029D01*
G01*
X99634500Y-71910000D02*
G75*
G03*
X99484529Y-71760000I-150000J0D01*
G01*
X92134500Y-71910000D02*
G75*
G03*
X91984529Y-71760000I-150000J0D01*
G01*
X107134529Y-71910000D02*
X107134529Y-72810000D01*
X99484529Y-72960000D02*
X95484529Y-72960000D01*
X102984529Y-71760029D02*
G75*
G03*
X102834529Y-71910000I-29J-149971D01*
G01*
X92134529Y-71910000D02*
X92134529Y-72810000D01*
X87984529Y-71760000D02*
X91984529Y-71760000D01*
X102834500Y-72810000D02*
G75*
G03*
X102984529Y-72960000I150000J0D01*
G01*
X114970000Y-74760000D02*
G75*
G03*
X115120000Y-74610000I0J150000D01*
G01*
X95334500Y-72810000D02*
G75*
G03*
X95484529Y-72960000I150000J0D01*
G01*
X112740000Y-74610000D02*
X112740000Y-64710000D01*
X112890000Y-64560000D02*
X114970000Y-64560000D01*
X102984529Y-71760000D02*
X106984529Y-71760000D01*
X87984529Y-71760029D02*
G75*
G03*
X87834529Y-71910000I-29J-149971D01*
G01*
M02*
