%TF.GenerationSoftware,KiCad,Pcbnew,(6.0.0-0)*%
%TF.CreationDate,2022-03-12T21:24:33+01:00*%
%TF.ProjectId,GlowTubeLEDconnectorA_PCB,476c6f77-5475-4626-954c-4544636f6e6e,rev?*%
%TF.SameCoordinates,Original*%
%TF.FileFunction,Copper,L1,Top*%
%TF.FilePolarity,Positive*%
%FSLAX46Y46*%
G04 Gerber Fmt 4.6, Leading zero omitted, Abs format (unit mm)*
G04 Created by KiCad (PCBNEW (6.0.0-0)) date 2022-03-12 21:24:33*
%MOMM*%
%LPD*%
G01*
G04 APERTURE LIST*
%TA.AperFunction,ViaPad*%
%ADD10C,0.800000*%
%TD*%
%TA.AperFunction,Conductor*%
%ADD11C,1.500000*%
%TD*%
%TA.AperFunction,Conductor*%
%ADD12C,0.250000*%
%TD*%
G04 APERTURE END LIST*
D10*
%TO.N,+5V*%
X93475000Y-62475000D03*
X98080000Y-75630000D03*
%TO.N,GND*%
X97320000Y-63490000D03*
X93550000Y-76720000D03*
%TO.N,LED1 DATA OUT*%
X98010000Y-69600000D03*
X120110000Y-71045798D03*
%TD*%
D11*
%TO.N,+5V*%
X98080000Y-75630000D02*
X94760000Y-78950000D01*
X94760000Y-78950000D02*
X92760000Y-78950000D01*
X92760000Y-78950000D02*
X91450000Y-77640000D01*
X91450000Y-75910000D02*
X93460000Y-73900000D01*
X91450000Y-77640000D02*
X91450000Y-75910000D01*
X93460000Y-73900000D02*
X93460000Y-62490000D01*
X93460000Y-62490000D02*
X93475000Y-62475000D01*
%TO.N,GND*%
X93550000Y-76720000D02*
X96000000Y-74270000D01*
X96000000Y-74270000D02*
X96000000Y-64810000D01*
X96000000Y-64810000D02*
X97320000Y-63490000D01*
D12*
%TO.N,LED1 DATA OUT*%
X120120000Y-75030000D02*
X120120000Y-71055798D01*
X118070000Y-77080000D02*
X120120000Y-75030000D01*
X98010000Y-69600000D02*
X98010000Y-71900000D01*
X98010000Y-71900000D02*
X103190000Y-77080000D01*
X103190000Y-77080000D02*
X118070000Y-77080000D01*
X120120000Y-71055798D02*
X120110000Y-71045798D01*
%TD*%
%TA.AperFunction,Conductor*%
%TO.N,GND*%
G36*
X103542999Y-50475468D02*
G01*
X103548714Y-50475627D01*
X104412739Y-50519397D01*
X104418440Y-50519816D01*
X105279561Y-50602732D01*
X105285238Y-50603409D01*
X106141727Y-50725305D01*
X106147368Y-50726239D01*
X106997418Y-50886858D01*
X107003010Y-50888046D01*
X107844948Y-51087072D01*
X107850481Y-51088514D01*
X108682470Y-51325512D01*
X108687928Y-51327201D01*
X109508358Y-51601713D01*
X109513718Y-51603642D01*
X110320852Y-51915090D01*
X110326115Y-51917260D01*
X111118282Y-52264997D01*
X111123464Y-52267413D01*
X111898998Y-52650706D01*
X111904065Y-52653355D01*
X112661460Y-53071460D01*
X112666401Y-53074335D01*
X113404032Y-53526356D01*
X113408837Y-53529453D01*
X114125190Y-54014460D01*
X114129851Y-54017772D01*
X114823503Y-54534804D01*
X114827976Y-54538300D01*
X115338666Y-54956294D01*
X115497450Y-55086257D01*
X115501791Y-55089978D01*
X116145688Y-55667714D01*
X116149856Y-55671627D01*
X116766921Y-56278015D01*
X116770905Y-56282113D01*
X117224742Y-56770499D01*
X117359799Y-56915838D01*
X117363595Y-56920114D01*
X117923134Y-57579901D01*
X117926732Y-57584344D01*
X118455764Y-58268831D01*
X118459157Y-58273432D01*
X118956615Y-58981243D01*
X118959795Y-58985994D01*
X119424615Y-59715616D01*
X119427577Y-59720507D01*
X119858818Y-60470458D01*
X119861555Y-60475477D01*
X120247435Y-61223104D01*
X120258348Y-61244248D01*
X120260847Y-61249374D01*
X120622359Y-62035355D01*
X120624610Y-62040556D01*
X120813706Y-62506243D01*
X120950098Y-62842138D01*
X120952128Y-62847482D01*
X121240909Y-63662971D01*
X121242694Y-63668401D01*
X121494041Y-64495680D01*
X121494187Y-64496162D01*
X121495722Y-64501662D01*
X121549645Y-64713207D01*
X121709405Y-65339972D01*
X121710691Y-65345543D01*
X121886124Y-66192678D01*
X121887156Y-66198301D01*
X122023981Y-67052523D01*
X122024755Y-67058174D01*
X122120478Y-67898326D01*
X122122690Y-67917742D01*
X122123207Y-67923419D01*
X122181489Y-68778324D01*
X122182048Y-68786527D01*
X122182307Y-68792218D01*
X122188457Y-69063212D01*
X122201953Y-69657927D01*
X122201978Y-69662102D01*
X122198678Y-69977279D01*
X122197813Y-70059837D01*
X122197700Y-70064007D01*
X122161723Y-70888035D01*
X122159931Y-70929074D01*
X122159553Y-70934763D01*
X122085954Y-71759429D01*
X122082649Y-71796459D01*
X122082014Y-71802124D01*
X122046035Y-72068233D01*
X121966096Y-72659469D01*
X121965206Y-72665092D01*
X121810515Y-73516295D01*
X121809373Y-73521859D01*
X121616230Y-74365166D01*
X121614827Y-74370708D01*
X121383642Y-75204335D01*
X121381990Y-75209808D01*
X121336898Y-75347768D01*
X121113210Y-76032140D01*
X121111329Y-76037482D01*
X120908886Y-76573235D01*
X120805522Y-76846780D01*
X120803381Y-76852078D01*
X120464241Y-77639552D01*
X120461189Y-77646638D01*
X120458815Y-77651823D01*
X120080931Y-78430045D01*
X120078318Y-78435130D01*
X119665521Y-79195408D01*
X119662680Y-79200369D01*
X119215812Y-79941151D01*
X119212760Y-79945960D01*
X119036538Y-80210194D01*
X118732760Y-80665689D01*
X118729481Y-80670372D01*
X118217313Y-81367605D01*
X118213825Y-81372134D01*
X117670559Y-82045410D01*
X117666882Y-82049761D01*
X117093634Y-82697701D01*
X117089757Y-82701888D01*
X116494961Y-83315669D01*
X116487705Y-83323157D01*
X116483634Y-83327171D01*
X115854038Y-83920472D01*
X115849789Y-83924298D01*
X115193916Y-84488438D01*
X115189498Y-84492067D01*
X114508724Y-85025861D01*
X114504147Y-85029286D01*
X113799820Y-85531678D01*
X113795091Y-85534891D01*
X113068738Y-86004790D01*
X113063868Y-86007786D01*
X112316942Y-86444254D01*
X112311942Y-86447026D01*
X111545958Y-86849177D01*
X111540857Y-86851709D01*
X111295442Y-86966670D01*
X110757428Y-87218694D01*
X110752197Y-87221001D01*
X109952933Y-87552067D01*
X109947603Y-87554134D01*
X109134162Y-87848595D01*
X109128743Y-87850419D01*
X108715433Y-87979151D01*
X108302761Y-88107684D01*
X108297281Y-88109256D01*
X107460455Y-88328794D01*
X107454925Y-88330111D01*
X106774261Y-88476033D01*
X106609011Y-88511459D01*
X106603395Y-88512530D01*
X105750134Y-88655316D01*
X105744495Y-88656129D01*
X105283432Y-88711923D01*
X104885652Y-88760060D01*
X104879962Y-88760618D01*
X104017301Y-88825482D01*
X104011592Y-88825782D01*
X103529582Y-88840088D01*
X103146812Y-88851448D01*
X103141115Y-88851487D01*
X102477608Y-88841064D01*
X102276130Y-88837899D01*
X102270417Y-88837680D01*
X101406917Y-88784866D01*
X101401220Y-88784388D01*
X100540985Y-88692455D01*
X100535315Y-88691718D01*
X100136594Y-88630705D01*
X99680144Y-88560858D01*
X99674555Y-88559873D01*
X99250370Y-88475112D01*
X98826205Y-88390355D01*
X98820626Y-88389108D01*
X98198251Y-88235087D01*
X97980829Y-88181281D01*
X97975343Y-88179791D01*
X97297997Y-87979151D01*
X97145848Y-87934082D01*
X97140405Y-87932335D01*
X96884680Y-87843783D01*
X96322893Y-87649247D01*
X96317561Y-87647264D01*
X95915646Y-87487322D01*
X95513745Y-87327386D01*
X95508482Y-87325152D01*
X94720004Y-86969141D01*
X94714848Y-86966670D01*
X94203852Y-86707427D01*
X93943353Y-86575268D01*
X93938324Y-86572572D01*
X93185344Y-86146556D01*
X93180454Y-86143640D01*
X92447599Y-85683921D01*
X92442826Y-85680774D01*
X92227504Y-85531678D01*
X91731578Y-85188283D01*
X91726976Y-85184941D01*
X91038774Y-84660671D01*
X91034306Y-84657104D01*
X90370616Y-84102173D01*
X90366315Y-84098407D01*
X89728504Y-83513961D01*
X89724377Y-83510004D01*
X89113707Y-82897198D01*
X89109785Y-82893080D01*
X88527527Y-82253188D01*
X88523788Y-82248885D01*
X87971186Y-81583274D01*
X87967634Y-81578793D01*
X87721746Y-81253670D01*
X87445777Y-80888775D01*
X87442440Y-80884147D01*
X86952433Y-80171181D01*
X86949303Y-80166397D01*
X86492157Y-79431962D01*
X86489246Y-79427041D01*
X86065869Y-78672590D01*
X86063185Y-78667542D01*
X85674473Y-77894676D01*
X85672021Y-77889512D01*
X85662926Y-77869180D01*
X85318769Y-77099808D01*
X85316556Y-77094544D01*
X85305518Y-77066522D01*
X84999487Y-76289617D01*
X84997516Y-76284259D01*
X84955272Y-76160874D01*
X84717277Y-75465746D01*
X84715577Y-75460388D01*
X84472748Y-74629977D01*
X84471277Y-74624485D01*
X84266385Y-73783984D01*
X84265157Y-73778400D01*
X84098602Y-72929464D01*
X84097629Y-72923830D01*
X84015350Y-72373288D01*
X83969758Y-72068227D01*
X83969042Y-72062561D01*
X83965560Y-72028861D01*
X83880113Y-71202011D01*
X83879655Y-71196312D01*
X83841908Y-70541676D01*
X83829856Y-70332647D01*
X83829656Y-70326942D01*
X83829598Y-70322147D01*
X83829373Y-70303730D01*
X85645242Y-70303730D01*
X85646406Y-70312631D01*
X85646406Y-70312637D01*
X85647650Y-70322147D01*
X85648107Y-70326133D01*
X85652609Y-70371843D01*
X85662119Y-70468396D01*
X85663914Y-70474314D01*
X85663915Y-70474318D01*
X85676126Y-70514572D01*
X85708321Y-70620705D01*
X85783350Y-70761073D01*
X85884321Y-70884107D01*
X85889106Y-70888034D01*
X85946065Y-70934779D01*
X86007355Y-70985078D01*
X86147723Y-71060107D01*
X86153643Y-71061903D01*
X86153646Y-71061904D01*
X86294110Y-71104513D01*
X86294114Y-71104514D01*
X86300032Y-71106309D01*
X86306195Y-71106916D01*
X86407229Y-71116867D01*
X86415784Y-71118006D01*
X86441096Y-71122265D01*
X86441101Y-71122265D01*
X86445889Y-71123071D01*
X86452188Y-71123148D01*
X86453569Y-71123165D01*
X86453573Y-71123165D01*
X86458428Y-71123224D01*
X86486016Y-71119273D01*
X86503879Y-71118000D01*
X91705216Y-71118000D01*
X91726122Y-71119746D01*
X91741093Y-71122265D01*
X91741094Y-71122265D01*
X91745884Y-71123071D01*
X91751962Y-71123145D01*
X91753558Y-71123165D01*
X91753563Y-71123165D01*
X91758423Y-71123224D01*
X91763239Y-71122534D01*
X91763245Y-71122534D01*
X91785070Y-71119409D01*
X91790578Y-71118744D01*
X91893002Y-71108657D01*
X91916820Y-71106311D01*
X91927869Y-71102959D01*
X92038925Y-71069272D01*
X92109919Y-71068639D01*
X92169985Y-71106489D01*
X92200053Y-71170804D01*
X92201500Y-71189847D01*
X92201500Y-73326522D01*
X92181498Y-73394643D01*
X92164595Y-73415617D01*
X90624737Y-74955475D01*
X90612347Y-74966342D01*
X90594708Y-74979877D01*
X90540188Y-75039794D01*
X90539842Y-75040174D01*
X90535743Y-75044469D01*
X90519802Y-75060410D01*
X90518007Y-75062557D01*
X90518005Y-75062559D01*
X90503068Y-75080423D01*
X90499600Y-75084398D01*
X90447288Y-75141888D01*
X90447281Y-75141897D01*
X90443515Y-75146036D01*
X90440538Y-75150782D01*
X90440537Y-75150783D01*
X90433987Y-75161225D01*
X90423911Y-75175093D01*
X90416004Y-75184549D01*
X90415997Y-75184559D01*
X90412406Y-75188854D01*
X90380131Y-75245438D01*
X90371118Y-75261240D01*
X90368413Y-75265759D01*
X90324136Y-75336344D01*
X90322043Y-75341549D01*
X90322042Y-75341552D01*
X90317448Y-75352979D01*
X90309988Y-75368411D01*
X90303880Y-75379119D01*
X90303876Y-75379128D01*
X90301101Y-75383993D01*
X90299232Y-75389270D01*
X90299230Y-75389275D01*
X90273285Y-75462542D01*
X90271420Y-75467478D01*
X90270644Y-75469408D01*
X90240344Y-75544783D01*
X90239208Y-75550270D01*
X90239207Y-75550272D01*
X90236706Y-75562349D01*
X90232101Y-75578844D01*
X90226111Y-75595759D01*
X90225204Y-75601298D01*
X90212643Y-75678001D01*
X90211683Y-75683180D01*
X90194787Y-75764767D01*
X90194521Y-75769379D01*
X90194521Y-75769380D01*
X90193185Y-75792548D01*
X90191738Y-75805653D01*
X90190714Y-75811910D01*
X90189806Y-75817457D01*
X90189894Y-75823070D01*
X90189894Y-75823072D01*
X90191484Y-75924264D01*
X90191500Y-75926243D01*
X90191500Y-77548604D01*
X90190422Y-77565051D01*
X90188595Y-77578931D01*
X90187521Y-77587086D01*
X90191348Y-77668229D01*
X90191360Y-77668488D01*
X90191500Y-77674424D01*
X90191500Y-77696999D01*
X90192978Y-77713562D01*
X90193819Y-77722988D01*
X90194178Y-77728248D01*
X90198104Y-77811488D01*
X90199354Y-77816947D01*
X90199355Y-77816952D01*
X90202108Y-77828970D01*
X90204789Y-77845899D01*
X90206383Y-77863762D01*
X90207865Y-77869178D01*
X90207865Y-77869180D01*
X90228370Y-77944133D01*
X90229656Y-77949251D01*
X90248258Y-78030470D01*
X90250460Y-78035632D01*
X90255294Y-78046967D01*
X90260927Y-78063142D01*
X90265663Y-78080451D01*
X90268079Y-78085516D01*
X90301539Y-78155667D01*
X90303710Y-78160476D01*
X90336397Y-78237109D01*
X90346251Y-78252110D01*
X90354654Y-78267025D01*
X90362378Y-78283218D01*
X90365648Y-78287769D01*
X90365650Y-78287772D01*
X90410999Y-78350881D01*
X90413989Y-78355232D01*
X90457196Y-78421010D01*
X90457202Y-78421018D01*
X90459735Y-78424874D01*
X90478257Y-78445662D01*
X90486490Y-78455939D01*
X90493471Y-78465654D01*
X90497498Y-78469556D01*
X90570255Y-78540063D01*
X90571665Y-78541452D01*
X91805472Y-79775259D01*
X91816340Y-79787651D01*
X91826462Y-79800843D01*
X91826469Y-79800851D01*
X91829877Y-79805292D01*
X91856751Y-79829745D01*
X91890185Y-79860168D01*
X91894480Y-79864267D01*
X91910411Y-79880198D01*
X91930427Y-79896934D01*
X91934376Y-79900379D01*
X91991879Y-79952703D01*
X91991883Y-79952706D01*
X91996036Y-79956485D01*
X92000791Y-79959468D01*
X92000794Y-79959470D01*
X92011224Y-79966012D01*
X92025097Y-79976091D01*
X92034545Y-79983992D01*
X92034552Y-79983997D01*
X92038854Y-79987594D01*
X92043730Y-79990375D01*
X92111240Y-80028882D01*
X92115759Y-80031587D01*
X92129227Y-80040035D01*
X92181596Y-80072886D01*
X92181599Y-80072888D01*
X92186344Y-80075864D01*
X92191549Y-80077957D01*
X92191552Y-80077958D01*
X92202979Y-80082552D01*
X92218411Y-80090012D01*
X92229119Y-80096120D01*
X92229128Y-80096124D01*
X92233993Y-80098899D01*
X92239270Y-80100768D01*
X92239275Y-80100770D01*
X92312542Y-80126715D01*
X92317478Y-80128580D01*
X92343581Y-80139073D01*
X92394783Y-80159656D01*
X92400270Y-80160792D01*
X92400272Y-80160793D01*
X92412349Y-80163294D01*
X92428844Y-80167899D01*
X92445759Y-80173889D01*
X92451296Y-80174796D01*
X92451297Y-80174796D01*
X92527991Y-80187355D01*
X92533181Y-80188317D01*
X92610246Y-80204277D01*
X92610250Y-80204278D01*
X92614767Y-80205213D01*
X92619376Y-80205479D01*
X92619378Y-80205479D01*
X92642548Y-80206815D01*
X92655653Y-80208262D01*
X92661910Y-80209286D01*
X92661917Y-80209286D01*
X92667458Y-80210194D01*
X92673070Y-80210106D01*
X92673072Y-80210106D01*
X92774264Y-80208516D01*
X92776243Y-80208500D01*
X94668604Y-80208500D01*
X94685051Y-80209578D01*
X94701516Y-80211746D01*
X94701520Y-80211746D01*
X94707086Y-80212479D01*
X94788489Y-80208640D01*
X94794424Y-80208500D01*
X94816999Y-80208500D01*
X94842989Y-80206181D01*
X94848248Y-80205822D01*
X94931488Y-80201896D01*
X94936947Y-80200646D01*
X94936952Y-80200645D01*
X94948970Y-80197892D01*
X94965899Y-80195211D01*
X94983762Y-80193617D01*
X94989178Y-80192135D01*
X94989180Y-80192135D01*
X95064133Y-80171630D01*
X95069251Y-80170344D01*
X95145000Y-80152995D01*
X95145002Y-80152994D01*
X95150470Y-80151742D01*
X95160970Y-80147263D01*
X95166967Y-80144706D01*
X95183142Y-80139073D01*
X95195039Y-80135818D01*
X95195043Y-80135817D01*
X95200451Y-80134337D01*
X95270826Y-80100770D01*
X95275667Y-80098461D01*
X95280476Y-80096290D01*
X95351949Y-80065804D01*
X95351950Y-80065804D01*
X95357109Y-80063603D01*
X95372110Y-80053749D01*
X95387025Y-80045346D01*
X95403218Y-80037622D01*
X95407769Y-80034352D01*
X95407772Y-80034350D01*
X95470881Y-79989001D01*
X95475232Y-79986011D01*
X95541010Y-79942804D01*
X95541018Y-79942798D01*
X95544874Y-79940265D01*
X95565662Y-79921743D01*
X95575939Y-79913510D01*
X95585654Y-79906529D01*
X95660063Y-79829745D01*
X95661452Y-79828335D01*
X99008211Y-76481577D01*
X99010198Y-76479590D01*
X99117594Y-76351146D01*
X99228899Y-76156007D01*
X99230768Y-76150730D01*
X99230770Y-76150725D01*
X99302016Y-75949531D01*
X99302017Y-75949528D01*
X99303889Y-75944241D01*
X99340194Y-75722543D01*
X99336665Y-75497919D01*
X99331820Y-75473224D01*
X99294496Y-75282979D01*
X99294495Y-75282975D01*
X99293415Y-75277471D01*
X99291283Y-75272001D01*
X99213845Y-75073385D01*
X99211810Y-75068165D01*
X99094430Y-74876618D01*
X99090695Y-74872425D01*
X99090692Y-74872422D01*
X98948718Y-74713075D01*
X98944985Y-74708885D01*
X98768199Y-74570266D01*
X98666457Y-74516397D01*
X98574621Y-74467773D01*
X98574619Y-74467772D01*
X98569659Y-74465146D01*
X98564313Y-74463440D01*
X98564311Y-74463439D01*
X98360985Y-74398549D01*
X98360986Y-74398549D01*
X98355643Y-74396844D01*
X98350086Y-74396112D01*
X98350084Y-74396112D01*
X98244278Y-74382182D01*
X98132913Y-74367521D01*
X98127314Y-74367785D01*
X98127312Y-74367785D01*
X98020713Y-74372812D01*
X97908512Y-74378104D01*
X97772653Y-74409220D01*
X97694995Y-74427006D01*
X97694991Y-74427007D01*
X97689530Y-74428258D01*
X97482891Y-74516397D01*
X97478207Y-74519474D01*
X97298980Y-74637203D01*
X97298976Y-74637206D01*
X97295126Y-74639735D01*
X97291688Y-74642798D01*
X97291683Y-74642802D01*
X97273268Y-74659210D01*
X97252491Y-74677722D01*
X97251194Y-74679019D01*
X94275617Y-77654595D01*
X94213305Y-77688621D01*
X94186522Y-77691500D01*
X93333478Y-77691500D01*
X93265357Y-77671498D01*
X93244383Y-77654595D01*
X92745405Y-77155617D01*
X92711379Y-77093305D01*
X92708500Y-77066522D01*
X92708500Y-76483477D01*
X92728502Y-76415356D01*
X92745405Y-76394382D01*
X94285263Y-74854525D01*
X94297654Y-74843657D01*
X94310848Y-74833533D01*
X94315292Y-74830123D01*
X94370158Y-74769826D01*
X94374257Y-74765531D01*
X94390198Y-74749590D01*
X94406942Y-74729564D01*
X94410401Y-74725599D01*
X94427423Y-74706893D01*
X94466485Y-74663964D01*
X94476016Y-74648770D01*
X94486085Y-74634910D01*
X94497593Y-74621147D01*
X94538869Y-74548782D01*
X94541579Y-74544253D01*
X94582885Y-74478405D01*
X94585864Y-74473656D01*
X94592553Y-74457017D01*
X94600012Y-74441587D01*
X94606119Y-74430881D01*
X94606123Y-74430872D01*
X94608898Y-74426007D01*
X94636715Y-74347454D01*
X94638576Y-74342529D01*
X94667564Y-74270420D01*
X94669656Y-74265217D01*
X94673294Y-74247650D01*
X94677899Y-74231156D01*
X94683889Y-74214241D01*
X94697359Y-74131990D01*
X94698319Y-74126811D01*
X94714276Y-74049758D01*
X94714276Y-74049757D01*
X94715213Y-74045233D01*
X94716815Y-74017452D01*
X94718262Y-74004347D01*
X94719286Y-73998090D01*
X94719286Y-73998086D01*
X94720194Y-73992543D01*
X94718516Y-73885736D01*
X94718500Y-73883757D01*
X94718500Y-69600000D01*
X97096496Y-69600000D01*
X97116458Y-69789928D01*
X97175473Y-69971556D01*
X97270960Y-70136944D01*
X97344137Y-70218215D01*
X97374853Y-70282221D01*
X97376500Y-70302524D01*
X97376500Y-71821233D01*
X97375973Y-71832416D01*
X97374298Y-71839909D01*
X97374547Y-71847835D01*
X97374547Y-71847836D01*
X97376438Y-71907986D01*
X97376500Y-71911945D01*
X97376500Y-71939856D01*
X97376997Y-71943790D01*
X97376997Y-71943791D01*
X97377005Y-71943856D01*
X97377938Y-71955693D01*
X97379327Y-71999889D01*
X97384978Y-72019339D01*
X97388987Y-72038700D01*
X97391526Y-72058797D01*
X97394445Y-72066168D01*
X97394445Y-72066170D01*
X97407804Y-72099912D01*
X97411649Y-72111142D01*
X97423982Y-72153593D01*
X97428015Y-72160412D01*
X97428017Y-72160417D01*
X97434293Y-72171028D01*
X97442988Y-72188776D01*
X97450448Y-72207617D01*
X97455110Y-72214033D01*
X97455110Y-72214034D01*
X97476436Y-72243387D01*
X97482952Y-72253307D01*
X97505458Y-72291362D01*
X97519779Y-72305683D01*
X97532619Y-72320716D01*
X97544528Y-72337107D01*
X97550634Y-72342158D01*
X97578605Y-72365298D01*
X97587384Y-72373288D01*
X102686343Y-77472247D01*
X102693887Y-77480537D01*
X102698000Y-77487018D01*
X102703777Y-77492443D01*
X102747667Y-77533658D01*
X102750509Y-77536413D01*
X102770230Y-77556134D01*
X102773425Y-77558612D01*
X102782447Y-77566318D01*
X102814679Y-77596586D01*
X102821628Y-77600406D01*
X102832432Y-77606346D01*
X102848956Y-77617199D01*
X102864959Y-77629613D01*
X102905543Y-77647176D01*
X102916173Y-77652383D01*
X102954940Y-77673695D01*
X102962617Y-77675666D01*
X102962622Y-77675668D01*
X102974558Y-77678732D01*
X102993266Y-77685137D01*
X103011855Y-77693181D01*
X103019683Y-77694421D01*
X103019690Y-77694423D01*
X103055524Y-77700099D01*
X103067144Y-77702505D01*
X103098959Y-77710673D01*
X103109970Y-77713500D01*
X103130224Y-77713500D01*
X103149934Y-77715051D01*
X103169943Y-77718220D01*
X103177835Y-77717474D01*
X103196580Y-77715702D01*
X103213962Y-77714059D01*
X103225819Y-77713500D01*
X117991233Y-77713500D01*
X118002416Y-77714027D01*
X118009909Y-77715702D01*
X118017835Y-77715453D01*
X118017836Y-77715453D01*
X118077986Y-77713562D01*
X118081945Y-77713500D01*
X118109856Y-77713500D01*
X118113791Y-77713003D01*
X118113856Y-77712995D01*
X118125693Y-77712062D01*
X118157951Y-77711048D01*
X118161970Y-77710922D01*
X118169889Y-77710673D01*
X118189343Y-77705021D01*
X118208700Y-77701013D01*
X118220930Y-77699468D01*
X118220931Y-77699468D01*
X118228797Y-77698474D01*
X118236168Y-77695555D01*
X118236170Y-77695555D01*
X118269912Y-77682196D01*
X118281142Y-77678351D01*
X118315983Y-77668229D01*
X118315984Y-77668229D01*
X118323593Y-77666018D01*
X118330412Y-77661985D01*
X118330417Y-77661983D01*
X118341028Y-77655707D01*
X118358776Y-77647012D01*
X118377617Y-77639552D01*
X118397987Y-77624753D01*
X118413387Y-77613564D01*
X118423307Y-77607048D01*
X118454535Y-77588580D01*
X118454538Y-77588578D01*
X118461362Y-77584542D01*
X118475683Y-77570221D01*
X118490717Y-77557380D01*
X118492432Y-77556134D01*
X118507107Y-77545472D01*
X118535298Y-77511395D01*
X118543288Y-77502616D01*
X120512253Y-75533652D01*
X120520539Y-75526112D01*
X120527018Y-75522000D01*
X120544361Y-75503532D01*
X120573643Y-75472349D01*
X120576398Y-75469507D01*
X120596135Y-75449770D01*
X120598615Y-75446573D01*
X120606320Y-75437551D01*
X120631159Y-75411100D01*
X120636586Y-75405321D01*
X120640405Y-75398375D01*
X120640407Y-75398372D01*
X120646348Y-75387566D01*
X120657199Y-75371047D01*
X120657559Y-75370583D01*
X120669614Y-75355041D01*
X120672759Y-75347772D01*
X120672762Y-75347768D01*
X120687174Y-75314463D01*
X120692391Y-75303813D01*
X120713695Y-75265060D01*
X120718733Y-75245437D01*
X120725137Y-75226734D01*
X120730033Y-75215420D01*
X120730033Y-75215419D01*
X120733181Y-75208145D01*
X120734420Y-75200322D01*
X120734423Y-75200312D01*
X120740099Y-75164476D01*
X120742505Y-75152856D01*
X120751528Y-75117711D01*
X120751528Y-75117710D01*
X120753500Y-75110030D01*
X120753500Y-75089776D01*
X120755051Y-75070065D01*
X120756980Y-75057886D01*
X120758220Y-75050057D01*
X120754059Y-75006038D01*
X120753500Y-74994181D01*
X120753500Y-71737216D01*
X120773502Y-71669095D01*
X120785864Y-71652906D01*
X120844621Y-71587650D01*
X120844622Y-71587649D01*
X120849040Y-71582742D01*
X120944527Y-71417354D01*
X121003542Y-71235726D01*
X121010366Y-71170804D01*
X121022814Y-71052363D01*
X121023504Y-71045798D01*
X121003542Y-70855870D01*
X120944527Y-70674242D01*
X120849040Y-70508854D01*
X120812612Y-70468396D01*
X120725675Y-70371843D01*
X120725674Y-70371842D01*
X120721253Y-70366932D01*
X120580330Y-70264545D01*
X120572094Y-70258561D01*
X120572093Y-70258560D01*
X120566752Y-70254680D01*
X120560724Y-70251996D01*
X120560722Y-70251995D01*
X120398319Y-70179689D01*
X120398318Y-70179689D01*
X120392288Y-70177004D01*
X120298887Y-70157151D01*
X120211944Y-70138670D01*
X120211939Y-70138670D01*
X120205487Y-70137298D01*
X120014513Y-70137298D01*
X120008061Y-70138670D01*
X120008056Y-70138670D01*
X119921113Y-70157151D01*
X119827712Y-70177004D01*
X119821682Y-70179689D01*
X119821681Y-70179689D01*
X119659278Y-70251995D01*
X119659276Y-70251996D01*
X119653248Y-70254680D01*
X119647907Y-70258560D01*
X119647906Y-70258561D01*
X119639670Y-70264545D01*
X119498747Y-70366932D01*
X119494326Y-70371842D01*
X119494325Y-70371843D01*
X119407389Y-70468396D01*
X119370960Y-70508854D01*
X119275473Y-70674242D01*
X119216458Y-70855870D01*
X119196496Y-71045798D01*
X119197186Y-71052363D01*
X119209635Y-71170804D01*
X119216458Y-71235726D01*
X119275473Y-71417354D01*
X119370960Y-71582742D01*
X119453580Y-71674500D01*
X119454136Y-71675118D01*
X119484853Y-71739126D01*
X119486500Y-71759429D01*
X119486500Y-74715406D01*
X119466498Y-74783527D01*
X119449595Y-74804501D01*
X117844500Y-76409595D01*
X117782188Y-76443621D01*
X117755405Y-76446500D01*
X103504595Y-76446500D01*
X103436474Y-76426498D01*
X103415500Y-76409595D01*
X101659635Y-74653730D01*
X106445242Y-74653730D01*
X106446406Y-74662631D01*
X106446406Y-74662637D01*
X106447650Y-74672147D01*
X106448107Y-74676133D01*
X106457121Y-74767650D01*
X106462119Y-74818396D01*
X106463914Y-74824314D01*
X106463915Y-74824318D01*
X106484293Y-74891496D01*
X106508321Y-74970705D01*
X106583350Y-75111073D01*
X106587281Y-75115863D01*
X106627177Y-75164476D01*
X106684321Y-75234107D01*
X106807355Y-75335078D01*
X106947723Y-75410107D01*
X106953643Y-75411903D01*
X106953646Y-75411904D01*
X107094110Y-75454513D01*
X107094114Y-75454514D01*
X107100032Y-75456309D01*
X107106195Y-75456916D01*
X107207229Y-75466867D01*
X107215784Y-75468006D01*
X107241096Y-75472265D01*
X107241101Y-75472265D01*
X107245889Y-75473071D01*
X107252188Y-75473148D01*
X107253569Y-75473165D01*
X107253573Y-75473165D01*
X107258428Y-75473224D01*
X107286016Y-75469273D01*
X107303879Y-75468000D01*
X118016793Y-75468000D01*
X118037697Y-75469746D01*
X118057461Y-75473071D01*
X118063651Y-75473147D01*
X118065136Y-75473165D01*
X118065141Y-75473165D01*
X118070000Y-75473224D01*
X118074814Y-75472535D01*
X118074823Y-75472534D01*
X118096649Y-75469408D01*
X118102150Y-75468744D01*
X118228396Y-75456309D01*
X118240709Y-75452574D01*
X118374782Y-75411904D01*
X118374785Y-75411903D01*
X118380705Y-75410107D01*
X118521073Y-75335078D01*
X118644107Y-75234107D01*
X118701252Y-75164476D01*
X118741147Y-75115863D01*
X118745078Y-75111073D01*
X118820107Y-74970705D01*
X118844135Y-74891496D01*
X118864513Y-74824318D01*
X118864514Y-74824314D01*
X118866309Y-74818396D01*
X118876867Y-74711199D01*
X118878006Y-74702644D01*
X118882265Y-74677332D01*
X118882265Y-74677327D01*
X118883071Y-74672539D01*
X118883224Y-74660000D01*
X118879273Y-74632412D01*
X118878000Y-74614549D01*
X118878000Y-64713207D01*
X118879746Y-64692303D01*
X118882264Y-64677335D01*
X118883071Y-64672539D01*
X118883224Y-64660000D01*
X118882535Y-64655186D01*
X118882534Y-64655177D01*
X118879408Y-64633351D01*
X118878742Y-64627837D01*
X118877684Y-64617090D01*
X118866309Y-64501604D01*
X118820107Y-64349295D01*
X118745078Y-64208927D01*
X118644107Y-64085893D01*
X118521073Y-63984922D01*
X118380705Y-63909893D01*
X118374785Y-63908097D01*
X118374782Y-63908096D01*
X118234318Y-63865487D01*
X118234314Y-63865486D01*
X118228396Y-63863691D01*
X118222233Y-63863084D01*
X118121199Y-63853133D01*
X118112644Y-63851994D01*
X118087332Y-63847735D01*
X118087327Y-63847735D01*
X118082539Y-63846929D01*
X118076240Y-63846852D01*
X118074859Y-63846835D01*
X118074855Y-63846835D01*
X118070000Y-63846776D01*
X118042412Y-63850727D01*
X118024549Y-63852000D01*
X107311635Y-63852000D01*
X107290731Y-63850254D01*
X107287565Y-63849721D01*
X107270967Y-63846929D01*
X107264777Y-63846853D01*
X107263292Y-63846835D01*
X107263287Y-63846835D01*
X107258428Y-63846776D01*
X107253614Y-63847465D01*
X107253605Y-63847466D01*
X107231779Y-63850592D01*
X107226278Y-63851256D01*
X107100032Y-63863691D01*
X107094108Y-63865488D01*
X106953646Y-63908096D01*
X106953643Y-63908097D01*
X106947723Y-63909893D01*
X106807355Y-63984922D01*
X106684321Y-64085893D01*
X106583350Y-64208927D01*
X106508321Y-64349295D01*
X106462119Y-64501604D01*
X106461512Y-64507767D01*
X106450745Y-64617090D01*
X106449854Y-64624109D01*
X106445242Y-64653730D01*
X106446406Y-64662632D01*
X106446406Y-64662635D01*
X106449364Y-64685251D01*
X106450428Y-64701589D01*
X106450428Y-74610672D01*
X106448928Y-74630057D01*
X106446944Y-74642802D01*
X106445242Y-74653730D01*
X101659635Y-74653730D01*
X98680405Y-71674500D01*
X98646379Y-71612188D01*
X98643500Y-71585405D01*
X98643500Y-71034942D01*
X98663502Y-70966821D01*
X98717158Y-70920328D01*
X98787432Y-70910224D01*
X98849431Y-70937541D01*
X98907355Y-70985078D01*
X99047723Y-71060107D01*
X99053643Y-71061903D01*
X99053646Y-71061904D01*
X99194110Y-71104513D01*
X99194114Y-71104514D01*
X99200032Y-71106309D01*
X99206195Y-71106916D01*
X99307229Y-71116867D01*
X99315784Y-71118006D01*
X99341096Y-71122265D01*
X99341101Y-71122265D01*
X99345889Y-71123071D01*
X99352188Y-71123148D01*
X99353569Y-71123165D01*
X99353573Y-71123165D01*
X99358428Y-71123224D01*
X99386016Y-71119273D01*
X99403879Y-71118000D01*
X104605216Y-71118000D01*
X104626122Y-71119746D01*
X104641093Y-71122265D01*
X104641094Y-71122265D01*
X104645884Y-71123071D01*
X104651962Y-71123145D01*
X104653558Y-71123165D01*
X104653563Y-71123165D01*
X104658423Y-71123224D01*
X104663239Y-71122534D01*
X104663245Y-71122534D01*
X104685070Y-71119409D01*
X104690578Y-71118744D01*
X104793002Y-71108657D01*
X104816820Y-71106311D01*
X104969131Y-71060109D01*
X104974585Y-71057194D01*
X104974587Y-71057193D01*
X105104038Y-70988000D01*
X105109501Y-70985080D01*
X105188402Y-70920328D01*
X105227751Y-70888035D01*
X105227752Y-70888034D01*
X105232536Y-70884108D01*
X105260863Y-70849592D01*
X105329577Y-70765863D01*
X105333508Y-70761073D01*
X105408537Y-70620703D01*
X105454739Y-70468392D01*
X105465297Y-70361182D01*
X105466435Y-70352633D01*
X105470278Y-70329791D01*
X105471499Y-70322534D01*
X105471652Y-70309995D01*
X105467701Y-70282407D01*
X105466428Y-70264545D01*
X105466428Y-69063212D01*
X105468174Y-69042306D01*
X105470693Y-69027335D01*
X105470693Y-69027334D01*
X105471499Y-69022544D01*
X105471652Y-69010005D01*
X105470962Y-69005183D01*
X105467837Y-68983358D01*
X105467172Y-68977850D01*
X105455346Y-68857772D01*
X105454739Y-68851608D01*
X105408537Y-68699297D01*
X105404370Y-68691500D01*
X105336428Y-68564390D01*
X105333508Y-68558927D01*
X105232536Y-68435892D01*
X105109501Y-68334920D01*
X104974596Y-68262812D01*
X104974587Y-68262807D01*
X104974585Y-68262806D01*
X104969131Y-68259891D01*
X104816820Y-68213689D01*
X104709610Y-68203131D01*
X104701075Y-68201995D01*
X104670962Y-68196929D01*
X104664607Y-68196851D01*
X104663282Y-68196835D01*
X104663278Y-68196835D01*
X104658423Y-68196776D01*
X104630836Y-68200727D01*
X104612973Y-68202000D01*
X99411635Y-68202000D01*
X99390731Y-68200254D01*
X99387565Y-68199721D01*
X99370967Y-68196929D01*
X99364777Y-68196853D01*
X99363292Y-68196835D01*
X99363287Y-68196835D01*
X99358428Y-68196776D01*
X99353614Y-68197465D01*
X99353605Y-68197466D01*
X99331779Y-68200592D01*
X99326278Y-68201256D01*
X99200032Y-68213691D01*
X99194108Y-68215488D01*
X99053646Y-68258096D01*
X99053643Y-68258097D01*
X99047723Y-68259893D01*
X98907355Y-68334922D01*
X98784321Y-68435893D01*
X98683350Y-68558927D01*
X98608321Y-68699295D01*
X98606525Y-68705215D01*
X98606522Y-68705223D01*
X98603620Y-68714790D01*
X98564704Y-68774170D01*
X98499862Y-68803085D01*
X98431797Y-68793319D01*
X98298319Y-68733891D01*
X98298318Y-68733891D01*
X98292288Y-68731206D01*
X98198888Y-68711353D01*
X98111944Y-68692872D01*
X98111939Y-68692872D01*
X98105487Y-68691500D01*
X97914513Y-68691500D01*
X97908061Y-68692872D01*
X97908056Y-68692872D01*
X97821112Y-68711353D01*
X97727712Y-68731206D01*
X97721682Y-68733891D01*
X97721681Y-68733891D01*
X97559278Y-68806197D01*
X97559276Y-68806198D01*
X97553248Y-68808882D01*
X97398747Y-68921134D01*
X97270960Y-69063056D01*
X97175473Y-69228444D01*
X97116458Y-69410072D01*
X97115768Y-69416633D01*
X97115768Y-69416635D01*
X97097186Y-69593435D01*
X97096496Y-69600000D01*
X94718500Y-69600000D01*
X94718500Y-62679736D01*
X94720156Y-62659374D01*
X94734287Y-62573082D01*
X94734287Y-62573081D01*
X94735194Y-62567543D01*
X94731665Y-62342919D01*
X94715005Y-62258001D01*
X94689496Y-62127979D01*
X94689495Y-62127975D01*
X94688415Y-62122471D01*
X94659177Y-62047478D01*
X94608845Y-61918385D01*
X94606810Y-61913165D01*
X94489430Y-61721618D01*
X94485695Y-61717426D01*
X94485692Y-61717422D01*
X94343719Y-61558077D01*
X94339984Y-61553885D01*
X94330365Y-61546343D01*
X94167621Y-61418733D01*
X94167618Y-61418731D01*
X94163199Y-61415266D01*
X93964659Y-61310146D01*
X93959313Y-61308440D01*
X93959311Y-61308439D01*
X93766112Y-61246781D01*
X93750643Y-61241844D01*
X93745086Y-61241112D01*
X93745084Y-61241112D01*
X93639278Y-61227183D01*
X93527913Y-61212521D01*
X93522314Y-61212785D01*
X93522312Y-61212785D01*
X93415712Y-61217813D01*
X93303512Y-61223104D01*
X93167653Y-61254220D01*
X93089995Y-61272006D01*
X93089991Y-61272007D01*
X93084530Y-61273258D01*
X93002049Y-61308439D01*
X92883048Y-61359197D01*
X92883045Y-61359199D01*
X92877891Y-61361397D01*
X92873206Y-61364474D01*
X92873203Y-61364476D01*
X92787570Y-61420726D01*
X92787334Y-61420367D01*
X92786391Y-61421334D01*
X92782936Y-61423118D01*
X92778480Y-61426538D01*
X92776835Y-61427582D01*
X92773187Y-61430174D01*
X92690125Y-61484735D01*
X92647490Y-61522722D01*
X92634737Y-61535475D01*
X92622347Y-61546342D01*
X92604708Y-61559877D01*
X92550188Y-61619794D01*
X92549842Y-61620174D01*
X92545743Y-61624469D01*
X92529802Y-61640410D01*
X92528007Y-61642557D01*
X92528005Y-61642559D01*
X92513068Y-61660423D01*
X92509600Y-61664398D01*
X92457288Y-61721888D01*
X92457281Y-61721897D01*
X92453515Y-61726036D01*
X92450538Y-61730782D01*
X92450537Y-61730783D01*
X92443987Y-61741225D01*
X92433911Y-61755093D01*
X92426004Y-61764549D01*
X92425997Y-61764559D01*
X92422406Y-61768854D01*
X92381118Y-61841240D01*
X92378413Y-61845759D01*
X92334136Y-61916344D01*
X92332043Y-61921549D01*
X92332042Y-61921552D01*
X92327448Y-61932979D01*
X92319988Y-61948411D01*
X92313880Y-61959119D01*
X92313876Y-61959128D01*
X92311101Y-61963993D01*
X92309232Y-61969270D01*
X92309230Y-61969275D01*
X92283285Y-62042542D01*
X92281420Y-62047478D01*
X92250344Y-62124783D01*
X92249208Y-62130270D01*
X92249207Y-62130272D01*
X92246706Y-62142349D01*
X92242101Y-62158844D01*
X92236111Y-62175759D01*
X92235204Y-62181298D01*
X92222643Y-62258001D01*
X92221683Y-62263180D01*
X92204787Y-62344767D01*
X92204521Y-62349379D01*
X92204521Y-62349380D01*
X92203185Y-62372548D01*
X92201738Y-62385653D01*
X92200714Y-62391910D01*
X92199806Y-62397457D01*
X92199894Y-62403070D01*
X92199894Y-62403072D01*
X92201484Y-62504264D01*
X92201500Y-62506243D01*
X92201500Y-68130153D01*
X92181498Y-68198274D01*
X92127842Y-68244767D01*
X92057568Y-68254871D01*
X92038925Y-68250728D01*
X91922744Y-68215486D01*
X91916820Y-68213689D01*
X91809610Y-68203131D01*
X91801075Y-68201995D01*
X91770962Y-68196929D01*
X91764607Y-68196851D01*
X91763282Y-68196835D01*
X91763278Y-68196835D01*
X91758423Y-68196776D01*
X91730836Y-68200727D01*
X91712973Y-68202000D01*
X86511635Y-68202000D01*
X86490731Y-68200254D01*
X86487565Y-68199721D01*
X86470967Y-68196929D01*
X86464777Y-68196853D01*
X86463292Y-68196835D01*
X86463287Y-68196835D01*
X86458428Y-68196776D01*
X86453614Y-68197465D01*
X86453605Y-68197466D01*
X86431779Y-68200592D01*
X86426278Y-68201256D01*
X86300032Y-68213691D01*
X86294108Y-68215488D01*
X86153646Y-68258096D01*
X86153643Y-68258097D01*
X86147723Y-68259893D01*
X86007355Y-68334922D01*
X85884321Y-68435893D01*
X85783350Y-68558927D01*
X85708321Y-68699295D01*
X85706525Y-68705215D01*
X85706524Y-68705218D01*
X85681860Y-68786527D01*
X85662119Y-68851604D01*
X85655654Y-68917251D01*
X85650745Y-68967090D01*
X85649854Y-68974109D01*
X85645242Y-69003730D01*
X85646406Y-69012632D01*
X85646406Y-69012635D01*
X85649364Y-69035251D01*
X85650428Y-69051589D01*
X85650428Y-70260672D01*
X85648928Y-70280056D01*
X85645242Y-70303730D01*
X83829373Y-70303730D01*
X83821533Y-69662105D01*
X83819087Y-69461882D01*
X83819147Y-69456165D01*
X83834922Y-68980625D01*
X83847830Y-68591529D01*
X83848149Y-68585826D01*
X83859573Y-68440677D01*
X83916025Y-67723369D01*
X83916603Y-67717685D01*
X84023531Y-66859217D01*
X84024366Y-66853561D01*
X84170130Y-66000809D01*
X84171221Y-65995197D01*
X84355518Y-65149934D01*
X84356863Y-65144377D01*
X84579309Y-64308366D01*
X84580904Y-64302876D01*
X84841045Y-63477812D01*
X84842887Y-63472400D01*
X85140194Y-62659971D01*
X85142280Y-62654648D01*
X85363927Y-62124783D01*
X85476139Y-61856533D01*
X85478463Y-61851314D01*
X85539643Y-61721888D01*
X85678729Y-61427649D01*
X85848163Y-61069209D01*
X85850722Y-61064097D01*
X86255547Y-60299514D01*
X86258337Y-60294523D01*
X86697401Y-59549139D01*
X86700414Y-59544280D01*
X87172864Y-58819545D01*
X87176093Y-58814828D01*
X87680921Y-58112284D01*
X87684362Y-58107718D01*
X87717049Y-58066330D01*
X88097699Y-57584344D01*
X88220537Y-57428805D01*
X88224181Y-57424400D01*
X88790606Y-56770499D01*
X88794447Y-56766263D01*
X89253887Y-56282114D01*
X89389968Y-56138715D01*
X89393965Y-56134691D01*
X89877230Y-55669634D01*
X90017341Y-55534803D01*
X90021549Y-55530934D01*
X90671465Y-54959969D01*
X90675844Y-54956294D01*
X91351006Y-54415387D01*
X91355548Y-54411914D01*
X92054556Y-53902188D01*
X92059251Y-53898925D01*
X92383522Y-53684295D01*
X92780675Y-53421426D01*
X92785493Y-53418393D01*
X93527823Y-52974117D01*
X93532775Y-52971303D01*
X94294492Y-52561161D01*
X94299582Y-52558567D01*
X95079123Y-52183399D01*
X95084330Y-52181037D01*
X95880094Y-51841616D01*
X95885374Y-51839504D01*
X96695735Y-51536522D01*
X96701094Y-51534656D01*
X97524379Y-51268742D01*
X97529810Y-51267123D01*
X98364288Y-51038836D01*
X98369826Y-51037455D01*
X99213775Y-50847264D01*
X99219379Y-50846134D01*
X100071074Y-50694424D01*
X100076724Y-50693549D01*
X100934428Y-50580630D01*
X100940111Y-50580013D01*
X101802097Y-50506114D01*
X101807787Y-50505756D01*
X102568323Y-50475210D01*
X102672191Y-50471038D01*
X102677908Y-50470938D01*
X103542999Y-50475468D01*
G37*
%TD.AperFunction*%
%TD*%
M02*
