%TF.GenerationSoftware,KiCad,Pcbnew,(6.0.4-0)*%
%TF.CreationDate,2022-05-05T14:31:54+02:00*%
%TF.ProjectId,GlowTubeLEDconnectorA_PCB,476c6f77-5475-4626-954c-4544636f6e6e,rev?*%
%TF.SameCoordinates,Original*%
%TF.FileFunction,Legend,Top*%
%TF.FilePolarity,Positive*%
%FSLAX46Y46*%
G04 Gerber Fmt 4.6, Leading zero omitted, Abs format (unit mm)*
G04 Created by KiCad (PCBNEW (6.0.4-0)) date 2022-05-05 14:31:54*
%MOMM*%
%LPD*%
G01*
G04 APERTURE LIST*
%ADD10C,0.150000*%
G04 APERTURE END LIST*
D10*
X106200952Y-68822380D02*
X105724761Y-68822380D01*
X105724761Y-67822380D01*
X106534285Y-68298571D02*
X106867619Y-68298571D01*
X107010476Y-68822380D02*
X106534285Y-68822380D01*
X106534285Y-67822380D01*
X107010476Y-67822380D01*
X107439047Y-68822380D02*
X107439047Y-67822380D01*
X107677142Y-67822380D01*
X107820000Y-67870000D01*
X107915238Y-67965238D01*
X107962857Y-68060476D01*
X108010476Y-68250952D01*
X108010476Y-68393809D01*
X107962857Y-68584285D01*
X107915238Y-68679523D01*
X107820000Y-68774761D01*
X107677142Y-68822380D01*
X107439047Y-68822380D01*
X108391428Y-67917619D02*
X108439047Y-67870000D01*
X108534285Y-67822380D01*
X108772380Y-67822380D01*
X108867619Y-67870000D01*
X108915238Y-67917619D01*
X108962857Y-68012857D01*
X108962857Y-68108095D01*
X108915238Y-68250952D01*
X108343809Y-68822380D01*
X108962857Y-68822380D01*
X119334761Y-67920000D02*
X119239523Y-67872380D01*
X119096666Y-67872380D01*
X118953809Y-67920000D01*
X118858571Y-68015238D01*
X118810952Y-68110476D01*
X118763333Y-68300952D01*
X118763333Y-68443809D01*
X118810952Y-68634285D01*
X118858571Y-68729523D01*
X118953809Y-68824761D01*
X119096666Y-68872380D01*
X119191904Y-68872380D01*
X119334761Y-68824761D01*
X119382380Y-68777142D01*
X119382380Y-68443809D01*
X119191904Y-68443809D01*
X108871904Y-70720000D02*
X108776666Y-70672380D01*
X108633809Y-70672380D01*
X108490952Y-70720000D01*
X108395714Y-70815238D01*
X108348095Y-70910476D01*
X108300476Y-71100952D01*
X108300476Y-71243809D01*
X108348095Y-71434285D01*
X108395714Y-71529523D01*
X108490952Y-71624761D01*
X108633809Y-71672380D01*
X108729047Y-71672380D01*
X108871904Y-71624761D01*
X108919523Y-71577142D01*
X108919523Y-71243809D01*
X108729047Y-71243809D01*
X107812380Y-65392380D02*
X107336190Y-65392380D01*
X107288571Y-65868571D01*
X107336190Y-65820952D01*
X107431428Y-65773333D01*
X107669523Y-65773333D01*
X107764761Y-65820952D01*
X107812380Y-65868571D01*
X107859999Y-65963809D01*
X107859999Y-66201904D01*
X107812380Y-66297142D01*
X107764761Y-66344761D01*
X107669523Y-66392380D01*
X107431428Y-66392380D01*
X107336190Y-66344761D01*
X107288571Y-66297142D01*
X108145714Y-65392380D02*
X108479047Y-66392380D01*
X108812380Y-65392380D01*
X119280952Y-71482380D02*
X118804761Y-71482380D01*
X118804761Y-70482380D01*
X119614285Y-70958571D02*
X119947619Y-70958571D01*
X120090476Y-71482380D02*
X119614285Y-71482380D01*
X119614285Y-70482380D01*
X120090476Y-70482380D01*
X120519047Y-71482380D02*
X120519047Y-70482380D01*
X120757142Y-70482380D01*
X120900000Y-70530000D01*
X120995238Y-70625238D01*
X121042857Y-70720476D01*
X121090476Y-70910952D01*
X121090476Y-71053809D01*
X121042857Y-71244285D01*
X120995238Y-71339523D01*
X120900000Y-71434761D01*
X120757142Y-71482380D01*
X120519047Y-71482380D01*
X122042857Y-71482380D02*
X121471428Y-71482380D01*
X121757142Y-71482380D02*
X121757142Y-70482380D01*
X121661904Y-70625238D01*
X121566666Y-70720476D01*
X121471428Y-70768095D01*
X119489523Y-73122380D02*
X119013333Y-73122380D01*
X118965714Y-73598571D01*
X119013333Y-73550952D01*
X119108571Y-73503333D01*
X119346666Y-73503333D01*
X119441904Y-73550952D01*
X119489523Y-73598571D01*
X119537142Y-73693809D01*
X119537142Y-73931904D01*
X119489523Y-74027142D01*
X119441904Y-74074761D01*
X119346666Y-74122380D01*
X119108571Y-74122380D01*
X119013333Y-74074761D01*
X118965714Y-74027142D01*
X119822857Y-73122380D02*
X120156190Y-74122380D01*
X120489523Y-73122380D01*
M02*
