%TF.GenerationSoftware,KiCad,Pcbnew,(6.0.4-0)*%
%TF.CreationDate,2022-06-22T17:42:18+02:00*%
%TF.ProjectId,GlowTubeLEDconnectorB_PCB,476c6f77-5475-4626-954c-4544636f6e6e,rev?*%
%TF.SameCoordinates,Original*%
%TF.FileFunction,Copper,L2,Bot*%
%TF.FilePolarity,Positive*%
%FSLAX46Y46*%
G04 Gerber Fmt 4.6, Leading zero omitted, Abs format (unit mm)*
G04 Created by KiCad (PCBNEW (6.0.4-0)) date 2022-06-22 17:42:18*
%MOMM*%
%LPD*%
G01*
G04 APERTURE LIST*
%TA.AperFunction,SMDPad,CuDef*%
%ADD10R,2.800000X2.000000*%
%TD*%
%TA.AperFunction,SMDPad,CuDef*%
%ADD11R,2.800000X1.600000*%
%TD*%
%TA.AperFunction,Conductor*%
%ADD12C,1.500000*%
%TD*%
G04 APERTURE END LIST*
D10*
%TO.P,U1,3,GND*%
%TO.N,GND*%
X118150000Y-65819802D03*
%TO.P,U1,2,Data*%
%TO.N,unconnected-(U1-Pad2)*%
X118150000Y-68519068D03*
D11*
%TO.P,U1,1,5V*%
%TO.N,+5V*%
X118150000Y-71018334D03*
%TD*%
D10*
%TO.P,U2,3,GND*%
%TO.N,GND*%
X111938800Y-68549266D03*
%TO.P,U2,2,Data*%
%TO.N,unconnected-(U2-Pad2)*%
X111938800Y-65850000D03*
D11*
%TO.P,U2,1,5V*%
%TO.N,+5V*%
X111938800Y-63350734D03*
%TD*%
D12*
%TO.N,GND*%
X118550000Y-65819802D02*
X120329802Y-65819802D01*
X120329802Y-65819802D02*
X121590000Y-67080000D01*
X121590000Y-72077356D02*
X120427356Y-73240000D01*
X121590000Y-67080000D02*
X121590000Y-72077356D01*
X120427356Y-73240000D02*
X114100000Y-73240000D01*
X112060000Y-71200000D02*
X112060000Y-69070466D01*
X114100000Y-73240000D02*
X112060000Y-71200000D01*
X112060000Y-69070466D02*
X111538800Y-68549266D01*
%TO.N,+5V*%
X118550000Y-71018334D02*
X116368334Y-71018334D01*
X115040000Y-64600000D02*
X113790734Y-63350734D01*
X113790734Y-63350734D02*
X111538800Y-63350734D01*
X116368334Y-71018334D02*
X115040000Y-69690000D01*
X115040000Y-69690000D02*
X115040000Y-64600000D01*
%TD*%
%TA.AperFunction,Conductor*%
%TO.N,GND*%
G36*
X104647199Y-47995967D02*
G01*
X104652914Y-47996126D01*
X105516915Y-48039895D01*
X105522616Y-48040314D01*
X106383718Y-48123228D01*
X106389394Y-48123905D01*
X107245864Y-48245799D01*
X107251500Y-48246732D01*
X108101529Y-48407347D01*
X108107121Y-48408535D01*
X108949036Y-48607555D01*
X108954569Y-48608997D01*
X109786536Y-48845989D01*
X109791994Y-48847678D01*
X110612403Y-49122183D01*
X110617763Y-49124113D01*
X111215715Y-49354844D01*
X111424872Y-49435551D01*
X111430122Y-49437715D01*
X112222312Y-49785462D01*
X112227439Y-49787853D01*
X112761011Y-50051560D01*
X113002980Y-50171149D01*
X113008047Y-50173798D01*
X113765422Y-50591892D01*
X113770363Y-50594767D01*
X114507975Y-51046776D01*
X114512780Y-51049873D01*
X115229115Y-51534868D01*
X115233776Y-51538180D01*
X115927409Y-52055198D01*
X115931882Y-52058694D01*
X116198703Y-52277084D01*
X116601338Y-52606637D01*
X116605679Y-52610358D01*
X117249560Y-53188079D01*
X117253728Y-53191992D01*
X117870777Y-53798364D01*
X117874762Y-53802463D01*
X118463629Y-54436160D01*
X118467425Y-54440435D01*
X119026969Y-55100226D01*
X119030567Y-55104670D01*
X119559575Y-55789127D01*
X119562968Y-55793728D01*
X120060413Y-56501521D01*
X120063593Y-56506272D01*
X120528401Y-57235875D01*
X120531363Y-57240765D01*
X120962593Y-57990696D01*
X120965330Y-57995716D01*
X121269123Y-58584302D01*
X121362113Y-58764467D01*
X121364612Y-58769593D01*
X121726114Y-59555553D01*
X121728365Y-59560755D01*
X121933422Y-60065748D01*
X122053845Y-60362316D01*
X122055875Y-60367660D01*
X122344648Y-61183127D01*
X122346434Y-61188559D01*
X122597919Y-62016296D01*
X122599454Y-62021796D01*
X122720186Y-62495442D01*
X122813132Y-62860085D01*
X122814418Y-62865656D01*
X122989846Y-63712767D01*
X122990878Y-63718390D01*
X123127698Y-64572589D01*
X123128474Y-64578253D01*
X123167611Y-64921755D01*
X123224184Y-65418282D01*
X123226406Y-65437788D01*
X123226923Y-65443472D01*
X123285201Y-66298302D01*
X123285763Y-66306549D01*
X123286022Y-66312242D01*
X123304096Y-67108694D01*
X123305667Y-67177928D01*
X123305692Y-67182102D01*
X123301640Y-67569078D01*
X123301527Y-67579826D01*
X123301414Y-67583996D01*
X123264859Y-68421266D01*
X123263646Y-68449041D01*
X123263268Y-68454730D01*
X123195524Y-69213794D01*
X123186366Y-69316403D01*
X123185731Y-69322068D01*
X123152128Y-69570599D01*
X123069816Y-70179391D01*
X123068926Y-70185014D01*
X122914239Y-71036195D01*
X122913097Y-71041759D01*
X122719959Y-71885044D01*
X122718556Y-71890586D01*
X122487377Y-72724191D01*
X122485725Y-72729664D01*
X122216953Y-73551974D01*
X122215072Y-73557316D01*
X121996688Y-74135252D01*
X121909272Y-74366592D01*
X121907131Y-74371890D01*
X121680127Y-74898990D01*
X121564949Y-75166430D01*
X121562575Y-75171615D01*
X121292612Y-75727581D01*
X121184700Y-75949817D01*
X121182090Y-75954896D01*
X121012834Y-76266627D01*
X120769301Y-76715160D01*
X120766460Y-76720121D01*
X120319603Y-77460883D01*
X120316539Y-77465710D01*
X119836564Y-78185401D01*
X119833285Y-78190085D01*
X119321131Y-78887300D01*
X119317643Y-78891829D01*
X118774405Y-79565070D01*
X118770715Y-79569437D01*
X118541404Y-79828627D01*
X118236771Y-80172953D01*
X118197482Y-80217361D01*
X118193604Y-80221548D01*
X117598152Y-80836007D01*
X117591568Y-80842801D01*
X117587504Y-80846808D01*
X117086297Y-81319121D01*
X116957917Y-81440101D01*
X116953668Y-81443927D01*
X116297813Y-82008051D01*
X116293395Y-82011680D01*
X115612638Y-82545461D01*
X115608061Y-82548885D01*
X114903753Y-83051264D01*
X114899024Y-83054478D01*
X114172690Y-83524364D01*
X114167829Y-83527355D01*
X113420900Y-83963825D01*
X113415914Y-83966589D01*
X112649950Y-84368729D01*
X112644849Y-84371261D01*
X112399440Y-84486219D01*
X111861441Y-84738236D01*
X111856210Y-84740543D01*
X111056966Y-85071601D01*
X111051636Y-85073668D01*
X110238217Y-85368121D01*
X110232798Y-85369945D01*
X109406839Y-85627203D01*
X109401343Y-85628779D01*
X108564573Y-85848301D01*
X108559012Y-85849626D01*
X107713131Y-86030968D01*
X107707515Y-86032039D01*
X106854277Y-86174822D01*
X106848638Y-86175635D01*
X106548469Y-86211959D01*
X105989817Y-86279563D01*
X105984127Y-86280121D01*
X105121489Y-86344983D01*
X105115780Y-86345283D01*
X104633584Y-86359594D01*
X104251023Y-86370948D01*
X104245326Y-86370987D01*
X103583608Y-86360592D01*
X103380363Y-86357399D01*
X103374650Y-86357180D01*
X102511173Y-86304368D01*
X102505476Y-86303890D01*
X101645263Y-86211959D01*
X101639593Y-86211222D01*
X101240776Y-86150195D01*
X100784444Y-86080366D01*
X100778856Y-86079381D01*
X100354681Y-85994622D01*
X99930528Y-85909868D01*
X99924948Y-85908621D01*
X99509323Y-85805765D01*
X99085163Y-85700795D01*
X99079688Y-85699308D01*
X98405501Y-85499604D01*
X98250215Y-85453606D01*
X98244772Y-85451859D01*
X97990272Y-85363731D01*
X97427282Y-85168778D01*
X97421950Y-85166795D01*
X97020046Y-85006858D01*
X96618155Y-84846926D01*
X96612892Y-84844692D01*
X95824434Y-84488690D01*
X95819278Y-84486219D01*
X95310001Y-84227848D01*
X95047803Y-84094827D01*
X95042774Y-84092131D01*
X94818537Y-83965264D01*
X94289814Y-83666127D01*
X94284924Y-83663211D01*
X93552063Y-83203489D01*
X93547340Y-83200375D01*
X92836086Y-82707879D01*
X92831484Y-82704537D01*
X92143300Y-82180280D01*
X92138832Y-82176713D01*
X91475159Y-81621797D01*
X91470858Y-81618031D01*
X90833064Y-81033600D01*
X90828937Y-81029643D01*
X90218283Y-80416853D01*
X90214341Y-80412713D01*
X89632130Y-79772872D01*
X89628379Y-79768557D01*
X89165353Y-79210840D01*
X89075782Y-79102952D01*
X89072240Y-79098483D01*
X89069158Y-79094407D01*
X88550397Y-78408482D01*
X88547060Y-78403854D01*
X88396922Y-78185401D01*
X88209301Y-77912412D01*
X88057066Y-77690908D01*
X88053936Y-77686124D01*
X87596801Y-76951707D01*
X87593890Y-76946786D01*
X87441959Y-76676048D01*
X113021905Y-76676048D01*
X113047181Y-76997208D01*
X113111408Y-77312893D01*
X113213628Y-77618398D01*
X113215277Y-77621856D01*
X113215279Y-77621860D01*
X113311851Y-77824327D01*
X113352319Y-77909169D01*
X113525411Y-78180870D01*
X113730325Y-78429451D01*
X113964007Y-78651206D01*
X114222972Y-78842830D01*
X114301573Y-78887300D01*
X114500002Y-78999566D01*
X114500006Y-78999568D01*
X114503359Y-79001465D01*
X114800989Y-79124748D01*
X114903915Y-79153292D01*
X115107710Y-79209810D01*
X115107718Y-79209812D01*
X115111426Y-79210840D01*
X115430040Y-79258457D01*
X115433338Y-79258601D01*
X115544009Y-79263433D01*
X115544014Y-79263433D01*
X115545386Y-79263493D01*
X115741815Y-79263493D01*
X115981552Y-79248830D01*
X115985335Y-79248129D01*
X115985342Y-79248128D01*
X116186526Y-79210840D01*
X116298310Y-79190122D01*
X116574741Y-79102964D01*
X116601881Y-79094407D01*
X116601884Y-79094406D01*
X116605553Y-79093249D01*
X116609050Y-79091655D01*
X116609056Y-79091653D01*
X116895191Y-78961254D01*
X116895195Y-78961252D01*
X116898699Y-78959655D01*
X117013017Y-78889601D01*
X117170102Y-78793339D01*
X117170105Y-78793337D01*
X117173380Y-78791330D01*
X117176384Y-78788940D01*
X117176389Y-78788937D01*
X117422489Y-78593179D01*
X117425499Y-78590785D01*
X117586954Y-78426488D01*
X117648595Y-78363762D01*
X117648598Y-78363759D01*
X117651299Y-78361010D01*
X117653645Y-78357953D01*
X117845078Y-78108473D01*
X117845083Y-78108465D01*
X117847413Y-78105429D01*
X118010918Y-77827853D01*
X118139376Y-77532419D01*
X118230872Y-77223533D01*
X118284043Y-76905798D01*
X118298095Y-76583952D01*
X118272819Y-76262792D01*
X118208592Y-75947107D01*
X118106372Y-75641602D01*
X117995569Y-75409298D01*
X117969334Y-75354296D01*
X117969332Y-75354292D01*
X117967681Y-75350831D01*
X117794589Y-75079130D01*
X117589675Y-74830549D01*
X117355993Y-74608794D01*
X117097028Y-74417170D01*
X116887714Y-74298746D01*
X116819998Y-74260434D01*
X116819994Y-74260432D01*
X116816641Y-74258535D01*
X116519011Y-74135252D01*
X116368120Y-74093406D01*
X116212290Y-74050190D01*
X116212282Y-74050188D01*
X116208574Y-74049160D01*
X115889960Y-74001543D01*
X115886662Y-74001399D01*
X115775991Y-73996567D01*
X115775986Y-73996567D01*
X115774614Y-73996507D01*
X115578185Y-73996507D01*
X115338448Y-74011170D01*
X115334665Y-74011871D01*
X115334658Y-74011872D01*
X115180069Y-74040524D01*
X115021690Y-74069878D01*
X114839202Y-74127416D01*
X114718119Y-74165593D01*
X114718116Y-74165594D01*
X114714447Y-74166751D01*
X114710950Y-74168345D01*
X114710944Y-74168347D01*
X114424809Y-74298746D01*
X114424805Y-74298748D01*
X114421301Y-74300345D01*
X114418022Y-74302355D01*
X114418019Y-74302356D01*
X114308839Y-74369262D01*
X114146620Y-74468670D01*
X114143616Y-74471060D01*
X114143611Y-74471063D01*
X113986570Y-74595980D01*
X113894501Y-74669215D01*
X113668701Y-74898990D01*
X113666357Y-74902044D01*
X113666355Y-74902047D01*
X113474922Y-75151527D01*
X113474917Y-75151535D01*
X113472587Y-75154571D01*
X113309082Y-75432147D01*
X113180624Y-75727581D01*
X113089128Y-76036467D01*
X113035957Y-76354202D01*
X113021905Y-76676048D01*
X87441959Y-76676048D01*
X87170524Y-76192355D01*
X87167840Y-76187307D01*
X86779139Y-75414462D01*
X86776687Y-75409298D01*
X86555734Y-74915351D01*
X86423444Y-74619614D01*
X86421231Y-74614350D01*
X86420086Y-74611443D01*
X86104170Y-73809443D01*
X86102199Y-73804086D01*
X85821976Y-72985621D01*
X85820248Y-72980171D01*
X85577454Y-72149878D01*
X85575974Y-72144356D01*
X85371087Y-71303877D01*
X85369859Y-71298293D01*
X85203308Y-70449379D01*
X85202335Y-70443745D01*
X85143699Y-70051401D01*
X85075330Y-69593935D01*
X110030801Y-69593935D01*
X110031171Y-69600756D01*
X110036695Y-69651618D01*
X110040321Y-69666870D01*
X110085476Y-69787320D01*
X110094014Y-69802915D01*
X110170515Y-69904990D01*
X110183076Y-69917551D01*
X110285151Y-69994052D01*
X110300746Y-70002590D01*
X110421194Y-70047744D01*
X110436449Y-70051371D01*
X110487314Y-70056897D01*
X110494128Y-70057266D01*
X111666685Y-70057266D01*
X111681924Y-70052791D01*
X111683129Y-70051401D01*
X111684800Y-70043718D01*
X111684800Y-68821381D01*
X111680325Y-68806142D01*
X111678935Y-68804937D01*
X111671252Y-68803266D01*
X110048916Y-68803266D01*
X110033677Y-68807741D01*
X110032472Y-68809131D01*
X110030801Y-68816814D01*
X110030801Y-69593935D01*
X85075330Y-69593935D01*
X85074468Y-69588165D01*
X85073752Y-69582499D01*
X85066884Y-69516033D01*
X85003846Y-68906031D01*
X84984825Y-68721971D01*
X84984367Y-68716272D01*
X84952191Y-68158244D01*
X84934570Y-67852630D01*
X84934370Y-67846925D01*
X84923801Y-66981887D01*
X84923861Y-66976170D01*
X84925439Y-66928588D01*
X87311875Y-66928588D01*
X87315620Y-66976170D01*
X87336745Y-67244583D01*
X87337151Y-67249748D01*
X87401378Y-67565433D01*
X87503598Y-67870938D01*
X87642289Y-68161709D01*
X87815381Y-68433410D01*
X88020295Y-68681991D01*
X88253977Y-68903746D01*
X88512942Y-69095370D01*
X88653136Y-69174688D01*
X88789972Y-69252106D01*
X88789976Y-69252108D01*
X88793329Y-69254005D01*
X89090959Y-69377288D01*
X89193885Y-69405832D01*
X89397680Y-69462350D01*
X89397688Y-69462352D01*
X89401396Y-69463380D01*
X89720010Y-69510997D01*
X89723308Y-69511141D01*
X89833979Y-69515973D01*
X89833984Y-69515973D01*
X89835356Y-69516033D01*
X90031785Y-69516033D01*
X90271522Y-69501370D01*
X90275305Y-69500669D01*
X90275312Y-69500668D01*
X90476496Y-69463380D01*
X90588280Y-69442662D01*
X90800296Y-69375814D01*
X90891851Y-69346947D01*
X90891854Y-69346946D01*
X90895523Y-69345789D01*
X90899020Y-69344195D01*
X90899026Y-69344193D01*
X91185161Y-69213794D01*
X91185165Y-69213792D01*
X91188669Y-69212195D01*
X91463350Y-69043870D01*
X91466354Y-69041480D01*
X91466359Y-69041477D01*
X91712459Y-68845719D01*
X91715469Y-68843325D01*
X91941269Y-68613550D01*
X91943615Y-68610493D01*
X92135048Y-68361013D01*
X92135053Y-68361005D01*
X92137383Y-68357969D01*
X92300888Y-68080393D01*
X92401164Y-67849774D01*
X92427809Y-67788494D01*
X92427809Y-67788493D01*
X92429346Y-67784959D01*
X92520842Y-67476073D01*
X92574013Y-67158338D01*
X92585374Y-66898134D01*
X110030300Y-66898134D01*
X110037055Y-66960316D01*
X110088185Y-67096705D01*
X110109005Y-67124485D01*
X110133853Y-67190991D01*
X110118800Y-67260374D01*
X110109005Y-67275615D01*
X110094014Y-67295618D01*
X110085476Y-67311212D01*
X110040322Y-67431660D01*
X110036695Y-67446915D01*
X110031169Y-67497780D01*
X110030800Y-67504594D01*
X110030800Y-68277151D01*
X110035275Y-68292390D01*
X110036665Y-68293595D01*
X110044348Y-68295266D01*
X112066800Y-68295266D01*
X112134921Y-68315268D01*
X112181414Y-68368924D01*
X112192800Y-68421266D01*
X112192800Y-70039150D01*
X112197275Y-70054389D01*
X112198665Y-70055594D01*
X112206348Y-70057265D01*
X113383469Y-70057265D01*
X113390290Y-70056895D01*
X113441152Y-70051371D01*
X113456404Y-70047745D01*
X113576854Y-70002590D01*
X113592448Y-69994053D01*
X113630244Y-69965726D01*
X113696750Y-69940879D01*
X113766132Y-69955932D01*
X113816362Y-70006107D01*
X113828628Y-70038424D01*
X113838258Y-70080470D01*
X113840460Y-70085632D01*
X113845294Y-70096967D01*
X113850927Y-70113142D01*
X113854182Y-70125039D01*
X113855663Y-70130451D01*
X113858079Y-70135516D01*
X113891539Y-70205667D01*
X113893710Y-70210476D01*
X113926397Y-70287109D01*
X113936251Y-70302110D01*
X113944654Y-70317025D01*
X113952378Y-70333218D01*
X113955648Y-70337769D01*
X113955650Y-70337772D01*
X114000999Y-70400881D01*
X114003989Y-70405232D01*
X114047196Y-70471010D01*
X114047202Y-70471018D01*
X114049735Y-70474874D01*
X114068257Y-70495662D01*
X114076490Y-70505939D01*
X114083471Y-70515654D01*
X114087498Y-70519556D01*
X114160255Y-70590063D01*
X114161665Y-70591452D01*
X115413806Y-71843593D01*
X115424674Y-71855985D01*
X115434796Y-71869177D01*
X115434803Y-71869185D01*
X115438211Y-71873626D01*
X115453807Y-71887817D01*
X115498519Y-71928502D01*
X115502814Y-71932601D01*
X115518745Y-71948532D01*
X115538761Y-71965268D01*
X115542710Y-71968713D01*
X115600213Y-72021037D01*
X115600217Y-72021040D01*
X115604370Y-72024819D01*
X115609125Y-72027802D01*
X115609128Y-72027804D01*
X115619558Y-72034346D01*
X115633431Y-72044425D01*
X115642879Y-72052326D01*
X115642886Y-72052331D01*
X115647188Y-72055928D01*
X115663162Y-72065039D01*
X115719574Y-72097216D01*
X115724102Y-72099926D01*
X115789930Y-72141220D01*
X115789933Y-72141222D01*
X115794678Y-72144198D01*
X115799883Y-72146291D01*
X115799886Y-72146292D01*
X115811313Y-72150886D01*
X115826745Y-72158346D01*
X115837453Y-72164454D01*
X115837462Y-72164458D01*
X115842327Y-72167233D01*
X115847604Y-72169102D01*
X115847609Y-72169104D01*
X115920876Y-72195049D01*
X115925812Y-72196914D01*
X116003117Y-72227990D01*
X116008604Y-72229126D01*
X116008606Y-72229127D01*
X116020683Y-72231628D01*
X116037178Y-72236233D01*
X116054093Y-72242223D01*
X116136344Y-72255693D01*
X116141514Y-72256651D01*
X116223101Y-72273547D01*
X116227713Y-72273813D01*
X116227714Y-72273813D01*
X116250882Y-72275149D01*
X116263987Y-72276596D01*
X116270244Y-72277620D01*
X116270248Y-72277620D01*
X116275791Y-72278528D01*
X116281404Y-72278440D01*
X116281406Y-72278440D01*
X116382598Y-72276850D01*
X116384577Y-72276834D01*
X116501487Y-72276834D01*
X116545716Y-72284852D01*
X116632289Y-72317307D01*
X116632291Y-72317307D01*
X116639684Y-72320079D01*
X116647532Y-72320932D01*
X116647534Y-72320932D01*
X116698469Y-72326465D01*
X116701866Y-72326834D01*
X119598134Y-72326834D01*
X119660316Y-72320079D01*
X119796705Y-72268949D01*
X119913261Y-72181595D01*
X120000615Y-72065039D01*
X120051745Y-71928650D01*
X120058500Y-71866468D01*
X120058500Y-70170200D01*
X120051745Y-70108018D01*
X120000615Y-69971629D01*
X119980107Y-69944265D01*
X119955260Y-69877758D01*
X119970314Y-69808376D01*
X119980107Y-69793137D01*
X119984466Y-69787320D01*
X120000615Y-69765773D01*
X120051745Y-69629384D01*
X120058500Y-69567202D01*
X120058500Y-67470934D01*
X120051745Y-67408752D01*
X120000615Y-67272363D01*
X119979795Y-67244583D01*
X119954947Y-67178077D01*
X119970000Y-67108694D01*
X119979795Y-67093453D01*
X119994786Y-67073450D01*
X120003324Y-67057856D01*
X120048478Y-66937408D01*
X120052105Y-66922153D01*
X120057631Y-66871288D01*
X120058000Y-66864474D01*
X120058000Y-66091917D01*
X120053525Y-66076678D01*
X120052135Y-66075473D01*
X120044452Y-66073802D01*
X118022000Y-66073802D01*
X117953879Y-66053800D01*
X117907386Y-66000144D01*
X117896000Y-65947802D01*
X117896000Y-65547687D01*
X118404000Y-65547687D01*
X118408475Y-65562926D01*
X118409865Y-65564131D01*
X118417548Y-65565802D01*
X120039884Y-65565802D01*
X120055123Y-65561327D01*
X120056328Y-65559937D01*
X120057999Y-65552254D01*
X120057999Y-64775133D01*
X120057629Y-64768312D01*
X120052105Y-64717450D01*
X120048479Y-64702198D01*
X120003324Y-64581748D01*
X119994786Y-64566153D01*
X119918285Y-64464078D01*
X119905724Y-64451517D01*
X119803649Y-64375016D01*
X119788054Y-64366478D01*
X119667606Y-64321324D01*
X119652351Y-64317697D01*
X119601486Y-64312171D01*
X119594672Y-64311802D01*
X118422115Y-64311802D01*
X118406876Y-64316277D01*
X118405671Y-64317667D01*
X118404000Y-64325350D01*
X118404000Y-65547687D01*
X117896000Y-65547687D01*
X117896000Y-64329918D01*
X117891525Y-64314679D01*
X117890135Y-64313474D01*
X117882452Y-64311803D01*
X116705331Y-64311803D01*
X116698510Y-64312173D01*
X116647648Y-64317697D01*
X116632396Y-64321323D01*
X116511946Y-64366478D01*
X116496352Y-64375015D01*
X116467756Y-64396447D01*
X116401250Y-64421294D01*
X116331867Y-64406241D01*
X116281638Y-64356066D01*
X116270658Y-64328867D01*
X116261631Y-64295869D01*
X116260345Y-64290752D01*
X116242995Y-64215000D01*
X116242994Y-64214998D01*
X116241742Y-64209530D01*
X116234706Y-64193033D01*
X116229073Y-64176858D01*
X116225815Y-64164953D01*
X116224337Y-64159549D01*
X116221926Y-64154494D01*
X116221924Y-64154489D01*
X116188454Y-64084317D01*
X116186283Y-64079508D01*
X116155805Y-64008053D01*
X116155802Y-64008047D01*
X116153603Y-64002892D01*
X116143756Y-63987902D01*
X116135343Y-63972971D01*
X116130037Y-63961846D01*
X116127622Y-63956782D01*
X116124350Y-63952229D01*
X116124348Y-63952225D01*
X116078990Y-63889103D01*
X116076001Y-63884753D01*
X116032801Y-63818987D01*
X116030265Y-63815126D01*
X116011743Y-63794338D01*
X116003506Y-63784056D01*
X115999799Y-63778897D01*
X115996529Y-63774346D01*
X115919746Y-63699938D01*
X115918336Y-63698549D01*
X114745259Y-62525471D01*
X114734391Y-62513080D01*
X114728971Y-62506017D01*
X114720857Y-62495442D01*
X114716711Y-62491669D01*
X114716706Y-62491664D01*
X114660570Y-62440585D01*
X114656275Y-62436487D01*
X114640324Y-62420536D01*
X114638174Y-62418738D01*
X114620311Y-62403802D01*
X114616336Y-62400334D01*
X114558846Y-62348022D01*
X114558837Y-62348015D01*
X114554698Y-62344249D01*
X114539507Y-62334720D01*
X114525641Y-62324645D01*
X114516185Y-62316738D01*
X114516175Y-62316731D01*
X114511880Y-62313140D01*
X114439486Y-62271847D01*
X114434966Y-62269142D01*
X114369138Y-62227848D01*
X114369135Y-62227846D01*
X114364390Y-62224870D01*
X114359185Y-62222777D01*
X114359182Y-62222776D01*
X114347755Y-62218182D01*
X114332323Y-62210722D01*
X114321615Y-62204614D01*
X114321606Y-62204610D01*
X114316741Y-62201835D01*
X114311464Y-62199966D01*
X114311459Y-62199964D01*
X114238192Y-62174019D01*
X114233256Y-62172154D01*
X114161150Y-62143168D01*
X114155951Y-62141078D01*
X114150464Y-62139942D01*
X114150462Y-62139941D01*
X114138385Y-62137440D01*
X114121890Y-62132835D01*
X114104975Y-62126845D01*
X114022724Y-62113375D01*
X114017554Y-62112417D01*
X113935967Y-62095521D01*
X113931355Y-62095255D01*
X113931354Y-62095255D01*
X113908186Y-62093919D01*
X113895081Y-62092472D01*
X113888824Y-62091448D01*
X113888820Y-62091448D01*
X113883277Y-62090540D01*
X113877664Y-62090628D01*
X113877662Y-62090628D01*
X113776470Y-62092218D01*
X113774491Y-62092234D01*
X113587313Y-62092234D01*
X113543084Y-62084216D01*
X113456511Y-62051761D01*
X113456509Y-62051761D01*
X113449116Y-62048989D01*
X113441268Y-62048136D01*
X113441266Y-62048136D01*
X113390331Y-62042603D01*
X113386934Y-62042234D01*
X110490666Y-62042234D01*
X110428484Y-62048989D01*
X110292095Y-62100119D01*
X110175539Y-62187473D01*
X110088185Y-62304029D01*
X110037055Y-62440418D01*
X110030300Y-62502600D01*
X110030300Y-64198868D01*
X110037055Y-64261050D01*
X110088185Y-64397439D01*
X110093571Y-64404625D01*
X110108693Y-64424803D01*
X110133540Y-64491310D01*
X110118486Y-64560692D01*
X110108693Y-64575931D01*
X110088185Y-64603295D01*
X110037055Y-64739684D01*
X110030300Y-64801866D01*
X110030300Y-66898134D01*
X92585374Y-66898134D01*
X92588065Y-66836492D01*
X92562789Y-66515332D01*
X92498562Y-66199647D01*
X92396342Y-65894142D01*
X92257651Y-65603371D01*
X92084559Y-65331670D01*
X91879645Y-65083089D01*
X91645963Y-64861334D01*
X91386998Y-64669710D01*
X91215337Y-64572589D01*
X91109968Y-64512974D01*
X91109964Y-64512972D01*
X91106611Y-64511075D01*
X91058895Y-64491310D01*
X90898333Y-64424803D01*
X90808981Y-64387792D01*
X90694581Y-64356066D01*
X90502260Y-64302730D01*
X90502252Y-64302728D01*
X90498544Y-64301700D01*
X90179930Y-64254083D01*
X90176632Y-64253939D01*
X90065961Y-64249107D01*
X90065956Y-64249107D01*
X90064584Y-64249047D01*
X89868155Y-64249047D01*
X89628418Y-64263710D01*
X89624635Y-64264411D01*
X89624628Y-64264412D01*
X89482513Y-64290752D01*
X89311660Y-64322418D01*
X89204942Y-64356066D01*
X89008089Y-64418133D01*
X89008086Y-64418134D01*
X89004417Y-64419291D01*
X89000920Y-64420885D01*
X89000914Y-64420887D01*
X88714779Y-64551286D01*
X88714775Y-64551288D01*
X88711271Y-64552885D01*
X88707992Y-64554895D01*
X88707989Y-64554896D01*
X88442726Y-64717450D01*
X88436590Y-64721210D01*
X88433586Y-64723600D01*
X88433581Y-64723603D01*
X88339462Y-64798469D01*
X88184471Y-64921755D01*
X87958671Y-65151530D01*
X87956327Y-65154584D01*
X87956325Y-65154587D01*
X87764892Y-65404067D01*
X87764887Y-65404075D01*
X87762557Y-65407111D01*
X87599052Y-65684687D01*
X87470594Y-65980121D01*
X87469500Y-65983815D01*
X87469498Y-65983820D01*
X87437479Y-66091917D01*
X87379098Y-66289007D01*
X87325927Y-66606742D01*
X87311875Y-66928588D01*
X84925439Y-66928588D01*
X84952543Y-66111562D01*
X84952862Y-66105854D01*
X84962758Y-65980121D01*
X85020737Y-65243419D01*
X85021315Y-65237735D01*
X85032053Y-65151530D01*
X85128240Y-64379290D01*
X85129075Y-64373634D01*
X85274835Y-63520904D01*
X85275926Y-63515292D01*
X85460218Y-62670051D01*
X85461563Y-62664494D01*
X85684003Y-61828505D01*
X85685598Y-61823015D01*
X85945733Y-60997973D01*
X85947575Y-60992561D01*
X86244873Y-60180153D01*
X86246959Y-60174830D01*
X86506018Y-59555530D01*
X86580809Y-59376737D01*
X86583133Y-59371518D01*
X86952832Y-58589414D01*
X86955392Y-58584302D01*
X87360189Y-57819774D01*
X87362978Y-57814783D01*
X87802040Y-57069403D01*
X87805052Y-57064544D01*
X88277498Y-56339813D01*
X88280729Y-56335096D01*
X88292064Y-56319323D01*
X88785531Y-55632591D01*
X88788965Y-55628033D01*
X89325136Y-54949124D01*
X89328780Y-54944719D01*
X89895191Y-54290835D01*
X89899032Y-54286599D01*
X90358460Y-53802463D01*
X90494537Y-53659068D01*
X90498511Y-53655065D01*
X91121905Y-53055160D01*
X91126102Y-53051302D01*
X91776001Y-52480352D01*
X91780380Y-52476677D01*
X92455524Y-51935784D01*
X92460066Y-51932311D01*
X93159056Y-51422599D01*
X93163751Y-51419336D01*
X93885145Y-50941855D01*
X93889973Y-50938816D01*
X94632283Y-50494552D01*
X94637236Y-50491738D01*
X95398933Y-50081606D01*
X95404023Y-50079012D01*
X96183554Y-49703850D01*
X96188760Y-49701489D01*
X96273385Y-49665393D01*
X96984485Y-49362083D01*
X96989758Y-49359973D01*
X97800114Y-49056994D01*
X97805473Y-49055128D01*
X98628736Y-48789221D01*
X98634167Y-48787602D01*
X99468622Y-48559322D01*
X99474150Y-48557944D01*
X100137127Y-48408535D01*
X100318087Y-48367754D01*
X100323692Y-48366624D01*
X101175364Y-48214918D01*
X101181014Y-48214043D01*
X102038696Y-48101127D01*
X102044379Y-48100510D01*
X102906343Y-48026613D01*
X102912033Y-48026255D01*
X103672156Y-47995725D01*
X103776414Y-47991538D01*
X103782131Y-47991438D01*
X104647199Y-47995967D01*
G37*
%TD.AperFunction*%
%TD*%
M02*
