%TF.GenerationSoftware,KiCad,Pcbnew,(6.0.6-0)*%
%TF.CreationDate,2022-07-21T13:37:14+02:00*%
%TF.ProjectId,GlowTubeLEDconnectorB_PCB,476c6f77-5475-4626-954c-4544636f6e6e,rev?*%
%TF.SameCoordinates,Original*%
%TF.FileFunction,Legend,Bot*%
%TF.FilePolarity,Positive*%
%FSLAX46Y46*%
G04 Gerber Fmt 4.6, Leading zero omitted, Abs format (unit mm)*
G04 Created by KiCad (PCBNEW (6.0.6-0)) date 2022-07-21 13:37:14*
%MOMM*%
%LPD*%
G01*
G04 APERTURE LIST*
%ADD10C,0.150000*%
%ADD11C,4.300000*%
%ADD12R,2.800000X1.600000*%
%ADD13R,2.800000X2.000000*%
G04 APERTURE END LIST*
D10*
X108819047Y-66362380D02*
X109295238Y-66362380D01*
X109295238Y-65362380D01*
X108485714Y-65838571D02*
X108152380Y-65838571D01*
X108009523Y-66362380D02*
X108485714Y-66362380D01*
X108485714Y-65362380D01*
X108009523Y-65362380D01*
X107580952Y-66362380D02*
X107580952Y-65362380D01*
X107342857Y-65362380D01*
X107200000Y-65410000D01*
X107104761Y-65505238D01*
X107057142Y-65600476D01*
X107009523Y-65790952D01*
X107009523Y-65933809D01*
X107057142Y-66124285D01*
X107104761Y-66219523D01*
X107200000Y-66314761D01*
X107342857Y-66362380D01*
X107580952Y-66362380D01*
X106628571Y-65457619D02*
X106580952Y-65410000D01*
X106485714Y-65362380D01*
X106247619Y-65362380D01*
X106152380Y-65410000D01*
X106104761Y-65457619D01*
X106057142Y-65552857D01*
X106057142Y-65648095D01*
X106104761Y-65790952D01*
X106676190Y-66362380D01*
X106057142Y-66362380D01*
X122585238Y-68871904D02*
X122966190Y-68871904D01*
X122966190Y-68071904D01*
X122318571Y-68452857D02*
X122051904Y-68452857D01*
X121937619Y-68871904D02*
X122318571Y-68871904D01*
X122318571Y-68071904D01*
X121937619Y-68071904D01*
X121594761Y-68871904D02*
X121594761Y-68071904D01*
X121404285Y-68071904D01*
X121290000Y-68110000D01*
X121213809Y-68186190D01*
X121175714Y-68262380D01*
X121137619Y-68414761D01*
X121137619Y-68529047D01*
X121175714Y-68681428D01*
X121213809Y-68757619D01*
X121290000Y-68833809D01*
X121404285Y-68871904D01*
X121594761Y-68871904D01*
X120375714Y-68871904D02*
X120832857Y-68871904D01*
X120604285Y-68871904D02*
X120604285Y-68071904D01*
X120680476Y-68186190D01*
X120756666Y-68262380D01*
X120832857Y-68300476D01*
X108700476Y-62792380D02*
X109176666Y-62792380D01*
X109224285Y-63268571D01*
X109176666Y-63220952D01*
X109081428Y-63173333D01*
X108843333Y-63173333D01*
X108748095Y-63220952D01*
X108700476Y-63268571D01*
X108652857Y-63363809D01*
X108652857Y-63601904D01*
X108700476Y-63697142D01*
X108748095Y-63744761D01*
X108843333Y-63792380D01*
X109081428Y-63792380D01*
X109176666Y-63744761D01*
X109224285Y-63697142D01*
X108367142Y-62792380D02*
X108033809Y-63792380D01*
X107700476Y-62792380D01*
X121397619Y-70442380D02*
X121873809Y-70442380D01*
X121921428Y-70918571D01*
X121873809Y-70870952D01*
X121778571Y-70823333D01*
X121540476Y-70823333D01*
X121445238Y-70870952D01*
X121397619Y-70918571D01*
X121350000Y-71013809D01*
X121350000Y-71251904D01*
X121397619Y-71347142D01*
X121445238Y-71394761D01*
X121540476Y-71442380D01*
X121778571Y-71442380D01*
X121873809Y-71394761D01*
X121921428Y-71347142D01*
X121064285Y-70442380D02*
X120730952Y-71442380D01*
X120397619Y-70442380D01*
X120338095Y-65240000D02*
X120433333Y-65192380D01*
X120576190Y-65192380D01*
X120719047Y-65240000D01*
X120814285Y-65335238D01*
X120861904Y-65430476D01*
X120909523Y-65620952D01*
X120909523Y-65763809D01*
X120861904Y-65954285D01*
X120814285Y-66049523D01*
X120719047Y-66144761D01*
X120576190Y-66192380D01*
X120480952Y-66192380D01*
X120338095Y-66144761D01*
X120290476Y-66097142D01*
X120290476Y-65763809D01*
X120480952Y-65763809D01*
X108855238Y-68120000D02*
X108950476Y-68072380D01*
X109093333Y-68072380D01*
X109236190Y-68120000D01*
X109331428Y-68215238D01*
X109379047Y-68310476D01*
X109426666Y-68500952D01*
X109426666Y-68643809D01*
X109379047Y-68834285D01*
X109331428Y-68929523D01*
X109236190Y-69024761D01*
X109093333Y-69072380D01*
X108998095Y-69072380D01*
X108855238Y-69024761D01*
X108807619Y-68977142D01*
X108807619Y-68643809D01*
X108998095Y-68643809D01*
%LPC*%
D11*
%TO.C,U4*%
X89949970Y-66882540D03*
%TD*%
%TO.C,U3*%
X115660000Y-76630000D03*
%TD*%
D12*
%TO.C,U1*%
X118150000Y-71018334D03*
D13*
X118150000Y-68519068D03*
X118150000Y-65819802D03*
%TD*%
D12*
%TO.C,U2*%
X111938800Y-63350734D03*
D13*
X111938800Y-65850000D03*
X111938800Y-68549266D03*
%TD*%
M02*
