%TF.GenerationSoftware,KiCad,Pcbnew,(6.0.6-0)*%
%TF.CreationDate,2022-07-21T13:37:14+02:00*%
%TF.ProjectId,GlowTubeLEDconnectorB_PCB,476c6f77-5475-4626-954c-4544636f6e6e,rev?*%
%TF.SameCoordinates,Original*%
%TF.FileFunction,Copper,L2,Bot*%
%TF.FilePolarity,Positive*%
%FSLAX46Y46*%
G04 Gerber Fmt 4.6, Leading zero omitted, Abs format (unit mm)*
G04 Created by KiCad (PCBNEW (6.0.6-0)) date 2022-07-21 13:37:14*
%MOMM*%
%LPD*%
G01*
G04 APERTURE LIST*
%TA.AperFunction,SMDPad,CuDef*%
%ADD10R,2.800000X1.600000*%
%TD*%
%TA.AperFunction,SMDPad,CuDef*%
%ADD11R,2.800000X2.000000*%
%TD*%
%TA.AperFunction,Conductor*%
%ADD12C,1.500000*%
%TD*%
G04 APERTURE END LIST*
D10*
%TO.P,U1,1,5V*%
%TO.N,+5V*%
X118150000Y-71018334D03*
D11*
%TO.P,U1,2,Data*%
%TO.N,unconnected-(U1-Pad2)*%
X118150000Y-68519068D03*
%TO.P,U1,3,GND*%
%TO.N,GND*%
X118150000Y-65819802D03*
%TD*%
D10*
%TO.P,U2,1,5V*%
%TO.N,+5V*%
X111938800Y-63350734D03*
D11*
%TO.P,U2,2,Data*%
%TO.N,unconnected-(U2-Pad2)*%
X111938800Y-65850000D03*
%TO.P,U2,3,GND*%
%TO.N,GND*%
X111938800Y-68549266D03*
%TD*%
D12*
%TO.N,+5V*%
X116368334Y-71018334D02*
X115040000Y-69690000D01*
X115040000Y-69690000D02*
X115040000Y-64600000D01*
X118550000Y-71018334D02*
X116368334Y-71018334D01*
X113790734Y-63350734D02*
X111538800Y-63350734D01*
X115040000Y-64600000D02*
X113790734Y-63350734D01*
%TO.N,GND*%
X120427356Y-73240000D02*
X114100000Y-73240000D01*
X120329802Y-65819802D02*
X121590000Y-67080000D01*
X112060000Y-69070466D02*
X111538800Y-68549266D01*
X121590000Y-72077356D02*
X120427356Y-73240000D01*
X121590000Y-67080000D02*
X121590000Y-72077356D01*
X112060000Y-71200000D02*
X112060000Y-69070466D01*
X118550000Y-65819802D02*
X120329802Y-65819802D01*
X114100000Y-73240000D02*
X112060000Y-71200000D01*
%TD*%
%TA.AperFunction,Conductor*%
%TO.N,GND*%
G36*
X104647199Y-47995967D02*
G01*
X104652914Y-47996126D01*
X105516915Y-48039895D01*
X105522616Y-48040314D01*
X106383718Y-48123228D01*
X106389394Y-48123905D01*
X107245864Y-48245799D01*
X107251500Y-48246732D01*
X108101529Y-48407347D01*
X108107121Y-48408535D01*
X108949036Y-48607555D01*
X108954569Y-48608997D01*
X109786536Y-48845989D01*
X109791994Y-48847678D01*
X110612403Y-49122183D01*
X110617763Y-49124113D01*
X111215715Y-49354844D01*
X111424872Y-49435551D01*
X111430122Y-49437715D01*
X112222312Y-49785462D01*
X112227439Y-49787853D01*
X112761011Y-50051560D01*
X113002980Y-50171149D01*
X113008047Y-50173798D01*
X113765422Y-50591892D01*
X113770363Y-50594767D01*
X114507975Y-51046776D01*
X114512780Y-51049873D01*
X115229115Y-51534868D01*
X115233776Y-51538180D01*
X115927409Y-52055198D01*
X115931882Y-52058694D01*
X116198703Y-52277084D01*
X116601338Y-52606637D01*
X116605679Y-52610358D01*
X117249560Y-53188079D01*
X117253728Y-53191992D01*
X117870777Y-53798364D01*
X117874762Y-53802463D01*
X118463629Y-54436160D01*
X118467425Y-54440435D01*
X119026969Y-55100226D01*
X119030567Y-55104670D01*
X119559575Y-55789127D01*
X119562968Y-55793728D01*
X120060413Y-56501521D01*
X120063593Y-56506272D01*
X120528401Y-57235875D01*
X120531363Y-57240765D01*
X120962593Y-57990696D01*
X120965330Y-57995716D01*
X121269123Y-58584302D01*
X121362113Y-58764467D01*
X121364612Y-58769593D01*
X121726114Y-59555553D01*
X121728365Y-59560755D01*
X121933422Y-60065748D01*
X122053845Y-60362316D01*
X122055875Y-60367660D01*
X122344648Y-61183127D01*
X122346434Y-61188559D01*
X122597919Y-62016296D01*
X122599454Y-62021796D01*
X122720186Y-62495442D01*
X122813132Y-62860085D01*
X122814418Y-62865656D01*
X122989846Y-63712767D01*
X122990878Y-63718390D01*
X123127698Y-64572589D01*
X123128474Y-64578253D01*
X123158842Y-64844790D01*
X123224184Y-65418282D01*
X123226406Y-65437788D01*
X123226923Y-65443472D01*
X123285201Y-66298302D01*
X123285763Y-66306549D01*
X123286022Y-66312242D01*
X123305282Y-67160957D01*
X123305667Y-67177928D01*
X123305692Y-67182102D01*
X123301572Y-67575567D01*
X123301527Y-67579826D01*
X123301414Y-67583996D01*
X123264859Y-68421266D01*
X123263646Y-68449041D01*
X123263268Y-68454730D01*
X123190095Y-69274626D01*
X123186366Y-69316403D01*
X123185731Y-69322068D01*
X123152128Y-69570599D01*
X123069816Y-70179391D01*
X123068926Y-70185014D01*
X122914239Y-71036195D01*
X122913097Y-71041759D01*
X122719959Y-71885044D01*
X122718556Y-71890586D01*
X122487377Y-72724191D01*
X122485725Y-72729664D01*
X122216953Y-73551974D01*
X122215072Y-73557316D01*
X121943268Y-74276624D01*
X121909272Y-74366592D01*
X121907131Y-74371890D01*
X121607492Y-75067647D01*
X121564949Y-75166430D01*
X121562575Y-75171615D01*
X121298489Y-75715478D01*
X121184700Y-75949817D01*
X121182090Y-75954896D01*
X121054514Y-76189863D01*
X120769301Y-76715160D01*
X120766460Y-76720121D01*
X120319603Y-77460883D01*
X120316539Y-77465710D01*
X119836564Y-78185401D01*
X119833285Y-78190085D01*
X119321131Y-78887300D01*
X119317643Y-78891829D01*
X118774405Y-79565070D01*
X118770715Y-79569437D01*
X118541404Y-79828627D01*
X118236771Y-80172953D01*
X118197482Y-80217361D01*
X118193604Y-80221548D01*
X117598152Y-80836007D01*
X117591568Y-80842801D01*
X117587504Y-80846808D01*
X117086297Y-81319121D01*
X116957917Y-81440101D01*
X116953668Y-81443927D01*
X116297813Y-82008051D01*
X116293395Y-82011680D01*
X115612638Y-82545461D01*
X115608061Y-82548885D01*
X114903753Y-83051264D01*
X114899024Y-83054478D01*
X114172690Y-83524364D01*
X114167829Y-83527355D01*
X113420900Y-83963825D01*
X113415914Y-83966589D01*
X112649950Y-84368729D01*
X112644849Y-84371261D01*
X112399440Y-84486219D01*
X111861441Y-84738236D01*
X111856210Y-84740543D01*
X111056966Y-85071601D01*
X111051636Y-85073668D01*
X110238217Y-85368121D01*
X110232798Y-85369945D01*
X109406839Y-85627203D01*
X109401343Y-85628779D01*
X108564573Y-85848301D01*
X108559012Y-85849626D01*
X107713131Y-86030968D01*
X107707515Y-86032039D01*
X106854277Y-86174822D01*
X106848638Y-86175635D01*
X106548469Y-86211959D01*
X105989817Y-86279563D01*
X105984127Y-86280121D01*
X105121489Y-86344983D01*
X105115780Y-86345283D01*
X104633584Y-86359594D01*
X104251023Y-86370948D01*
X104245326Y-86370987D01*
X103583608Y-86360592D01*
X103380363Y-86357399D01*
X103374650Y-86357180D01*
X102511173Y-86304368D01*
X102505476Y-86303890D01*
X101645263Y-86211959D01*
X101639593Y-86211222D01*
X101240776Y-86150195D01*
X100784444Y-86080366D01*
X100778856Y-86079381D01*
X100354681Y-85994622D01*
X99930528Y-85909868D01*
X99924948Y-85908621D01*
X99509323Y-85805765D01*
X99085163Y-85700795D01*
X99079688Y-85699308D01*
X98405501Y-85499604D01*
X98250215Y-85453606D01*
X98244772Y-85451859D01*
X97990272Y-85363731D01*
X97427282Y-85168778D01*
X97421950Y-85166795D01*
X97020046Y-85006858D01*
X96618155Y-84846926D01*
X96612892Y-84844692D01*
X95824434Y-84488690D01*
X95819278Y-84486219D01*
X95310001Y-84227848D01*
X95047803Y-84094827D01*
X95042774Y-84092131D01*
X94818537Y-83965264D01*
X94289814Y-83666127D01*
X94284924Y-83663211D01*
X93552063Y-83203489D01*
X93547340Y-83200375D01*
X92836086Y-82707879D01*
X92831484Y-82704537D01*
X92143300Y-82180280D01*
X92138832Y-82176713D01*
X91475159Y-81621797D01*
X91470858Y-81618031D01*
X90833064Y-81033600D01*
X90828937Y-81029643D01*
X90218283Y-80416853D01*
X90214341Y-80412713D01*
X89632130Y-79772872D01*
X89628379Y-79768557D01*
X89229827Y-79288500D01*
X89075782Y-79102952D01*
X89072240Y-79098483D01*
X89014462Y-79022086D01*
X88550397Y-78408482D01*
X88547060Y-78403854D01*
X88401700Y-78192353D01*
X88057066Y-77690908D01*
X88053936Y-77686124D01*
X87629640Y-77004465D01*
X87596798Y-76951702D01*
X87593890Y-76946786D01*
X87442204Y-76676485D01*
X112996854Y-76676485D01*
X112997156Y-76680320D01*
X113018515Y-76951707D01*
X113022370Y-77000695D01*
X113087206Y-77319378D01*
X113190398Y-77627784D01*
X113192052Y-77631253D01*
X113192053Y-77631254D01*
X113220506Y-77690908D01*
X113330405Y-77921316D01*
X113505141Y-78195597D01*
X113507584Y-78198560D01*
X113507585Y-78198562D01*
X113657308Y-78380190D01*
X113712001Y-78446538D01*
X113947902Y-78670399D01*
X114209326Y-78863843D01*
X114250786Y-78887300D01*
X114489019Y-79022086D01*
X114489023Y-79022088D01*
X114492376Y-79023985D01*
X114792832Y-79148438D01*
X114896288Y-79177129D01*
X115102500Y-79234317D01*
X115102508Y-79234319D01*
X115106216Y-79235347D01*
X115427856Y-79283416D01*
X115431154Y-79283560D01*
X115542918Y-79288440D01*
X115542922Y-79288440D01*
X115544294Y-79288500D01*
X115742598Y-79288500D01*
X115984605Y-79273698D01*
X115988388Y-79272997D01*
X115988395Y-79272996D01*
X116188459Y-79235916D01*
X116304372Y-79214433D01*
X116513682Y-79148438D01*
X116610860Y-79117798D01*
X116610863Y-79117797D01*
X116614532Y-79116640D01*
X116618029Y-79115046D01*
X116618035Y-79115044D01*
X116906954Y-78983376D01*
X116906958Y-78983374D01*
X116910462Y-78981777D01*
X117057244Y-78891829D01*
X117184473Y-78813863D01*
X117184476Y-78813861D01*
X117187751Y-78811854D01*
X117190755Y-78809464D01*
X117190760Y-78809461D01*
X117315008Y-78710629D01*
X117442264Y-78609405D01*
X117444958Y-78606664D01*
X117444962Y-78606660D01*
X117667513Y-78380190D01*
X117667517Y-78380185D01*
X117670208Y-78377447D01*
X117815736Y-78187792D01*
X117865835Y-78122502D01*
X117865837Y-78122498D01*
X117868185Y-78119439D01*
X118033242Y-77839227D01*
X118162920Y-77540988D01*
X118185219Y-77465710D01*
X118229681Y-77315607D01*
X118255285Y-77229169D01*
X118308961Y-76908417D01*
X118323146Y-76583515D01*
X118310388Y-76421410D01*
X118297932Y-76263140D01*
X118297932Y-76263137D01*
X118297630Y-76259305D01*
X118232794Y-75940622D01*
X118129602Y-75632216D01*
X117989595Y-75338684D01*
X117814859Y-75064403D01*
X117667470Y-74885606D01*
X117610442Y-74816425D01*
X117610438Y-74816420D01*
X117607999Y-74813462D01*
X117372098Y-74589601D01*
X117110674Y-74396157D01*
X116905781Y-74280234D01*
X116830981Y-74237914D01*
X116830977Y-74237912D01*
X116827624Y-74236015D01*
X116527168Y-74111562D01*
X116423712Y-74082871D01*
X116217500Y-74025683D01*
X116217492Y-74025681D01*
X116213784Y-74024653D01*
X115892144Y-73976584D01*
X115888846Y-73976440D01*
X115777082Y-73971560D01*
X115777078Y-73971560D01*
X115775706Y-73971500D01*
X115577402Y-73971500D01*
X115335395Y-73986302D01*
X115331612Y-73987003D01*
X115331605Y-73987004D01*
X115175511Y-74015935D01*
X115015628Y-74045567D01*
X114863902Y-74093406D01*
X114709140Y-74142202D01*
X114709137Y-74142203D01*
X114705468Y-74143360D01*
X114701971Y-74144954D01*
X114701965Y-74144956D01*
X114413046Y-74276624D01*
X114413042Y-74276626D01*
X114409538Y-74278223D01*
X114406259Y-74280233D01*
X114406256Y-74280234D01*
X114256683Y-74371893D01*
X114132249Y-74448146D01*
X114129245Y-74450536D01*
X114129240Y-74450539D01*
X114004993Y-74549370D01*
X113877736Y-74650595D01*
X113875042Y-74653336D01*
X113875038Y-74653340D01*
X113652487Y-74879810D01*
X113652483Y-74879815D01*
X113649792Y-74882553D01*
X113451815Y-75140561D01*
X113286758Y-75420773D01*
X113157080Y-75719012D01*
X113064715Y-76030831D01*
X113011039Y-76351583D01*
X112996854Y-76676485D01*
X87442204Y-76676485D01*
X87170524Y-76192355D01*
X87167840Y-76187307D01*
X86779139Y-75414462D01*
X86776687Y-75409298D01*
X86511482Y-74816425D01*
X86423444Y-74619614D01*
X86421231Y-74614350D01*
X86335283Y-74396157D01*
X86104170Y-73809443D01*
X86102199Y-73804086D01*
X85821976Y-72985621D01*
X85820248Y-72980171D01*
X85577454Y-72149878D01*
X85575974Y-72144356D01*
X85371087Y-71303877D01*
X85369859Y-71298293D01*
X85203308Y-70449379D01*
X85202335Y-70443745D01*
X85143699Y-70051401D01*
X85075330Y-69593935D01*
X110030801Y-69593935D01*
X110031171Y-69600756D01*
X110036695Y-69651618D01*
X110040321Y-69666870D01*
X110085476Y-69787320D01*
X110094014Y-69802915D01*
X110170515Y-69904990D01*
X110183076Y-69917551D01*
X110285151Y-69994052D01*
X110300746Y-70002590D01*
X110421194Y-70047744D01*
X110436449Y-70051371D01*
X110487314Y-70056897D01*
X110494128Y-70057266D01*
X111666685Y-70057266D01*
X111681924Y-70052791D01*
X111683129Y-70051401D01*
X111684800Y-70043718D01*
X111684800Y-68821381D01*
X111680325Y-68806142D01*
X111678935Y-68804937D01*
X111671252Y-68803266D01*
X110048916Y-68803266D01*
X110033677Y-68807741D01*
X110032472Y-68809131D01*
X110030801Y-68816814D01*
X110030801Y-69593935D01*
X85075330Y-69593935D01*
X85074468Y-69588165D01*
X85073752Y-69582499D01*
X85069462Y-69540980D01*
X85025780Y-69118282D01*
X84984825Y-68721971D01*
X84984367Y-68716272D01*
X84946624Y-68061698D01*
X84934570Y-67852630D01*
X84934370Y-67846925D01*
X84933673Y-67789829D01*
X84926247Y-67182105D01*
X84923801Y-66981887D01*
X84923861Y-66976170D01*
X84925425Y-66929025D01*
X87286824Y-66929025D01*
X87290760Y-66979031D01*
X87305078Y-67160957D01*
X87312340Y-67253235D01*
X87377176Y-67571918D01*
X87480368Y-67880324D01*
X87620375Y-68173856D01*
X87795111Y-68448137D01*
X87797554Y-68451100D01*
X87797555Y-68451102D01*
X87947278Y-68632730D01*
X88001971Y-68699078D01*
X88237872Y-68922939D01*
X88499296Y-69116383D01*
X88640821Y-69196454D01*
X88778989Y-69274626D01*
X88778993Y-69274628D01*
X88782346Y-69276525D01*
X89082802Y-69400978D01*
X89186258Y-69429669D01*
X89392470Y-69486857D01*
X89392478Y-69486859D01*
X89396186Y-69487887D01*
X89717826Y-69535956D01*
X89721124Y-69536100D01*
X89832888Y-69540980D01*
X89832892Y-69540980D01*
X89834264Y-69541040D01*
X90032568Y-69541040D01*
X90274575Y-69526238D01*
X90278358Y-69525537D01*
X90278365Y-69525536D01*
X90478429Y-69488456D01*
X90594342Y-69466973D01*
X90803652Y-69400978D01*
X90900830Y-69370338D01*
X90900833Y-69370337D01*
X90904502Y-69369180D01*
X90907999Y-69367586D01*
X90908005Y-69367584D01*
X91196924Y-69235916D01*
X91196928Y-69235914D01*
X91200432Y-69234317D01*
X91477721Y-69064394D01*
X91480725Y-69062004D01*
X91480730Y-69062001D01*
X91631946Y-68941718D01*
X91732234Y-68861945D01*
X91734928Y-68859204D01*
X91734932Y-68859200D01*
X91957483Y-68632730D01*
X91957487Y-68632725D01*
X91960178Y-68629987D01*
X92091261Y-68459157D01*
X92155805Y-68375042D01*
X92155807Y-68375038D01*
X92158155Y-68371979D01*
X92323212Y-68091767D01*
X92452890Y-67793528D01*
X92545255Y-67481709D01*
X92598931Y-67160957D01*
X92610406Y-66898134D01*
X110030300Y-66898134D01*
X110037055Y-66960316D01*
X110088185Y-67096705D01*
X110109005Y-67124485D01*
X110133853Y-67190991D01*
X110118800Y-67260374D01*
X110109005Y-67275615D01*
X110094014Y-67295618D01*
X110085476Y-67311212D01*
X110040322Y-67431660D01*
X110036695Y-67446915D01*
X110031169Y-67497780D01*
X110030800Y-67504594D01*
X110030800Y-68277151D01*
X110035275Y-68292390D01*
X110036665Y-68293595D01*
X110044348Y-68295266D01*
X112066800Y-68295266D01*
X112134921Y-68315268D01*
X112181414Y-68368924D01*
X112192800Y-68421266D01*
X112192800Y-70039150D01*
X112197275Y-70054389D01*
X112198665Y-70055594D01*
X112206348Y-70057265D01*
X113383469Y-70057265D01*
X113390290Y-70056895D01*
X113441152Y-70051371D01*
X113456404Y-70047745D01*
X113576854Y-70002590D01*
X113592448Y-69994053D01*
X113630244Y-69965726D01*
X113696750Y-69940879D01*
X113766132Y-69955932D01*
X113816362Y-70006107D01*
X113828628Y-70038424D01*
X113838258Y-70080470D01*
X113840460Y-70085632D01*
X113845294Y-70096967D01*
X113850927Y-70113142D01*
X113854182Y-70125039D01*
X113855663Y-70130451D01*
X113858079Y-70135516D01*
X113891539Y-70205667D01*
X113893710Y-70210476D01*
X113926397Y-70287109D01*
X113936251Y-70302110D01*
X113944654Y-70317025D01*
X113952378Y-70333218D01*
X113955648Y-70337769D01*
X113955650Y-70337772D01*
X114000999Y-70400881D01*
X114003989Y-70405232D01*
X114047196Y-70471010D01*
X114047202Y-70471018D01*
X114049735Y-70474874D01*
X114068257Y-70495662D01*
X114076490Y-70505939D01*
X114083471Y-70515654D01*
X114087498Y-70519556D01*
X114160255Y-70590063D01*
X114161665Y-70591452D01*
X115413806Y-71843593D01*
X115424674Y-71855985D01*
X115434796Y-71869177D01*
X115434803Y-71869185D01*
X115438211Y-71873626D01*
X115453807Y-71887817D01*
X115498519Y-71928502D01*
X115502814Y-71932601D01*
X115518745Y-71948532D01*
X115538761Y-71965268D01*
X115542710Y-71968713D01*
X115600213Y-72021037D01*
X115600217Y-72021040D01*
X115604370Y-72024819D01*
X115609125Y-72027802D01*
X115609128Y-72027804D01*
X115619558Y-72034346D01*
X115633431Y-72044425D01*
X115642879Y-72052326D01*
X115642886Y-72052331D01*
X115647188Y-72055928D01*
X115663162Y-72065039D01*
X115719574Y-72097216D01*
X115724102Y-72099926D01*
X115789930Y-72141220D01*
X115789933Y-72141222D01*
X115794678Y-72144198D01*
X115799883Y-72146291D01*
X115799886Y-72146292D01*
X115811313Y-72150886D01*
X115826745Y-72158346D01*
X115837453Y-72164454D01*
X115837462Y-72164458D01*
X115842327Y-72167233D01*
X115847604Y-72169102D01*
X115847609Y-72169104D01*
X115920876Y-72195049D01*
X115925812Y-72196914D01*
X116003117Y-72227990D01*
X116008604Y-72229126D01*
X116008606Y-72229127D01*
X116020683Y-72231628D01*
X116037178Y-72236233D01*
X116054093Y-72242223D01*
X116136344Y-72255693D01*
X116141514Y-72256651D01*
X116223101Y-72273547D01*
X116227713Y-72273813D01*
X116227714Y-72273813D01*
X116250882Y-72275149D01*
X116263987Y-72276596D01*
X116270244Y-72277620D01*
X116270248Y-72277620D01*
X116275791Y-72278528D01*
X116281404Y-72278440D01*
X116281406Y-72278440D01*
X116382598Y-72276850D01*
X116384577Y-72276834D01*
X116501487Y-72276834D01*
X116545716Y-72284852D01*
X116632289Y-72317307D01*
X116632291Y-72317307D01*
X116639684Y-72320079D01*
X116647532Y-72320932D01*
X116647534Y-72320932D01*
X116698469Y-72326465D01*
X116701866Y-72326834D01*
X119598134Y-72326834D01*
X119660316Y-72320079D01*
X119796705Y-72268949D01*
X119913261Y-72181595D01*
X120000615Y-72065039D01*
X120051745Y-71928650D01*
X120058500Y-71866468D01*
X120058500Y-70170200D01*
X120051745Y-70108018D01*
X120000615Y-69971629D01*
X119980107Y-69944265D01*
X119955260Y-69877758D01*
X119970314Y-69808376D01*
X119980107Y-69793137D01*
X119984466Y-69787320D01*
X120000615Y-69765773D01*
X120051745Y-69629384D01*
X120058500Y-69567202D01*
X120058500Y-67470934D01*
X120051745Y-67408752D01*
X120000615Y-67272363D01*
X119979795Y-67244583D01*
X119954947Y-67178077D01*
X119970000Y-67108694D01*
X119979795Y-67093453D01*
X119994786Y-67073450D01*
X120003324Y-67057856D01*
X120048478Y-66937408D01*
X120052105Y-66922153D01*
X120057631Y-66871288D01*
X120058000Y-66864474D01*
X120058000Y-66091917D01*
X120053525Y-66076678D01*
X120052135Y-66075473D01*
X120044452Y-66073802D01*
X118022000Y-66073802D01*
X117953879Y-66053800D01*
X117907386Y-66000144D01*
X117896000Y-65947802D01*
X117896000Y-65547687D01*
X118404000Y-65547687D01*
X118408475Y-65562926D01*
X118409865Y-65564131D01*
X118417548Y-65565802D01*
X120039884Y-65565802D01*
X120055123Y-65561327D01*
X120056328Y-65559937D01*
X120057999Y-65552254D01*
X120057999Y-64775133D01*
X120057629Y-64768312D01*
X120052105Y-64717450D01*
X120048479Y-64702198D01*
X120003324Y-64581748D01*
X119994786Y-64566153D01*
X119918285Y-64464078D01*
X119905724Y-64451517D01*
X119803649Y-64375016D01*
X119788054Y-64366478D01*
X119667606Y-64321324D01*
X119652351Y-64317697D01*
X119601486Y-64312171D01*
X119594672Y-64311802D01*
X118422115Y-64311802D01*
X118406876Y-64316277D01*
X118405671Y-64317667D01*
X118404000Y-64325350D01*
X118404000Y-65547687D01*
X117896000Y-65547687D01*
X117896000Y-64329918D01*
X117891525Y-64314679D01*
X117890135Y-64313474D01*
X117882452Y-64311803D01*
X116705331Y-64311803D01*
X116698510Y-64312173D01*
X116647648Y-64317697D01*
X116632396Y-64321323D01*
X116511946Y-64366478D01*
X116496352Y-64375015D01*
X116467756Y-64396447D01*
X116401250Y-64421294D01*
X116331867Y-64406241D01*
X116281638Y-64356066D01*
X116270658Y-64328867D01*
X116261631Y-64295869D01*
X116260345Y-64290752D01*
X116242995Y-64215000D01*
X116242994Y-64214998D01*
X116241742Y-64209530D01*
X116234706Y-64193033D01*
X116229073Y-64176858D01*
X116225815Y-64164953D01*
X116224337Y-64159549D01*
X116221926Y-64154494D01*
X116221924Y-64154489D01*
X116188454Y-64084317D01*
X116186283Y-64079508D01*
X116155805Y-64008053D01*
X116155802Y-64008047D01*
X116153603Y-64002892D01*
X116143756Y-63987902D01*
X116135343Y-63972971D01*
X116130037Y-63961846D01*
X116127622Y-63956782D01*
X116124350Y-63952229D01*
X116124348Y-63952225D01*
X116078990Y-63889103D01*
X116076001Y-63884753D01*
X116032801Y-63818987D01*
X116030265Y-63815126D01*
X116011743Y-63794338D01*
X116003506Y-63784056D01*
X115999799Y-63778897D01*
X115996529Y-63774346D01*
X115919746Y-63699938D01*
X115918336Y-63698549D01*
X114745259Y-62525471D01*
X114734391Y-62513080D01*
X114728971Y-62506017D01*
X114720857Y-62495442D01*
X114716711Y-62491669D01*
X114716706Y-62491664D01*
X114660570Y-62440585D01*
X114656275Y-62436487D01*
X114640324Y-62420536D01*
X114638174Y-62418738D01*
X114620311Y-62403802D01*
X114616336Y-62400334D01*
X114558846Y-62348022D01*
X114558837Y-62348015D01*
X114554698Y-62344249D01*
X114539507Y-62334720D01*
X114525641Y-62324645D01*
X114516185Y-62316738D01*
X114516175Y-62316731D01*
X114511880Y-62313140D01*
X114439486Y-62271847D01*
X114434966Y-62269142D01*
X114369138Y-62227848D01*
X114369135Y-62227846D01*
X114364390Y-62224870D01*
X114359185Y-62222777D01*
X114359182Y-62222776D01*
X114347755Y-62218182D01*
X114332323Y-62210722D01*
X114321615Y-62204614D01*
X114321606Y-62204610D01*
X114316741Y-62201835D01*
X114311464Y-62199966D01*
X114311459Y-62199964D01*
X114238192Y-62174019D01*
X114233256Y-62172154D01*
X114161150Y-62143168D01*
X114155951Y-62141078D01*
X114150464Y-62139942D01*
X114150462Y-62139941D01*
X114138385Y-62137440D01*
X114121890Y-62132835D01*
X114104975Y-62126845D01*
X114022724Y-62113375D01*
X114017554Y-62112417D01*
X113935967Y-62095521D01*
X113931355Y-62095255D01*
X113931354Y-62095255D01*
X113908186Y-62093919D01*
X113895081Y-62092472D01*
X113888824Y-62091448D01*
X113888820Y-62091448D01*
X113883277Y-62090540D01*
X113877664Y-62090628D01*
X113877662Y-62090628D01*
X113776470Y-62092218D01*
X113774491Y-62092234D01*
X113587313Y-62092234D01*
X113543084Y-62084216D01*
X113456511Y-62051761D01*
X113456509Y-62051761D01*
X113449116Y-62048989D01*
X113441268Y-62048136D01*
X113441266Y-62048136D01*
X113390331Y-62042603D01*
X113386934Y-62042234D01*
X110490666Y-62042234D01*
X110428484Y-62048989D01*
X110292095Y-62100119D01*
X110175539Y-62187473D01*
X110088185Y-62304029D01*
X110037055Y-62440418D01*
X110030300Y-62502600D01*
X110030300Y-64198868D01*
X110037055Y-64261050D01*
X110088185Y-64397439D01*
X110093571Y-64404625D01*
X110108693Y-64424803D01*
X110133540Y-64491310D01*
X110118486Y-64560692D01*
X110108693Y-64575931D01*
X110088185Y-64603295D01*
X110037055Y-64739684D01*
X110030300Y-64801866D01*
X110030300Y-66898134D01*
X92610406Y-66898134D01*
X92613116Y-66836055D01*
X92600358Y-66673950D01*
X92587902Y-66515680D01*
X92587902Y-66515677D01*
X92587600Y-66511845D01*
X92522764Y-66193162D01*
X92419572Y-65884756D01*
X92279565Y-65591224D01*
X92263370Y-65565802D01*
X92183623Y-65440625D01*
X92104829Y-65316943D01*
X92044224Y-65243423D01*
X91900412Y-65068965D01*
X91900408Y-65068960D01*
X91897969Y-65066002D01*
X91662068Y-64842141D01*
X91400644Y-64648697D01*
X91195751Y-64532774D01*
X91120951Y-64490454D01*
X91120947Y-64490452D01*
X91117594Y-64488555D01*
X91058502Y-64464078D01*
X90955212Y-64421294D01*
X90817138Y-64364102D01*
X90713682Y-64335411D01*
X90507470Y-64278223D01*
X90507462Y-64278221D01*
X90503754Y-64277193D01*
X90182114Y-64229124D01*
X90178816Y-64228980D01*
X90067052Y-64224100D01*
X90067048Y-64224100D01*
X90065676Y-64224040D01*
X89867372Y-64224040D01*
X89625365Y-64238842D01*
X89621582Y-64239543D01*
X89621575Y-64239544D01*
X89465619Y-64268449D01*
X89305598Y-64298107D01*
X89121775Y-64356066D01*
X88999110Y-64394742D01*
X88999107Y-64394743D01*
X88995438Y-64395900D01*
X88991941Y-64397494D01*
X88991935Y-64397496D01*
X88703016Y-64529164D01*
X88703012Y-64529166D01*
X88699508Y-64530763D01*
X88696229Y-64532773D01*
X88696226Y-64532774D01*
X88500176Y-64652914D01*
X88422219Y-64700686D01*
X88419215Y-64703076D01*
X88419210Y-64703079D01*
X88328626Y-64775133D01*
X88167706Y-64903135D01*
X88165012Y-64905876D01*
X88165008Y-64905880D01*
X87942457Y-65132350D01*
X87942453Y-65132355D01*
X87939762Y-65135093D01*
X87741785Y-65393101D01*
X87576728Y-65673313D01*
X87447050Y-65971552D01*
X87445956Y-65975246D01*
X87445954Y-65975251D01*
X87422687Y-66053800D01*
X87354685Y-66283371D01*
X87301009Y-66604123D01*
X87286824Y-66929025D01*
X84925425Y-66929025D01*
X84952543Y-66111562D01*
X84952862Y-66105854D01*
X84993092Y-65594692D01*
X85020737Y-65243419D01*
X85021315Y-65237735D01*
X85033720Y-65138146D01*
X85128240Y-64379290D01*
X85129075Y-64373634D01*
X85274835Y-63520904D01*
X85275926Y-63515292D01*
X85460218Y-62670051D01*
X85461563Y-62664494D01*
X85684003Y-61828505D01*
X85685598Y-61823015D01*
X85945733Y-60997973D01*
X85947575Y-60992561D01*
X86244873Y-60180153D01*
X86246959Y-60174830D01*
X86506018Y-59555530D01*
X86580809Y-59376737D01*
X86583133Y-59371518D01*
X86952832Y-58589414D01*
X86955392Y-58584302D01*
X87360189Y-57819774D01*
X87362978Y-57814783D01*
X87802040Y-57069403D01*
X87805052Y-57064544D01*
X88277498Y-56339813D01*
X88280729Y-56335096D01*
X88292064Y-56319323D01*
X88785531Y-55632591D01*
X88788965Y-55628033D01*
X89325136Y-54949124D01*
X89328780Y-54944719D01*
X89895191Y-54290835D01*
X89899032Y-54286599D01*
X90358460Y-53802463D01*
X90494537Y-53659068D01*
X90498511Y-53655065D01*
X91121905Y-53055160D01*
X91126102Y-53051302D01*
X91776001Y-52480352D01*
X91780380Y-52476677D01*
X92455524Y-51935784D01*
X92460066Y-51932311D01*
X93159056Y-51422599D01*
X93163751Y-51419336D01*
X93885145Y-50941855D01*
X93889973Y-50938816D01*
X94632283Y-50494552D01*
X94637236Y-50491738D01*
X95398933Y-50081606D01*
X95404023Y-50079012D01*
X96183554Y-49703850D01*
X96188760Y-49701489D01*
X96273385Y-49665393D01*
X96984485Y-49362083D01*
X96989758Y-49359973D01*
X97800114Y-49056994D01*
X97805473Y-49055128D01*
X98628736Y-48789221D01*
X98634167Y-48787602D01*
X99468622Y-48559322D01*
X99474150Y-48557944D01*
X100137127Y-48408535D01*
X100318087Y-48367754D01*
X100323692Y-48366624D01*
X101175364Y-48214918D01*
X101181014Y-48214043D01*
X102038696Y-48101127D01*
X102044379Y-48100510D01*
X102906343Y-48026613D01*
X102912033Y-48026255D01*
X103672156Y-47995725D01*
X103776414Y-47991538D01*
X103782131Y-47991438D01*
X104647199Y-47995967D01*
G37*
%TD.AperFunction*%
%TD*%
M02*
