<?xml version="1.0" standalone="no"?>
 <!DOCTYPE svg PUBLIC "-//W3C//DTD SVG 1.1//EN" 
 "http://www.w3.org/Graphics/SVG/1.1/DTD/svg11.dtd"> 
<svg
  xmlns:svg="http://www.w3.org/2000/svg"
  xmlns="http://www.w3.org/2000/svg"
  xmlns:xlink="http://www.w3.org/1999/xlink"
  version="1.1"
  width="29.700220cm" height="21.000720cm" viewBox="0 0 297002200 210007200">
<title>SVG Picture created as GlowTube-Edge_Cuts.svg date 2022/05/06 13:18:24 </title>
  <desc>Picture generated by PCBNEW </desc>
<g style="fill:#000000; fill-opacity:1.000000;stroke:#000000; stroke-opacity:1.000000;
stroke-linecap:round; stroke-linejoin:round;"
 transform="translate(0 0) scale(1 1)">
</g>
<g style="fill:#000000; fill-opacity:0.0; 
stroke:#000000; stroke-width:0.000000; stroke-opacity:1; 
stroke-linecap:round; stroke-linejoin:round;">
</g>
<g style="fill:#000000; fill-opacity:0.0; 
stroke:#000000; stroke-width:100000.000000; stroke-opacity:1; 
stroke-linecap:round; stroke-linejoin:round;">
<path d="M135950725.000000,84781656.000000 C136080940.000000,84781656.000000 136209909.000000,84756222.000000 136330375.000000,84706786.000000" />
<path d="M137007377.000000,81077099.000000 C137014792.000000,81059030.000000 137025666.000000,81042581.000000 137039387.000000,81028679.000000" />
<path d="M155503111.997201 80984011.999520 A150012.000000 150012.000000 0.0 0 0 155653111.992637 80834046.999998" />
<path d="M155653112 79884047
L155653112 80834047
" />
<path d="M136996146.000000,81134047.000000 C136996146.000000,81150714.000000 136996146.000000,81167380.000000 136996146.000000,81184047.000000" />
<path d="M136996146.000000,81134047.000000 C136996146.000000,81114515.000000 136999961.000000,81095169.000000 137007377.000000,81077099.000000" />
<path d="M152153112 79884047
L148153112 79884047
" />
<path d="M87120358 134596539
L87120358 154788353
" />
<path d="M136653177.000000,84493387.000000 C136745855.000000,84401917.000000 136819780.000000,84293220.000000 136870793.000000,84173414.000000" />
<path d="M100682651.000343 174695946.998799 A999847.000000 999847.000000 0.0 0 0 100929493.080289 174665010.315215" />
<path d="M137039387.000000,81028679.000000 C137053107.000000,81014778.000000 137069412.000000,81003689.000000 137087383.000000,80996037.000000" />
<path d="M87918599.544231 133617105.641959 A53533971.000000 53533971.000000 0.0 0 0 126686193.892840 101403953.956287" />
<path d="M136870793.000000,84173414.000000 C136918928.000000,84060366.000000 136945818.000000,83939410.000000 136950113.000000,83816617.000000" />
<path d="M135950725 84781656
L134530704 84781656
" />
<path d="M136330375.000000,84706786.000000 C136450841.000000,84657350.000000 136560499.000000,84584857.000000 136653177.000000,84493387.000000" />
<path d="M163003111.997201 80984011.999520 A150012.000000 150012.000000 0.0 0 0 163153111.992637 80834046.999998" />
<path d="M155503112 80984047
L152303112 80984047
" />
<path d="M148003111.997201 80984011.999520 A150012.000000 150012.000000 0.0 0 0 148153111.992637 80834046.999998" />
<path d="M159653153.007357 80834046.987159 A150047.000000 150047.000000 0.0 0 0 159803112.000015 80984046.974195" />
<path d="M163153112 79884047
L163153112 80834047
" />
<path d="M163003112 80984047
L159803112 80984047
" />
<path d="M137116159.000000,80987075.000000 C137126028.000000,80985061.000000 137136074.000000,80984047.000000 137146146.000000,80984047.000000" />
<path d="M86793609.509560 155527739.184585 A1000058.000000 1000058.000000 0.0 0 0 87120357.998596 154788353.000000" />
<path d="M148153112 79884047
L148153112 80834047
" />
<path d="M86466888 156267155
L86466888 173695954
" />
<path d="M86466846.001458 173695954.002268 A1000054.000000 1000054.000000 0.0 0 0 87466888.000000 174695953.999928" />
<path d="M134530704.000208 84781604.000008 A999996.000000 999996.000000 0.0 0 0 133530704.001568 85781656.000000" />
<path d="M136977939.000000,82839847.000000 C136970777.000000,83165496.000000 136961501.000000,83491093.000000 136950113.000000,83816617.000000" />
<path d="M133530704 85781656
L133530704 99781656
" />
<path d="M159653112 79884047
L155653112 79884047
" />
<path d="M167085753.097384 115989701.037664 A1000512.000000 1000512.000000 0.0 0 0 167153111.995584 115628894.000000" />
<path d="M152153153.007357 80834046.987159 A150047.000000 150047.000000 0.0 0 0 152303112.000015 80984046.974195" />
<path d="M137087383.000000,80996037.000000 C137096650.000000,80992091.000000 137106290.000000,80989089.000000 137116159.000000,80987075.000000" />
<path d="M86793642.626547 155527775.555425 A1000012.000000 1000012.000000 0.0 0 0 86466888.001012 156267155.000000" />
<path d="M127612121.000315 100781641.000221 A999959.000000 999959.000000 0.0 0 0 126686194.194674 101403954.079401" />
<path d="M167153112 79884047
L163153112 79884047
" />
<path d="M132530704 100781656
L127612121 100781656
" />
<path d="M132530703.999792 100781603.999992 A1000004.000000 1000004.000000 0.0 0 0 133530703.998432 99781656.000000" />
<path d="M100929492.020461 174665006.154510 A96466032.000000 96466032.000000 0.0 0 0 167085752.687708 115989700.879185" />
<path d="M148003112 80984047
L137146146 80984047
" />
<path d="M159653112 80834047
L159653112 79884047
" />
<path d="M136996146.000000,81184047.000000 C136996146.000000,81736030.000000 136990077.000000,82287997.000000 136977939.000000,82839847.000000" />
<path d="M167153112 115628894
L167153112 79884047
" />
<path d="M87918604.449446 133617129.450396 A1000042.000000 1000042.000000 0.0 0 0 87120358.001860 134596539.000000" />
<path d="M152153112 80834047
L152153112 79884047
" />
<path d="M87466888 174695954
L100682651 174695954
" />
<g >
</g>
<g >
</g>
<g >
</g>
<g >
</g>
<g >
</g>
<g >
</g>
<g >
</g>
<g >
</g>
<g >
</g>
<g >
</g>
<g >
</g>
<g >
</g>
<g >
</g>
<g >
</g>
<g >
</g>
<g >
</g>
<g >
</g>
<g >
</g>
<g >
</g>
<g >
</g>
<g >
</g>
<g >
</g>
<g >
</g>
<g >
</g>
<g >
</g>
<g >
</g>
<g >
</g>
<g >
</g>
<g >
</g>
<g >
</g>
<g >
</g>
<g >
</g>
<g >
</g>
<g >
</g>
<g >
</g>
<g >
</g>
<g >
</g>
<g >
</g>
<g >
</g>
<g >
</g>
<g >
</g>
<g >
</g>
<g >
</g>
</g> 
</svg>
