<?xml version="1.0" standalone="no"?>
 <!DOCTYPE svg PUBLIC "-//W3C//DTD SVG 1.1//EN" 
 "http://www.w3.org/Graphics/SVG/1.1/DTD/svg11.dtd"> 
<svg
  xmlns:svg="http://www.w3.org/2000/svg"
  xmlns="http://www.w3.org/2000/svg"
  xmlns:xlink="http://www.w3.org/1999/xlink"
  version="1.1"
  width="29.700220cm" height="21.000720cm" viewBox="0 0 297002200 210007200">
<title>SVG Picture created as GlowTube-F_Paste.svg date 2022/05/06 13:18:24 </title>
  <desc>Picture generated by PCBNEW </desc>
<g style="fill:#000000; fill-opacity:1.000000;stroke:#000000; stroke-opacity:1.000000;
stroke-linecap:round; stroke-linejoin:round;"
 transform="translate(0 0) scale(1 1)">
</g>
<g style="fill:#000000; fill-opacity:0.0; 
stroke:#000000; stroke-width:0.000000; stroke-opacity:1; 
stroke-linecap:round; stroke-linejoin:round;">
<g >
</g>
<g >
</g>
<g style="fill:#000000; fill-opacity:0.0; 
stroke:#000000; stroke-width:0.000000; stroke-opacity:1; 
stroke-linecap:round; stroke-linejoin:round;">
</g>
<g style="fill:#000000; fill-opacity:0.0; 
stroke:#000000; stroke-width:1.000000; stroke-opacity:1; 
stroke-linecap:round; stroke-linejoin:round;">
</g>
<g style="fill:#000000; fill-opacity:1.0; 
stroke:#000000; stroke-width:1.000000; stroke-opacity:1; 
stroke-linecap:round; stroke-linejoin:round;">
<path style="fill:#000000; fill-opacity:1.0; 
stroke:#000000; stroke-width:1.000000; stroke-opacity:1; 
stroke-linecap:round; stroke-linejoin:round;fill-rule:evenodd;"
d="M 101127500.000000,167850000.000000
101218387.000000,167868079.000000
101295438.000000,167919562.000000
101346921.000000,167996613.000000
101365000.000000,168087500.000000
101365000.000000,168587500.000000
101346921.000000,168678387.000000
101295438.000000,168755438.000000
101218387.000000,168806921.000000
101127500.000000,168825000.000000
100652500.000000,168825000.000000
100561613.000000,168806921.000000
100484562.000000,168755438.000000
100433079.000000,168678387.000000
100415000.000000,168587500.000000
100415000.000000,168087500.000000
100433079.000000,167996613.000000
100484562.000000,167919562.000000
100561613.000000,167868079.000000
100652500.000000,167850000.000000
Z" /> 
<path style="fill:#000000; fill-opacity:1.0; 
stroke:#000000; stroke-width:1.000000; stroke-opacity:1; 
stroke-linecap:round; stroke-linejoin:round;fill-rule:evenodd;"
d="M 101127500.000000,169675000.000000
101218387.000000,169693079.000000
101295438.000000,169744562.000000
101346921.000000,169821613.000000
101365000.000000,169912500.000000
101365000.000000,170412500.000000
101346921.000000,170503387.000000
101295438.000000,170580438.000000
101218387.000000,170631921.000000
101127500.000000,170650000.000000
100652500.000000,170650000.000000
100561613.000000,170631921.000000
100484562.000000,170580438.000000
100433079.000000,170503387.000000
100415000.000000,170412500.000000
100415000.000000,169912500.000000
100433079.000000,169821613.000000
100484562.000000,169744562.000000
100561613.000000,169693079.000000
100652500.000000,169675000.000000
Z" /> 
</g>
<g >
</g>
<g >
</g>
<g style="fill:#000000; fill-opacity:1.0; 
stroke:#000000; stroke-width:1.000000; stroke-opacity:1; 
stroke-linecap:round; stroke-linejoin:round;">
<path style="fill:#000000; fill-opacity:1.0; 
stroke:#000000; stroke-width:1.000000; stroke-opacity:1; 
stroke-linecap:round; stroke-linejoin:round;fill-rule:evenodd;"
d="M 142984346.000000,139039243.000000
142984346.000000,138139245.000000
143884344.000000,138139245.000000
143884344.000000,139039243.000000
Z" /> 
<path style="fill:#000000; fill-opacity:1.0; 
stroke:#000000; stroke-width:1.000000; stroke-opacity:1; 
stroke-linecap:round; stroke-linejoin:round;fill-rule:evenodd;"
d="M 144084346.000000,139039243.000000
144084346.000000,138139245.000000
144984344.000000,138139245.000000
144984344.000000,139039243.000000
Z" /> 
<path style="fill:#000000; fill-opacity:1.0; 
stroke:#000000; stroke-width:1.000000; stroke-opacity:1; 
stroke-linecap:round; stroke-linejoin:round;fill-rule:evenodd;"
d="M 144084346.000000,137939243.000000
144084346.000000,137039245.000000
144984344.000000,137039245.000000
144984344.000000,137939243.000000
Z" /> 
<path style="fill:#000000; fill-opacity:1.0; 
stroke:#000000; stroke-width:1.000000; stroke-opacity:1; 
stroke-linecap:round; stroke-linejoin:round;fill-rule:evenodd;"
d="M 145184346.000000,139039243.000000
145184346.000000,138139245.000000
146084344.000000,138139245.000000
146084344.000000,139039243.000000
Z" /> 
<path style="fill:#000000; fill-opacity:1.0; 
stroke:#000000; stroke-width:1.000000; stroke-opacity:1; 
stroke-linecap:round; stroke-linejoin:round;fill-rule:evenodd;"
d="M 142984346.000000,136839243.000000
142984346.000000,135939245.000000
143884344.000000,135939245.000000
143884344.000000,136839243.000000
Z" /> 
<path style="fill:#000000; fill-opacity:1.0; 
stroke:#000000; stroke-width:1.000000; stroke-opacity:1; 
stroke-linecap:round; stroke-linejoin:round;fill-rule:evenodd;"
d="M 145184346.000000,137939243.000000
145184346.000000,137039245.000000
146084344.000000,137039245.000000
146084344.000000,137939243.000000
Z" /> 
<path style="fill:#000000; fill-opacity:1.0; 
stroke:#000000; stroke-width:1.000000; stroke-opacity:1; 
stroke-linecap:round; stroke-linejoin:round;fill-rule:evenodd;"
d="M 144084346.000000,136839243.000000
144084346.000000,135939245.000000
144984344.000000,135939245.000000
144984344.000000,136839243.000000
Z" /> 
<path style="fill:#000000; fill-opacity:1.0; 
stroke:#000000; stroke-width:1.000000; stroke-opacity:1; 
stroke-linecap:round; stroke-linejoin:round;fill-rule:evenodd;"
d="M 142984346.000000,137939243.000000
142984346.000000,137039245.000000
143884344.000000,137039245.000000
143884344.000000,137939243.000000
Z" /> 
<path style="fill:#000000; fill-opacity:1.0; 
stroke:#000000; stroke-width:1.000000; stroke-opacity:1; 
stroke-linecap:round; stroke-linejoin:round;fill-rule:evenodd;"
d="M 145184346.000000,136839243.000000
145184346.000000,135939245.000000
146084344.000000,135939245.000000
146084344.000000,136839243.000000
Z" /> 
<path style="fill:#000000; fill-opacity:1.0; 
stroke:#000000; stroke-width:1.000000; stroke-opacity:1; 
stroke-linecap:round; stroke-linejoin:round;fill-rule:evenodd;"
d="M 141684333.000000,136114244.000000
141684333.000000,135864246.000000
142584331.000000,135864246.000000
142584331.000000,136114244.000000
Z" /> 
<path style="fill:#000000; fill-opacity:1.0; 
stroke:#000000; stroke-width:1.000000; stroke-opacity:1; 
stroke-linecap:round; stroke-linejoin:round;fill-rule:evenodd;"
d="M 141684333.000000,136614244.000000
141684333.000000,136364246.000000
142584331.000000,136364246.000000
142584331.000000,136614244.000000
Z" /> 
<path style="fill:#000000; fill-opacity:1.0; 
stroke:#000000; stroke-width:1.000000; stroke-opacity:1; 
stroke-linecap:round; stroke-linejoin:round;fill-rule:evenodd;"
d="M 141684333.000000,137114244.000000
141684333.000000,136864246.000000
142584331.000000,136864246.000000
142584331.000000,137114244.000000
Z" /> 
<path style="fill:#000000; fill-opacity:1.0; 
stroke:#000000; stroke-width:1.000000; stroke-opacity:1; 
stroke-linecap:round; stroke-linejoin:round;fill-rule:evenodd;"
d="M 141684333.000000,137614244.000000
141684333.000000,137364246.000000
142584331.000000,137364246.000000
142584331.000000,137614244.000000
Z" /> 
<path style="fill:#000000; fill-opacity:1.0; 
stroke:#000000; stroke-width:1.000000; stroke-opacity:1; 
stroke-linecap:round; stroke-linejoin:round;fill-rule:evenodd;"
d="M 141684333.000000,138114243.000000
141684333.000000,137864245.000000
142584331.000000,137864245.000000
142584331.000000,138114243.000000
Z" /> 
<path style="fill:#000000; fill-opacity:1.0; 
stroke:#000000; stroke-width:1.000000; stroke-opacity:1; 
stroke-linecap:round; stroke-linejoin:round;fill-rule:evenodd;"
d="M 141684333.000000,138614243.000000
141684333.000000,138364245.000000
142584331.000000,138364245.000000
142584331.000000,138614243.000000
Z" /> 
<path style="fill:#000000; fill-opacity:1.0; 
stroke:#000000; stroke-width:1.000000; stroke-opacity:1; 
stroke-linecap:round; stroke-linejoin:round;fill-rule:evenodd;"
d="M 141684333.000000,139114243.000000
141684333.000000,138864245.000000
142584331.000000,138864245.000000
142584331.000000,139114243.000000
Z" /> 
<path style="fill:#000000; fill-opacity:1.0; 
stroke:#000000; stroke-width:1.000000; stroke-opacity:1; 
stroke-linecap:round; stroke-linejoin:round;fill-rule:evenodd;"
d="M 142909347.000000,140339257.000000
142909347.000000,139439259.000000
143159345.000000,139439259.000000
143159345.000000,140339257.000000
Z" /> 
<path style="fill:#000000; fill-opacity:1.0; 
stroke:#000000; stroke-width:1.000000; stroke-opacity:1; 
stroke-linecap:round; stroke-linejoin:round;fill-rule:evenodd;"
d="M 143409347.000000,140339257.000000
143409347.000000,139439259.000000
143659345.000000,139439259.000000
143659345.000000,140339257.000000
Z" /> 
<path style="fill:#000000; fill-opacity:1.0; 
stroke:#000000; stroke-width:1.000000; stroke-opacity:1; 
stroke-linecap:round; stroke-linejoin:round;fill-rule:evenodd;"
d="M 143909347.000000,140339257.000000
143909347.000000,139439259.000000
144159345.000000,139439259.000000
144159345.000000,140339257.000000
Z" /> 
<path style="fill:#000000; fill-opacity:1.0; 
stroke:#000000; stroke-width:1.000000; stroke-opacity:1; 
stroke-linecap:round; stroke-linejoin:round;fill-rule:evenodd;"
d="M 144409347.000000,140339257.000000
144409347.000000,139439259.000000
144659345.000000,139439259.000000
144659345.000000,140339257.000000
Z" /> 
<path style="fill:#000000; fill-opacity:1.0; 
stroke:#000000; stroke-width:1.000000; stroke-opacity:1; 
stroke-linecap:round; stroke-linejoin:round;fill-rule:evenodd;"
d="M 144909346.000000,140339257.000000
144909346.000000,139439259.000000
145159344.000000,139439259.000000
145159344.000000,140339257.000000
Z" /> 
<path style="fill:#000000; fill-opacity:1.0; 
stroke:#000000; stroke-width:1.000000; stroke-opacity:1; 
stroke-linecap:round; stroke-linejoin:round;fill-rule:evenodd;"
d="M 145409346.000000,140339257.000000
145409346.000000,139439259.000000
145659344.000000,139439259.000000
145659344.000000,140339257.000000
Z" /> 
<path style="fill:#000000; fill-opacity:1.0; 
stroke:#000000; stroke-width:1.000000; stroke-opacity:1; 
stroke-linecap:round; stroke-linejoin:round;fill-rule:evenodd;"
d="M 145909346.000000,140339257.000000
145909346.000000,139439259.000000
146159344.000000,139439259.000000
146159344.000000,140339257.000000
Z" /> 
<path style="fill:#000000; fill-opacity:1.0; 
stroke:#000000; stroke-width:1.000000; stroke-opacity:1; 
stroke-linecap:round; stroke-linejoin:round;fill-rule:evenodd;"
d="M 146484360.000000,139114243.000000
146484360.000000,138864245.000000
147384358.000000,138864245.000000
147384358.000000,139114243.000000
Z" /> 
<path style="fill:#000000; fill-opacity:1.0; 
stroke:#000000; stroke-width:1.000000; stroke-opacity:1; 
stroke-linecap:round; stroke-linejoin:round;fill-rule:evenodd;"
d="M 146484360.000000,138614243.000000
146484360.000000,138364245.000000
147384358.000000,138364245.000000
147384358.000000,138614243.000000
Z" /> 
<path style="fill:#000000; fill-opacity:1.0; 
stroke:#000000; stroke-width:1.000000; stroke-opacity:1; 
stroke-linecap:round; stroke-linejoin:round;fill-rule:evenodd;"
d="M 146484360.000000,138114243.000000
146484360.000000,137864245.000000
147384358.000000,137864245.000000
147384358.000000,138114243.000000
Z" /> 
<path style="fill:#000000; fill-opacity:1.0; 
stroke:#000000; stroke-width:1.000000; stroke-opacity:1; 
stroke-linecap:round; stroke-linejoin:round;fill-rule:evenodd;"
d="M 146484360.000000,137614244.000000
146484360.000000,137364246.000000
147384358.000000,137364246.000000
147384358.000000,137614244.000000
Z" /> 
<path style="fill:#000000; fill-opacity:1.0; 
stroke:#000000; stroke-width:1.000000; stroke-opacity:1; 
stroke-linecap:round; stroke-linejoin:round;fill-rule:evenodd;"
d="M 146484360.000000,137114244.000000
146484360.000000,136864246.000000
147384358.000000,136864246.000000
147384358.000000,137114244.000000
Z" /> 
<path style="fill:#000000; fill-opacity:1.0; 
stroke:#000000; stroke-width:1.000000; stroke-opacity:1; 
stroke-linecap:round; stroke-linejoin:round;fill-rule:evenodd;"
d="M 146484360.000000,136614244.000000
146484360.000000,136364246.000000
147384358.000000,136364246.000000
147384358.000000,136614244.000000
Z" /> 
<path style="fill:#000000; fill-opacity:1.0; 
stroke:#000000; stroke-width:1.000000; stroke-opacity:1; 
stroke-linecap:round; stroke-linejoin:round;fill-rule:evenodd;"
d="M 146484360.000000,136114244.000000
146484360.000000,135864246.000000
147384358.000000,135864246.000000
147384358.000000,136114244.000000
Z" /> 
<path style="fill:#000000; fill-opacity:1.0; 
stroke:#000000; stroke-width:1.000000; stroke-opacity:1; 
stroke-linecap:round; stroke-linejoin:round;fill-rule:evenodd;"
d="M 145909346.000000,135539230.000000
145909346.000000,134639232.000000
146159344.000000,134639232.000000
146159344.000000,135539230.000000
Z" /> 
<path style="fill:#000000; fill-opacity:1.0; 
stroke:#000000; stroke-width:1.000000; stroke-opacity:1; 
stroke-linecap:round; stroke-linejoin:round;fill-rule:evenodd;"
d="M 145409346.000000,135539230.000000
145409346.000000,134639232.000000
145659344.000000,134639232.000000
145659344.000000,135539230.000000
Z" /> 
<path style="fill:#000000; fill-opacity:1.0; 
stroke:#000000; stroke-width:1.000000; stroke-opacity:1; 
stroke-linecap:round; stroke-linejoin:round;fill-rule:evenodd;"
d="M 144909346.000000,135539230.000000
144909346.000000,134639232.000000
145159344.000000,134639232.000000
145159344.000000,135539230.000000
Z" /> 
<path style="fill:#000000; fill-opacity:1.0; 
stroke:#000000; stroke-width:1.000000; stroke-opacity:1; 
stroke-linecap:round; stroke-linejoin:round;fill-rule:evenodd;"
d="M 144409347.000000,135539230.000000
144409347.000000,134639232.000000
144659345.000000,134639232.000000
144659345.000000,135539230.000000
Z" /> 
<path style="fill:#000000; fill-opacity:1.0; 
stroke:#000000; stroke-width:1.000000; stroke-opacity:1; 
stroke-linecap:round; stroke-linejoin:round;fill-rule:evenodd;"
d="M 143909347.000000,135539230.000000
143909347.000000,134639232.000000
144159345.000000,134639232.000000
144159345.000000,135539230.000000
Z" /> 
<path style="fill:#000000; fill-opacity:1.0; 
stroke:#000000; stroke-width:1.000000; stroke-opacity:1; 
stroke-linecap:round; stroke-linejoin:round;fill-rule:evenodd;"
d="M 143409347.000000,135539230.000000
143409347.000000,134639232.000000
143659345.000000,134639232.000000
143659345.000000,135539230.000000
Z" /> 
<path style="fill:#000000; fill-opacity:1.0; 
stroke:#000000; stroke-width:1.000000; stroke-opacity:1; 
stroke-linecap:round; stroke-linejoin:round;fill-rule:evenodd;"
d="M 142909347.000000,135539230.000000
142909347.000000,134639232.000000
143159345.000000,134639232.000000
143159345.000000,135539230.000000
Z" /> 
</g>
<g >
</g>
<g >
</g>
<g style="fill:#000000; fill-opacity:1.0; 
stroke:#000000; stroke-width:1.000000; stroke-opacity:1; 
stroke-linecap:round; stroke-linejoin:round;">
<path style="fill:#000000; fill-opacity:1.0; 
stroke:#000000; stroke-width:1.000000; stroke-opacity:1; 
stroke-linecap:round; stroke-linejoin:round;fill-rule:evenodd;"
d="M 132674850.000000,133504600.000000
132692929.000000,133413713.000000
132744412.000000,133336662.000000
132821463.000000,133285179.000000
132912350.000000,133267100.000000
133512350.000000,133267100.000000
133603237.000000,133285179.000000
133680288.000000,133336662.000000
133731771.000000,133413713.000000
133749850.000000,133504600.000000
133749850.000000,133979600.000000
133731771.000000,134070487.000000
133680288.000000,134147538.000000
133603237.000000,134199021.000000
133512350.000000,134217100.000000
132912350.000000,134217100.000000
132821463.000000,134199021.000000
132744412.000000,134147538.000000
132692929.000000,134070487.000000
132674850.000000,133979600.000000
Z" /> 
<path style="fill:#000000; fill-opacity:1.0; 
stroke:#000000; stroke-width:1.000000; stroke-opacity:1; 
stroke-linecap:round; stroke-linejoin:round;fill-rule:evenodd;"
d="M 134399850.000000,133504600.000000
134417929.000000,133413713.000000
134469412.000000,133336662.000000
134546463.000000,133285179.000000
134637350.000000,133267100.000000
135237350.000000,133267100.000000
135328237.000000,133285179.000000
135405288.000000,133336662.000000
135456771.000000,133413713.000000
135474850.000000,133504600.000000
135474850.000000,133979600.000000
135456771.000000,134070487.000000
135405288.000000,134147538.000000
135328237.000000,134199021.000000
135237350.000000,134217100.000000
134637350.000000,134217100.000000
134546463.000000,134199021.000000
134469412.000000,134147538.000000
134417929.000000,134070487.000000
134399850.000000,133979600.000000
Z" /> 
</g>
<g >
</g>
<g style="fill:#000000; fill-opacity:1.0; 
stroke:#000000; stroke-width:1.000000; stroke-opacity:1; 
stroke-linecap:round; stroke-linejoin:round;">
<path style="fill:#000000; fill-opacity:1.0; 
stroke:#000000; stroke-width:1.000000; stroke-opacity:1; 
stroke-linecap:round; stroke-linejoin:round;fill-rule:evenodd;"
d="M 158427599.000000,94102202.000000
158427599.000000,94457800.000000
156751201.000000,94457800.000000
156751201.000000,94102202.000000
Z" /> 
<path style="fill:#000000; fill-opacity:1.0; 
stroke:#000000; stroke-width:1.000000; stroke-opacity:1; 
stroke-linecap:round; stroke-linejoin:round;fill-rule:evenodd;"
d="M 158427599.000000,93452201.000000
158427599.000000,93807799.000000
156751201.000000,93807799.000000
156751201.000000,93452201.000000
Z" /> 
<path style="fill:#000000; fill-opacity:1.0; 
stroke:#000000; stroke-width:1.000000; stroke-opacity:1; 
stroke-linecap:round; stroke-linejoin:round;fill-rule:evenodd;"
d="M 158427599.000000,92802200.000000
158427599.000000,93157798.000000
156751201.000000,93157798.000000
156751201.000000,92802200.000000
Z" /> 
<path style="fill:#000000; fill-opacity:1.0; 
stroke:#000000; stroke-width:1.000000; stroke-opacity:1; 
stroke-linecap:round; stroke-linejoin:round;fill-rule:evenodd;"
d="M 158427599.000000,92152201.000000
158427599.000000,92507799.000000
156751201.000000,92507799.000000
156751201.000000,92152201.000000
Z" /> 
<path style="fill:#000000; fill-opacity:1.0; 
stroke:#000000; stroke-width:1.000000; stroke-opacity:1; 
stroke-linecap:round; stroke-linejoin:round;fill-rule:evenodd;"
d="M 158427599.000000,91502202.000000
158427599.000000,91857800.000000
156751201.000000,91857800.000000
156751201.000000,91502202.000000
Z" /> 
<path style="fill:#000000; fill-opacity:1.0; 
stroke:#000000; stroke-width:1.000000; stroke-opacity:1; 
stroke-linecap:round; stroke-linejoin:round;fill-rule:evenodd;"
d="M 158427599.000000,90852201.000000
158427599.000000,91207799.000000
156751201.000000,91207799.000000
156751201.000000,90852201.000000
Z" /> 
<path style="fill:#000000; fill-opacity:1.0; 
stroke:#000000; stroke-width:1.000000; stroke-opacity:1; 
stroke-linecap:round; stroke-linejoin:round;fill-rule:evenodd;"
d="M 158427599.000000,90202202.000000
158427599.000000,90557800.000000
156751201.000000,90557800.000000
156751201.000000,90202202.000000
Z" /> 
<path style="fill:#000000; fill-opacity:1.0; 
stroke:#000000; stroke-width:1.000000; stroke-opacity:1; 
stroke-linecap:round; stroke-linejoin:round;fill-rule:evenodd;"
d="M 152788799.000000,90202200.000000
152788799.000000,90557798.000000
151112401.000000,90557798.000000
151112401.000000,90202200.000000
Z" /> 
<path style="fill:#000000; fill-opacity:1.0; 
stroke:#000000; stroke-width:1.000000; stroke-opacity:1; 
stroke-linecap:round; stroke-linejoin:round;fill-rule:evenodd;"
d="M 152788799.000000,90852201.000000
152788799.000000,91207799.000000
151112401.000000,91207799.000000
151112401.000000,90852201.000000
Z" /> 
<path style="fill:#000000; fill-opacity:1.0; 
stroke:#000000; stroke-width:1.000000; stroke-opacity:1; 
stroke-linecap:round; stroke-linejoin:round;fill-rule:evenodd;"
d="M 152788799.000000,91502200.000000
152788799.000000,91857798.000000
151112401.000000,91857798.000000
151112401.000000,91502200.000000
Z" /> 
<path style="fill:#000000; fill-opacity:1.0; 
stroke:#000000; stroke-width:1.000000; stroke-opacity:1; 
stroke-linecap:round; stroke-linejoin:round;fill-rule:evenodd;"
d="M 152788799.000000,92152201.000000
152788799.000000,92507799.000000
151112401.000000,92507799.000000
151112401.000000,92152201.000000
Z" /> 
<path style="fill:#000000; fill-opacity:1.0; 
stroke:#000000; stroke-width:1.000000; stroke-opacity:1; 
stroke-linecap:round; stroke-linejoin:round;fill-rule:evenodd;"
d="M 152788799.000000,92802200.000000
152788799.000000,93157798.000000
151112401.000000,93157798.000000
151112401.000000,92802200.000000
Z" /> 
<path style="fill:#000000; fill-opacity:1.0; 
stroke:#000000; stroke-width:1.000000; stroke-opacity:1; 
stroke-linecap:round; stroke-linejoin:round;fill-rule:evenodd;"
d="M 152788799.000000,93452201.000000
152788799.000000,93807799.000000
151112401.000000,93807799.000000
151112401.000000,93452201.000000
Z" /> 
<path style="fill:#000000; fill-opacity:1.0; 
stroke:#000000; stroke-width:1.000000; stroke-opacity:1; 
stroke-linecap:round; stroke-linejoin:round;fill-rule:evenodd;"
d="M 152788799.000000,94102200.000000
152788799.000000,94457798.000000
151112401.000000,94457798.000000
151112401.000000,94102200.000000
Z" /> 
</g>
<g >
</g>
<g >
</g>
<g style="fill:#000000; fill-opacity:1.0; 
stroke:#000000; stroke-width:1.000000; stroke-opacity:1; 
stroke-linecap:round; stroke-linejoin:round;">
<path style="fill:#000000; fill-opacity:1.0; 
stroke:#000000; stroke-width:1.000000; stroke-opacity:1; 
stroke-linecap:round; stroke-linejoin:round;fill-rule:evenodd;"
d="M 138808358.000000,138610000.000000
138899245.000000,138628079.000000
138976296.000000,138679562.000000
139027779.000000,138756613.000000
139045858.000000,138847500.000000
139045858.000000,139447500.000000
139027779.000000,139538387.000000
138976296.000000,139615438.000000
138899245.000000,139666921.000000
138808358.000000,139685000.000000
138333358.000000,139685000.000000
138242471.000000,139666921.000000
138165420.000000,139615438.000000
138113937.000000,139538387.000000
138095858.000000,139447500.000000
138095858.000000,138847500.000000
138113937.000000,138756613.000000
138165420.000000,138679562.000000
138242471.000000,138628079.000000
138333358.000000,138610000.000000
Z" /> 
<path style="fill:#000000; fill-opacity:1.0; 
stroke:#000000; stroke-width:1.000000; stroke-opacity:1; 
stroke-linecap:round; stroke-linejoin:round;fill-rule:evenodd;"
d="M 138808358.000000,140335000.000000
138899245.000000,140353079.000000
138976296.000000,140404562.000000
139027779.000000,140481613.000000
139045858.000000,140572500.000000
139045858.000000,141172500.000000
139027779.000000,141263387.000000
138976296.000000,141340438.000000
138899245.000000,141391921.000000
138808358.000000,141410000.000000
138333358.000000,141410000.000000
138242471.000000,141391921.000000
138165420.000000,141340438.000000
138113937.000000,141263387.000000
138095858.000000,141172500.000000
138095858.000000,140572500.000000
138113937.000000,140481613.000000
138165420.000000,140404562.000000
138242471.000000,140353079.000000
138333358.000000,140335000.000000
Z" /> 
</g>
<g >
</g>
<g style="fill:#000000; fill-opacity:1.0; 
stroke:#000000; stroke-width:1.000000; stroke-opacity:1; 
stroke-linecap:round; stroke-linejoin:round;">
<path style="fill:#000000; fill-opacity:1.0; 
stroke:#000000; stroke-width:1.000000; stroke-opacity:1; 
stroke-linecap:round; stroke-linejoin:round;fill-rule:evenodd;"
d="M 146244850.000000,106079600.000000
146226771.000000,106170487.000000
146175288.000000,106247538.000000
146098237.000000,106299021.000000
146007350.000000,106317100.000000
145507350.000000,106317100.000000
145416463.000000,106299021.000000
145339412.000000,106247538.000000
145287929.000000,106170487.000000
145269850.000000,106079600.000000
145269850.000000,105604600.000000
145287929.000000,105513713.000000
145339412.000000,105436662.000000
145416463.000000,105385179.000000
145507350.000000,105367100.000000
146007350.000000,105367100.000000
146098237.000000,105385179.000000
146175288.000000,105436662.000000
146226771.000000,105513713.000000
146244850.000000,105604600.000000
Z" /> 
<path style="fill:#000000; fill-opacity:1.0; 
stroke:#000000; stroke-width:1.000000; stroke-opacity:1; 
stroke-linecap:round; stroke-linejoin:round;fill-rule:evenodd;"
d="M 144419850.000000,106079600.000000
144401771.000000,106170487.000000
144350288.000000,106247538.000000
144273237.000000,106299021.000000
144182350.000000,106317100.000000
143682350.000000,106317100.000000
143591463.000000,106299021.000000
143514412.000000,106247538.000000
143462929.000000,106170487.000000
143444850.000000,106079600.000000
143444850.000000,105604600.000000
143462929.000000,105513713.000000
143514412.000000,105436662.000000
143591463.000000,105385179.000000
143682350.000000,105367100.000000
144182350.000000,105367100.000000
144273237.000000,105385179.000000
144350288.000000,105436662.000000
144401771.000000,105513713.000000
144419850.000000,105604600.000000
Z" /> 
</g>
<g >
</g>
<g style="fill:#000000; fill-opacity:1.0; 
stroke:#000000; stroke-width:1.000000; stroke-opacity:1; 
stroke-linecap:round; stroke-linejoin:round;">
<path style="fill:#000000; fill-opacity:1.0; 
stroke:#000000; stroke-width:1.000000; stroke-opacity:1; 
stroke-linecap:round; stroke-linejoin:round;fill-rule:evenodd;"
d="M 143444850.000000,103794600.000000
143462929.000000,103703713.000000
143514412.000000,103626662.000000
143591463.000000,103575179.000000
143682350.000000,103557100.000000
144282350.000000,103557100.000000
144373237.000000,103575179.000000
144450288.000000,103626662.000000
144501771.000000,103703713.000000
144519850.000000,103794600.000000
144519850.000000,104269600.000000
144501771.000000,104360487.000000
144450288.000000,104437538.000000
144373237.000000,104489021.000000
144282350.000000,104507100.000000
143682350.000000,104507100.000000
143591463.000000,104489021.000000
143514412.000000,104437538.000000
143462929.000000,104360487.000000
143444850.000000,104269600.000000
Z" /> 
<path style="fill:#000000; fill-opacity:1.0; 
stroke:#000000; stroke-width:1.000000; stroke-opacity:1; 
stroke-linecap:round; stroke-linejoin:round;fill-rule:evenodd;"
d="M 145169850.000000,103794600.000000
145187929.000000,103703713.000000
145239412.000000,103626662.000000
145316463.000000,103575179.000000
145407350.000000,103557100.000000
146007350.000000,103557100.000000
146098237.000000,103575179.000000
146175288.000000,103626662.000000
146226771.000000,103703713.000000
146244850.000000,103794600.000000
146244850.000000,104269600.000000
146226771.000000,104360487.000000
146175288.000000,104437538.000000
146098237.000000,104489021.000000
146007350.000000,104507100.000000
145407350.000000,104507100.000000
145316463.000000,104489021.000000
145239412.000000,104437538.000000
145187929.000000,104360487.000000
145169850.000000,104269600.000000
Z" /> 
</g>
<g >
</g>
<g style="fill:#000000; fill-opacity:1.0; 
stroke:#000000; stroke-width:1.000000; stroke-opacity:1; 
stroke-linecap:round; stroke-linejoin:round;">
<path style="fill:#000000; fill-opacity:1.0; 
stroke:#000000; stroke-width:1.000000; stroke-opacity:1; 
stroke-linecap:round; stroke-linejoin:round;fill-rule:evenodd;"
d="M 145589961.000000,132199981.000000
144989963.000000,132199981.000000
144989963.000000,131779993.000000
145589961.000000,131779993.000000
Z" /> 
<path style="fill:#000000; fill-opacity:1.0; 
stroke:#000000; stroke-width:1.000000; stroke-opacity:1; 
stroke-linecap:round; stroke-linejoin:round;fill-rule:evenodd;"
d="M 145589961.000000,131549994.000000
144989963.000000,131549994.000000
144989963.000000,131130006.000000
145589961.000000,131130006.000000
Z" /> 
<path style="fill:#000000; fill-opacity:1.0; 
stroke:#000000; stroke-width:1.000000; stroke-opacity:1; 
stroke-linecap:round; stroke-linejoin:round;fill-rule:evenodd;"
d="M 145589961.000000,130900007.000000
144989963.000000,130900007.000000
144989963.000000,130480019.000000
145589961.000000,130480019.000000
Z" /> 
<path style="fill:#000000; fill-opacity:1.0; 
stroke:#000000; stroke-width:1.000000; stroke-opacity:1; 
stroke-linecap:round; stroke-linejoin:round;fill-rule:evenodd;"
d="M 143090039.000000,130480019.000000
143690037.000000,130480019.000000
143690037.000000,130900007.000000
143090039.000000,130900007.000000
Z" /> 
<path style="fill:#000000; fill-opacity:1.0; 
stroke:#000000; stroke-width:1.000000; stroke-opacity:1; 
stroke-linecap:round; stroke-linejoin:round;fill-rule:evenodd;"
d="M 143090039.000000,131130006.000000
143690037.000000,131130006.000000
143690037.000000,131549994.000000
143090039.000000,131549994.000000
Z" /> 
<path style="fill:#000000; fill-opacity:1.0; 
stroke:#000000; stroke-width:1.000000; stroke-opacity:1; 
stroke-linecap:round; stroke-linejoin:round;fill-rule:evenodd;"
d="M 143090039.000000,131779993.000000
143690037.000000,131779993.000000
143690037.000000,132199981.000000
143090039.000000,132199981.000000
Z" /> 
</g>
<g >
</g>
<g style="fill:#000000; fill-opacity:1.0; 
stroke:#000000; stroke-width:1.000000; stroke-opacity:1; 
stroke-linecap:round; stroke-linejoin:round;">
<path style="fill:#000000; fill-opacity:1.0; 
stroke:#000000; stroke-width:1.000000; stroke-opacity:1; 
stroke-linecap:round; stroke-linejoin:round;fill-rule:evenodd;"
d="M 132674850.000000,129864600.000000
132692929.000000,129773713.000000
132744412.000000,129696662.000000
132821463.000000,129645179.000000
132912350.000000,129627100.000000
133412350.000000,129627100.000000
133503237.000000,129645179.000000
133580288.000000,129696662.000000
133631771.000000,129773713.000000
133649850.000000,129864600.000000
133649850.000000,130339600.000000
133631771.000000,130430487.000000
133580288.000000,130507538.000000
133503237.000000,130559021.000000
133412350.000000,130577100.000000
132912350.000000,130577100.000000
132821463.000000,130559021.000000
132744412.000000,130507538.000000
132692929.000000,130430487.000000
132674850.000000,130339600.000000
Z" /> 
<path style="fill:#000000; fill-opacity:1.0; 
stroke:#000000; stroke-width:1.000000; stroke-opacity:1; 
stroke-linecap:round; stroke-linejoin:round;fill-rule:evenodd;"
d="M 134499850.000000,129864600.000000
134517929.000000,129773713.000000
134569412.000000,129696662.000000
134646463.000000,129645179.000000
134737350.000000,129627100.000000
135237350.000000,129627100.000000
135328237.000000,129645179.000000
135405288.000000,129696662.000000
135456771.000000,129773713.000000
135474850.000000,129864600.000000
135474850.000000,130339600.000000
135456771.000000,130430487.000000
135405288.000000,130507538.000000
135328237.000000,130559021.000000
135237350.000000,130577100.000000
134737350.000000,130577100.000000
134646463.000000,130559021.000000
134569412.000000,130507538.000000
134517929.000000,130430487.000000
134499850.000000,130339600.000000
Z" /> 
</g>
<g >
</g>
<g style="fill:#000000; fill-opacity:1.0; 
stroke:#000000; stroke-width:1.000000; stroke-opacity:1; 
stroke-linecap:round; stroke-linejoin:round;">
<path style="fill:#000000; fill-opacity:1.0; 
stroke:#000000; stroke-width:1.000000; stroke-opacity:1; 
stroke-linecap:round; stroke-linejoin:round;fill-rule:evenodd;"
d="M 144980000.000000,87320000.000000
145075671.000000,87339030.000000
145156777.000000,87393223.000000
145210970.000000,87474329.000000
145230000.000000,87570000.000000
145230000.000000,90570000.000000
145210970.000000,90665671.000000
145156777.000000,90746777.000000
145075671.000000,90800970.000000
144980000.000000,90820000.000000
143880000.000000,90820000.000000
143784329.000000,90800970.000000
143703223.000000,90746777.000000
143649030.000000,90665671.000000
143630000.000000,90570000.000000
143630000.000000,87570000.000000
143649030.000000,87474329.000000
143703223.000000,87393223.000000
143784329.000000,87339030.000000
143880000.000000,87320000.000000
Z" /> 
<path style="fill:#000000; fill-opacity:1.0; 
stroke:#000000; stroke-width:1.000000; stroke-opacity:1; 
stroke-linecap:round; stroke-linejoin:round;fill-rule:evenodd;"
d="M 144980000.000000,92920000.000000
145075671.000000,92939030.000000
145156777.000000,92993223.000000
145210970.000000,93074329.000000
145230000.000000,93170000.000000
145230000.000000,96170000.000000
145210970.000000,96265671.000000
145156777.000000,96346777.000000
145075671.000000,96400970.000000
144980000.000000,96420000.000000
143880000.000000,96420000.000000
143784329.000000,96400970.000000
143703223.000000,96346777.000000
143649030.000000,96265671.000000
143630000.000000,96170000.000000
143630000.000000,93170000.000000
143649030.000000,93074329.000000
143703223.000000,92993223.000000
143784329.000000,92939030.000000
143880000.000000,92920000.000000
Z" /> 
</g>
<g >
</g>
<g style="fill:#000000; fill-opacity:1.0; 
stroke:#000000; stroke-width:1.000000; stroke-opacity:1; 
stroke-linecap:round; stroke-linejoin:round;">
<path style="fill:#000000; fill-opacity:1.0; 
stroke:#000000; stroke-width:1.000000; stroke-opacity:1; 
stroke-linecap:round; stroke-linejoin:round;fill-rule:evenodd;"
d="M 140103358.000000,141410000.000000
140012471.000000,141391921.000000
139935420.000000,141340438.000000
139883937.000000,141263387.000000
139865858.000000,141172500.000000
139865858.000000,140572500.000000
139883937.000000,140481613.000000
139935420.000000,140404562.000000
140012471.000000,140353079.000000
140103358.000000,140335000.000000
140578358.000000,140335000.000000
140669245.000000,140353079.000000
140746296.000000,140404562.000000
140797779.000000,140481613.000000
140815858.000000,140572500.000000
140815858.000000,141172500.000000
140797779.000000,141263387.000000
140746296.000000,141340438.000000
140669245.000000,141391921.000000
140578358.000000,141410000.000000
Z" /> 
<path style="fill:#000000; fill-opacity:1.0; 
stroke:#000000; stroke-width:1.000000; stroke-opacity:1; 
stroke-linecap:round; stroke-linejoin:round;fill-rule:evenodd;"
d="M 140103358.000000,139685000.000000
140012471.000000,139666921.000000
139935420.000000,139615438.000000
139883937.000000,139538387.000000
139865858.000000,139447500.000000
139865858.000000,138847500.000000
139883937.000000,138756613.000000
139935420.000000,138679562.000000
140012471.000000,138628079.000000
140103358.000000,138610000.000000
140578358.000000,138610000.000000
140669245.000000,138628079.000000
140746296.000000,138679562.000000
140797779.000000,138756613.000000
140815858.000000,138847500.000000
140815858.000000,139447500.000000
140797779.000000,139538387.000000
140746296.000000,139615438.000000
140669245.000000,139666921.000000
140578358.000000,139685000.000000
Z" /> 
</g>
<g >
</g>
<g >
</g>
<g style="fill:#000000; fill-opacity:1.0; 
stroke:#000000; stroke-width:1.000000; stroke-opacity:1; 
stroke-linecap:round; stroke-linejoin:round;">
<path style="fill:#000000; fill-opacity:1.0; 
stroke:#000000; stroke-width:1.000000; stroke-opacity:1; 
stroke-linecap:round; stroke-linejoin:round;fill-rule:evenodd;"
d="M 149220001.000000,109560001.000000
150119999.000000,109560001.000000
150119999.000000,111559999.000000
149220001.000000,111559999.000000
Z" /> 
<path style="fill:#000000; fill-opacity:1.0; 
stroke:#000000; stroke-width:1.000000; stroke-opacity:1; 
stroke-linecap:round; stroke-linejoin:round;fill-rule:evenodd;"
d="M 147950001.000000,109560001.000000
148849999.000000,109560001.000000
148849999.000000,111559999.000000
147950001.000000,111559999.000000
Z" /> 
<path style="fill:#000000; fill-opacity:1.0; 
stroke:#000000; stroke-width:1.000000; stroke-opacity:1; 
stroke-linecap:round; stroke-linejoin:round;fill-rule:evenodd;"
d="M 146680001.000000,109560001.000000
147579999.000000,109560001.000000
147579999.000000,111559999.000000
146680001.000000,111559999.000000
Z" /> 
<path style="fill:#000000; fill-opacity:1.0; 
stroke:#000000; stroke-width:1.000000; stroke-opacity:1; 
stroke-linecap:round; stroke-linejoin:round;fill-rule:evenodd;"
d="M 145410001.000000,109560001.000000
146309999.000000,109560001.000000
146309999.000000,111559999.000000
145410001.000000,111559999.000000
Z" /> 
<path style="fill:#000000; fill-opacity:1.0; 
stroke:#000000; stroke-width:1.000000; stroke-opacity:1; 
stroke-linecap:round; stroke-linejoin:round;fill-rule:evenodd;"
d="M 144140001.000000,109560001.000000
145039999.000000,109560001.000000
145039999.000000,111559999.000000
144140001.000000,111559999.000000
Z" /> 
<path style="fill:#000000; fill-opacity:1.0; 
stroke:#000000; stroke-width:1.000000; stroke-opacity:1; 
stroke-linecap:round; stroke-linejoin:round;fill-rule:evenodd;"
d="M 142870001.000000,109560001.000000
143769999.000000,109560001.000000
143769999.000000,111559999.000000
142870001.000000,111559999.000000
Z" /> 
<path style="fill:#000000; fill-opacity:1.0; 
stroke:#000000; stroke-width:1.000000; stroke-opacity:1; 
stroke-linecap:round; stroke-linejoin:round;fill-rule:evenodd;"
d="M 141600001.000000,109560001.000000
142499999.000000,109560001.000000
142499999.000000,111559999.000000
141600001.000000,111559999.000000
Z" /> 
<path style="fill:#000000; fill-opacity:1.0; 
stroke:#000000; stroke-width:1.000000; stroke-opacity:1; 
stroke-linecap:round; stroke-linejoin:round;fill-rule:evenodd;"
d="M 140330001.000000,109560001.000000
141229999.000000,109560001.000000
141229999.000000,111559999.000000
140330001.000000,111559999.000000
Z" /> 
<path style="fill:#000000; fill-opacity:1.0; 
stroke:#000000; stroke-width:1.000000; stroke-opacity:1; 
stroke-linecap:round; stroke-linejoin:round;fill-rule:evenodd;"
d="M 139060001.000000,109560001.000000
139959999.000000,109560001.000000
139959999.000000,111559999.000000
139060001.000000,111559999.000000
Z" /> 
<path style="fill:#000000; fill-opacity:1.0; 
stroke:#000000; stroke-width:1.000000; stroke-opacity:1; 
stroke-linecap:round; stroke-linejoin:round;fill-rule:evenodd;"
d="M 137790001.000000,109560001.000000
138689999.000000,109560001.000000
138689999.000000,111559999.000000
137790001.000000,111559999.000000
Z" /> 
<path style="fill:#000000; fill-opacity:1.0; 
stroke:#000000; stroke-width:1.000000; stroke-opacity:1; 
stroke-linecap:round; stroke-linejoin:round;fill-rule:evenodd;"
d="M 136520001.000000,109560001.000000
137419999.000000,109560001.000000
137419999.000000,111559999.000000
136520001.000000,111559999.000000
Z" /> 
<path style="fill:#000000; fill-opacity:1.0; 
stroke:#000000; stroke-width:1.000000; stroke-opacity:1; 
stroke-linecap:round; stroke-linejoin:round;fill-rule:evenodd;"
d="M 135250001.000000,109560001.000000
136149999.000000,109560001.000000
136149999.000000,111559999.000000
135250001.000000,111559999.000000
Z" /> 
<path style="fill:#000000; fill-opacity:1.0; 
stroke:#000000; stroke-width:1.000000; stroke-opacity:1; 
stroke-linecap:round; stroke-linejoin:round;fill-rule:evenodd;"
d="M 133980001.000000,109560001.000000
134879999.000000,109560001.000000
134879999.000000,111559999.000000
133980001.000000,111559999.000000
Z" /> 
<path style="fill:#000000; fill-opacity:1.0; 
stroke:#000000; stroke-width:1.000000; stroke-opacity:1; 
stroke-linecap:round; stroke-linejoin:round;fill-rule:evenodd;"
d="M 132710001.000000,109560001.000000
133609999.000000,109560001.000000
133609999.000000,111559999.000000
132710001.000000,111559999.000000
Z" /> 
<path style="fill:#000000; fill-opacity:1.0; 
stroke:#000000; stroke-width:1.000000; stroke-opacity:1; 
stroke-linecap:round; stroke-linejoin:round;fill-rule:evenodd;"
d="M 131160001.000000,112895001.000000
133159999.000000,112895001.000000
133159999.000000,113794999.000000
131160001.000000,113794999.000000
Z" /> 
<path style="fill:#000000; fill-opacity:1.0; 
stroke:#000000; stroke-width:1.000000; stroke-opacity:1; 
stroke-linecap:round; stroke-linejoin:round;fill-rule:evenodd;"
d="M 131160001.000000,114165001.000000
133159999.000000,114165001.000000
133159999.000000,115064999.000000
131160001.000000,115064999.000000
Z" /> 
<path style="fill:#000000; fill-opacity:1.0; 
stroke:#000000; stroke-width:1.000000; stroke-opacity:1; 
stroke-linecap:round; stroke-linejoin:round;fill-rule:evenodd;"
d="M 131160001.000000,115435001.000000
133159999.000000,115435001.000000
133159999.000000,116334999.000000
131160001.000000,116334999.000000
Z" /> 
<path style="fill:#000000; fill-opacity:1.0; 
stroke:#000000; stroke-width:1.000000; stroke-opacity:1; 
stroke-linecap:round; stroke-linejoin:round;fill-rule:evenodd;"
d="M 131160001.000000,116705001.000000
133159999.000000,116705001.000000
133159999.000000,117604999.000000
131160001.000000,117604999.000000
Z" /> 
<path style="fill:#000000; fill-opacity:1.0; 
stroke:#000000; stroke-width:1.000000; stroke-opacity:1; 
stroke-linecap:round; stroke-linejoin:round;fill-rule:evenodd;"
d="M 131160001.000000,117975001.000000
133159999.000000,117975001.000000
133159999.000000,118874999.000000
131160001.000000,118874999.000000
Z" /> 
<path style="fill:#000000; fill-opacity:1.0; 
stroke:#000000; stroke-width:1.000000; stroke-opacity:1; 
stroke-linecap:round; stroke-linejoin:round;fill-rule:evenodd;"
d="M 131160001.000000,119245001.000000
133159999.000000,119245001.000000
133159999.000000,120144999.000000
131160001.000000,120144999.000000
Z" /> 
<path style="fill:#000000; fill-opacity:1.0; 
stroke:#000000; stroke-width:1.000000; stroke-opacity:1; 
stroke-linecap:round; stroke-linejoin:round;fill-rule:evenodd;"
d="M 131160001.000000,120515001.000000
133159999.000000,120515001.000000
133159999.000000,121414999.000000
131160001.000000,121414999.000000
Z" /> 
<path style="fill:#000000; fill-opacity:1.0; 
stroke:#000000; stroke-width:1.000000; stroke-opacity:1; 
stroke-linecap:round; stroke-linejoin:round;fill-rule:evenodd;"
d="M 131160001.000000,121785001.000000
133159999.000000,121785001.000000
133159999.000000,122684999.000000
131160001.000000,122684999.000000
Z" /> 
<path style="fill:#000000; fill-opacity:1.0; 
stroke:#000000; stroke-width:1.000000; stroke-opacity:1; 
stroke-linecap:round; stroke-linejoin:round;fill-rule:evenodd;"
d="M 131160001.000000,123055001.000000
133159999.000000,123055001.000000
133159999.000000,123954999.000000
131160001.000000,123954999.000000
Z" /> 
<path style="fill:#000000; fill-opacity:1.0; 
stroke:#000000; stroke-width:1.000000; stroke-opacity:1; 
stroke-linecap:round; stroke-linejoin:round;fill-rule:evenodd;"
d="M 131160001.000000,124325001.000000
133159999.000000,124325001.000000
133159999.000000,125224999.000000
131160001.000000,125224999.000000
Z" /> 
<path style="fill:#000000; fill-opacity:1.0; 
stroke:#000000; stroke-width:1.000000; stroke-opacity:1; 
stroke-linecap:round; stroke-linejoin:round;fill-rule:evenodd;"
d="M 132710001.000000,126560001.000000
133609999.000000,126560001.000000
133609999.000000,128559999.000000
132710001.000000,128559999.000000
Z" /> 
<path style="fill:#000000; fill-opacity:1.0; 
stroke:#000000; stroke-width:1.000000; stroke-opacity:1; 
stroke-linecap:round; stroke-linejoin:round;fill-rule:evenodd;"
d="M 133980001.000000,126560001.000000
134879999.000000,126560001.000000
134879999.000000,128559999.000000
133980001.000000,128559999.000000
Z" /> 
<path style="fill:#000000; fill-opacity:1.0; 
stroke:#000000; stroke-width:1.000000; stroke-opacity:1; 
stroke-linecap:round; stroke-linejoin:round;fill-rule:evenodd;"
d="M 135250001.000000,126560001.000000
136149999.000000,126560001.000000
136149999.000000,128559999.000000
135250001.000000,128559999.000000
Z" /> 
<path style="fill:#000000; fill-opacity:1.0; 
stroke:#000000; stroke-width:1.000000; stroke-opacity:1; 
stroke-linecap:round; stroke-linejoin:round;fill-rule:evenodd;"
d="M 136520001.000000,126560001.000000
137419999.000000,126560001.000000
137419999.000000,128559999.000000
136520001.000000,128559999.000000
Z" /> 
<path style="fill:#000000; fill-opacity:1.0; 
stroke:#000000; stroke-width:1.000000; stroke-opacity:1; 
stroke-linecap:round; stroke-linejoin:round;fill-rule:evenodd;"
d="M 137790001.000000,126560001.000000
138689999.000000,126560001.000000
138689999.000000,128559999.000000
137790001.000000,128559999.000000
Z" /> 
<path style="fill:#000000; fill-opacity:1.0; 
stroke:#000000; stroke-width:1.000000; stroke-opacity:1; 
stroke-linecap:round; stroke-linejoin:round;fill-rule:evenodd;"
d="M 139060001.000000,126560001.000000
139959999.000000,126560001.000000
139959999.000000,128559999.000000
139060001.000000,128559999.000000
Z" /> 
<path style="fill:#000000; fill-opacity:1.0; 
stroke:#000000; stroke-width:1.000000; stroke-opacity:1; 
stroke-linecap:round; stroke-linejoin:round;fill-rule:evenodd;"
d="M 140330001.000000,126560001.000000
141229999.000000,126560001.000000
141229999.000000,128559999.000000
140330001.000000,128559999.000000
Z" /> 
<path style="fill:#000000; fill-opacity:1.0; 
stroke:#000000; stroke-width:1.000000; stroke-opacity:1; 
stroke-linecap:round; stroke-linejoin:round;fill-rule:evenodd;"
d="M 141600001.000000,126560001.000000
142499999.000000,126560001.000000
142499999.000000,128559999.000000
141600001.000000,128559999.000000
Z" /> 
<path style="fill:#000000; fill-opacity:1.0; 
stroke:#000000; stroke-width:1.000000; stroke-opacity:1; 
stroke-linecap:round; stroke-linejoin:round;fill-rule:evenodd;"
d="M 142870001.000000,126560001.000000
143769999.000000,126560001.000000
143769999.000000,128559999.000000
142870001.000000,128559999.000000
Z" /> 
<path style="fill:#000000; fill-opacity:1.0; 
stroke:#000000; stroke-width:1.000000; stroke-opacity:1; 
stroke-linecap:round; stroke-linejoin:round;fill-rule:evenodd;"
d="M 144140001.000000,126560001.000000
145039999.000000,126560001.000000
145039999.000000,128559999.000000
144140001.000000,128559999.000000
Z" /> 
<path style="fill:#000000; fill-opacity:1.0; 
stroke:#000000; stroke-width:1.000000; stroke-opacity:1; 
stroke-linecap:round; stroke-linejoin:round;fill-rule:evenodd;"
d="M 145410001.000000,126560001.000000
146309999.000000,126560001.000000
146309999.000000,128559999.000000
145410001.000000,128559999.000000
Z" /> 
<path style="fill:#000000; fill-opacity:1.0; 
stroke:#000000; stroke-width:1.000000; stroke-opacity:1; 
stroke-linecap:round; stroke-linejoin:round;fill-rule:evenodd;"
d="M 146680001.000000,126560001.000000
147579999.000000,126560001.000000
147579999.000000,128559999.000000
146680001.000000,128559999.000000
Z" /> 
<path style="fill:#000000; fill-opacity:1.0; 
stroke:#000000; stroke-width:1.000000; stroke-opacity:1; 
stroke-linecap:round; stroke-linejoin:round;fill-rule:evenodd;"
d="M 147950001.000000,126560001.000000
148849999.000000,126560001.000000
148849999.000000,128559999.000000
147950001.000000,128559999.000000
Z" /> 
<path style="fill:#000000; fill-opacity:1.0; 
stroke:#000000; stroke-width:1.000000; stroke-opacity:1; 
stroke-linecap:round; stroke-linejoin:round;fill-rule:evenodd;"
d="M 149220001.000000,126560001.000000
150119999.000000,126560001.000000
150119999.000000,128559999.000000
149220001.000000,128559999.000000
Z" /> 
<path style="fill:#000000; fill-opacity:1.0; 
stroke:#000000; stroke-width:1.000000; stroke-opacity:1; 
stroke-linecap:round; stroke-linejoin:round;fill-rule:evenodd;"
d="M 143340001.000000,115560001.000000
144669999.000000,115560001.000000
144669999.000000,116889999.000000
143340001.000000,116889999.000000
Z" /> 
<path style="fill:#000000; fill-opacity:1.0; 
stroke:#000000; stroke-width:1.000000; stroke-opacity:1; 
stroke-linecap:round; stroke-linejoin:round;fill-rule:evenodd;"
d="M 143340001.000000,117395001.000000
144669999.000000,117395001.000000
144669999.000000,118724999.000000
143340001.000000,118724999.000000
Z" /> 
<path style="fill:#000000; fill-opacity:1.0; 
stroke:#000000; stroke-width:1.000000; stroke-opacity:1; 
stroke-linecap:round; stroke-linejoin:round;fill-rule:evenodd;"
d="M 143340001.000000,119230001.000000
144669999.000000,119230001.000000
144669999.000000,120559999.000000
143340001.000000,120559999.000000
Z" /> 
<path style="fill:#000000; fill-opacity:1.0; 
stroke:#000000; stroke-width:1.000000; stroke-opacity:1; 
stroke-linecap:round; stroke-linejoin:round;fill-rule:evenodd;"
d="M 141505001.000000,115560001.000000
142834999.000000,115560001.000000
142834999.000000,116889999.000000
141505001.000000,116889999.000000
Z" /> 
<path style="fill:#000000; fill-opacity:1.0; 
stroke:#000000; stroke-width:1.000000; stroke-opacity:1; 
stroke-linecap:round; stroke-linejoin:round;fill-rule:evenodd;"
d="M 141505001.000000,117395001.000000
142834999.000000,117395001.000000
142834999.000000,118724999.000000
141505001.000000,118724999.000000
Z" /> 
<path style="fill:#000000; fill-opacity:1.0; 
stroke:#000000; stroke-width:1.000000; stroke-opacity:1; 
stroke-linecap:round; stroke-linejoin:round;fill-rule:evenodd;"
d="M 141505001.000000,119230001.000000
142834999.000000,119230001.000000
142834999.000000,120559999.000000
141505001.000000,120559999.000000
Z" /> 
<path style="fill:#000000; fill-opacity:1.0; 
stroke:#000000; stroke-width:1.000000; stroke-opacity:1; 
stroke-linecap:round; stroke-linejoin:round;fill-rule:evenodd;"
d="M 139670001.000000,115560001.000000
140999999.000000,115560001.000000
140999999.000000,116889999.000000
139670001.000000,116889999.000000
Z" /> 
<path style="fill:#000000; fill-opacity:1.0; 
stroke:#000000; stroke-width:1.000000; stroke-opacity:1; 
stroke-linecap:round; stroke-linejoin:round;fill-rule:evenodd;"
d="M 139670001.000000,117395001.000000
140999999.000000,117395001.000000
140999999.000000,118724999.000000
139670001.000000,118724999.000000
Z" /> 
<path style="fill:#000000; fill-opacity:1.0; 
stroke:#000000; stroke-width:1.000000; stroke-opacity:1; 
stroke-linecap:round; stroke-linejoin:round;fill-rule:evenodd;"
d="M 139670001.000000,119230001.000000
140999999.000000,119230001.000000
140999999.000000,120559999.000000
139670001.000000,120559999.000000
Z" /> 
</g>
<g >
</g>
<g style="fill:#000000; fill-opacity:1.0; 
stroke:#000000; stroke-width:1.000000; stroke-opacity:1; 
stroke-linecap:round; stroke-linejoin:round;">
<path style="fill:#000000; fill-opacity:1.0; 
stroke:#000000; stroke-width:1.000000; stroke-opacity:1; 
stroke-linecap:round; stroke-linejoin:round;fill-rule:evenodd;"
d="M 140552500.000000,107252500.000000
140461613.000000,107234421.000000
140384562.000000,107182938.000000
140333079.000000,107105887.000000
140315000.000000,107015000.000000
140315000.000000,106415000.000000
140333079.000000,106324113.000000
140384562.000000,106247062.000000
140461613.000000,106195579.000000
140552500.000000,106177500.000000
141027500.000000,106177500.000000
141118387.000000,106195579.000000
141195438.000000,106247062.000000
141246921.000000,106324113.000000
141265000.000000,106415000.000000
141265000.000000,107015000.000000
141246921.000000,107105887.000000
141195438.000000,107182938.000000
141118387.000000,107234421.000000
141027500.000000,107252500.000000
Z" /> 
<path style="fill:#000000; fill-opacity:1.0; 
stroke:#000000; stroke-width:1.000000; stroke-opacity:1; 
stroke-linecap:round; stroke-linejoin:round;fill-rule:evenodd;"
d="M 140552500.000000,105527500.000000
140461613.000000,105509421.000000
140384562.000000,105457938.000000
140333079.000000,105380887.000000
140315000.000000,105290000.000000
140315000.000000,104690000.000000
140333079.000000,104599113.000000
140384562.000000,104522062.000000
140461613.000000,104470579.000000
140552500.000000,104452500.000000
141027500.000000,104452500.000000
141118387.000000,104470579.000000
141195438.000000,104522062.000000
141246921.000000,104599113.000000
141265000.000000,104690000.000000
141265000.000000,105290000.000000
141246921.000000,105380887.000000
141195438.000000,105457938.000000
141118387.000000,105509421.000000
141027500.000000,105527500.000000
Z" /> 
</g>
<g >
</g>
<g >
</g>
<g >
</g>
<g style="fill:#000000; fill-opacity:1.0; 
stroke:#000000; stroke-width:1.000000; stroke-opacity:1; 
stroke-linecap:round; stroke-linejoin:round;">
<path style="fill:#000000; fill-opacity:1.0; 
stroke:#000000; stroke-width:1.000000; stroke-opacity:1; 
stroke-linecap:round; stroke-linejoin:round;fill-rule:evenodd;"
d="M 98947500.000000,167850000.000000
99038387.000000,167868079.000000
99115438.000000,167919562.000000
99166921.000000,167996613.000000
99185000.000000,168087500.000000
99185000.000000,168587500.000000
99166921.000000,168678387.000000
99115438.000000,168755438.000000
99038387.000000,168806921.000000
98947500.000000,168825000.000000
98472500.000000,168825000.000000
98381613.000000,168806921.000000
98304562.000000,168755438.000000
98253079.000000,168678387.000000
98235000.000000,168587500.000000
98235000.000000,168087500.000000
98253079.000000,167996613.000000
98304562.000000,167919562.000000
98381613.000000,167868079.000000
98472500.000000,167850000.000000
Z" /> 
<path style="fill:#000000; fill-opacity:1.0; 
stroke:#000000; stroke-width:1.000000; stroke-opacity:1; 
stroke-linecap:round; stroke-linejoin:round;fill-rule:evenodd;"
d="M 98947500.000000,169675000.000000
99038387.000000,169693079.000000
99115438.000000,169744562.000000
99166921.000000,169821613.000000
99185000.000000,169912500.000000
99185000.000000,170412500.000000
99166921.000000,170503387.000000
99115438.000000,170580438.000000
99038387.000000,170631921.000000
98947500.000000,170650000.000000
98472500.000000,170650000.000000
98381613.000000,170631921.000000
98304562.000000,170580438.000000
98253079.000000,170503387.000000
98235000.000000,170412500.000000
98235000.000000,169912500.000000
98253079.000000,169821613.000000
98304562.000000,169744562.000000
98381613.000000,169693079.000000
98472500.000000,169675000.000000
Z" /> 
</g>
<g >
</g>
<g style="fill:#000000; fill-opacity:1.0; 
stroke:#000000; stroke-width:1.000000; stroke-opacity:1; 
stroke-linecap:round; stroke-linejoin:round;">
<path style="fill:#000000; fill-opacity:1.0; 
stroke:#000000; stroke-width:1.000000; stroke-opacity:1; 
stroke-linecap:round; stroke-linejoin:round;fill-rule:evenodd;"
d="M 88555000.000000,163030000.000000
88574030.000000,162934329.000000
88628223.000000,162853223.000000
88709329.000000,162799030.000000
88805000.000000,162780000.000000
89605000.000000,162780000.000000
89700671.000000,162799030.000000
89781777.000000,162853223.000000
89835970.000000,162934329.000000
89855000.000000,163030000.000000
89855000.000000,165930000.000000
89835970.000000,166025671.000000
89781777.000000,166106777.000000
89700671.000000,166160970.000000
89605000.000000,166180000.000000
88805000.000000,166180000.000000
88709329.000000,166160970.000000
88628223.000000,166106777.000000
88574030.000000,166025671.000000
88555000.000000,165930000.000000
Z" /> 
<path style="fill:#000000; fill-opacity:1.0; 
stroke:#000000; stroke-width:1.000000; stroke-opacity:1; 
stroke-linecap:round; stroke-linejoin:round;fill-rule:evenodd;"
d="M 93005000.000000,163030000.000000
93024030.000000,162934329.000000
93078223.000000,162853223.000000
93159329.000000,162799030.000000
93255000.000000,162780000.000000
94055000.000000,162780000.000000
94150671.000000,162799030.000000
94231777.000000,162853223.000000
94285970.000000,162934329.000000
94305000.000000,163030000.000000
94305000.000000,165930000.000000
94285970.000000,166025671.000000
94231777.000000,166106777.000000
94150671.000000,166160970.000000
94055000.000000,166180000.000000
93255000.000000,166180000.000000
93159329.000000,166160970.000000
93078223.000000,166106777.000000
93024030.000000,166025671.000000
93005000.000000,165930000.000000
Z" /> 
</g>
<g >
</g>
<g style="fill:#000000; fill-opacity:1.0; 
stroke:#000000; stroke-width:1.000000; stroke-opacity:1; 
stroke-linecap:round; stroke-linejoin:round;">
<path style="fill:#000000; fill-opacity:1.0; 
stroke:#000000; stroke-width:1.000000; stroke-opacity:1; 
stroke-linecap:round; stroke-linejoin:round;fill-rule:evenodd;"
d="M 143444850.000000,107424600.000000
143462929.000000,107333713.000000
143514412.000000,107256662.000000
143591463.000000,107205179.000000
143682350.000000,107187100.000000
144182350.000000,107187100.000000
144273237.000000,107205179.000000
144350288.000000,107256662.000000
144401771.000000,107333713.000000
144419850.000000,107424600.000000
144419850.000000,107899600.000000
144401771.000000,107990487.000000
144350288.000000,108067538.000000
144273237.000000,108119021.000000
144182350.000000,108137100.000000
143682350.000000,108137100.000000
143591463.000000,108119021.000000
143514412.000000,108067538.000000
143462929.000000,107990487.000000
143444850.000000,107899600.000000
Z" /> 
<path style="fill:#000000; fill-opacity:1.0; 
stroke:#000000; stroke-width:1.000000; stroke-opacity:1; 
stroke-linecap:round; stroke-linejoin:round;fill-rule:evenodd;"
d="M 145269850.000000,107424600.000000
145287929.000000,107333713.000000
145339412.000000,107256662.000000
145416463.000000,107205179.000000
145507350.000000,107187100.000000
146007350.000000,107187100.000000
146098237.000000,107205179.000000
146175288.000000,107256662.000000
146226771.000000,107333713.000000
146244850.000000,107424600.000000
146244850.000000,107899600.000000
146226771.000000,107990487.000000
146175288.000000,108067538.000000
146098237.000000,108119021.000000
146007350.000000,108137100.000000
145507350.000000,108137100.000000
145416463.000000,108119021.000000
145339412.000000,108067538.000000
145287929.000000,107990487.000000
145269850.000000,107899600.000000
Z" /> 
</g>
<g >
</g>
<g style="fill:#000000; fill-opacity:1.0; 
stroke:#000000; stroke-width:1.000000; stroke-opacity:1; 
stroke-linecap:round; stroke-linejoin:round;">
<path style="fill:#000000; fill-opacity:1.0; 
stroke:#000000; stroke-width:1.000000; stroke-opacity:1; 
stroke-linecap:round; stroke-linejoin:round;fill-rule:evenodd;"
d="M 137350077.000000,105750551.000000
137350077.000000,105200539.000000
138400089.000000,105200539.000000
138400089.000000,105750551.000000
Z" /> 
<path style="fill:#000000; fill-opacity:1.0; 
stroke:#000000; stroke-width:1.000000; stroke-opacity:1; 
stroke-linecap:round; stroke-linejoin:round;fill-rule:evenodd;"
d="M 135999810.000000,105750551.000000
135999810.000000,105200539.000000
137049822.000000,105200539.000000
137049822.000000,105750551.000000
Z" /> 
<path style="fill:#000000; fill-opacity:1.0; 
stroke:#000000; stroke-width:1.000000; stroke-opacity:1; 
stroke-linecap:round; stroke-linejoin:round;fill-rule:evenodd;"
d="M 135999810.000000,106600437.000000
135999810.000000,106050425.000000
137049822.000000,106050425.000000
137049822.000000,106600437.000000
Z" /> 
<path style="fill:#000000; fill-opacity:1.0; 
stroke:#000000; stroke-width:1.000000; stroke-opacity:1; 
stroke-linecap:round; stroke-linejoin:round;fill-rule:evenodd;"
d="M 137350077.000000,106600437.000000
137350077.000000,106050425.000000
138400089.000000,106050425.000000
138400089.000000,106600437.000000
Z" /> 
<path style="fill:#000000; fill-opacity:1.0; 
stroke:#000000; stroke-width:1.000000; stroke-opacity:1; 
stroke-linecap:round; stroke-linejoin:round;fill-rule:evenodd;"
d="M 138699861.000000,106600487.000000
138699861.000000,105200489.000000
139149873.000000,105200489.000000
139149873.000000,106600487.000000
Z" /> 
<path style="fill:#000000; fill-opacity:1.0; 
stroke:#000000; stroke-width:1.000000; stroke-opacity:1; 
stroke-linecap:round; stroke-linejoin:round;fill-rule:evenodd;"
d="M 135999950.000000,104900449.000000
135999950.000000,104450437.000000
138399948.000000,104450437.000000
138399948.000000,104900449.000000
Z" /> 
<path style="fill:#000000; fill-opacity:1.0; 
stroke:#000000; stroke-width:1.000000; stroke-opacity:1; 
stroke-linecap:round; stroke-linejoin:round;fill-rule:evenodd;"
d="M 135250026.000000,106600487.000000
135250026.000000,105200489.000000
135700038.000000,105200489.000000
135700038.000000,106600487.000000
Z" /> 
<path style="fill:#000000; fill-opacity:1.0; 
stroke:#000000; stroke-width:1.000000; stroke-opacity:1; 
stroke-linecap:round; stroke-linejoin:round;fill-rule:evenodd;"
d="M 135999950.000000,107350538.000000
135999950.000000,106900526.000000
138399948.000000,106900526.000000
138399948.000000,107350538.000000
Z" /> 
</g>
<g >
</g>
<g style="fill:#000000; fill-opacity:1.0; 
stroke:#000000; stroke-width:1.000000; stroke-opacity:1; 
stroke-linecap:round; stroke-linejoin:round;">
<path style="fill:#000000; fill-opacity:1.0; 
stroke:#000000; stroke-width:1.000000; stroke-opacity:1; 
stroke-linecap:round; stroke-linejoin:round;fill-rule:evenodd;"
d="M 88410001.000000,169149999.000000
88410001.000000,167850001.000000
89009999.000000,167850001.000000
89009999.000000,169149999.000000
Z" /> 
<path style="fill:#000000; fill-opacity:1.0; 
stroke:#000000; stroke-width:1.000000; stroke-opacity:1; 
stroke-linecap:round; stroke-linejoin:round;fill-rule:evenodd;"
d="M 89210001.000000,169149999.000000
89210001.000000,167850001.000000
89809999.000000,167850001.000000
89809999.000000,169149999.000000
Z" /> 
<path style="fill:#000000; fill-opacity:1.0; 
stroke:#000000; stroke-width:1.000000; stroke-opacity:1; 
stroke-linecap:round; stroke-linejoin:round;fill-rule:evenodd;"
d="M 90510001.000000,169149999.000000
90510001.000000,167850001.000000
90809999.000000,167850001.000000
90809999.000000,169149999.000000
Z" /> 
<path style="fill:#000000; fill-opacity:1.0; 
stroke:#000000; stroke-width:1.000000; stroke-opacity:1; 
stroke-linecap:round; stroke-linejoin:round;fill-rule:evenodd;"
d="M 91510001.000000,169149999.000000
91510001.000000,167850001.000000
91809999.000000,167850001.000000
91809999.000000,169149999.000000
Z" /> 
<path style="fill:#000000; fill-opacity:1.0; 
stroke:#000000; stroke-width:1.000000; stroke-opacity:1; 
stroke-linecap:round; stroke-linejoin:round;fill-rule:evenodd;"
d="M 92010001.000000,169149999.000000
92010001.000000,167850001.000000
92309999.000000,167850001.000000
92309999.000000,169149999.000000
Z" /> 
<path style="fill:#000000; fill-opacity:1.0; 
stroke:#000000; stroke-width:1.000000; stroke-opacity:1; 
stroke-linecap:round; stroke-linejoin:round;fill-rule:evenodd;"
d="M 93010001.000000,169149999.000000
93010001.000000,167850001.000000
93309999.000000,167850001.000000
93309999.000000,169149999.000000
Z" /> 
<path style="fill:#000000; fill-opacity:1.0; 
stroke:#000000; stroke-width:1.000000; stroke-opacity:1; 
stroke-linecap:round; stroke-linejoin:round;fill-rule:evenodd;"
d="M 94810001.000000,169149999.000000
94810001.000000,167850001.000000
95409999.000000,167850001.000000
95409999.000000,169149999.000000
Z" /> 
<path style="fill:#000000; fill-opacity:1.0; 
stroke:#000000; stroke-width:1.000000; stroke-opacity:1; 
stroke-linecap:round; stroke-linejoin:round;fill-rule:evenodd;"
d="M 94010001.000000,169149999.000000
94010001.000000,167850001.000000
94609999.000000,167850001.000000
94609999.000000,169149999.000000
Z" /> 
<path style="fill:#000000; fill-opacity:1.0; 
stroke:#000000; stroke-width:1.000000; stroke-opacity:1; 
stroke-linecap:round; stroke-linejoin:round;fill-rule:evenodd;"
d="M 93510001.000000,169149999.000000
93510001.000000,167850001.000000
93809999.000000,167850001.000000
93809999.000000,169149999.000000
Z" /> 
<path style="fill:#000000; fill-opacity:1.0; 
stroke:#000000; stroke-width:1.000000; stroke-opacity:1; 
stroke-linecap:round; stroke-linejoin:round;fill-rule:evenodd;"
d="M 92510001.000000,169149999.000000
92510001.000000,167850001.000000
92809999.000000,167850001.000000
92809999.000000,169149999.000000
Z" /> 
<path style="fill:#000000; fill-opacity:1.0; 
stroke:#000000; stroke-width:1.000000; stroke-opacity:1; 
stroke-linecap:round; stroke-linejoin:round;fill-rule:evenodd;"
d="M 91010001.000000,169149999.000000
91010001.000000,167850001.000000
91309999.000000,167850001.000000
91309999.000000,169149999.000000
Z" /> 
<path style="fill:#000000; fill-opacity:1.0; 
stroke:#000000; stroke-width:1.000000; stroke-opacity:1; 
stroke-linecap:round; stroke-linejoin:round;fill-rule:evenodd;"
d="M 90010001.000000,169149999.000000
90010001.000000,167850001.000000
90309999.000000,167850001.000000
90309999.000000,169149999.000000
Z" /> 
</g>
<g >
</g>
<g style="fill:#000000; fill-opacity:1.0; 
stroke:#000000; stroke-width:1.000000; stroke-opacity:1; 
stroke-linecap:round; stroke-linejoin:round;">
<path style="fill:#000000; fill-opacity:1.0; 
stroke:#000000; stroke-width:1.000000; stroke-opacity:1; 
stroke-linecap:round; stroke-linejoin:round;fill-rule:evenodd;"
d="M 107719999.000000,160919999.000000
106220001.000000,160919999.000000
106220001.000000,158920001.000000
107719999.000000,158920001.000000
Z" /> 
<path style="fill:#000000; fill-opacity:1.0; 
stroke:#000000; stroke-width:1.000000; stroke-opacity:1; 
stroke-linecap:round; stroke-linejoin:round;fill-rule:evenodd;"
d="M 110019999.000000,160919999.000000
108520001.000000,160919999.000000
108520001.000000,158920001.000000
110019999.000000,158920001.000000
Z" /> 
<path style="fill:#000000; fill-opacity:1.0; 
stroke:#000000; stroke-width:1.000000; stroke-opacity:1; 
stroke-linecap:round; stroke-linejoin:round;fill-rule:evenodd;"
d="M 112319999.000000,160919999.000000
110820001.000000,160919999.000000
110820001.000000,158920001.000000
112319999.000000,158920001.000000
Z" /> 
<path style="fill:#000000; fill-opacity:1.0; 
stroke:#000000; stroke-width:1.000000; stroke-opacity:1; 
stroke-linecap:round; stroke-linejoin:round;fill-rule:evenodd;"
d="M 111169999.000000,154619999.000000
107370001.000000,154619999.000000
107370001.000000,152620001.000000
111169999.000000,152620001.000000
Z" /> 
</g>
<g >
</g>
<g style="fill:#000000; fill-opacity:1.0; 
stroke:#000000; stroke-width:1.000000; stroke-opacity:1; 
stroke-linecap:round; stroke-linejoin:round;">
<path style="fill:#000000; fill-opacity:1.0; 
stroke:#000000; stroke-width:1.000000; stroke-opacity:1; 
stroke-linecap:round; stroke-linejoin:round;fill-rule:evenodd;"
d="M 114067500.000000,158120000.000000
114158387.000000,158138079.000000
114235438.000000,158189562.000000
114286921.000000,158266613.000000
114305000.000000,158357500.000000
114305000.000000,158957500.000000
114286921.000000,159048387.000000
114235438.000000,159125438.000000
114158387.000000,159176921.000000
114067500.000000,159195000.000000
113592500.000000,159195000.000000
113501613.000000,159176921.000000
113424562.000000,159125438.000000
113373079.000000,159048387.000000
113355000.000000,158957500.000000
113355000.000000,158357500.000000
113373079.000000,158266613.000000
113424562.000000,158189562.000000
113501613.000000,158138079.000000
113592500.000000,158120000.000000
Z" /> 
<path style="fill:#000000; fill-opacity:1.0; 
stroke:#000000; stroke-width:1.000000; stroke-opacity:1; 
stroke-linecap:round; stroke-linejoin:round;fill-rule:evenodd;"
d="M 114067500.000000,159845000.000000
114158387.000000,159863079.000000
114235438.000000,159914562.000000
114286921.000000,159991613.000000
114305000.000000,160082500.000000
114305000.000000,160682500.000000
114286921.000000,160773387.000000
114235438.000000,160850438.000000
114158387.000000,160901921.000000
114067500.000000,160920000.000000
113592500.000000,160920000.000000
113501613.000000,160901921.000000
113424562.000000,160850438.000000
113373079.000000,160773387.000000
113355000.000000,160682500.000000
113355000.000000,160082500.000000
113373079.000000,159991613.000000
113424562.000000,159914562.000000
113501613.000000,159863079.000000
113592500.000000,159845000.000000
Z" /> 
</g>
<g >
</g>
<g style="fill:#000000; fill-opacity:1.0; 
stroke:#000000; stroke-width:1.000000; stroke-opacity:1; 
stroke-linecap:round; stroke-linejoin:round;">
<path style="fill:#000000; fill-opacity:1.0; 
stroke:#000000; stroke-width:1.000000; stroke-opacity:1; 
stroke-linecap:round; stroke-linejoin:round;fill-rule:evenodd;"
d="M 135474850.000000,132159600.000000
135456771.000000,132250487.000000
135405288.000000,132327538.000000
135328237.000000,132379021.000000
135237350.000000,132397100.000000
134737350.000000,132397100.000000
134646463.000000,132379021.000000
134569412.000000,132327538.000000
134517929.000000,132250487.000000
134499850.000000,132159600.000000
134499850.000000,131684600.000000
134517929.000000,131593713.000000
134569412.000000,131516662.000000
134646463.000000,131465179.000000
134737350.000000,131447100.000000
135237350.000000,131447100.000000
135328237.000000,131465179.000000
135405288.000000,131516662.000000
135456771.000000,131593713.000000
135474850.000000,131684600.000000
Z" /> 
<path style="fill:#000000; fill-opacity:1.0; 
stroke:#000000; stroke-width:1.000000; stroke-opacity:1; 
stroke-linecap:round; stroke-linejoin:round;fill-rule:evenodd;"
d="M 133649850.000000,132159600.000000
133631771.000000,132250487.000000
133580288.000000,132327538.000000
133503237.000000,132379021.000000
133412350.000000,132397100.000000
132912350.000000,132397100.000000
132821463.000000,132379021.000000
132744412.000000,132327538.000000
132692929.000000,132250487.000000
132674850.000000,132159600.000000
132674850.000000,131684600.000000
132692929.000000,131593713.000000
132744412.000000,131516662.000000
132821463.000000,131465179.000000
132912350.000000,131447100.000000
133412350.000000,131447100.000000
133503237.000000,131465179.000000
133580288.000000,131516662.000000
133631771.000000,131593713.000000
133649850.000000,131684600.000000
Z" /> 
</g>
<g >
</g>
<g style="fill:#000000; fill-opacity:1.0; 
stroke:#000000; stroke-width:1.000000; stroke-opacity:1; 
stroke-linecap:round; stroke-linejoin:round;">
<path style="fill:#000000; fill-opacity:1.0; 
stroke:#000000; stroke-width:1.000000; stroke-opacity:1; 
stroke-linecap:round; stroke-linejoin:round;fill-rule:evenodd;"
d="M 149954850.000000,107899600.000000
149936771.000000,107990487.000000
149885288.000000,108067538.000000
149808237.000000,108119021.000000
149717350.000000,108137100.000000
149117350.000000,108137100.000000
149026463.000000,108119021.000000
148949412.000000,108067538.000000
148897929.000000,107990487.000000
148879850.000000,107899600.000000
148879850.000000,107424600.000000
148897929.000000,107333713.000000
148949412.000000,107256662.000000
149026463.000000,107205179.000000
149117350.000000,107187100.000000
149717350.000000,107187100.000000
149808237.000000,107205179.000000
149885288.000000,107256662.000000
149936771.000000,107333713.000000
149954850.000000,107424600.000000
Z" /> 
<path style="fill:#000000; fill-opacity:1.0; 
stroke:#000000; stroke-width:1.000000; stroke-opacity:1; 
stroke-linecap:round; stroke-linejoin:round;fill-rule:evenodd;"
d="M 148229850.000000,107899600.000000
148211771.000000,107990487.000000
148160288.000000,108067538.000000
148083237.000000,108119021.000000
147992350.000000,108137100.000000
147392350.000000,108137100.000000
147301463.000000,108119021.000000
147224412.000000,108067538.000000
147172929.000000,107990487.000000
147154850.000000,107899600.000000
147154850.000000,107424600.000000
147172929.000000,107333713.000000
147224412.000000,107256662.000000
147301463.000000,107205179.000000
147392350.000000,107187100.000000
147992350.000000,107187100.000000
148083237.000000,107205179.000000
148160288.000000,107256662.000000
148211771.000000,107333713.000000
148229850.000000,107424600.000000
Z" /> 
</g>
<g >
</g>
<g style="fill:#000000; fill-opacity:1.0; 
stroke:#000000; stroke-width:1.000000; stroke-opacity:1; 
stroke-linecap:round; stroke-linejoin:round;">
<path style="fill:#000000; fill-opacity:1.0; 
stroke:#000000; stroke-width:1.000000; stroke-opacity:1; 
stroke-linecap:round; stroke-linejoin:round;fill-rule:evenodd;"
d="M 139780001.000000,145599999.000000
139780001.000000,144700001.000000
141279999.000000,144700001.000000
141279999.000000,145599999.000000
Z" /> 
<path style="fill:#000000; fill-opacity:1.0; 
stroke:#000000; stroke-width:1.000000; stroke-opacity:1; 
stroke-linecap:round; stroke-linejoin:round;fill-rule:evenodd;"
d="M 135980001.000000,145599999.000000
135980001.000000,144700001.000000
137479999.000000,144700001.000000
137479999.000000,145599999.000000
Z" /> 
<path style="fill:#000000; fill-opacity:1.0; 
stroke:#000000; stroke-width:1.000000; stroke-opacity:1; 
stroke-linecap:round; stroke-linejoin:round;fill-rule:evenodd;"
d="M 135980001.000000,147099999.000000
135980001.000000,146200001.000000
137479999.000000,146200001.000000
137479999.000000,147099999.000000
Z" /> 
<path style="fill:#000000; fill-opacity:1.0; 
stroke:#000000; stroke-width:1.000000; stroke-opacity:1; 
stroke-linecap:round; stroke-linejoin:round;fill-rule:evenodd;"
d="M 139780001.000000,147099999.000000
139780001.000000,146200001.000000
141279999.000000,146200001.000000
141279999.000000,147099999.000000
Z" /> 
</g>
<g >
</g>
<g style="fill:#000000; fill-opacity:1.0; 
stroke:#000000; stroke-width:1.000000; stroke-opacity:1; 
stroke-linecap:round; stroke-linejoin:round;">
<path style="fill:#000000; fill-opacity:1.0; 
stroke:#000000; stroke-width:1.000000; stroke-opacity:1; 
stroke-linecap:round; stroke-linejoin:round;fill-rule:evenodd;"
d="M 128500001.000000,145599999.000000
128500001.000000,144700001.000000
129999999.000000,144700001.000000
129999999.000000,145599999.000000
Z" /> 
<path style="fill:#000000; fill-opacity:1.0; 
stroke:#000000; stroke-width:1.000000; stroke-opacity:1; 
stroke-linecap:round; stroke-linejoin:round;fill-rule:evenodd;"
d="M 132300001.000000,145599999.000000
132300001.000000,144700001.000000
133799999.000000,144700001.000000
133799999.000000,145599999.000000
Z" /> 
<path style="fill:#000000; fill-opacity:1.0; 
stroke:#000000; stroke-width:1.000000; stroke-opacity:1; 
stroke-linecap:round; stroke-linejoin:round;fill-rule:evenodd;"
d="M 128500001.000000,147099999.000000
128500001.000000,146200001.000000
129999999.000000,146200001.000000
129999999.000000,147099999.000000
Z" /> 
<path style="fill:#000000; fill-opacity:1.0; 
stroke:#000000; stroke-width:1.000000; stroke-opacity:1; 
stroke-linecap:round; stroke-linejoin:round;fill-rule:evenodd;"
d="M 132300001.000000,147099999.000000
132300001.000000,146200001.000000
133799999.000000,146200001.000000
133799999.000000,147099999.000000
Z" /> 
</g>
<g >
</g>
<g style="fill:#000000; fill-opacity:1.0; 
stroke:#000000; stroke-width:1.000000; stroke-opacity:1; 
stroke-linecap:round; stroke-linejoin:round;">
<path style="fill:#000000; fill-opacity:1.0; 
stroke:#000000; stroke-width:1.000000; stroke-opacity:1; 
stroke-linecap:round; stroke-linejoin:round;fill-rule:evenodd;"
d="M 159530000.000000,92772500.000000
159548079.000000,92681613.000000
159599562.000000,92604562.000000
159676613.000000,92553079.000000
159767500.000000,92535000.000000
160267500.000000,92535000.000000
160358387.000000,92553079.000000
160435438.000000,92604562.000000
160486921.000000,92681613.000000
160505000.000000,92772500.000000
160505000.000000,93247500.000000
160486921.000000,93338387.000000
160435438.000000,93415438.000000
160358387.000000,93466921.000000
160267500.000000,93485000.000000
159767500.000000,93485000.000000
159676613.000000,93466921.000000
159599562.000000,93415438.000000
159548079.000000,93338387.000000
159530000.000000,93247500.000000
Z" /> 
<path style="fill:#000000; fill-opacity:1.0; 
stroke:#000000; stroke-width:1.000000; stroke-opacity:1; 
stroke-linecap:round; stroke-linejoin:round;fill-rule:evenodd;"
d="M 161355000.000000,92772500.000000
161373079.000000,92681613.000000
161424562.000000,92604562.000000
161501613.000000,92553079.000000
161592500.000000,92535000.000000
162092500.000000,92535000.000000
162183387.000000,92553079.000000
162260438.000000,92604562.000000
162311921.000000,92681613.000000
162330000.000000,92772500.000000
162330000.000000,93247500.000000
162311921.000000,93338387.000000
162260438.000000,93415438.000000
162183387.000000,93466921.000000
162092500.000000,93485000.000000
161592500.000000,93485000.000000
161501613.000000,93466921.000000
161424562.000000,93415438.000000
161373079.000000,93338387.000000
161355000.000000,93247500.000000
Z" /> 
</g>
<g >
</g>
<g >
</g>
<g style="fill:#000000; fill-opacity:1.0; 
stroke:#000000; stroke-width:1.000000; stroke-opacity:1; 
stroke-linecap:round; stroke-linejoin:round;">
<path style="fill:#000000; fill-opacity:1.0; 
stroke:#000000; stroke-width:1.000000; stroke-opacity:1; 
stroke-linecap:round; stroke-linejoin:round;fill-rule:evenodd;"
d="M 113592500.000000,155420000.000000
113501613.000000,155401921.000000
113424562.000000,155350438.000000
113373079.000000,155273387.000000
113355000.000000,155182500.000000
113355000.000000,154582500.000000
113373079.000000,154491613.000000
113424562.000000,154414562.000000
113501613.000000,154363079.000000
113592500.000000,154345000.000000
114067500.000000,154345000.000000
114158387.000000,154363079.000000
114235438.000000,154414562.000000
114286921.000000,154491613.000000
114305000.000000,154582500.000000
114305000.000000,155182500.000000
114286921.000000,155273387.000000
114235438.000000,155350438.000000
114158387.000000,155401921.000000
114067500.000000,155420000.000000
Z" /> 
<path style="fill:#000000; fill-opacity:1.0; 
stroke:#000000; stroke-width:1.000000; stroke-opacity:1; 
stroke-linecap:round; stroke-linejoin:round;fill-rule:evenodd;"
d="M 113592500.000000,153695000.000000
113501613.000000,153676921.000000
113424562.000000,153625438.000000
113373079.000000,153548387.000000
113355000.000000,153457500.000000
113355000.000000,152857500.000000
113373079.000000,152766613.000000
113424562.000000,152689562.000000
113501613.000000,152638079.000000
113592500.000000,152620000.000000
114067500.000000,152620000.000000
114158387.000000,152638079.000000
114235438.000000,152689562.000000
114286921.000000,152766613.000000
114305000.000000,152857500.000000
114305000.000000,153457500.000000
114286921.000000,153548387.000000
114235438.000000,153625438.000000
114158387.000000,153676921.000000
114067500.000000,153695000.000000
Z" /> 
</g>
<g >
</g>
<g style="fill:#000000; fill-opacity:1.0; 
stroke:#000000; stroke-width:1.000000; stroke-opacity:1; 
stroke-linecap:round; stroke-linejoin:round;">
<path style="fill:#000000; fill-opacity:1.0; 
stroke:#000000; stroke-width:1.000000; stroke-opacity:1; 
stroke-linecap:round; stroke-linejoin:round;fill-rule:evenodd;"
d="M 149362500.000000,94886700.000000
149271613.000000,94868621.000000
149194562.000000,94817138.000000
149143079.000000,94740087.000000
149125000.000000,94649200.000000
149125000.000000,94049200.000000
149143079.000000,93958313.000000
149194562.000000,93881262.000000
149271613.000000,93829779.000000
149362500.000000,93811700.000000
149837500.000000,93811700.000000
149928387.000000,93829779.000000
150005438.000000,93881262.000000
150056921.000000,93958313.000000
150075000.000000,94049200.000000
150075000.000000,94649200.000000
150056921.000000,94740087.000000
150005438.000000,94817138.000000
149928387.000000,94868621.000000
149837500.000000,94886700.000000
Z" /> 
<path style="fill:#000000; fill-opacity:1.0; 
stroke:#000000; stroke-width:1.000000; stroke-opacity:1; 
stroke-linecap:round; stroke-linejoin:round;fill-rule:evenodd;"
d="M 149362500.000000,93161700.000000
149271613.000000,93143621.000000
149194562.000000,93092138.000000
149143079.000000,93015087.000000
149125000.000000,92924200.000000
149125000.000000,92324200.000000
149143079.000000,92233313.000000
149194562.000000,92156262.000000
149271613.000000,92104779.000000
149362500.000000,92086700.000000
149837500.000000,92086700.000000
149928387.000000,92104779.000000
150005438.000000,92156262.000000
150056921.000000,92233313.000000
150075000.000000,92324200.000000
150075000.000000,92924200.000000
150056921.000000,93015087.000000
150005438.000000,93092138.000000
149928387.000000,93143621.000000
149837500.000000,93161700.000000
Z" /> 
</g>
<g >
</g>
<g style="fill:#000000; fill-opacity:1.0; 
stroke:#000000; stroke-width:1.000000; stroke-opacity:1; 
stroke-linecap:round; stroke-linejoin:round;">
<path style="fill:#000000; fill-opacity:1.0; 
stroke:#000000; stroke-width:1.000000; stroke-opacity:1; 
stroke-linecap:round; stroke-linejoin:round;fill-rule:evenodd;"
d="M 159530000.000000,90772500.000000
159548079.000000,90681613.000000
159599562.000000,90604562.000000
159676613.000000,90553079.000000
159767500.000000,90535000.000000
160267500.000000,90535000.000000
160358387.000000,90553079.000000
160435438.000000,90604562.000000
160486921.000000,90681613.000000
160505000.000000,90772500.000000
160505000.000000,91247500.000000
160486921.000000,91338387.000000
160435438.000000,91415438.000000
160358387.000000,91466921.000000
160267500.000000,91485000.000000
159767500.000000,91485000.000000
159676613.000000,91466921.000000
159599562.000000,91415438.000000
159548079.000000,91338387.000000
159530000.000000,91247500.000000
Z" /> 
<path style="fill:#000000; fill-opacity:1.0; 
stroke:#000000; stroke-width:1.000000; stroke-opacity:1; 
stroke-linecap:round; stroke-linejoin:round;fill-rule:evenodd;"
d="M 161355000.000000,90772500.000000
161373079.000000,90681613.000000
161424562.000000,90604562.000000
161501613.000000,90553079.000000
161592500.000000,90535000.000000
162092500.000000,90535000.000000
162183387.000000,90553079.000000
162260438.000000,90604562.000000
162311921.000000,90681613.000000
162330000.000000,90772500.000000
162330000.000000,91247500.000000
162311921.000000,91338387.000000
162260438.000000,91415438.000000
162183387.000000,91466921.000000
162092500.000000,91485000.000000
161592500.000000,91485000.000000
161501613.000000,91466921.000000
161424562.000000,91415438.000000
161373079.000000,91338387.000000
161355000.000000,91247500.000000
Z" /> 
</g>
<g >
</g>
<g style="fill:#000000; fill-opacity:1.0; 
stroke:#000000; stroke-width:1.000000; stroke-opacity:1; 
stroke-linecap:round; stroke-linejoin:round;">
<path style="fill:#000000; fill-opacity:1.0; 
stroke:#000000; stroke-width:1.000000; stroke-opacity:1; 
stroke-linecap:round; stroke-linejoin:round;fill-rule:evenodd;"
d="M 99710000.000000,165250000.000000
99614329.000000,165230970.000000
99533223.000000,165176777.000000
99479030.000000,165095671.000000
99460000.000000,165000000.000000
99460000.000000,162000000.000000
99479030.000000,161904329.000000
99533223.000000,161823223.000000
99614329.000000,161769030.000000
99710000.000000,161750000.000000
100810000.000000,161750000.000000
100905671.000000,161769030.000000
100986777.000000,161823223.000000
101040970.000000,161904329.000000
101060000.000000,162000000.000000
101060000.000000,165000000.000000
101040970.000000,165095671.000000
100986777.000000,165176777.000000
100905671.000000,165230970.000000
100810000.000000,165250000.000000
Z" /> 
<path style="fill:#000000; fill-opacity:1.0; 
stroke:#000000; stroke-width:1.000000; stroke-opacity:1; 
stroke-linecap:round; stroke-linejoin:round;fill-rule:evenodd;"
d="M 99710000.000000,159650000.000000
99614329.000000,159630970.000000
99533223.000000,159576777.000000
99479030.000000,159495671.000000
99460000.000000,159400000.000000
99460000.000000,156400000.000000
99479030.000000,156304329.000000
99533223.000000,156223223.000000
99614329.000000,156169030.000000
99710000.000000,156150000.000000
100810000.000000,156150000.000000
100905671.000000,156169030.000000
100986777.000000,156223223.000000
101040970.000000,156304329.000000
101060000.000000,156400000.000000
101060000.000000,159400000.000000
101040970.000000,159495671.000000
100986777.000000,159576777.000000
100905671.000000,159630970.000000
100810000.000000,159650000.000000
Z" /> 
</g>
<g >
</g>
<g >
</g>
<g >
</g>
<g >
</g>
<g >
</g>
<g >
</g>
</g> 
</svg>
