<?xml version="1.0" encoding="UTF-8" standalone="no"?>
<!DOCTYPE svg PUBLIC "-//W3C//DTD SVG 1.1//EN" "http://www.w3.org/Graphics/SVG/1.1/DTD/svg11.dtd">
<svg width="100%" height="100%" viewBox="0 0 842 597" version="1.1" xmlns="http://www.w3.org/2000/svg" xmlns:xlink="http://www.w3.org/1999/xlink" xml:space="preserve" xmlns:serif="http://www.serif.com/" style="fill-rule:evenodd;clip-rule:evenodd;stroke-linecap:round;stroke-linejoin:round;">
    <g>
        <path d="M400.412,302.557L400.412,303.974" style="fill:none;fill-rule:nonzero;stroke:black;stroke-width:0.03px;"/>
        <path d="M400.412,303.974L399.561,303.974" style="fill:none;fill-rule:nonzero;stroke:black;stroke-width:0.03px;"/>
        <path d="M399.561,303.974L399.561,302.557" style="fill:none;fill-rule:nonzero;stroke:black;stroke-width:0.03px;"/>
        <path d="M399.561,302.557L400.412,302.557" style="fill:none;fill-rule:nonzero;stroke:black;stroke-width:0.03px;"/>
    </g>
    <g>
        <rect x="399.561" y="302.557" width="0.85" height="1.417" style="stroke:black;stroke-width:0.03px;"/>
    </g>
    <g>
        <path d="M402.254,302.557L402.254,303.974" style="fill:none;fill-rule:nonzero;stroke:black;stroke-width:0.03px;"/>
        <path d="M402.254,303.974L401.404,303.974" style="fill:none;fill-rule:nonzero;stroke:black;stroke-width:0.03px;"/>
        <path d="M401.404,303.974L401.404,302.557" style="fill:none;fill-rule:nonzero;stroke:black;stroke-width:0.03px;"/>
        <path d="M401.404,302.557L402.254,302.557" style="fill:none;fill-rule:nonzero;stroke:black;stroke-width:0.03px;"/>
    </g>
    <g>
        <rect x="401.404" y="302.557" width="0.85" height="1.417" style="stroke:black;stroke-width:0.03px;"/>
    </g>
    <g>
        <path d="M404.097,302.557L404.097,303.974" style="fill:none;fill-rule:nonzero;stroke:black;stroke-width:0.03px;"/>
        <path d="M404.097,303.974L403.246,303.974" style="fill:none;fill-rule:nonzero;stroke:black;stroke-width:0.03px;"/>
        <path d="M403.246,303.974L403.246,302.557" style="fill:none;fill-rule:nonzero;stroke:black;stroke-width:0.03px;"/>
        <path d="M403.246,302.557L404.097,302.557" style="fill:none;fill-rule:nonzero;stroke:black;stroke-width:0.03px;"/>
    </g>
    <g>
        <rect x="403.246" y="302.557" width="0.85" height="1.417" style="stroke:black;stroke-width:0.03px;"/>
    </g>
    <g>
        <path d="M402.254,296.463L402.254,297.88" style="fill:none;fill-rule:nonzero;stroke:black;stroke-width:0.03px;"/>
        <path d="M402.254,297.88L401.404,297.88" style="fill:none;fill-rule:nonzero;stroke:black;stroke-width:0.03px;"/>
        <path d="M401.404,297.88L401.404,296.463" style="fill:none;fill-rule:nonzero;stroke:black;stroke-width:0.03px;"/>
        <path d="M401.404,296.463L402.254,296.463" style="fill:none;fill-rule:nonzero;stroke:black;stroke-width:0.03px;"/>
    </g>
    <g>
        <rect x="401.404" y="296.463" width="0.85" height="1.417" style="stroke:black;stroke-width:0.03px;"/>
    </g>
    <g>
        <path d="M400.412,296.463L400.412,297.88" style="fill:none;fill-rule:nonzero;stroke:black;stroke-width:0.03px;"/>
        <path d="M400.412,297.88L399.561,297.88" style="fill:none;fill-rule:nonzero;stroke:black;stroke-width:0.03px;"/>
        <path d="M399.561,297.88L399.561,296.463" style="fill:none;fill-rule:nonzero;stroke:black;stroke-width:0.03px;"/>
        <path d="M399.561,296.463L400.412,296.463" style="fill:none;fill-rule:nonzero;stroke:black;stroke-width:0.03px;"/>
    </g>
    <g>
        <rect x="399.561" y="296.463" width="0.85" height="1.417" style="stroke:black;stroke-width:0.03px;"/>
    </g>
    <g>
        <path d="M404.097,296.463L404.097,297.88" style="fill:none;fill-rule:nonzero;stroke:black;stroke-width:0.03px;"/>
        <path d="M404.097,297.88L403.246,297.88" style="fill:none;fill-rule:nonzero;stroke:black;stroke-width:0.03px;"/>
        <path d="M403.246,297.88L403.246,296.463" style="fill:none;fill-rule:nonzero;stroke:black;stroke-width:0.03px;"/>
        <path d="M403.246,296.463L404.097,296.463" style="fill:none;fill-rule:nonzero;stroke:black;stroke-width:0.03px;"/>
    </g>
    <g>
        <rect x="403.246" y="296.463" width="0.85" height="1.417" style="stroke:black;stroke-width:0.03px;"/>
        <g>
            <path d="M279.467,416.855L279.724,416.906L279.943,417.052L280.089,417.27L280.14,417.528L280.14,418.945L280.089,419.203L279.943,419.421L279.724,419.567L279.467,419.619L278.12,419.619L277.863,419.567L277.644,419.421L277.498,419.203L277.447,418.945L277.447,417.528L277.498,417.27L277.644,417.052L277.863,416.906L278.12,416.855L279.467,416.855Z"/>
            <path d="M279.467,422.028L279.724,422.079L279.943,422.225L280.089,422.444L280.14,422.701L280.14,424.119L280.089,424.376L279.943,424.595L279.724,424.741L279.467,424.792L278.12,424.792L277.863,424.741L277.644,424.595L277.498,424.376L277.447,424.119L277.447,422.701L277.498,422.444L277.644,422.225L277.863,422.079L278.12,422.028L279.467,422.028Z"/>
        </g>
        <g>
            <rect x="348.564" y="391.22" width="5.669" height="4.252"/>
            <rect x="348.564" y="397.74" width="5.669" height="4.252"/>
            <rect x="348.564" y="404.26" width="5.669" height="4.252"/>
            <rect x="366.422" y="394.48" width="5.669" height="10.772"/>
        </g>
        <g>
            <rect x="429.282" y="310.903" width="2.551" height="5.669"/>
            <rect x="425.682" y="310.903" width="2.551" height="5.669"/>
            <rect x="422.082" y="310.903" width="2.551" height="5.669"/>
            <rect x="418.482" y="310.903" width="2.551" height="5.669"/>
            <rect x="414.882" y="310.903" width="2.551" height="5.669"/>
            <rect x="411.282" y="310.903" width="2.551" height="5.669"/>
            <rect x="407.682" y="310.903" width="2.551" height="5.669"/>
            <rect x="404.082" y="310.903" width="2.551" height="5.669"/>
            <rect x="400.482" y="310.903" width="2.551" height="5.669"/>
            <rect x="396.882" y="310.903" width="2.551" height="5.669"/>
            <rect x="393.282" y="310.903" width="2.551" height="5.669"/>
            <rect x="389.682" y="310.903" width="2.551" height="5.669"/>
            <rect x="386.082" y="310.903" width="2.551" height="5.669"/>
            <rect x="382.482" y="310.903" width="2.551" height="5.669"/>
            <rect x="378.088" y="320.357" width="5.669" height="2.551"/>
            <rect x="378.088" y="323.957" width="5.669" height="2.551"/>
            <rect x="378.088" y="327.557" width="5.669" height="2.551"/>
            <rect x="378.088" y="331.157" width="5.669" height="2.551"/>
            <rect x="378.088" y="334.757" width="5.669" height="2.551"/>
            <rect x="378.088" y="338.357" width="5.669" height="2.551"/>
            <rect x="378.088" y="341.957" width="5.669" height="2.551"/>
            <rect x="378.088" y="345.557" width="5.669" height="2.551"/>
            <rect x="378.088" y="349.157" width="5.669" height="2.551"/>
            <rect x="378.088" y="352.757" width="5.669" height="2.551"/>
            <rect x="382.482" y="359.092" width="2.551" height="5.669"/>
            <rect x="386.082" y="359.092" width="2.551" height="5.669"/>
            <rect x="389.682" y="359.092" width="2.551" height="5.669"/>
            <rect x="393.282" y="359.092" width="2.551" height="5.669"/>
            <rect x="396.882" y="359.092" width="2.551" height="5.669"/>
            <rect x="400.482" y="359.092" width="2.551" height="5.669"/>
            <rect x="404.082" y="359.092" width="2.551" height="5.669"/>
            <rect x="407.682" y="359.092" width="2.551" height="5.669"/>
            <rect x="411.282" y="359.092" width="2.551" height="5.669"/>
            <rect x="414.882" y="359.092" width="2.551" height="5.669"/>
            <rect x="418.482" y="359.092" width="2.551" height="5.669"/>
            <rect x="422.082" y="359.092" width="2.551" height="5.669"/>
            <rect x="425.682" y="359.092" width="2.551" height="5.669"/>
            <rect x="429.282" y="359.092" width="2.551" height="5.669"/>
            <rect x="412.614" y="327.911" width="3.77" height="3.77"/>
            <rect x="412.614" y="333.113" width="3.77" height="3.77"/>
            <rect x="412.614" y="338.314" width="3.77" height="3.77"/>
            <rect x="407.413" y="327.911" width="3.77" height="3.77"/>
            <rect x="407.413" y="333.113" width="3.77" height="3.77"/>
            <rect x="407.413" y="338.314" width="3.77" height="3.77"/>
            <rect x="402.211" y="327.911" width="3.77" height="3.77"/>
            <rect x="402.211" y="333.113" width="3.77" height="3.77"/>
            <rect x="402.211" y="338.314" width="3.77" height="3.77"/>
        </g>
        <g>
            <path d="M359.772,421.149L359.721,421.407L359.575,421.625L359.357,421.771L359.099,421.822L357.398,421.822L357.141,421.771L356.922,421.625L356.776,421.407L356.725,421.149L356.725,419.803L356.776,419.545L356.922,419.327L357.141,419.181L357.398,419.13L359.099,419.13L359.357,419.181L359.575,419.327L359.721,419.545L359.772,419.803L359.772,421.149Z"/>
            <path d="M354.883,421.149L354.831,421.407L354.685,421.625L354.467,421.771L354.209,421.822L352.509,421.822L352.251,421.771L352.033,421.625L351.887,421.407L351.835,421.149L351.835,419.803L351.887,419.545L352.033,419.327L352.251,419.181L352.509,419.13L354.209,419.13L354.467,419.181L354.685,419.327L354.831,419.545L354.883,419.803L354.883,421.149Z"/>
        </g>
        <g>
            <path d="M402.236,414.504L402.184,414.762L402.038,414.98L401.82,415.126L401.562,415.178L400.145,415.178L399.887,415.126L399.669,414.98L399.523,414.762L399.472,414.504L399.472,413.158L399.523,412.9L399.669,412.682L399.887,412.536L400.145,412.485L401.562,412.485L401.82,412.536L402.038,412.682L402.184,412.9L402.236,413.158L402.236,414.504Z"/>
            <path d="M397.062,414.504L397.011,414.762L396.865,414.98L396.647,415.126L396.389,415.178L394.972,415.178L394.714,415.126L394.496,414.98L394.35,414.762L394.299,414.504L394.299,413.158L394.35,412.9L394.496,412.682L394.714,412.536L394.972,412.485L396.389,412.485L396.647,412.536L396.865,412.682L397.011,412.9L397.062,413.158L397.062,414.504Z"/>
        </g>
        <g>
            <path d="M338.396,462.147L338.345,462.405L338.199,462.623L337.98,462.769L337.723,462.821L336.022,462.821L335.764,462.769L335.546,462.623L335.4,462.405L335.349,462.147L335.349,460.801L335.4,460.543L335.546,460.325L335.764,460.179L336.022,460.128L337.723,460.128L337.98,460.179L338.199,460.325L338.345,460.543L338.396,460.801L338.396,462.147Z"/>
            <path d="M333.506,462.147L333.455,462.405L333.309,462.623L333.091,462.769L332.833,462.821L331.132,462.821L330.875,462.769L330.656,462.623L330.51,462.405L330.459,462.147L330.459,460.801L330.51,460.543L330.656,460.325L330.875,460.179L331.132,460.128L332.833,460.128L333.091,460.179L333.309,460.325L333.455,460.543L333.506,460.801L333.506,462.147Z"/>
        </g>
        <g>
            <path d="M319.008,460.801L319.059,460.543L319.205,460.325L319.424,460.179L319.681,460.128L321.098,460.128L321.356,460.179L321.575,460.325L321.72,460.543L321.772,460.801L321.772,462.147L321.72,462.405L321.575,462.623L321.356,462.769L321.098,462.821L319.681,462.821L319.424,462.769L319.205,462.623L319.059,462.405L319.008,462.147L319.008,460.801Z"/>
            <path d="M324.181,460.801L324.232,460.543L324.378,460.325L324.597,460.179L324.854,460.128L326.272,460.128L326.529,460.179L326.748,460.325L326.894,460.543L326.945,460.801L326.945,462.147L326.894,462.405L326.748,462.623L326.529,462.769L326.272,462.821L324.854,462.821L324.597,462.769L324.378,462.623L324.232,462.405L324.181,462.147L324.181,460.801Z"/>
        </g>
        <g>
            <path d="M400.477,410.443L400.314,410.411L400.176,410.319L400.084,410.181L400.052,410.018L400.052,406.687L400.084,406.524L400.176,406.387L400.314,406.294L400.477,406.262L401.327,406.262L401.49,406.294L401.628,406.387L401.72,406.524L401.753,406.687L401.753,410.018L401.72,410.181L401.628,410.319L401.49,410.411L401.327,410.443L400.477,410.443Z"/>
            <path d="M405.863,410.443L405.7,410.411L405.562,410.319L405.47,410.181L405.438,410.018L405.438,406.687L405.47,406.524L405.562,406.387L405.7,406.294L405.863,406.262L406.713,406.262L406.876,406.294L407.014,406.387L407.106,406.524L407.138,406.687L407.138,410.018L407.106,410.181L407.014,410.319L406.876,410.411L406.713,410.443L405.863,410.443Z"/>
            <path d="M403.17,405.128L403.007,405.096L402.869,405.004L402.777,404.866L402.745,404.703L402.745,401.372L402.777,401.21L402.869,401.072L403.007,400.979L403.17,400.947L404.02,400.947L404.183,400.979L404.321,401.072L404.413,401.21L404.446,401.372L404.446,404.703L404.413,404.866L404.321,405.004L404.183,405.096L404.02,405.128L403.17,405.128Z"/>
        </g>
        <g>
            <path d="M351.835,424.123L351.887,423.865L352.033,423.647L352.251,423.501L352.509,423.45L354.209,423.45L354.467,423.501L354.685,423.647L354.831,423.865L354.883,424.123L354.883,425.469L354.831,425.727L354.685,425.945L354.467,426.091L354.209,426.142L352.509,426.142L352.251,426.091L352.033,425.945L351.887,425.727L351.835,425.469L351.835,424.123Z"/>
            <path d="M356.725,424.123L356.776,423.865L356.922,423.647L357.141,423.501L357.398,423.45L359.099,423.45L359.357,423.501L359.575,423.647L359.721,423.865L359.772,424.123L359.772,425.469L359.721,425.727L359.575,425.945L359.357,426.091L359.099,426.142L357.398,426.142L357.141,426.091L356.922,425.945L356.776,425.727L356.725,425.469L356.725,424.123Z"/>
        </g>
        <g>
            <path d="M423.127,305.623L423.178,305.366L423.324,305.147L423.542,305.001L423.8,304.95L425.501,304.95L425.758,305.001L425.977,305.147L426.123,305.366L426.174,305.623L426.174,306.97L426.123,307.227L425.977,307.446L425.758,307.592L425.501,307.643L423.8,307.643L423.542,307.592L423.324,307.446L423.178,307.227L423.127,306.97L423.127,305.623Z"/>
            <path d="M428.016,305.623L428.068,305.366L428.214,305.147L428.432,305.001L428.69,304.95L430.39,304.95L430.648,305.001L430.867,305.147L431.012,305.366L431.064,305.623L431.064,306.97L431.012,307.227L430.867,307.446L430.648,307.592L430.39,307.643L428.69,307.643L428.432,307.592L428.214,307.446L428.068,307.227L428.016,306.97L428.016,305.623Z"/>
        </g>
        <g>
            <rect x="407.603" y="263.783" width="4.752" height="1.008"/>
            <rect x="407.603" y="261.941" width="4.752" height="1.008"/>
            <rect x="407.603" y="260.098" width="4.752" height="1.008"/>
            <rect x="407.603" y="258.255" width="4.752" height="1.008"/>
            <rect x="407.603" y="256.413" width="4.752" height="1.008"/>
            <rect x="407.603" y="254.57" width="4.752" height="1.008"/>
            <rect x="407.603" y="252.728" width="4.752" height="1.008"/>
            <rect x="391.619" y="252.728" width="4.752" height="1.008"/>
            <rect x="391.619" y="254.57" width="4.752" height="1.008"/>
            <rect x="391.619" y="256.413" width="4.752" height="1.008"/>
            <rect x="391.619" y="258.255" width="4.752" height="1.008"/>
            <rect x="391.619" y="260.098" width="4.752" height="1.008"/>
            <rect x="391.619" y="261.941" width="4.752" height="1.008"/>
            <rect x="391.619" y="263.783" width="4.752" height="1.008"/>
        </g>
        <g>
            <path d="M438.271,256.293L438.325,256.022L438.478,255.792L438.708,255.639L438.979,255.585L447.483,255.585L447.755,255.639L447.985,255.792L448.138,256.022L448.192,256.293L448.192,259.411L448.138,259.683L447.985,259.913L447.755,260.066L447.483,260.12L438.979,260.12L438.708,260.066L438.478,259.913L438.325,259.683L438.271,259.411L438.271,256.293Z"/>
            <path d="M454.145,256.293L454.199,256.022L454.352,255.792L454.582,255.639L454.853,255.585L463.357,255.585L463.629,255.639L463.859,255.792L464.012,256.022L464.066,256.293L464.066,259.411L464.012,259.683L463.859,259.913L463.629,260.066L463.357,260.12L454.853,260.12L454.582,260.066L454.352,259.913L454.199,259.683L454.145,259.411L454.145,256.293Z"/>
        </g>
        <g>
            <path d="M390.253,410.515L390.09,410.483L389.952,410.391L389.86,410.253L389.828,410.09L389.828,406.759L389.86,406.596L389.952,406.459L390.09,406.366L390.253,406.334L391.103,406.334L391.266,406.366L391.404,406.459L391.496,406.596L391.529,406.759L391.529,410.09L391.496,410.253L391.404,410.391L391.266,410.483L391.103,410.515L390.253,410.515Z"/>
            <path d="M395.639,410.515L395.476,410.483L395.338,410.391L395.246,410.253L395.214,410.09L395.214,406.759L395.246,406.596L395.338,406.459L395.476,406.366L395.639,406.334L396.489,406.334L396.652,406.366L396.79,406.459L396.882,406.596L396.914,406.759L396.914,410.09L396.882,410.253L396.79,410.391L396.652,410.483L396.489,410.515L395.639,410.515Z"/>
            <path d="M392.946,405.2L392.783,405.168L392.645,405.076L392.553,404.938L392.521,404.775L392.521,401.444L392.553,401.282L392.645,401.144L392.783,401.051L392.946,401.019L393.796,401.019L393.959,401.051L394.097,401.144L394.189,401.282L394.222,401.444L394.222,404.775L394.189,404.938L394.097,405.076L393.959,405.168L393.796,405.2L392.946,405.2Z"/>
        </g>
        <g>
            <path d="M364.287,388.487L364.124,388.455L363.986,388.363L363.894,388.225L363.861,388.062L363.861,384.731L363.894,384.568L363.986,384.43L364.124,384.338L364.287,384.306L365.137,384.306L365.3,384.338L365.438,384.43L365.53,384.568L365.562,384.731L365.562,388.062L365.53,388.225L365.438,388.363L365.3,388.455L365.137,388.487L364.287,388.487Z"/>
            <path d="M369.672,388.487L369.51,388.455L369.372,388.363L369.28,388.225L369.247,388.062L369.247,384.731L369.28,384.568L369.372,384.43L369.51,384.338L369.672,384.306L370.523,384.306L370.685,384.338L370.823,384.43L370.916,384.568L370.948,384.731L370.948,388.062L370.916,388.225L370.823,388.363L370.685,388.455L370.523,388.487L369.672,388.487Z"/>
            <path d="M366.979,383.172L366.817,383.14L366.679,383.048L366.587,382.91L366.554,382.747L366.554,379.416L366.587,379.253L366.679,379.116L366.817,379.023L366.979,378.991L367.83,378.991L367.993,379.023L368.131,379.116L368.223,379.253L368.255,379.416L368.255,382.747L368.223,382.91L368.131,383.048L367.993,383.14L367.83,383.172L366.979,383.172Z"/>
        </g>
        <g>
            <path d="M284.541,416.876L284.799,416.927L285.017,417.073L285.163,417.292L285.214,417.549L285.214,418.967L285.163,419.224L285.017,419.443L284.799,419.589L284.541,419.64L283.194,419.64L282.937,419.589L282.718,419.443L282.572,419.224L282.521,418.967L282.521,417.549L282.572,417.292L282.718,417.073L282.937,416.927L283.194,416.876L284.541,416.876Z"/>
            <path d="M284.541,422.049L284.799,422.101L285.017,422.246L285.163,422.465L285.214,422.722L285.214,424.14L285.163,424.397L285.017,424.616L284.799,424.762L284.541,424.813L283.194,424.813L282.937,424.762L282.718,424.616L282.572,424.397L282.521,424.14L282.521,422.722L282.572,422.465L282.718,422.246L282.937,422.101L283.194,422.049L284.541,422.049Z"/>
        </g>
        <g>
            <path d="M288.417,417.528L288.471,417.257L288.625,417.027L288.855,416.873L289.126,416.819L291.394,416.819L291.665,416.873L291.895,417.027L292.048,417.257L292.102,417.528L292.102,425.748L292.048,426.02L291.895,426.25L291.665,426.403L291.394,426.457L289.126,426.457L288.855,426.403L288.625,426.25L288.471,426.02L288.417,425.748L288.417,417.528Z"/>
            <path d="M301.031,417.528L301.085,417.257L301.239,417.027L301.469,416.873L301.74,416.819L304.008,416.819L304.279,416.873L304.509,417.027L304.663,417.257L304.716,417.528L304.716,425.748L304.663,426.02L304.509,426.25L304.279,426.403L304.008,426.457L301.74,426.457L301.469,426.403L301.239,426.25L301.085,426.02L301.031,425.748L301.031,417.528Z"/>
        </g>
        <g>
            <path d="M408.395,304.471L408.137,304.419L407.919,304.273L407.773,304.055L407.722,303.797L407.722,302.38L407.773,302.122L407.919,301.904L408.137,301.758L408.395,301.707L409.741,301.707L409.999,301.758L410.217,301.904L410.363,302.122L410.414,302.38L410.414,303.797L410.363,304.055L410.217,304.273L409.999,304.419L409.741,304.471L408.395,304.471Z"/>
            <path d="M408.395,299.297L408.137,299.246L407.919,299.1L407.773,298.882L407.722,298.624L407.722,297.207L407.773,296.949L407.919,296.731L408.137,296.585L408.395,296.534L409.741,296.534L409.999,296.585L410.217,296.731L410.363,296.949L410.414,297.207L410.414,298.624L410.363,298.882L410.217,299.1L409.999,299.246L409.741,299.297L408.395,299.297Z"/>
        </g>
        <g>
            <rect x="248.746" y="447.852" width="1.701" height="3.685"/>
            <rect x="251.014" y="447.852" width="1.701" height="3.685"/>
            <rect x="254.699" y="447.852" width="0.85" height="3.685"/>
            <rect x="257.534" y="447.852" width="0.85" height="3.685"/>
            <rect x="258.951" y="447.852" width="0.85" height="3.685"/>
            <rect x="261.786" y="447.852" width="0.85" height="3.685"/>
            <rect x="266.888" y="447.852" width="1.701" height="3.685"/>
            <rect x="264.62" y="447.852" width="1.701" height="3.685"/>
            <rect x="263.203" y="447.852" width="0.85" height="3.685"/>
            <rect x="260.368" y="447.852" width="0.85" height="3.685"/>
            <rect x="256.116" y="447.852" width="0.85" height="3.685"/>
            <rect x="253.282" y="447.852" width="0.85" height="3.685"/>
        </g>
        <g>
            <rect x="365.902" y="431.333" width="2.551" height="2.551"/>
            <rect x="369.02" y="431.333" width="2.551" height="2.551"/>
            <rect x="372.139" y="431.333" width="2.551" height="2.551"/>
            <rect x="372.139" y="434.451" width="2.551" height="2.551"/>
            <rect x="372.139" y="428.215" width="2.551" height="2.551"/>
            <rect x="365.902" y="428.215" width="2.551" height="2.551"/>
            <rect x="369.02" y="428.215" width="2.551" height="2.551"/>
            <rect x="365.902" y="434.451" width="2.551" height="2.551"/>
            <rect x="369.02" y="434.451" width="2.551" height="2.551"/>
            <rect x="374.194" y="424.53" width="0.709" height="2.551"/>
            <rect x="372.776" y="424.53" width="0.709" height="2.551"/>
            <rect x="371.359" y="424.53" width="0.709" height="2.551"/>
            <rect x="369.942" y="424.53" width="0.709" height="2.551"/>
            <rect x="368.524" y="424.53" width="0.709" height="2.551"/>
            <rect x="367.107" y="424.53" width="0.709" height="2.551"/>
            <rect x="365.69" y="424.53" width="0.709" height="2.551"/>
            <rect x="362.217" y="428.002" width="2.551" height="0.709"/>
            <rect x="362.217" y="429.419" width="2.551" height="0.709"/>
            <rect x="362.217" y="430.837" width="2.551" height="0.709"/>
            <rect x="362.217" y="432.254" width="2.551" height="0.709"/>
            <rect x="362.217" y="433.671" width="2.551" height="0.709"/>
            <rect x="362.217" y="435.089" width="2.551" height="0.709"/>
            <rect x="362.217" y="436.506" width="2.551" height="0.709"/>
            <rect x="365.69" y="438.136" width="0.709" height="2.551"/>
            <rect x="367.107" y="438.136" width="0.709" height="2.551"/>
            <rect x="368.524" y="438.136" width="0.709" height="2.551"/>
            <rect x="369.942" y="438.136" width="0.709" height="2.551"/>
            <rect x="371.359" y="438.136" width="0.709" height="2.551"/>
            <rect x="372.776" y="438.136" width="0.709" height="2.551"/>
            <rect x="374.194" y="438.136" width="0.709" height="2.551"/>
            <rect x="375.824" y="436.506" width="2.551" height="0.709"/>
            <rect x="375.824" y="435.089" width="2.551" height="0.709"/>
            <rect x="375.824" y="433.671" width="2.551" height="0.709"/>
            <rect x="375.824" y="432.254" width="2.551" height="0.709"/>
            <rect x="375.824" y="430.837" width="2.551" height="0.709"/>
            <rect x="375.824" y="429.419" width="2.551" height="0.709"/>
            <rect x="375.824" y="428.002" width="2.551" height="0.709"/>
        </g>
        <g>
            <path d="M376.029,390.424L376.287,390.476L376.505,390.622L376.651,390.84L376.703,391.098L376.703,392.798L376.651,393.056L376.505,393.274L376.287,393.42L376.029,393.472L374.683,393.472L374.425,393.42L374.207,393.274L374.061,393.056L374.01,392.798L374.01,391.098L374.061,390.84L374.207,390.622L374.425,390.476L374.683,390.424L376.029,390.424Z"/>
            <path d="M376.029,395.314L376.287,395.365L376.505,395.511L376.651,395.73L376.703,395.987L376.703,397.688L376.651,397.946L376.505,398.164L376.287,398.31L376.029,398.361L374.683,398.361L374.425,398.31L374.207,398.164L374.061,397.946L374.01,397.688L374.01,395.987L374.061,395.73L374.207,395.511L374.425,395.365L374.683,395.314L376.029,395.314Z"/>
        </g>
        <g>
            <path d="M394.731,396.814L394.782,396.556L394.928,396.338L395.146,396.192L395.404,396.141L396.821,396.141L397.079,396.192L397.297,396.338L397.443,396.556L397.494,396.814L397.494,398.16L397.443,398.418L397.297,398.636L397.079,398.782L396.821,398.834L395.404,398.834L395.146,398.782L394.928,398.636L394.782,398.418L394.731,398.16L394.731,396.814Z"/>
            <path d="M399.904,396.814L399.955,396.556L400.101,396.338L400.319,396.192L400.577,396.141L401.994,396.141L402.252,396.192L402.47,396.338L402.616,396.556L402.668,396.814L402.668,398.16L402.616,398.418L402.47,398.636L402.252,398.782L401.994,398.834L400.577,398.834L400.319,398.782L400.101,398.636L399.955,398.418L399.904,398.16L399.904,396.814Z"/>
        </g>
        <g>
            <path d="M393.101,376.567L393.068,376.73L392.976,376.868L392.838,376.96L392.676,376.993L389.345,376.993L389.182,376.96L389.044,376.868L388.952,376.73L388.92,376.567L388.92,375.717L388.952,375.554L389.044,375.416L389.182,375.324L389.345,375.292L392.676,375.292L392.838,375.324L392.976,375.416L393.068,375.554L393.101,375.717L393.101,376.567Z"/>
            <path d="M393.101,371.182L393.068,371.344L392.976,371.482L392.838,371.574L392.676,371.607L389.345,371.607L389.182,371.574L389.044,371.482L388.952,371.344L388.92,371.182L388.92,370.331L388.952,370.168L389.044,370.03L389.182,369.938L389.345,369.906L392.676,369.906L392.838,369.938L392.976,370.03L393.068,370.168L393.101,370.331L393.101,371.182Z"/>
            <path d="M387.786,373.874L387.753,374.037L387.661,374.175L387.523,374.267L387.361,374.3L384.03,374.3L383.867,374.267L383.729,374.175L383.637,374.037L383.605,373.874L383.605,373.024L383.637,372.861L383.729,372.723L383.867,372.631L384.03,372.599L387.361,372.599L387.523,372.631L387.661,372.723L387.753,372.861L387.786,373.024L387.786,373.874Z"/>
        </g>
        <g>
            <path d="M302.548,404.432L302.494,404.703L302.34,404.933L302.111,405.087L301.839,405.141L293.335,405.141L293.064,405.087L292.834,404.933L292.681,404.703L292.627,404.432L292.627,401.314L292.681,401.043L292.834,400.813L293.064,400.659L293.335,400.605L301.839,400.605L302.111,400.659L302.34,400.813L302.494,401.043L302.548,401.314L302.548,404.432Z"/>
            <path d="M286.674,404.432L286.62,404.703L286.466,404.933L286.236,405.087L285.965,405.141L277.461,405.141L277.19,405.087L276.96,404.933L276.807,404.703L276.753,404.432L276.753,401.314L276.807,401.043L276.96,400.813L277.19,400.659L277.461,400.605L285.965,400.605L286.236,400.659L286.466,400.813L286.62,401.043L286.674,401.314L286.674,404.432Z"/>
        </g>
        <g>
            <rect x="342.687" y="451.232" width="4.252" height="2.551"/>
            <rect x="353.458" y="451.232" width="4.252" height="2.551"/>
            <rect x="342.687" y="455.484" width="4.252" height="2.551"/>
            <rect x="353.458" y="455.484" width="4.252" height="2.551"/>
        </g>
        <g>
            <rect x="332.255" y="451.232" width="4.252" height="2.551"/>
            <rect x="321.483" y="451.232" width="4.252" height="2.551"/>
            <rect x="321.483" y="455.484" width="4.252" height="2.551"/>
            <rect x="332.255" y="455.484" width="4.252" height="2.551"/>
        </g>
        <g>
            <path d="M450.268,246.854L450.011,246.803L449.792,246.657L449.646,246.438L449.595,246.181L449.595,244.763L449.646,244.506L449.792,244.287L450.011,244.141L450.268,244.09L451.615,244.09L451.873,244.141L452.091,244.287L452.237,244.506L452.288,244.763L452.288,246.181L452.237,246.438L452.091,246.657L451.873,246.803L451.615,246.854L450.268,246.854Z"/>
            <path d="M450.268,241.681L450.011,241.63L449.792,241.484L449.646,241.265L449.595,241.008L449.595,239.59L449.646,239.333L449.792,239.114L450.011,238.968L450.268,238.917L451.615,238.917L451.873,238.968L452.091,239.114L452.237,239.333L452.288,239.59L452.288,241.008L452.237,241.265L452.091,241.484L451.873,241.63L451.615,241.681L450.268,241.681Z"/>
        </g>
        <g>
            <path d="M401.528,292.473L401.477,292.731L401.331,292.949L401.112,293.095L400.855,293.146L399.154,293.146L398.896,293.095L398.678,292.949L398.532,292.731L398.481,292.473L398.481,291.126L398.532,290.869L398.678,290.65L398.896,290.504L399.154,290.453L400.855,290.453L401.112,290.504L401.331,290.65L401.477,290.869L401.528,291.126L401.528,292.473Z"/>
            <path d="M396.638,292.473L396.587,292.731L396.441,292.949L396.222,293.095L395.965,293.146L394.264,293.146L394.006,293.095L393.788,292.949L393.642,292.731L393.591,292.473L393.591,291.126L393.642,290.869L393.788,290.65L394.006,290.504L394.264,290.453L395.965,290.453L396.222,290.504L396.441,290.65L396.587,290.869L396.638,291.126L396.638,292.473Z"/>
        </g>
        <g>
            <path d="M386.807,265.896L386.549,265.845L386.331,265.699L386.185,265.48L386.133,265.223L386.133,263.522L386.185,263.264L386.331,263.046L386.549,262.9L386.807,262.849L388.153,262.849L388.411,262.9L388.629,263.046L388.775,263.264L388.826,263.522L388.826,265.223L388.775,265.48L388.629,265.699L388.411,265.845L388.153,265.896L386.807,265.896Z"/>
            <path d="M386.807,261.006L386.549,260.955L386.331,260.809L386.185,260.591L386.133,260.333L386.133,258.632L386.185,258.375L386.331,258.156L386.549,258.01L386.807,257.959L388.153,257.959L388.411,258.01L388.629,258.156L388.775,258.375L388.826,258.632L388.826,260.333L388.775,260.591L388.629,260.809L388.411,260.955L388.153,261.006L386.807,261.006Z"/>
        </g>
        <g>
            <path d="M343.941,412.681L343.683,412.63L343.465,412.484L343.319,412.265L343.268,412.008L343.268,410.307L343.319,410.049L343.465,409.831L343.683,409.685L343.941,409.634L345.287,409.634L345.545,409.685L345.763,409.831L345.909,410.049L345.961,410.307L345.961,412.008L345.909,412.265L345.763,412.484L345.545,412.63L345.287,412.681L343.941,412.681Z"/>
            <path d="M343.941,407.791L343.683,407.74L343.465,407.594L343.319,407.375L343.268,407.118L343.268,405.417L343.319,405.159L343.465,404.941L343.683,404.795L343.941,404.744L345.287,404.744L345.545,404.795L345.763,404.941L345.909,405.159L345.961,405.417L345.961,407.118L345.909,407.375L345.763,407.594L345.545,407.74L345.287,407.791L343.941,407.791Z"/>
        </g>
    </g>
    <g>
        <path d="M462.273,225.662L462.273,222.544" style="fill:none;fill-rule:nonzero;stroke:black;stroke-width:0.28px;"/>
        <path d="M439.879,222.544L439.879,225.662" style="fill:none;fill-rule:nonzero;stroke:black;stroke-width:0.28px;"/>
        <path d="M244.466,447.542C244,447.542 243.616,447.926 243.616,448.392" style="fill-opacity:0;fill-rule:nonzero;stroke:black;stroke-width:0.28px;"/>
        <path d="M370.648,239.127L372.948,239.127" style="fill:none;fill-rule:nonzero;stroke:black;stroke-width:0.28px;"/>
        <path d="M354.964,466.514C436.085,419.39 487.557,333.757 491.111,240.009" style="fill-opacity:0;fill-rule:nonzero;stroke:black;stroke-width:0.28px;"/>
        <path d="M247.21,446.692L247.21,384.058" style="fill:none;fill-rule:nonzero;stroke:black;stroke-width:0.28px;"/>
        <path d="M491.111,240.009C491.111,239.998 491.111,239.988 491.111,239.977C491.111,239.51 490.727,239.127 490.261,239.127" style="fill-opacity:0;fill-rule:nonzero;stroke:black;stroke-width:0.28px;"/>
        <path d="M243.616,466.431L243.616,448.392" style="fill:none;fill-rule:nonzero;stroke:black;stroke-width:0.28px;"/>
        <path d="M244.466,447.542L246.36,447.542" style="fill:none;fill-rule:nonzero;stroke:black;stroke-width:0.28px;"/>
        <path d="M461.422,226.512C461.889,226.512 462.273,226.129 462.273,225.662" style="fill-opacity:0;fill-rule:nonzero;stroke:black;stroke-width:0.28px;"/>
        <path d="M370.648,239.127C370.203,239.127 369.83,239.476 369.8,239.92" style="fill-opacity:0;fill-rule:nonzero;stroke:black;stroke-width:0.28px;"/>
        <path d="M476.446,222.544L476.446,238.276" style="fill:none;fill-rule:nonzero;stroke:black;stroke-width:0.28px;"/>
        <path d="M477.296,239.127L490.261,239.127" style="fill:none;fill-rule:nonzero;stroke:black;stroke-width:0.28px;"/>
        <path d="M372.948,239.127C373.415,239.127 373.799,238.743 373.799,238.276" style="fill-opacity:0;fill-rule:nonzero;stroke:black;stroke-width:0.28px;"/>
        <path d="M462.273,222.544L476.446,222.544" style="fill:none;fill-rule:nonzero;stroke:black;stroke-width:0.28px;"/>
        <path d="M419.867,226.512L424.856,226.512" style="fill:none;fill-rule:nonzero;stroke:black;stroke-width:0.28px;"/>
        <path d="M374.649,230.764C374.182,230.764 373.799,231.148 373.799,231.615" style="fill-opacity:0;fill-rule:nonzero;stroke:black;stroke-width:0.28px;"/>
        <path d="M418.166,230.764C418.632,230.764 419.016,230.381 419.016,229.914" style="fill-opacity:0;fill-rule:nonzero;stroke:black;stroke-width:0.28px;"/>
        <path d="M419.867,226.512C419.867,226.512 419.867,226.512 419.867,226.512C419.4,226.512 419.016,226.896 419.016,227.363C419.016,227.363 419.016,227.363 419.016,227.363" style="fill-opacity:0;fill-rule:nonzero;stroke:black;stroke-width:0.28px;"/>
        <path d="M374.649,230.764L418.166,230.764" style="fill:none;fill-rule:nonzero;stroke:black;stroke-width:0.28px;"/>
        <path d="M352.116,467.281L244.466,467.281" style="fill:none;fill-rule:nonzero;stroke:black;stroke-width:0.28px;"/>
        <path d="M419.016,229.914L419.016,227.363" style="fill:none;fill-rule:nonzero;stroke:black;stroke-width:0.28px;"/>
        <path d="M439.879,225.662C439.879,225.662 439.879,225.662 439.879,225.662C439.879,226.129 440.263,226.512 440.73,226.512C440.73,226.512 440.73,226.512 440.73,226.512" style="fill-opacity:0;fill-rule:nonzero;stroke:black;stroke-width:0.28px;"/>
        <path d="M246.36,447.542C246.826,447.542 247.21,447.158 247.21,446.692" style="fill-opacity:0;fill-rule:nonzero;stroke:black;stroke-width:0.28px;"/>
        <path d="M373.799,238.276L373.799,231.615" style="fill:none;fill-rule:nonzero;stroke:black;stroke-width:0.28px;"/>
        <path d="M243.616,466.431C243.616,466.897 244,467.281 244.466,467.281" style="fill-opacity:0;fill-rule:nonzero;stroke:black;stroke-width:0.28px;"/>
        <path d="M425.706,225.662L425.706,222.544" style="fill:none;fill-rule:nonzero;stroke:black;stroke-width:0.28px;"/>
        <path d="M424.856,226.512C425.322,226.512 425.706,226.129 425.706,225.662" style="fill-opacity:0;fill-rule:nonzero;stroke:black;stroke-width:0.28px;"/>
        <path d="M251.609,378.533C317.068,363.475 365.277,306.936 369.8,239.92" style="fill-opacity:0;fill-rule:nonzero;stroke:black;stroke-width:0.28px;"/>
        <path d="M251.609,378.533C249.043,379.123 247.21,381.426 247.21,384.058" style="fill-opacity:0;fill-rule:nonzero;stroke:black;stroke-width:0.28px;"/>
        <path d="M425.706,222.544L439.879,222.544" style="fill:none;fill-rule:nonzero;stroke:black;stroke-width:0.28px;"/>
        <path d="M352.116,467.281C353.116,467.281 354.099,467.016 354.964,466.514" style="fill-opacity:0;fill-rule:nonzero;stroke:black;stroke-width:0.28px;"/>
        <path d="M476.446,238.276C476.446,238.276 476.446,238.276 476.446,238.276C476.446,238.743 476.83,239.127 477.296,239.127C477.296,239.127 477.296,239.127 477.296,239.127" style="fill-opacity:0;fill-rule:nonzero;stroke:black;stroke-width:0.28px;"/>
        <path d="M440.73,226.512L461.422,226.512" style="fill:none;fill-rule:nonzero;stroke:black;stroke-width:0.28px;"/>
    </g>
    <g transform="matrix(1,0,0,1,311.111,210.176)">
        <path d="M83.069,89.366L83.259,88.949L83.492,88.61L83.805,88.237L84.111,88.034L84.397,87.898L84.726,87.775L84.955,87.792L85.122,87.966L85.122,88.229L85.02,88.38L84.832,88.448L84.592,88.535L84.435,88.622L84.223,88.761L84.056,88.945L83.915,89.125L83.785,89.319L83.687,89.578L83.568,89.802L83.379,89.869L83.225,89.848L83.084,89.735L83.061,89.536L83.069,89.366Z" style="fill:none;stroke:black;stroke-width:0.1px;stroke-miterlimit:1.5;"/>
    </g>
    <g transform="matrix(6.12323e-17,-1,1,6.12323e-17,306.358,385.535)">
        <path d="M83.069,89.366L83.259,88.949L83.492,88.61L83.805,88.237L84.111,88.034L84.397,87.898L84.726,87.775L84.955,87.792L85.122,87.966L85.122,88.229L85.02,88.38L84.832,88.448L84.592,88.535L84.435,88.622L84.223,88.761L84.056,88.945L83.915,89.125L83.785,89.319L83.687,89.578L83.568,89.802L83.379,89.869L83.225,89.848L83.084,89.735L83.061,89.536L83.069,89.366Z" style="fill:none;stroke:black;stroke-width:0.1px;stroke-miterlimit:1.5;"/>
    </g>
    <g transform="matrix(-1,-1.22465e-16,1.22465e-16,-1,481.673,390.292)">
        <path d="M83.069,89.366L83.259,88.949L83.492,88.61L83.805,88.237L84.111,88.034L84.397,87.898L84.726,87.775L84.955,87.792L85.122,87.966L85.122,88.229L85.02,88.38L84.832,88.448L84.592,88.535L84.435,88.622L84.223,88.761L84.056,88.945L83.915,89.125L83.785,89.319L83.687,89.578L83.568,89.802L83.379,89.869L83.225,89.848L83.084,89.735L83.061,89.536L83.069,89.366Z" style="fill:none;stroke:black;stroke-width:0.1px;stroke-miterlimit:1.5;"/>
    </g>
    <g transform="matrix(-1.83697e-16,1,-1,-1.83697e-16,486.427,214.933)">
        <path d="M83.069,89.366L83.259,88.949L83.492,88.61L83.805,88.237L84.111,88.034L84.397,87.898L84.726,87.775L84.955,87.792L85.122,87.966L85.122,88.229L85.02,88.38L84.832,88.448L84.592,88.535L84.435,88.622L84.223,88.761L84.056,88.945L83.915,89.125L83.785,89.319L83.687,89.578L83.568,89.802L83.379,89.869L83.225,89.848L83.084,89.735L83.061,89.536L83.069,89.366Z" style="fill:none;stroke:black;stroke-width:0.1px;stroke-miterlimit:1.5;"/>
    </g>
</svg>
