M48
; DRILL file {KiCad (6.0.4-0)} date 2022 June 27, Monday 19:58:50
; FORMAT={-:-/ absolute / inch / decimal}
; #@! TF.CreationDate,2022-06-27T19:58:50+02:00
; #@! TF.GenerationSoftware,Kicad,Pcbnew,(6.0.4-0)
; #@! TF.FileFunction,Plated,1,2,PTH
FMAT,2
INCH
; #@! TA.AperFunction,Plated,PTH,ViaDrill
T1C0.0157
; #@! TA.AperFunction,Plated,PTH,ComponentDrill
T2C0.0276
; #@! TA.AperFunction,Plated,PTH,ComponentDrill
T3C0.0394
; #@! TA.AperFunction,Plated,PTH,ComponentDrill
T4C0.0512
%
G90
G05
T1
X3.6154Y-6.7413
X3.6547Y-6.7118
X3.7126Y-6.2799
X3.7563Y-6.324
X4.0327Y-6.2319
X4.0657Y-6.265
X4.5406Y-6.422
X4.5531Y-6.1917
X4.6008Y-6.422
X4.937Y-4.9909
X4.9886Y-5.0906
X5.0846Y-5.3539
X5.0904Y-5.6545
X5.1114Y-4.3654
X5.1126Y-4.7437
X5.115Y-5.4004
X5.1268Y-4.5126
X5.1531Y-5.4378
X5.1614Y-5.7429
X5.2022Y-5.5427
X5.289Y-4.4622
X5.2913Y-4.2862
X5.2921Y-4.1772
X5.3126Y-4.1122
X5.3244Y-4.2276
X5.3268Y-4.6319
X5.3488Y-4.0819
X5.3646Y-4.426
X5.3854Y-5.2614
X5.4106Y-5.2071
X5.4199Y-5.6108
X5.4571Y-5.3154
X5.4583Y-4.0744
X5.4657Y-4.2555
X5.4673Y-5.1673
X5.4921Y-4.1677
X5.5382Y-4.7858
X5.5488Y-4.9181
X5.5669Y-4.535
X5.5953Y-4.4413
X5.5992Y-5.1965
X5.6008Y-4.0122
X5.6024Y-3.6551
X5.6094Y-5.7646
X5.6311Y-3.6854
X5.6382Y-5.2433
X5.6665Y-4.9469
X5.6713Y-4.4539
X5.6752Y-3.924
X5.6776Y-4.7961
X5.6819Y-5.2339
X5.7004Y-5.0972
X5.7902Y-3.3228
X5.7984Y-3.6504
X5.8299Y-3.3232
X5.8587Y-4.1626
X5.8787Y-4.0138
X6.0319Y-3.4331
X6.0673Y-3.7787
X6.3406Y-3.6555
X6.3827Y-3.3508
X6.4291Y-3.3252
X6.4772Y-3.6429
T3
X3.5252Y-5.3528
X3.5252Y-5.4528
X3.5252Y-5.5528
X3.5252Y-5.6528
X3.5252Y-5.7528
X3.5252Y-5.8528
X3.5252Y-5.9528
X5.2813Y-3.5736
X5.2813Y-3.7508
T4
X5.3797Y-3.5205
X5.3797Y-3.8039
T2
G00X3.4492Y-6.6426
M15
G01X3.4492Y-6.6859
M16
G05
G00X3.4492Y-6.817
M15
G01X3.4492Y-6.8406
M16
G05
G00X3.7894Y-6.6426
M15
G01X3.7894Y-6.6859
M16
G05
G00X3.7894Y-6.817
M15
G01X3.7894Y-6.8406
M16
G05
T0
M30
