%TF.GenerationSoftware,KiCad,Pcbnew,(6.0.4-0)*%
%TF.CreationDate,2022-05-05T16:48:37+02:00*%
%TF.ProjectId,GlowTube,476c6f77-5475-4626-952e-6b696361645f,rev?*%
%TF.SameCoordinates,Original*%
%TF.FileFunction,Profile,NP*%
%FSLAX46Y46*%
G04 Gerber Fmt 4.6, Leading zero omitted, Abs format (unit mm)*
G04 Created by KiCad (PCBNEW (6.0.4-0)) date 2022-05-05 16:48:37*
%MOMM*%
%LPD*%
G01*
G04 APERTURE LIST*
%ADD10C,0.100000*%
%TA.AperFunction,Profile*%
%ADD11C,0.100000*%
%TD*%
G04 APERTURE END LIST*
D10*
X135950725Y-84781656D02*
X136060136Y-84775652D01*
X136167988Y-84757768D01*
X136273311Y-84728195D01*
X136330375Y-84706786D01*
X137007377Y-81077099D02*
X137039387Y-81028679D01*
D11*
X155503112Y-80984012D02*
G75*
G03*
X155653112Y-80834047I-12J150012D01*
G01*
X155653112Y-79884047D02*
X155653112Y-80834047D01*
D10*
X136996146Y-81134047D02*
X136996146Y-81184047D01*
X136996146Y-81134047D02*
X137007377Y-81077099D01*
D11*
X152153112Y-79884047D02*
X148153112Y-79884047D01*
X87120358Y-134596539D02*
X87120358Y-154788353D01*
D10*
X136653177Y-84493387D02*
X136726831Y-84412257D01*
X136791030Y-84323768D01*
X136845218Y-84228736D01*
X136870793Y-84173414D01*
D11*
X100682651Y-174695947D02*
G75*
G03*
X100929493Y-174665010I49J999847D01*
G01*
D10*
X137039387Y-81028679D02*
X137087383Y-80996037D01*
D11*
X87918600Y-133617106D02*
G75*
G03*
X126686194Y-101403954I-10800960J52433056D01*
G01*
D10*
X136870793Y-84173414D02*
X136906335Y-84076288D01*
X136931614Y-83976219D01*
X136946449Y-83874018D01*
X136950113Y-83816617D01*
D11*
X135950725Y-84781656D02*
X134530704Y-84781656D01*
D10*
X136330375Y-84706786D02*
X136429316Y-84659693D01*
X136522303Y-84602202D01*
X136608514Y-84534858D01*
X136653177Y-84493387D01*
D11*
X163003112Y-80984012D02*
G75*
G03*
X163153112Y-80834047I-12J150012D01*
G01*
X155503112Y-80984047D02*
X152303112Y-80984047D01*
X148003112Y-80984012D02*
G75*
G03*
X148153112Y-80834047I-12J150012D01*
G01*
X159653153Y-80834047D02*
G75*
G03*
X159803112Y-80984047I150047J47D01*
G01*
X163153112Y-79884047D02*
X163153112Y-80834047D01*
X163003112Y-80984047D02*
X159803112Y-80984047D01*
D10*
X137116159Y-80987075D02*
X137146146Y-80984047D01*
D11*
X86793610Y-155527739D02*
G75*
G03*
X87120358Y-154788353I-673310J739439D01*
G01*
X148153112Y-79884047D02*
X148153112Y-80834047D01*
X86466888Y-156267155D02*
X86466888Y-173695954D01*
X86466846Y-173695954D02*
G75*
G03*
X87466888Y-174695954I1000054J54D01*
G01*
X134530704Y-84781604D02*
G75*
G03*
X133530704Y-85781656I-4J-999996D01*
G01*
D10*
X136977939Y-82839847D02*
X136975154Y-82961962D01*
X136972171Y-83084073D01*
X136968990Y-83206179D01*
X136965610Y-83328278D01*
X136962033Y-83450372D01*
X136958257Y-83572460D01*
X136954284Y-83694542D01*
X136950113Y-83816617D01*
D11*
X133530704Y-85781656D02*
X133530704Y-99781656D01*
X159653112Y-79884047D02*
X155653112Y-79884047D01*
X167085753Y-115989701D02*
G75*
G03*
X167153112Y-115628894I-933153J360901D01*
G01*
X152153153Y-80834047D02*
G75*
G03*
X152303112Y-80984047I150047J47D01*
G01*
D10*
X137087383Y-80996037D02*
X137116159Y-80987075D01*
D11*
X86793643Y-155527776D02*
G75*
G03*
X86466888Y-156267155I673257J-739424D01*
G01*
X127612121Y-100781641D02*
G75*
G03*
X126686194Y-101403954I-21J-999959D01*
G01*
X167153112Y-79884047D02*
X163153112Y-79884047D01*
X132530704Y-100781656D02*
X127612121Y-100781656D01*
X132530704Y-100781604D02*
G75*
G03*
X133530704Y-99781656I-4J1000004D01*
G01*
X100929492Y-174665006D02*
G75*
G03*
X167085753Y-115989701I-23811852J93480966D01*
G01*
X148003112Y-80984047D02*
X137146146Y-80984047D01*
X159653112Y-80834047D02*
X159653112Y-79884047D01*
D10*
X136996146Y-81184047D02*
X136996074Y-81287543D01*
X136995861Y-81391039D01*
X136995505Y-81494535D01*
X136995008Y-81598029D01*
X136994367Y-81701523D01*
X136993585Y-81805015D01*
X136992661Y-81908507D01*
X136991594Y-82011996D01*
X136990385Y-82115485D01*
X136989033Y-82218971D01*
X136987540Y-82322456D01*
X136985904Y-82425939D01*
X136984126Y-82529419D01*
X136982206Y-82632897D01*
X136980143Y-82736373D01*
X136977939Y-82839847D01*
D11*
X167153112Y-115628894D02*
X167153112Y-79884047D01*
X87918604Y-133617129D02*
G75*
G03*
X87120358Y-134596539I201796J-979471D01*
G01*
X152153112Y-80834047D02*
X152153112Y-79884047D01*
X87466888Y-174695954D02*
X100682651Y-174695954D01*
M02*
