%TF.GenerationSoftware,KiCad,Pcbnew,(6.0.4-0)*%
%TF.CreationDate,2022-07-09T22:38:39+02:00*%
%TF.ProjectId,GlowTube,476c6f77-5475-4626-952e-6b696361645f,rev?*%
%TF.SameCoordinates,Original*%
%TF.FileFunction,Legend,Bot*%
%TF.FilePolarity,Positive*%
%FSLAX46Y46*%
G04 Gerber Fmt 4.6, Leading zero omitted, Abs format (unit mm)*
G04 Created by KiCad (PCBNEW (6.0.4-0)) date 2022-07-09 22:38:39*
%MOMM*%
%LPD*%
G01*
G04 APERTURE LIST*
%ADD10C,0.150000*%
G04 APERTURE END LIST*
D10*
X97423214Y-136183904D02*
X97423214Y-135383904D01*
X96889880Y-135383904D02*
X96737500Y-135383904D01*
X96661309Y-135422000D01*
X96585119Y-135498190D01*
X96547023Y-135650571D01*
X96547023Y-135917238D01*
X96585119Y-136069619D01*
X96661309Y-136145809D01*
X96737500Y-136183904D01*
X96889880Y-136183904D01*
X96966071Y-136145809D01*
X97042261Y-136069619D01*
X97080357Y-135917238D01*
X97080357Y-135650571D01*
X97042261Y-135498190D01*
X96966071Y-135422000D01*
X96889880Y-135383904D01*
X95785119Y-136183904D02*
X96242261Y-136183904D01*
X96013690Y-136183904D02*
X96013690Y-135383904D01*
X96089880Y-135498190D01*
X96166071Y-135574380D01*
X96242261Y-135612476D01*
X95480357Y-135460095D02*
X95442261Y-135422000D01*
X95366071Y-135383904D01*
X95175595Y-135383904D01*
X95099404Y-135422000D01*
X95061309Y-135460095D01*
X95023214Y-135536285D01*
X95023214Y-135612476D01*
X95061309Y-135726761D01*
X95518452Y-136183904D01*
X95023214Y-136183904D01*
X94108928Y-135345809D02*
X94794642Y-136374380D01*
X93842261Y-136183904D02*
X93842261Y-135383904D01*
X93575595Y-135955333D01*
X93308928Y-135383904D01*
X93308928Y-136183904D01*
X92927976Y-136183904D02*
X92927976Y-135383904D01*
X92585119Y-136145809D02*
X92470833Y-136183904D01*
X92280357Y-136183904D01*
X92204166Y-136145809D01*
X92166071Y-136107714D01*
X92127976Y-136031523D01*
X92127976Y-135955333D01*
X92166071Y-135879142D01*
X92204166Y-135841047D01*
X92280357Y-135802952D01*
X92432738Y-135764857D01*
X92508928Y-135726761D01*
X92547023Y-135688666D01*
X92585119Y-135612476D01*
X92585119Y-135536285D01*
X92547023Y-135460095D01*
X92508928Y-135422000D01*
X92432738Y-135383904D01*
X92242261Y-135383904D01*
X92127976Y-135422000D01*
X91632738Y-135383904D02*
X91480357Y-135383904D01*
X91404166Y-135422000D01*
X91327976Y-135498190D01*
X91289880Y-135650571D01*
X91289880Y-135917238D01*
X91327976Y-136069619D01*
X91404166Y-136145809D01*
X91480357Y-136183904D01*
X91632738Y-136183904D01*
X91708928Y-136145809D01*
X91785119Y-136069619D01*
X91823214Y-135917238D01*
X91823214Y-135650571D01*
X91785119Y-135498190D01*
X91708928Y-135422000D01*
X91632738Y-135383904D01*
X97423214Y-138759904D02*
X97423214Y-137959904D01*
X96889880Y-137959904D02*
X96737500Y-137959904D01*
X96661309Y-137998000D01*
X96585119Y-138074190D01*
X96547023Y-138226571D01*
X96547023Y-138493238D01*
X96585119Y-138645619D01*
X96661309Y-138721809D01*
X96737500Y-138759904D01*
X96889880Y-138759904D01*
X96966071Y-138721809D01*
X97042261Y-138645619D01*
X97080357Y-138493238D01*
X97080357Y-138226571D01*
X97042261Y-138074190D01*
X96966071Y-137998000D01*
X96889880Y-137959904D01*
X95785119Y-138759904D02*
X96242261Y-138759904D01*
X96013690Y-138759904D02*
X96013690Y-137959904D01*
X96089880Y-138074190D01*
X96166071Y-138150380D01*
X96242261Y-138188476D01*
X95518452Y-137959904D02*
X95023214Y-137959904D01*
X95289880Y-138264666D01*
X95175595Y-138264666D01*
X95099404Y-138302761D01*
X95061309Y-138340857D01*
X95023214Y-138417047D01*
X95023214Y-138607523D01*
X95061309Y-138683714D01*
X95099404Y-138721809D01*
X95175595Y-138759904D01*
X95404166Y-138759904D01*
X95480357Y-138721809D01*
X95518452Y-138683714D01*
X94108928Y-137921809D02*
X94794642Y-138950380D01*
X93842261Y-138759904D02*
X93842261Y-137959904D01*
X93575595Y-138531333D01*
X93308928Y-137959904D01*
X93308928Y-138759904D01*
X92775595Y-137959904D02*
X92623214Y-137959904D01*
X92547023Y-137998000D01*
X92470833Y-138074190D01*
X92432738Y-138226571D01*
X92432738Y-138493238D01*
X92470833Y-138645619D01*
X92547023Y-138721809D01*
X92623214Y-138759904D01*
X92775595Y-138759904D01*
X92851785Y-138721809D01*
X92927976Y-138645619D01*
X92966071Y-138493238D01*
X92966071Y-138226571D01*
X92927976Y-138074190D01*
X92851785Y-137998000D01*
X92775595Y-137959904D01*
X92127976Y-138721809D02*
X92013690Y-138759904D01*
X91823214Y-138759904D01*
X91747023Y-138721809D01*
X91708928Y-138683714D01*
X91670833Y-138607523D01*
X91670833Y-138531333D01*
X91708928Y-138455142D01*
X91747023Y-138417047D01*
X91823214Y-138378952D01*
X91975595Y-138340857D01*
X92051785Y-138302761D01*
X92089880Y-138264666D01*
X92127976Y-138188476D01*
X92127976Y-138112285D01*
X92089880Y-138036095D01*
X92051785Y-137998000D01*
X91975595Y-137959904D01*
X91785119Y-137959904D01*
X91670833Y-137998000D01*
X91327976Y-138759904D02*
X91327976Y-137959904D01*
X95975595Y-141335904D02*
X95975595Y-140535904D01*
X95442261Y-140535904D02*
X95289880Y-140535904D01*
X95213690Y-140574000D01*
X95137500Y-140650190D01*
X95099404Y-140802571D01*
X95099404Y-141069238D01*
X95137500Y-141221619D01*
X95213690Y-141297809D01*
X95289880Y-141335904D01*
X95442261Y-141335904D01*
X95518452Y-141297809D01*
X95594642Y-141221619D01*
X95632738Y-141069238D01*
X95632738Y-140802571D01*
X95594642Y-140650190D01*
X95518452Y-140574000D01*
X95442261Y-140535904D01*
X94794642Y-140612095D02*
X94756547Y-140574000D01*
X94680357Y-140535904D01*
X94489880Y-140535904D01*
X94413690Y-140574000D01*
X94375595Y-140612095D01*
X94337500Y-140688285D01*
X94337500Y-140764476D01*
X94375595Y-140878761D01*
X94832738Y-141335904D01*
X94337500Y-141335904D01*
X93613690Y-140535904D02*
X93994642Y-140535904D01*
X94032738Y-140916857D01*
X93994642Y-140878761D01*
X93918452Y-140840666D01*
X93727976Y-140840666D01*
X93651785Y-140878761D01*
X93613690Y-140916857D01*
X93575595Y-140993047D01*
X93575595Y-141183523D01*
X93613690Y-141259714D01*
X93651785Y-141297809D01*
X93727976Y-141335904D01*
X93918452Y-141335904D01*
X93994642Y-141297809D01*
X94032738Y-141259714D01*
X92661309Y-140497809D02*
X93347023Y-141526380D01*
X92432738Y-141107333D02*
X92051785Y-141107333D01*
X92508928Y-141335904D02*
X92242261Y-140535904D01*
X91975595Y-141335904D01*
X91289880Y-141335904D02*
X91747023Y-141335904D01*
X91518452Y-141335904D02*
X91518452Y-140535904D01*
X91594642Y-140650190D01*
X91670833Y-140726380D01*
X91747023Y-140764476D01*
X95975595Y-143911904D02*
X95975595Y-143111904D01*
X95442261Y-143111904D02*
X95289880Y-143111904D01*
X95213690Y-143150000D01*
X95137500Y-143226190D01*
X95099404Y-143378571D01*
X95099404Y-143645238D01*
X95137500Y-143797619D01*
X95213690Y-143873809D01*
X95289880Y-143911904D01*
X95442261Y-143911904D01*
X95518452Y-143873809D01*
X95594642Y-143797619D01*
X95632738Y-143645238D01*
X95632738Y-143378571D01*
X95594642Y-143226190D01*
X95518452Y-143150000D01*
X95442261Y-143111904D01*
X94794642Y-143188095D02*
X94756547Y-143150000D01*
X94680357Y-143111904D01*
X94489880Y-143111904D01*
X94413690Y-143150000D01*
X94375595Y-143188095D01*
X94337500Y-143264285D01*
X94337500Y-143340476D01*
X94375595Y-143454761D01*
X94832738Y-143911904D01*
X94337500Y-143911904D01*
X93651785Y-143111904D02*
X93804166Y-143111904D01*
X93880357Y-143150000D01*
X93918452Y-143188095D01*
X93994642Y-143302380D01*
X94032738Y-143454761D01*
X94032738Y-143759523D01*
X93994642Y-143835714D01*
X93956547Y-143873809D01*
X93880357Y-143911904D01*
X93727976Y-143911904D01*
X93651785Y-143873809D01*
X93613690Y-143835714D01*
X93575595Y-143759523D01*
X93575595Y-143569047D01*
X93613690Y-143492857D01*
X93651785Y-143454761D01*
X93727976Y-143416666D01*
X93880357Y-143416666D01*
X93956547Y-143454761D01*
X93994642Y-143492857D01*
X94032738Y-143569047D01*
X92661309Y-143073809D02*
X93347023Y-144102380D01*
X92432738Y-143683333D02*
X92051785Y-143683333D01*
X92508928Y-143911904D02*
X92242261Y-143111904D01*
X91975595Y-143911904D01*
X91556547Y-143111904D02*
X91480357Y-143111904D01*
X91404166Y-143150000D01*
X91366071Y-143188095D01*
X91327976Y-143264285D01*
X91289880Y-143416666D01*
X91289880Y-143607142D01*
X91327976Y-143759523D01*
X91366071Y-143835714D01*
X91404166Y-143873809D01*
X91480357Y-143911904D01*
X91556547Y-143911904D01*
X91632738Y-143873809D01*
X91670833Y-143835714D01*
X91708928Y-143759523D01*
X91747023Y-143607142D01*
X91747023Y-143416666D01*
X91708928Y-143264285D01*
X91670833Y-143188095D01*
X91632738Y-143150000D01*
X91556547Y-143111904D01*
X93613690Y-145687904D02*
X93118452Y-145687904D01*
X93385119Y-145992666D01*
X93270833Y-145992666D01*
X93194642Y-146030761D01*
X93156547Y-146068857D01*
X93118452Y-146145047D01*
X93118452Y-146335523D01*
X93156547Y-146411714D01*
X93194642Y-146449809D01*
X93270833Y-146487904D01*
X93499404Y-146487904D01*
X93575595Y-146449809D01*
X93613690Y-146411714D01*
X92775595Y-146411714D02*
X92737500Y-146449809D01*
X92775595Y-146487904D01*
X92813690Y-146449809D01*
X92775595Y-146411714D01*
X92775595Y-146487904D01*
X92470833Y-145687904D02*
X91975595Y-145687904D01*
X92242261Y-145992666D01*
X92127976Y-145992666D01*
X92051785Y-146030761D01*
X92013690Y-146068857D01*
X91975595Y-146145047D01*
X91975595Y-146335523D01*
X92013690Y-146411714D01*
X92051785Y-146449809D01*
X92127976Y-146487904D01*
X92356547Y-146487904D01*
X92432738Y-146449809D01*
X92470833Y-146411714D01*
X91747023Y-145687904D02*
X91480357Y-146487904D01*
X91213690Y-145687904D01*
X92013690Y-148263904D02*
X92394642Y-148263904D01*
X92432738Y-148644857D01*
X92394642Y-148606761D01*
X92318452Y-148568666D01*
X92127976Y-148568666D01*
X92051785Y-148606761D01*
X92013690Y-148644857D01*
X91975595Y-148721047D01*
X91975595Y-148911523D01*
X92013690Y-148987714D01*
X92051785Y-149025809D01*
X92127976Y-149063904D01*
X92318452Y-149063904D01*
X92394642Y-149025809D01*
X92432738Y-148987714D01*
X91747023Y-148263904D02*
X91480357Y-149063904D01*
X91213690Y-148263904D01*
X92966071Y-150878000D02*
X93042261Y-150839904D01*
X93156547Y-150839904D01*
X93270833Y-150878000D01*
X93347023Y-150954190D01*
X93385119Y-151030380D01*
X93423214Y-151182761D01*
X93423214Y-151297047D01*
X93385119Y-151449428D01*
X93347023Y-151525619D01*
X93270833Y-151601809D01*
X93156547Y-151639904D01*
X93080357Y-151639904D01*
X92966071Y-151601809D01*
X92927976Y-151563714D01*
X92927976Y-151297047D01*
X93080357Y-151297047D01*
X92585119Y-151639904D02*
X92585119Y-150839904D01*
X92127976Y-151639904D01*
X92127976Y-150839904D01*
X91747023Y-151639904D02*
X91747023Y-150839904D01*
X91556547Y-150839904D01*
X91442261Y-150878000D01*
X91366071Y-150954190D01*
X91327976Y-151030380D01*
X91289880Y-151182761D01*
X91289880Y-151297047D01*
X91327976Y-151449428D01*
X91366071Y-151525619D01*
X91442261Y-151601809D01*
X91556547Y-151639904D01*
X91747023Y-151639904D01*
X158969047Y-87737380D02*
X159445238Y-87737380D01*
X159445238Y-86737380D01*
X158635714Y-87213571D02*
X158302380Y-87213571D01*
X158159523Y-87737380D02*
X158635714Y-87737380D01*
X158635714Y-86737380D01*
X158159523Y-86737380D01*
X157730952Y-87737380D02*
X157730952Y-86737380D01*
X157492857Y-86737380D01*
X157350000Y-86785000D01*
X157254761Y-86880238D01*
X157207142Y-86975476D01*
X157159523Y-87165952D01*
X157159523Y-87308809D01*
X157207142Y-87499285D01*
X157254761Y-87594523D01*
X157350000Y-87689761D01*
X157492857Y-87737380D01*
X157730952Y-87737380D01*
X156778571Y-86832619D02*
X156730952Y-86785000D01*
X156635714Y-86737380D01*
X156397619Y-86737380D01*
X156302380Y-86785000D01*
X156254761Y-86832619D01*
X156207142Y-86927857D01*
X156207142Y-87023095D01*
X156254761Y-87165952D01*
X156826190Y-87737380D01*
X156207142Y-87737380D01*
X159707142Y-89728333D02*
X159754761Y-89680714D01*
X159850000Y-89537857D01*
X159897619Y-89442619D01*
X159945238Y-89299761D01*
X159992857Y-89061666D01*
X159992857Y-88871190D01*
X159945238Y-88633095D01*
X159897619Y-88490238D01*
X159850000Y-88395000D01*
X159754761Y-88252142D01*
X159707142Y-88204523D01*
X159326190Y-89347380D02*
X159326190Y-88347380D01*
X158659523Y-88347380D02*
X158469047Y-88347380D01*
X158373809Y-88395000D01*
X158278571Y-88490238D01*
X158230952Y-88680714D01*
X158230952Y-89014047D01*
X158278571Y-89204523D01*
X158373809Y-89299761D01*
X158469047Y-89347380D01*
X158659523Y-89347380D01*
X158754761Y-89299761D01*
X158850000Y-89204523D01*
X158897619Y-89014047D01*
X158897619Y-88680714D01*
X158850000Y-88490238D01*
X158754761Y-88395000D01*
X158659523Y-88347380D01*
X157278571Y-89347380D02*
X157850000Y-89347380D01*
X157564285Y-89347380D02*
X157564285Y-88347380D01*
X157659523Y-88490238D01*
X157754761Y-88585476D01*
X157850000Y-88633095D01*
X156945238Y-88347380D02*
X156278571Y-88347380D01*
X156707142Y-89347380D01*
X155992857Y-89728333D02*
X155945238Y-89680714D01*
X155850000Y-89537857D01*
X155802380Y-89442619D01*
X155754761Y-89299761D01*
X155707142Y-89061666D01*
X155707142Y-88871190D01*
X155754761Y-88633095D01*
X155802380Y-88490238D01*
X155850000Y-88395000D01*
X155945238Y-88252142D01*
X155992857Y-88204523D01*
X165541904Y-86595000D02*
X165637142Y-86547380D01*
X165780000Y-86547380D01*
X165922857Y-86595000D01*
X166018095Y-86690238D01*
X166065714Y-86785476D01*
X166113333Y-86975952D01*
X166113333Y-87118809D01*
X166065714Y-87309285D01*
X166018095Y-87404523D01*
X165922857Y-87499761D01*
X165780000Y-87547380D01*
X165684761Y-87547380D01*
X165541904Y-87499761D01*
X165494285Y-87452142D01*
X165494285Y-87118809D01*
X165684761Y-87118809D01*
X165065714Y-87547380D02*
X165065714Y-86547380D01*
X164494285Y-87547380D01*
X164494285Y-86547380D01*
X164018095Y-87547380D02*
X164018095Y-86547380D01*
X163780000Y-86547380D01*
X163637142Y-86595000D01*
X163541904Y-86690238D01*
X163494285Y-86785476D01*
X163446666Y-86975952D01*
X163446666Y-87118809D01*
X163494285Y-87309285D01*
X163541904Y-87404523D01*
X163637142Y-87499761D01*
X163780000Y-87547380D01*
X164018095Y-87547380D01*
X166160952Y-89538333D02*
X166208571Y-89490714D01*
X166303809Y-89347857D01*
X166351428Y-89252619D01*
X166399047Y-89109761D01*
X166446666Y-88871666D01*
X166446666Y-88681190D01*
X166399047Y-88443095D01*
X166351428Y-88300238D01*
X166303809Y-88205000D01*
X166208571Y-88062142D01*
X166160952Y-88014523D01*
X165780000Y-89157380D02*
X165780000Y-88157380D01*
X165113333Y-88157380D02*
X164922857Y-88157380D01*
X164827619Y-88205000D01*
X164732380Y-88300238D01*
X164684761Y-88490714D01*
X164684761Y-88824047D01*
X164732380Y-89014523D01*
X164827619Y-89109761D01*
X164922857Y-89157380D01*
X165113333Y-89157380D01*
X165208571Y-89109761D01*
X165303809Y-89014523D01*
X165351428Y-88824047D01*
X165351428Y-88490714D01*
X165303809Y-88300238D01*
X165208571Y-88205000D01*
X165113333Y-88157380D01*
X164303809Y-88252619D02*
X164256190Y-88205000D01*
X164160952Y-88157380D01*
X163922857Y-88157380D01*
X163827619Y-88205000D01*
X163780000Y-88252619D01*
X163732380Y-88347857D01*
X163732380Y-88443095D01*
X163780000Y-88585952D01*
X164351428Y-89157380D01*
X163732380Y-89157380D01*
X163399047Y-89538333D02*
X163351428Y-89490714D01*
X163256190Y-89347857D01*
X163208571Y-89252619D01*
X163160952Y-89109761D01*
X163113333Y-88871666D01*
X163113333Y-88681190D01*
X163160952Y-88443095D01*
X163208571Y-88300238D01*
X163256190Y-88205000D01*
X163351428Y-88062142D01*
X163399047Y-88014523D01*
X150490476Y-86562380D02*
X150966666Y-86562380D01*
X151014285Y-87038571D01*
X150966666Y-86990952D01*
X150871428Y-86943333D01*
X150633333Y-86943333D01*
X150538095Y-86990952D01*
X150490476Y-87038571D01*
X150442857Y-87133809D01*
X150442857Y-87371904D01*
X150490476Y-87467142D01*
X150538095Y-87514761D01*
X150633333Y-87562380D01*
X150871428Y-87562380D01*
X150966666Y-87514761D01*
X151014285Y-87467142D01*
X150157142Y-86562380D02*
X149823809Y-87562380D01*
X149490476Y-86562380D01*
M02*
