%TF.GenerationSoftware,KiCad,Pcbnew,(6.0.6-0)*%
%TF.CreationDate,2022-07-21T13:24:00+02:00*%
%TF.ProjectId,GlowTube,476c6f77-5475-4626-952e-6b696361645f,rev?*%
%TF.SameCoordinates,Original*%
%TF.FileFunction,Soldermask,Bot*%
%TF.FilePolarity,Negative*%
%FSLAX46Y46*%
G04 Gerber Fmt 4.6, Leading zero omitted, Abs format (unit mm)*
G04 Created by KiCad (PCBNEW (6.0.6-0)) date 2022-07-21 13:24:00*
%MOMM*%
%LPD*%
G01*
G04 APERTURE LIST*
%ADD10R,1.700000X1.700000*%
%ADD11O,1.700000X1.700000*%
%ADD12C,1.600000*%
%ADD13C,2.100000*%
%ADD14C,0.700025*%
%ADD15O,1.200000X1.800000*%
%ADD16O,1.200000X2.200000*%
%ADD17R,2.000000X3.500000*%
%ADD18C,1.300000*%
%ADD19C,0.800000*%
G04 APERTURE END LIST*
D10*
%TO.C,J1*%
X89540000Y-135960000D03*
D11*
X89540000Y-138500000D03*
X89540000Y-141040000D03*
X89540000Y-143580000D03*
X89540000Y-146120000D03*
X89540000Y-148660000D03*
X89540000Y-151200000D03*
%TD*%
D12*
%TO.C,C12*%
X134145044Y-90770064D03*
X134145044Y-95269936D03*
D13*
X136644917Y-89420051D03*
X136644917Y-96619949D03*
%TD*%
D14*
%TO.C,USB1*%
X94820018Y-169772535D03*
X89039982Y-169772535D03*
D15*
X87609959Y-173452494D03*
D16*
X87609959Y-169272408D03*
D15*
X96250041Y-173452494D03*
D16*
X96250041Y-169272408D03*
%TD*%
D17*
%TO.C,P6*%
X157680000Y-84210000D03*
%TD*%
%TO.C,P5*%
X165096200Y-84210000D03*
%TD*%
%TO.C,P4*%
X150206200Y-84210000D03*
%TD*%
D18*
X164530000Y-95730000D03*
X103380000Y-167650000D03*
D19*
X92885000Y-158705000D03*
X93705000Y-157885000D03*
X92280000Y-159670000D03*
X147070000Y-84400000D03*
X116860000Y-163120000D03*
X148080000Y-84410000D03*
X115330000Y-163120000D03*
X147280000Y-92720000D03*
X95480000Y-160310000D03*
X138830000Y-108090000D03*
X102430000Y-158290000D03*
X136790000Y-133640000D03*
X115650000Y-157270000D03*
X140670000Y-121560000D03*
X138610000Y-135010000D03*
X139270000Y-99880000D03*
X132135000Y-140785000D03*
X134420000Y-106100000D03*
X134340000Y-113340000D03*
X129295000Y-143625000D03*
X140590000Y-87600000D03*
X140290000Y-88710000D03*
X141400000Y-115190000D03*
X160970000Y-90450000D03*
X138640000Y-103490000D03*
X150740000Y-94450000D03*
X139080000Y-101350000D03*
X103270000Y-159130000D03*
X139500000Y-105860000D03*
X135860000Y-103680000D03*
X164520000Y-92530000D03*
X149320000Y-101950000D03*
X129150000Y-135990000D03*
X140940000Y-124920000D03*
X138870000Y-131250000D03*
X144210000Y-121820000D03*
X142220000Y-131990000D03*
X143640000Y-85240000D03*
X142590000Y-97370000D03*
X142300000Y-92840000D03*
X162120000Y-85110000D03*
X143810000Y-83860000D03*
X163300000Y-84460000D03*
X141950000Y-96320000D03*
X143030000Y-93610000D03*
X126710000Y-129300000D03*
X135300000Y-117650000D03*
X136260000Y-112420000D03*
X129830000Y-110880000D03*
X135240000Y-107380000D03*
X134400000Y-108870000D03*
X129860000Y-120490000D03*
X134940000Y-104450000D03*
X142260000Y-101910000D03*
X142150000Y-112390000D03*
X153210000Y-87200000D03*
X140040000Y-95740000D03*
X135780000Y-124410000D03*
X143930000Y-125650000D03*
X143210000Y-133180000D03*
X144790000Y-129470000D03*
X144320000Y-132940000D03*
X129920000Y-137170000D03*
X92830000Y-170480000D03*
X91450000Y-170560000D03*
X130890000Y-138120000D03*
X89900000Y-171930000D03*
X98940000Y-172190000D03*
X90470000Y-165310000D03*
X143030000Y-141920000D03*
X130220000Y-114620000D03*
X125400000Y-126770000D03*
X142480000Y-146420000D03*
X148810000Y-105730000D03*
X131100000Y-145870000D03*
X137430000Y-132260000D03*
X144150000Y-99670000D03*
X161050000Y-92850000D03*
X154110000Y-95980000D03*
X144050000Y-113130000D03*
M02*
