M48
; DRILL file {KiCad (6.0.0-0)} date 2022 March 13, Sunday 18:25:22
; FORMAT={-:-/ absolute / inch / decimal}
; #@! TF.CreationDate,2022-03-13T18:25:22+01:00
; #@! TF.GenerationSoftware,Kicad,Pcbnew,(6.0.0-0)
; #@! TF.FileFunction,Plated,1,2,PTH
FMAT,2
INCH
; #@! TA.AperFunction,Plated,PTH,ComponentDrill
T1C0.0079
; #@! TA.AperFunction,Plated,PTH,ViaDrill
T2C0.0157
; #@! TA.AperFunction,Plated,PTH,ComponentDrill
T3C0.0276
; #@! TA.AperFunction,Plated,PTH,ComponentDrill
T4C0.0276
; #@! TA.AperFunction,Plated,PTH,ComponentDrill
T5C0.0394
%
G90
G05
T1
X5.6194Y-4.6176
X5.6194Y-4.6899
X5.6556Y-4.5815
X5.6556Y-4.6537
X5.6556Y-4.726
X5.6917Y-4.6176
X5.6917Y-4.6899
X5.7278Y-4.5815
X5.7278Y-4.6537
X5.7278Y-4.726
X5.7639Y-4.6176
X5.7639Y-4.6899
T2
X3.5378Y-6.3051
X3.6248Y-6.1787
X3.685Y-6.3689
X3.763Y-6.1717
X3.8205Y-5.8205
X3.837Y-5.9232
X3.9075Y-5.9323
X3.9717Y-5.5138
X4.0043Y-6.3827
X4.163Y-5.4941
X4.4098Y-6.4386
X4.574Y-6.3543
X4.6287Y-5.3059
X4.6972Y-6.2236
X4.713Y-6.1343
X4.7453Y-5.2874
X4.8669Y-5.2398
X4.9087Y-6.0091
X4.9504Y-4.613
X4.9846Y-5.7839
X4.9846Y-5.9559
X5.0102Y-6.324
X5.0201Y-5.3205
X5.0331Y-5.8256
X5.0339Y-5.6457
X5.048Y-5.9118
X5.0528Y-4.5118
X5.0654Y-4.8118
X5.1075Y-5.3555
X5.1504Y-4.7902
X5.1524Y-5.2673
X5.161Y-5.8185
X5.263Y-4.2228
X5.263Y-4.4177
X5.2839Y-5.2685
X5.2965Y-5.1398
X5.4189Y-4.5248
X5.4335Y-3.8472
X5.478Y-3.922
X5.4839Y-4.6772
X5.5327Y-4.2535
X5.535Y-5.1047
X5.5665Y-5.8913
X5.6083Y-4.4409
X5.6161Y-5.7917
X5.6268Y-4.0496
X5.6543Y-5.7402
X5.7161Y-4.4791
X5.789Y-3.989
X5.811Y-4.5094
X5.8209Y-3.922
X5.9394Y-4.9445
X5.9425Y-3.7626
X5.9512Y-4.502
X6.1563Y-3.6858
X6.3839Y-3.6862
T3
X3.4858Y-6.2956
X3.7134Y-6.2956
T5
X3.5252Y-5.3528
X3.5252Y-5.4528
X3.5252Y-5.5528
X3.5252Y-5.6528
X3.5252Y-5.7528
X3.5252Y-5.8528
X3.5252Y-5.9528
X3.5252Y-6.0528
X3.9953Y-6.2181
X4.0354Y-6.1181
X4.0756Y-6.2181
X4.1157Y-6.1181
X4.1559Y-6.2181
X4.1961Y-6.1181
T4
G00X3.4295Y-6.2542
M15
G01X3.4295Y-6.2975
M16
G05
G00X3.4295Y-6.4286
M15
G01X3.4295Y-6.4523
M16
G05
G00X3.7697Y-6.2542
M15
G01X3.7697Y-6.2975
M16
G05
G00X3.7697Y-6.4286
M15
G01X3.7697Y-6.4523
M16
G05
T0
M30
