M48
; DRILL file {KiCad (6.0.4-0)} date 2022 May 05, Thursday 16:48:37
; FORMAT={-:-/ absolute / inch / decimal}
; #@! TF.CreationDate,2022-05-05T16:48:37+02:00
; #@! TF.GenerationSoftware,Kicad,Pcbnew,(6.0.4-0)
; #@! TF.FileFunction,Plated,1,2,PTH
FMAT,2
INCH
; #@! TA.AperFunction,Plated,PTH,ComponentDrill
T1C0.0079
; #@! TA.AperFunction,Plated,PTH,ViaDrill
T2C0.0157
; #@! TA.AperFunction,Plated,PTH,ComponentDrill
T3C0.0276
; #@! TA.AperFunction,Plated,PTH,ComponentDrill
T4C0.0276
; #@! TA.AperFunction,Plated,PTH,ComponentDrill
T5C0.0394
; #@! TA.AperFunction,Plated,PTH,ComponentDrill
T6C0.0512
%
G90
G05
T1
X5.525Y-4.6119
X5.525Y-4.6842
X5.5611Y-4.5758
X5.5611Y-4.648
X5.5611Y-4.7203
X5.5972Y-4.6119
X5.5972Y-4.6842
X5.6334Y-4.5758
X5.6334Y-4.648
X5.6334Y-4.7203
X5.6695Y-4.6119
X5.6695Y-4.6842
T2
X3.6154Y-6.7413
X3.6547Y-6.7118
X3.7126Y-6.2799
X3.7563Y-6.324
X4.0327Y-6.2319
X4.0657Y-6.265
X4.5406Y-6.422
X4.5531Y-6.1917
X4.6008Y-6.422
X4.937Y-4.9909
X4.9886Y-5.0906
X5.0846Y-5.3539
X5.0904Y-5.6545
X5.1114Y-4.3654
X5.1126Y-4.7437
X5.115Y-5.4004
X5.1268Y-4.5126
X5.1531Y-5.4378
X5.1614Y-5.7429
X5.2022Y-5.5427
X5.289Y-4.4622
X5.2913Y-4.2862
X5.2921Y-4.1772
X5.3126Y-4.1122
X5.3244Y-4.2276
X5.3268Y-4.6319
X5.3429Y-4.0626
X5.3646Y-4.426
X5.3854Y-5.2614
X5.4106Y-5.2071
X5.4199Y-5.6108
X5.4571Y-5.3154
X5.4583Y-4.0744
X5.4657Y-4.2555
X5.4673Y-5.1673
X5.5Y-4.1693
X5.5488Y-4.9181
X5.5953Y-4.4413
X5.5992Y-5.1965
X5.6008Y-4.0122
X5.6024Y-3.6551
X5.6094Y-5.7646
X5.6311Y-3.6854
X5.6382Y-5.2433
X5.6665Y-4.9469
X5.6713Y-4.4539
X5.6752Y-3.924
X5.6776Y-4.7961
X5.6819Y-5.2339
X5.7004Y-5.0972
X5.7902Y-3.3228
X5.7984Y-3.6504
X5.7984Y-3.7138
X5.8215Y-3.2963
X5.8587Y-4.1626
X5.9055Y-3.4996
X6.0126Y-3.7685
X6.1287Y-3.6449
X6.2043Y-3.3776
X6.402Y-3.3
X6.4305Y-3.2715
T3
X3.5047Y-6.6827
X3.7323Y-6.6827
T5
X3.5252Y-5.3528
X3.5252Y-5.4528
X3.5252Y-5.5528
X3.5252Y-5.6528
X3.5252Y-5.7528
X3.5252Y-5.8528
X3.5252Y-5.9528
X5.3482Y-3.4949
X5.3482Y-3.672
T6
X5.4467Y-3.4417
X5.4467Y-3.7252
T4
G00X3.4484Y-6.6413
M15
G01X3.4484Y-6.6846
M16
G05
G00X3.4484Y-6.8157
M15
G01X3.4484Y-6.8394
M16
G05
G00X3.7886Y-6.6413
M15
G01X3.7886Y-6.6846
M16
G05
G00X3.7886Y-6.8157
M15
G01X3.7886Y-6.8394
M16
G05
T0
M30
