%TF.GenerationSoftware,KiCad,Pcbnew,(6.0.4-0)*%
%TF.CreationDate,2022-05-04T17:09:46+02:00*%
%TF.ProjectId,GlowTube,476c6f77-5475-4626-952e-6b696361645f,rev?*%
%TF.SameCoordinates,Original*%
%TF.FileFunction,Legend,Top*%
%TF.FilePolarity,Positive*%
%FSLAX46Y46*%
G04 Gerber Fmt 4.6, Leading zero omitted, Abs format (unit mm)*
G04 Created by KiCad (PCBNEW (6.0.4-0)) date 2022-05-04 17:09:46*
%MOMM*%
%LPD*%
G01*
G04 APERTURE LIST*
%ADD10C,0.150000*%
%ADD11C,0.120000*%
%ADD12C,0.250000*%
%ADD13C,0.200000*%
%ADD14C,0.059995*%
%ADD15C,0.127000*%
%ADD16C,0.254001*%
%ADD17C,0.151994*%
G04 APERTURE END LIST*
D10*
X91327976Y-136183904D02*
X91327976Y-135383904D01*
X91861309Y-135383904D02*
X92013690Y-135383904D01*
X92089880Y-135422000D01*
X92166071Y-135498190D01*
X92204166Y-135650571D01*
X92204166Y-135917238D01*
X92166071Y-136069619D01*
X92089880Y-136145809D01*
X92013690Y-136183904D01*
X91861309Y-136183904D01*
X91785119Y-136145809D01*
X91708928Y-136069619D01*
X91670833Y-135917238D01*
X91670833Y-135650571D01*
X91708928Y-135498190D01*
X91785119Y-135422000D01*
X91861309Y-135383904D01*
X92966071Y-136183904D02*
X92508928Y-136183904D01*
X92737500Y-136183904D02*
X92737500Y-135383904D01*
X92661309Y-135498190D01*
X92585119Y-135574380D01*
X92508928Y-135612476D01*
X93270833Y-135460095D02*
X93308928Y-135422000D01*
X93385119Y-135383904D01*
X93575595Y-135383904D01*
X93651785Y-135422000D01*
X93689880Y-135460095D01*
X93727976Y-135536285D01*
X93727976Y-135612476D01*
X93689880Y-135726761D01*
X93232738Y-136183904D01*
X93727976Y-136183904D01*
X94642261Y-135345809D02*
X93956547Y-136374380D01*
X94908928Y-136183904D02*
X94908928Y-135383904D01*
X95175595Y-135955333D01*
X95442261Y-135383904D01*
X95442261Y-136183904D01*
X95823214Y-136183904D02*
X95823214Y-135383904D01*
X96166071Y-136145809D02*
X96280357Y-136183904D01*
X96470833Y-136183904D01*
X96547023Y-136145809D01*
X96585119Y-136107714D01*
X96623214Y-136031523D01*
X96623214Y-135955333D01*
X96585119Y-135879142D01*
X96547023Y-135841047D01*
X96470833Y-135802952D01*
X96318452Y-135764857D01*
X96242261Y-135726761D01*
X96204166Y-135688666D01*
X96166071Y-135612476D01*
X96166071Y-135536285D01*
X96204166Y-135460095D01*
X96242261Y-135422000D01*
X96318452Y-135383904D01*
X96508928Y-135383904D01*
X96623214Y-135422000D01*
X97118452Y-135383904D02*
X97270833Y-135383904D01*
X97347023Y-135422000D01*
X97423214Y-135498190D01*
X97461309Y-135650571D01*
X97461309Y-135917238D01*
X97423214Y-136069619D01*
X97347023Y-136145809D01*
X97270833Y-136183904D01*
X97118452Y-136183904D01*
X97042261Y-136145809D01*
X96966071Y-136069619D01*
X96927976Y-135917238D01*
X96927976Y-135650571D01*
X96966071Y-135498190D01*
X97042261Y-135422000D01*
X97118452Y-135383904D01*
X91327976Y-138759904D02*
X91327976Y-137959904D01*
X91861309Y-137959904D02*
X92013690Y-137959904D01*
X92089880Y-137998000D01*
X92166071Y-138074190D01*
X92204166Y-138226571D01*
X92204166Y-138493238D01*
X92166071Y-138645619D01*
X92089880Y-138721809D01*
X92013690Y-138759904D01*
X91861309Y-138759904D01*
X91785119Y-138721809D01*
X91708928Y-138645619D01*
X91670833Y-138493238D01*
X91670833Y-138226571D01*
X91708928Y-138074190D01*
X91785119Y-137998000D01*
X91861309Y-137959904D01*
X92966071Y-138759904D02*
X92508928Y-138759904D01*
X92737500Y-138759904D02*
X92737500Y-137959904D01*
X92661309Y-138074190D01*
X92585119Y-138150380D01*
X92508928Y-138188476D01*
X93232738Y-137959904D02*
X93727976Y-137959904D01*
X93461309Y-138264666D01*
X93575595Y-138264666D01*
X93651785Y-138302761D01*
X93689880Y-138340857D01*
X93727976Y-138417047D01*
X93727976Y-138607523D01*
X93689880Y-138683714D01*
X93651785Y-138721809D01*
X93575595Y-138759904D01*
X93347023Y-138759904D01*
X93270833Y-138721809D01*
X93232738Y-138683714D01*
X94642261Y-137921809D02*
X93956547Y-138950380D01*
X94908928Y-138759904D02*
X94908928Y-137959904D01*
X95175595Y-138531333D01*
X95442261Y-137959904D01*
X95442261Y-138759904D01*
X95975595Y-137959904D02*
X96127976Y-137959904D01*
X96204166Y-137998000D01*
X96280357Y-138074190D01*
X96318452Y-138226571D01*
X96318452Y-138493238D01*
X96280357Y-138645619D01*
X96204166Y-138721809D01*
X96127976Y-138759904D01*
X95975595Y-138759904D01*
X95899404Y-138721809D01*
X95823214Y-138645619D01*
X95785119Y-138493238D01*
X95785119Y-138226571D01*
X95823214Y-138074190D01*
X95899404Y-137998000D01*
X95975595Y-137959904D01*
X96623214Y-138721809D02*
X96737500Y-138759904D01*
X96927976Y-138759904D01*
X97004166Y-138721809D01*
X97042261Y-138683714D01*
X97080357Y-138607523D01*
X97080357Y-138531333D01*
X97042261Y-138455142D01*
X97004166Y-138417047D01*
X96927976Y-138378952D01*
X96775595Y-138340857D01*
X96699404Y-138302761D01*
X96661309Y-138264666D01*
X96623214Y-138188476D01*
X96623214Y-138112285D01*
X96661309Y-138036095D01*
X96699404Y-137998000D01*
X96775595Y-137959904D01*
X96966071Y-137959904D01*
X97080357Y-137998000D01*
X97423214Y-138759904D02*
X97423214Y-137959904D01*
X91327976Y-141335904D02*
X91327976Y-140535904D01*
X91861309Y-140535904D02*
X92013690Y-140535904D01*
X92089880Y-140574000D01*
X92166071Y-140650190D01*
X92204166Y-140802571D01*
X92204166Y-141069238D01*
X92166071Y-141221619D01*
X92089880Y-141297809D01*
X92013690Y-141335904D01*
X91861309Y-141335904D01*
X91785119Y-141297809D01*
X91708928Y-141221619D01*
X91670833Y-141069238D01*
X91670833Y-140802571D01*
X91708928Y-140650190D01*
X91785119Y-140574000D01*
X91861309Y-140535904D01*
X92508928Y-140612095D02*
X92547023Y-140574000D01*
X92623214Y-140535904D01*
X92813690Y-140535904D01*
X92889880Y-140574000D01*
X92927976Y-140612095D01*
X92966071Y-140688285D01*
X92966071Y-140764476D01*
X92927976Y-140878761D01*
X92470833Y-141335904D01*
X92966071Y-141335904D01*
X93689880Y-140535904D02*
X93308928Y-140535904D01*
X93270833Y-140916857D01*
X93308928Y-140878761D01*
X93385119Y-140840666D01*
X93575595Y-140840666D01*
X93651785Y-140878761D01*
X93689880Y-140916857D01*
X93727976Y-140993047D01*
X93727976Y-141183523D01*
X93689880Y-141259714D01*
X93651785Y-141297809D01*
X93575595Y-141335904D01*
X93385119Y-141335904D01*
X93308928Y-141297809D01*
X93270833Y-141259714D01*
X94642261Y-140497809D02*
X93956547Y-141526380D01*
X94870833Y-141107333D02*
X95251785Y-141107333D01*
X94794642Y-141335904D02*
X95061309Y-140535904D01*
X95327976Y-141335904D01*
X96013690Y-141335904D02*
X95556547Y-141335904D01*
X95785119Y-141335904D02*
X95785119Y-140535904D01*
X95708928Y-140650190D01*
X95632738Y-140726380D01*
X95556547Y-140764476D01*
X91327976Y-143911904D02*
X91327976Y-143111904D01*
X91861309Y-143111904D02*
X92013690Y-143111904D01*
X92089880Y-143150000D01*
X92166071Y-143226190D01*
X92204166Y-143378571D01*
X92204166Y-143645238D01*
X92166071Y-143797619D01*
X92089880Y-143873809D01*
X92013690Y-143911904D01*
X91861309Y-143911904D01*
X91785119Y-143873809D01*
X91708928Y-143797619D01*
X91670833Y-143645238D01*
X91670833Y-143378571D01*
X91708928Y-143226190D01*
X91785119Y-143150000D01*
X91861309Y-143111904D01*
X92508928Y-143188095D02*
X92547023Y-143150000D01*
X92623214Y-143111904D01*
X92813690Y-143111904D01*
X92889880Y-143150000D01*
X92927976Y-143188095D01*
X92966071Y-143264285D01*
X92966071Y-143340476D01*
X92927976Y-143454761D01*
X92470833Y-143911904D01*
X92966071Y-143911904D01*
X93651785Y-143111904D02*
X93499404Y-143111904D01*
X93423214Y-143150000D01*
X93385119Y-143188095D01*
X93308928Y-143302380D01*
X93270833Y-143454761D01*
X93270833Y-143759523D01*
X93308928Y-143835714D01*
X93347023Y-143873809D01*
X93423214Y-143911904D01*
X93575595Y-143911904D01*
X93651785Y-143873809D01*
X93689880Y-143835714D01*
X93727976Y-143759523D01*
X93727976Y-143569047D01*
X93689880Y-143492857D01*
X93651785Y-143454761D01*
X93575595Y-143416666D01*
X93423214Y-143416666D01*
X93347023Y-143454761D01*
X93308928Y-143492857D01*
X93270833Y-143569047D01*
X94642261Y-143073809D02*
X93956547Y-144102380D01*
X94870833Y-143683333D02*
X95251785Y-143683333D01*
X94794642Y-143911904D02*
X95061309Y-143111904D01*
X95327976Y-143911904D01*
X95747023Y-143111904D02*
X95823214Y-143111904D01*
X95899404Y-143150000D01*
X95937500Y-143188095D01*
X95975595Y-143264285D01*
X96013690Y-143416666D01*
X96013690Y-143607142D01*
X95975595Y-143759523D01*
X95937500Y-143835714D01*
X95899404Y-143873809D01*
X95823214Y-143911904D01*
X95747023Y-143911904D01*
X95670833Y-143873809D01*
X95632738Y-143835714D01*
X95594642Y-143759523D01*
X95556547Y-143607142D01*
X95556547Y-143416666D01*
X95594642Y-143264285D01*
X95632738Y-143188095D01*
X95670833Y-143150000D01*
X95747023Y-143111904D01*
X91251785Y-145687904D02*
X91747023Y-145687904D01*
X91480357Y-145992666D01*
X91594642Y-145992666D01*
X91670833Y-146030761D01*
X91708928Y-146068857D01*
X91747023Y-146145047D01*
X91747023Y-146335523D01*
X91708928Y-146411714D01*
X91670833Y-146449809D01*
X91594642Y-146487904D01*
X91366071Y-146487904D01*
X91289880Y-146449809D01*
X91251785Y-146411714D01*
X92089880Y-146411714D02*
X92127976Y-146449809D01*
X92089880Y-146487904D01*
X92051785Y-146449809D01*
X92089880Y-146411714D01*
X92089880Y-146487904D01*
X92394642Y-145687904D02*
X92889880Y-145687904D01*
X92623214Y-145992666D01*
X92737500Y-145992666D01*
X92813690Y-146030761D01*
X92851785Y-146068857D01*
X92889880Y-146145047D01*
X92889880Y-146335523D01*
X92851785Y-146411714D01*
X92813690Y-146449809D01*
X92737500Y-146487904D01*
X92508928Y-146487904D01*
X92432738Y-146449809D01*
X92394642Y-146411714D01*
X93118452Y-145687904D02*
X93385119Y-146487904D01*
X93651785Y-145687904D01*
X91708928Y-148263904D02*
X91327976Y-148263904D01*
X91289880Y-148644857D01*
X91327976Y-148606761D01*
X91404166Y-148568666D01*
X91594642Y-148568666D01*
X91670833Y-148606761D01*
X91708928Y-148644857D01*
X91747023Y-148721047D01*
X91747023Y-148911523D01*
X91708928Y-148987714D01*
X91670833Y-149025809D01*
X91594642Y-149063904D01*
X91404166Y-149063904D01*
X91327976Y-149025809D01*
X91289880Y-148987714D01*
X91975595Y-148263904D02*
X92242261Y-149063904D01*
X92508928Y-148263904D01*
X91747023Y-150878000D02*
X91670833Y-150839904D01*
X91556547Y-150839904D01*
X91442261Y-150878000D01*
X91366071Y-150954190D01*
X91327976Y-151030380D01*
X91289880Y-151182761D01*
X91289880Y-151297047D01*
X91327976Y-151449428D01*
X91366071Y-151525619D01*
X91442261Y-151601809D01*
X91556547Y-151639904D01*
X91632738Y-151639904D01*
X91747023Y-151601809D01*
X91785119Y-151563714D01*
X91785119Y-151297047D01*
X91632738Y-151297047D01*
X92127976Y-151639904D02*
X92127976Y-150839904D01*
X92585119Y-151639904D01*
X92585119Y-150839904D01*
X92966071Y-151639904D02*
X92966071Y-150839904D01*
X93156547Y-150839904D01*
X93270833Y-150878000D01*
X93347023Y-150954190D01*
X93385119Y-151030380D01*
X93423214Y-151182761D01*
X93423214Y-151297047D01*
X93385119Y-151449428D01*
X93347023Y-151525619D01*
X93270833Y-151601809D01*
X93156547Y-151639904D01*
X92966071Y-151639904D01*
X164348095Y-85365000D02*
X164252857Y-85317380D01*
X164110000Y-85317380D01*
X163967142Y-85365000D01*
X163871904Y-85460238D01*
X163824285Y-85555476D01*
X163776666Y-85745952D01*
X163776666Y-85888809D01*
X163824285Y-86079285D01*
X163871904Y-86174523D01*
X163967142Y-86269761D01*
X164110000Y-86317380D01*
X164205238Y-86317380D01*
X164348095Y-86269761D01*
X164395714Y-86222142D01*
X164395714Y-85888809D01*
X164205238Y-85888809D01*
X164824285Y-86317380D02*
X164824285Y-85317380D01*
X165395714Y-86317380D01*
X165395714Y-85317380D01*
X165871904Y-86317380D02*
X165871904Y-85317380D01*
X166110000Y-85317380D01*
X166252857Y-85365000D01*
X166348095Y-85460238D01*
X166395714Y-85555476D01*
X166443333Y-85745952D01*
X166443333Y-85888809D01*
X166395714Y-86079285D01*
X166348095Y-86174523D01*
X166252857Y-86269761D01*
X166110000Y-86317380D01*
X165871904Y-86317380D01*
X156120000Y-86317380D02*
X155643809Y-86317380D01*
X155643809Y-85317380D01*
X156453333Y-85793571D02*
X156786666Y-85793571D01*
X156929523Y-86317380D02*
X156453333Y-86317380D01*
X156453333Y-85317380D01*
X156929523Y-85317380D01*
X157358095Y-86317380D02*
X157358095Y-85317380D01*
X157596190Y-85317380D01*
X157739047Y-85365000D01*
X157834285Y-85460238D01*
X157881904Y-85555476D01*
X157929523Y-85745952D01*
X157929523Y-85888809D01*
X157881904Y-86079285D01*
X157834285Y-86174523D01*
X157739047Y-86269761D01*
X157596190Y-86317380D01*
X157358095Y-86317380D01*
X159643809Y-86317380D02*
X159072380Y-86317380D01*
X159358095Y-86317380D02*
X159358095Y-85317380D01*
X159262857Y-85460238D01*
X159167619Y-85555476D01*
X159072380Y-85603095D01*
X155762857Y-88308333D02*
X155715238Y-88260714D01*
X155620000Y-88117857D01*
X155572380Y-88022619D01*
X155524761Y-87879761D01*
X155477142Y-87641666D01*
X155477142Y-87451190D01*
X155524761Y-87213095D01*
X155572380Y-87070238D01*
X155620000Y-86975000D01*
X155715238Y-86832142D01*
X155762857Y-86784523D01*
X156143809Y-87927380D02*
X156143809Y-86927380D01*
X156810476Y-86927380D02*
X157000952Y-86927380D01*
X157096190Y-86975000D01*
X157191428Y-87070238D01*
X157239047Y-87260714D01*
X157239047Y-87594047D01*
X157191428Y-87784523D01*
X157096190Y-87879761D01*
X157000952Y-87927380D01*
X156810476Y-87927380D01*
X156715238Y-87879761D01*
X156620000Y-87784523D01*
X156572380Y-87594047D01*
X156572380Y-87260714D01*
X156620000Y-87070238D01*
X156715238Y-86975000D01*
X156810476Y-86927380D01*
X158191428Y-87927380D02*
X157620000Y-87927380D01*
X157905714Y-87927380D02*
X157905714Y-86927380D01*
X157810476Y-87070238D01*
X157715238Y-87165476D01*
X157620000Y-87213095D01*
X159048571Y-86927380D02*
X158858095Y-86927380D01*
X158762857Y-86975000D01*
X158715238Y-87022619D01*
X158620000Y-87165476D01*
X158572380Y-87355952D01*
X158572380Y-87736904D01*
X158620000Y-87832142D01*
X158667619Y-87879761D01*
X158762857Y-87927380D01*
X158953333Y-87927380D01*
X159048571Y-87879761D01*
X159096190Y-87832142D01*
X159143809Y-87736904D01*
X159143809Y-87498809D01*
X159096190Y-87403571D01*
X159048571Y-87355952D01*
X158953333Y-87308333D01*
X158762857Y-87308333D01*
X158667619Y-87355952D01*
X158620000Y-87403571D01*
X158572380Y-87498809D01*
X159477142Y-88308333D02*
X159524761Y-88260714D01*
X159620000Y-88117857D01*
X159667619Y-88022619D01*
X159715238Y-87879761D01*
X159762857Y-87641666D01*
X159762857Y-87451190D01*
X159715238Y-87213095D01*
X159667619Y-87070238D01*
X159620000Y-86975000D01*
X159524761Y-86832142D01*
X159477142Y-86784523D01*
X136997619Y-149062380D02*
X136664285Y-148586190D01*
X136426190Y-149062380D02*
X136426190Y-148062380D01*
X136807142Y-148062380D01*
X136902380Y-148110000D01*
X136950000Y-148157619D01*
X136997619Y-148252857D01*
X136997619Y-148395714D01*
X136950000Y-148490952D01*
X136902380Y-148538571D01*
X136807142Y-148586190D01*
X136426190Y-148586190D01*
X137426190Y-148538571D02*
X137759523Y-148538571D01*
X137902380Y-149062380D02*
X137426190Y-149062380D01*
X137426190Y-148062380D01*
X137902380Y-148062380D01*
X138283333Y-149014761D02*
X138426190Y-149062380D01*
X138664285Y-149062380D01*
X138759523Y-149014761D01*
X138807142Y-148967142D01*
X138854761Y-148871904D01*
X138854761Y-148776666D01*
X138807142Y-148681428D01*
X138759523Y-148633809D01*
X138664285Y-148586190D01*
X138473809Y-148538571D01*
X138378571Y-148490952D01*
X138330952Y-148443333D01*
X138283333Y-148348095D01*
X138283333Y-148252857D01*
X138330952Y-148157619D01*
X138378571Y-148110000D01*
X138473809Y-148062380D01*
X138711904Y-148062380D01*
X138854761Y-148110000D01*
X139283333Y-148538571D02*
X139616666Y-148538571D01*
X139759523Y-149062380D02*
X139283333Y-149062380D01*
X139283333Y-148062380D01*
X139759523Y-148062380D01*
X140045238Y-148062380D02*
X140616666Y-148062380D01*
X140330952Y-149062380D02*
X140330952Y-148062380D01*
X149909523Y-85317380D02*
X149433333Y-85317380D01*
X149385714Y-85793571D01*
X149433333Y-85745952D01*
X149528571Y-85698333D01*
X149766666Y-85698333D01*
X149861904Y-85745952D01*
X149909523Y-85793571D01*
X149957142Y-85888809D01*
X149957142Y-86126904D01*
X149909523Y-86222142D01*
X149861904Y-86269761D01*
X149766666Y-86317380D01*
X149528571Y-86317380D01*
X149433333Y-86269761D01*
X149385714Y-86222142D01*
X150242857Y-85317380D02*
X150576190Y-86317380D01*
X150909523Y-85317380D01*
X129732857Y-148538571D02*
X129875714Y-148586190D01*
X129923333Y-148633809D01*
X129970952Y-148729047D01*
X129970952Y-148871904D01*
X129923333Y-148967142D01*
X129875714Y-149014761D01*
X129780476Y-149062380D01*
X129399523Y-149062380D01*
X129399523Y-148062380D01*
X129732857Y-148062380D01*
X129828095Y-148110000D01*
X129875714Y-148157619D01*
X129923333Y-148252857D01*
X129923333Y-148348095D01*
X129875714Y-148443333D01*
X129828095Y-148490952D01*
X129732857Y-148538571D01*
X129399523Y-148538571D01*
X130590000Y-148062380D02*
X130780476Y-148062380D01*
X130875714Y-148110000D01*
X130970952Y-148205238D01*
X131018571Y-148395714D01*
X131018571Y-148729047D01*
X130970952Y-148919523D01*
X130875714Y-149014761D01*
X130780476Y-149062380D01*
X130590000Y-149062380D01*
X130494761Y-149014761D01*
X130399523Y-148919523D01*
X130351904Y-148729047D01*
X130351904Y-148395714D01*
X130399523Y-148205238D01*
X130494761Y-148110000D01*
X130590000Y-148062380D01*
X131637619Y-148062380D02*
X131828095Y-148062380D01*
X131923333Y-148110000D01*
X132018571Y-148205238D01*
X132066190Y-148395714D01*
X132066190Y-148729047D01*
X132018571Y-148919523D01*
X131923333Y-149014761D01*
X131828095Y-149062380D01*
X131637619Y-149062380D01*
X131542380Y-149014761D01*
X131447142Y-148919523D01*
X131399523Y-148729047D01*
X131399523Y-148395714D01*
X131447142Y-148205238D01*
X131542380Y-148110000D01*
X131637619Y-148062380D01*
X132351904Y-148062380D02*
X132923333Y-148062380D01*
X132637619Y-149062380D02*
X132637619Y-148062380D01*
%TO.C,U1*%
X158260000Y-95002380D02*
X158260000Y-95240476D01*
X158021904Y-95145238D02*
X158260000Y-95240476D01*
X158498095Y-95145238D01*
X158117142Y-95430952D02*
X158260000Y-95240476D01*
X158402857Y-95430952D01*
D11*
%TO.C,R2*%
X100367500Y-168995276D02*
X100367500Y-169504724D01*
X101412500Y-168995276D02*
X101412500Y-169504724D01*
D10*
%TO.C,U3*%
X146534345Y-134989244D02*
X147034345Y-134989244D01*
X142034345Y-134989244D02*
X142034345Y-135489244D01*
X146534345Y-139989244D02*
X147034345Y-139989244D01*
X147034345Y-134989244D02*
X147034345Y-135489244D01*
X142034345Y-139989244D02*
X142034345Y-139489244D01*
X142534345Y-139989244D02*
X142034345Y-139989244D01*
X147034345Y-139989244D02*
X147034345Y-139489244D01*
X142534345Y-134989244D02*
X142034345Y-134989244D01*
D12*
X141865345Y-134669844D02*
G75*
G03*
X141865345Y-134669844I-125000J0D01*
G01*
D11*
%TO.C,C11*%
X133928583Y-134252100D02*
X134221117Y-134252100D01*
X133928583Y-133232100D02*
X134221117Y-133232100D01*
%TO.C,U1*%
X152522100Y-94882700D02*
X157017900Y-94882700D01*
X157017900Y-89777300D02*
X152522100Y-89777300D01*
X155074800Y-94882700D02*
G75*
G03*
X154465200Y-94882700I-304800J0D01*
G01*
%TO.C,C6*%
X138060858Y-139863733D02*
X138060858Y-140156267D01*
X139080858Y-139863733D02*
X139080858Y-140156267D01*
%TO.C,R4*%
X145099574Y-106364600D02*
X144590126Y-106364600D01*
X145099574Y-105319600D02*
X144590126Y-105319600D01*
%TO.C,C10*%
X144698583Y-103522100D02*
X144991117Y-103522100D01*
X144698583Y-104542100D02*
X144991117Y-104542100D01*
D13*
%TO.C,U5*%
X143640000Y-130240000D02*
X145040000Y-130240000D01*
X143640000Y-132440000D02*
X145040000Y-132440000D01*
X145433472Y-132434209D02*
G75*
G03*
X145430932Y-132434209I-1270J-134405D01*
G01*
D14*
X145423439Y-132439924D02*
G75*
G03*
X145423439Y-132439924I-29997J0D01*
G01*
D11*
%TO.C,R7*%
X133820126Y-130624600D02*
X134329574Y-130624600D01*
X133820126Y-129579600D02*
X134329574Y-129579600D01*
%TO.C,C4*%
X141020000Y-89524437D02*
X141020000Y-95280000D01*
X141020000Y-95280000D02*
X143370000Y-95280000D01*
X142084437Y-88460000D02*
X143370000Y-88460000D01*
X146277500Y-87432500D02*
X146277500Y-88220000D01*
X146775563Y-88460000D02*
X147840000Y-89524437D01*
X146775563Y-88460000D02*
X145490000Y-88460000D01*
X147840000Y-95280000D02*
X145490000Y-95280000D01*
X147840000Y-89524437D02*
X147840000Y-95280000D01*
X142084437Y-88460000D02*
X141020000Y-89524437D01*
X146671250Y-87826250D02*
X145883750Y-87826250D01*
%TO.C,C5*%
X139830858Y-140156267D02*
X139830858Y-139863733D01*
X140850858Y-140156267D02*
X140850858Y-139863733D01*
D15*
%TO.C,U2*%
X132310000Y-110060000D02*
X131660000Y-110060000D01*
X131660000Y-110060000D02*
X131660000Y-112510000D01*
X131660000Y-128060000D02*
X132310000Y-128060000D01*
X131660000Y-125610000D02*
X131660000Y-128060000D01*
D13*
X149760000Y-109060000D02*
G75*
G03*
X149760000Y-109060000I-100000J0D01*
G01*
D11*
%TO.C,C9*%
X140280000Y-105998767D02*
X140280000Y-105706233D01*
X141300000Y-105998767D02*
X141300000Y-105706233D01*
%TO.C,J1*%
X90870000Y-134630000D02*
X90870000Y-135960000D01*
X90870000Y-137230000D02*
X90870000Y-152530000D01*
X88210000Y-152530000D02*
X90870000Y-152530000D01*
X88210000Y-137230000D02*
X90870000Y-137230000D01*
X88210000Y-137230000D02*
X88210000Y-152530000D01*
X89540000Y-134630000D02*
X90870000Y-134630000D01*
D16*
%TO.C,C12*%
X139895006Y-87320000D02*
X139895006Y-94720000D01*
D11*
%TO.C,R3*%
X98187500Y-168995276D02*
X98187500Y-169504724D01*
X99232500Y-168995276D02*
X99232500Y-169504724D01*
%TO.C,F1*%
X90043748Y-162770000D02*
X92816252Y-162770000D01*
X90043748Y-166190000D02*
X92816252Y-166190000D01*
%TO.C,R6*%
X144590126Y-108184600D02*
X145099574Y-108184600D01*
X144590126Y-107139600D02*
X145099574Y-107139600D01*
D17*
%TO.C,U6*%
X138999975Y-104600513D02*
X138999975Y-105000513D01*
X139200000Y-107420579D02*
X138547142Y-107420579D01*
X138599975Y-104600513D02*
X138999975Y-104600513D01*
X135200000Y-107400538D02*
X135200000Y-106758654D01*
X139199009Y-105042042D02*
X139199009Y-104399421D01*
X135219964Y-107420579D02*
X135200000Y-107400538D01*
X135841885Y-104400538D02*
X135200000Y-104400538D01*
X139200000Y-107420579D02*
X139200000Y-106758654D01*
X135852858Y-107420579D02*
X135219964Y-107420579D01*
X139199009Y-104399421D02*
X138838278Y-104399421D01*
X138837668Y-104400538D02*
X138558115Y-104400538D01*
X135200000Y-105042423D02*
X135200000Y-104400538D01*
D14*
X139229972Y-104400513D02*
G75*
G03*
X139229972Y-104400513I-29997J0D01*
G01*
D11*
%TO.C,U4*%
X105860000Y-154860000D02*
X107120000Y-154860000D01*
X112680000Y-154860000D02*
X111420000Y-154860000D01*
X105860000Y-160870000D02*
X105860000Y-154860000D01*
X112680000Y-158620000D02*
X112680000Y-154860000D01*
%TO.C,C7*%
X113320000Y-159373733D02*
X113320000Y-159666267D01*
X114340000Y-159373733D02*
X114340000Y-159666267D01*
%TO.C,R5*%
X134329574Y-132444600D02*
X133820126Y-132444600D01*
X134329574Y-131399600D02*
X133820126Y-131399600D01*
%TO.C,C1*%
X148701117Y-107152100D02*
X148408583Y-107152100D01*
X148701117Y-108172100D02*
X148408583Y-108172100D01*
%TO.C,R1*%
X160675276Y-93532500D02*
X161184724Y-93532500D01*
X160675276Y-92487500D02*
X161184724Y-92487500D01*
%TO.C,C8*%
X113320000Y-154166267D02*
X113320000Y-153873733D01*
X114340000Y-154166267D02*
X114340000Y-153873733D01*
%TO.C,C2*%
X149090000Y-93632967D02*
X149090000Y-93340433D01*
X150110000Y-93632967D02*
X150110000Y-93340433D01*
%TO.C,R8*%
X160675276Y-90487500D02*
X161184724Y-90487500D01*
X160675276Y-91532500D02*
X161184724Y-91532500D01*
%TO.C,C3*%
X102605563Y-164110000D02*
X101320000Y-164110000D01*
X96850000Y-163045563D02*
X96850000Y-157290000D01*
X103670000Y-157290000D02*
X101320000Y-157290000D01*
X97914437Y-164110000D02*
X99200000Y-164110000D01*
X98412500Y-165137500D02*
X98412500Y-164350000D01*
X97914437Y-164110000D02*
X96850000Y-163045563D01*
X96850000Y-157290000D02*
X99200000Y-157290000D01*
X98018750Y-164743750D02*
X98806250Y-164743750D01*
X102605563Y-164110000D02*
X103670000Y-163045563D01*
X103670000Y-163045563D02*
X103670000Y-157290000D01*
%TD*%
M02*
