%TF.GenerationSoftware,KiCad,Pcbnew,(6.0.4-0)*%
%TF.CreationDate,2022-05-05T16:48:37+02:00*%
%TF.ProjectId,GlowTube,476c6f77-5475-4626-952e-6b696361645f,rev?*%
%TF.SameCoordinates,Original*%
%TF.FileFunction,Copper,L2,Bot*%
%TF.FilePolarity,Positive*%
%FSLAX46Y46*%
G04 Gerber Fmt 4.6, Leading zero omitted, Abs format (unit mm)*
G04 Created by KiCad (PCBNEW (6.0.4-0)) date 2022-05-05 16:48:37*
%MOMM*%
%LPD*%
G01*
G04 APERTURE LIST*
%TA.AperFunction,ComponentPad*%
%ADD10C,0.300000*%
%TD*%
%TA.AperFunction,ComponentPad*%
%ADD11R,1.700000X1.700000*%
%TD*%
%TA.AperFunction,ComponentPad*%
%ADD12O,1.700000X1.700000*%
%TD*%
%TA.AperFunction,ComponentPad*%
%ADD13C,1.600000*%
%TD*%
%TA.AperFunction,ComponentPad*%
%ADD14C,2.100000*%
%TD*%
%TA.AperFunction,ComponentPad*%
%ADD15C,0.700000*%
%TD*%
%TA.AperFunction,ComponentPad*%
%ADD16O,1.200000X2.200000*%
%TD*%
%TA.AperFunction,ComponentPad*%
%ADD17O,1.200000X1.800000*%
%TD*%
%TA.AperFunction,SMDPad,CuDef*%
%ADD18R,2.000000X3.500000*%
%TD*%
%TA.AperFunction,ViaPad*%
%ADD19C,0.800000*%
%TD*%
%TA.AperFunction,Conductor*%
%ADD20C,1.500000*%
%TD*%
%TA.AperFunction,Conductor*%
%ADD21C,2.500000*%
%TD*%
%TA.AperFunction,Conductor*%
%ADD22C,0.160000*%
%TD*%
%TA.AperFunction,Conductor*%
%ADD23C,1.000000*%
%TD*%
%TA.AperFunction,Conductor*%
%ADD24C,2.000000*%
%TD*%
%TA.AperFunction,Conductor*%
%ADD25C,0.700000*%
%TD*%
%TA.AperFunction,Conductor*%
%ADD26C,0.250000*%
%TD*%
%TA.AperFunction,Conductor*%
%ADD27C,0.300000*%
%TD*%
G04 APERTURE END LIST*
D10*
%TO.P,U2,39_10,GND*%
%TO.N,GND*%
X144005000Y-117142500D03*
%TO.P,U2,39_11,GND*%
X144005000Y-118977500D03*
%TO.P,U2,39_12,GND*%
X143087500Y-116225000D03*
%TO.P,U2,39_13,GND*%
X143087500Y-118060000D03*
%TO.P,U2,39_14,GND*%
X143087500Y-119895000D03*
%TO.P,U2,39_15,GND*%
X142170000Y-117142500D03*
%TO.P,U2,39_16,GND*%
X142170000Y-118977500D03*
%TO.P,U2,39_17,GND*%
X141252500Y-116225000D03*
%TO.P,U2,39_18,GND*%
X141252500Y-118060000D03*
%TO.P,U2,39_19,GND*%
X141252500Y-119895000D03*
%TO.P,U2,39_20,GND*%
X140335000Y-117142500D03*
%TO.P,U2,39_21,GND*%
X140335000Y-118977500D03*
%TD*%
D11*
%TO.P,J1,1,Pin_1*%
%TO.N,IO12{slash}MISO*%
X89540000Y-135960000D03*
D12*
%TO.P,J1,2,Pin_2*%
%TO.N,IO13{slash}MOSI*%
X89540000Y-138500000D03*
%TO.P,J1,3,Pin_3*%
%TO.N,IO25{slash}A1{slash}DAC1*%
X89540000Y-141040000D03*
%TO.P,J1,4,Pin_4*%
%TO.N,IO26{slash}A0{slash}DAC2*%
X89540000Y-143580000D03*
%TO.P,J1,5,Pin_5*%
%TO.N,+3V3*%
X89540000Y-146120000D03*
%TO.P,J1,6,Pin_6*%
%TO.N,+5V*%
X89540000Y-148660000D03*
%TO.P,J1,7,Pin_7*%
%TO.N,GND*%
X89540000Y-151200000D03*
%TD*%
D13*
%TO.P,C12,1,1*%
%TO.N,GND*%
X135845044Y-88770064D03*
%TO.P,C12,2,2*%
%TO.N,IO33{slash}MAINBUTTON*%
X135845044Y-93269936D03*
D14*
%TO.P,C12,3,3*%
%TO.N,unconnected-(C12-Pad3)*%
X138344917Y-87420051D03*
%TO.P,C12,4,4*%
%TO.N,unconnected-(C12-Pad4)*%
X138344917Y-94619949D03*
%TD*%
D15*
%TO.P,USB1,*%
%TO.N,*%
X89020000Y-169740000D03*
X94800000Y-169740000D03*
D16*
%TO.P,USB1,SHELL,SHELL*%
%TO.N,GND*%
X87590000Y-169240000D03*
D17*
X87590000Y-173420000D03*
X96230000Y-173420000D03*
D16*
X96230000Y-169240000D03*
%TD*%
D18*
%TO.P,P6,1*%
%TO.N,LED2 DATA OUT*%
X157680000Y-82710000D03*
%TD*%
%TO.P,P5,1*%
%TO.N,GND*%
X165096200Y-82710000D03*
%TD*%
%TO.P,P4,1*%
%TO.N,+5V*%
X150206200Y-82710000D03*
%TD*%
D19*
%TO.N,+5V*%
X137665000Y-142515000D03*
X94300000Y-159510000D03*
X147070000Y-84400000D03*
X147280000Y-94330000D03*
X116860000Y-163120000D03*
X147865000Y-83725000D03*
X115330000Y-163120000D03*
X147280000Y-92720000D03*
X95410000Y-160630000D03*
%TO.N,GND*%
X138830000Y-108090000D03*
X102430000Y-158290000D03*
X136790000Y-133640000D03*
X115650000Y-157270000D03*
X142300000Y-92840000D03*
X138610000Y-135010000D03*
X132135000Y-140785000D03*
X134420000Y-106100000D03*
X150000000Y-88890000D03*
X162610000Y-83820000D03*
X134340000Y-113340000D03*
X129295000Y-143625000D03*
X163335000Y-83095000D03*
X138640000Y-103490000D03*
X143030000Y-93610000D03*
X103270000Y-159130000D03*
X139699512Y-105900488D03*
%TO.N,+3V3*%
X135710000Y-103190000D03*
X129150000Y-135990000D03*
X140940000Y-124920000D03*
X138870000Y-131250000D03*
%TO.N,RESET*%
X144210000Y-121820000D03*
X142220000Y-131990000D03*
%TO.N,IO25{slash}A1{slash}DAC1*%
X126710000Y-129300000D03*
X135300000Y-117650000D03*
%TO.N,IO26{slash}A0{slash}DAC2*%
X136260000Y-112420000D03*
X129830000Y-110880000D03*
%TO.N,IO14{slash}SCK*%
X135240000Y-107380000D03*
X134400000Y-108870000D03*
%TO.N,IO15{slash}WS*%
X129860000Y-120490000D03*
X134940000Y-104450000D03*
%TO.N,IO16{slash}LED1*%
X142260000Y-101910000D03*
X142120000Y-112810000D03*
%TO.N,LED2 DATA OUT*%
X157590000Y-85790000D03*
%TO.N,RXD0*%
X143930000Y-125650000D03*
X143210000Y-133180000D03*
%TO.N,TXD0*%
X144790000Y-129470000D03*
X144320000Y-132940000D03*
%TO.N,USB-C DATA+*%
X129920000Y-137170000D03*
X92830000Y-170480000D03*
%TO.N,USB-C DATA-*%
X91830000Y-171230000D03*
X130890000Y-138120000D03*
%TO.N,IO13{slash}MOSI*%
X130220000Y-114620000D03*
X125400000Y-126770000D03*
%TO.N,Net-(R4-Pad1)*%
X142480000Y-146420000D03*
X148810000Y-105730000D03*
%TO.N,Net-(R5-Pad1)*%
X131100000Y-145870000D03*
X137430000Y-132260000D03*
%TO.N,IO17{slash}LED2*%
X144150000Y-99670000D03*
X155670000Y-92580000D03*
X152720000Y-95720000D03*
X144050000Y-113130000D03*
%TD*%
D20*
%TO.N,+5V*%
X149040000Y-82550000D02*
X150046200Y-82550000D01*
X150046200Y-82550000D02*
X150206200Y-82710000D01*
D21*
X146860000Y-128694395D02*
X146860000Y-94750000D01*
D20*
X94300000Y-159510000D02*
X94300000Y-157550000D01*
D21*
X117060000Y-163120000D02*
X137665000Y-142515000D01*
X146909511Y-133270489D02*
X146909511Y-128743906D01*
D20*
X147190000Y-84400000D02*
X147865000Y-83725000D01*
D21*
X146909511Y-128743906D02*
X146860000Y-128694395D01*
X116860000Y-163120000D02*
X117060000Y-163120000D01*
X137665000Y-142515000D02*
X146909511Y-133270489D01*
D20*
X94300000Y-157550000D02*
X94170000Y-157420000D01*
X95410000Y-160630000D02*
X95410000Y-160620000D01*
X94170000Y-157420000D02*
X94170000Y-150010000D01*
X92820000Y-148660000D02*
X89540000Y-148660000D01*
X147280000Y-94330000D02*
X147280000Y-92720000D01*
X94170000Y-150010000D02*
X92820000Y-148660000D01*
X147070000Y-84400000D02*
X147190000Y-84400000D01*
X147865000Y-83725000D02*
X149040000Y-82550000D01*
D21*
X146860000Y-94750000D02*
X147280000Y-94330000D01*
D20*
X95410000Y-160620000D02*
X94300000Y-159510000D01*
D21*
%TO.N,GND*%
X133159511Y-124870489D02*
X133159511Y-133070489D01*
D22*
X134340000Y-113340000D02*
X135680000Y-114680000D01*
D23*
X135845044Y-88770064D02*
X139914980Y-92840000D01*
D22*
X134420000Y-106100000D02*
X138610000Y-106100000D01*
D20*
X163335000Y-83095000D02*
X163800000Y-82630000D01*
D21*
X139080000Y-98640000D02*
X139080000Y-106570000D01*
D20*
X162610000Y-83820000D02*
X163335000Y-83095000D01*
X142410000Y-92950000D02*
X142300000Y-92840000D01*
D22*
X138610000Y-135010000D02*
X138610000Y-134890000D01*
D20*
X165016200Y-82630000D02*
X165096200Y-82710000D01*
X142300000Y-91620000D02*
X145030000Y-88890000D01*
D21*
X112860000Y-160060000D02*
X104200000Y-160060000D01*
D22*
X136790000Y-133640000D02*
X136220489Y-133070489D01*
D21*
X142600000Y-92950000D02*
X142600000Y-95120000D01*
D20*
X162610000Y-84680000D02*
X162610000Y-83820000D01*
X163800000Y-82630000D02*
X165016200Y-82630000D01*
D24*
X139697500Y-118977500D02*
X139080000Y-118360000D01*
D21*
X133159511Y-133070489D02*
X133159511Y-139760489D01*
X139080000Y-118360000D02*
X139080000Y-118950000D01*
D22*
X138610000Y-106100000D02*
X139080000Y-106570000D01*
D21*
X129295000Y-143625000D02*
X115650000Y-157270000D01*
X139080000Y-118950000D02*
X133159511Y-124870489D01*
D22*
X137360000Y-133640000D02*
X136790000Y-133640000D01*
D21*
X115650000Y-157270000D02*
X112860000Y-160060000D01*
D24*
X144005000Y-117142500D02*
X139657500Y-117142500D01*
D23*
X139914980Y-92840000D02*
X142300000Y-92840000D01*
D24*
X139657500Y-117142500D02*
X139080000Y-117720000D01*
D20*
X102430000Y-158290000D02*
X102430000Y-160820000D01*
X142300000Y-92840000D02*
X142300000Y-91620000D01*
D21*
X139080000Y-117720000D02*
X139080000Y-118360000D01*
D20*
X96230000Y-173420000D02*
X87590000Y-173420000D01*
X96230000Y-169240000D02*
X96230000Y-173420000D01*
D21*
X142600000Y-95120000D02*
X139080000Y-98640000D01*
D20*
X142600000Y-92950000D02*
X142410000Y-92950000D01*
D22*
X135680000Y-114680000D02*
X139080000Y-114680000D01*
X136220489Y-133070489D02*
X133159511Y-133070489D01*
D21*
X139080000Y-106570000D02*
X139080000Y-114680000D01*
D20*
X145030000Y-88890000D02*
X150000000Y-88890000D01*
X158400000Y-88890000D02*
X162610000Y-84680000D01*
D24*
X144005000Y-118977500D02*
X139697500Y-118977500D01*
D20*
X96230000Y-167020000D02*
X96230000Y-169240000D01*
X87590000Y-173420000D02*
X87590000Y-169240000D01*
D22*
X138610000Y-134890000D02*
X137360000Y-133640000D01*
D21*
X132135000Y-140785000D02*
X129295000Y-143625000D01*
X139080000Y-114680000D02*
X139080000Y-117720000D01*
D20*
X150000000Y-88890000D02*
X158400000Y-88890000D01*
X104200000Y-160060000D02*
X103270000Y-159130000D01*
X102430000Y-160820000D02*
X96230000Y-167020000D01*
D21*
X133159511Y-139760489D02*
X132135000Y-140785000D01*
D22*
%TO.N,+3V3*%
X124080000Y-111410000D02*
X124080000Y-130920000D01*
X124080000Y-130920000D02*
X129150000Y-135990000D01*
X140940000Y-125050000D02*
X138870000Y-127120000D01*
X132300000Y-103190000D02*
X124080000Y-111410000D01*
X140940000Y-124920000D02*
X140940000Y-125050000D01*
X135710000Y-103190000D02*
X132300000Y-103190000D01*
X138870000Y-127120000D02*
X138870000Y-131250000D01*
%TO.N,RESET*%
X144210000Y-121820000D02*
X142220000Y-123810000D01*
X142220000Y-123810000D02*
X142220000Y-131990000D01*
D25*
%TO.N,IO25{slash}A1{slash}DAC1*%
X129560000Y-122890000D02*
X134800000Y-117650000D01*
X129560000Y-126450000D02*
X129560000Y-122890000D01*
X126710000Y-129300000D02*
X129560000Y-126450000D01*
X134800000Y-117650000D02*
X135300000Y-117650000D01*
%TO.N,IO26{slash}A0{slash}DAC2*%
X134720000Y-110880000D02*
X129830000Y-110880000D01*
X136260000Y-112420000D02*
X134720000Y-110880000D01*
D22*
%TO.N,IO14{slash}SCK*%
X135240000Y-108030000D02*
X134400000Y-108870000D01*
X135240000Y-107380000D02*
X135240000Y-108030000D01*
%TO.N,IO15{slash}WS*%
X132590000Y-114070000D02*
X131130000Y-112610000D01*
X128620000Y-112610000D02*
X128620000Y-109200000D01*
X128620000Y-109200000D02*
X133370000Y-104450000D01*
X132590000Y-115920000D02*
X132590000Y-114070000D01*
X133370000Y-104450000D02*
X134940000Y-104450000D01*
X129860000Y-120490000D02*
X129860000Y-118650000D01*
X131130000Y-112610000D02*
X128620000Y-112610000D01*
X129860000Y-118650000D02*
X132590000Y-115920000D01*
D26*
%TO.N,IO16{slash}LED1*%
X142120000Y-102050000D02*
X142120000Y-112810000D01*
X142260000Y-101910000D02*
X142120000Y-102050000D01*
%TO.N,LED2 DATA OUT*%
X157680000Y-85700000D02*
X157680000Y-82710000D01*
X157590000Y-85790000D02*
X157680000Y-85700000D01*
D22*
%TO.N,RXD0*%
X143210000Y-126370000D02*
X143930000Y-125650000D01*
X143210000Y-133180000D02*
X143210000Y-126370000D01*
%TO.N,TXD0*%
X144790000Y-129470000D02*
X144320000Y-129940000D01*
X144320000Y-129940000D02*
X144320000Y-132940000D01*
%TO.N,USB-C DATA+*%
X92830000Y-170480000D02*
X92440000Y-170480000D01*
X92230000Y-170270000D02*
X92230000Y-166990000D01*
X99020000Y-156660000D02*
X118510000Y-137170000D01*
X92230000Y-166990000D02*
X99020000Y-160200000D01*
X92440000Y-170480000D02*
X92230000Y-170270000D01*
X118510000Y-137170000D02*
X129920000Y-137170000D01*
X99020000Y-160200000D02*
X99020000Y-156660000D01*
%TO.N,USB-C DATA-*%
X94160000Y-169030000D02*
X93770000Y-169420000D01*
X130890000Y-138120000D02*
X130860000Y-138150000D01*
X94160000Y-166480000D02*
X94160000Y-169030000D01*
X100270000Y-160370000D02*
X94160000Y-166480000D01*
X100400000Y-160370000D02*
X100270000Y-160370000D01*
X93770000Y-169420000D02*
X93770000Y-170970000D01*
X100660000Y-156700000D02*
X100660000Y-160110000D01*
X119210000Y-138150000D02*
X100660000Y-156700000D01*
X93510000Y-171230000D02*
X91830000Y-171230000D01*
X100660000Y-160110000D02*
X100400000Y-160370000D01*
X93770000Y-170970000D02*
X93510000Y-171230000D01*
X130860000Y-138150000D02*
X119210000Y-138150000D01*
D25*
%TO.N,IO13{slash}MOSI*%
X125400000Y-126770000D02*
X125400000Y-119440000D01*
X125400000Y-119440000D02*
X130220000Y-114620000D01*
D22*
%TO.N,Net-(R4-Pad1)*%
X149370000Y-106290000D02*
X149370000Y-139530000D01*
X149370000Y-139530000D02*
X142480000Y-146420000D01*
X148810000Y-105730000D02*
X149370000Y-106290000D01*
%TO.N,Net-(R5-Pad1)*%
X140050000Y-134190000D02*
X138120000Y-132260000D01*
X140050000Y-135680000D02*
X140050000Y-134190000D01*
X136050000Y-140710000D02*
X136050000Y-139680000D01*
X131100000Y-145870000D02*
X131100000Y-145660000D01*
X136050000Y-139680000D02*
X140050000Y-135680000D01*
X131100000Y-145660000D02*
X136050000Y-140710000D01*
X138120000Y-132260000D02*
X137430000Y-132260000D01*
%TO.N,IO17{slash}LED2*%
X152720000Y-95530000D02*
X152720000Y-95720000D01*
D27*
X155670000Y-92580000D02*
X152720000Y-95530000D01*
D26*
X144050000Y-99770000D02*
X144050000Y-113130000D01*
X144150000Y-99670000D02*
X144050000Y-99770000D01*
%TD*%
%TA.AperFunction,Conductor*%
%TO.N,GND*%
G36*
X156089546Y-81283017D02*
G01*
X156146377Y-81325570D01*
X156171180Y-81392093D01*
X156171500Y-81401068D01*
X156171500Y-84508134D01*
X156178255Y-84570316D01*
X156229385Y-84706705D01*
X156316739Y-84823261D01*
X156433295Y-84910615D01*
X156569684Y-84961745D01*
X156631866Y-84968500D01*
X156824175Y-84968500D01*
X156892296Y-84988502D01*
X156938789Y-85042158D01*
X156948893Y-85112432D01*
X156917811Y-85178810D01*
X156858446Y-85244742D01*
X156850960Y-85253056D01*
X156826774Y-85294948D01*
X156762378Y-85406485D01*
X156755473Y-85418444D01*
X156696458Y-85600072D01*
X156695768Y-85606633D01*
X156695768Y-85606635D01*
X156679263Y-85763677D01*
X156676496Y-85790000D01*
X156677186Y-85796565D01*
X156691751Y-85935140D01*
X156696458Y-85979928D01*
X156755473Y-86161556D01*
X156850960Y-86326944D01*
X156978747Y-86468866D01*
X157133248Y-86581118D01*
X157139276Y-86583802D01*
X157139278Y-86583803D01*
X157301681Y-86656109D01*
X157307712Y-86658794D01*
X157401113Y-86678647D01*
X157488056Y-86697128D01*
X157488061Y-86697128D01*
X157494513Y-86698500D01*
X157685487Y-86698500D01*
X157691939Y-86697128D01*
X157691944Y-86697128D01*
X157778888Y-86678647D01*
X157872288Y-86658794D01*
X157878319Y-86656109D01*
X158040722Y-86583803D01*
X158040724Y-86583802D01*
X158046752Y-86581118D01*
X158201253Y-86468866D01*
X158329040Y-86326944D01*
X158424527Y-86161556D01*
X158483542Y-85979928D01*
X158488250Y-85935140D01*
X158502814Y-85796565D01*
X158503504Y-85790000D01*
X158500737Y-85763677D01*
X158484232Y-85606635D01*
X158484232Y-85606633D01*
X158483542Y-85600072D01*
X158424527Y-85418444D01*
X158417623Y-85406485D01*
X158353226Y-85294948D01*
X158330381Y-85255378D01*
X158313500Y-85192379D01*
X158313500Y-85094500D01*
X158333502Y-85026379D01*
X158387158Y-84979886D01*
X158439500Y-84968500D01*
X158728134Y-84968500D01*
X158790316Y-84961745D01*
X158926705Y-84910615D01*
X159043261Y-84823261D01*
X159130615Y-84706705D01*
X159181745Y-84570316D01*
X159188500Y-84508134D01*
X159188500Y-84504669D01*
X163588201Y-84504669D01*
X163588571Y-84511490D01*
X163594095Y-84562352D01*
X163597721Y-84577604D01*
X163642876Y-84698054D01*
X163651414Y-84713649D01*
X163727915Y-84815724D01*
X163740476Y-84828285D01*
X163842551Y-84904786D01*
X163858146Y-84913324D01*
X163978594Y-84958478D01*
X163993849Y-84962105D01*
X164044714Y-84967631D01*
X164051528Y-84968000D01*
X164824085Y-84968000D01*
X164839324Y-84963525D01*
X164840529Y-84962135D01*
X164842200Y-84954452D01*
X164842200Y-82982115D01*
X164837725Y-82966876D01*
X164836335Y-82965671D01*
X164828652Y-82964000D01*
X163606316Y-82964000D01*
X163591077Y-82968475D01*
X163589872Y-82969865D01*
X163588201Y-82977548D01*
X163588201Y-84504669D01*
X159188500Y-84504669D01*
X159188500Y-81452067D01*
X159208502Y-81383946D01*
X159262158Y-81337453D01*
X159332432Y-81327349D01*
X159389826Y-81352166D01*
X159389900Y-81352048D01*
X159395883Y-81355809D01*
X159395886Y-81355812D01*
X159509473Y-81427225D01*
X159509475Y-81427226D01*
X159515462Y-81430990D01*
X159655436Y-81480031D01*
X159745112Y-81490183D01*
X159751888Y-81491137D01*
X159790259Y-81497616D01*
X159802811Y-81497776D01*
X159807620Y-81497090D01*
X159807622Y-81497090D01*
X159830627Y-81493809D01*
X159848417Y-81492547D01*
X162949892Y-81492547D01*
X162970787Y-81494292D01*
X162990601Y-81497624D01*
X162995468Y-81497683D01*
X162995469Y-81497683D01*
X162996505Y-81497695D01*
X163003153Y-81497776D01*
X163037198Y-81492898D01*
X163040905Y-81492423D01*
X163089277Y-81486971D01*
X163143543Y-81480854D01*
X163143546Y-81480853D01*
X163150575Y-81480061D01*
X163157251Y-81477725D01*
X163157255Y-81477724D01*
X163283929Y-81433399D01*
X163283934Y-81433397D01*
X163290606Y-81431062D01*
X163395171Y-81365369D01*
X163463493Y-81346068D01*
X163531405Y-81366768D01*
X163577345Y-81420898D01*
X163588200Y-81472061D01*
X163588200Y-82437885D01*
X163592675Y-82453124D01*
X163594065Y-82454329D01*
X163601748Y-82456000D01*
X165224200Y-82456000D01*
X165292321Y-82476002D01*
X165338814Y-82529658D01*
X165350200Y-82582000D01*
X165350200Y-84949884D01*
X165354675Y-84965123D01*
X165356065Y-84966328D01*
X165363748Y-84967999D01*
X166140869Y-84967999D01*
X166147690Y-84967629D01*
X166198552Y-84962105D01*
X166213804Y-84958479D01*
X166334254Y-84913324D01*
X166349849Y-84904786D01*
X166443047Y-84834938D01*
X166509554Y-84810090D01*
X166578936Y-84825143D01*
X166629166Y-84875317D01*
X166644612Y-84935764D01*
X166644612Y-98058600D01*
X166624610Y-98126721D01*
X166570954Y-98173214D01*
X166518612Y-98184600D01*
X150440000Y-98184600D01*
X150440000Y-143033128D01*
X150419998Y-143101249D01*
X150410656Y-143113958D01*
X150114559Y-143468028D01*
X150112937Y-143469930D01*
X148864638Y-144903848D01*
X148862978Y-144905717D01*
X147586481Y-146314586D01*
X147584784Y-146316421D01*
X146280665Y-147699612D01*
X146278933Y-147701414D01*
X144947558Y-149058540D01*
X144945792Y-149060305D01*
X143605954Y-150372926D01*
X143587756Y-150390754D01*
X143585963Y-150392475D01*
X142290432Y-151612275D01*
X142201846Y-151695683D01*
X142200015Y-151697374D01*
X141278244Y-152531392D01*
X140790266Y-152972914D01*
X140788405Y-152974564D01*
X139353635Y-154221884D01*
X139351829Y-154223423D01*
X138331426Y-155075568D01*
X137892570Y-155442059D01*
X137890636Y-155443642D01*
X136407538Y-156633053D01*
X136405573Y-156634597D01*
X134899174Y-157794352D01*
X134897178Y-157795857D01*
X133368085Y-158925489D01*
X133366060Y-158926954D01*
X132462723Y-159566999D01*
X131850582Y-160000722D01*
X131814860Y-160026032D01*
X131812814Y-160027451D01*
X130247042Y-161090838D01*
X130240099Y-161095553D01*
X130238034Y-161096926D01*
X129371036Y-161660941D01*
X128644442Y-162133618D01*
X128642334Y-162134960D01*
X127028484Y-163139841D01*
X127026349Y-163141141D01*
X125392928Y-164113782D01*
X125390768Y-164115040D01*
X123738299Y-165055130D01*
X123736114Y-165056344D01*
X122065382Y-165963436D01*
X122063212Y-165964587D01*
X120374724Y-166838406D01*
X120372562Y-166839498D01*
X120317193Y-166866773D01*
X118667111Y-167679629D01*
X118664858Y-167680711D01*
X116943110Y-168486832D01*
X116940836Y-168487869D01*
X115203401Y-169259692D01*
X115201216Y-169260637D01*
X114367881Y-169611206D01*
X113448813Y-169997841D01*
X113446499Y-169998788D01*
X111679823Y-170701084D01*
X111677491Y-170701984D01*
X109897289Y-171369072D01*
X109894940Y-171369926D01*
X108101812Y-172001586D01*
X108099446Y-172002393D01*
X106816762Y-172425831D01*
X106294155Y-172598353D01*
X106291806Y-172599103D01*
X104475020Y-173159142D01*
X104472680Y-173159839D01*
X102645125Y-173683733D01*
X102642744Y-173684390D01*
X101599360Y-173961214D01*
X100849981Y-174160034D01*
X100829614Y-174163679D01*
X100817756Y-174164808D01*
X100817747Y-174164810D01*
X100808780Y-174165664D01*
X100808775Y-174165666D01*
X100808774Y-174165666D01*
X100789399Y-174173392D01*
X100758403Y-174181374D01*
X100751310Y-174182263D01*
X100734322Y-174184392D01*
X100699266Y-174183869D01*
X100697828Y-174183645D01*
X100697826Y-174183645D01*
X100688952Y-174182263D01*
X100680047Y-174183427D01*
X100657372Y-174186391D01*
X100641041Y-174187454D01*
X97420518Y-174187454D01*
X97352397Y-174167452D01*
X97305904Y-174113796D01*
X97295800Y-174043522D01*
X97297412Y-174036160D01*
X97297205Y-174036120D01*
X97336857Y-173833072D01*
X97337934Y-173824209D01*
X97338000Y-173821500D01*
X97338000Y-173692115D01*
X97333525Y-173676876D01*
X97332135Y-173675671D01*
X97324452Y-173674000D01*
X95140115Y-173674000D01*
X95124876Y-173678475D01*
X95123671Y-173679865D01*
X95122000Y-173687548D01*
X95122000Y-173769832D01*
X95122285Y-173775808D01*
X95136471Y-173924494D01*
X95138731Y-173936235D01*
X95165061Y-174025984D01*
X95165045Y-174096981D01*
X95126647Y-174156698D01*
X95062059Y-174186176D01*
X95044157Y-174187454D01*
X88780518Y-174187454D01*
X88712397Y-174167452D01*
X88665904Y-174113796D01*
X88655800Y-174043522D01*
X88657412Y-174036160D01*
X88657205Y-174036120D01*
X88696857Y-173833072D01*
X88697934Y-173824209D01*
X88698000Y-173821500D01*
X88698000Y-173692115D01*
X88693525Y-173676876D01*
X88692135Y-173675671D01*
X88684452Y-173674000D01*
X87462000Y-173674000D01*
X87393879Y-173653998D01*
X87347386Y-173600342D01*
X87336000Y-173548000D01*
X87336000Y-173147885D01*
X87844000Y-173147885D01*
X87848475Y-173163124D01*
X87849865Y-173164329D01*
X87857548Y-173166000D01*
X88679885Y-173166000D01*
X88695124Y-173161525D01*
X88696329Y-173160135D01*
X88698000Y-173152452D01*
X88698000Y-173147885D01*
X95122000Y-173147885D01*
X95126475Y-173163124D01*
X95127865Y-173164329D01*
X95135548Y-173166000D01*
X95957885Y-173166000D01*
X95973124Y-173161525D01*
X95974329Y-173160135D01*
X95976000Y-173152452D01*
X95976000Y-173147885D01*
X96484000Y-173147885D01*
X96488475Y-173163124D01*
X96489865Y-173164329D01*
X96497548Y-173166000D01*
X97319885Y-173166000D01*
X97335124Y-173161525D01*
X97336329Y-173160135D01*
X97338000Y-173152452D01*
X97338000Y-173070168D01*
X97337715Y-173064192D01*
X97323529Y-172915506D01*
X97321270Y-172903772D01*
X97265128Y-172712401D01*
X97260698Y-172701325D01*
X97169381Y-172524022D01*
X97162931Y-172513976D01*
X97039738Y-172357143D01*
X97031501Y-172348494D01*
X96880877Y-172217788D01*
X96871153Y-172210853D01*
X96698533Y-172110990D01*
X96687669Y-172106016D01*
X96499273Y-172040593D01*
X96498284Y-172040352D01*
X96487992Y-172041820D01*
X96484000Y-172055385D01*
X96484000Y-173147885D01*
X95976000Y-173147885D01*
X95976000Y-172059598D01*
X95972027Y-172046067D01*
X95962601Y-172044712D01*
X95873463Y-172066194D01*
X95862168Y-172070083D01*
X95680618Y-172152629D01*
X95670276Y-172158576D01*
X95507603Y-172273968D01*
X95498575Y-172281761D01*
X95360658Y-172425831D01*
X95353262Y-172435196D01*
X95245079Y-172602741D01*
X95239583Y-172613345D01*
X95165039Y-172798312D01*
X95161645Y-172809770D01*
X95123143Y-173006928D01*
X95122066Y-173015791D01*
X95122000Y-173018500D01*
X95122000Y-173147885D01*
X88698000Y-173147885D01*
X88698000Y-173070168D01*
X88697715Y-173064192D01*
X88683529Y-172915506D01*
X88681270Y-172903772D01*
X88625128Y-172712401D01*
X88620698Y-172701325D01*
X88529381Y-172524022D01*
X88522931Y-172513976D01*
X88399738Y-172357143D01*
X88391501Y-172348494D01*
X88240877Y-172217788D01*
X88231153Y-172210853D01*
X88058533Y-172110990D01*
X88047669Y-172106016D01*
X87859273Y-172040593D01*
X87858284Y-172040352D01*
X87847992Y-172041820D01*
X87844000Y-172055385D01*
X87844000Y-173147885D01*
X87336000Y-173147885D01*
X87336000Y-172059598D01*
X87332027Y-172046067D01*
X87322601Y-172044712D01*
X87233463Y-172066194D01*
X87222168Y-172070083D01*
X87153539Y-172101287D01*
X87083248Y-172111273D01*
X87018717Y-172081673D01*
X86980433Y-172021883D01*
X86975388Y-171986586D01*
X86975388Y-171230000D01*
X90916496Y-171230000D01*
X90917186Y-171236565D01*
X90932595Y-171383170D01*
X90936458Y-171419928D01*
X90995473Y-171601556D01*
X91090960Y-171766944D01*
X91095378Y-171771851D01*
X91095379Y-171771852D01*
X91123743Y-171803353D01*
X91218747Y-171908866D01*
X91317843Y-171980864D01*
X91346365Y-172001586D01*
X91373248Y-172021118D01*
X91379276Y-172023802D01*
X91379278Y-172023803D01*
X91509257Y-172081673D01*
X91547712Y-172098794D01*
X91641113Y-172118647D01*
X91728056Y-172137128D01*
X91728061Y-172137128D01*
X91734513Y-172138500D01*
X91925487Y-172138500D01*
X91931939Y-172137128D01*
X91931944Y-172137128D01*
X92018887Y-172118647D01*
X92112288Y-172098794D01*
X92150743Y-172081673D01*
X92280722Y-172023803D01*
X92280724Y-172023802D01*
X92286752Y-172021118D01*
X92313636Y-172001586D01*
X92419671Y-171924546D01*
X92441253Y-171908866D01*
X92445664Y-171903967D01*
X92445673Y-171903959D01*
X92485082Y-171860190D01*
X92545528Y-171822950D01*
X92578718Y-171818500D01*
X93463170Y-171818500D01*
X93479615Y-171819578D01*
X93510000Y-171823578D01*
X93518189Y-171822500D01*
X93655442Y-171804431D01*
X93655443Y-171804431D01*
X93663630Y-171803353D01*
X93751527Y-171766944D01*
X93806789Y-171744054D01*
X93929723Y-171649723D01*
X93948382Y-171625406D01*
X93959243Y-171613022D01*
X94153014Y-171419250D01*
X94165406Y-171408382D01*
X94183172Y-171394750D01*
X94183173Y-171394749D01*
X94189723Y-171389723D01*
X94194749Y-171383173D01*
X94194752Y-171383170D01*
X94236888Y-171328256D01*
X94284054Y-171266789D01*
X94343353Y-171123629D01*
X94363578Y-170970000D01*
X94359578Y-170939615D01*
X94358500Y-170923170D01*
X94358500Y-170676900D01*
X94378502Y-170608779D01*
X94432158Y-170562286D01*
X94502432Y-170552182D01*
X94523435Y-170557066D01*
X94527217Y-170558295D01*
X94533248Y-170560980D01*
X94539706Y-170562353D01*
X94539707Y-170562353D01*
X94703311Y-170597128D01*
X94703315Y-170597128D01*
X94709768Y-170598500D01*
X94890232Y-170598500D01*
X94896685Y-170597128D01*
X94896689Y-170597128D01*
X94985554Y-170578239D01*
X95066752Y-170560980D01*
X95075543Y-170557066D01*
X95225585Y-170490263D01*
X95225587Y-170490262D01*
X95231615Y-170487578D01*
X95245899Y-170477200D01*
X95312768Y-170453343D01*
X95381919Y-170469425D01*
X95415969Y-170498666D01*
X95416128Y-170498515D01*
X95417629Y-170500092D01*
X95419047Y-170501309D01*
X95420263Y-170502857D01*
X95428499Y-170511506D01*
X95579123Y-170642212D01*
X95588847Y-170649147D01*
X95761467Y-170749010D01*
X95772331Y-170753984D01*
X95960727Y-170819407D01*
X95961716Y-170819648D01*
X95972008Y-170818180D01*
X95976000Y-170804615D01*
X95976000Y-170800402D01*
X96484000Y-170800402D01*
X96487973Y-170813933D01*
X96497399Y-170815288D01*
X96586537Y-170793806D01*
X96597832Y-170789917D01*
X96779382Y-170707371D01*
X96789724Y-170701424D01*
X96952397Y-170586032D01*
X96961425Y-170578239D01*
X97099342Y-170434169D01*
X97106738Y-170424804D01*
X97214921Y-170257259D01*
X97220417Y-170246655D01*
X97294961Y-170061688D01*
X97298355Y-170050230D01*
X97336857Y-169853072D01*
X97337934Y-169844209D01*
X97338000Y-169841500D01*
X97338000Y-169512115D01*
X97333525Y-169496876D01*
X97332135Y-169495671D01*
X97324452Y-169494000D01*
X96502115Y-169494000D01*
X96486876Y-169498475D01*
X96485671Y-169499865D01*
X96484000Y-169507548D01*
X96484000Y-170800402D01*
X95976000Y-170800402D01*
X95976000Y-168967885D01*
X96484000Y-168967885D01*
X96488475Y-168983124D01*
X96489865Y-168984329D01*
X96497548Y-168986000D01*
X97319885Y-168986000D01*
X97335124Y-168981525D01*
X97336329Y-168980135D01*
X97338000Y-168972452D01*
X97338000Y-168690168D01*
X97337715Y-168684192D01*
X97323529Y-168535506D01*
X97321270Y-168523772D01*
X97265128Y-168332401D01*
X97260698Y-168321325D01*
X97169381Y-168144022D01*
X97162931Y-168133976D01*
X97039738Y-167977143D01*
X97031501Y-167968494D01*
X96880877Y-167837788D01*
X96871153Y-167830853D01*
X96698533Y-167730990D01*
X96687669Y-167726016D01*
X96499273Y-167660593D01*
X96498284Y-167660352D01*
X96487992Y-167661820D01*
X96484000Y-167675385D01*
X96484000Y-168967885D01*
X95976000Y-168967885D01*
X95976000Y-167679598D01*
X95972027Y-167666067D01*
X95962601Y-167664712D01*
X95873463Y-167686194D01*
X95862168Y-167690083D01*
X95680618Y-167772629D01*
X95670276Y-167778576D01*
X95507603Y-167893968D01*
X95498575Y-167901761D01*
X95360658Y-168045831D01*
X95353262Y-168055196D01*
X95245079Y-168222741D01*
X95239583Y-168233345D01*
X95165039Y-168418312D01*
X95161645Y-168429770D01*
X95123143Y-168626928D01*
X95122066Y-168635791D01*
X95122000Y-168638500D01*
X95122000Y-168775166D01*
X95101998Y-168843287D01*
X95048342Y-168889780D01*
X94978068Y-168899884D01*
X94969804Y-168898413D01*
X94915469Y-168886864D01*
X94890232Y-168881500D01*
X94874500Y-168881500D01*
X94806379Y-168861498D01*
X94759886Y-168807842D01*
X94748500Y-168755500D01*
X94748500Y-166775955D01*
X94768502Y-166707834D01*
X94785405Y-166686860D01*
X98352264Y-163120000D01*
X114416496Y-163120000D01*
X114436458Y-163309928D01*
X114495473Y-163491556D01*
X114590960Y-163656944D01*
X114718747Y-163798866D01*
X114873248Y-163911118D01*
X114879276Y-163913802D01*
X114879278Y-163913803D01*
X115041681Y-163986109D01*
X115047712Y-163988794D01*
X115141113Y-164008647D01*
X115228056Y-164027128D01*
X115228061Y-164027128D01*
X115234513Y-164028500D01*
X115284734Y-164028500D01*
X115352855Y-164048502D01*
X115390106Y-164085415D01*
X115458410Y-164189596D01*
X115458414Y-164189601D01*
X115460976Y-164193509D01*
X115635018Y-164388506D01*
X115835970Y-164555637D01*
X115839973Y-164558066D01*
X116055422Y-164688804D01*
X116055426Y-164688806D01*
X116059419Y-164691229D01*
X116300455Y-164792303D01*
X116553783Y-164856641D01*
X116558434Y-164857109D01*
X116558438Y-164857110D01*
X116751308Y-164876531D01*
X116770867Y-164878500D01*
X117005103Y-164878500D01*
X117012246Y-164878703D01*
X117086100Y-164882897D01*
X117086107Y-164882897D01*
X117090776Y-164883162D01*
X117204503Y-164872712D01*
X117206668Y-164872531D01*
X117320652Y-164864061D01*
X117327624Y-164862483D01*
X117343911Y-164859903D01*
X117351050Y-164859247D01*
X117375847Y-164853179D01*
X117462051Y-164832086D01*
X117464190Y-164831582D01*
X117497102Y-164824134D01*
X117575577Y-164806377D01*
X117579926Y-164804686D01*
X117579935Y-164804683D01*
X117582251Y-164803782D01*
X117597964Y-164798828D01*
X117600375Y-164798238D01*
X117600380Y-164798236D01*
X117604930Y-164797123D01*
X117609269Y-164795348D01*
X117710683Y-164753859D01*
X117712725Y-164753044D01*
X117814819Y-164713342D01*
X117814822Y-164713341D01*
X117819177Y-164711647D01*
X117825401Y-164708090D01*
X117840206Y-164700869D01*
X117846839Y-164698155D01*
X117945075Y-164639712D01*
X117946899Y-164638648D01*
X118042036Y-164584273D01*
X118042040Y-164584271D01*
X118046098Y-164581951D01*
X118051722Y-164577518D01*
X118065291Y-164568191D01*
X118071463Y-164564519D01*
X118075071Y-164561572D01*
X118075077Y-164561567D01*
X118159965Y-164492210D01*
X118161680Y-164490834D01*
X118247689Y-164423030D01*
X118247692Y-164423027D01*
X118251357Y-164420138D01*
X118323029Y-164343948D01*
X118325709Y-164341186D01*
X138845411Y-143821483D01*
X138845418Y-143821477D01*
X148114133Y-134552762D01*
X148119327Y-134547854D01*
X148174527Y-134498586D01*
X148178017Y-134495471D01*
X148181006Y-134491877D01*
X148181011Y-134491872D01*
X148251086Y-134407616D01*
X148252507Y-134405937D01*
X148324010Y-134322954D01*
X148324014Y-134322949D01*
X148327057Y-134319417D01*
X148330876Y-134313365D01*
X148340562Y-134300032D01*
X148345148Y-134294519D01*
X148347572Y-134290524D01*
X148347578Y-134290516D01*
X148404448Y-134196799D01*
X148405604Y-134194930D01*
X148447773Y-134128095D01*
X148466528Y-134098370D01*
X148469412Y-134091816D01*
X148477021Y-134077199D01*
X148480740Y-134071070D01*
X148524908Y-133965741D01*
X148525776Y-133963720D01*
X148540171Y-133931005D01*
X148585914Y-133876709D01*
X148653751Y-133855763D01*
X148722143Y-133874818D01*
X148769376Y-133927823D01*
X148781500Y-133981751D01*
X148781500Y-139234045D01*
X148761498Y-139302166D01*
X148744595Y-139323140D01*
X142593140Y-145474595D01*
X142530828Y-145508621D01*
X142504045Y-145511500D01*
X142384513Y-145511500D01*
X142378061Y-145512872D01*
X142378056Y-145512872D01*
X142291113Y-145531353D01*
X142197712Y-145551206D01*
X142191682Y-145553891D01*
X142191681Y-145553891D01*
X142029278Y-145626197D01*
X142029276Y-145626198D01*
X142023248Y-145628882D01*
X141868747Y-145741134D01*
X141864326Y-145746044D01*
X141864325Y-145746045D01*
X141746805Y-145876565D01*
X141740960Y-145883056D01*
X141645473Y-146048444D01*
X141586458Y-146230072D01*
X141566496Y-146420000D01*
X141586458Y-146609928D01*
X141645473Y-146791556D01*
X141740960Y-146956944D01*
X141868747Y-147098866D01*
X142023248Y-147211118D01*
X142029276Y-147213802D01*
X142029278Y-147213803D01*
X142176783Y-147279476D01*
X142197712Y-147288794D01*
X142291112Y-147308647D01*
X142378056Y-147327128D01*
X142378061Y-147327128D01*
X142384513Y-147328500D01*
X142575487Y-147328500D01*
X142581939Y-147327128D01*
X142581944Y-147327128D01*
X142668888Y-147308647D01*
X142762288Y-147288794D01*
X142783217Y-147279476D01*
X142930722Y-147213803D01*
X142930724Y-147213802D01*
X142936752Y-147211118D01*
X143091253Y-147098866D01*
X143219040Y-146956944D01*
X143314527Y-146791556D01*
X143373542Y-146609928D01*
X143393504Y-146420000D01*
X143392060Y-146406261D01*
X143404829Y-146336422D01*
X143428274Y-146303991D01*
X149753018Y-139979247D01*
X149765409Y-139968380D01*
X149783173Y-139954749D01*
X149789723Y-139949723D01*
X149884054Y-139826789D01*
X149943352Y-139683629D01*
X149950053Y-139632735D01*
X149963578Y-139530000D01*
X149959578Y-139499617D01*
X149958500Y-139483171D01*
X149958500Y-106336830D01*
X149959578Y-106320384D01*
X149962500Y-106298188D01*
X149963578Y-106290000D01*
X149943353Y-106136371D01*
X149897962Y-106026789D01*
X149884054Y-105993211D01*
X149836889Y-105931744D01*
X149794752Y-105876830D01*
X149794749Y-105876827D01*
X149789723Y-105870277D01*
X149783172Y-105865250D01*
X149783170Y-105865248D01*
X149770782Y-105855742D01*
X149728917Y-105798403D01*
X149722179Y-105742617D01*
X149722814Y-105736573D01*
X149722814Y-105736565D01*
X149723504Y-105730000D01*
X149703542Y-105540072D01*
X149644527Y-105358444D01*
X149549040Y-105193056D01*
X149494740Y-105132749D01*
X149425675Y-105056045D01*
X149425674Y-105056044D01*
X149421253Y-105051134D01*
X149266752Y-104938882D01*
X149260724Y-104936198D01*
X149260722Y-104936197D01*
X149098319Y-104863891D01*
X149098318Y-104863891D01*
X149092288Y-104861206D01*
X148998888Y-104841353D01*
X148911944Y-104822872D01*
X148911939Y-104822872D01*
X148905487Y-104821500D01*
X148744500Y-104821500D01*
X148676379Y-104801498D01*
X148629886Y-104747842D01*
X148618500Y-104695500D01*
X148618500Y-95720000D01*
X151806496Y-95720000D01*
X151807186Y-95726565D01*
X151823807Y-95884701D01*
X151826458Y-95909928D01*
X151885473Y-96091556D01*
X151888776Y-96097278D01*
X151888777Y-96097279D01*
X151894914Y-96107909D01*
X151980960Y-96256944D01*
X152108747Y-96398866D01*
X152263248Y-96511118D01*
X152269276Y-96513802D01*
X152269278Y-96513803D01*
X152431681Y-96586109D01*
X152437712Y-96588794D01*
X152531113Y-96608647D01*
X152618056Y-96627128D01*
X152618061Y-96627128D01*
X152624513Y-96628500D01*
X152815487Y-96628500D01*
X152821939Y-96627128D01*
X152821944Y-96627128D01*
X152908887Y-96608647D01*
X153002288Y-96588794D01*
X153008319Y-96586109D01*
X153170722Y-96513803D01*
X153170724Y-96513802D01*
X153176752Y-96511118D01*
X153331253Y-96398866D01*
X153459040Y-96256944D01*
X153545086Y-96107909D01*
X153551223Y-96097279D01*
X153551224Y-96097278D01*
X153554527Y-96091556D01*
X153613542Y-95909928D01*
X153616194Y-95884701D01*
X153632814Y-95726565D01*
X153633504Y-95720000D01*
X153623404Y-95623907D01*
X153636176Y-95554068D01*
X153659619Y-95521641D01*
X155655855Y-93525405D01*
X155718167Y-93491379D01*
X155744950Y-93488500D01*
X155765487Y-93488500D01*
X155771939Y-93487128D01*
X155771944Y-93487128D01*
X155863216Y-93467727D01*
X155952288Y-93448794D01*
X155958319Y-93446109D01*
X156120722Y-93373803D01*
X156120724Y-93373802D01*
X156126752Y-93371118D01*
X156144238Y-93358414D01*
X156258467Y-93275421D01*
X156281253Y-93258866D01*
X156307597Y-93229608D01*
X156404621Y-93121852D01*
X156404622Y-93121851D01*
X156409040Y-93116944D01*
X156504527Y-92951556D01*
X156563542Y-92769928D01*
X156583504Y-92580000D01*
X156576755Y-92515786D01*
X156564232Y-92396635D01*
X156564232Y-92396633D01*
X156563542Y-92390072D01*
X156504527Y-92208444D01*
X156409040Y-92043056D01*
X156402374Y-92035652D01*
X156285675Y-91906045D01*
X156285674Y-91906044D01*
X156281253Y-91901134D01*
X156126752Y-91788882D01*
X156120724Y-91786198D01*
X156120722Y-91786197D01*
X155958319Y-91713891D01*
X155958318Y-91713891D01*
X155952288Y-91711206D01*
X155858888Y-91691353D01*
X155771944Y-91672872D01*
X155771939Y-91672872D01*
X155765487Y-91671500D01*
X155574513Y-91671500D01*
X155568061Y-91672872D01*
X155568056Y-91672872D01*
X155481112Y-91691353D01*
X155387712Y-91711206D01*
X155381682Y-91713891D01*
X155381681Y-91713891D01*
X155219278Y-91786197D01*
X155219276Y-91786198D01*
X155213248Y-91788882D01*
X155058747Y-91901134D01*
X155054326Y-91906044D01*
X155054325Y-91906045D01*
X154937627Y-92035652D01*
X154930960Y-92043056D01*
X154835473Y-92208444D01*
X154776458Y-92390072D01*
X154765300Y-92496238D01*
X154763245Y-92515786D01*
X154736232Y-92581442D01*
X154727030Y-92591710D01*
X152501976Y-94816764D01*
X152449607Y-94845190D01*
X152450452Y-94847792D01*
X152444168Y-94849834D01*
X152437712Y-94851206D01*
X152431682Y-94853891D01*
X152431681Y-94853891D01*
X152269278Y-94926197D01*
X152269276Y-94926198D01*
X152263248Y-94928882D01*
X152108747Y-95041134D01*
X152104326Y-95046044D01*
X152104325Y-95046045D01*
X152003629Y-95157880D01*
X151980960Y-95183056D01*
X151885473Y-95348444D01*
X151826458Y-95530072D01*
X151825768Y-95536633D01*
X151825768Y-95536635D01*
X151816596Y-95623907D01*
X151806496Y-95720000D01*
X148618500Y-95720000D01*
X148618500Y-95517461D01*
X148638502Y-95449340D01*
X148649040Y-95435222D01*
X148697546Y-95378928D01*
X148712815Y-95354729D01*
X148821132Y-95183056D01*
X148837017Y-95157880D01*
X148863265Y-95098229D01*
X148936072Y-94932763D01*
X148942284Y-94918645D01*
X148980736Y-94777606D01*
X149009803Y-94670987D01*
X149011032Y-94666479D01*
X149023392Y-94562055D01*
X149039159Y-94428834D01*
X149041753Y-94406920D01*
X149033771Y-94145671D01*
X149017515Y-94055776D01*
X148988094Y-93893070D01*
X148988092Y-93893063D01*
X148987262Y-93888472D01*
X148903247Y-93640972D01*
X148783572Y-93408610D01*
X148753788Y-93367237D01*
X148633598Y-93200281D01*
X148633595Y-93200277D01*
X148630867Y-93196488D01*
X148574246Y-93138365D01*
X148541039Y-93075612D01*
X148538500Y-93050443D01*
X148538500Y-92663001D01*
X148535551Y-92629952D01*
X148530625Y-92574767D01*
X148523617Y-92496238D01*
X148505537Y-92430147D01*
X148465817Y-92284960D01*
X148464337Y-92279549D01*
X148458655Y-92267635D01*
X148395662Y-92135570D01*
X148367622Y-92076782D01*
X148236529Y-91894346D01*
X148075201Y-91738008D01*
X147888738Y-91612710D01*
X147683033Y-91522412D01*
X147677582Y-91521103D01*
X147677578Y-91521102D01*
X147470046Y-91471278D01*
X147470045Y-91471278D01*
X147464589Y-91469968D01*
X147380525Y-91465121D01*
X147245917Y-91457360D01*
X147245914Y-91457360D01*
X147240310Y-91457037D01*
X147017285Y-91484025D01*
X146802565Y-91550082D01*
X146797585Y-91552652D01*
X146797581Y-91552654D01*
X146607919Y-91650546D01*
X146602936Y-91653118D01*
X146424708Y-91789877D01*
X146273515Y-91956036D01*
X146270537Y-91960783D01*
X146270535Y-91960786D01*
X146218928Y-92043056D01*
X146154136Y-92146344D01*
X146070344Y-92354783D01*
X146024787Y-92574767D01*
X146021500Y-92631775D01*
X146021500Y-93049415D01*
X146001498Y-93117536D01*
X145984595Y-93138510D01*
X145655378Y-93467727D01*
X145650184Y-93472635D01*
X145606855Y-93511308D01*
X145591494Y-93525018D01*
X145588501Y-93528617D01*
X145518455Y-93612838D01*
X145517057Y-93614490D01*
X145442454Y-93701071D01*
X145439959Y-93705026D01*
X145438635Y-93707124D01*
X145428949Y-93720455D01*
X145427352Y-93722375D01*
X145427346Y-93722383D01*
X145424363Y-93725970D01*
X145421942Y-93729960D01*
X145365071Y-93823679D01*
X145363914Y-93825548D01*
X145302983Y-93922119D01*
X145301101Y-93926396D01*
X145301100Y-93926398D01*
X145300099Y-93928673D01*
X145292490Y-93943290D01*
X145288771Y-93949419D01*
X145286962Y-93953733D01*
X145244603Y-94054748D01*
X145243735Y-94056769D01*
X145197716Y-94161355D01*
X145196487Y-94165862D01*
X145196484Y-94165871D01*
X145195830Y-94168271D01*
X145190467Y-94183848D01*
X145187697Y-94190455D01*
X145186547Y-94194983D01*
X145186546Y-94194986D01*
X145159578Y-94301173D01*
X145159020Y-94303291D01*
X145128968Y-94413521D01*
X145128419Y-94418161D01*
X145128418Y-94418166D01*
X145128127Y-94420627D01*
X145125122Y-94436843D01*
X145123359Y-94443783D01*
X145122891Y-94448434D01*
X145111915Y-94557428D01*
X145111676Y-94559613D01*
X145108857Y-94583434D01*
X145098247Y-94673080D01*
X145098390Y-94677751D01*
X145101441Y-94777606D01*
X145101500Y-94781454D01*
X145101500Y-99040776D01*
X145081498Y-99108897D01*
X145027842Y-99155390D01*
X144957568Y-99165494D01*
X144892988Y-99136000D01*
X144881864Y-99125086D01*
X144765675Y-98996045D01*
X144765674Y-98996044D01*
X144761253Y-98991134D01*
X144606752Y-98878882D01*
X144600724Y-98876198D01*
X144600722Y-98876197D01*
X144438319Y-98803891D01*
X144438318Y-98803891D01*
X144432288Y-98801206D01*
X144338887Y-98781353D01*
X144251944Y-98762872D01*
X144251939Y-98762872D01*
X144245487Y-98761500D01*
X144054513Y-98761500D01*
X144048061Y-98762872D01*
X144048056Y-98762872D01*
X143961112Y-98781353D01*
X143867712Y-98801206D01*
X143861682Y-98803891D01*
X143861681Y-98803891D01*
X143699278Y-98876197D01*
X143699276Y-98876198D01*
X143693248Y-98878882D01*
X143538747Y-98991134D01*
X143410960Y-99133056D01*
X143315473Y-99298444D01*
X143256458Y-99480072D01*
X143236496Y-99670000D01*
X143237186Y-99676565D01*
X143251858Y-99816158D01*
X143256458Y-99859928D01*
X143315473Y-100041556D01*
X143318776Y-100047278D01*
X143318777Y-100047279D01*
X143399619Y-100187301D01*
X143416500Y-100250301D01*
X143416500Y-101817727D01*
X143396498Y-101885848D01*
X143369999Y-101908810D01*
X143382514Y-101916195D01*
X143414444Y-101979606D01*
X143416500Y-102002273D01*
X143416500Y-112427476D01*
X143396498Y-112495597D01*
X143384142Y-112511779D01*
X143310960Y-112593056D01*
X143269993Y-112664014D01*
X143250839Y-112697189D01*
X143199457Y-112746182D01*
X143129743Y-112759618D01*
X143063832Y-112733232D01*
X143022650Y-112675400D01*
X143016410Y-112647360D01*
X143014232Y-112626634D01*
X143014231Y-112626631D01*
X143013542Y-112620072D01*
X142954527Y-112438444D01*
X142859040Y-112273056D01*
X142785863Y-112191785D01*
X142755147Y-112127779D01*
X142753500Y-112107476D01*
X142753500Y-102738619D01*
X142773502Y-102670498D01*
X142805439Y-102636683D01*
X142826566Y-102621333D01*
X142871253Y-102588866D01*
X142944736Y-102507255D01*
X142994621Y-102451852D01*
X142994622Y-102451851D01*
X142999040Y-102446944D01*
X143094527Y-102281556D01*
X143153542Y-102099928D01*
X143165190Y-101989103D01*
X143192203Y-101923446D01*
X143207757Y-101912592D01*
X143169604Y-101853225D01*
X143165190Y-101830897D01*
X143154232Y-101726635D01*
X143154232Y-101726633D01*
X143153542Y-101720072D01*
X143094527Y-101538444D01*
X143069131Y-101494456D01*
X143002341Y-101378774D01*
X142999040Y-101373056D01*
X142936721Y-101303843D01*
X142875675Y-101236045D01*
X142875674Y-101236044D01*
X142871253Y-101231134D01*
X142716752Y-101118882D01*
X142710724Y-101116198D01*
X142710722Y-101116197D01*
X142548319Y-101043891D01*
X142548318Y-101043891D01*
X142542288Y-101041206D01*
X142448887Y-101021353D01*
X142361944Y-101002872D01*
X142361939Y-101002872D01*
X142355487Y-101001500D01*
X142164513Y-101001500D01*
X142158061Y-101002872D01*
X142158056Y-101002872D01*
X142071112Y-101021353D01*
X141977712Y-101041206D01*
X141971682Y-101043891D01*
X141971681Y-101043891D01*
X141809278Y-101116197D01*
X141809276Y-101116198D01*
X141803248Y-101118882D01*
X141648747Y-101231134D01*
X141644326Y-101236044D01*
X141644325Y-101236045D01*
X141583280Y-101303843D01*
X141520960Y-101373056D01*
X141517659Y-101378774D01*
X141450870Y-101494456D01*
X141425473Y-101538444D01*
X141366458Y-101720072D01*
X141346496Y-101910000D01*
X141366458Y-102099928D01*
X141425473Y-102281556D01*
X141428776Y-102287278D01*
X141428777Y-102287279D01*
X141469619Y-102358019D01*
X141486500Y-102421019D01*
X141486500Y-112107476D01*
X141466498Y-112175597D01*
X141454142Y-112191779D01*
X141380960Y-112273056D01*
X141285473Y-112438444D01*
X141226458Y-112620072D01*
X141225768Y-112626633D01*
X141225768Y-112626635D01*
X141213203Y-112746182D01*
X141206496Y-112810000D01*
X141207186Y-112816565D01*
X141217358Y-112913342D01*
X141226458Y-112999928D01*
X141285473Y-113181556D01*
X141288776Y-113187278D01*
X141288777Y-113187279D01*
X141295878Y-113199578D01*
X141380960Y-113346944D01*
X141385378Y-113351851D01*
X141385379Y-113351852D01*
X141504325Y-113483955D01*
X141508747Y-113488866D01*
X141663248Y-113601118D01*
X141669276Y-113603802D01*
X141669278Y-113603803D01*
X141773661Y-113650277D01*
X141837712Y-113678794D01*
X141931113Y-113698647D01*
X142018056Y-113717128D01*
X142018061Y-113717128D01*
X142024513Y-113718500D01*
X142215487Y-113718500D01*
X142221939Y-113717128D01*
X142221944Y-113717128D01*
X142308887Y-113698647D01*
X142402288Y-113678794D01*
X142466339Y-113650277D01*
X142570722Y-113603803D01*
X142570724Y-113603802D01*
X142576752Y-113601118D01*
X142731253Y-113488866D01*
X142735675Y-113483955D01*
X142854621Y-113351852D01*
X142854622Y-113351851D01*
X142859040Y-113346944D01*
X142919162Y-113242810D01*
X142970543Y-113193818D01*
X143040257Y-113180382D01*
X143106168Y-113206768D01*
X143147350Y-113264600D01*
X143153590Y-113292640D01*
X143156458Y-113319928D01*
X143215473Y-113501556D01*
X143310960Y-113666944D01*
X143438747Y-113808866D01*
X143593248Y-113921118D01*
X143599276Y-113923802D01*
X143599278Y-113923803D01*
X143749766Y-113990804D01*
X143767712Y-113998794D01*
X143861112Y-114018647D01*
X143948056Y-114037128D01*
X143948061Y-114037128D01*
X143954513Y-114038500D01*
X144145487Y-114038500D01*
X144151939Y-114037128D01*
X144151944Y-114037128D01*
X144238888Y-114018647D01*
X144332288Y-113998794D01*
X144350234Y-113990804D01*
X144500722Y-113923803D01*
X144500724Y-113923802D01*
X144506752Y-113921118D01*
X144661253Y-113808866D01*
X144789040Y-113666944D01*
X144866381Y-113532986D01*
X144917764Y-113483993D01*
X144987477Y-113470557D01*
X145053388Y-113496943D01*
X145094570Y-113554776D01*
X145101500Y-113595986D01*
X145101500Y-121124139D01*
X145081498Y-121192260D01*
X145027842Y-121238753D01*
X144957568Y-121248857D01*
X144892988Y-121219363D01*
X144881869Y-121208454D01*
X144821253Y-121141134D01*
X144666752Y-121028882D01*
X144660724Y-121026198D01*
X144660722Y-121026197D01*
X144498319Y-120953891D01*
X144498318Y-120953891D01*
X144492288Y-120951206D01*
X144398887Y-120931353D01*
X144311944Y-120912872D01*
X144311939Y-120912872D01*
X144305487Y-120911500D01*
X144114513Y-120911500D01*
X144108061Y-120912872D01*
X144108056Y-120912872D01*
X144021113Y-120931353D01*
X143927712Y-120951206D01*
X143921682Y-120953891D01*
X143921681Y-120953891D01*
X143759278Y-121026197D01*
X143759276Y-121026198D01*
X143753248Y-121028882D01*
X143598747Y-121141134D01*
X143594329Y-121146041D01*
X143594325Y-121146045D01*
X143510851Y-121238753D01*
X143470960Y-121283056D01*
X143375473Y-121448444D01*
X143316458Y-121630072D01*
X143296496Y-121820000D01*
X143297186Y-121826565D01*
X143297186Y-121826567D01*
X143297940Y-121833739D01*
X143285171Y-121903578D01*
X143261726Y-121936009D01*
X141836982Y-123360753D01*
X141824591Y-123371620D01*
X141800277Y-123390277D01*
X141705946Y-123513211D01*
X141684540Y-123564891D01*
X141646647Y-123656370D01*
X141626422Y-123810000D01*
X141627500Y-123818188D01*
X141630422Y-123840384D01*
X141631500Y-123856830D01*
X141631500Y-124052148D01*
X141611498Y-124120269D01*
X141557842Y-124166762D01*
X141487568Y-124176866D01*
X141431441Y-124154085D01*
X141396752Y-124128882D01*
X141390724Y-124126198D01*
X141390722Y-124126197D01*
X141228319Y-124053891D01*
X141228318Y-124053891D01*
X141222288Y-124051206D01*
X141128887Y-124031353D01*
X141041944Y-124012872D01*
X141041939Y-124012872D01*
X141035487Y-124011500D01*
X140844513Y-124011500D01*
X140838061Y-124012872D01*
X140838056Y-124012872D01*
X140751113Y-124031353D01*
X140657712Y-124051206D01*
X140651682Y-124053891D01*
X140651681Y-124053891D01*
X140489278Y-124126197D01*
X140489276Y-124126198D01*
X140483248Y-124128882D01*
X140477907Y-124132762D01*
X140477906Y-124132763D01*
X140431111Y-124166762D01*
X140328747Y-124241134D01*
X140200960Y-124383056D01*
X140105473Y-124548444D01*
X140046458Y-124730072D01*
X140045768Y-124736633D01*
X140045768Y-124736635D01*
X140041228Y-124779834D01*
X140026496Y-124920000D01*
X140027186Y-124926565D01*
X140040304Y-125051381D01*
X140027532Y-125121219D01*
X140004089Y-125153646D01*
X138486982Y-126670753D01*
X138474591Y-126681620D01*
X138450277Y-126700277D01*
X138355946Y-126823211D01*
X138338115Y-126866260D01*
X138296647Y-126966370D01*
X138276422Y-127120000D01*
X138277500Y-127128188D01*
X138280422Y-127150384D01*
X138281500Y-127166830D01*
X138281500Y-130497498D01*
X138261498Y-130565619D01*
X138249136Y-130581808D01*
X138195839Y-130641001D01*
X138130960Y-130713056D01*
X138035473Y-130878444D01*
X137976458Y-131060072D01*
X137975768Y-131066633D01*
X137975768Y-131066635D01*
X137959987Y-131216789D01*
X137956496Y-131250000D01*
X137961243Y-131295161D01*
X137948471Y-131364998D01*
X137899970Y-131416845D01*
X137831137Y-131434240D01*
X137784685Y-131423438D01*
X137718323Y-131393892D01*
X137718315Y-131393889D01*
X137712288Y-131391206D01*
X137608980Y-131369247D01*
X137531944Y-131352872D01*
X137531939Y-131352872D01*
X137525487Y-131351500D01*
X137334513Y-131351500D01*
X137328061Y-131352872D01*
X137328056Y-131352872D01*
X137251020Y-131369247D01*
X137147712Y-131391206D01*
X137141682Y-131393891D01*
X137141681Y-131393891D01*
X136979278Y-131466197D01*
X136979276Y-131466198D01*
X136973248Y-131468882D01*
X136818747Y-131581134D01*
X136690960Y-131723056D01*
X136595473Y-131888444D01*
X136536458Y-132070072D01*
X136535768Y-132076633D01*
X136535768Y-132076635D01*
X136530121Y-132130363D01*
X136516496Y-132260000D01*
X136517186Y-132266565D01*
X136531532Y-132403056D01*
X136536458Y-132449928D01*
X136595473Y-132631556D01*
X136690960Y-132796944D01*
X136695378Y-132801851D01*
X136695379Y-132801852D01*
X136744232Y-132856109D01*
X136818747Y-132938866D01*
X136973248Y-133051118D01*
X136979276Y-133053802D01*
X136979278Y-133053803D01*
X137123708Y-133118107D01*
X137147712Y-133128794D01*
X137241113Y-133148647D01*
X137328056Y-133167128D01*
X137328061Y-133167128D01*
X137334513Y-133168500D01*
X137525487Y-133168500D01*
X137531939Y-133167128D01*
X137531944Y-133167128D01*
X137618887Y-133148647D01*
X137712288Y-133128794D01*
X137736292Y-133118107D01*
X137880722Y-133053803D01*
X137880724Y-133053802D01*
X137886752Y-133051118D01*
X137910955Y-133033533D01*
X137977821Y-133009676D01*
X138046973Y-133025756D01*
X138074110Y-133046375D01*
X139424595Y-134396860D01*
X139458621Y-134459172D01*
X139461500Y-134485955D01*
X139461500Y-135384045D01*
X139441498Y-135452166D01*
X139424595Y-135473140D01*
X135666982Y-139230753D01*
X135654591Y-139241620D01*
X135630277Y-139260277D01*
X135535946Y-139383211D01*
X135511384Y-139442510D01*
X135476647Y-139526370D01*
X135475569Y-139534557D01*
X135475569Y-139534558D01*
X135457500Y-139671811D01*
X135456422Y-139680000D01*
X135457500Y-139688188D01*
X135460422Y-139710384D01*
X135461500Y-139726830D01*
X135461500Y-140414045D01*
X135441498Y-140482166D01*
X135424595Y-140503140D01*
X130982295Y-144945440D01*
X130919397Y-144979592D01*
X130880783Y-144987800D01*
X130817712Y-145001206D01*
X130811682Y-145003891D01*
X130811681Y-145003891D01*
X130649278Y-145076197D01*
X130649276Y-145076198D01*
X130643248Y-145078882D01*
X130488747Y-145191134D01*
X130484326Y-145196044D01*
X130484325Y-145196045D01*
X130428180Y-145258401D01*
X130360960Y-145333056D01*
X130357659Y-145338774D01*
X130297830Y-145442401D01*
X130265473Y-145498444D01*
X130206458Y-145680072D01*
X130186496Y-145870000D01*
X130206458Y-146059928D01*
X130265473Y-146241556D01*
X130360960Y-146406944D01*
X130365378Y-146411851D01*
X130365379Y-146411852D01*
X130378627Y-146426565D01*
X130488747Y-146548866D01*
X130643248Y-146661118D01*
X130649276Y-146663802D01*
X130649278Y-146663803D01*
X130744748Y-146706309D01*
X130798844Y-146752290D01*
X130819493Y-146820217D01*
X130800140Y-146888525D01*
X130782594Y-146910511D01*
X116224168Y-161468937D01*
X116180740Y-161497275D01*
X116105176Y-161526660D01*
X116105174Y-161526661D01*
X116100823Y-161528353D01*
X115873902Y-161658049D01*
X115668643Y-161819862D01*
X115489557Y-162010237D01*
X115486890Y-162014082D01*
X115486888Y-162014084D01*
X115387521Y-162157320D01*
X115332258Y-162201890D01*
X115283994Y-162211500D01*
X115234513Y-162211500D01*
X115228061Y-162212872D01*
X115228056Y-162212872D01*
X115141112Y-162231353D01*
X115047712Y-162251206D01*
X115041682Y-162253891D01*
X115041681Y-162253891D01*
X114879278Y-162326197D01*
X114879276Y-162326198D01*
X114873248Y-162328882D01*
X114718747Y-162441134D01*
X114590960Y-162583056D01*
X114495473Y-162748444D01*
X114436458Y-162930072D01*
X114416496Y-163120000D01*
X98352264Y-163120000D01*
X100497514Y-160974750D01*
X100551378Y-160943650D01*
X100553630Y-160943353D01*
X100606783Y-160921336D01*
X100637488Y-160908617D01*
X100637490Y-160908616D01*
X100689158Y-160887215D01*
X100689159Y-160887214D01*
X100696789Y-160884054D01*
X100758256Y-160836888D01*
X100813170Y-160794752D01*
X100813173Y-160794749D01*
X100819723Y-160789723D01*
X100838381Y-160765408D01*
X100849247Y-160753018D01*
X101043014Y-160559250D01*
X101055406Y-160548382D01*
X101073172Y-160534750D01*
X101073173Y-160534749D01*
X101079723Y-160529723D01*
X101084749Y-160523173D01*
X101084752Y-160523170D01*
X101137741Y-160454113D01*
X101174054Y-160406789D01*
X101185650Y-160378794D01*
X101233353Y-160263629D01*
X101253578Y-160110000D01*
X101249578Y-160079615D01*
X101248500Y-160063170D01*
X101248500Y-156995955D01*
X101268502Y-156927834D01*
X101285405Y-156906860D01*
X119416859Y-138775405D01*
X119479171Y-138741379D01*
X119505954Y-138738500D01*
X130168294Y-138738500D01*
X130236415Y-138758502D01*
X130261930Y-138780189D01*
X130278747Y-138798866D01*
X130300329Y-138814546D01*
X130421519Y-138902596D01*
X130433248Y-138911118D01*
X130439276Y-138913802D01*
X130439278Y-138913803D01*
X130601681Y-138986109D01*
X130607712Y-138988794D01*
X130690791Y-139006453D01*
X130788056Y-139027128D01*
X130788061Y-139027128D01*
X130794513Y-139028500D01*
X130985487Y-139028500D01*
X130991939Y-139027128D01*
X130991944Y-139027128D01*
X131089209Y-139006453D01*
X131172288Y-138988794D01*
X131178319Y-138986109D01*
X131340722Y-138913803D01*
X131340724Y-138913802D01*
X131346752Y-138911118D01*
X131358482Y-138902596D01*
X131402157Y-138870864D01*
X131501253Y-138798866D01*
X131537597Y-138758502D01*
X131624621Y-138661852D01*
X131624622Y-138661851D01*
X131629040Y-138656944D01*
X131724527Y-138491556D01*
X131783542Y-138309928D01*
X131786423Y-138282522D01*
X131802814Y-138126565D01*
X131803504Y-138120000D01*
X131783542Y-137930072D01*
X131724527Y-137748444D01*
X131629040Y-137583056D01*
X131501253Y-137441134D01*
X131395911Y-137364598D01*
X131352094Y-137332763D01*
X131352093Y-137332762D01*
X131346752Y-137328882D01*
X131340724Y-137326198D01*
X131340722Y-137326197D01*
X131178319Y-137253891D01*
X131178318Y-137253891D01*
X131172288Y-137251206D01*
X131078888Y-137231353D01*
X130991944Y-137212872D01*
X130991939Y-137212872D01*
X130985487Y-137211500D01*
X130951317Y-137211500D01*
X130883196Y-137191498D01*
X130836703Y-137137842D01*
X130826007Y-137098670D01*
X130814232Y-136986635D01*
X130814232Y-136986633D01*
X130813542Y-136980072D01*
X130754527Y-136798444D01*
X130747910Y-136786982D01*
X130675159Y-136660975D01*
X130659040Y-136633056D01*
X130629104Y-136599808D01*
X130535675Y-136496045D01*
X130535674Y-136496044D01*
X130531253Y-136491134D01*
X130376752Y-136378882D01*
X130370724Y-136376198D01*
X130370722Y-136376197D01*
X130208319Y-136303891D01*
X130208318Y-136303891D01*
X130202288Y-136301206D01*
X130195833Y-136299834D01*
X130195824Y-136299831D01*
X130145514Y-136289137D01*
X130083041Y-136255409D01*
X130048720Y-136193259D01*
X130046402Y-136152721D01*
X130062814Y-135996565D01*
X130063504Y-135990000D01*
X130047069Y-135833630D01*
X130044232Y-135806635D01*
X130044232Y-135806633D01*
X130043542Y-135800072D01*
X129984527Y-135618444D01*
X129889040Y-135453056D01*
X129761253Y-135311134D01*
X129606752Y-135198882D01*
X129600724Y-135196198D01*
X129600722Y-135196197D01*
X129438319Y-135123891D01*
X129438318Y-135123891D01*
X129432288Y-135121206D01*
X129338888Y-135101353D01*
X129251944Y-135082872D01*
X129251939Y-135082872D01*
X129245487Y-135081500D01*
X129125954Y-135081500D01*
X129057833Y-135061498D01*
X129036859Y-135044595D01*
X124705405Y-130713140D01*
X124671379Y-130650828D01*
X124668500Y-130624045D01*
X124668500Y-127608790D01*
X124688502Y-127540669D01*
X124742158Y-127494176D01*
X124812432Y-127484072D01*
X124868558Y-127506852D01*
X124943248Y-127561118D01*
X124949276Y-127563802D01*
X124949278Y-127563803D01*
X125111681Y-127636109D01*
X125117712Y-127638794D01*
X125211113Y-127658647D01*
X125298056Y-127677128D01*
X125298061Y-127677128D01*
X125304513Y-127678500D01*
X125495487Y-127678500D01*
X125501939Y-127677128D01*
X125501944Y-127677128D01*
X125588887Y-127658647D01*
X125682288Y-127638794D01*
X125688319Y-127636109D01*
X125850722Y-127563803D01*
X125850724Y-127563802D01*
X125856752Y-127561118D01*
X126011253Y-127448866D01*
X126139040Y-127306944D01*
X126234527Y-127141556D01*
X126293542Y-126959928D01*
X126299174Y-126906348D01*
X126312814Y-126776565D01*
X126313504Y-126770000D01*
X126303073Y-126670753D01*
X126294233Y-126586642D01*
X126294232Y-126586638D01*
X126293542Y-126580072D01*
X126264667Y-126491205D01*
X126258500Y-126452268D01*
X126258500Y-119847792D01*
X126278502Y-119779671D01*
X126295405Y-119758697D01*
X130599369Y-115454733D01*
X130637215Y-115428721D01*
X130670722Y-115413803D01*
X130670724Y-115413802D01*
X130676752Y-115411118D01*
X130831253Y-115298866D01*
X130959040Y-115156944D01*
X131054527Y-114991556D01*
X131113542Y-114809928D01*
X131133504Y-114620000D01*
X131113542Y-114430072D01*
X131054527Y-114248444D01*
X130959040Y-114083056D01*
X130947285Y-114070000D01*
X130835675Y-113946045D01*
X130835674Y-113946044D01*
X130831253Y-113941134D01*
X130676752Y-113828882D01*
X130670724Y-113826198D01*
X130670722Y-113826197D01*
X130508319Y-113753891D01*
X130508318Y-113753891D01*
X130502288Y-113751206D01*
X130408888Y-113731353D01*
X130321944Y-113712872D01*
X130321939Y-113712872D01*
X130315487Y-113711500D01*
X130124513Y-113711500D01*
X130118061Y-113712872D01*
X130118056Y-113712872D01*
X130031113Y-113731353D01*
X129937712Y-113751206D01*
X129931682Y-113753891D01*
X129931681Y-113753891D01*
X129769278Y-113826197D01*
X129769276Y-113826198D01*
X129763248Y-113828882D01*
X129608747Y-113941134D01*
X129604326Y-113946044D01*
X129604325Y-113946045D01*
X129492716Y-114070000D01*
X129480960Y-114083056D01*
X129477659Y-114088774D01*
X129404720Y-114215107D01*
X129384696Y-114241202D01*
X124883595Y-118742302D01*
X124821283Y-118776328D01*
X124750468Y-118771263D01*
X124693632Y-118728716D01*
X124668821Y-118662196D01*
X124668500Y-118653207D01*
X124668500Y-111705955D01*
X124688502Y-111637834D01*
X124705405Y-111616860D01*
X132506860Y-103815405D01*
X132569172Y-103781379D01*
X132595955Y-103778500D01*
X132907216Y-103778500D01*
X132975337Y-103798502D01*
X133021830Y-103852158D01*
X133031934Y-103922432D01*
X133002440Y-103987012D01*
X132983927Y-104004456D01*
X132950277Y-104030277D01*
X132945251Y-104036827D01*
X132931620Y-104054591D01*
X132920753Y-104066982D01*
X128236982Y-108750753D01*
X128224591Y-108761620D01*
X128200277Y-108780277D01*
X128105946Y-108903211D01*
X128081384Y-108962510D01*
X128046647Y-109046370D01*
X128026422Y-109200000D01*
X128027500Y-109208188D01*
X128030422Y-109230384D01*
X128031500Y-109246830D01*
X128031500Y-112563171D01*
X128030422Y-112579617D01*
X128026422Y-112610000D01*
X128031500Y-112648571D01*
X128046648Y-112763629D01*
X128049807Y-112771256D01*
X128049808Y-112771259D01*
X128072025Y-112824895D01*
X128105946Y-112906789D01*
X128200277Y-113029723D01*
X128323211Y-113124054D01*
X128466371Y-113183352D01*
X128620000Y-113203578D01*
X128628188Y-113202500D01*
X128650383Y-113199578D01*
X128666829Y-113198500D01*
X130834045Y-113198500D01*
X130902166Y-113218502D01*
X130923140Y-113235405D01*
X131964595Y-114276859D01*
X131998620Y-114339171D01*
X132001500Y-114365954D01*
X132001500Y-115624045D01*
X131981498Y-115692166D01*
X131964595Y-115713140D01*
X129476982Y-118200753D01*
X129464591Y-118211620D01*
X129440277Y-118230277D01*
X129345946Y-118353211D01*
X129331263Y-118388660D01*
X129286647Y-118496370D01*
X129285569Y-118504557D01*
X129285569Y-118504558D01*
X129269055Y-118630001D01*
X129266422Y-118650000D01*
X129270044Y-118677514D01*
X129270422Y-118680384D01*
X129271500Y-118696830D01*
X129271500Y-119737498D01*
X129251498Y-119805619D01*
X129239136Y-119821808D01*
X129172215Y-119896132D01*
X129120960Y-119953056D01*
X129025473Y-120118444D01*
X128966458Y-120300072D01*
X128965768Y-120306633D01*
X128965768Y-120306635D01*
X128958427Y-120376482D01*
X128946496Y-120490000D01*
X128966458Y-120679928D01*
X129025473Y-120861556D01*
X129120960Y-121026944D01*
X129248747Y-121168866D01*
X129403248Y-121281118D01*
X129409276Y-121283802D01*
X129409278Y-121283803D01*
X129552576Y-121347603D01*
X129577712Y-121358794D01*
X129584167Y-121360166D01*
X129584173Y-121360168D01*
X129597632Y-121363029D01*
X129660105Y-121396759D01*
X129694424Y-121458909D01*
X129689695Y-121529748D01*
X129660527Y-121575370D01*
X128982217Y-122253680D01*
X128974451Y-122260822D01*
X128934633Y-122294471D01*
X128930486Y-122299895D01*
X128930485Y-122299896D01*
X128885326Y-122358962D01*
X128883432Y-122361379D01*
X128832490Y-122424738D01*
X128829453Y-122430857D01*
X128827665Y-122433652D01*
X128827412Y-122434013D01*
X128827210Y-122434380D01*
X128825479Y-122437238D01*
X128821340Y-122442652D01*
X128818459Y-122448831D01*
X128787015Y-122516262D01*
X128785681Y-122519033D01*
X128749553Y-122591814D01*
X128747902Y-122598435D01*
X128746751Y-122601563D01*
X128746587Y-122601956D01*
X128746468Y-122602361D01*
X128745391Y-122605525D01*
X128742510Y-122611704D01*
X128741023Y-122618358D01*
X128724785Y-122691002D01*
X128724076Y-122693998D01*
X128704428Y-122772801D01*
X128704237Y-122779622D01*
X128703785Y-122782925D01*
X128703626Y-122783809D01*
X128702948Y-122788692D01*
X128701820Y-122793740D01*
X128701500Y-122799463D01*
X128701500Y-122875844D01*
X128701451Y-122879363D01*
X128699219Y-122959257D01*
X128700498Y-122965961D01*
X128701045Y-122972762D01*
X128700525Y-122972804D01*
X128701500Y-122983125D01*
X128701500Y-126042207D01*
X128681498Y-126110328D01*
X128664595Y-126131302D01*
X126330628Y-128465269D01*
X126292781Y-128491281D01*
X126259280Y-128506196D01*
X126259277Y-128506198D01*
X126253248Y-128508882D01*
X126098747Y-128621134D01*
X126094326Y-128626044D01*
X126094325Y-128626045D01*
X125979381Y-128753704D01*
X125970960Y-128763056D01*
X125875473Y-128928444D01*
X125816458Y-129110072D01*
X125815768Y-129116633D01*
X125815768Y-129116635D01*
X125798590Y-129280072D01*
X125796496Y-129300000D01*
X125797186Y-129306565D01*
X125814364Y-129470000D01*
X125816458Y-129489928D01*
X125875473Y-129671556D01*
X125970960Y-129836944D01*
X126098747Y-129978866D01*
X126253248Y-130091118D01*
X126259276Y-130093802D01*
X126259278Y-130093803D01*
X126421681Y-130166109D01*
X126427712Y-130168794D01*
X126521113Y-130188647D01*
X126608056Y-130207128D01*
X126608061Y-130207128D01*
X126614513Y-130208500D01*
X126805487Y-130208500D01*
X126811939Y-130207128D01*
X126811944Y-130207128D01*
X126898887Y-130188647D01*
X126992288Y-130168794D01*
X126998319Y-130166109D01*
X127160722Y-130093803D01*
X127160724Y-130093802D01*
X127166752Y-130091118D01*
X127321253Y-129978866D01*
X127449040Y-129836944D01*
X127525280Y-129704893D01*
X127545304Y-129678798D01*
X130137783Y-127086320D01*
X130145550Y-127079177D01*
X130180153Y-127049935D01*
X130185367Y-127045529D01*
X130234679Y-126981031D01*
X130236573Y-126978615D01*
X130283232Y-126920583D01*
X130283233Y-126920582D01*
X130287510Y-126915262D01*
X130290547Y-126909143D01*
X130292335Y-126906348D01*
X130292588Y-126905987D01*
X130292790Y-126905620D01*
X130294521Y-126902762D01*
X130298660Y-126897348D01*
X130332986Y-126823736D01*
X130334320Y-126820964D01*
X130336458Y-126816658D01*
X130370447Y-126748186D01*
X130372098Y-126741565D01*
X130373249Y-126738437D01*
X130373413Y-126738043D01*
X130373532Y-126737639D01*
X130374609Y-126734476D01*
X130377490Y-126728296D01*
X130395206Y-126649042D01*
X130395913Y-126646048D01*
X130403311Y-126616379D01*
X130415573Y-126567198D01*
X130415763Y-126560377D01*
X130416216Y-126557074D01*
X130416375Y-126556192D01*
X130417054Y-126551299D01*
X130418180Y-126546260D01*
X130418500Y-126540537D01*
X130418500Y-126464171D01*
X130418549Y-126460653D01*
X130420591Y-126387563D01*
X130420591Y-126387558D01*
X130420781Y-126380743D01*
X130419503Y-126374042D01*
X130418955Y-126367238D01*
X130419475Y-126367196D01*
X130418500Y-126356875D01*
X130418500Y-123297792D01*
X130438502Y-123229671D01*
X130455405Y-123208697D01*
X133209603Y-120454499D01*
X140910753Y-120454499D01*
X140915442Y-120460763D01*
X141001818Y-120507662D01*
X141015844Y-120513215D01*
X141155193Y-120549772D01*
X141170144Y-120551819D01*
X141314187Y-120554083D01*
X141329191Y-120552506D01*
X141469625Y-120520342D01*
X141483810Y-120515235D01*
X141585254Y-120464214D01*
X141595560Y-120454583D01*
X141595532Y-120454499D01*
X142745753Y-120454499D01*
X142750442Y-120460763D01*
X142836818Y-120507662D01*
X142850844Y-120513215D01*
X142990193Y-120549772D01*
X143005144Y-120551819D01*
X143149187Y-120554083D01*
X143164191Y-120552506D01*
X143304625Y-120520342D01*
X143318810Y-120515235D01*
X143420254Y-120464214D01*
X143430560Y-120454583D01*
X143428348Y-120447980D01*
X143100312Y-120119944D01*
X143086368Y-120112330D01*
X143084535Y-120112461D01*
X143077920Y-120116712D01*
X142752513Y-120442119D01*
X142745753Y-120454499D01*
X141595532Y-120454499D01*
X141593348Y-120447980D01*
X141265312Y-120119944D01*
X141251368Y-120112330D01*
X141249535Y-120112461D01*
X141242920Y-120116712D01*
X140917513Y-120442119D01*
X140910753Y-120454499D01*
X133209603Y-120454499D01*
X134127103Y-119536999D01*
X139993253Y-119536999D01*
X139997942Y-119543263D01*
X140084318Y-119590162D01*
X140098344Y-119595715D01*
X140237693Y-119632272D01*
X140252644Y-119634319D01*
X140396687Y-119636583D01*
X140411691Y-119635006D01*
X140452874Y-119625574D01*
X140523741Y-119629864D01*
X140581039Y-119671786D01*
X140606576Y-119738031D01*
X140605925Y-119764840D01*
X140590694Y-119880528D01*
X140590537Y-119895609D01*
X140606346Y-120038805D01*
X140609792Y-120053494D01*
X140659299Y-120188783D01*
X140666149Y-120202226D01*
X140682970Y-120227259D01*
X140692954Y-120235558D01*
X140707045Y-120228323D01*
X141027556Y-119907812D01*
X141033934Y-119896132D01*
X141469830Y-119896132D01*
X141469961Y-119897965D01*
X141474212Y-119904580D01*
X141799882Y-120230250D01*
X141811892Y-120236808D01*
X141823633Y-120227838D01*
X141828913Y-120220490D01*
X141836178Y-120207275D01*
X141889913Y-120073607D01*
X141893819Y-120059028D01*
X141914607Y-119912962D01*
X141915231Y-119904758D01*
X141915290Y-119899121D01*
X141914838Y-119890906D01*
X141899611Y-119765082D01*
X141911284Y-119695052D01*
X141958965Y-119642450D01*
X142027516Y-119623977D01*
X142056669Y-119628069D01*
X142072688Y-119632271D01*
X142087644Y-119634319D01*
X142231687Y-119636583D01*
X142246691Y-119635006D01*
X142287874Y-119625574D01*
X142358741Y-119629864D01*
X142416039Y-119671786D01*
X142441576Y-119738031D01*
X142440925Y-119764840D01*
X142425694Y-119880528D01*
X142425537Y-119895609D01*
X142441346Y-120038805D01*
X142444792Y-120053494D01*
X142494299Y-120188783D01*
X142501149Y-120202226D01*
X142517970Y-120227259D01*
X142527954Y-120235558D01*
X142542045Y-120228323D01*
X142862556Y-119907812D01*
X142868934Y-119896132D01*
X143304830Y-119896132D01*
X143304961Y-119897965D01*
X143309212Y-119904580D01*
X143634882Y-120230250D01*
X143646892Y-120236808D01*
X143658633Y-120227838D01*
X143663913Y-120220490D01*
X143671178Y-120207275D01*
X143724913Y-120073607D01*
X143728819Y-120059028D01*
X143749607Y-119912962D01*
X143750231Y-119904758D01*
X143750290Y-119899121D01*
X143749838Y-119890906D01*
X143734611Y-119765082D01*
X143746284Y-119695052D01*
X143793965Y-119642450D01*
X143862516Y-119623977D01*
X143891669Y-119628069D01*
X143907688Y-119632271D01*
X143922644Y-119634319D01*
X144066687Y-119636583D01*
X144081691Y-119635006D01*
X144222125Y-119602842D01*
X144236310Y-119597735D01*
X144337754Y-119546714D01*
X144348060Y-119537083D01*
X144345848Y-119530480D01*
X144017812Y-119202444D01*
X144003868Y-119194830D01*
X144002035Y-119194961D01*
X143995420Y-119199212D01*
X143657201Y-119537431D01*
X143654924Y-119535154D01*
X143644752Y-119545122D01*
X143647131Y-119547501D01*
X143312444Y-119882188D01*
X143304830Y-119896132D01*
X142868934Y-119896132D01*
X142870170Y-119893868D01*
X142870039Y-119892035D01*
X142865788Y-119885420D01*
X142527613Y-119547245D01*
X142528345Y-119546513D01*
X142517510Y-119537628D01*
X142515006Y-119534638D01*
X142182812Y-119202444D01*
X142168868Y-119194830D01*
X142167035Y-119194961D01*
X142160420Y-119199212D01*
X141822201Y-119537431D01*
X141819924Y-119535154D01*
X141809752Y-119545122D01*
X141812131Y-119547501D01*
X141477444Y-119882188D01*
X141469830Y-119896132D01*
X141033934Y-119896132D01*
X141035170Y-119893868D01*
X141035039Y-119892035D01*
X141030788Y-119885420D01*
X140692613Y-119547245D01*
X140693345Y-119546513D01*
X140682510Y-119537628D01*
X140680006Y-119534638D01*
X140347812Y-119202444D01*
X140333868Y-119194830D01*
X140332035Y-119194961D01*
X140325420Y-119199212D01*
X140000013Y-119524619D01*
X139993253Y-119536999D01*
X134127103Y-119536999D01*
X134685993Y-118978109D01*
X139673037Y-118978109D01*
X139688846Y-119121305D01*
X139692292Y-119135994D01*
X139741799Y-119271283D01*
X139748649Y-119284726D01*
X139765470Y-119309759D01*
X139775454Y-119318058D01*
X139789545Y-119310823D01*
X140110056Y-118990312D01*
X140116434Y-118978632D01*
X140552330Y-118978632D01*
X140552461Y-118980465D01*
X140556712Y-118987080D01*
X140895194Y-119325562D01*
X140894510Y-119326246D01*
X140904787Y-119334627D01*
X140907697Y-119338065D01*
X141239688Y-119670056D01*
X141253632Y-119677670D01*
X141255465Y-119677539D01*
X141262080Y-119673288D01*
X141600624Y-119334744D01*
X141602960Y-119337080D01*
X141613035Y-119327257D01*
X141610573Y-119324795D01*
X141945056Y-118990312D01*
X141951434Y-118978632D01*
X142387330Y-118978632D01*
X142387461Y-118980465D01*
X142391712Y-118987080D01*
X142730194Y-119325562D01*
X142729510Y-119326246D01*
X142739787Y-119334627D01*
X142742697Y-119338065D01*
X143074688Y-119670056D01*
X143088632Y-119677670D01*
X143090465Y-119677539D01*
X143097080Y-119673288D01*
X143435624Y-119334744D01*
X143437960Y-119337080D01*
X143448035Y-119327257D01*
X143445573Y-119324795D01*
X143780056Y-118990312D01*
X143786434Y-118978632D01*
X144222330Y-118978632D01*
X144222461Y-118980465D01*
X144226712Y-118987080D01*
X144552382Y-119312750D01*
X144564392Y-119319308D01*
X144576133Y-119310338D01*
X144581413Y-119302990D01*
X144588678Y-119289775D01*
X144642413Y-119156107D01*
X144646319Y-119141528D01*
X144667107Y-118995462D01*
X144667731Y-118987258D01*
X144667790Y-118981621D01*
X144667338Y-118973406D01*
X144649612Y-118826932D01*
X144646016Y-118812289D01*
X144595089Y-118677514D01*
X144588106Y-118664157D01*
X144574892Y-118644931D01*
X144564638Y-118636588D01*
X144550899Y-118643733D01*
X144229944Y-118964688D01*
X144222330Y-118978632D01*
X143786434Y-118978632D01*
X143787670Y-118976368D01*
X143787539Y-118974535D01*
X143783288Y-118967920D01*
X143445113Y-118629745D01*
X143445845Y-118629013D01*
X143435010Y-118620128D01*
X143432506Y-118617138D01*
X143100312Y-118284944D01*
X143086368Y-118277330D01*
X143084535Y-118277461D01*
X143077920Y-118281712D01*
X142739701Y-118619931D01*
X142737424Y-118617654D01*
X142727252Y-118627622D01*
X142729631Y-118630001D01*
X142394944Y-118964688D01*
X142387330Y-118978632D01*
X141951434Y-118978632D01*
X141952670Y-118976368D01*
X141952539Y-118974535D01*
X141948288Y-118967920D01*
X141610113Y-118629745D01*
X141610845Y-118629013D01*
X141600010Y-118620128D01*
X141597506Y-118617138D01*
X141265312Y-118284944D01*
X141251368Y-118277330D01*
X141249535Y-118277461D01*
X141242920Y-118281712D01*
X140904701Y-118619931D01*
X140902424Y-118617654D01*
X140892252Y-118627622D01*
X140894631Y-118630001D01*
X140559944Y-118964688D01*
X140552330Y-118978632D01*
X140116434Y-118978632D01*
X140117670Y-118976368D01*
X140117539Y-118974535D01*
X140113288Y-118967920D01*
X139787925Y-118642557D01*
X139776116Y-118636108D01*
X139764142Y-118645356D01*
X139755212Y-118658062D01*
X139748083Y-118671356D01*
X139695751Y-118805580D01*
X139691999Y-118820194D01*
X139673194Y-118963028D01*
X139673037Y-118978109D01*
X134685993Y-118978109D01*
X135074566Y-118589536D01*
X135136878Y-118555510D01*
X135189854Y-118555384D01*
X135204513Y-118558500D01*
X135395487Y-118558500D01*
X135401939Y-118557128D01*
X135401944Y-118557128D01*
X135488888Y-118538647D01*
X135582288Y-118518794D01*
X135614263Y-118504558D01*
X135750722Y-118443803D01*
X135750724Y-118443802D01*
X135756752Y-118441118D01*
X135771978Y-118430056D01*
X135788170Y-118418292D01*
X139992393Y-118418292D01*
X139994764Y-118425132D01*
X140322188Y-118752556D01*
X140336132Y-118760170D01*
X140337965Y-118760039D01*
X140344580Y-118755788D01*
X140683124Y-118417244D01*
X140685460Y-118419580D01*
X140695535Y-118409757D01*
X140693073Y-118407295D01*
X141027556Y-118072812D01*
X141033934Y-118061132D01*
X141469830Y-118061132D01*
X141469961Y-118062965D01*
X141474212Y-118069580D01*
X141812694Y-118408062D01*
X141812010Y-118408746D01*
X141822287Y-118417127D01*
X141825197Y-118420565D01*
X142157188Y-118752556D01*
X142171132Y-118760170D01*
X142172965Y-118760039D01*
X142179580Y-118755788D01*
X142518124Y-118417244D01*
X142520460Y-118419580D01*
X142530535Y-118409757D01*
X142528073Y-118407295D01*
X142862556Y-118072812D01*
X142868934Y-118061132D01*
X143304830Y-118061132D01*
X143304961Y-118062965D01*
X143309212Y-118069580D01*
X143647694Y-118408062D01*
X143647010Y-118408746D01*
X143657287Y-118417127D01*
X143660197Y-118420565D01*
X143992188Y-118752556D01*
X144006132Y-118760170D01*
X144007965Y-118760039D01*
X144014580Y-118755788D01*
X144340312Y-118430056D01*
X144347072Y-118417676D01*
X144342562Y-118411652D01*
X144249249Y-118362245D01*
X144235172Y-118356842D01*
X144095446Y-118321745D01*
X144080474Y-118319854D01*
X143936410Y-118319100D01*
X143921434Y-118320832D01*
X143888021Y-118328854D01*
X143817113Y-118325307D01*
X143759379Y-118283987D01*
X143733149Y-118218013D01*
X143733864Y-118188582D01*
X143749607Y-118077963D01*
X143750231Y-118069758D01*
X143750290Y-118064121D01*
X143749838Y-118055906D01*
X143734611Y-117930082D01*
X143746284Y-117860052D01*
X143793965Y-117807450D01*
X143862516Y-117788977D01*
X143891669Y-117793069D01*
X143907688Y-117797271D01*
X143922644Y-117799319D01*
X144066687Y-117801583D01*
X144081691Y-117800006D01*
X144222125Y-117767842D01*
X144236310Y-117762735D01*
X144337754Y-117711714D01*
X144348060Y-117702083D01*
X144345848Y-117695480D01*
X144017812Y-117367444D01*
X144003868Y-117359830D01*
X144002035Y-117359961D01*
X143995420Y-117364212D01*
X143657201Y-117702431D01*
X143654924Y-117700154D01*
X143644752Y-117710122D01*
X143647131Y-117712501D01*
X143312444Y-118047188D01*
X143304830Y-118061132D01*
X142868934Y-118061132D01*
X142870170Y-118058868D01*
X142870039Y-118057035D01*
X142865788Y-118050420D01*
X142527613Y-117712245D01*
X142528345Y-117711513D01*
X142517510Y-117702628D01*
X142515006Y-117699638D01*
X142182812Y-117367444D01*
X142168868Y-117359830D01*
X142167035Y-117359961D01*
X142160420Y-117364212D01*
X141822201Y-117702431D01*
X141819924Y-117700154D01*
X141809752Y-117710122D01*
X141812131Y-117712501D01*
X141477444Y-118047188D01*
X141469830Y-118061132D01*
X141033934Y-118061132D01*
X141035170Y-118058868D01*
X141035039Y-118057035D01*
X141030788Y-118050420D01*
X140692613Y-117712245D01*
X140693345Y-117711513D01*
X140682510Y-117702628D01*
X140680006Y-117699638D01*
X140347812Y-117367444D01*
X140333868Y-117359830D01*
X140332035Y-117359961D01*
X140325420Y-117364212D01*
X140000013Y-117689619D01*
X139993253Y-117701999D01*
X139997942Y-117708263D01*
X140084318Y-117755162D01*
X140098344Y-117760715D01*
X140237693Y-117797272D01*
X140252644Y-117799319D01*
X140396687Y-117801583D01*
X140411691Y-117800006D01*
X140452874Y-117790574D01*
X140523741Y-117794864D01*
X140581039Y-117836786D01*
X140606576Y-117903031D01*
X140605925Y-117929840D01*
X140590694Y-118045528D01*
X140590537Y-118060609D01*
X140605004Y-118191648D01*
X140592598Y-118261552D01*
X140544369Y-118313652D01*
X140475628Y-118331407D01*
X140449071Y-118327679D01*
X140425449Y-118321746D01*
X140410474Y-118319854D01*
X140266410Y-118319100D01*
X140251434Y-118320832D01*
X140111335Y-118354467D01*
X140097211Y-118359720D01*
X140002595Y-118408555D01*
X139992393Y-118418292D01*
X135788170Y-118418292D01*
X135882602Y-118349682D01*
X135911253Y-118328866D01*
X135918487Y-118320832D01*
X136034621Y-118191852D01*
X136034622Y-118191851D01*
X136039040Y-118186944D01*
X136109952Y-118064121D01*
X136131223Y-118027279D01*
X136131224Y-118027278D01*
X136134527Y-118021556D01*
X136193542Y-117839928D01*
X136198026Y-117797271D01*
X136212814Y-117656565D01*
X136213504Y-117650000D01*
X136197712Y-117499744D01*
X136194232Y-117466635D01*
X136194232Y-117466633D01*
X136193542Y-117460072D01*
X136134527Y-117278444D01*
X136056391Y-117143109D01*
X139673037Y-117143109D01*
X139688846Y-117286305D01*
X139692292Y-117300994D01*
X139741799Y-117436283D01*
X139748649Y-117449726D01*
X139765470Y-117474759D01*
X139775454Y-117483058D01*
X139789545Y-117475823D01*
X140110056Y-117155312D01*
X140116434Y-117143632D01*
X140552330Y-117143632D01*
X140552461Y-117145465D01*
X140556712Y-117152080D01*
X140895194Y-117490562D01*
X140894510Y-117491246D01*
X140904787Y-117499627D01*
X140907697Y-117503065D01*
X141239688Y-117835056D01*
X141253632Y-117842670D01*
X141255465Y-117842539D01*
X141262080Y-117838288D01*
X141600624Y-117499744D01*
X141602960Y-117502080D01*
X141613035Y-117492257D01*
X141610573Y-117489795D01*
X141945056Y-117155312D01*
X141951434Y-117143632D01*
X142387330Y-117143632D01*
X142387461Y-117145465D01*
X142391712Y-117152080D01*
X142730194Y-117490562D01*
X142729510Y-117491246D01*
X142739787Y-117499627D01*
X142742697Y-117503065D01*
X143074688Y-117835056D01*
X143088632Y-117842670D01*
X143090465Y-117842539D01*
X143097080Y-117838288D01*
X143435624Y-117499744D01*
X143437960Y-117502080D01*
X143448035Y-117492257D01*
X143445573Y-117489795D01*
X143780056Y-117155312D01*
X143786434Y-117143632D01*
X144222330Y-117143632D01*
X144222461Y-117145465D01*
X144226712Y-117152080D01*
X144552382Y-117477750D01*
X144564392Y-117484308D01*
X144576133Y-117475338D01*
X144581413Y-117467990D01*
X144588678Y-117454775D01*
X144642413Y-117321107D01*
X144646319Y-117306528D01*
X144667107Y-117160462D01*
X144667731Y-117152258D01*
X144667790Y-117146621D01*
X144667338Y-117138406D01*
X144649612Y-116991932D01*
X144646016Y-116977289D01*
X144595089Y-116842514D01*
X144588106Y-116829157D01*
X144574892Y-116809931D01*
X144564638Y-116801588D01*
X144550899Y-116808733D01*
X144229944Y-117129688D01*
X144222330Y-117143632D01*
X143786434Y-117143632D01*
X143787670Y-117141368D01*
X143787539Y-117139535D01*
X143783288Y-117132920D01*
X143445113Y-116794745D01*
X143445845Y-116794013D01*
X143435010Y-116785128D01*
X143432506Y-116782138D01*
X143100312Y-116449944D01*
X143086368Y-116442330D01*
X143084535Y-116442461D01*
X143077920Y-116446712D01*
X142739701Y-116784931D01*
X142737424Y-116782654D01*
X142727252Y-116792622D01*
X142729631Y-116795001D01*
X142394944Y-117129688D01*
X142387330Y-117143632D01*
X141951434Y-117143632D01*
X141952670Y-117141368D01*
X141952539Y-117139535D01*
X141948288Y-117132920D01*
X141610113Y-116794745D01*
X141610845Y-116794013D01*
X141600010Y-116785128D01*
X141597506Y-116782138D01*
X141265312Y-116449944D01*
X141251368Y-116442330D01*
X141249535Y-116442461D01*
X141242920Y-116446712D01*
X140904701Y-116784931D01*
X140902424Y-116782654D01*
X140892252Y-116792622D01*
X140894631Y-116795001D01*
X140559944Y-117129688D01*
X140552330Y-117143632D01*
X140116434Y-117143632D01*
X140117670Y-117141368D01*
X140117539Y-117139535D01*
X140113288Y-117132920D01*
X139787925Y-116807557D01*
X139776116Y-116801108D01*
X139764142Y-116810356D01*
X139755212Y-116823062D01*
X139748083Y-116836356D01*
X139695751Y-116970580D01*
X139691999Y-116985194D01*
X139673194Y-117128028D01*
X139673037Y-117143109D01*
X136056391Y-117143109D01*
X136039040Y-117113056D01*
X135966875Y-117032908D01*
X135915675Y-116976045D01*
X135915674Y-116976044D01*
X135911253Y-116971134D01*
X135779720Y-116875569D01*
X135762094Y-116862763D01*
X135762093Y-116862762D01*
X135756752Y-116858882D01*
X135750724Y-116856198D01*
X135750722Y-116856197D01*
X135588319Y-116783891D01*
X135588318Y-116783891D01*
X135582288Y-116781206D01*
X135488887Y-116761353D01*
X135401944Y-116742872D01*
X135401939Y-116742872D01*
X135395487Y-116741500D01*
X135204513Y-116741500D01*
X135198061Y-116742872D01*
X135198056Y-116742872D01*
X135024169Y-116779833D01*
X135024164Y-116779834D01*
X135017712Y-116781206D01*
X135011681Y-116783891D01*
X135007244Y-116785333D01*
X134968307Y-116791500D01*
X134841390Y-116791500D01*
X134830847Y-116791058D01*
X134778901Y-116786696D01*
X134772141Y-116787598D01*
X134772139Y-116787598D01*
X134698398Y-116797437D01*
X134695343Y-116797807D01*
X134664960Y-116801108D01*
X134614563Y-116806583D01*
X134608099Y-116808758D01*
X134604824Y-116809478D01*
X134604428Y-116809548D01*
X134604004Y-116809671D01*
X134600784Y-116810462D01*
X134594011Y-116811366D01*
X134517677Y-116839149D01*
X134514802Y-116840156D01*
X134507796Y-116842514D01*
X134437777Y-116866078D01*
X134431923Y-116869596D01*
X134428916Y-116870985D01*
X134428511Y-116871152D01*
X134428135Y-116871357D01*
X134425148Y-116872827D01*
X134418732Y-116875162D01*
X134350080Y-116918730D01*
X134347611Y-116920255D01*
X134277891Y-116962147D01*
X134272934Y-116966834D01*
X134270277Y-116968851D01*
X134269531Y-116969369D01*
X134265598Y-116972344D01*
X134261241Y-116975109D01*
X134256968Y-116978930D01*
X134202990Y-117032908D01*
X134200468Y-117035362D01*
X134142364Y-117090308D01*
X134138526Y-117095956D01*
X134134107Y-117101148D01*
X134133707Y-117100808D01*
X134127098Y-117108800D01*
X130943635Y-120292262D01*
X130881323Y-120326288D01*
X130810507Y-120321223D01*
X130753672Y-120278676D01*
X130734707Y-120242104D01*
X130696568Y-120124726D01*
X130694527Y-120118444D01*
X130599040Y-119953056D01*
X130547786Y-119896132D01*
X130480864Y-119821808D01*
X130450146Y-119757801D01*
X130448500Y-119737498D01*
X130448500Y-118945955D01*
X130468502Y-118877834D01*
X130485405Y-118856860D01*
X132758973Y-116583292D01*
X139992393Y-116583292D01*
X139994764Y-116590132D01*
X140322188Y-116917556D01*
X140336132Y-116925170D01*
X140337965Y-116925039D01*
X140344580Y-116920788D01*
X140683124Y-116582244D01*
X140685460Y-116584580D01*
X140695535Y-116574757D01*
X140693073Y-116572295D01*
X141027556Y-116237812D01*
X141033934Y-116226132D01*
X141469830Y-116226132D01*
X141469961Y-116227965D01*
X141474212Y-116234580D01*
X141812694Y-116573062D01*
X141812010Y-116573746D01*
X141822287Y-116582127D01*
X141825197Y-116585565D01*
X142157188Y-116917556D01*
X142171132Y-116925170D01*
X142172965Y-116925039D01*
X142179580Y-116920788D01*
X142518124Y-116582244D01*
X142520460Y-116584580D01*
X142530535Y-116574757D01*
X142528073Y-116572295D01*
X142862556Y-116237812D01*
X142868934Y-116226132D01*
X143304830Y-116226132D01*
X143304961Y-116227965D01*
X143309212Y-116234580D01*
X143647694Y-116573062D01*
X143647010Y-116573746D01*
X143657287Y-116582127D01*
X143660197Y-116585565D01*
X143992188Y-116917556D01*
X144006132Y-116925170D01*
X144007965Y-116925039D01*
X144014580Y-116920788D01*
X144340312Y-116595056D01*
X144347072Y-116582676D01*
X144342562Y-116576652D01*
X144249249Y-116527245D01*
X144235172Y-116521842D01*
X144095446Y-116486745D01*
X144080474Y-116484854D01*
X143936410Y-116484100D01*
X143921434Y-116485832D01*
X143888021Y-116493854D01*
X143817113Y-116490307D01*
X143759379Y-116448987D01*
X143733149Y-116383013D01*
X143733864Y-116353582D01*
X143749607Y-116242963D01*
X143750231Y-116234758D01*
X143750290Y-116229121D01*
X143749838Y-116220906D01*
X143732112Y-116074432D01*
X143728516Y-116059789D01*
X143677589Y-115925014D01*
X143670606Y-115911657D01*
X143657392Y-115892431D01*
X143647138Y-115884088D01*
X143633399Y-115891233D01*
X143312444Y-116212188D01*
X143304830Y-116226132D01*
X142868934Y-116226132D01*
X142870170Y-116223868D01*
X142870039Y-116222035D01*
X142865788Y-116215420D01*
X142540425Y-115890057D01*
X142528616Y-115883608D01*
X142516642Y-115892856D01*
X142507712Y-115905562D01*
X142500583Y-115918856D01*
X142448251Y-116053080D01*
X142444499Y-116067694D01*
X142425694Y-116210528D01*
X142425537Y-116225609D01*
X142440004Y-116356648D01*
X142427598Y-116426552D01*
X142379369Y-116478652D01*
X142310628Y-116496407D01*
X142284071Y-116492679D01*
X142260449Y-116486746D01*
X142245474Y-116484854D01*
X142101410Y-116484100D01*
X142086434Y-116485832D01*
X142053021Y-116493854D01*
X141982113Y-116490307D01*
X141924379Y-116448987D01*
X141898149Y-116383013D01*
X141898864Y-116353582D01*
X141914607Y-116242963D01*
X141915231Y-116234758D01*
X141915290Y-116229121D01*
X141914838Y-116220906D01*
X141897112Y-116074432D01*
X141893516Y-116059789D01*
X141842589Y-115925014D01*
X141835606Y-115911657D01*
X141822392Y-115892431D01*
X141812138Y-115884088D01*
X141798399Y-115891233D01*
X141477444Y-116212188D01*
X141469830Y-116226132D01*
X141033934Y-116226132D01*
X141035170Y-116223868D01*
X141035039Y-116222035D01*
X141030788Y-116215420D01*
X140705425Y-115890057D01*
X140693616Y-115883608D01*
X140681642Y-115892856D01*
X140672712Y-115905562D01*
X140665583Y-115918856D01*
X140613251Y-116053080D01*
X140609499Y-116067694D01*
X140590694Y-116210528D01*
X140590537Y-116225609D01*
X140605004Y-116356648D01*
X140592598Y-116426552D01*
X140544369Y-116478652D01*
X140475628Y-116496407D01*
X140449071Y-116492679D01*
X140425449Y-116486746D01*
X140410474Y-116484854D01*
X140266410Y-116484100D01*
X140251434Y-116485832D01*
X140111335Y-116519467D01*
X140097211Y-116524720D01*
X140002595Y-116573555D01*
X139992393Y-116583292D01*
X132758973Y-116583292D01*
X132973018Y-116369247D01*
X132985409Y-116358380D01*
X133003173Y-116344749D01*
X133009723Y-116339723D01*
X133104054Y-116216789D01*
X133137112Y-116136980D01*
X133163353Y-116073630D01*
X133172037Y-116007670D01*
X133182500Y-115928189D01*
X133183578Y-115920000D01*
X133179578Y-115889615D01*
X133178500Y-115873170D01*
X133178500Y-115665792D01*
X140909893Y-115665792D01*
X140912264Y-115672632D01*
X141239688Y-116000056D01*
X141253632Y-116007670D01*
X141255465Y-116007539D01*
X141262080Y-116003288D01*
X141587812Y-115677556D01*
X141594236Y-115665792D01*
X142744893Y-115665792D01*
X142747264Y-115672632D01*
X143074688Y-116000056D01*
X143088632Y-116007670D01*
X143090465Y-116007539D01*
X143097080Y-116003288D01*
X143422812Y-115677556D01*
X143429572Y-115665176D01*
X143425062Y-115659152D01*
X143331749Y-115609745D01*
X143317672Y-115604342D01*
X143177946Y-115569245D01*
X143162974Y-115567354D01*
X143018910Y-115566600D01*
X143003934Y-115568332D01*
X142863835Y-115601967D01*
X142849711Y-115607220D01*
X142755095Y-115656055D01*
X142744893Y-115665792D01*
X141594236Y-115665792D01*
X141594572Y-115665176D01*
X141590062Y-115659152D01*
X141496749Y-115609745D01*
X141482672Y-115604342D01*
X141342946Y-115569245D01*
X141327974Y-115567354D01*
X141183910Y-115566600D01*
X141168934Y-115568332D01*
X141028835Y-115601967D01*
X141014711Y-115607220D01*
X140920095Y-115656055D01*
X140909893Y-115665792D01*
X133178500Y-115665792D01*
X133178500Y-114116830D01*
X133179578Y-114100384D01*
X133182500Y-114078188D01*
X133183578Y-114070000D01*
X133179250Y-114037128D01*
X133164431Y-113924557D01*
X133164430Y-113924555D01*
X133163353Y-113916371D01*
X133126525Y-113827462D01*
X133104054Y-113773211D01*
X133009723Y-113650277D01*
X132985405Y-113631617D01*
X132973014Y-113620750D01*
X131579247Y-112226982D01*
X131568380Y-112214591D01*
X131554749Y-112196827D01*
X131549723Y-112190277D01*
X131426789Y-112095946D01*
X131367490Y-112071384D01*
X131327283Y-112054729D01*
X131291261Y-112039808D01*
X131283630Y-112036647D01*
X131275443Y-112035569D01*
X131275442Y-112035569D01*
X131138189Y-112017500D01*
X131130000Y-112016422D01*
X131099616Y-112020422D01*
X131083170Y-112021500D01*
X130028120Y-112021500D01*
X129959999Y-112001498D01*
X129913506Y-111947842D01*
X129903402Y-111877568D01*
X129932896Y-111812988D01*
X129992622Y-111774604D01*
X130001923Y-111772253D01*
X130105831Y-111750167D01*
X130105836Y-111750166D01*
X130112288Y-111748794D01*
X130118319Y-111746109D01*
X130122756Y-111744667D01*
X130161693Y-111738500D01*
X134312208Y-111738500D01*
X134380329Y-111758502D01*
X134401303Y-111775405D01*
X135039332Y-112413435D01*
X135424697Y-112798800D01*
X135444721Y-112824895D01*
X135520960Y-112956944D01*
X135525378Y-112961851D01*
X135525379Y-112961852D01*
X135580593Y-113023173D01*
X135648747Y-113098866D01*
X135687765Y-113127214D01*
X135797261Y-113206768D01*
X135803248Y-113211118D01*
X135809276Y-113213802D01*
X135809278Y-113213803D01*
X135923371Y-113264600D01*
X135977712Y-113288794D01*
X136071113Y-113308647D01*
X136158056Y-113327128D01*
X136158061Y-113327128D01*
X136164513Y-113328500D01*
X136355487Y-113328500D01*
X136361939Y-113327128D01*
X136361944Y-113327128D01*
X136448887Y-113308647D01*
X136542288Y-113288794D01*
X136596629Y-113264600D01*
X136710722Y-113213803D01*
X136710724Y-113213802D01*
X136716752Y-113211118D01*
X136722740Y-113206768D01*
X136832235Y-113127214D01*
X136871253Y-113098866D01*
X136939407Y-113023173D01*
X136994621Y-112961852D01*
X136994622Y-112961851D01*
X136999040Y-112956944D01*
X137094527Y-112791556D01*
X137153542Y-112609928D01*
X137154715Y-112598774D01*
X137172814Y-112426565D01*
X137173504Y-112420000D01*
X137158060Y-112273056D01*
X137154232Y-112236635D01*
X137154232Y-112236633D01*
X137153542Y-112230072D01*
X137094527Y-112048444D01*
X137078349Y-112020422D01*
X137031322Y-111938970D01*
X136999040Y-111883056D01*
X136985602Y-111868131D01*
X136875675Y-111746045D01*
X136875674Y-111746044D01*
X136871253Y-111741134D01*
X136751000Y-111653765D01*
X136722094Y-111632763D01*
X136722093Y-111632762D01*
X136716752Y-111628882D01*
X136710723Y-111626198D01*
X136710720Y-111626196D01*
X136677219Y-111611281D01*
X136639372Y-111585269D01*
X135356320Y-110302217D01*
X135349177Y-110294450D01*
X135319935Y-110259847D01*
X135315529Y-110254633D01*
X135251031Y-110205321D01*
X135248615Y-110203427D01*
X135190583Y-110156768D01*
X135190582Y-110156767D01*
X135185262Y-110152490D01*
X135179143Y-110149453D01*
X135176348Y-110147665D01*
X135175987Y-110147412D01*
X135175620Y-110147210D01*
X135172762Y-110145479D01*
X135167348Y-110141340D01*
X135093736Y-110107014D01*
X135090964Y-110105680D01*
X135064917Y-110092750D01*
X135018186Y-110069553D01*
X135011565Y-110067902D01*
X135008437Y-110066751D01*
X135008044Y-110066587D01*
X135007639Y-110066468D01*
X135004475Y-110065391D01*
X134998296Y-110062510D01*
X134919000Y-110044785D01*
X134916002Y-110044076D01*
X134843821Y-110026079D01*
X134843820Y-110026079D01*
X134837199Y-110024428D01*
X134830378Y-110024237D01*
X134827075Y-110023785D01*
X134826191Y-110023626D01*
X134821308Y-110022948D01*
X134816260Y-110021820D01*
X134810537Y-110021500D01*
X134734156Y-110021500D01*
X134730637Y-110021451D01*
X134650743Y-110019219D01*
X134644039Y-110020498D01*
X134637238Y-110021045D01*
X134637196Y-110020525D01*
X134626875Y-110021500D01*
X134551074Y-110021500D01*
X134482953Y-110001498D01*
X134436460Y-109947842D01*
X134426356Y-109877568D01*
X134455850Y-109812988D01*
X134515576Y-109774604D01*
X134524877Y-109772253D01*
X134544431Y-109768097D01*
X134682288Y-109738794D01*
X134688319Y-109736109D01*
X134850722Y-109663803D01*
X134850724Y-109663802D01*
X134856752Y-109661118D01*
X135011253Y-109548866D01*
X135139040Y-109406944D01*
X135234527Y-109241556D01*
X135293542Y-109059928D01*
X135313504Y-108870000D01*
X135312060Y-108856261D01*
X135324829Y-108786422D01*
X135348274Y-108753991D01*
X135623018Y-108479247D01*
X135635409Y-108468380D01*
X135653173Y-108454749D01*
X135659723Y-108449723D01*
X135754054Y-108326789D01*
X135803812Y-108206662D01*
X135813352Y-108183630D01*
X135820993Y-108125590D01*
X135852278Y-108057728D01*
X135979040Y-107916944D01*
X136074527Y-107751556D01*
X136133542Y-107569928D01*
X136153504Y-107380000D01*
X136133542Y-107190072D01*
X136074527Y-107008444D01*
X135979040Y-106843056D01*
X135919623Y-106777066D01*
X135855675Y-106706045D01*
X135855674Y-106706044D01*
X135851253Y-106701134D01*
X135696752Y-106588882D01*
X135690724Y-106586198D01*
X135690722Y-106586197D01*
X135528319Y-106513891D01*
X135528318Y-106513891D01*
X135522288Y-106511206D01*
X135428887Y-106491353D01*
X135341944Y-106472872D01*
X135341939Y-106472872D01*
X135335487Y-106471500D01*
X135144513Y-106471500D01*
X135138061Y-106472872D01*
X135138056Y-106472872D01*
X135051113Y-106491353D01*
X134957712Y-106511206D01*
X134951682Y-106513891D01*
X134951681Y-106513891D01*
X134789278Y-106586197D01*
X134789276Y-106586198D01*
X134783248Y-106588882D01*
X134628747Y-106701134D01*
X134624326Y-106706044D01*
X134624325Y-106706045D01*
X134560378Y-106777066D01*
X134500960Y-106843056D01*
X134405473Y-107008444D01*
X134346458Y-107190072D01*
X134326496Y-107380000D01*
X134346458Y-107569928D01*
X134405473Y-107751556D01*
X134408776Y-107757278D01*
X134408777Y-107757279D01*
X134417565Y-107772500D01*
X134434303Y-107841495D01*
X134411083Y-107908587D01*
X134355275Y-107952474D01*
X134317570Y-107959741D01*
X134317682Y-107960810D01*
X134311115Y-107961500D01*
X134304513Y-107961500D01*
X134298061Y-107962872D01*
X134298056Y-107962872D01*
X134211112Y-107981353D01*
X134117712Y-108001206D01*
X134111682Y-108003891D01*
X134111681Y-108003891D01*
X133949278Y-108076197D01*
X133949276Y-108076198D01*
X133943248Y-108078882D01*
X133937907Y-108082762D01*
X133937906Y-108082763D01*
X133887843Y-108119136D01*
X133788747Y-108191134D01*
X133784326Y-108196044D01*
X133784325Y-108196045D01*
X133774766Y-108206662D01*
X133660960Y-108333056D01*
X133565473Y-108498444D01*
X133506458Y-108680072D01*
X133486496Y-108870000D01*
X133506458Y-109059928D01*
X133565473Y-109241556D01*
X133660960Y-109406944D01*
X133788747Y-109548866D01*
X133943248Y-109661118D01*
X133949276Y-109663802D01*
X133949278Y-109663803D01*
X134111681Y-109736109D01*
X134117712Y-109738794D01*
X134255569Y-109768097D01*
X134275123Y-109772253D01*
X134337596Y-109805982D01*
X134371918Y-109868131D01*
X134367190Y-109938970D01*
X134324914Y-109996008D01*
X134258513Y-110021135D01*
X134248926Y-110021500D01*
X130161693Y-110021500D01*
X130122756Y-110015333D01*
X130118319Y-110013891D01*
X130112288Y-110011206D01*
X130105836Y-110009834D01*
X130105831Y-110009833D01*
X129931944Y-109972872D01*
X129931939Y-109972872D01*
X129925487Y-109971500D01*
X129734513Y-109971500D01*
X129728061Y-109972872D01*
X129728056Y-109972872D01*
X129641112Y-109991353D01*
X129547712Y-110011206D01*
X129541685Y-110013889D01*
X129541677Y-110013892D01*
X129385748Y-110083316D01*
X129315381Y-110092750D01*
X129251084Y-110062643D01*
X129213271Y-110002554D01*
X129208500Y-109968209D01*
X129208500Y-109495955D01*
X129228502Y-109427834D01*
X129245405Y-109406860D01*
X133576860Y-105075405D01*
X133639172Y-105041379D01*
X133665955Y-105038500D01*
X134191282Y-105038500D01*
X134259403Y-105058502D01*
X134284918Y-105080190D01*
X134324327Y-105123959D01*
X134324336Y-105123967D01*
X134328747Y-105128866D01*
X134350329Y-105144546D01*
X134417097Y-105193056D01*
X134483248Y-105241118D01*
X134489276Y-105243802D01*
X134489278Y-105243803D01*
X134651681Y-105316109D01*
X134657712Y-105318794D01*
X134751112Y-105338647D01*
X134838056Y-105357128D01*
X134838061Y-105357128D01*
X134844513Y-105358500D01*
X135035487Y-105358500D01*
X135041939Y-105357128D01*
X135041944Y-105357128D01*
X135128888Y-105338647D01*
X135222288Y-105318794D01*
X135228319Y-105316109D01*
X135390722Y-105243803D01*
X135390724Y-105243802D01*
X135396752Y-105241118D01*
X135551253Y-105128866D01*
X135595081Y-105080190D01*
X135674621Y-104991852D01*
X135674622Y-104991851D01*
X135679040Y-104986944D01*
X135774527Y-104821556D01*
X135833542Y-104639928D01*
X135853504Y-104450000D01*
X135833542Y-104260072D01*
X135825866Y-104236448D01*
X135823838Y-104165481D01*
X135860501Y-104104683D01*
X135919501Y-104074265D01*
X135992288Y-104058794D01*
X135998319Y-104056109D01*
X136160722Y-103983803D01*
X136160724Y-103983802D01*
X136166752Y-103981118D01*
X136321253Y-103868866D01*
X136336297Y-103852158D01*
X136444621Y-103731852D01*
X136444622Y-103731851D01*
X136449040Y-103726944D01*
X136544527Y-103561556D01*
X136603542Y-103379928D01*
X136623504Y-103190000D01*
X136603542Y-103000072D01*
X136544527Y-102818444D01*
X136537910Y-102806982D01*
X136465159Y-102680975D01*
X136449040Y-102653056D01*
X136419103Y-102619807D01*
X136325675Y-102516045D01*
X136325671Y-102516041D01*
X136321253Y-102511134D01*
X136166752Y-102398882D01*
X136160724Y-102396198D01*
X136160722Y-102396197D01*
X135998319Y-102323891D01*
X135998318Y-102323891D01*
X135992288Y-102321206D01*
X135898888Y-102301353D01*
X135811944Y-102282872D01*
X135811939Y-102282872D01*
X135805487Y-102281500D01*
X135614513Y-102281500D01*
X135608061Y-102282872D01*
X135608056Y-102282872D01*
X135521113Y-102301353D01*
X135427712Y-102321206D01*
X135421682Y-102323891D01*
X135421681Y-102323891D01*
X135259278Y-102396197D01*
X135259276Y-102396198D01*
X135253248Y-102398882D01*
X135247907Y-102402762D01*
X135247906Y-102402763D01*
X135180341Y-102451852D01*
X135098747Y-102511134D01*
X135094336Y-102516033D01*
X135094327Y-102516041D01*
X135054918Y-102559810D01*
X134994472Y-102597050D01*
X134961282Y-102601500D01*
X132346829Y-102601500D01*
X132330383Y-102600422D01*
X132308188Y-102597500D01*
X132300000Y-102596422D01*
X132291812Y-102597500D01*
X132154556Y-102615570D01*
X132154554Y-102615571D01*
X132146370Y-102616648D01*
X132135060Y-102621333D01*
X132003211Y-102675946D01*
X131880277Y-102770277D01*
X131875251Y-102776827D01*
X131861620Y-102794591D01*
X131850753Y-102806982D01*
X123696982Y-110960753D01*
X123684591Y-110971620D01*
X123660277Y-110990277D01*
X123565946Y-111113211D01*
X123541384Y-111172510D01*
X123506647Y-111256370D01*
X123486422Y-111410000D01*
X123487500Y-111418188D01*
X123490422Y-111440384D01*
X123491500Y-111456830D01*
X123491500Y-130873170D01*
X123490422Y-130889615D01*
X123486422Y-130920000D01*
X123506647Y-131073630D01*
X123538204Y-131149813D01*
X123565946Y-131216789D01*
X123660277Y-131339723D01*
X123666827Y-131344749D01*
X123684591Y-131358380D01*
X123696982Y-131369247D01*
X128201726Y-135873991D01*
X128235752Y-135936303D01*
X128237940Y-135976261D01*
X128236496Y-135990000D01*
X128256458Y-136179928D01*
X128315473Y-136361556D01*
X128318777Y-136367278D01*
X128318778Y-136367281D01*
X128333338Y-136392499D01*
X128350077Y-136461494D01*
X128326857Y-136528586D01*
X128271051Y-136572474D01*
X128224220Y-136581500D01*
X118556829Y-136581500D01*
X118540383Y-136580422D01*
X118518188Y-136577500D01*
X118510000Y-136576422D01*
X118356370Y-136596648D01*
X118314440Y-136614016D01*
X118213211Y-136655946D01*
X118090277Y-136750277D01*
X118085251Y-136756827D01*
X118071620Y-136774591D01*
X118060753Y-136786982D01*
X98636982Y-156210753D01*
X98624591Y-156221620D01*
X98600277Y-156240277D01*
X98505946Y-156363211D01*
X98489378Y-156403211D01*
X98446647Y-156506370D01*
X98445569Y-156514557D01*
X98445569Y-156514558D01*
X98429867Y-156633832D01*
X98426422Y-156660000D01*
X98427500Y-156668188D01*
X98430422Y-156690384D01*
X98431500Y-156706830D01*
X98431500Y-159904045D01*
X98411498Y-159972166D01*
X98394595Y-159993140D01*
X91846982Y-166540753D01*
X91834591Y-166551620D01*
X91810277Y-166570277D01*
X91715946Y-166693211D01*
X91691384Y-166752510D01*
X91656647Y-166836370D01*
X91655569Y-166844557D01*
X91655569Y-166844558D01*
X91637500Y-166981811D01*
X91636422Y-166990000D01*
X91637500Y-166998188D01*
X91640422Y-167020384D01*
X91641500Y-167036830D01*
X91641500Y-170223170D01*
X91640422Y-170239617D01*
X91638119Y-170257109D01*
X91609396Y-170322036D01*
X91552632Y-170360160D01*
X91547712Y-170361206D01*
X91541677Y-170363893D01*
X91379278Y-170436197D01*
X91379276Y-170436198D01*
X91373248Y-170438882D01*
X91218747Y-170551134D01*
X91214326Y-170556044D01*
X91214325Y-170556045D01*
X91176099Y-170598500D01*
X91090960Y-170693056D01*
X90995473Y-170858444D01*
X90936458Y-171040072D01*
X90916496Y-171230000D01*
X86975388Y-171230000D01*
X86975388Y-170876620D01*
X86995390Y-170808499D01*
X87049046Y-170762006D01*
X87119320Y-170751902D01*
X87142722Y-170757593D01*
X87320721Y-170819405D01*
X87321716Y-170819648D01*
X87332008Y-170818180D01*
X87336000Y-170804615D01*
X87336000Y-170800402D01*
X87844000Y-170800402D01*
X87847973Y-170813933D01*
X87857399Y-170815288D01*
X87946537Y-170793806D01*
X87957832Y-170789917D01*
X88139382Y-170707371D01*
X88149724Y-170701424D01*
X88312397Y-170586032D01*
X88321425Y-170578239D01*
X88406046Y-170489843D01*
X88467601Y-170454467D01*
X88538511Y-170457986D01*
X88571124Y-170475038D01*
X88583038Y-170483694D01*
X88583044Y-170483697D01*
X88588385Y-170487578D01*
X88594413Y-170490262D01*
X88594415Y-170490263D01*
X88744457Y-170557066D01*
X88753248Y-170560980D01*
X88834446Y-170578239D01*
X88923311Y-170597128D01*
X88923315Y-170597128D01*
X88929768Y-170598500D01*
X89110232Y-170598500D01*
X89116685Y-170597128D01*
X89116689Y-170597128D01*
X89205554Y-170578239D01*
X89286752Y-170560980D01*
X89295543Y-170557066D01*
X89445585Y-170490263D01*
X89445587Y-170490262D01*
X89451615Y-170487578D01*
X89468875Y-170475038D01*
X89592269Y-170385387D01*
X89592271Y-170385385D01*
X89597613Y-170381504D01*
X89613470Y-170363893D01*
X89713948Y-170252301D01*
X89713949Y-170252300D01*
X89718367Y-170247393D01*
X89808599Y-170091107D01*
X89864365Y-169919475D01*
X89883229Y-169740000D01*
X89864365Y-169560525D01*
X89808599Y-169388893D01*
X89718367Y-169232607D01*
X89619867Y-169123211D01*
X89602035Y-169103407D01*
X89602034Y-169103406D01*
X89597613Y-169098496D01*
X89462427Y-169000277D01*
X89456957Y-168996303D01*
X89456956Y-168996302D01*
X89451615Y-168992422D01*
X89445587Y-168989738D01*
X89445585Y-168989737D01*
X89292783Y-168921705D01*
X89292781Y-168921705D01*
X89286752Y-168919020D01*
X89196723Y-168899884D01*
X89116689Y-168882872D01*
X89116685Y-168882872D01*
X89110232Y-168881500D01*
X88929768Y-168881500D01*
X88904531Y-168886864D01*
X88850196Y-168898413D01*
X88779406Y-168893011D01*
X88722773Y-168850194D01*
X88698280Y-168783556D01*
X88698000Y-168775166D01*
X88698000Y-168690168D01*
X88697715Y-168684192D01*
X88683529Y-168535506D01*
X88681270Y-168523772D01*
X88625128Y-168332401D01*
X88620698Y-168321325D01*
X88529381Y-168144022D01*
X88522931Y-168133976D01*
X88399738Y-167977143D01*
X88391501Y-167968494D01*
X88240877Y-167837788D01*
X88231153Y-167830853D01*
X88058533Y-167730990D01*
X88047669Y-167726016D01*
X87859273Y-167660593D01*
X87858284Y-167660352D01*
X87847992Y-167661820D01*
X87844000Y-167675385D01*
X87844000Y-170800402D01*
X87336000Y-170800402D01*
X87336000Y-167679598D01*
X87332027Y-167666067D01*
X87322601Y-167664712D01*
X87233463Y-167686194D01*
X87222168Y-167690083D01*
X87153539Y-167721287D01*
X87083248Y-167731273D01*
X87018717Y-167701673D01*
X86980433Y-167641883D01*
X86975388Y-167606586D01*
X86975388Y-156316536D01*
X86976889Y-156297145D01*
X86979197Y-156282327D01*
X86980579Y-156273454D01*
X86979249Y-156263279D01*
X86978868Y-156233857D01*
X86984625Y-156178743D01*
X86990030Y-156153144D01*
X87013293Y-156081042D01*
X87023869Y-156057109D01*
X87029079Y-156048013D01*
X87061525Y-155991363D01*
X87076813Y-155970136D01*
X87107878Y-155935296D01*
X87125752Y-155918782D01*
X87126016Y-155918582D01*
X87130118Y-155915941D01*
X87134599Y-155911959D01*
X87134825Y-155911810D01*
X87135000Y-155911603D01*
X87139502Y-155907603D01*
X87150229Y-155894604D01*
X87156329Y-155887739D01*
X87280224Y-155758122D01*
X87280226Y-155758119D01*
X87283247Y-155754959D01*
X87405715Y-155584909D01*
X87503498Y-155399561D01*
X87574719Y-155202475D01*
X87618011Y-154997436D01*
X87618737Y-154986992D01*
X87629652Y-154829965D01*
X87631096Y-154817794D01*
X87633124Y-154805741D01*
X87633124Y-154805737D01*
X87633933Y-154800932D01*
X87634087Y-154788380D01*
X87630130Y-154760737D01*
X87628858Y-154742884D01*
X87628858Y-151467966D01*
X88208257Y-151467966D01*
X88238565Y-151602446D01*
X88241645Y-151612275D01*
X88321770Y-151809603D01*
X88326413Y-151818794D01*
X88437694Y-152000388D01*
X88443777Y-152008699D01*
X88583213Y-152169667D01*
X88590580Y-152176883D01*
X88754434Y-152312916D01*
X88762881Y-152318831D01*
X88946756Y-152426279D01*
X88956042Y-152430729D01*
X89155001Y-152506703D01*
X89164899Y-152509579D01*
X89268250Y-152530606D01*
X89282299Y-152529410D01*
X89286000Y-152519065D01*
X89286000Y-152518517D01*
X89794000Y-152518517D01*
X89798064Y-152532359D01*
X89811478Y-152534393D01*
X89818184Y-152533534D01*
X89828262Y-152531392D01*
X90032255Y-152470191D01*
X90041842Y-152466433D01*
X90233095Y-152372739D01*
X90241945Y-152367464D01*
X90415328Y-152243792D01*
X90423200Y-152237139D01*
X90574052Y-152086812D01*
X90580730Y-152078965D01*
X90705003Y-151906020D01*
X90710313Y-151897183D01*
X90804670Y-151706267D01*
X90808469Y-151696672D01*
X90870377Y-151492910D01*
X90872555Y-151482837D01*
X90873986Y-151471962D01*
X90871775Y-151457778D01*
X90858617Y-151454000D01*
X89812115Y-151454000D01*
X89796876Y-151458475D01*
X89795671Y-151459865D01*
X89794000Y-151467548D01*
X89794000Y-152518517D01*
X89286000Y-152518517D01*
X89286000Y-151472115D01*
X89281525Y-151456876D01*
X89280135Y-151455671D01*
X89272452Y-151454000D01*
X88223225Y-151454000D01*
X88209694Y-151457973D01*
X88208257Y-151467966D01*
X87628858Y-151467966D01*
X87628858Y-148626695D01*
X88177251Y-148626695D01*
X88190110Y-148849715D01*
X88191247Y-148854761D01*
X88191248Y-148854767D01*
X88215304Y-148961508D01*
X88239222Y-149067639D01*
X88323266Y-149274616D01*
X88439987Y-149465088D01*
X88586250Y-149633938D01*
X88758126Y-149776632D01*
X88765293Y-149780820D01*
X88831955Y-149819774D01*
X88880679Y-149871412D01*
X88893750Y-149941195D01*
X88867019Y-150006967D01*
X88826562Y-150040327D01*
X88818457Y-150044546D01*
X88809738Y-150050036D01*
X88639433Y-150177905D01*
X88631726Y-150184748D01*
X88484590Y-150338717D01*
X88478104Y-150346727D01*
X88358098Y-150522649D01*
X88353000Y-150531623D01*
X88263338Y-150724783D01*
X88259775Y-150734470D01*
X88204389Y-150934183D01*
X88205912Y-150942607D01*
X88218292Y-150946000D01*
X90858344Y-150946000D01*
X90871875Y-150942027D01*
X90873180Y-150932947D01*
X90831214Y-150765875D01*
X90827894Y-150756124D01*
X90742972Y-150560814D01*
X90738105Y-150551739D01*
X90622426Y-150372926D01*
X90616136Y-150364757D01*
X90472806Y-150207240D01*
X90465273Y-150200215D01*
X90393309Y-150143382D01*
X90352246Y-150085465D01*
X90349014Y-150014542D01*
X90384639Y-149953130D01*
X90447810Y-149920728D01*
X90471401Y-149918500D01*
X92246522Y-149918500D01*
X92314643Y-149938502D01*
X92335618Y-149955405D01*
X92874596Y-150494384D01*
X92908621Y-150556696D01*
X92911500Y-150583479D01*
X92911500Y-157328604D01*
X92910422Y-157345051D01*
X92907521Y-157367086D01*
X92907786Y-157372698D01*
X92911360Y-157448488D01*
X92911500Y-157454424D01*
X92911500Y-157476999D01*
X92912928Y-157493001D01*
X92913819Y-157502988D01*
X92914178Y-157508248D01*
X92918104Y-157591488D01*
X92919354Y-157596947D01*
X92919355Y-157596952D01*
X92922108Y-157608970D01*
X92924789Y-157625899D01*
X92926383Y-157643762D01*
X92927865Y-157649178D01*
X92927865Y-157649180D01*
X92948370Y-157724133D01*
X92949656Y-157729251D01*
X92968258Y-157810470D01*
X92970460Y-157815632D01*
X92975294Y-157826967D01*
X92980927Y-157843142D01*
X92985663Y-157860451D01*
X92988079Y-157865516D01*
X93021539Y-157935667D01*
X93023698Y-157940448D01*
X93031398Y-157958499D01*
X93041500Y-158007932D01*
X93041500Y-159418604D01*
X93040422Y-159435051D01*
X93037521Y-159457086D01*
X93037786Y-159462698D01*
X93041360Y-159538488D01*
X93041500Y-159544424D01*
X93041500Y-159566999D01*
X93041750Y-159569796D01*
X93043819Y-159592988D01*
X93044178Y-159598248D01*
X93048104Y-159681488D01*
X93049354Y-159686947D01*
X93049355Y-159686952D01*
X93052108Y-159698970D01*
X93054789Y-159715899D01*
X93056383Y-159733762D01*
X93057865Y-159739178D01*
X93057865Y-159739180D01*
X93078370Y-159814133D01*
X93079656Y-159819251D01*
X93098258Y-159900470D01*
X93100460Y-159905632D01*
X93105294Y-159916967D01*
X93110927Y-159933142D01*
X93115663Y-159950451D01*
X93118079Y-159955516D01*
X93151539Y-160025667D01*
X93153710Y-160030476D01*
X93186397Y-160107109D01*
X93196251Y-160122110D01*
X93204654Y-160137025D01*
X93212378Y-160153218D01*
X93255360Y-160213033D01*
X93260999Y-160220881D01*
X93263989Y-160225232D01*
X93307196Y-160291010D01*
X93307202Y-160291018D01*
X93309735Y-160294874D01*
X93328257Y-160315662D01*
X93336490Y-160325939D01*
X93343471Y-160335654D01*
X93347498Y-160339556D01*
X93420253Y-160410061D01*
X93421663Y-160411450D01*
X94414572Y-161404360D01*
X94427800Y-161419929D01*
X94453471Y-161455654D01*
X94614799Y-161611992D01*
X94801262Y-161737290D01*
X95006967Y-161827588D01*
X95012418Y-161828897D01*
X95012422Y-161828898D01*
X95219954Y-161878722D01*
X95225411Y-161880032D01*
X95309475Y-161884879D01*
X95444083Y-161892640D01*
X95444086Y-161892640D01*
X95449690Y-161892963D01*
X95672715Y-161865975D01*
X95887435Y-161799918D01*
X95892415Y-161797348D01*
X95892419Y-161797346D01*
X96082081Y-161699454D01*
X96082082Y-161699454D01*
X96087064Y-161696882D01*
X96265292Y-161560123D01*
X96416485Y-161393964D01*
X96535864Y-161203656D01*
X96567397Y-161125215D01*
X96571368Y-161116661D01*
X96572222Y-161114630D01*
X96574854Y-161109659D01*
X96578089Y-161099522D01*
X96581206Y-161090862D01*
X96619656Y-160995217D01*
X96633617Y-160927804D01*
X96636963Y-160915047D01*
X96639016Y-160908616D01*
X96643156Y-160895643D01*
X96647577Y-160862063D01*
X96649116Y-160852959D01*
X96665213Y-160775233D01*
X96665479Y-160770621D01*
X96668395Y-160720048D01*
X96668395Y-160720044D01*
X96668500Y-160718225D01*
X96668500Y-160711395D01*
X96669578Y-160694948D01*
X96671746Y-160678483D01*
X96671746Y-160678479D01*
X96672479Y-160672913D01*
X96668640Y-160591511D01*
X96668500Y-160585576D01*
X96668500Y-160563001D01*
X96666181Y-160537011D01*
X96665822Y-160531749D01*
X96662160Y-160454113D01*
X96661896Y-160448512D01*
X96657892Y-160431030D01*
X96655211Y-160414100D01*
X96655143Y-160413342D01*
X96653617Y-160396238D01*
X96631630Y-160315867D01*
X96630344Y-160310749D01*
X96612995Y-160235000D01*
X96612994Y-160234998D01*
X96611742Y-160229530D01*
X96604706Y-160213033D01*
X96599073Y-160196858D01*
X96595818Y-160184961D01*
X96595817Y-160184957D01*
X96594337Y-160179549D01*
X96578720Y-160146808D01*
X96558461Y-160104333D01*
X96556290Y-160099524D01*
X96525804Y-160028051D01*
X96525804Y-160028050D01*
X96523603Y-160022891D01*
X96513749Y-160007890D01*
X96505343Y-159992970D01*
X96500212Y-159982211D01*
X96497622Y-159976782D01*
X96448994Y-159909108D01*
X96446011Y-159904768D01*
X96402804Y-159838990D01*
X96402798Y-159838982D01*
X96400265Y-159835126D01*
X96381743Y-159814338D01*
X96373506Y-159804056D01*
X96369799Y-159798897D01*
X96366529Y-159794346D01*
X96289779Y-159719970D01*
X96288368Y-159718581D01*
X95595404Y-159025616D01*
X95561379Y-158963304D01*
X95558500Y-158936521D01*
X95558500Y-157641396D01*
X95559578Y-157624949D01*
X95560580Y-157617340D01*
X95562479Y-157602914D01*
X95558640Y-157521504D01*
X95558500Y-157515569D01*
X95558500Y-157493001D01*
X95558252Y-157490218D01*
X95558251Y-157490204D01*
X95556182Y-157467023D01*
X95555823Y-157461760D01*
X95552161Y-157384116D01*
X95551897Y-157378512D01*
X95547892Y-157361023D01*
X95545212Y-157344104D01*
X95544115Y-157331821D01*
X95543617Y-157326238D01*
X95542137Y-157320827D01*
X95521631Y-157245870D01*
X95520345Y-157240752D01*
X95502994Y-157164997D01*
X95501742Y-157159530D01*
X95494707Y-157143037D01*
X95489072Y-157126855D01*
X95485820Y-157114967D01*
X95485817Y-157114958D01*
X95484337Y-157109549D01*
X95481922Y-157104486D01*
X95481918Y-157104475D01*
X95448462Y-157034335D01*
X95446306Y-157029562D01*
X95438600Y-157011496D01*
X95428500Y-156962067D01*
X95428500Y-150101395D01*
X95429578Y-150084948D01*
X95431746Y-150068483D01*
X95431746Y-150068479D01*
X95432479Y-150062913D01*
X95428640Y-149981511D01*
X95428500Y-149975576D01*
X95428500Y-149953001D01*
X95426181Y-149927011D01*
X95425822Y-149921749D01*
X95422160Y-149844113D01*
X95421896Y-149838512D01*
X95417892Y-149821030D01*
X95415211Y-149804100D01*
X95414116Y-149791832D01*
X95413617Y-149786238D01*
X95391630Y-149705867D01*
X95390344Y-149700749D01*
X95372995Y-149625000D01*
X95372994Y-149624998D01*
X95371742Y-149619530D01*
X95364706Y-149603033D01*
X95359073Y-149586858D01*
X95355818Y-149574961D01*
X95355817Y-149574957D01*
X95354337Y-149569549D01*
X95318461Y-149494333D01*
X95316290Y-149489524D01*
X95285804Y-149418051D01*
X95285804Y-149418050D01*
X95283603Y-149412891D01*
X95273749Y-149397890D01*
X95265343Y-149382970D01*
X95260035Y-149371841D01*
X95257622Y-149366782D01*
X95254354Y-149362234D01*
X95254351Y-149362229D01*
X95208998Y-149299114D01*
X95206009Y-149294765D01*
X95160265Y-149225125D01*
X95141747Y-149204341D01*
X95133498Y-149194045D01*
X95129804Y-149188904D01*
X95126529Y-149184346D01*
X95049777Y-149109968D01*
X95048367Y-149108579D01*
X93774525Y-147834737D01*
X93763657Y-147822346D01*
X93753533Y-147809152D01*
X93750123Y-147804708D01*
X93689826Y-147749842D01*
X93685531Y-147745743D01*
X93669590Y-147729802D01*
X93667440Y-147728004D01*
X93649577Y-147713068D01*
X93645602Y-147709600D01*
X93588112Y-147657288D01*
X93588103Y-147657281D01*
X93583964Y-147653515D01*
X93568773Y-147643986D01*
X93554907Y-147633911D01*
X93545451Y-147626004D01*
X93545441Y-147625997D01*
X93541146Y-147622406D01*
X93468752Y-147581113D01*
X93464232Y-147578408D01*
X93398404Y-147537114D01*
X93398401Y-147537112D01*
X93393656Y-147534136D01*
X93388451Y-147532043D01*
X93388448Y-147532042D01*
X93377021Y-147527448D01*
X93361589Y-147519988D01*
X93350881Y-147513880D01*
X93350872Y-147513876D01*
X93346007Y-147511101D01*
X93340730Y-147509232D01*
X93340725Y-147509230D01*
X93267458Y-147483285D01*
X93262522Y-147481420D01*
X93190416Y-147452434D01*
X93185217Y-147450344D01*
X93179730Y-147449208D01*
X93179728Y-147449207D01*
X93167651Y-147446706D01*
X93151156Y-147442101D01*
X93134241Y-147436111D01*
X93051990Y-147422641D01*
X93046820Y-147421683D01*
X92965233Y-147404787D01*
X92960621Y-147404521D01*
X92960620Y-147404521D01*
X92937452Y-147403185D01*
X92924347Y-147401738D01*
X92918090Y-147400714D01*
X92918086Y-147400714D01*
X92912543Y-147399806D01*
X92906930Y-147399894D01*
X92906928Y-147399894D01*
X92805736Y-147401484D01*
X92803757Y-147401500D01*
X90476558Y-147401500D01*
X90408437Y-147381498D01*
X90361944Y-147327842D01*
X90351840Y-147257568D01*
X90381334Y-147192988D01*
X90403389Y-147172922D01*
X90415654Y-147164174D01*
X90415661Y-147164168D01*
X90419860Y-147161173D01*
X90578096Y-147003489D01*
X90637594Y-146920689D01*
X90705435Y-146826277D01*
X90708453Y-146822077D01*
X90723538Y-146791556D01*
X90805136Y-146626453D01*
X90805137Y-146626451D01*
X90807430Y-146621811D01*
X90839900Y-146514940D01*
X90870865Y-146413023D01*
X90870865Y-146413021D01*
X90872370Y-146408069D01*
X90901529Y-146186590D01*
X90903156Y-146120000D01*
X90884852Y-145897361D01*
X90830431Y-145680702D01*
X90741354Y-145475840D01*
X90620014Y-145288277D01*
X90469670Y-145123051D01*
X90465619Y-145119852D01*
X90465615Y-145119848D01*
X90298414Y-144987800D01*
X90298410Y-144987798D01*
X90294359Y-144984598D01*
X90253053Y-144961796D01*
X90203084Y-144911364D01*
X90188312Y-144841921D01*
X90213428Y-144775516D01*
X90240780Y-144748909D01*
X90284603Y-144717650D01*
X90419860Y-144621173D01*
X90578096Y-144463489D01*
X90637594Y-144380689D01*
X90705435Y-144286277D01*
X90708453Y-144282077D01*
X90807430Y-144081811D01*
X90872370Y-143868069D01*
X90901529Y-143646590D01*
X90903156Y-143580000D01*
X90884852Y-143357361D01*
X90830431Y-143140702D01*
X90741354Y-142935840D01*
X90620014Y-142748277D01*
X90469670Y-142583051D01*
X90465619Y-142579852D01*
X90465615Y-142579848D01*
X90298414Y-142447800D01*
X90298410Y-142447798D01*
X90294359Y-142444598D01*
X90253053Y-142421796D01*
X90203084Y-142371364D01*
X90188312Y-142301921D01*
X90213428Y-142235516D01*
X90240780Y-142208909D01*
X90284603Y-142177650D01*
X90419860Y-142081173D01*
X90578096Y-141923489D01*
X90637594Y-141840689D01*
X90705435Y-141746277D01*
X90708453Y-141742077D01*
X90807430Y-141541811D01*
X90872370Y-141328069D01*
X90901529Y-141106590D01*
X90903156Y-141040000D01*
X90884852Y-140817361D01*
X90830431Y-140600702D01*
X90741354Y-140395840D01*
X90620014Y-140208277D01*
X90469670Y-140043051D01*
X90465619Y-140039852D01*
X90465615Y-140039848D01*
X90298414Y-139907800D01*
X90298410Y-139907798D01*
X90294359Y-139904598D01*
X90253053Y-139881796D01*
X90203084Y-139831364D01*
X90188312Y-139761921D01*
X90213428Y-139695516D01*
X90240780Y-139668909D01*
X90291494Y-139632735D01*
X90419860Y-139541173D01*
X90461562Y-139499617D01*
X90574435Y-139387137D01*
X90578096Y-139383489D01*
X90637594Y-139300689D01*
X90705435Y-139206277D01*
X90708453Y-139202077D01*
X90807430Y-139001811D01*
X90872370Y-138788069D01*
X90901529Y-138566590D01*
X90903156Y-138500000D01*
X90884852Y-138277361D01*
X90830431Y-138060702D01*
X90741354Y-137855840D01*
X90675942Y-137754729D01*
X90622822Y-137672617D01*
X90622820Y-137672614D01*
X90620014Y-137668277D01*
X90616532Y-137664450D01*
X90472798Y-137506488D01*
X90441746Y-137442642D01*
X90450141Y-137372143D01*
X90495317Y-137317375D01*
X90521761Y-137303706D01*
X90628297Y-137263767D01*
X90636705Y-137260615D01*
X90753261Y-137173261D01*
X90840615Y-137056705D01*
X90891745Y-136920316D01*
X90898500Y-136858134D01*
X90898500Y-135061866D01*
X90891745Y-134999684D01*
X90840615Y-134863295D01*
X90753261Y-134746739D01*
X90636705Y-134659385D01*
X90500316Y-134608255D01*
X90438134Y-134601500D01*
X88641866Y-134601500D01*
X88579684Y-134608255D01*
X88443295Y-134659385D01*
X88326739Y-134746739D01*
X88239385Y-134863295D01*
X88188255Y-134999684D01*
X88181500Y-135061866D01*
X88181500Y-136858134D01*
X88188255Y-136920316D01*
X88239385Y-137056705D01*
X88326739Y-137173261D01*
X88443295Y-137260615D01*
X88451704Y-137263767D01*
X88451705Y-137263768D01*
X88560451Y-137304535D01*
X88617216Y-137347176D01*
X88641916Y-137413738D01*
X88626709Y-137483087D01*
X88607316Y-137509568D01*
X88480629Y-137642138D01*
X88354743Y-137826680D01*
X88260688Y-138029305D01*
X88200989Y-138244570D01*
X88177251Y-138466695D01*
X88177548Y-138471848D01*
X88177548Y-138471851D01*
X88183011Y-138566590D01*
X88190110Y-138689715D01*
X88191247Y-138694761D01*
X88191248Y-138694767D01*
X88201104Y-138738500D01*
X88239222Y-138907639D01*
X88323266Y-139114616D01*
X88439987Y-139305088D01*
X88586250Y-139473938D01*
X88758126Y-139616632D01*
X88785683Y-139632735D01*
X88831445Y-139659476D01*
X88880169Y-139711114D01*
X88893240Y-139780897D01*
X88866509Y-139846669D01*
X88826055Y-139880027D01*
X88813607Y-139886507D01*
X88809474Y-139889610D01*
X88809471Y-139889612D01*
X88639100Y-140017530D01*
X88634965Y-140020635D01*
X88480629Y-140182138D01*
X88354743Y-140366680D01*
X88260688Y-140569305D01*
X88200989Y-140784570D01*
X88177251Y-141006695D01*
X88177548Y-141011848D01*
X88177548Y-141011851D01*
X88185710Y-141153406D01*
X88190110Y-141229715D01*
X88191247Y-141234761D01*
X88191248Y-141234767D01*
X88211119Y-141322939D01*
X88239222Y-141447639D01*
X88323266Y-141654616D01*
X88439987Y-141845088D01*
X88586250Y-142013938D01*
X88758126Y-142156632D01*
X88828595Y-142197811D01*
X88831445Y-142199476D01*
X88880169Y-142251114D01*
X88893240Y-142320897D01*
X88866509Y-142386669D01*
X88826055Y-142420027D01*
X88813607Y-142426507D01*
X88809474Y-142429610D01*
X88809471Y-142429612D01*
X88785247Y-142447800D01*
X88634965Y-142560635D01*
X88480629Y-142722138D01*
X88354743Y-142906680D01*
X88260688Y-143109305D01*
X88200989Y-143324570D01*
X88177251Y-143546695D01*
X88177548Y-143551848D01*
X88177548Y-143551851D01*
X88183011Y-143646590D01*
X88190110Y-143769715D01*
X88191247Y-143774761D01*
X88191248Y-143774767D01*
X88211119Y-143862939D01*
X88239222Y-143987639D01*
X88323266Y-144194616D01*
X88439987Y-144385088D01*
X88586250Y-144553938D01*
X88758126Y-144696632D01*
X88828595Y-144737811D01*
X88831445Y-144739476D01*
X88880169Y-144791114D01*
X88893240Y-144860897D01*
X88866509Y-144926669D01*
X88826055Y-144960027D01*
X88813607Y-144966507D01*
X88809474Y-144969610D01*
X88809471Y-144969612D01*
X88767392Y-145001206D01*
X88634965Y-145100635D01*
X88480629Y-145262138D01*
X88354743Y-145446680D01*
X88339003Y-145480590D01*
X88268367Y-145632763D01*
X88260688Y-145649305D01*
X88200989Y-145864570D01*
X88177251Y-146086695D01*
X88177548Y-146091848D01*
X88177548Y-146091851D01*
X88183011Y-146186590D01*
X88190110Y-146309715D01*
X88191247Y-146314761D01*
X88191248Y-146314767D01*
X88198397Y-146346487D01*
X88239222Y-146527639D01*
X88323266Y-146734616D01*
X88439987Y-146925088D01*
X88586250Y-147093938D01*
X88758126Y-147236632D01*
X88793954Y-147257568D01*
X88831445Y-147279476D01*
X88880169Y-147331114D01*
X88893240Y-147400897D01*
X88866509Y-147466669D01*
X88826055Y-147500027D01*
X88813607Y-147506507D01*
X88809474Y-147509610D01*
X88809471Y-147509612D01*
X88639100Y-147637530D01*
X88634965Y-147640635D01*
X88480629Y-147802138D01*
X88354743Y-147986680D01*
X88260688Y-148189305D01*
X88200989Y-148404570D01*
X88177251Y-148626695D01*
X87628858Y-148626695D01*
X87628858Y-134645928D01*
X87630359Y-134626535D01*
X87632667Y-134611718D01*
X87634049Y-134602846D01*
X87632885Y-134593943D01*
X87632895Y-134593155D01*
X87632656Y-134563400D01*
X87633875Y-134552762D01*
X87639936Y-134499829D01*
X87646413Y-134471917D01*
X87660321Y-134432843D01*
X87674229Y-134393767D01*
X87686840Y-134368047D01*
X87731600Y-134298196D01*
X87749703Y-134275986D01*
X87809078Y-134218066D01*
X87831733Y-134200518D01*
X87902667Y-134157508D01*
X87928700Y-134145534D01*
X87934102Y-134143761D01*
X87981835Y-134128094D01*
X88006069Y-134122791D01*
X88009924Y-134122650D01*
X88015840Y-134121506D01*
X88016108Y-134121493D01*
X88016362Y-134121405D01*
X88022248Y-134120267D01*
X88025375Y-134119142D01*
X88027257Y-134118677D01*
X89419882Y-133812517D01*
X89419888Y-133812516D01*
X89420714Y-133812334D01*
X90810639Y-133467926D01*
X90811383Y-133467720D01*
X90811412Y-133467713D01*
X91632746Y-133240939D01*
X92190953Y-133086816D01*
X93141866Y-132796944D01*
X93559905Y-132669511D01*
X93559920Y-132669506D01*
X93560685Y-132669273D01*
X94918875Y-132215588D01*
X96264569Y-131726082D01*
X97596823Y-131201097D01*
X98914701Y-130641001D01*
X99954666Y-130166109D01*
X100216490Y-130046549D01*
X100216500Y-130046544D01*
X100217278Y-130046189D01*
X101503641Y-129417077D01*
X102372787Y-128963092D01*
X102772135Y-128754499D01*
X102772150Y-128754491D01*
X102772885Y-128754107D01*
X102773582Y-128753719D01*
X102773610Y-128753704D01*
X104023402Y-128058144D01*
X104023425Y-128058131D01*
X104024120Y-128057744D01*
X105108644Y-127415955D01*
X105255754Y-127328900D01*
X105255758Y-127328898D01*
X105256467Y-127328478D01*
X105259043Y-127326860D01*
X106468352Y-126567268D01*
X106468373Y-126567254D01*
X106469063Y-126566821D01*
X107257120Y-126042207D01*
X107660315Y-125773798D01*
X107660317Y-125773796D01*
X107661054Y-125773306D01*
X108114495Y-125453794D01*
X108830931Y-124948966D01*
X108830935Y-124948963D01*
X108831605Y-124948491D01*
X109880831Y-124166762D01*
X109979219Y-124093458D01*
X109979223Y-124093455D01*
X109979894Y-124092955D01*
X111105115Y-123207298D01*
X111819369Y-122613803D01*
X112205867Y-122292651D01*
X112205880Y-122292640D01*
X112206478Y-122292143D01*
X113283210Y-121348131D01*
X113347399Y-121288774D01*
X114333954Y-120376482D01*
X114333963Y-120376473D01*
X114334555Y-120375926D01*
X114597067Y-120119944D01*
X115359144Y-119376825D01*
X115359170Y-119376799D01*
X115359775Y-119376209D01*
X115461824Y-119271283D01*
X115900214Y-118820531D01*
X116358150Y-118349682D01*
X116358663Y-118349126D01*
X116358696Y-118349091D01*
X117157440Y-117483058D01*
X117328980Y-117297067D01*
X117339769Y-117284729D01*
X118271050Y-116219712D01*
X118271065Y-116219695D01*
X118271583Y-116219102D01*
X118278689Y-116210528D01*
X118776570Y-115609745D01*
X119185297Y-115116543D01*
X119278917Y-114997279D01*
X120068981Y-113990804D01*
X120069002Y-113990776D01*
X120069482Y-113990165D01*
X120124313Y-113916371D01*
X120923009Y-112841439D01*
X120923515Y-112840758D01*
X121746799Y-111669129D01*
X122076466Y-111172508D01*
X122538286Y-110476807D01*
X122538308Y-110476772D01*
X122538754Y-110476101D01*
X122539183Y-110475416D01*
X122539203Y-110475385D01*
X122885573Y-109922343D01*
X123298826Y-109262511D01*
X123340540Y-109191811D01*
X123930870Y-108191260D01*
X124026480Y-108029211D01*
X124390323Y-107373435D01*
X124720812Y-106777775D01*
X124720823Y-106777754D01*
X124721205Y-106777066D01*
X125382515Y-105506956D01*
X126009944Y-104219772D01*
X126392126Y-103379928D01*
X126602713Y-102917164D01*
X126602726Y-102917134D01*
X126603052Y-102916418D01*
X126641879Y-102824729D01*
X127053267Y-101853225D01*
X127154057Y-101615205D01*
X127155832Y-101611421D01*
X127156987Y-101609555D01*
X127159334Y-101603997D01*
X127159473Y-101603766D01*
X127159542Y-101603505D01*
X127161870Y-101597991D01*
X127163051Y-101593267D01*
X127164594Y-101588649D01*
X127164989Y-101588781D01*
X127174759Y-101563985D01*
X127205996Y-101507562D01*
X127223382Y-101483413D01*
X127281579Y-101419975D01*
X127304141Y-101400577D01*
X127375604Y-101352546D01*
X127402085Y-101338982D01*
X127482813Y-101309051D01*
X127511735Y-101302075D01*
X127545069Y-101298112D01*
X127573354Y-101294749D01*
X127589772Y-101293877D01*
X127596960Y-101293965D01*
X127605834Y-101295347D01*
X127614737Y-101294183D01*
X127614738Y-101294183D01*
X127637409Y-101291219D01*
X127653743Y-101290156D01*
X132477456Y-101290156D01*
X132498361Y-101291902D01*
X132518154Y-101295232D01*
X132524507Y-101295309D01*
X132525848Y-101295326D01*
X132525851Y-101295326D01*
X132530706Y-101295385D01*
X132546216Y-101293163D01*
X132555074Y-101292214D01*
X132688763Y-101282652D01*
X132741442Y-101278885D01*
X132741443Y-101278885D01*
X132745929Y-101278564D01*
X132851349Y-101255632D01*
X132952377Y-101233655D01*
X132952382Y-101233654D01*
X132956770Y-101232699D01*
X133158939Y-101157296D01*
X133348319Y-101053890D01*
X133521057Y-100924586D01*
X133673635Y-100772016D01*
X133802948Y-100599285D01*
X133903334Y-100415457D01*
X133904206Y-100413861D01*
X133904209Y-100413854D01*
X133906363Y-100409910D01*
X133981777Y-100207746D01*
X134027653Y-99996907D01*
X134040161Y-99822156D01*
X134041586Y-99810245D01*
X134043470Y-99799049D01*
X134043471Y-99799039D01*
X134044279Y-99794237D01*
X134044433Y-99781685D01*
X134040476Y-99754042D01*
X134039204Y-99736189D01*
X134039204Y-93269936D01*
X134531546Y-93269936D01*
X134551501Y-93498023D01*
X134552925Y-93503336D01*
X134552925Y-93503338D01*
X134604066Y-93694195D01*
X134610760Y-93719179D01*
X134613083Y-93724160D01*
X134613083Y-93724161D01*
X134705195Y-93921698D01*
X134705198Y-93921703D01*
X134707521Y-93926685D01*
X134780946Y-94031547D01*
X134799085Y-94057451D01*
X134838846Y-94114236D01*
X135000744Y-94276134D01*
X135005252Y-94279291D01*
X135005255Y-94279293D01*
X135083433Y-94334034D01*
X135188295Y-94407459D01*
X135193277Y-94409782D01*
X135193282Y-94409785D01*
X135390819Y-94501897D01*
X135395801Y-94504220D01*
X135401109Y-94505642D01*
X135401111Y-94505643D01*
X135611642Y-94562055D01*
X135611644Y-94562055D01*
X135616957Y-94563479D01*
X135845044Y-94583434D01*
X136073131Y-94563479D01*
X136078444Y-94562055D01*
X136078446Y-94562055D01*
X136288977Y-94505643D01*
X136288979Y-94505642D01*
X136294287Y-94504220D01*
X136299269Y-94501897D01*
X136496806Y-94409785D01*
X136496811Y-94409782D01*
X136501793Y-94407459D01*
X136596772Y-94340954D01*
X136664045Y-94318266D01*
X136732905Y-94335551D01*
X136781490Y-94387320D01*
X136794654Y-94454053D01*
X136784509Y-94582955D01*
X136781598Y-94619949D01*
X136800845Y-94864506D01*
X136801999Y-94869313D01*
X136802000Y-94869319D01*
X136816300Y-94928882D01*
X136858112Y-95103041D01*
X136951990Y-95329681D01*
X137080165Y-95538845D01*
X137083380Y-95542609D01*
X137083382Y-95542612D01*
X137101767Y-95564138D01*
X137239484Y-95725382D01*
X137426021Y-95884701D01*
X137430244Y-95887289D01*
X137430247Y-95887291D01*
X137456478Y-95903365D01*
X137635185Y-96012876D01*
X137779884Y-96072813D01*
X137857252Y-96104860D01*
X137857254Y-96104861D01*
X137861825Y-96106754D01*
X137944480Y-96126598D01*
X138095547Y-96162866D01*
X138095553Y-96162867D01*
X138100360Y-96164021D01*
X138344917Y-96183268D01*
X138589474Y-96164021D01*
X138594281Y-96162867D01*
X138594287Y-96162866D01*
X138745354Y-96126598D01*
X138828009Y-96106754D01*
X138832580Y-96104861D01*
X138832582Y-96104860D01*
X138909950Y-96072813D01*
X139054649Y-96012876D01*
X139233356Y-95903365D01*
X139259587Y-95887291D01*
X139259590Y-95887289D01*
X139263813Y-95884701D01*
X139450350Y-95725382D01*
X139588067Y-95564138D01*
X139606452Y-95542612D01*
X139606454Y-95542609D01*
X139609669Y-95538845D01*
X139737844Y-95329681D01*
X139831722Y-95103041D01*
X139873534Y-94928882D01*
X139887834Y-94869319D01*
X139887835Y-94869313D01*
X139888989Y-94864506D01*
X139908236Y-94619949D01*
X139888989Y-94375392D01*
X139880722Y-94340954D01*
X139839264Y-94168271D01*
X139831722Y-94136857D01*
X139820484Y-94109725D01*
X139752429Y-93945428D01*
X139737844Y-93910217D01*
X139622735Y-93722375D01*
X139612259Y-93705279D01*
X139612257Y-93705276D01*
X139609669Y-93701053D01*
X139562137Y-93645400D01*
X139453558Y-93518272D01*
X139450350Y-93514516D01*
X139423260Y-93491379D01*
X139267580Y-93358414D01*
X139267577Y-93358412D01*
X139263813Y-93355197D01*
X139259590Y-93352609D01*
X139259587Y-93352607D01*
X139177272Y-93302165D01*
X139054649Y-93227022D01*
X138840614Y-93138365D01*
X138832582Y-93135038D01*
X138832580Y-93135037D01*
X138828009Y-93133144D01*
X138736714Y-93111226D01*
X138594287Y-93077032D01*
X138594281Y-93077031D01*
X138589474Y-93075877D01*
X138344917Y-93056630D01*
X138100360Y-93075877D01*
X138095553Y-93077031D01*
X138095547Y-93077032D01*
X137953120Y-93111226D01*
X137861825Y-93133144D01*
X137857254Y-93135037D01*
X137857252Y-93135038D01*
X137849220Y-93138365D01*
X137635185Y-93227022D01*
X137512562Y-93302165D01*
X137430247Y-93352607D01*
X137430244Y-93352609D01*
X137426021Y-93355197D01*
X137422257Y-93358412D01*
X137422254Y-93358414D01*
X137363074Y-93408959D01*
X137298284Y-93437990D01*
X137228084Y-93427385D01*
X137174761Y-93380510D01*
X137155246Y-93312249D01*
X137155723Y-93302165D01*
X137158063Y-93275421D01*
X137158063Y-93275411D01*
X137158542Y-93269936D01*
X137138587Y-93041849D01*
X137137163Y-93036534D01*
X137080751Y-92826003D01*
X137080750Y-92826001D01*
X137079328Y-92820693D01*
X137052596Y-92763365D01*
X136984893Y-92618174D01*
X136984890Y-92618169D01*
X136982567Y-92613187D01*
X136851242Y-92425636D01*
X136689344Y-92263738D01*
X136684836Y-92260581D01*
X136684833Y-92260579D01*
X136602203Y-92202721D01*
X136501793Y-92132413D01*
X136496811Y-92130090D01*
X136496806Y-92130087D01*
X136299269Y-92037975D01*
X136299268Y-92037975D01*
X136294287Y-92035652D01*
X136288979Y-92034230D01*
X136288977Y-92034229D01*
X136078446Y-91977817D01*
X136078444Y-91977817D01*
X136073131Y-91976393D01*
X135845044Y-91956438D01*
X135616957Y-91976393D01*
X135611644Y-91977817D01*
X135611642Y-91977817D01*
X135401111Y-92034229D01*
X135401109Y-92034230D01*
X135395801Y-92035652D01*
X135390820Y-92037975D01*
X135390819Y-92037975D01*
X135193282Y-92130087D01*
X135193277Y-92130090D01*
X135188295Y-92132413D01*
X135087885Y-92202721D01*
X135005255Y-92260579D01*
X135005252Y-92260581D01*
X135000744Y-92263738D01*
X134838846Y-92425636D01*
X134707521Y-92613187D01*
X134705198Y-92618169D01*
X134705195Y-92618174D01*
X134637492Y-92763365D01*
X134610760Y-92820693D01*
X134609338Y-92826001D01*
X134609337Y-92826003D01*
X134552925Y-93036534D01*
X134551501Y-93041849D01*
X134531546Y-93269936D01*
X134039204Y-93269936D01*
X134039204Y-89856126D01*
X135123537Y-89856126D01*
X135132833Y-89868141D01*
X135184038Y-89903995D01*
X135193533Y-89909478D01*
X135390991Y-90001554D01*
X135401283Y-90005300D01*
X135611732Y-90061689D01*
X135622525Y-90063592D01*
X135839569Y-90082581D01*
X135850519Y-90082581D01*
X136067563Y-90063592D01*
X136078356Y-90061689D01*
X136288805Y-90005300D01*
X136299097Y-90001554D01*
X136496555Y-89909478D01*
X136506050Y-89903995D01*
X136558092Y-89867555D01*
X136566468Y-89857076D01*
X136559400Y-89843630D01*
X135857856Y-89142086D01*
X135843912Y-89134472D01*
X135842079Y-89134603D01*
X135835464Y-89138854D01*
X135129967Y-89844351D01*
X135123537Y-89856126D01*
X134039204Y-89856126D01*
X134039204Y-88775539D01*
X134532527Y-88775539D01*
X134551516Y-88992583D01*
X134553419Y-89003376D01*
X134609808Y-89213825D01*
X134613554Y-89224117D01*
X134705630Y-89421575D01*
X134711113Y-89431070D01*
X134747553Y-89483112D01*
X134758032Y-89491488D01*
X134771478Y-89484420D01*
X135473022Y-88782876D01*
X135480636Y-88768932D01*
X135480505Y-88767099D01*
X135476254Y-88760484D01*
X134770757Y-88054987D01*
X134758982Y-88048557D01*
X134746967Y-88057853D01*
X134711113Y-88109058D01*
X134705630Y-88118553D01*
X134613554Y-88316011D01*
X134609808Y-88326303D01*
X134553419Y-88536752D01*
X134551516Y-88547545D01*
X134532527Y-88764589D01*
X134532527Y-88775539D01*
X134039204Y-88775539D01*
X134039204Y-87683052D01*
X135123620Y-87683052D01*
X135130688Y-87696498D01*
X136919331Y-89485141D01*
X136931106Y-89491571D01*
X136943121Y-89482275D01*
X136978975Y-89431070D01*
X136984458Y-89421575D01*
X137076534Y-89224117D01*
X137080280Y-89213825D01*
X137136669Y-89003376D01*
X137138572Y-88992583D01*
X137157561Y-88775539D01*
X137157561Y-88764587D01*
X137155180Y-88737369D01*
X137169170Y-88667765D01*
X137218570Y-88616773D01*
X137287696Y-88600583D01*
X137354601Y-88624336D01*
X137362532Y-88630578D01*
X137426021Y-88684803D01*
X137430244Y-88687391D01*
X137430247Y-88687393D01*
X137499432Y-88729789D01*
X137635185Y-88812978D01*
X137779884Y-88872915D01*
X137857252Y-88904962D01*
X137857254Y-88904963D01*
X137861825Y-88906856D01*
X137944480Y-88926700D01*
X138095547Y-88962968D01*
X138095553Y-88962969D01*
X138100360Y-88964123D01*
X138344917Y-88983370D01*
X138589474Y-88964123D01*
X138594281Y-88962969D01*
X138594287Y-88962968D01*
X138745354Y-88926700D01*
X138828009Y-88906856D01*
X138832580Y-88904963D01*
X138832582Y-88904962D01*
X138909950Y-88872915D01*
X139054649Y-88812978D01*
X139190402Y-88729789D01*
X139259587Y-88687393D01*
X139259590Y-88687391D01*
X139263813Y-88684803D01*
X139450350Y-88525484D01*
X139609669Y-88338947D01*
X139737844Y-88129783D01*
X139831722Y-87903143D01*
X139878900Y-87706633D01*
X139887834Y-87669421D01*
X139887835Y-87669415D01*
X139888989Y-87664608D01*
X139908236Y-87420051D01*
X139888989Y-87175494D01*
X139831722Y-86936959D01*
X139737844Y-86710319D01*
X139609669Y-86501155D01*
X139582092Y-86468866D01*
X139453558Y-86318374D01*
X139450350Y-86314618D01*
X139263813Y-86155299D01*
X139259590Y-86152711D01*
X139259587Y-86152709D01*
X139190402Y-86110313D01*
X139054649Y-86027124D01*
X138909950Y-85967187D01*
X138832582Y-85935140D01*
X138832580Y-85935139D01*
X138828009Y-85933246D01*
X138745354Y-85913402D01*
X138594287Y-85877134D01*
X138594281Y-85877133D01*
X138589474Y-85875979D01*
X138344917Y-85856732D01*
X138100360Y-85875979D01*
X138095553Y-85877133D01*
X138095547Y-85877134D01*
X137944480Y-85913402D01*
X137861825Y-85933246D01*
X137857254Y-85935139D01*
X137857252Y-85935140D01*
X137779884Y-85967187D01*
X137635185Y-86027124D01*
X137499432Y-86110313D01*
X137430247Y-86152709D01*
X137430244Y-86152711D01*
X137426021Y-86155299D01*
X137239484Y-86314618D01*
X137236276Y-86318374D01*
X137107743Y-86468866D01*
X137080165Y-86501155D01*
X136951990Y-86710319D01*
X136858112Y-86936959D01*
X136800845Y-87175494D01*
X136781598Y-87420051D01*
X136781986Y-87424981D01*
X136794705Y-87586593D01*
X136780109Y-87656073D01*
X136730266Y-87706633D01*
X136661002Y-87722219D01*
X136596822Y-87699692D01*
X136506050Y-87636133D01*
X136496555Y-87630650D01*
X136299097Y-87538574D01*
X136288805Y-87534828D01*
X136078356Y-87478439D01*
X136067563Y-87476536D01*
X135850519Y-87457547D01*
X135839569Y-87457547D01*
X135622525Y-87476536D01*
X135611732Y-87478439D01*
X135401283Y-87534828D01*
X135390991Y-87538574D01*
X135193533Y-87630650D01*
X135184038Y-87636133D01*
X135131996Y-87672573D01*
X135123620Y-87683052D01*
X134039204Y-87683052D01*
X134039204Y-85831002D01*
X134040703Y-85811624D01*
X134043014Y-85796775D01*
X134044395Y-85787903D01*
X134043231Y-85779004D01*
X134043231Y-85778994D01*
X134043215Y-85778873D01*
X134042942Y-85748436D01*
X134049934Y-85686355D01*
X134056210Y-85658854D01*
X134056422Y-85658250D01*
X134083181Y-85581766D01*
X134095422Y-85556344D01*
X134138871Y-85487191D01*
X134156462Y-85465131D01*
X134214211Y-85407379D01*
X134236271Y-85389786D01*
X134305421Y-85346334D01*
X134330843Y-85334091D01*
X134407928Y-85307117D01*
X134435435Y-85300838D01*
X134463989Y-85297620D01*
X134490733Y-85294607D01*
X134506570Y-85294948D01*
X134506583Y-85293855D01*
X134515551Y-85293965D01*
X134524426Y-85295347D01*
X134533329Y-85294183D01*
X134533336Y-85294183D01*
X134555996Y-85291220D01*
X134572332Y-85290156D01*
X135918676Y-85290156D01*
X135931210Y-85290781D01*
X135932891Y-85290949D01*
X135939033Y-85291563D01*
X135943882Y-85291297D01*
X135943886Y-85291297D01*
X135961227Y-85290345D01*
X135968131Y-85290156D01*
X135987238Y-85290156D01*
X135995816Y-85288928D01*
X136006748Y-85287847D01*
X136067113Y-85284534D01*
X136072859Y-85284219D01*
X136078518Y-85284036D01*
X136104239Y-85283782D01*
X136109038Y-85282986D01*
X136109088Y-85282982D01*
X136115552Y-85282272D01*
X136115542Y-85282195D01*
X136119985Y-85281633D01*
X136124457Y-85281387D01*
X136128843Y-85280511D01*
X136128846Y-85280511D01*
X136150730Y-85276142D01*
X136154785Y-85275401D01*
X136236192Y-85261902D01*
X136241799Y-85261102D01*
X136247498Y-85260419D01*
X136262484Y-85258623D01*
X136262488Y-85258622D01*
X136267312Y-85258044D01*
X136271997Y-85256728D01*
X136271999Y-85256728D01*
X136272003Y-85256727D01*
X136278427Y-85255297D01*
X136278410Y-85255224D01*
X136282766Y-85254179D01*
X136287193Y-85253445D01*
X136312737Y-85245359D01*
X136316647Y-85244192D01*
X136389051Y-85223862D01*
X136397528Y-85221796D01*
X136410076Y-85219194D01*
X136410075Y-85219194D01*
X136414841Y-85218206D01*
X136426625Y-85213785D01*
X136436803Y-85210454D01*
X136437051Y-85210384D01*
X136445927Y-85207892D01*
X136462894Y-85200397D01*
X136469543Y-85197684D01*
X136487890Y-85190800D01*
X136496139Y-85188026D01*
X136513145Y-85182955D01*
X136517535Y-85180865D01*
X136517544Y-85180862D01*
X136524464Y-85177568D01*
X136534354Y-85173368D01*
X136538984Y-85171631D01*
X136538989Y-85171629D01*
X136543181Y-85170056D01*
X136559498Y-85161117D01*
X136565874Y-85157857D01*
X136634156Y-85125357D01*
X136639325Y-85123038D01*
X136658534Y-85114933D01*
X136658545Y-85114928D01*
X136663030Y-85113035D01*
X136667172Y-85110474D01*
X136667252Y-85110433D01*
X136672921Y-85107343D01*
X136672883Y-85107276D01*
X136676777Y-85105070D01*
X136680824Y-85103144D01*
X136693833Y-85094500D01*
X136703151Y-85088308D01*
X136706624Y-85086082D01*
X136776783Y-85042705D01*
X136781678Y-85039829D01*
X136799862Y-85029689D01*
X136804116Y-85027317D01*
X136807947Y-85024325D01*
X136807960Y-85024316D01*
X136807967Y-85024310D01*
X136813366Y-85020549D01*
X136813322Y-85020488D01*
X136816950Y-85017871D01*
X136820767Y-85015511D01*
X136841300Y-84998357D01*
X136844517Y-84995758D01*
X136903762Y-84949478D01*
X136910811Y-84944354D01*
X136925486Y-84934446D01*
X136929056Y-84931131D01*
X136929061Y-84931127D01*
X136934698Y-84925893D01*
X136942871Y-84918928D01*
X136946780Y-84915874D01*
X136950319Y-84913110D01*
X136963197Y-84899707D01*
X136968286Y-84894705D01*
X136982666Y-84881353D01*
X136989244Y-84875655D01*
X136991423Y-84873896D01*
X137003041Y-84864516D01*
X137011464Y-84855238D01*
X137019018Y-84847599D01*
X137022645Y-84844232D01*
X137022654Y-84844223D01*
X137025936Y-84841175D01*
X137028755Y-84837691D01*
X137028761Y-84837684D01*
X137037634Y-84826715D01*
X137042296Y-84821276D01*
X137093120Y-84765294D01*
X137097020Y-84761187D01*
X137101583Y-84756594D01*
X137115157Y-84742930D01*
X137118013Y-84738994D01*
X137118054Y-84738945D01*
X137122141Y-84733916D01*
X137122080Y-84733868D01*
X137124852Y-84730341D01*
X137127865Y-84727022D01*
X137142886Y-84704824D01*
X137145228Y-84701481D01*
X137193702Y-84634667D01*
X137197117Y-84630175D01*
X137213141Y-84610061D01*
X137215554Y-84605830D01*
X137219121Y-84600302D01*
X137219057Y-84600262D01*
X137221428Y-84596451D01*
X137224060Y-84592823D01*
X137236551Y-84569141D01*
X137238533Y-84565529D01*
X137275778Y-84500212D01*
X137280346Y-84492809D01*
X137290160Y-84478072D01*
X137292201Y-84473656D01*
X137292207Y-84473646D01*
X137295435Y-84466662D01*
X137300348Y-84457122D01*
X137305038Y-84448897D01*
X137306683Y-84444731D01*
X137306687Y-84444722D01*
X137311850Y-84431642D01*
X137314668Y-84425060D01*
X137322507Y-84408102D01*
X137326615Y-84399998D01*
X137332355Y-84389621D01*
X137334711Y-84385362D01*
X137339354Y-84372675D01*
X137343310Y-84363102D01*
X137345801Y-84357714D01*
X137345802Y-84357712D01*
X137347680Y-84353649D01*
X137352717Y-84336819D01*
X137355100Y-84329645D01*
X137378028Y-84266988D01*
X137380395Y-84260999D01*
X137389645Y-84239238D01*
X137391307Y-84232658D01*
X137394299Y-84222957D01*
X137394875Y-84220950D01*
X137396414Y-84216745D01*
X137401523Y-84192605D01*
X137402624Y-84187857D01*
X137420450Y-84117294D01*
X137422187Y-84111089D01*
X137422814Y-84109053D01*
X137429150Y-84088468D01*
X137430130Y-84081717D01*
X137432116Y-84071702D01*
X137432472Y-84069702D01*
X137433569Y-84065360D01*
X137436159Y-84040833D01*
X137436762Y-84036022D01*
X137441640Y-84002422D01*
X137446220Y-83970866D01*
X137447897Y-83961712D01*
X137451393Y-83945944D01*
X137452291Y-83931879D01*
X137453341Y-83921810D01*
X137454278Y-83915357D01*
X137454279Y-83915350D01*
X137454920Y-83910930D01*
X137454951Y-83894975D01*
X137455732Y-83881215D01*
X137456053Y-83878342D01*
X137456964Y-83873572D01*
X137457997Y-83843335D01*
X137458180Y-83839611D01*
X137459620Y-83817051D01*
X137459906Y-83812570D01*
X137459554Y-83808094D01*
X137459521Y-83803621D01*
X137459680Y-83803620D01*
X137459551Y-83797871D01*
X137461143Y-83751288D01*
X137461163Y-83751009D01*
X137461226Y-83750675D01*
X137462492Y-83711764D01*
X137462559Y-83711561D01*
X137462499Y-83711559D01*
X137463734Y-83675415D01*
X137463698Y-83675080D01*
X137463697Y-83674770D01*
X137465206Y-83628405D01*
X137465227Y-83628106D01*
X137465289Y-83627775D01*
X137466125Y-83600771D01*
X137466492Y-83588889D01*
X137466499Y-83588688D01*
X137467643Y-83553520D01*
X137467676Y-83552506D01*
X137467638Y-83552162D01*
X137467637Y-83551874D01*
X137469071Y-83505492D01*
X137469091Y-83505203D01*
X137469155Y-83504860D01*
X137470303Y-83465668D01*
X137471419Y-83429596D01*
X137471381Y-83429254D01*
X137471379Y-83428951D01*
X137472738Y-83382576D01*
X137472758Y-83382281D01*
X137472819Y-83381948D01*
X137473906Y-83342688D01*
X137474961Y-83306672D01*
X137474922Y-83306332D01*
X137474920Y-83306046D01*
X137476205Y-83259648D01*
X137476223Y-83259366D01*
X137476286Y-83259022D01*
X137477303Y-83219998D01*
X137478306Y-83183751D01*
X137478267Y-83183406D01*
X137478264Y-83183099D01*
X137479471Y-83136729D01*
X137479490Y-83136435D01*
X137479552Y-83136093D01*
X137480515Y-83096670D01*
X137481449Y-83060815D01*
X137481409Y-83060472D01*
X137481406Y-83060181D01*
X137482540Y-83013793D01*
X137482558Y-83013499D01*
X137482619Y-83013160D01*
X137483516Y-82973804D01*
X137484394Y-82937879D01*
X137484353Y-82937535D01*
X137484350Y-82937250D01*
X137485407Y-82890864D01*
X137485423Y-82890599D01*
X137485480Y-82890281D01*
X137485797Y-82875415D01*
X137486312Y-82851202D01*
X137486316Y-82851010D01*
X137487118Y-82815869D01*
X137487118Y-82815862D01*
X137487139Y-82814937D01*
X137487101Y-82814618D01*
X137487097Y-82814347D01*
X137487687Y-82786650D01*
X137487702Y-82786396D01*
X137487752Y-82786115D01*
X137488535Y-82746866D01*
X137489305Y-82710697D01*
X137489270Y-82710411D01*
X137489267Y-82710178D01*
X137489818Y-82682482D01*
X137489833Y-82682230D01*
X137489884Y-82681938D01*
X137490616Y-82642497D01*
X137491333Y-82606527D01*
X137491298Y-82606240D01*
X137491294Y-82605984D01*
X137491807Y-82578289D01*
X137491821Y-82578045D01*
X137491870Y-82577763D01*
X137492537Y-82538918D01*
X137493216Y-82502346D01*
X137493179Y-82502052D01*
X137493175Y-82501801D01*
X137493651Y-82474119D01*
X137493665Y-82473872D01*
X137493714Y-82473586D01*
X137494336Y-82434227D01*
X137494956Y-82398167D01*
X137494920Y-82397878D01*
X137494915Y-82397636D01*
X137495353Y-82369943D01*
X137495366Y-82369692D01*
X137495416Y-82369401D01*
X137495983Y-82330078D01*
X137496554Y-82293986D01*
X137496517Y-82293693D01*
X137496512Y-82293454D01*
X137496911Y-82265747D01*
X137496923Y-82265511D01*
X137496972Y-82265224D01*
X137497484Y-82226028D01*
X137498007Y-82189797D01*
X137497970Y-82189508D01*
X137497964Y-82189269D01*
X137498327Y-82161568D01*
X137498339Y-82161329D01*
X137498388Y-82161036D01*
X137498847Y-82121715D01*
X137499319Y-82085618D01*
X137499281Y-82085325D01*
X137499275Y-82085072D01*
X137499599Y-82057384D01*
X137499611Y-82057138D01*
X137499659Y-82056850D01*
X137500064Y-82017574D01*
X137500486Y-81981426D01*
X137500448Y-81981136D01*
X137500442Y-81980891D01*
X137500727Y-81953202D01*
X137500739Y-81952947D01*
X137500787Y-81952659D01*
X137501139Y-81913212D01*
X137501510Y-81877238D01*
X137501472Y-81876949D01*
X137501466Y-81876717D01*
X137501712Y-81849001D01*
X137501723Y-81848760D01*
X137501771Y-81848470D01*
X137502065Y-81809512D01*
X137502391Y-81773043D01*
X137502352Y-81772747D01*
X137502345Y-81772499D01*
X137502553Y-81744838D01*
X137502565Y-81744573D01*
X137502612Y-81744286D01*
X137502857Y-81704778D01*
X137502894Y-81704778D01*
X137502858Y-81704608D01*
X137503122Y-81669703D01*
X137503122Y-81669692D01*
X137503128Y-81668853D01*
X137503089Y-81668564D01*
X137503082Y-81668333D01*
X137503254Y-81640626D01*
X137503265Y-81640377D01*
X137503312Y-81640084D01*
X137503418Y-81617944D01*
X137523746Y-81549920D01*
X137577624Y-81503684D01*
X137629417Y-81492547D01*
X147949892Y-81492547D01*
X147970787Y-81494292D01*
X147990601Y-81497624D01*
X147995468Y-81497683D01*
X147995469Y-81497683D01*
X147996078Y-81497690D01*
X148001336Y-81497754D01*
X148003153Y-81497776D01*
X148003148Y-81498160D01*
X148069801Y-81513102D01*
X148119685Y-81563621D01*
X148134337Y-81633089D01*
X148109105Y-81699451D01*
X148097812Y-81712400D01*
X146577941Y-83232271D01*
X146543091Y-83256901D01*
X146537781Y-83259434D01*
X146426782Y-83312378D01*
X146244346Y-83443471D01*
X146240439Y-83447503D01*
X146103621Y-83588688D01*
X146088008Y-83604799D01*
X145962710Y-83791262D01*
X145872412Y-83996967D01*
X145871103Y-84002418D01*
X145871102Y-84002422D01*
X145821278Y-84209954D01*
X145819968Y-84215411D01*
X145818594Y-84239238D01*
X145808858Y-84408112D01*
X145807037Y-84439690D01*
X145834025Y-84662715D01*
X145900082Y-84877435D01*
X145902652Y-84882415D01*
X145902654Y-84882419D01*
X145984613Y-85041212D01*
X146003118Y-85077064D01*
X146139877Y-85255292D01*
X146306036Y-85406485D01*
X146310783Y-85409463D01*
X146310786Y-85409465D01*
X146439227Y-85490035D01*
X146496344Y-85525864D01*
X146704783Y-85609656D01*
X146924767Y-85655213D01*
X146929378Y-85655479D01*
X146929379Y-85655479D01*
X146979952Y-85658395D01*
X146979956Y-85658395D01*
X146981775Y-85658500D01*
X147098604Y-85658500D01*
X147115051Y-85659578D01*
X147131516Y-85661746D01*
X147131520Y-85661746D01*
X147137086Y-85662479D01*
X147218489Y-85658640D01*
X147224424Y-85658500D01*
X147246999Y-85658500D01*
X147272989Y-85656181D01*
X147278248Y-85655822D01*
X147361488Y-85651896D01*
X147366947Y-85650646D01*
X147366952Y-85650645D01*
X147378970Y-85647892D01*
X147395899Y-85645211D01*
X147413762Y-85643617D01*
X147419178Y-85642135D01*
X147419180Y-85642135D01*
X147494133Y-85621630D01*
X147499251Y-85620344D01*
X147575000Y-85602995D01*
X147575002Y-85602994D01*
X147580470Y-85601742D01*
X147590970Y-85597263D01*
X147596967Y-85594706D01*
X147613142Y-85589073D01*
X147625039Y-85585818D01*
X147625043Y-85585817D01*
X147630451Y-85584337D01*
X147705667Y-85548461D01*
X147710476Y-85546290D01*
X147781949Y-85515804D01*
X147781950Y-85515804D01*
X147787109Y-85513603D01*
X147802110Y-85503749D01*
X147817025Y-85495346D01*
X147833218Y-85487622D01*
X147837769Y-85484352D01*
X147837772Y-85484350D01*
X147900881Y-85439001D01*
X147905232Y-85436011D01*
X147971010Y-85392804D01*
X147971018Y-85392798D01*
X147974874Y-85390265D01*
X147995662Y-85371743D01*
X148005939Y-85363510D01*
X148015654Y-85356529D01*
X148090029Y-85279780D01*
X148091418Y-85278370D01*
X148613194Y-84756594D01*
X148675506Y-84722568D01*
X148746321Y-84727633D01*
X148803115Y-84770124D01*
X148842939Y-84823261D01*
X148959495Y-84910615D01*
X149095884Y-84961745D01*
X149158066Y-84968500D01*
X151254334Y-84968500D01*
X151316516Y-84961745D01*
X151452905Y-84910615D01*
X151569461Y-84823261D01*
X151656815Y-84706705D01*
X151707945Y-84570316D01*
X151714700Y-84508134D01*
X151714700Y-81469949D01*
X151734702Y-81401828D01*
X151788358Y-81355335D01*
X151858632Y-81345231D01*
X151907764Y-81363280D01*
X152009466Y-81427221D01*
X152009471Y-81427223D01*
X152015462Y-81430990D01*
X152155436Y-81480031D01*
X152245112Y-81490183D01*
X152251888Y-81491137D01*
X152290259Y-81497616D01*
X152302811Y-81497776D01*
X152307620Y-81497090D01*
X152307622Y-81497090D01*
X152330627Y-81493809D01*
X152348417Y-81492547D01*
X155449892Y-81492547D01*
X155470787Y-81494292D01*
X155490601Y-81497624D01*
X155495468Y-81497683D01*
X155495469Y-81497683D01*
X155496505Y-81497695D01*
X155503153Y-81497776D01*
X155537198Y-81492898D01*
X155540905Y-81492423D01*
X155589277Y-81486971D01*
X155643543Y-81480854D01*
X155643546Y-81480853D01*
X155650575Y-81480061D01*
X155657251Y-81477725D01*
X155657255Y-81477724D01*
X155783929Y-81433399D01*
X155783934Y-81433397D01*
X155790606Y-81431062D01*
X155806784Y-81420898D01*
X155910244Y-81355900D01*
X155910247Y-81355897D01*
X155916228Y-81352140D01*
X155921227Y-81347142D01*
X155921231Y-81347139D01*
X155956415Y-81311963D01*
X156018731Y-81277944D01*
X156089546Y-81283017D01*
G37*
%TD.AperFunction*%
%TA.AperFunction,Conductor*%
G36*
X142974169Y-118710569D02*
G01*
X142990188Y-118714771D01*
X143005144Y-118716819D01*
X143149187Y-118719083D01*
X143164191Y-118717506D01*
X143205374Y-118708074D01*
X143276241Y-118712364D01*
X143333539Y-118754286D01*
X143359076Y-118820531D01*
X143358425Y-118847340D01*
X143343194Y-118963028D01*
X143343037Y-118978109D01*
X143357504Y-119109148D01*
X143345098Y-119179052D01*
X143296869Y-119231152D01*
X143228128Y-119248907D01*
X143201571Y-119245179D01*
X143177949Y-119239246D01*
X143162974Y-119237354D01*
X143018910Y-119236600D01*
X143003934Y-119238332D01*
X142970521Y-119246354D01*
X142899613Y-119242807D01*
X142841879Y-119201487D01*
X142815649Y-119135513D01*
X142816364Y-119106082D01*
X142832107Y-118995463D01*
X142832731Y-118987258D01*
X142832790Y-118981621D01*
X142832338Y-118973406D01*
X142817111Y-118847582D01*
X142828784Y-118777552D01*
X142876465Y-118724950D01*
X142945016Y-118706477D01*
X142974169Y-118710569D01*
G37*
%TD.AperFunction*%
%TA.AperFunction,Conductor*%
G36*
X142974169Y-116875569D02*
G01*
X142990188Y-116879771D01*
X143005144Y-116881819D01*
X143149187Y-116884083D01*
X143164191Y-116882506D01*
X143205374Y-116873074D01*
X143276241Y-116877364D01*
X143333539Y-116919286D01*
X143359076Y-116985531D01*
X143358425Y-117012340D01*
X143343194Y-117128028D01*
X143343037Y-117143109D01*
X143357504Y-117274148D01*
X143345098Y-117344052D01*
X143296869Y-117396152D01*
X143228128Y-117413907D01*
X143201571Y-117410179D01*
X143177949Y-117404246D01*
X143162974Y-117402354D01*
X143018910Y-117401600D01*
X143003934Y-117403332D01*
X142970521Y-117411354D01*
X142899613Y-117407807D01*
X142841879Y-117366487D01*
X142815649Y-117300513D01*
X142816364Y-117271082D01*
X142832107Y-117160463D01*
X142832731Y-117152258D01*
X142832790Y-117146621D01*
X142832338Y-117138406D01*
X142817111Y-117012582D01*
X142828784Y-116942552D01*
X142876465Y-116889950D01*
X142945016Y-116871477D01*
X142974169Y-116875569D01*
G37*
%TD.AperFunction*%
%TD*%
M02*
