%TF.GenerationSoftware,KiCad,Pcbnew,(6.0.0-0)*%
%TF.CreationDate,2022-03-13T18:25:22+01:00*%
%TF.ProjectId,GlowTube,476c6f77-5475-4626-952e-6b696361645f,rev?*%
%TF.SameCoordinates,Original*%
%TF.FileFunction,Copper,L2,Bot*%
%TF.FilePolarity,Positive*%
%FSLAX46Y46*%
G04 Gerber Fmt 4.6, Leading zero omitted, Abs format (unit mm)*
G04 Created by KiCad (PCBNEW (6.0.0-0)) date 2022-03-13 18:25:22*
%MOMM*%
%LPD*%
G01*
G04 APERTURE LIST*
%TA.AperFunction,ComponentPad*%
%ADD10R,1.600000X1.600000*%
%TD*%
%TA.AperFunction,ComponentPad*%
%ADD11C,1.600000*%
%TD*%
%TA.AperFunction,ComponentPad*%
%ADD12C,0.300000*%
%TD*%
%TA.AperFunction,ComponentPad*%
%ADD13R,1.700000X1.700000*%
%TD*%
%TA.AperFunction,ComponentPad*%
%ADD14O,1.700000X1.700000*%
%TD*%
%TA.AperFunction,ComponentPad*%
%ADD15C,0.700000*%
%TD*%
%TA.AperFunction,ComponentPad*%
%ADD16O,1.200000X2.200000*%
%TD*%
%TA.AperFunction,ComponentPad*%
%ADD17O,1.200000X1.800000*%
%TD*%
%TA.AperFunction,SMDPad,CuDef*%
%ADD18R,2.000000X3.500000*%
%TD*%
%TA.AperFunction,ViaPad*%
%ADD19C,0.800000*%
%TD*%
%TA.AperFunction,Conductor*%
%ADD20C,1.500000*%
%TD*%
%TA.AperFunction,Conductor*%
%ADD21C,0.160000*%
%TD*%
%TA.AperFunction,Conductor*%
%ADD22C,0.400000*%
%TD*%
%TA.AperFunction,Conductor*%
%ADD23C,0.200000*%
%TD*%
G04 APERTURE END LIST*
D10*
%TO.P,RJ1,1,1*%
%TO.N,unconnected-(RJ1-Pad1)*%
X106580051Y-155400071D03*
D11*
%TO.P,RJ1,2,2*%
%TO.N,RECEIVER 5V*%
X105559985Y-157940076D03*
%TO.P,RJ1,3,3*%
%TO.N,LED1 DATA IN*%
X104539919Y-155400071D03*
%TO.P,RJ1,4,4*%
%TO.N,GND*%
X103520107Y-157940076D03*
%TO.P,RJ1,5,5*%
%TO.N,unconnected-(RJ1-Pad5)*%
X102500041Y-155400071D03*
%TO.P,RJ1,6,6*%
%TO.N,unconnected-(RJ1-Pad6)*%
X101479975Y-157940076D03*
%TD*%
D12*
%TO.P,U1,39_10,GND*%
%TO.N,GND*%
X146403900Y-117287700D03*
%TO.P,U1,39_11,GND*%
X146403900Y-119122700D03*
%TO.P,U1,39_12,GND*%
X145486400Y-116370200D03*
%TO.P,U1,39_13,GND*%
X145486400Y-118205200D03*
%TO.P,U1,39_14,GND*%
X145486400Y-120040200D03*
%TO.P,U1,39_15,GND*%
X144568900Y-117287700D03*
%TO.P,U1,39_16,GND*%
X144568900Y-119122700D03*
%TO.P,U1,39_17,GND*%
X143651400Y-116370200D03*
%TO.P,U1,39_18,GND*%
X143651400Y-118205200D03*
%TO.P,U1,39_19,GND*%
X143651400Y-120040200D03*
%TO.P,U1,39_20,GND*%
X142733900Y-117287700D03*
%TO.P,U1,39_21,GND*%
X142733900Y-119122700D03*
%TD*%
D13*
%TO.P,J1,1,Pin_1*%
%TO.N,IO12*%
X89540000Y-135960000D03*
D14*
%TO.P,J1,2,Pin_2*%
%TO.N,IO13*%
X89540000Y-138500000D03*
%TO.P,J1,3,Pin_3*%
%TO.N,IO5*%
X89540000Y-141040000D03*
%TO.P,J1,4,Pin_4*%
%TO.N,IO25{slash}A1{slash}DAC1*%
X89540000Y-143580000D03*
%TO.P,J1,5,Pin_5*%
%TO.N,IO26{slash}A0{slash}DAC2*%
X89540000Y-146120000D03*
%TO.P,J1,6,Pin_6*%
%TO.N,+3V3*%
X89540000Y-148660000D03*
%TO.P,J1,7,Pin_7*%
%TO.N,GND*%
X89540000Y-151200000D03*
%TO.P,J1,8,Pin_8*%
%TO.N,+5V*%
X89540000Y-153740000D03*
%TD*%
D15*
%TO.P,USB1,*%
%TO.N,*%
X88540000Y-159907500D03*
X94320000Y-159907500D03*
D16*
%TO.P,USB1,SHELL,SHELL*%
%TO.N,GND*%
X87110000Y-159407500D03*
D17*
X95750000Y-163587500D03*
X87110000Y-163587500D03*
D16*
X95750000Y-159407500D03*
%TD*%
D18*
%TO.P,LED2,1,5V*%
%TO.N,+5V*%
X162255100Y-81940000D03*
%TO.P,LED2,3,GND*%
%TO.N,GND*%
X156290900Y-81940000D03*
%TD*%
D19*
%TO.N,+5V*%
X128220000Y-150160000D03*
X156370000Y-93620000D03*
X105740000Y-139550000D03*
X127860000Y-143400000D03*
X138010000Y-97720000D03*
%TO.N,GND*%
X147850000Y-99620000D03*
X100880000Y-140050000D03*
X97040000Y-147840000D03*
X150940000Y-95570000D03*
X142920000Y-102860000D03*
X133680000Y-107260000D03*
X162150000Y-93630000D03*
X133680000Y-112210000D03*
X139140000Y-99620000D03*
%TO.N,+3V3*%
X126610000Y-151280000D03*
X126610000Y-146910000D03*
X119310000Y-158080000D03*
X124680000Y-152630000D03*
X116180000Y-161400000D03*
X127510000Y-135140000D03*
%TO.N,RESET*%
X112010000Y-163540000D03*
X143620000Y-145800000D03*
X151160000Y-114350000D03*
%TO.N,IO25{slash}A1{slash}DAC1*%
X145190000Y-113770000D03*
X120530000Y-134300000D03*
%TO.N,IO26{slash}A0{slash}DAC2*%
X117570000Y-134770000D03*
X147600000Y-114540000D03*
%TO.N,IO12*%
X125740000Y-117170000D03*
X128340000Y-114600000D03*
%TO.N,IO13*%
X128660000Y-122220000D03*
X130820000Y-121670000D03*
%TO.N,IO15{slash}WS*%
X140530000Y-108040000D03*
X137640000Y-114930000D03*
%TO.N,IO0*%
X134530000Y-130550000D03*
X134210000Y-133820000D03*
%TO.N,IO5*%
X140590000Y-129660000D03*
X123620000Y-133090000D03*
%TO.N,USB-C CC1*%
X89860000Y-160150000D03*
X97460000Y-150450000D03*
%TO.N,USB-C DATA+*%
X131090000Y-147790000D03*
X119710000Y-155810000D03*
X92070000Y-156940000D03*
X95580000Y-156760000D03*
%TO.N,USB-C DATA-*%
X101710000Y-162120000D03*
X127840000Y-147970000D03*
%TO.N,USB-C CC2*%
X93600000Y-161769500D03*
X99250000Y-150680000D03*
%TO.N,IO33{slash}TESTBUTTON*%
X139290000Y-118800000D03*
X142450000Y-112800000D03*
X127260000Y-160630000D03*
X150860000Y-125590000D03*
%TO.N,RTS*%
X142650000Y-147110000D03*
X141390000Y-149640000D03*
%TO.N,RECEIVER 5V*%
X129730000Y-136030000D03*
%TO.N,LED1 DATA IN*%
X130870000Y-133790000D03*
X147040000Y-101320000D03*
%TD*%
D20*
%TO.N,+5V*%
X131590000Y-113700000D02*
X131590000Y-104140000D01*
D21*
X127860000Y-143400000D02*
X129150000Y-144690000D01*
X129150000Y-148090000D02*
X128220000Y-149020000D01*
D20*
X152270000Y-97720000D02*
X156370000Y-93620000D01*
X162255100Y-81940000D02*
X162255100Y-83274900D01*
D21*
X128220000Y-149020000D02*
X128220000Y-150160000D01*
D20*
X162255100Y-83274900D02*
X156370000Y-89160000D01*
X156370000Y-89160000D02*
X156370000Y-93620000D01*
D21*
X129150000Y-144690000D02*
X129150000Y-148090000D01*
D20*
X139900000Y-97720000D02*
X152270000Y-97720000D01*
X131590000Y-104140000D02*
X138010000Y-97720000D01*
X138010000Y-97720000D02*
X139900000Y-97720000D01*
X105740000Y-139550000D02*
X131590000Y-113700000D01*
%TO.N,GND*%
X147850000Y-99620000D02*
X141350000Y-99620000D01*
X150940000Y-92160000D02*
X156290900Y-86809100D01*
X133680000Y-112210000D02*
X133680000Y-114620000D01*
X91620000Y-154799022D02*
X91620000Y-151200000D01*
X89430000Y-156989022D02*
X91620000Y-154799022D01*
X87972725Y-158537979D02*
X87110000Y-159400704D01*
X93752725Y-158537979D02*
X93640704Y-158650000D01*
X91620000Y-151200000D02*
X89540000Y-151200000D01*
X95750000Y-159407500D02*
X95750000Y-159400704D01*
D22*
X141350000Y-101290000D02*
X141350000Y-99620000D01*
X142920000Y-102860000D02*
X141350000Y-101290000D01*
D20*
X130820000Y-117480000D02*
X128275000Y-120025000D01*
X153230000Y-99620000D02*
X147850000Y-99620000D01*
X133680000Y-114620000D02*
X130820000Y-117480000D01*
D21*
X97040000Y-147840000D02*
X93680000Y-151200000D01*
D20*
X162150000Y-93630000D02*
X160100000Y-95680000D01*
X94887275Y-158537979D02*
X93752725Y-158537979D01*
D22*
X103520107Y-159071446D02*
X99004053Y-163587500D01*
D20*
X153500000Y-99350000D02*
X153230000Y-99620000D01*
X94887275Y-158537979D02*
X90237979Y-158537979D01*
X141350000Y-99620000D02*
X139140000Y-99620000D01*
D22*
X103520107Y-157940076D02*
X103520107Y-159071446D01*
D20*
X90237979Y-158537979D02*
X89430000Y-157730000D01*
X93640704Y-158650000D02*
X89219296Y-158650000D01*
X89219296Y-158650000D02*
X89107275Y-158537979D01*
D21*
X93680000Y-151200000D02*
X91620000Y-151200000D01*
D20*
X87110000Y-159400704D02*
X87110000Y-159407500D01*
D22*
X141831600Y-120025000D02*
X128275000Y-120025000D01*
D20*
X89430000Y-157730000D02*
X89430000Y-156989022D01*
X160100000Y-95680000D02*
X158000000Y-95680000D01*
X89107275Y-158537979D02*
X87972725Y-158537979D01*
X133680000Y-105700000D02*
X133680000Y-107260000D01*
X150940000Y-95570000D02*
X150940000Y-92160000D01*
D22*
X99004053Y-163587500D02*
X95750000Y-163587500D01*
D20*
X106260000Y-142040000D02*
X102720000Y-142040000D01*
X133680000Y-104960000D02*
X133680000Y-105700000D01*
X158000000Y-95680000D02*
X157170000Y-95680000D01*
X157170000Y-95680000D02*
X153500000Y-99350000D01*
X100880000Y-140200000D02*
X100880000Y-140050000D01*
X156290900Y-86809100D02*
X156290900Y-81940000D01*
D22*
X142733900Y-119122700D02*
X141831600Y-120025000D01*
D20*
X128275000Y-120025000D02*
X106260000Y-142040000D01*
X139140000Y-99620000D02*
X139020000Y-99620000D01*
X95750000Y-159400704D02*
X94887275Y-158537979D01*
X133680000Y-107260000D02*
X133680000Y-112210000D01*
X102720000Y-142040000D02*
X100880000Y-140200000D01*
X139020000Y-99620000D02*
X133680000Y-104960000D01*
D21*
%TO.N,+3V3*%
X125260000Y-152630000D02*
X126610000Y-151280000D01*
D22*
X127510000Y-135140000D02*
X126610000Y-136040000D01*
D21*
X116180000Y-161400000D02*
X116180000Y-161210000D01*
X116180000Y-161210000D02*
X119310000Y-158080000D01*
X124680000Y-152630000D02*
X125260000Y-152630000D01*
D22*
X126610000Y-136040000D02*
X126610000Y-146910000D01*
D21*
%TO.N,RESET*%
X143620000Y-145800000D02*
X143620000Y-131290000D01*
X150770000Y-124140000D02*
X151160000Y-123750000D01*
X131030000Y-157060000D02*
X142290000Y-145800000D01*
X143620000Y-131290000D02*
X150770000Y-124140000D01*
X118490000Y-157060000D02*
X131030000Y-157060000D01*
X142290000Y-145800000D02*
X143620000Y-145800000D01*
X112010000Y-163540000D02*
X118490000Y-157060000D01*
X151160000Y-123750000D02*
X151160000Y-114350000D01*
%TO.N,IO25{slash}A1{slash}DAC1*%
X149330000Y-120320000D02*
X149330000Y-115309025D01*
X149330000Y-115309025D02*
X147790975Y-113770000D01*
X147790975Y-113770000D02*
X145190000Y-113770000D01*
X131360000Y-123470000D02*
X147020000Y-123470000D01*
X149330000Y-121160000D02*
X149330000Y-120320000D01*
X147020000Y-123470000D02*
X149330000Y-121160000D01*
X120530000Y-134300000D02*
X131360000Y-123470000D01*
%TO.N,IO26{slash}A0{slash}DAC2*%
X148360000Y-115300000D02*
X147600000Y-114540000D01*
X146180000Y-122560000D02*
X148360000Y-120380000D01*
X148360000Y-120380000D02*
X148360000Y-115300000D01*
X129780000Y-122560000D02*
X145510000Y-122560000D01*
X117570000Y-134770000D02*
X129780000Y-122560000D01*
X145510000Y-122560000D02*
X146180000Y-122560000D01*
%TO.N,IO12*%
X125740000Y-117170000D02*
X128310000Y-114600000D01*
X128310000Y-114600000D02*
X128340000Y-114600000D01*
%TO.N,IO13*%
X129210000Y-121670000D02*
X130820000Y-121670000D01*
X128660000Y-122220000D02*
X129210000Y-121670000D01*
%TO.N,IO15{slash}WS*%
X137640000Y-110930000D02*
X137640000Y-114930000D01*
X140530000Y-108040000D02*
X137640000Y-110930000D01*
%TO.N,IO0*%
X134210000Y-133820000D02*
X134210000Y-130870000D01*
X134210000Y-130870000D02*
X134530000Y-130550000D01*
%TO.N,IO5*%
X123620000Y-133090000D02*
X125690000Y-133090000D01*
X126120000Y-132660000D02*
X131090000Y-132660000D01*
X131090000Y-132660000D02*
X133440000Y-135010000D01*
X125690000Y-133090000D02*
X126120000Y-132660000D01*
X135240000Y-135010000D02*
X140590000Y-129660000D01*
X133440000Y-135010000D02*
X135240000Y-135010000D01*
%TO.N,USB-C CC1*%
X98740000Y-162020000D02*
X99640000Y-161120000D01*
X99640000Y-161120000D02*
X99640000Y-159360000D01*
X89860000Y-160150000D02*
X90800000Y-161090000D01*
X97460000Y-157180000D02*
X97460000Y-150450000D01*
X96290000Y-161090000D02*
X97220000Y-162020000D01*
X97220000Y-162020000D02*
X98740000Y-162020000D01*
X99640000Y-159360000D02*
X97460000Y-157180000D01*
X90800000Y-161090000D02*
X96290000Y-161090000D01*
D23*
%TO.N,USB-C DATA+*%
X131090000Y-147790000D02*
X130760000Y-147790000D01*
X123559259Y-155810000D02*
X119710000Y-155810000D01*
X92250000Y-156760000D02*
X95580000Y-156760000D01*
X128919511Y-150449748D02*
X123559259Y-155810000D01*
X128919511Y-149630489D02*
X128919511Y-150449748D01*
X130760000Y-147790000D02*
X128919511Y-149630489D01*
X92070000Y-156940000D02*
X92250000Y-156760000D01*
D21*
%TO.N,USB-C DATA-*%
X111270000Y-162410000D02*
X102000000Y-162410000D01*
X127780000Y-147910000D02*
X125770000Y-147910000D01*
X127840000Y-147970000D02*
X127780000Y-147910000D01*
X102000000Y-162410000D02*
X101710000Y-162120000D01*
X125770000Y-147910000D02*
X111270000Y-162410000D01*
%TO.N,USB-C CC2*%
X100430000Y-161210000D02*
X100430000Y-159430000D01*
X100430000Y-159430000D02*
X99250000Y-158250000D01*
X99120000Y-162520000D02*
X100430000Y-161210000D01*
X99250000Y-158250000D02*
X99250000Y-150680000D01*
X97010000Y-162520000D02*
X99120000Y-162520000D01*
X93600500Y-161770000D02*
X96260000Y-161770000D01*
X93600000Y-161769500D02*
X93600500Y-161770000D01*
X96260000Y-161770000D02*
X97010000Y-162520000D01*
%TO.N,IO33{slash}TESTBUTTON*%
X131000000Y-159420000D02*
X132350000Y-158070000D01*
X145300000Y-146870000D02*
X145300000Y-131150000D01*
X128470000Y-159420000D02*
X131000000Y-159420000D01*
X127260000Y-160630000D02*
X128470000Y-159420000D01*
X139290000Y-115960000D02*
X142450000Y-112800000D01*
X134100000Y-158070000D02*
X145300000Y-146870000D01*
X139290000Y-118800000D02*
X139290000Y-115960000D01*
X132350000Y-158070000D02*
X134100000Y-158070000D01*
X145300000Y-131150000D02*
X150860000Y-125590000D01*
%TO.N,RTS*%
X141390000Y-149640000D02*
X141390000Y-148370000D01*
X141390000Y-148370000D02*
X142650000Y-147110000D01*
%TO.N,RECEIVER 5V*%
X124921431Y-139710000D02*
X124921431Y-136728089D01*
X127499520Y-134150000D02*
X128290000Y-134150000D01*
X106691355Y-157940076D02*
X124921431Y-139710000D01*
X124921431Y-136728089D02*
X127499520Y-134150000D01*
X105559985Y-157940076D02*
X106691355Y-157940076D01*
X128290000Y-134150000D02*
X129730000Y-135590000D01*
X129730000Y-135590000D02*
X129730000Y-136030000D01*
%TO.N,LED1 DATA IN*%
X132880000Y-135800000D02*
X130870000Y-133790000D01*
X125900000Y-134030000D02*
X126540000Y-133390000D01*
X150330000Y-104610000D02*
X150330000Y-122890000D01*
X104539919Y-155400071D02*
X125900000Y-134039990D01*
X150330000Y-122890000D02*
X137420000Y-135800000D01*
X125900000Y-134039990D02*
X125900000Y-134030000D01*
X130470000Y-133390000D02*
X130870000Y-133790000D01*
X137420000Y-135800000D02*
X132880000Y-135800000D01*
X147040000Y-101320000D02*
X150330000Y-104610000D01*
X126540000Y-133390000D02*
X130470000Y-133390000D01*
%TD*%
%TA.AperFunction,Conductor*%
%TO.N,GND*%
G36*
X87306121Y-159173502D02*
G01*
X87352614Y-159227158D01*
X87364000Y-159279500D01*
X87364000Y-160967902D01*
X87367973Y-160981433D01*
X87377399Y-160982788D01*
X87466537Y-160961306D01*
X87477832Y-160957417D01*
X87659382Y-160874871D01*
X87669724Y-160868924D01*
X87832397Y-160753532D01*
X87841425Y-160745739D01*
X87926046Y-160657343D01*
X87987601Y-160621967D01*
X88058511Y-160625486D01*
X88091124Y-160642538D01*
X88103038Y-160651194D01*
X88103044Y-160651197D01*
X88108385Y-160655078D01*
X88114413Y-160657762D01*
X88114415Y-160657763D01*
X88181356Y-160687567D01*
X88273248Y-160728480D01*
X88354446Y-160745739D01*
X88443311Y-160764628D01*
X88443315Y-160764628D01*
X88449768Y-160766000D01*
X88630232Y-160766000D01*
X88636685Y-160764628D01*
X88636689Y-160764628D01*
X88725554Y-160745739D01*
X88806752Y-160728480D01*
X88971615Y-160655078D01*
X88972526Y-160657124D01*
X89031462Y-160642830D01*
X89098553Y-160666055D01*
X89120269Y-160687567D01*
X89120960Y-160686944D01*
X89248747Y-160828866D01*
X89403248Y-160941118D01*
X89409276Y-160943802D01*
X89409278Y-160943803D01*
X89570832Y-161015731D01*
X89577712Y-161018794D01*
X89671113Y-161038647D01*
X89758056Y-161057128D01*
X89758061Y-161057128D01*
X89764513Y-161058500D01*
X89884046Y-161058500D01*
X89952167Y-161078502D01*
X89973141Y-161095405D01*
X90350750Y-161473014D01*
X90361617Y-161485405D01*
X90380277Y-161509723D01*
X90503211Y-161604054D01*
X90568606Y-161631141D01*
X90646371Y-161663353D01*
X90800000Y-161683578D01*
X90830385Y-161679578D01*
X90846830Y-161678500D01*
X92563480Y-161678500D01*
X92631601Y-161698502D01*
X92678094Y-161752158D01*
X92688790Y-161791329D01*
X92705768Y-161952865D01*
X92706458Y-161959428D01*
X92765473Y-162141056D01*
X92860960Y-162306444D01*
X92988747Y-162448366D01*
X93143248Y-162560618D01*
X93149276Y-162563302D01*
X93149278Y-162563303D01*
X93167981Y-162571630D01*
X93317712Y-162638294D01*
X93405453Y-162656944D01*
X93498056Y-162676628D01*
X93498061Y-162676628D01*
X93504513Y-162678000D01*
X93695487Y-162678000D01*
X93701939Y-162676628D01*
X93701944Y-162676628D01*
X93794547Y-162656944D01*
X93882288Y-162638294D01*
X94032019Y-162571630D01*
X94050722Y-162563303D01*
X94050724Y-162563302D01*
X94056752Y-162560618D01*
X94118172Y-162515994D01*
X94189671Y-162464046D01*
X94211253Y-162448366D01*
X94254632Y-162400189D01*
X94315078Y-162362950D01*
X94348268Y-162358500D01*
X94810413Y-162358500D01*
X94878534Y-162378502D01*
X94925027Y-162432158D01*
X94935131Y-162502432D01*
X94901431Y-162571630D01*
X94880663Y-162593325D01*
X94873262Y-162602696D01*
X94765079Y-162770241D01*
X94759583Y-162780845D01*
X94685039Y-162965812D01*
X94681645Y-162977270D01*
X94643143Y-163174428D01*
X94642066Y-163183291D01*
X94642000Y-163186000D01*
X94642000Y-163315385D01*
X94646475Y-163330624D01*
X94647865Y-163331829D01*
X94655548Y-163333500D01*
X96839885Y-163333500D01*
X96855124Y-163329025D01*
X96856329Y-163327635D01*
X96858000Y-163319952D01*
X96858000Y-163237242D01*
X96878002Y-163169121D01*
X96931658Y-163122628D01*
X96993554Y-163113353D01*
X96993554Y-163112500D01*
X96999248Y-163112500D01*
X97000447Y-163112320D01*
X97010000Y-163113578D01*
X97018188Y-163112500D01*
X97040383Y-163109578D01*
X97056829Y-163108500D01*
X99073170Y-163108500D01*
X99089615Y-163109578D01*
X99120000Y-163113578D01*
X99128189Y-163112500D01*
X99265442Y-163094431D01*
X99265443Y-163094431D01*
X99273630Y-163093353D01*
X99357490Y-163058616D01*
X99416789Y-163034054D01*
X99539723Y-162939723D01*
X99558380Y-162915409D01*
X99569247Y-162903018D01*
X100072076Y-162400189D01*
X100597073Y-161875191D01*
X100659385Y-161841166D01*
X100730200Y-161846230D01*
X100787036Y-161888777D01*
X100811847Y-161955297D01*
X100811478Y-161977454D01*
X100796496Y-162120000D01*
X100797186Y-162126565D01*
X100807310Y-162222885D01*
X100816458Y-162309928D01*
X100875473Y-162491556D01*
X100970960Y-162656944D01*
X100975378Y-162661851D01*
X100975379Y-162661852D01*
X100989919Y-162678000D01*
X101098747Y-162798866D01*
X101253248Y-162911118D01*
X101259276Y-162913802D01*
X101259278Y-162913803D01*
X101421681Y-162986109D01*
X101427712Y-162988794D01*
X101496823Y-163003484D01*
X101608056Y-163027128D01*
X101608061Y-163027128D01*
X101614513Y-163028500D01*
X101805487Y-163028500D01*
X101811940Y-163027128D01*
X101811944Y-163027128D01*
X101931111Y-163001798D01*
X101973752Y-163000123D01*
X101991810Y-163002500D01*
X101991811Y-163002500D01*
X102000000Y-163003578D01*
X102030385Y-162999578D01*
X102046830Y-162998500D01*
X111057870Y-162998500D01*
X111125991Y-163018502D01*
X111172484Y-163072158D01*
X111182588Y-163142432D01*
X111175116Y-163168328D01*
X111175473Y-163168444D01*
X111116458Y-163350072D01*
X111115768Y-163356633D01*
X111115768Y-163356635D01*
X111104222Y-163466487D01*
X111096496Y-163540000D01*
X111097186Y-163546565D01*
X111114942Y-163715500D01*
X111116458Y-163729928D01*
X111175473Y-163911556D01*
X111270960Y-164076944D01*
X111339851Y-164153456D01*
X111370567Y-164217461D01*
X111361803Y-164287915D01*
X111316341Y-164342446D01*
X111246214Y-164363764D01*
X96937909Y-164363764D01*
X96869788Y-164343762D01*
X96823295Y-164290106D01*
X96813191Y-164219832D01*
X96817097Y-164201982D01*
X96818353Y-164197741D01*
X96856857Y-164000572D01*
X96857934Y-163991709D01*
X96858000Y-163989000D01*
X96858000Y-163859615D01*
X96853525Y-163844376D01*
X96852135Y-163843171D01*
X96844452Y-163841500D01*
X94660115Y-163841500D01*
X94644876Y-163845975D01*
X94643671Y-163847365D01*
X94642000Y-163855048D01*
X94642000Y-163937332D01*
X94642285Y-163943308D01*
X94656471Y-164091994D01*
X94658730Y-164103729D01*
X94687646Y-164202295D01*
X94687629Y-164273291D01*
X94649231Y-164333008D01*
X94584643Y-164362486D01*
X94566741Y-164363764D01*
X88297909Y-164363764D01*
X88229788Y-164343762D01*
X88183295Y-164290106D01*
X88173191Y-164219832D01*
X88177097Y-164201982D01*
X88178353Y-164197741D01*
X88216857Y-164000572D01*
X88217934Y-163991709D01*
X88218000Y-163989000D01*
X88218000Y-163859615D01*
X88213525Y-163844376D01*
X88212135Y-163843171D01*
X88204452Y-163841500D01*
X86982000Y-163841500D01*
X86913879Y-163821498D01*
X86867386Y-163767842D01*
X86856000Y-163715500D01*
X86856000Y-163315385D01*
X87364000Y-163315385D01*
X87368475Y-163330624D01*
X87369865Y-163331829D01*
X87377548Y-163333500D01*
X88199885Y-163333500D01*
X88215124Y-163329025D01*
X88216329Y-163327635D01*
X88218000Y-163319952D01*
X88218000Y-163237668D01*
X88217715Y-163231692D01*
X88203529Y-163083006D01*
X88201270Y-163071272D01*
X88145128Y-162879901D01*
X88140698Y-162868825D01*
X88049381Y-162691522D01*
X88042931Y-162681476D01*
X87919738Y-162524643D01*
X87911501Y-162515994D01*
X87760877Y-162385288D01*
X87751153Y-162378353D01*
X87578533Y-162278490D01*
X87567669Y-162273516D01*
X87379273Y-162208093D01*
X87378284Y-162207852D01*
X87367992Y-162209320D01*
X87364000Y-162222885D01*
X87364000Y-163315385D01*
X86856000Y-163315385D01*
X86856000Y-162227098D01*
X86852027Y-162213567D01*
X86842601Y-162212212D01*
X86783520Y-162226450D01*
X86712609Y-162222965D01*
X86654839Y-162181695D01*
X86628553Y-162115744D01*
X86628000Y-162103957D01*
X86628000Y-161090171D01*
X86648002Y-161022050D01*
X86701658Y-160975557D01*
X86771932Y-160965453D01*
X86795333Y-160971143D01*
X86840727Y-160986907D01*
X86841716Y-160987148D01*
X86852008Y-160985680D01*
X86856000Y-160972115D01*
X86856000Y-159279500D01*
X86876002Y-159211379D01*
X86929658Y-159164886D01*
X86982000Y-159153500D01*
X87238000Y-159153500D01*
X87306121Y-159173502D01*
G37*
%TD.AperFunction*%
%TA.AperFunction,Conductor*%
G36*
X125819532Y-136766419D02*
G01*
X125876368Y-136808966D01*
X125901179Y-136875486D01*
X125901500Y-136884475D01*
X125901500Y-146291256D01*
X125881498Y-146359377D01*
X125877436Y-146365317D01*
X125875379Y-146368148D01*
X125870960Y-146373056D01*
X125867659Y-146378774D01*
X125867658Y-146378775D01*
X125807629Y-146482749D01*
X125775473Y-146538444D01*
X125716458Y-146720072D01*
X125715768Y-146726633D01*
X125715768Y-146726635D01*
X125701561Y-146861812D01*
X125696496Y-146910000D01*
X125697186Y-146916562D01*
X125697186Y-146916565D01*
X125713476Y-147071552D01*
X125716458Y-147099928D01*
X125719731Y-147110000D01*
X125739296Y-147170217D01*
X125741323Y-147241185D01*
X125704661Y-147301983D01*
X125635908Y-147334075D01*
X125616371Y-147336647D01*
X125566502Y-147357304D01*
X125473211Y-147395946D01*
X125350277Y-147490277D01*
X125345251Y-147496827D01*
X125331617Y-147514595D01*
X125320750Y-147526986D01*
X111063140Y-161784595D01*
X111000828Y-161818621D01*
X110974045Y-161821500D01*
X110887017Y-161821500D01*
X110818896Y-161801498D01*
X110772403Y-161747842D01*
X110762299Y-161677568D01*
X110791793Y-161612988D01*
X110819869Y-161588884D01*
X110961015Y-161500000D01*
X111149138Y-161334147D01*
X111308324Y-161140351D01*
X111434478Y-160923596D01*
X111524355Y-160689461D01*
X111532350Y-160651194D01*
X111574606Y-160448921D01*
X111575641Y-160443967D01*
X111576962Y-160414893D01*
X111582062Y-160302568D01*
X111587018Y-160193432D01*
X111583584Y-160163748D01*
X111565543Y-160007830D01*
X111558192Y-159944301D01*
X111555293Y-159934054D01*
X111491284Y-159707852D01*
X111491283Y-159707850D01*
X111489906Y-159702983D01*
X111487772Y-159698408D01*
X111487770Y-159698401D01*
X111386053Y-159480269D01*
X111386051Y-159480265D01*
X111383916Y-159475687D01*
X111352867Y-159430000D01*
X111245795Y-159272448D01*
X111245792Y-159272444D01*
X111242949Y-159268261D01*
X111144169Y-159163803D01*
X111074113Y-159089721D01*
X111070633Y-159086041D01*
X111062065Y-159079490D01*
X110875419Y-158936788D01*
X110875415Y-158936785D01*
X110871399Y-158933715D01*
X110747418Y-158867237D01*
X110654835Y-158817595D01*
X110650374Y-158815203D01*
X110645593Y-158813557D01*
X110645589Y-158813555D01*
X110418033Y-158735201D01*
X110413244Y-158733552D01*
X110309711Y-158715669D01*
X110170020Y-158691540D01*
X110170014Y-158691539D01*
X110166110Y-158690865D01*
X110162149Y-158690685D01*
X110162148Y-158690685D01*
X110137469Y-158689564D01*
X110137450Y-158689564D01*
X110136050Y-158689500D01*
X109961385Y-158689500D01*
X109958877Y-158689702D01*
X109958872Y-158689702D01*
X109779456Y-158704137D01*
X109779451Y-158704138D01*
X109774415Y-158704543D01*
X109769507Y-158705748D01*
X109769504Y-158705749D01*
X109573247Y-158753955D01*
X109530861Y-158764366D01*
X109526209Y-158766341D01*
X109526205Y-158766342D01*
X109325134Y-158851692D01*
X109300004Y-158862359D01*
X109230789Y-158905946D01*
X109101874Y-158987128D01*
X109087785Y-158996000D01*
X108899662Y-159161853D01*
X108740476Y-159355649D01*
X108614322Y-159572404D01*
X108524445Y-159806539D01*
X108523412Y-159811485D01*
X108523410Y-159811491D01*
X108490999Y-159966635D01*
X108473159Y-160052033D01*
X108461782Y-160302568D01*
X108490608Y-160551699D01*
X108491987Y-160556573D01*
X108491988Y-160556577D01*
X108547721Y-160753532D01*
X108558894Y-160793017D01*
X108561028Y-160797592D01*
X108561030Y-160797599D01*
X108656137Y-161001556D01*
X108664884Y-161020313D01*
X108667726Y-161024494D01*
X108667726Y-161024495D01*
X108803005Y-161223552D01*
X108803008Y-161223556D01*
X108805851Y-161227739D01*
X108809328Y-161231416D01*
X108809329Y-161231417D01*
X108909638Y-161337491D01*
X108978167Y-161409959D01*
X108982193Y-161413037D01*
X108982194Y-161413038D01*
X109173381Y-161559212D01*
X109173385Y-161559215D01*
X109177401Y-161562285D01*
X109181859Y-161564675D01*
X109181860Y-161564676D01*
X109218750Y-161584456D01*
X109269333Y-161634274D01*
X109284953Y-161703531D01*
X109260650Y-161770238D01*
X109204140Y-161813217D01*
X109159209Y-161821500D01*
X102658123Y-161821500D01*
X102590002Y-161801498D01*
X102544561Y-161748548D01*
X102544527Y-161748444D01*
X102518597Y-161703531D01*
X102461163Y-161604054D01*
X102449040Y-161583056D01*
X102321253Y-161441134D01*
X102166752Y-161328882D01*
X102160724Y-161326198D01*
X102160722Y-161326197D01*
X101998319Y-161253891D01*
X101998318Y-161253891D01*
X101992288Y-161251206D01*
X101898887Y-161231353D01*
X101811944Y-161212872D01*
X101811939Y-161212872D01*
X101805487Y-161211500D01*
X101614513Y-161211500D01*
X101608061Y-161212872D01*
X101608056Y-161212872D01*
X101521113Y-161231353D01*
X101427712Y-161251206D01*
X101421682Y-161253891D01*
X101421681Y-161253891D01*
X101259278Y-161326197D01*
X101259276Y-161326198D01*
X101253248Y-161328882D01*
X101247907Y-161332762D01*
X101247906Y-161332763D01*
X101219243Y-161353588D01*
X101152375Y-161377447D01*
X101083223Y-161361366D01*
X101033743Y-161310452D01*
X101020260Y-161235208D01*
X101022500Y-161218191D01*
X101022500Y-161218188D01*
X101023578Y-161210000D01*
X101019578Y-161179615D01*
X101018500Y-161163170D01*
X101018500Y-159476830D01*
X101019578Y-159460384D01*
X101023578Y-159430000D01*
X101013044Y-159349984D01*
X101023983Y-159279836D01*
X101071112Y-159226738D01*
X101139466Y-159207548D01*
X101170577Y-159211832D01*
X101246573Y-159232195D01*
X101246575Y-159232195D01*
X101251888Y-159233619D01*
X101479975Y-159253574D01*
X101708062Y-159233619D01*
X101713375Y-159232195D01*
X101713377Y-159232195D01*
X101923908Y-159175783D01*
X101923910Y-159175782D01*
X101929218Y-159174360D01*
X101947659Y-159165761D01*
X102131737Y-159079925D01*
X102131742Y-159079922D01*
X102136724Y-159077599D01*
X102210218Y-159026138D01*
X102798600Y-159026138D01*
X102807896Y-159038153D01*
X102859101Y-159074007D01*
X102868596Y-159079490D01*
X103066054Y-159171566D01*
X103076346Y-159175312D01*
X103286795Y-159231701D01*
X103297588Y-159233604D01*
X103514632Y-159252593D01*
X103525582Y-159252593D01*
X103742626Y-159233604D01*
X103753419Y-159231701D01*
X103963868Y-159175312D01*
X103974160Y-159171566D01*
X104171618Y-159079490D01*
X104181113Y-159074007D01*
X104233155Y-159037567D01*
X104241531Y-159027088D01*
X104234463Y-159013642D01*
X103532919Y-158312098D01*
X103518975Y-158304484D01*
X103517142Y-158304615D01*
X103510527Y-158308866D01*
X102805030Y-159014363D01*
X102798600Y-159026138D01*
X102210218Y-159026138D01*
X102318717Y-158950166D01*
X102319764Y-158949433D01*
X102319767Y-158949431D01*
X102324275Y-158946274D01*
X102486173Y-158784376D01*
X102501030Y-158763159D01*
X102563192Y-158674382D01*
X102617498Y-158596825D01*
X102619821Y-158591843D01*
X102619824Y-158591838D01*
X102707147Y-158404571D01*
X102732247Y-158368726D01*
X103148085Y-157952888D01*
X103155699Y-157938944D01*
X103155568Y-157937111D01*
X103151317Y-157930496D01*
X102732247Y-157511426D01*
X102707147Y-157475581D01*
X102619824Y-157288314D01*
X102619821Y-157288309D01*
X102617498Y-157283327D01*
X102515234Y-157137279D01*
X102489332Y-157100287D01*
X102489330Y-157100284D01*
X102486173Y-157095776D01*
X102324275Y-156933878D01*
X102319764Y-156930720D01*
X102315992Y-156927554D01*
X102276668Y-156868443D01*
X102275544Y-156797455D01*
X102312978Y-156737129D01*
X102377083Y-156706617D01*
X102407968Y-156705514D01*
X102494565Y-156713090D01*
X102494566Y-156713090D01*
X102500041Y-156713569D01*
X102505516Y-156713090D01*
X102505517Y-156713090D01*
X102662605Y-156699347D01*
X102732209Y-156713336D01*
X102783202Y-156762736D01*
X102798916Y-156837840D01*
X102797561Y-156850929D01*
X102805751Y-156866510D01*
X103507295Y-157568054D01*
X103521239Y-157575668D01*
X103523072Y-157575537D01*
X103529687Y-157571286D01*
X104235184Y-156865789D01*
X104242798Y-156851845D01*
X104241517Y-156833929D01*
X104256608Y-156764555D01*
X104306810Y-156714353D01*
X104378177Y-156699419D01*
X104534443Y-156713090D01*
X104534444Y-156713090D01*
X104539919Y-156713569D01*
X104545394Y-156713090D01*
X104545395Y-156713090D01*
X104631992Y-156705514D01*
X104701597Y-156719503D01*
X104752589Y-156768903D01*
X104768779Y-156838029D01*
X104745026Y-156904934D01*
X104723968Y-156927554D01*
X104720196Y-156930720D01*
X104715685Y-156933878D01*
X104553787Y-157095776D01*
X104550630Y-157100284D01*
X104550628Y-157100287D01*
X104524726Y-157137279D01*
X104422462Y-157283327D01*
X104420139Y-157288309D01*
X104420136Y-157288314D01*
X104332591Y-157476057D01*
X104307491Y-157511902D01*
X103892129Y-157927264D01*
X103884515Y-157941208D01*
X103884646Y-157943041D01*
X103888897Y-157949656D01*
X104307491Y-158368250D01*
X104332591Y-158404095D01*
X104420136Y-158591838D01*
X104420139Y-158591843D01*
X104422462Y-158596825D01*
X104476768Y-158674382D01*
X104538931Y-158763159D01*
X104553787Y-158784376D01*
X104715685Y-158946274D01*
X104720193Y-158949431D01*
X104720196Y-158949433D01*
X104721243Y-158950166D01*
X104903236Y-159077599D01*
X104908218Y-159079922D01*
X104908223Y-159079925D01*
X105092301Y-159165761D01*
X105110742Y-159174360D01*
X105116050Y-159175782D01*
X105116052Y-159175783D01*
X105326583Y-159232195D01*
X105326585Y-159232195D01*
X105331898Y-159233619D01*
X105559985Y-159253574D01*
X105788072Y-159233619D01*
X105793385Y-159232195D01*
X105793387Y-159232195D01*
X106003918Y-159175783D01*
X106003920Y-159175782D01*
X106009228Y-159174360D01*
X106027669Y-159165761D01*
X106211747Y-159079925D01*
X106211752Y-159079922D01*
X106216734Y-159077599D01*
X106398727Y-158950166D01*
X106399774Y-158949433D01*
X106399777Y-158949431D01*
X106404285Y-158946274D01*
X106566183Y-158784376D01*
X106581040Y-158763159D01*
X106694354Y-158601329D01*
X106697508Y-158596825D01*
X106699832Y-158591842D01*
X106699835Y-158591836D01*
X106700083Y-158591304D01*
X106700254Y-158591109D01*
X106702583Y-158587076D01*
X106703394Y-158587544D01*
X106747002Y-158538021D01*
X106797829Y-158519637D01*
X106836798Y-158514507D01*
X106836800Y-158514507D01*
X106844985Y-158513429D01*
X106928845Y-158478692D01*
X106988144Y-158454130D01*
X107111078Y-158359799D01*
X107129735Y-158335485D01*
X107140602Y-158323094D01*
X125304445Y-140159250D01*
X125316836Y-140148383D01*
X125334604Y-140134749D01*
X125341154Y-140129723D01*
X125435485Y-140006789D01*
X125470789Y-139921556D01*
X125494784Y-139863629D01*
X125515009Y-139710000D01*
X125511009Y-139679615D01*
X125509931Y-139663170D01*
X125509931Y-137024044D01*
X125529933Y-136955923D01*
X125546836Y-136934949D01*
X125686405Y-136795380D01*
X125748717Y-136761354D01*
X125819532Y-136766419D01*
G37*
%TD.AperFunction*%
%TA.AperFunction,Conductor*%
G36*
X154791501Y-79061957D02*
G01*
X154837994Y-79115613D01*
X154849380Y-79167955D01*
X154849380Y-79580743D01*
X154847634Y-79601649D01*
X154844309Y-79621411D01*
X154844156Y-79633950D01*
X154844846Y-79638766D01*
X154844846Y-79638772D01*
X154847971Y-79660597D01*
X154848636Y-79666105D01*
X154861069Y-79792347D01*
X154862866Y-79798271D01*
X154869331Y-79819584D01*
X154869964Y-79890578D01*
X154849583Y-79931723D01*
X154846113Y-79936352D01*
X154837576Y-79951946D01*
X154792422Y-80072394D01*
X154788795Y-80087649D01*
X154783269Y-80138514D01*
X154782900Y-80145328D01*
X154782900Y-81667885D01*
X154787375Y-81683124D01*
X154788765Y-81684329D01*
X154796448Y-81686000D01*
X157780784Y-81686000D01*
X157796023Y-81681525D01*
X157797228Y-81680135D01*
X157798899Y-81672452D01*
X157798899Y-80567955D01*
X157818901Y-80499834D01*
X157872557Y-80453341D01*
X157924899Y-80441955D01*
X160620600Y-80441955D01*
X160688721Y-80461957D01*
X160735214Y-80515613D01*
X160746600Y-80567955D01*
X160746600Y-82951422D01*
X160726598Y-83019543D01*
X160709695Y-83040517D01*
X155544737Y-88205475D01*
X155532347Y-88216342D01*
X155514708Y-88229877D01*
X155460188Y-88289794D01*
X155459842Y-88290174D01*
X155455743Y-88294469D01*
X155439802Y-88310410D01*
X155438007Y-88312557D01*
X155438005Y-88312559D01*
X155423068Y-88330423D01*
X155419600Y-88334398D01*
X155367288Y-88391888D01*
X155367281Y-88391897D01*
X155363515Y-88396036D01*
X155360538Y-88400782D01*
X155360537Y-88400783D01*
X155353987Y-88411225D01*
X155343911Y-88425093D01*
X155336004Y-88434549D01*
X155335997Y-88434559D01*
X155332406Y-88438854D01*
X155291118Y-88511240D01*
X155288413Y-88515759D01*
X155244136Y-88586344D01*
X155242043Y-88591549D01*
X155242042Y-88591552D01*
X155237448Y-88602979D01*
X155229988Y-88618411D01*
X155223880Y-88629119D01*
X155223876Y-88629128D01*
X155221101Y-88633993D01*
X155219232Y-88639270D01*
X155219230Y-88639275D01*
X155193285Y-88712542D01*
X155191420Y-88717478D01*
X155160344Y-88794783D01*
X155159208Y-88800270D01*
X155159207Y-88800272D01*
X155156706Y-88812349D01*
X155152101Y-88828844D01*
X155146111Y-88845759D01*
X155145204Y-88851298D01*
X155132643Y-88928001D01*
X155131683Y-88933180D01*
X155114787Y-89014767D01*
X155114521Y-89019379D01*
X155114521Y-89019380D01*
X155113185Y-89042548D01*
X155111738Y-89055653D01*
X155110714Y-89061910D01*
X155109806Y-89067457D01*
X155109894Y-89073070D01*
X155109894Y-89073072D01*
X155111484Y-89174264D01*
X155111500Y-89176243D01*
X155111500Y-93046522D01*
X155091498Y-93114643D01*
X155074595Y-93135617D01*
X151785617Y-96424595D01*
X151723305Y-96458621D01*
X151696522Y-96461500D01*
X138101395Y-96461500D01*
X138084948Y-96460422D01*
X138068483Y-96458254D01*
X138068479Y-96458254D01*
X138062913Y-96457521D01*
X137981512Y-96461360D01*
X137975576Y-96461500D01*
X137953001Y-96461500D01*
X137933981Y-96463197D01*
X137927011Y-96463819D01*
X137921749Y-96464178D01*
X137905568Y-96464941D01*
X137838512Y-96468104D01*
X137833053Y-96469354D01*
X137833048Y-96469355D01*
X137821030Y-96472108D01*
X137804101Y-96474789D01*
X137786238Y-96476383D01*
X137780822Y-96477865D01*
X137780820Y-96477865D01*
X137705867Y-96498370D01*
X137700749Y-96499656D01*
X137625000Y-96517005D01*
X137624998Y-96517006D01*
X137619530Y-96518258D01*
X137609030Y-96522737D01*
X137603033Y-96525294D01*
X137586858Y-96530927D01*
X137574961Y-96534182D01*
X137574957Y-96534183D01*
X137569549Y-96535663D01*
X137564483Y-96538079D01*
X137564484Y-96538079D01*
X137494333Y-96571539D01*
X137489524Y-96573710D01*
X137412891Y-96606397D01*
X137397890Y-96616251D01*
X137382975Y-96624654D01*
X137366782Y-96632378D01*
X137362231Y-96635648D01*
X137362228Y-96635650D01*
X137299119Y-96680999D01*
X137294768Y-96683989D01*
X137228990Y-96727196D01*
X137228982Y-96727202D01*
X137225126Y-96729735D01*
X137204338Y-96748257D01*
X137194061Y-96756490D01*
X137184346Y-96763471D01*
X137180444Y-96767498D01*
X137109937Y-96840255D01*
X137108548Y-96841665D01*
X130764737Y-103185475D01*
X130752347Y-103196342D01*
X130734708Y-103209877D01*
X130680188Y-103269794D01*
X130679842Y-103270174D01*
X130675743Y-103274469D01*
X130659802Y-103290410D01*
X130658007Y-103292557D01*
X130658005Y-103292559D01*
X130643068Y-103310423D01*
X130639600Y-103314398D01*
X130587288Y-103371888D01*
X130587281Y-103371897D01*
X130583515Y-103376036D01*
X130580538Y-103380782D01*
X130580537Y-103380783D01*
X130573987Y-103391225D01*
X130563911Y-103405093D01*
X130556004Y-103414549D01*
X130555997Y-103414559D01*
X130552406Y-103418854D01*
X130511118Y-103491240D01*
X130508413Y-103495759D01*
X130464136Y-103566344D01*
X130462043Y-103571549D01*
X130462042Y-103571552D01*
X130457448Y-103582979D01*
X130449988Y-103598411D01*
X130443880Y-103609119D01*
X130443876Y-103609128D01*
X130441101Y-103613993D01*
X130439232Y-103619270D01*
X130439230Y-103619275D01*
X130413285Y-103692542D01*
X130411420Y-103697478D01*
X130380344Y-103774783D01*
X130379208Y-103780270D01*
X130379207Y-103780272D01*
X130376706Y-103792349D01*
X130372101Y-103808844D01*
X130366111Y-103825759D01*
X130365204Y-103831298D01*
X130352643Y-103908001D01*
X130351683Y-103913180D01*
X130334787Y-103994767D01*
X130334521Y-103999379D01*
X130334521Y-103999380D01*
X130333185Y-104022548D01*
X130331738Y-104035653D01*
X130330714Y-104041910D01*
X130329806Y-104047457D01*
X130329894Y-104053070D01*
X130329894Y-104053072D01*
X130331484Y-104154264D01*
X130331500Y-104156243D01*
X130331500Y-113126522D01*
X130311498Y-113194643D01*
X130294595Y-113215617D01*
X129329891Y-114180321D01*
X129267579Y-114214347D01*
X129196764Y-114209282D01*
X129139928Y-114166735D01*
X129131677Y-114154226D01*
X129131428Y-114153794D01*
X129079040Y-114063056D01*
X129050306Y-114031143D01*
X128955675Y-113926045D01*
X128955674Y-113926044D01*
X128951253Y-113921134D01*
X128796752Y-113808882D01*
X128790724Y-113806198D01*
X128790722Y-113806197D01*
X128628319Y-113733891D01*
X128628318Y-113733891D01*
X128622288Y-113731206D01*
X128528887Y-113711353D01*
X128441944Y-113692872D01*
X128441939Y-113692872D01*
X128435487Y-113691500D01*
X128244513Y-113691500D01*
X128238061Y-113692872D01*
X128238056Y-113692872D01*
X128151113Y-113711353D01*
X128057712Y-113731206D01*
X128051682Y-113733891D01*
X128051681Y-113733891D01*
X127889278Y-113806197D01*
X127889276Y-113806198D01*
X127883248Y-113808882D01*
X127728747Y-113921134D01*
X127724326Y-113926044D01*
X127724325Y-113926045D01*
X127629695Y-114031143D01*
X127600960Y-114063056D01*
X127587253Y-114086797D01*
X127509930Y-114220725D01*
X127505473Y-114228444D01*
X127446458Y-114410072D01*
X127445768Y-114416633D01*
X127445768Y-114416635D01*
X127430864Y-114558444D01*
X127426496Y-114600000D01*
X127426551Y-114600523D01*
X127407184Y-114666481D01*
X127390281Y-114687455D01*
X125853140Y-116224595D01*
X125790828Y-116258621D01*
X125764045Y-116261500D01*
X125644513Y-116261500D01*
X125638061Y-116262872D01*
X125638056Y-116262872D01*
X125551112Y-116281353D01*
X125457712Y-116301206D01*
X125451682Y-116303891D01*
X125451681Y-116303891D01*
X125289278Y-116376197D01*
X125289276Y-116376198D01*
X125283248Y-116378882D01*
X125277907Y-116382762D01*
X125277906Y-116382763D01*
X125270474Y-116388163D01*
X125128747Y-116491134D01*
X125000960Y-116633056D01*
X124905473Y-116798444D01*
X124846458Y-116980072D01*
X124845768Y-116986633D01*
X124845768Y-116986635D01*
X124827806Y-117157540D01*
X124826496Y-117170000D01*
X124827186Y-117176565D01*
X124840755Y-117305663D01*
X124846458Y-117359928D01*
X124905473Y-117541556D01*
X124908776Y-117547278D01*
X124908777Y-117547279D01*
X124910028Y-117549446D01*
X125000960Y-117706944D01*
X125128747Y-117848866D01*
X125199625Y-117900362D01*
X125263518Y-117946783D01*
X125283248Y-117961118D01*
X125289278Y-117963803D01*
X125289282Y-117963805D01*
X125299711Y-117968448D01*
X125353809Y-118014426D01*
X125374460Y-118082353D01*
X125355110Y-118150661D01*
X125337561Y-118172651D01*
X104809802Y-138700410D01*
X104702406Y-138828854D01*
X104591101Y-139023993D01*
X104589232Y-139029270D01*
X104589230Y-139029275D01*
X104557450Y-139119020D01*
X104516111Y-139235759D01*
X104515204Y-139241298D01*
X104491322Y-139387137D01*
X104479806Y-139457457D01*
X104479894Y-139463070D01*
X104479894Y-139463073D01*
X104480065Y-139473938D01*
X104483335Y-139682081D01*
X104484415Y-139687586D01*
X104524051Y-139889612D01*
X104526585Y-139902529D01*
X104528623Y-139907755D01*
X104528624Y-139907760D01*
X104543465Y-139945825D01*
X104608190Y-140111835D01*
X104725570Y-140303382D01*
X104729305Y-140307575D01*
X104729308Y-140307578D01*
X104804073Y-140391492D01*
X104875015Y-140471115D01*
X105051801Y-140609734D01*
X105056760Y-140612359D01*
X105056759Y-140612359D01*
X105157697Y-140665802D01*
X105250341Y-140714854D01*
X105255687Y-140716560D01*
X105255689Y-140716561D01*
X105365925Y-140751742D01*
X105464357Y-140783156D01*
X105469914Y-140783888D01*
X105469916Y-140783888D01*
X105514116Y-140789707D01*
X105687086Y-140812479D01*
X105692685Y-140812215D01*
X105692687Y-140812215D01*
X105799287Y-140807187D01*
X105911488Y-140801896D01*
X106047347Y-140770780D01*
X106125005Y-140752994D01*
X106125009Y-140752993D01*
X106130470Y-140751742D01*
X106337109Y-140663603D01*
X106419117Y-140609734D01*
X106521020Y-140542797D01*
X106521024Y-140542794D01*
X106524874Y-140540265D01*
X106528312Y-140537202D01*
X106528317Y-140537198D01*
X106566152Y-140503487D01*
X106567509Y-140502278D01*
X126470089Y-120599699D01*
X143309653Y-120599699D01*
X143314342Y-120605963D01*
X143400718Y-120652862D01*
X143414744Y-120658415D01*
X143554093Y-120694972D01*
X143569044Y-120697019D01*
X143713087Y-120699283D01*
X143728091Y-120697706D01*
X143868525Y-120665542D01*
X143882710Y-120660435D01*
X143984154Y-120609414D01*
X143994460Y-120599783D01*
X143994432Y-120599699D01*
X145144653Y-120599699D01*
X145149342Y-120605963D01*
X145235718Y-120652862D01*
X145249744Y-120658415D01*
X145389093Y-120694972D01*
X145404044Y-120697019D01*
X145548087Y-120699283D01*
X145563091Y-120697706D01*
X145703525Y-120665542D01*
X145717710Y-120660435D01*
X145819154Y-120609414D01*
X145829460Y-120599783D01*
X145827248Y-120593180D01*
X145499212Y-120265144D01*
X145485268Y-120257530D01*
X145483435Y-120257661D01*
X145476820Y-120261912D01*
X145151413Y-120587319D01*
X145144653Y-120599699D01*
X143994432Y-120599699D01*
X143992248Y-120593180D01*
X143664212Y-120265144D01*
X143650268Y-120257530D01*
X143648435Y-120257661D01*
X143641820Y-120261912D01*
X143316413Y-120587319D01*
X143309653Y-120599699D01*
X126470089Y-120599699D01*
X128269788Y-118800000D01*
X138376496Y-118800000D01*
X138377186Y-118806565D01*
X138394588Y-118972132D01*
X138396458Y-118989928D01*
X138455473Y-119171556D01*
X138550960Y-119336944D01*
X138555378Y-119341851D01*
X138555379Y-119341852D01*
X138671450Y-119470762D01*
X138678747Y-119478866D01*
X138833248Y-119591118D01*
X138839276Y-119593802D01*
X138839278Y-119593803D01*
X139001681Y-119666109D01*
X139007712Y-119668794D01*
X139100247Y-119688463D01*
X139188056Y-119707128D01*
X139188061Y-119707128D01*
X139194513Y-119708500D01*
X139385487Y-119708500D01*
X139391939Y-119707128D01*
X139391944Y-119707128D01*
X139479753Y-119688463D01*
X139509223Y-119682199D01*
X142392153Y-119682199D01*
X142396842Y-119688463D01*
X142483218Y-119735362D01*
X142497244Y-119740915D01*
X142636593Y-119777472D01*
X142651544Y-119779519D01*
X142795587Y-119781783D01*
X142810591Y-119780206D01*
X142851774Y-119770774D01*
X142922641Y-119775064D01*
X142979939Y-119816986D01*
X143005476Y-119883231D01*
X143004825Y-119910040D01*
X142989594Y-120025728D01*
X142989437Y-120040809D01*
X143005246Y-120184005D01*
X143008692Y-120198694D01*
X143058199Y-120333983D01*
X143065049Y-120347426D01*
X143081870Y-120372459D01*
X143091854Y-120380758D01*
X143105945Y-120373523D01*
X143426456Y-120053012D01*
X143432834Y-120041332D01*
X143868730Y-120041332D01*
X143868861Y-120043165D01*
X143873112Y-120049780D01*
X144198782Y-120375450D01*
X144210792Y-120382008D01*
X144222533Y-120373038D01*
X144227813Y-120365690D01*
X144235078Y-120352475D01*
X144288813Y-120218807D01*
X144292719Y-120204228D01*
X144313507Y-120058162D01*
X144314131Y-120049958D01*
X144314190Y-120044321D01*
X144313738Y-120036106D01*
X144298511Y-119910282D01*
X144310184Y-119840252D01*
X144357865Y-119787650D01*
X144426416Y-119769177D01*
X144455569Y-119773269D01*
X144471588Y-119777471D01*
X144486544Y-119779519D01*
X144630587Y-119781783D01*
X144645591Y-119780206D01*
X144686774Y-119770774D01*
X144757641Y-119775064D01*
X144814939Y-119816986D01*
X144840476Y-119883231D01*
X144839825Y-119910040D01*
X144824594Y-120025728D01*
X144824437Y-120040809D01*
X144840246Y-120184005D01*
X144843692Y-120198694D01*
X144893199Y-120333983D01*
X144900049Y-120347426D01*
X144916870Y-120372459D01*
X144926854Y-120380758D01*
X144940945Y-120373523D01*
X145261456Y-120053012D01*
X145267834Y-120041332D01*
X145703730Y-120041332D01*
X145703861Y-120043165D01*
X145708112Y-120049780D01*
X146033782Y-120375450D01*
X146045792Y-120382008D01*
X146057533Y-120373038D01*
X146062813Y-120365690D01*
X146070078Y-120352475D01*
X146123813Y-120218807D01*
X146127719Y-120204228D01*
X146148507Y-120058162D01*
X146149131Y-120049958D01*
X146149190Y-120044321D01*
X146148738Y-120036106D01*
X146133511Y-119910282D01*
X146145184Y-119840252D01*
X146192865Y-119787650D01*
X146261416Y-119769177D01*
X146290569Y-119773269D01*
X146306588Y-119777471D01*
X146321544Y-119779519D01*
X146465587Y-119781783D01*
X146480591Y-119780206D01*
X146621025Y-119748042D01*
X146635210Y-119742935D01*
X146736654Y-119691914D01*
X146746960Y-119682283D01*
X146744748Y-119675680D01*
X146416712Y-119347644D01*
X146402768Y-119340030D01*
X146400935Y-119340161D01*
X146394320Y-119344412D01*
X146056101Y-119682631D01*
X146053824Y-119680354D01*
X146043652Y-119690322D01*
X146046031Y-119692701D01*
X145711344Y-120027388D01*
X145703730Y-120041332D01*
X145267834Y-120041332D01*
X145269070Y-120039068D01*
X145268939Y-120037235D01*
X145264688Y-120030620D01*
X144926513Y-119692445D01*
X144927245Y-119691713D01*
X144916410Y-119682828D01*
X144913906Y-119679838D01*
X144581712Y-119347644D01*
X144567768Y-119340030D01*
X144565935Y-119340161D01*
X144559320Y-119344412D01*
X144221101Y-119682631D01*
X144218824Y-119680354D01*
X144208652Y-119690322D01*
X144211031Y-119692701D01*
X143876344Y-120027388D01*
X143868730Y-120041332D01*
X143432834Y-120041332D01*
X143434070Y-120039068D01*
X143433939Y-120037235D01*
X143429688Y-120030620D01*
X143091513Y-119692445D01*
X143092245Y-119691713D01*
X143081410Y-119682828D01*
X143078906Y-119679838D01*
X142746712Y-119347644D01*
X142732768Y-119340030D01*
X142730935Y-119340161D01*
X142724320Y-119344412D01*
X142398913Y-119669819D01*
X142392153Y-119682199D01*
X139509223Y-119682199D01*
X139572288Y-119668794D01*
X139578319Y-119666109D01*
X139740722Y-119593803D01*
X139740724Y-119593802D01*
X139746752Y-119591118D01*
X139901253Y-119478866D01*
X139908550Y-119470762D01*
X140024621Y-119341852D01*
X140024622Y-119341851D01*
X140029040Y-119336944D01*
X140124527Y-119171556D01*
X140140204Y-119123309D01*
X142071937Y-119123309D01*
X142087746Y-119266505D01*
X142091192Y-119281194D01*
X142140699Y-119416483D01*
X142147549Y-119429926D01*
X142164370Y-119454959D01*
X142174354Y-119463258D01*
X142188445Y-119456023D01*
X142508956Y-119135512D01*
X142515334Y-119123832D01*
X142951230Y-119123832D01*
X142951361Y-119125665D01*
X142955612Y-119132280D01*
X143294094Y-119470762D01*
X143293410Y-119471446D01*
X143303687Y-119479827D01*
X143306597Y-119483265D01*
X143638588Y-119815256D01*
X143652532Y-119822870D01*
X143654365Y-119822739D01*
X143660980Y-119818488D01*
X143999524Y-119479944D01*
X144001860Y-119482280D01*
X144011935Y-119472457D01*
X144009473Y-119469995D01*
X144343956Y-119135512D01*
X144350334Y-119123832D01*
X144786230Y-119123832D01*
X144786361Y-119125665D01*
X144790612Y-119132280D01*
X145129094Y-119470762D01*
X145128410Y-119471446D01*
X145138687Y-119479827D01*
X145141597Y-119483265D01*
X145473588Y-119815256D01*
X145487532Y-119822870D01*
X145489365Y-119822739D01*
X145495980Y-119818488D01*
X145834524Y-119479944D01*
X145836860Y-119482280D01*
X145846935Y-119472457D01*
X145844473Y-119469995D01*
X146178956Y-119135512D01*
X146185334Y-119123832D01*
X146621230Y-119123832D01*
X146621361Y-119125665D01*
X146625612Y-119132280D01*
X146951282Y-119457950D01*
X146963292Y-119464508D01*
X146975033Y-119455538D01*
X146980313Y-119448190D01*
X146987578Y-119434975D01*
X147041313Y-119301307D01*
X147045219Y-119286728D01*
X147066007Y-119140662D01*
X147066631Y-119132458D01*
X147066690Y-119126821D01*
X147066238Y-119118606D01*
X147048512Y-118972132D01*
X147044916Y-118957489D01*
X146993989Y-118822714D01*
X146987006Y-118809357D01*
X146973792Y-118790131D01*
X146963538Y-118781788D01*
X146949799Y-118788933D01*
X146628844Y-119109888D01*
X146621230Y-119123832D01*
X146185334Y-119123832D01*
X146186570Y-119121568D01*
X146186439Y-119119735D01*
X146182188Y-119113120D01*
X145844013Y-118774945D01*
X145844745Y-118774213D01*
X145833910Y-118765328D01*
X145831406Y-118762338D01*
X145499212Y-118430144D01*
X145485268Y-118422530D01*
X145483435Y-118422661D01*
X145476820Y-118426912D01*
X145138601Y-118765131D01*
X145136324Y-118762854D01*
X145126152Y-118772822D01*
X145128531Y-118775201D01*
X144793844Y-119109888D01*
X144786230Y-119123832D01*
X144350334Y-119123832D01*
X144351570Y-119121568D01*
X144351439Y-119119735D01*
X144347188Y-119113120D01*
X144009013Y-118774945D01*
X144009745Y-118774213D01*
X143998910Y-118765328D01*
X143996406Y-118762338D01*
X143664212Y-118430144D01*
X143650268Y-118422530D01*
X143648435Y-118422661D01*
X143641820Y-118426912D01*
X143303601Y-118765131D01*
X143301324Y-118762854D01*
X143291152Y-118772822D01*
X143293531Y-118775201D01*
X142958844Y-119109888D01*
X142951230Y-119123832D01*
X142515334Y-119123832D01*
X142516570Y-119121568D01*
X142516439Y-119119735D01*
X142512188Y-119113120D01*
X142186825Y-118787757D01*
X142175016Y-118781308D01*
X142163042Y-118790556D01*
X142154112Y-118803262D01*
X142146983Y-118816556D01*
X142094651Y-118950780D01*
X142090899Y-118965394D01*
X142072094Y-119108228D01*
X142071937Y-119123309D01*
X140140204Y-119123309D01*
X140183542Y-118989928D01*
X140185413Y-118972132D01*
X140202814Y-118806565D01*
X140203504Y-118800000D01*
X140183542Y-118610072D01*
X140168407Y-118563492D01*
X142391293Y-118563492D01*
X142393664Y-118570332D01*
X142721088Y-118897756D01*
X142735032Y-118905370D01*
X142736865Y-118905239D01*
X142743480Y-118900988D01*
X143082024Y-118562444D01*
X143084360Y-118564780D01*
X143094435Y-118554957D01*
X143091973Y-118552495D01*
X143426456Y-118218012D01*
X143432834Y-118206332D01*
X143868730Y-118206332D01*
X143868861Y-118208165D01*
X143873112Y-118214780D01*
X144211594Y-118553262D01*
X144210910Y-118553946D01*
X144221187Y-118562327D01*
X144224097Y-118565765D01*
X144556088Y-118897756D01*
X144570032Y-118905370D01*
X144571865Y-118905239D01*
X144578480Y-118900988D01*
X144917024Y-118562444D01*
X144919360Y-118564780D01*
X144929435Y-118554957D01*
X144926973Y-118552495D01*
X145261456Y-118218012D01*
X145267834Y-118206332D01*
X145703730Y-118206332D01*
X145703861Y-118208165D01*
X145708112Y-118214780D01*
X146046594Y-118553262D01*
X146045910Y-118553946D01*
X146056187Y-118562327D01*
X146059097Y-118565765D01*
X146391088Y-118897756D01*
X146405032Y-118905370D01*
X146406865Y-118905239D01*
X146413480Y-118900988D01*
X146739212Y-118575256D01*
X146745972Y-118562876D01*
X146741462Y-118556852D01*
X146648149Y-118507445D01*
X146634072Y-118502042D01*
X146494346Y-118466945D01*
X146479374Y-118465054D01*
X146335310Y-118464300D01*
X146320334Y-118466032D01*
X146286921Y-118474054D01*
X146216013Y-118470507D01*
X146158279Y-118429187D01*
X146132049Y-118363213D01*
X146132764Y-118333782D01*
X146148507Y-118223163D01*
X146149131Y-118214958D01*
X146149190Y-118209321D01*
X146148738Y-118201106D01*
X146133511Y-118075282D01*
X146145184Y-118005252D01*
X146192865Y-117952650D01*
X146261416Y-117934177D01*
X146290569Y-117938269D01*
X146306588Y-117942471D01*
X146321544Y-117944519D01*
X146465587Y-117946783D01*
X146480591Y-117945206D01*
X146621025Y-117913042D01*
X146635210Y-117907935D01*
X146736654Y-117856914D01*
X146746960Y-117847283D01*
X146744748Y-117840680D01*
X146416712Y-117512644D01*
X146402768Y-117505030D01*
X146400935Y-117505161D01*
X146394320Y-117509412D01*
X146056101Y-117847631D01*
X146053824Y-117845354D01*
X146043652Y-117855322D01*
X146046031Y-117857701D01*
X145711344Y-118192388D01*
X145703730Y-118206332D01*
X145267834Y-118206332D01*
X145269070Y-118204068D01*
X145268939Y-118202235D01*
X145264688Y-118195620D01*
X144926513Y-117857445D01*
X144927245Y-117856713D01*
X144916410Y-117847828D01*
X144913906Y-117844838D01*
X144581712Y-117512644D01*
X144567768Y-117505030D01*
X144565935Y-117505161D01*
X144559320Y-117509412D01*
X144221101Y-117847631D01*
X144218824Y-117845354D01*
X144208652Y-117855322D01*
X144211031Y-117857701D01*
X143876344Y-118192388D01*
X143868730Y-118206332D01*
X143432834Y-118206332D01*
X143434070Y-118204068D01*
X143433939Y-118202235D01*
X143429688Y-118195620D01*
X143091513Y-117857445D01*
X143092245Y-117856713D01*
X143081410Y-117847828D01*
X143078906Y-117844838D01*
X142746712Y-117512644D01*
X142732768Y-117505030D01*
X142730935Y-117505161D01*
X142724320Y-117509412D01*
X142398913Y-117834819D01*
X142392153Y-117847199D01*
X142396842Y-117853463D01*
X142483218Y-117900362D01*
X142497244Y-117905915D01*
X142636593Y-117942472D01*
X142651544Y-117944519D01*
X142795587Y-117946783D01*
X142810591Y-117945206D01*
X142851774Y-117935774D01*
X142922641Y-117940064D01*
X142979939Y-117981986D01*
X143005476Y-118048231D01*
X143004825Y-118075040D01*
X142989594Y-118190728D01*
X142989437Y-118205809D01*
X143003904Y-118336848D01*
X142991498Y-118406752D01*
X142943269Y-118458852D01*
X142874528Y-118476607D01*
X142847971Y-118472879D01*
X142824349Y-118466946D01*
X142809374Y-118465054D01*
X142665310Y-118464300D01*
X142650334Y-118466032D01*
X142510235Y-118499667D01*
X142496111Y-118504920D01*
X142401495Y-118553755D01*
X142391293Y-118563492D01*
X140168407Y-118563492D01*
X140124527Y-118428444D01*
X140029040Y-118263056D01*
X139985733Y-118214958D01*
X139910864Y-118131808D01*
X139880146Y-118067801D01*
X139878500Y-118047498D01*
X139878500Y-117288309D01*
X142071937Y-117288309D01*
X142087746Y-117431505D01*
X142091192Y-117446194D01*
X142140699Y-117581483D01*
X142147549Y-117594926D01*
X142164370Y-117619959D01*
X142174354Y-117628258D01*
X142188445Y-117621023D01*
X142508956Y-117300512D01*
X142515334Y-117288832D01*
X142951230Y-117288832D01*
X142951361Y-117290665D01*
X142955612Y-117297280D01*
X143294094Y-117635762D01*
X143293410Y-117636446D01*
X143303687Y-117644827D01*
X143306597Y-117648265D01*
X143638588Y-117980256D01*
X143652532Y-117987870D01*
X143654365Y-117987739D01*
X143660980Y-117983488D01*
X143999524Y-117644944D01*
X144001860Y-117647280D01*
X144011935Y-117637457D01*
X144009473Y-117634995D01*
X144343956Y-117300512D01*
X144350334Y-117288832D01*
X144786230Y-117288832D01*
X144786361Y-117290665D01*
X144790612Y-117297280D01*
X145129094Y-117635762D01*
X145128410Y-117636446D01*
X145138687Y-117644827D01*
X145141597Y-117648265D01*
X145473588Y-117980256D01*
X145487532Y-117987870D01*
X145489365Y-117987739D01*
X145495980Y-117983488D01*
X145834524Y-117644944D01*
X145836860Y-117647280D01*
X145846935Y-117637457D01*
X145844473Y-117634995D01*
X146178956Y-117300512D01*
X146185334Y-117288832D01*
X146621230Y-117288832D01*
X146621361Y-117290665D01*
X146625612Y-117297280D01*
X146951282Y-117622950D01*
X146963292Y-117629508D01*
X146975033Y-117620538D01*
X146980313Y-117613190D01*
X146987578Y-117599975D01*
X147041313Y-117466307D01*
X147045219Y-117451728D01*
X147066007Y-117305662D01*
X147066631Y-117297458D01*
X147066690Y-117291821D01*
X147066238Y-117283606D01*
X147048512Y-117137132D01*
X147044916Y-117122489D01*
X146993989Y-116987714D01*
X146987006Y-116974357D01*
X146973792Y-116955131D01*
X146963538Y-116946788D01*
X146949799Y-116953933D01*
X146628844Y-117274888D01*
X146621230Y-117288832D01*
X146185334Y-117288832D01*
X146186570Y-117286568D01*
X146186439Y-117284735D01*
X146182188Y-117278120D01*
X145844013Y-116939945D01*
X145844745Y-116939213D01*
X145833910Y-116930328D01*
X145831406Y-116927338D01*
X145499212Y-116595144D01*
X145485268Y-116587530D01*
X145483435Y-116587661D01*
X145476820Y-116591912D01*
X145138601Y-116930131D01*
X145136324Y-116927854D01*
X145126152Y-116937822D01*
X145128531Y-116940201D01*
X144793844Y-117274888D01*
X144786230Y-117288832D01*
X144350334Y-117288832D01*
X144351570Y-117286568D01*
X144351439Y-117284735D01*
X144347188Y-117278120D01*
X144009013Y-116939945D01*
X144009745Y-116939213D01*
X143998910Y-116930328D01*
X143996406Y-116927338D01*
X143664212Y-116595144D01*
X143650268Y-116587530D01*
X143648435Y-116587661D01*
X143641820Y-116591912D01*
X143303601Y-116930131D01*
X143301324Y-116927854D01*
X143291152Y-116937822D01*
X143293531Y-116940201D01*
X142958844Y-117274888D01*
X142951230Y-117288832D01*
X142515334Y-117288832D01*
X142516570Y-117286568D01*
X142516439Y-117284735D01*
X142512188Y-117278120D01*
X142186825Y-116952757D01*
X142175016Y-116946308D01*
X142163042Y-116955556D01*
X142154112Y-116968262D01*
X142146983Y-116981556D01*
X142094651Y-117115780D01*
X142090899Y-117130394D01*
X142072094Y-117273228D01*
X142071937Y-117288309D01*
X139878500Y-117288309D01*
X139878500Y-116728492D01*
X142391293Y-116728492D01*
X142393664Y-116735332D01*
X142721088Y-117062756D01*
X142735032Y-117070370D01*
X142736865Y-117070239D01*
X142743480Y-117065988D01*
X143082024Y-116727444D01*
X143084360Y-116729780D01*
X143094435Y-116719957D01*
X143091973Y-116717495D01*
X143426456Y-116383012D01*
X143432834Y-116371332D01*
X143868730Y-116371332D01*
X143868861Y-116373165D01*
X143873112Y-116379780D01*
X144211594Y-116718262D01*
X144210910Y-116718946D01*
X144221187Y-116727327D01*
X144224097Y-116730765D01*
X144556088Y-117062756D01*
X144570032Y-117070370D01*
X144571865Y-117070239D01*
X144578480Y-117065988D01*
X144917024Y-116727444D01*
X144919360Y-116729780D01*
X144929435Y-116719957D01*
X144926973Y-116717495D01*
X145261456Y-116383012D01*
X145267834Y-116371332D01*
X145703730Y-116371332D01*
X145703861Y-116373165D01*
X145708112Y-116379780D01*
X146046594Y-116718262D01*
X146045910Y-116718946D01*
X146056187Y-116727327D01*
X146059097Y-116730765D01*
X146391088Y-117062756D01*
X146405032Y-117070370D01*
X146406865Y-117070239D01*
X146413480Y-117065988D01*
X146739212Y-116740256D01*
X146745972Y-116727876D01*
X146741462Y-116721852D01*
X146648149Y-116672445D01*
X146634072Y-116667042D01*
X146494346Y-116631945D01*
X146479374Y-116630054D01*
X146335310Y-116629300D01*
X146320334Y-116631032D01*
X146286921Y-116639054D01*
X146216013Y-116635507D01*
X146158279Y-116594187D01*
X146132049Y-116528213D01*
X146132764Y-116498782D01*
X146148507Y-116388163D01*
X146149131Y-116379958D01*
X146149190Y-116374321D01*
X146148738Y-116366106D01*
X146131012Y-116219632D01*
X146127416Y-116204989D01*
X146076489Y-116070214D01*
X146069506Y-116056857D01*
X146056292Y-116037631D01*
X146046038Y-116029288D01*
X146032299Y-116036433D01*
X145711344Y-116357388D01*
X145703730Y-116371332D01*
X145267834Y-116371332D01*
X145269070Y-116369068D01*
X145268939Y-116367235D01*
X145264688Y-116360620D01*
X144939325Y-116035257D01*
X144927516Y-116028808D01*
X144915542Y-116038056D01*
X144906612Y-116050762D01*
X144899483Y-116064056D01*
X144847151Y-116198280D01*
X144843399Y-116212894D01*
X144824594Y-116355728D01*
X144824437Y-116370809D01*
X144838904Y-116501848D01*
X144826498Y-116571752D01*
X144778269Y-116623852D01*
X144709528Y-116641607D01*
X144682971Y-116637879D01*
X144659349Y-116631946D01*
X144644374Y-116630054D01*
X144500310Y-116629300D01*
X144485334Y-116631032D01*
X144451921Y-116639054D01*
X144381013Y-116635507D01*
X144323279Y-116594187D01*
X144297049Y-116528213D01*
X144297764Y-116498782D01*
X144313507Y-116388163D01*
X144314131Y-116379958D01*
X144314190Y-116374321D01*
X144313738Y-116366106D01*
X144296012Y-116219632D01*
X144292416Y-116204989D01*
X144241489Y-116070214D01*
X144234506Y-116056857D01*
X144221292Y-116037631D01*
X144211038Y-116029288D01*
X144197299Y-116036433D01*
X143876344Y-116357388D01*
X143868730Y-116371332D01*
X143432834Y-116371332D01*
X143434070Y-116369068D01*
X143433939Y-116367235D01*
X143429688Y-116360620D01*
X143104325Y-116035257D01*
X143092516Y-116028808D01*
X143080542Y-116038056D01*
X143071612Y-116050762D01*
X143064483Y-116064056D01*
X143012151Y-116198280D01*
X143008399Y-116212894D01*
X142989594Y-116355728D01*
X142989437Y-116370809D01*
X143003904Y-116501848D01*
X142991498Y-116571752D01*
X142943269Y-116623852D01*
X142874528Y-116641607D01*
X142847971Y-116637879D01*
X142824349Y-116631946D01*
X142809374Y-116630054D01*
X142665310Y-116629300D01*
X142650334Y-116631032D01*
X142510235Y-116664667D01*
X142496111Y-116669920D01*
X142401495Y-116718755D01*
X142391293Y-116728492D01*
X139878500Y-116728492D01*
X139878500Y-116255955D01*
X139898502Y-116187834D01*
X139915405Y-116166860D01*
X140271273Y-115810992D01*
X143308793Y-115810992D01*
X143311164Y-115817832D01*
X143638588Y-116145256D01*
X143652532Y-116152870D01*
X143654365Y-116152739D01*
X143660980Y-116148488D01*
X143986712Y-115822756D01*
X143993136Y-115810992D01*
X145143793Y-115810992D01*
X145146164Y-115817832D01*
X145473588Y-116145256D01*
X145487532Y-116152870D01*
X145489365Y-116152739D01*
X145495980Y-116148488D01*
X145821712Y-115822756D01*
X145828472Y-115810376D01*
X145823962Y-115804352D01*
X145730649Y-115754945D01*
X145716572Y-115749542D01*
X145576846Y-115714445D01*
X145561874Y-115712554D01*
X145417810Y-115711800D01*
X145402834Y-115713532D01*
X145262735Y-115747167D01*
X145248611Y-115752420D01*
X145153995Y-115801255D01*
X145143793Y-115810992D01*
X143993136Y-115810992D01*
X143993472Y-115810376D01*
X143988962Y-115804352D01*
X143895649Y-115754945D01*
X143881572Y-115749542D01*
X143741846Y-115714445D01*
X143726874Y-115712554D01*
X143582810Y-115711800D01*
X143567834Y-115713532D01*
X143427735Y-115747167D01*
X143413611Y-115752420D01*
X143318995Y-115801255D01*
X143308793Y-115810992D01*
X140271273Y-115810992D01*
X142336859Y-113745405D01*
X142399171Y-113711380D01*
X142425954Y-113708500D01*
X142545487Y-113708500D01*
X142551939Y-113707128D01*
X142551944Y-113707128D01*
X142638888Y-113688647D01*
X142732288Y-113668794D01*
X142738319Y-113666109D01*
X142900722Y-113593803D01*
X142900724Y-113593802D01*
X142906752Y-113591118D01*
X142912923Y-113586635D01*
X142962157Y-113550864D01*
X143061253Y-113478866D01*
X143066953Y-113472536D01*
X143184621Y-113341852D01*
X143184622Y-113341851D01*
X143189040Y-113336944D01*
X143279408Y-113180422D01*
X143281223Y-113177279D01*
X143281224Y-113177278D01*
X143284527Y-113171556D01*
X143343542Y-112989928D01*
X143363504Y-112800000D01*
X143343542Y-112610072D01*
X143284527Y-112428444D01*
X143189040Y-112263056D01*
X143061253Y-112121134D01*
X142906752Y-112008882D01*
X142900724Y-112006198D01*
X142900722Y-112006197D01*
X142738319Y-111933891D01*
X142738318Y-111933891D01*
X142732288Y-111931206D01*
X142638888Y-111911353D01*
X142551944Y-111892872D01*
X142551939Y-111892872D01*
X142545487Y-111891500D01*
X142354513Y-111891500D01*
X142348061Y-111892872D01*
X142348056Y-111892872D01*
X142261113Y-111911353D01*
X142167712Y-111931206D01*
X142161682Y-111933891D01*
X142161681Y-111933891D01*
X141999278Y-112006197D01*
X141999276Y-112006198D01*
X141993248Y-112008882D01*
X141838747Y-112121134D01*
X141710960Y-112263056D01*
X141615473Y-112428444D01*
X141556458Y-112610072D01*
X141536496Y-112800000D01*
X141537186Y-112806565D01*
X141537186Y-112806567D01*
X141537940Y-112813739D01*
X141525171Y-112883578D01*
X141501726Y-112916009D01*
X138906982Y-115510753D01*
X138894591Y-115521620D01*
X138870277Y-115540277D01*
X138775946Y-115663211D01*
X138752538Y-115719723D01*
X138716647Y-115806370D01*
X138696422Y-115960000D01*
X138697500Y-115968188D01*
X138700422Y-115990384D01*
X138701500Y-116006830D01*
X138701500Y-118047498D01*
X138681498Y-118115619D01*
X138669136Y-118131808D01*
X138594268Y-118214958D01*
X138550960Y-118263056D01*
X138455473Y-118428444D01*
X138396458Y-118610072D01*
X138376496Y-118800000D01*
X128269788Y-118800000D01*
X132139788Y-114930000D01*
X136726496Y-114930000D01*
X136727186Y-114936565D01*
X136738625Y-115045397D01*
X136746458Y-115119928D01*
X136805473Y-115301556D01*
X136900960Y-115466944D01*
X137028747Y-115608866D01*
X137094527Y-115656658D01*
X137171461Y-115712554D01*
X137183248Y-115721118D01*
X137189276Y-115723802D01*
X137189278Y-115723803D01*
X137259225Y-115754945D01*
X137357712Y-115798794D01*
X137447278Y-115817832D01*
X137538056Y-115837128D01*
X137538061Y-115837128D01*
X137544513Y-115838500D01*
X137735487Y-115838500D01*
X137741939Y-115837128D01*
X137741944Y-115837128D01*
X137832722Y-115817832D01*
X137922288Y-115798794D01*
X138020775Y-115754945D01*
X138090722Y-115723803D01*
X138090724Y-115723802D01*
X138096752Y-115721118D01*
X138108540Y-115712554D01*
X138185473Y-115656658D01*
X138251253Y-115608866D01*
X138379040Y-115466944D01*
X138474527Y-115301556D01*
X138533542Y-115119928D01*
X138541376Y-115045397D01*
X138552814Y-114936565D01*
X138553504Y-114930000D01*
X138533542Y-114740072D01*
X138474527Y-114558444D01*
X138467462Y-114546206D01*
X138413504Y-114452749D01*
X138379040Y-114393056D01*
X138351933Y-114362950D01*
X138260864Y-114261808D01*
X138230146Y-114197801D01*
X138228500Y-114177498D01*
X138228500Y-111225955D01*
X138248502Y-111157834D01*
X138265405Y-111136860D01*
X140416860Y-108985405D01*
X140479172Y-108951379D01*
X140505955Y-108948500D01*
X140625487Y-108948500D01*
X140631939Y-108947128D01*
X140631944Y-108947128D01*
X140718888Y-108928647D01*
X140812288Y-108908794D01*
X140818319Y-108906109D01*
X140980722Y-108833803D01*
X140980724Y-108833802D01*
X140986752Y-108831118D01*
X141141253Y-108718866D01*
X141269040Y-108576944D01*
X141364527Y-108411556D01*
X141423542Y-108229928D01*
X141443504Y-108040000D01*
X141423542Y-107850072D01*
X141364527Y-107668444D01*
X141269040Y-107503056D01*
X141141253Y-107361134D01*
X140986752Y-107248882D01*
X140980724Y-107246198D01*
X140980722Y-107246197D01*
X140818319Y-107173891D01*
X140818318Y-107173891D01*
X140812288Y-107171206D01*
X140718887Y-107151353D01*
X140631944Y-107132872D01*
X140631939Y-107132872D01*
X140625487Y-107131500D01*
X140434513Y-107131500D01*
X140428058Y-107132872D01*
X140428049Y-107132873D01*
X140381645Y-107142737D01*
X140310854Y-107137336D01*
X140291053Y-107122366D01*
X140281578Y-107143112D01*
X140237602Y-107175707D01*
X140079281Y-107246195D01*
X140079274Y-107246199D01*
X140073248Y-107248882D01*
X139918747Y-107361134D01*
X139790960Y-107503056D01*
X139695473Y-107668444D01*
X139636458Y-107850072D01*
X139616496Y-108040000D01*
X139617186Y-108046565D01*
X139617186Y-108046567D01*
X139617940Y-108053739D01*
X139605171Y-108123578D01*
X139581726Y-108156009D01*
X137256982Y-110480753D01*
X137244591Y-110491620D01*
X137220277Y-110510277D01*
X137125946Y-110633211D01*
X137101384Y-110692510D01*
X137066647Y-110776370D01*
X137046422Y-110930000D01*
X137047500Y-110938188D01*
X137050422Y-110960384D01*
X137051500Y-110976830D01*
X137051500Y-114177498D01*
X137031498Y-114245619D01*
X137019136Y-114261808D01*
X136928068Y-114362950D01*
X136900960Y-114393056D01*
X136866496Y-114452749D01*
X136812539Y-114546206D01*
X136805473Y-114558444D01*
X136746458Y-114740072D01*
X136726496Y-114930000D01*
X132139788Y-114930000D01*
X132415263Y-114654525D01*
X132427654Y-114643657D01*
X132440848Y-114633533D01*
X132445292Y-114630123D01*
X132500158Y-114569826D01*
X132504257Y-114565531D01*
X132520199Y-114549589D01*
X132521996Y-114547440D01*
X132536933Y-114529576D01*
X132540401Y-114525601D01*
X132592712Y-114468112D01*
X132592719Y-114468103D01*
X132596485Y-114463964D01*
X132606014Y-114448773D01*
X132616089Y-114434907D01*
X132623996Y-114425451D01*
X132624003Y-114425441D01*
X132627594Y-114421146D01*
X132668887Y-114348752D01*
X132671592Y-114344232D01*
X132712886Y-114278404D01*
X132712888Y-114278401D01*
X132715864Y-114273656D01*
X132722552Y-114257021D01*
X132730012Y-114241589D01*
X132736120Y-114230881D01*
X132736124Y-114230872D01*
X132738899Y-114226007D01*
X132740768Y-114220730D01*
X132740770Y-114220725D01*
X132766715Y-114147458D01*
X132768580Y-114142522D01*
X132797566Y-114070416D01*
X132799656Y-114065217D01*
X132803294Y-114047650D01*
X132807899Y-114031156D01*
X132813889Y-114014241D01*
X132827355Y-113932009D01*
X132828317Y-113926819D01*
X132844277Y-113849754D01*
X132844278Y-113849750D01*
X132845213Y-113845233D01*
X132845479Y-113840622D01*
X132846815Y-113817452D01*
X132848262Y-113804347D01*
X132849286Y-113798090D01*
X132849286Y-113798083D01*
X132850194Y-113792542D01*
X132848853Y-113707128D01*
X132848516Y-113685706D01*
X132848500Y-113683727D01*
X132848500Y-106350400D01*
X139080400Y-106350400D01*
X139156600Y-106477400D01*
X139461400Y-106782200D01*
X139740800Y-106883800D01*
X139807046Y-106898521D01*
X139962670Y-106933105D01*
X139962675Y-106933106D01*
X139969400Y-106934600D01*
X140186354Y-106934600D01*
X140250331Y-106953385D01*
X140294256Y-106909347D01*
X140475006Y-106808930D01*
X140479848Y-106806376D01*
X140623849Y-106734376D01*
X140623853Y-106734374D01*
X140629800Y-106731400D01*
X140756800Y-106629800D01*
X140858400Y-106502800D01*
X140985400Y-106121800D01*
X140985400Y-105994800D01*
X140960000Y-105690000D01*
X140858400Y-105461400D01*
X140680600Y-105207400D01*
X140589443Y-105136500D01*
X140463883Y-105038842D01*
X140463882Y-105038842D01*
X140452000Y-105029600D01*
X140310165Y-105003006D01*
X140056088Y-104955366D01*
X140056085Y-104955366D01*
X140045600Y-104953400D01*
X139715400Y-105004200D01*
X139486800Y-105080400D01*
X139359800Y-105182000D01*
X139232800Y-105309000D01*
X139105800Y-105639200D01*
X139131581Y-105638079D01*
X139200506Y-105655103D01*
X139249286Y-105706688D01*
X139262433Y-105776457D01*
X139260462Y-105786301D01*
X139261023Y-105786402D01*
X139259727Y-105793605D01*
X139257605Y-105800611D01*
X139246653Y-105977142D01*
X139247893Y-105984358D01*
X139247893Y-105984360D01*
X139271510Y-106121800D01*
X139276606Y-106151458D01*
X139279472Y-106158192D01*
X139279472Y-106158194D01*
X139283512Y-106167688D01*
X139291779Y-106238202D01*
X139260612Y-106301992D01*
X139199904Y-106338804D01*
X139177620Y-106342622D01*
X139098458Y-106348955D01*
X139098457Y-106348955D01*
X139080400Y-106350400D01*
X132848500Y-106350400D01*
X132848500Y-104713477D01*
X132868502Y-104645356D01*
X132885405Y-104624382D01*
X138494383Y-99015405D01*
X138556695Y-98981379D01*
X138583478Y-98978500D01*
X152178604Y-98978500D01*
X152195051Y-98979578D01*
X152211516Y-98981746D01*
X152211520Y-98981746D01*
X152217086Y-98982479D01*
X152298489Y-98978640D01*
X152304424Y-98978500D01*
X152326999Y-98978500D01*
X152352989Y-98976181D01*
X152358248Y-98975822D01*
X152441488Y-98971896D01*
X152446947Y-98970646D01*
X152446952Y-98970645D01*
X152458970Y-98967892D01*
X152475899Y-98965211D01*
X152493762Y-98963617D01*
X152499178Y-98962135D01*
X152499180Y-98962135D01*
X152574133Y-98941630D01*
X152579251Y-98940344D01*
X152655000Y-98922995D01*
X152655002Y-98922994D01*
X152660470Y-98921742D01*
X152670970Y-98917263D01*
X152676967Y-98914706D01*
X152693142Y-98909073D01*
X152705039Y-98905818D01*
X152705043Y-98905817D01*
X152710451Y-98904337D01*
X152785667Y-98868461D01*
X152790476Y-98866290D01*
X152861949Y-98835804D01*
X152861950Y-98835804D01*
X152867109Y-98833603D01*
X152882110Y-98823749D01*
X152897025Y-98815346D01*
X152913218Y-98807622D01*
X152917769Y-98804352D01*
X152917772Y-98804350D01*
X152980881Y-98759001D01*
X152985232Y-98756011D01*
X153051010Y-98712804D01*
X153051018Y-98712798D01*
X153054874Y-98710265D01*
X153075662Y-98691743D01*
X153085939Y-98683510D01*
X153095654Y-98676529D01*
X153170063Y-98599745D01*
X153171452Y-98598335D01*
X157195263Y-94574525D01*
X157207654Y-94563657D01*
X157220848Y-94553533D01*
X157225292Y-94550123D01*
X157280158Y-94489826D01*
X157284257Y-94485531D01*
X157300199Y-94469589D01*
X157301996Y-94467440D01*
X157316933Y-94449576D01*
X157320401Y-94445601D01*
X157372712Y-94388112D01*
X157372719Y-94388103D01*
X157376485Y-94383964D01*
X157386014Y-94368773D01*
X157396089Y-94354907D01*
X157403996Y-94345451D01*
X157404003Y-94345441D01*
X157407594Y-94341146D01*
X157448887Y-94268752D01*
X157451592Y-94264232D01*
X157492886Y-94198404D01*
X157492888Y-94198401D01*
X157495864Y-94193656D01*
X157502552Y-94177021D01*
X157510012Y-94161589D01*
X157516120Y-94150881D01*
X157516124Y-94150872D01*
X157518899Y-94146007D01*
X157520768Y-94140730D01*
X157520770Y-94140725D01*
X157546715Y-94067458D01*
X157548580Y-94062522D01*
X157577566Y-93990416D01*
X157579656Y-93985217D01*
X157583294Y-93967650D01*
X157587899Y-93951156D01*
X157593889Y-93934241D01*
X157607355Y-93852009D01*
X157608317Y-93846819D01*
X157624277Y-93769754D01*
X157624278Y-93769750D01*
X157625213Y-93765233D01*
X157626815Y-93737452D01*
X157628262Y-93724347D01*
X157629286Y-93718090D01*
X157629286Y-93718083D01*
X157630194Y-93712542D01*
X157628516Y-93605705D01*
X157628500Y-93603727D01*
X157628500Y-89733477D01*
X157648502Y-89665356D01*
X157665405Y-89644382D01*
X163074383Y-84235405D01*
X163136695Y-84201379D01*
X163163478Y-84198500D01*
X163303234Y-84198500D01*
X163365416Y-84191745D01*
X163501805Y-84140615D01*
X163618361Y-84053261D01*
X163705715Y-83936705D01*
X163756845Y-83800316D01*
X163763600Y-83738134D01*
X163763600Y-80141866D01*
X163756845Y-80079684D01*
X163721905Y-79986482D01*
X163716722Y-79915676D01*
X163719312Y-79905677D01*
X163751893Y-79798273D01*
X163751894Y-79798269D01*
X163753689Y-79792351D01*
X163764247Y-79685154D01*
X163765386Y-79676599D01*
X163769645Y-79651287D01*
X163769645Y-79651282D01*
X163770451Y-79646494D01*
X163770604Y-79633955D01*
X163766653Y-79606367D01*
X163765380Y-79588504D01*
X163765380Y-79167955D01*
X163785382Y-79099834D01*
X163839038Y-79053341D01*
X163891380Y-79041955D01*
X167623380Y-79041955D01*
X167691501Y-79061957D01*
X167737994Y-79115613D01*
X167749380Y-79167955D01*
X167749380Y-84030743D01*
X167747634Y-84051649D01*
X167744309Y-84071411D01*
X167744156Y-84083950D01*
X167744846Y-84088766D01*
X167744846Y-84088772D01*
X167747971Y-84110597D01*
X167748636Y-84116105D01*
X167756261Y-84193525D01*
X167761069Y-84242347D01*
X167807271Y-84394658D01*
X167882300Y-84535028D01*
X167886231Y-84539818D01*
X167954447Y-84622939D01*
X167983272Y-84658063D01*
X168106307Y-84759035D01*
X168111770Y-84761955D01*
X168241221Y-84831148D01*
X168241223Y-84831149D01*
X168246677Y-84834064D01*
X168398988Y-84880266D01*
X168506198Y-84890824D01*
X168514733Y-84891960D01*
X168544846Y-84897026D01*
X168551201Y-84897104D01*
X168552526Y-84897120D01*
X168552530Y-84897120D01*
X168557385Y-84897179D01*
X168584973Y-84893228D01*
X168602835Y-84891955D01*
X172780557Y-84891955D01*
X172848678Y-84911957D01*
X172895171Y-84965613D01*
X172906412Y-85023996D01*
X172830382Y-86608029D01*
X172830235Y-86610561D01*
X172700456Y-88513531D01*
X172698719Y-88538996D01*
X172698524Y-88541480D01*
X172600967Y-89644382D01*
X172528208Y-90466931D01*
X172527959Y-90469455D01*
X172318921Y-92391041D01*
X172318625Y-92393526D01*
X172222745Y-93135617D01*
X172070945Y-94310504D01*
X172070595Y-94313017D01*
X171784371Y-96224649D01*
X171783970Y-96227154D01*
X171459326Y-98132596D01*
X171458875Y-98135092D01*
X171095936Y-100033623D01*
X171095435Y-100036109D01*
X171002722Y-100473189D01*
X170969020Y-100535677D01*
X170906884Y-100570024D01*
X170879464Y-100573044D01*
X152850000Y-100573044D01*
X152850000Y-139869377D01*
X152829998Y-139937498D01*
X152824159Y-139945824D01*
X152752393Y-140039848D01*
X152685041Y-140128089D01*
X152683482Y-140130090D01*
X151480024Y-141642663D01*
X151478425Y-141644632D01*
X150244742Y-143132696D01*
X150243103Y-143134632D01*
X148979763Y-144597501D01*
X148978086Y-144599404D01*
X147685530Y-146036568D01*
X147683815Y-146038437D01*
X146362566Y-147449314D01*
X146360813Y-147451148D01*
X146316276Y-147496827D01*
X145183366Y-148658794D01*
X145011481Y-148835087D01*
X145009699Y-148836879D01*
X143632691Y-150193461D01*
X143630928Y-150195163D01*
X143108663Y-150689362D01*
X142226920Y-151523719D01*
X142225060Y-151525443D01*
X140794622Y-152825439D01*
X140792728Y-152827127D01*
X139336380Y-154098087D01*
X139334452Y-154099735D01*
X139170848Y-154236810D01*
X138920842Y-154446277D01*
X138864336Y-154493620D01*
X138799275Y-154522037D01*
X138729178Y-154510768D01*
X138676302Y-154463391D01*
X138657433Y-154394947D01*
X138678564Y-154327168D01*
X138694321Y-154307944D01*
X145683014Y-147319250D01*
X145695405Y-147308383D01*
X145713173Y-147294749D01*
X145719723Y-147289723D01*
X145814054Y-147166789D01*
X145841219Y-147101206D01*
X145846900Y-147087492D01*
X145870193Y-147031258D01*
X145870193Y-147031257D01*
X145873353Y-147023629D01*
X145876005Y-147003489D01*
X145892500Y-146878188D01*
X145893578Y-146870000D01*
X145889578Y-146839615D01*
X145888500Y-146823170D01*
X145888500Y-131445955D01*
X145908502Y-131377834D01*
X145925405Y-131356860D01*
X150746860Y-126535405D01*
X150809172Y-126501379D01*
X150835955Y-126498500D01*
X150955487Y-126498500D01*
X150961939Y-126497128D01*
X150961944Y-126497128D01*
X151048888Y-126478647D01*
X151142288Y-126458794D01*
X151148319Y-126456109D01*
X151310722Y-126383803D01*
X151310724Y-126383802D01*
X151316752Y-126381118D01*
X151471253Y-126268866D01*
X151599040Y-126126944D01*
X151694527Y-125961556D01*
X151753542Y-125779928D01*
X151773504Y-125590000D01*
X151753542Y-125400072D01*
X151694527Y-125218444D01*
X151599040Y-125053056D01*
X151471253Y-124911134D01*
X151316752Y-124798882D01*
X151310724Y-124796198D01*
X151310722Y-124796197D01*
X151225887Y-124758426D01*
X151171791Y-124712445D01*
X151151142Y-124644518D01*
X151170495Y-124576210D01*
X151188041Y-124554224D01*
X151543018Y-124199247D01*
X151555409Y-124188380D01*
X151573173Y-124174749D01*
X151579723Y-124169723D01*
X151674054Y-124046789D01*
X151715984Y-123945560D01*
X151733352Y-123903630D01*
X151753578Y-123750000D01*
X151749578Y-123719617D01*
X151748500Y-123703171D01*
X151748500Y-115102502D01*
X151768502Y-115034381D01*
X151780864Y-115018192D01*
X151894621Y-114891852D01*
X151894622Y-114891851D01*
X151899040Y-114886944D01*
X151986069Y-114736206D01*
X151991223Y-114727279D01*
X151991224Y-114727278D01*
X151994527Y-114721556D01*
X152053542Y-114539928D01*
X152057984Y-114497670D01*
X152072814Y-114356565D01*
X152073504Y-114350000D01*
X152061389Y-114234729D01*
X152054232Y-114166635D01*
X152054232Y-114166633D01*
X152053542Y-114160072D01*
X151994527Y-113978444D01*
X151987462Y-113966206D01*
X151957314Y-113913990D01*
X151899040Y-113813056D01*
X151891199Y-113804347D01*
X151775675Y-113676045D01*
X151775674Y-113676044D01*
X151771253Y-113671134D01*
X151654951Y-113586635D01*
X151622094Y-113562763D01*
X151622093Y-113562762D01*
X151616752Y-113558882D01*
X151610724Y-113556198D01*
X151610722Y-113556197D01*
X151448319Y-113483891D01*
X151448318Y-113483891D01*
X151442288Y-113481206D01*
X151348888Y-113461353D01*
X151261944Y-113442872D01*
X151261939Y-113442872D01*
X151255487Y-113441500D01*
X151064513Y-113441500D01*
X151058058Y-113442872D01*
X151057668Y-113442913D01*
X150987830Y-113430140D01*
X150935984Y-113381637D01*
X150918500Y-113317603D01*
X150918500Y-104656830D01*
X150919578Y-104640384D01*
X150922500Y-104618188D01*
X150923578Y-104610000D01*
X150903353Y-104456371D01*
X150873703Y-104384791D01*
X150844054Y-104313211D01*
X150749723Y-104190277D01*
X150725405Y-104171617D01*
X150713014Y-104160750D01*
X149441439Y-102889175D01*
X147988273Y-101436008D01*
X147954248Y-101373698D01*
X147952060Y-101333741D01*
X147952814Y-101326569D01*
X147952814Y-101326565D01*
X147953504Y-101320000D01*
X147933542Y-101130072D01*
X147874527Y-100948444D01*
X147779040Y-100783056D01*
X147651253Y-100641134D01*
X147552157Y-100569136D01*
X147502094Y-100532763D01*
X147502093Y-100532762D01*
X147496752Y-100528882D01*
X147490724Y-100526198D01*
X147490722Y-100526197D01*
X147328319Y-100453891D01*
X147328318Y-100453891D01*
X147322288Y-100451206D01*
X147228888Y-100431353D01*
X147141944Y-100412872D01*
X147141939Y-100412872D01*
X147135487Y-100411500D01*
X146944513Y-100411500D01*
X146938061Y-100412872D01*
X146938056Y-100412872D01*
X146851112Y-100431353D01*
X146757712Y-100451206D01*
X146751682Y-100453891D01*
X146751681Y-100453891D01*
X146589278Y-100526197D01*
X146589276Y-100526198D01*
X146583248Y-100528882D01*
X146577907Y-100532762D01*
X146577906Y-100532763D01*
X146527843Y-100569136D01*
X146428747Y-100641134D01*
X146300960Y-100783056D01*
X146205473Y-100948444D01*
X146146458Y-101130072D01*
X146126496Y-101320000D01*
X146146458Y-101509928D01*
X146205473Y-101691556D01*
X146300960Y-101856944D01*
X146428747Y-101998866D01*
X146583248Y-102111118D01*
X146589276Y-102113802D01*
X146589278Y-102113803D01*
X146751681Y-102186109D01*
X146757712Y-102188794D01*
X146851112Y-102208647D01*
X146938056Y-102227128D01*
X146938061Y-102227128D01*
X146944513Y-102228500D01*
X147064045Y-102228500D01*
X147132166Y-102248502D01*
X147153140Y-102265405D01*
X149704595Y-104816859D01*
X149738620Y-104879171D01*
X149741500Y-104905954D01*
X149741500Y-114584070D01*
X149721498Y-114652191D01*
X149667842Y-114698684D01*
X149597568Y-114708788D01*
X149532988Y-114679294D01*
X149526405Y-114673165D01*
X148240222Y-113386982D01*
X148229355Y-113374591D01*
X148215724Y-113356827D01*
X148210698Y-113350277D01*
X148087764Y-113255946D01*
X148046307Y-113238774D01*
X148028465Y-113231384D01*
X148028463Y-113231383D01*
X147952236Y-113199808D01*
X147944605Y-113196647D01*
X147936418Y-113195569D01*
X147936417Y-113195569D01*
X147799164Y-113177500D01*
X147790975Y-113176422D01*
X147773580Y-113178712D01*
X147760591Y-113180422D01*
X147744145Y-113181500D01*
X145938718Y-113181500D01*
X145870597Y-113161498D01*
X145845082Y-113139810D01*
X145805673Y-113096041D01*
X145805664Y-113096033D01*
X145801253Y-113091134D01*
X145779671Y-113075454D01*
X145652094Y-112982763D01*
X145652093Y-112982762D01*
X145646752Y-112978882D01*
X145640724Y-112976198D01*
X145640722Y-112976197D01*
X145478319Y-112903891D01*
X145478318Y-112903891D01*
X145472288Y-112901206D01*
X145378887Y-112881353D01*
X145291944Y-112862872D01*
X145291939Y-112862872D01*
X145285487Y-112861500D01*
X145094513Y-112861500D01*
X145088061Y-112862872D01*
X145088056Y-112862872D01*
X145001113Y-112881353D01*
X144907712Y-112901206D01*
X144901682Y-112903891D01*
X144901681Y-112903891D01*
X144739278Y-112976197D01*
X144739276Y-112976198D01*
X144733248Y-112978882D01*
X144727907Y-112982762D01*
X144727906Y-112982763D01*
X144677843Y-113019136D01*
X144578747Y-113091134D01*
X144574329Y-113096041D01*
X144574325Y-113096045D01*
X144480897Y-113199808D01*
X144450960Y-113233056D01*
X144434841Y-113260975D01*
X144362091Y-113386982D01*
X144355473Y-113398444D01*
X144296458Y-113580072D01*
X144295768Y-113586633D01*
X144295768Y-113586635D01*
X144284602Y-113692872D01*
X144276496Y-113770000D01*
X144277186Y-113776565D01*
X144293524Y-113932009D01*
X144296458Y-113959928D01*
X144355473Y-114141556D01*
X144358776Y-114147278D01*
X144358777Y-114147279D01*
X144362788Y-114154226D01*
X144450960Y-114306944D01*
X144455378Y-114311851D01*
X144455379Y-114311852D01*
X144533644Y-114398774D01*
X144578747Y-114448866D01*
X144592994Y-114459217D01*
X144721691Y-114552721D01*
X144733248Y-114561118D01*
X144739276Y-114563802D01*
X144739278Y-114563803D01*
X144901681Y-114636109D01*
X144907712Y-114638794D01*
X145001112Y-114658647D01*
X145088056Y-114677128D01*
X145088061Y-114677128D01*
X145094513Y-114678500D01*
X145285487Y-114678500D01*
X145291939Y-114677128D01*
X145291944Y-114677128D01*
X145378888Y-114658647D01*
X145472288Y-114638794D01*
X145478319Y-114636109D01*
X145640722Y-114563803D01*
X145640724Y-114563802D01*
X145646752Y-114561118D01*
X145658310Y-114552721D01*
X145787006Y-114459217D01*
X145801253Y-114448866D01*
X145805664Y-114443967D01*
X145805673Y-114443959D01*
X145845082Y-114400190D01*
X145905528Y-114362950D01*
X145938718Y-114358500D01*
X146565635Y-114358500D01*
X146633756Y-114378502D01*
X146680249Y-114432158D01*
X146690945Y-114497670D01*
X146686496Y-114540000D01*
X146687186Y-114546565D01*
X146704918Y-114715271D01*
X146706458Y-114729928D01*
X146765473Y-114911556D01*
X146860960Y-115076944D01*
X146865378Y-115081851D01*
X146865379Y-115081852D01*
X146984325Y-115213955D01*
X146988747Y-115218866D01*
X147087843Y-115290864D01*
X147110437Y-115307279D01*
X147143248Y-115331118D01*
X147149276Y-115333802D01*
X147149278Y-115333803D01*
X147311681Y-115406109D01*
X147317712Y-115408794D01*
X147411112Y-115428647D01*
X147498056Y-115447128D01*
X147498061Y-115447128D01*
X147504513Y-115448500D01*
X147624045Y-115448500D01*
X147692166Y-115468502D01*
X147713140Y-115485405D01*
X147734595Y-115506860D01*
X147768621Y-115569172D01*
X147771500Y-115595955D01*
X147771500Y-120084046D01*
X147751498Y-120152167D01*
X147734595Y-120173141D01*
X145973140Y-121934595D01*
X145910828Y-121968621D01*
X145884045Y-121971500D01*
X131841753Y-121971500D01*
X131773632Y-121951498D01*
X131727139Y-121897842D01*
X131716443Y-121832330D01*
X131732814Y-121676565D01*
X131733504Y-121670000D01*
X131719552Y-121537251D01*
X131714232Y-121486635D01*
X131714232Y-121486633D01*
X131713542Y-121480072D01*
X131654527Y-121298444D01*
X131559040Y-121133056D01*
X131529104Y-121099808D01*
X131435675Y-120996045D01*
X131435671Y-120996041D01*
X131431253Y-120991134D01*
X131276752Y-120878882D01*
X131270724Y-120876198D01*
X131270722Y-120876197D01*
X131108319Y-120803891D01*
X131108318Y-120803891D01*
X131102288Y-120801206D01*
X131008888Y-120781353D01*
X130921944Y-120762872D01*
X130921939Y-120762872D01*
X130915487Y-120761500D01*
X130724513Y-120761500D01*
X130718061Y-120762872D01*
X130718056Y-120762872D01*
X130631112Y-120781353D01*
X130537712Y-120801206D01*
X130531682Y-120803891D01*
X130531681Y-120803891D01*
X130369278Y-120876197D01*
X130369276Y-120876198D01*
X130363248Y-120878882D01*
X130208747Y-120991134D01*
X130204336Y-120996033D01*
X130204327Y-120996041D01*
X130164918Y-121039810D01*
X130104472Y-121077050D01*
X130071282Y-121081500D01*
X129256829Y-121081500D01*
X129240383Y-121080422D01*
X129218188Y-121077500D01*
X129210000Y-121076422D01*
X129056370Y-121096648D01*
X129014440Y-121114016D01*
X128913211Y-121155946D01*
X128790277Y-121250277D01*
X128785251Y-121256827D01*
X128781125Y-121262204D01*
X128723787Y-121304071D01*
X128681163Y-121311500D01*
X128564513Y-121311500D01*
X128558061Y-121312872D01*
X128558056Y-121312872D01*
X128471113Y-121331353D01*
X128377712Y-121351206D01*
X128371682Y-121353891D01*
X128371681Y-121353891D01*
X128209278Y-121426197D01*
X128209276Y-121426198D01*
X128203248Y-121428882D01*
X128048747Y-121541134D01*
X128044326Y-121546044D01*
X128044325Y-121546045D01*
X127926805Y-121676565D01*
X127920960Y-121683056D01*
X127917659Y-121688774D01*
X127847989Y-121809446D01*
X127825473Y-121848444D01*
X127766458Y-122030072D01*
X127746496Y-122220000D01*
X127766458Y-122409928D01*
X127825473Y-122591556D01*
X127828776Y-122597278D01*
X127828777Y-122597279D01*
X127857042Y-122646235D01*
X127920960Y-122756944D01*
X127925378Y-122761851D01*
X127925379Y-122761852D01*
X128044325Y-122893955D01*
X128048747Y-122898866D01*
X128203248Y-123011118D01*
X128209279Y-123013803D01*
X128209284Y-123013806D01*
X128238757Y-123026928D01*
X128292854Y-123072907D01*
X128313504Y-123140834D01*
X128294152Y-123209142D01*
X128276605Y-123231130D01*
X117683140Y-133824595D01*
X117620828Y-133858621D01*
X117594045Y-133861500D01*
X117474513Y-133861500D01*
X117468061Y-133862872D01*
X117468056Y-133862872D01*
X117382218Y-133881118D01*
X117287712Y-133901206D01*
X117281682Y-133903891D01*
X117281681Y-133903891D01*
X117119278Y-133976197D01*
X117119276Y-133976198D01*
X117113248Y-133978882D01*
X117107907Y-133982762D01*
X117107906Y-133982763D01*
X117086246Y-133998500D01*
X116958747Y-134091134D01*
X116954326Y-134096044D01*
X116954325Y-134096045D01*
X116845095Y-134217358D01*
X116830960Y-134233056D01*
X116735473Y-134398444D01*
X116676458Y-134580072D01*
X116675768Y-134586633D01*
X116675768Y-134586635D01*
X116665280Y-134686422D01*
X116656496Y-134770000D01*
X116657186Y-134776565D01*
X116666302Y-134863295D01*
X116676458Y-134959928D01*
X116735473Y-135141556D01*
X116830960Y-135306944D01*
X116835378Y-135311851D01*
X116835379Y-135311852D01*
X116868621Y-135348771D01*
X116958747Y-135448866D01*
X117012814Y-135488148D01*
X117092395Y-135545967D01*
X117113248Y-135561118D01*
X117119276Y-135563802D01*
X117119278Y-135563803D01*
X117281681Y-135636109D01*
X117287712Y-135638794D01*
X117380157Y-135658444D01*
X117468056Y-135677128D01*
X117468061Y-135677128D01*
X117474513Y-135678500D01*
X117665487Y-135678500D01*
X117671939Y-135677128D01*
X117671944Y-135677128D01*
X117759843Y-135658444D01*
X117852288Y-135638794D01*
X117858319Y-135636109D01*
X118020722Y-135563803D01*
X118020724Y-135563802D01*
X118026752Y-135561118D01*
X118047606Y-135545967D01*
X118127186Y-135488148D01*
X118181253Y-135448866D01*
X118271379Y-135348771D01*
X118304621Y-135311852D01*
X118304622Y-135311851D01*
X118309040Y-135306944D01*
X118404527Y-135141556D01*
X118463542Y-134959928D01*
X118473699Y-134863295D01*
X118482814Y-134776565D01*
X118483504Y-134770000D01*
X118482060Y-134756261D01*
X118494829Y-134686422D01*
X118518274Y-134653991D01*
X129986859Y-123185405D01*
X130049171Y-123151379D01*
X130075954Y-123148500D01*
X130545046Y-123148500D01*
X130613167Y-123168502D01*
X130659660Y-123222158D01*
X130669764Y-123292432D01*
X130640270Y-123357012D01*
X130634141Y-123363595D01*
X125253890Y-128743845D01*
X120643140Y-133354595D01*
X120580828Y-133388621D01*
X120554045Y-133391500D01*
X120434513Y-133391500D01*
X120428061Y-133392872D01*
X120428056Y-133392872D01*
X120341112Y-133411353D01*
X120247712Y-133431206D01*
X120241682Y-133433891D01*
X120241681Y-133433891D01*
X120079278Y-133506197D01*
X120079276Y-133506198D01*
X120073248Y-133508882D01*
X119918747Y-133621134D01*
X119914326Y-133626044D01*
X119914325Y-133626045D01*
X119800773Y-133752158D01*
X119790960Y-133763056D01*
X119787659Y-133768774D01*
X119721247Y-133883803D01*
X119695473Y-133928444D01*
X119636458Y-134110072D01*
X119635768Y-134116633D01*
X119635768Y-134116635D01*
X119634116Y-134132357D01*
X119616496Y-134300000D01*
X119617186Y-134306565D01*
X119629952Y-134428023D01*
X119636458Y-134489928D01*
X119695473Y-134671556D01*
X119790960Y-134836944D01*
X119795378Y-134841851D01*
X119795379Y-134841852D01*
X119817113Y-134865990D01*
X119918747Y-134978866D01*
X120017843Y-135050864D01*
X120048786Y-135073345D01*
X120073248Y-135091118D01*
X120079276Y-135093802D01*
X120079278Y-135093803D01*
X120220445Y-135156654D01*
X120247712Y-135168794D01*
X120341112Y-135188647D01*
X120428056Y-135207128D01*
X120428061Y-135207128D01*
X120434513Y-135208500D01*
X120625487Y-135208500D01*
X120631939Y-135207128D01*
X120631944Y-135207128D01*
X120718888Y-135188647D01*
X120812288Y-135168794D01*
X120839555Y-135156654D01*
X120980722Y-135093803D01*
X120980724Y-135093802D01*
X120986752Y-135091118D01*
X121011215Y-135073345D01*
X121042157Y-135050864D01*
X121141253Y-134978866D01*
X121242887Y-134865990D01*
X121264621Y-134841852D01*
X121264622Y-134841851D01*
X121269040Y-134836944D01*
X121364527Y-134671556D01*
X121423542Y-134489928D01*
X121430049Y-134428023D01*
X121442814Y-134306565D01*
X121443504Y-134300000D01*
X121442060Y-134286261D01*
X121454829Y-134216422D01*
X121478274Y-134183991D01*
X122506937Y-133155328D01*
X122569249Y-133121302D01*
X122640064Y-133126367D01*
X122696900Y-133168914D01*
X122721342Y-133231252D01*
X122726458Y-133279928D01*
X122785473Y-133461556D01*
X122788776Y-133467278D01*
X122788777Y-133467279D01*
X122812797Y-133508882D01*
X122880960Y-133626944D01*
X122885378Y-133631851D01*
X122885379Y-133631852D01*
X122993703Y-133752158D01*
X123008747Y-133768866D01*
X123070091Y-133813435D01*
X123138135Y-133862872D01*
X123163248Y-133881118D01*
X123169276Y-133883802D01*
X123169278Y-133883803D01*
X123331681Y-133956109D01*
X123337712Y-133958794D01*
X123430421Y-133978500D01*
X123518056Y-133997128D01*
X123518061Y-133997128D01*
X123524513Y-133998500D01*
X123715487Y-133998500D01*
X123721939Y-133997128D01*
X123721944Y-133997128D01*
X123809579Y-133978500D01*
X123902288Y-133958794D01*
X123908319Y-133956109D01*
X124070722Y-133883803D01*
X124070724Y-133883802D01*
X124076752Y-133881118D01*
X124101866Y-133862872D01*
X124209671Y-133784546D01*
X124231253Y-133768866D01*
X124235664Y-133763967D01*
X124235673Y-133763959D01*
X124275082Y-133720190D01*
X124335528Y-133682950D01*
X124368718Y-133678500D01*
X125125035Y-133678500D01*
X125193156Y-133698502D01*
X125239649Y-133752158D01*
X125249753Y-133822432D01*
X125220259Y-133887012D01*
X125214130Y-133893595D01*
X105003358Y-154104367D01*
X104941046Y-154138393D01*
X104881652Y-154136979D01*
X104773321Y-154107952D01*
X104773319Y-154107952D01*
X104768006Y-154106528D01*
X104539919Y-154086573D01*
X104311832Y-154106528D01*
X104306519Y-154107952D01*
X104306517Y-154107952D01*
X104095986Y-154164364D01*
X104095984Y-154164365D01*
X104090676Y-154165787D01*
X104085695Y-154168110D01*
X104085694Y-154168110D01*
X103888157Y-154260222D01*
X103888152Y-154260225D01*
X103883170Y-154262548D01*
X103818338Y-154307944D01*
X103700130Y-154390714D01*
X103700127Y-154390716D01*
X103695619Y-154393873D01*
X103609075Y-154480417D01*
X103546763Y-154514443D01*
X103475948Y-154509378D01*
X103430885Y-154480417D01*
X103344341Y-154393873D01*
X103339833Y-154390716D01*
X103339830Y-154390714D01*
X103221622Y-154307944D01*
X103156790Y-154262548D01*
X103151808Y-154260225D01*
X103151803Y-154260222D01*
X102954266Y-154168110D01*
X102954265Y-154168110D01*
X102949284Y-154165787D01*
X102943976Y-154164365D01*
X102943974Y-154164364D01*
X102733443Y-154107952D01*
X102733441Y-154107952D01*
X102728128Y-154106528D01*
X102500041Y-154086573D01*
X102271954Y-154106528D01*
X102266641Y-154107952D01*
X102266639Y-154107952D01*
X102056108Y-154164364D01*
X102056106Y-154164365D01*
X102050798Y-154165787D01*
X102045817Y-154168110D01*
X102045816Y-154168110D01*
X101848279Y-154260222D01*
X101848274Y-154260225D01*
X101843292Y-154262548D01*
X101778460Y-154307944D01*
X101660252Y-154390714D01*
X101660249Y-154390716D01*
X101655741Y-154393873D01*
X101493843Y-154555771D01*
X101362518Y-154743322D01*
X101360195Y-154748304D01*
X101360192Y-154748309D01*
X101288759Y-154901500D01*
X101265757Y-154950828D01*
X101264335Y-154956136D01*
X101264334Y-154956138D01*
X101239167Y-155050062D01*
X101206498Y-155171984D01*
X101186543Y-155400071D01*
X101206498Y-155628158D01*
X101265757Y-155849314D01*
X101268080Y-155854295D01*
X101268080Y-155854296D01*
X101360192Y-156051833D01*
X101360195Y-156051838D01*
X101362518Y-156056820D01*
X101425101Y-156146197D01*
X101475813Y-156218621D01*
X101493843Y-156244371D01*
X101655741Y-156406269D01*
X101660252Y-156409427D01*
X101664024Y-156412593D01*
X101703348Y-156471704D01*
X101704472Y-156542692D01*
X101667038Y-156603018D01*
X101602933Y-156633530D01*
X101572048Y-156634633D01*
X101485451Y-156627057D01*
X101485450Y-156627057D01*
X101479975Y-156626578D01*
X101251888Y-156646533D01*
X101246575Y-156647957D01*
X101246573Y-156647957D01*
X101036042Y-156704369D01*
X101036040Y-156704370D01*
X101030732Y-156705792D01*
X101025751Y-156708115D01*
X101025750Y-156708115D01*
X100828213Y-156800227D01*
X100828208Y-156800230D01*
X100823226Y-156802553D01*
X100754138Y-156850929D01*
X100640186Y-156930719D01*
X100640183Y-156930721D01*
X100635675Y-156933878D01*
X100473777Y-157095776D01*
X100470620Y-157100284D01*
X100470618Y-157100287D01*
X100444716Y-157137279D01*
X100342452Y-157283327D01*
X100340129Y-157288309D01*
X100340126Y-157288314D01*
X100248014Y-157485851D01*
X100245691Y-157490833D01*
X100244269Y-157496141D01*
X100244268Y-157496143D01*
X100187856Y-157706674D01*
X100186432Y-157711989D01*
X100166477Y-157940076D01*
X100166956Y-157945551D01*
X100174094Y-158027136D01*
X100160105Y-158096741D01*
X100110706Y-158147733D01*
X100041580Y-158163924D01*
X99974674Y-158140172D01*
X99959478Y-158127213D01*
X99875405Y-158043140D01*
X99841379Y-157980828D01*
X99838500Y-157954045D01*
X99838500Y-151432502D01*
X99858502Y-151364381D01*
X99870864Y-151348192D01*
X99984621Y-151221852D01*
X99984622Y-151221851D01*
X99989040Y-151216944D01*
X100084527Y-151051556D01*
X100143542Y-150869928D01*
X100157393Y-150738148D01*
X100162814Y-150686565D01*
X100163504Y-150680000D01*
X100154807Y-150597251D01*
X100144232Y-150496635D01*
X100144232Y-150496633D01*
X100143542Y-150490072D01*
X100084527Y-150308444D01*
X99989040Y-150143056D01*
X99945769Y-150094998D01*
X99865675Y-150006045D01*
X99865674Y-150006044D01*
X99861253Y-150001134D01*
X99706752Y-149888882D01*
X99700724Y-149886198D01*
X99700722Y-149886197D01*
X99538319Y-149813891D01*
X99538318Y-149813891D01*
X99532288Y-149811206D01*
X99425202Y-149788444D01*
X99351944Y-149772872D01*
X99351939Y-149772872D01*
X99345487Y-149771500D01*
X99154513Y-149771500D01*
X99148061Y-149772872D01*
X99148056Y-149772872D01*
X99074798Y-149788444D01*
X98967712Y-149811206D01*
X98961682Y-149813891D01*
X98961681Y-149813891D01*
X98799278Y-149886197D01*
X98799276Y-149886198D01*
X98793248Y-149888882D01*
X98638747Y-150001134D01*
X98634326Y-150006044D01*
X98634325Y-150006045D01*
X98513375Y-150140374D01*
X98452929Y-150177614D01*
X98381946Y-150176262D01*
X98322961Y-150136749D01*
X98299907Y-150095001D01*
X98294527Y-150078444D01*
X98199040Y-149913056D01*
X98078554Y-149779242D01*
X98075675Y-149776045D01*
X98075674Y-149776044D01*
X98071253Y-149771134D01*
X97916752Y-149658882D01*
X97910724Y-149656198D01*
X97910722Y-149656197D01*
X97748319Y-149583891D01*
X97748318Y-149583891D01*
X97742288Y-149581206D01*
X97648888Y-149561353D01*
X97561944Y-149542872D01*
X97561939Y-149542872D01*
X97555487Y-149541500D01*
X97364513Y-149541500D01*
X97358061Y-149542872D01*
X97358056Y-149542872D01*
X97271112Y-149561353D01*
X97177712Y-149581206D01*
X97171682Y-149583891D01*
X97171681Y-149583891D01*
X97009278Y-149656197D01*
X97009276Y-149656198D01*
X97003248Y-149658882D01*
X96848747Y-149771134D01*
X96844326Y-149776044D01*
X96844325Y-149776045D01*
X96841447Y-149779242D01*
X96720960Y-149913056D01*
X96625473Y-150078444D01*
X96566458Y-150260072D01*
X96565768Y-150266633D01*
X96565768Y-150266635D01*
X96554602Y-150372872D01*
X96546496Y-150450000D01*
X96547186Y-150456565D01*
X96562381Y-150601134D01*
X96566458Y-150639928D01*
X96625473Y-150821556D01*
X96720960Y-150986944D01*
X96725378Y-150991851D01*
X96725379Y-150991852D01*
X96839136Y-151118192D01*
X96869854Y-151182199D01*
X96871500Y-151202502D01*
X96871500Y-157133170D01*
X96870422Y-157149615D01*
X96866422Y-157180000D01*
X96867500Y-157188189D01*
X96882464Y-157301852D01*
X96886647Y-157333630D01*
X96919080Y-157411928D01*
X96945946Y-157476789D01*
X97040277Y-157599723D01*
X97046827Y-157604749D01*
X97064591Y-157618380D01*
X97076974Y-157629239D01*
X97932156Y-158484421D01*
X97966180Y-158546731D01*
X97961116Y-158617546D01*
X97918569Y-158674382D01*
X97853165Y-158699108D01*
X97790657Y-158704137D01*
X97790653Y-158704138D01*
X97785615Y-158704543D01*
X97780707Y-158705748D01*
X97780704Y-158705749D01*
X97584447Y-158753955D01*
X97542061Y-158764366D01*
X97537409Y-158766341D01*
X97537405Y-158766342D01*
X97336334Y-158851692D01*
X97311204Y-158862359D01*
X97241989Y-158905946D01*
X97113074Y-158987128D01*
X97098985Y-158996000D01*
X97078974Y-159013642D01*
X97067325Y-159023912D01*
X97002999Y-159053957D01*
X96932642Y-159044456D01*
X96878590Y-158998424D01*
X96858000Y-158929398D01*
X96858000Y-158857668D01*
X96857715Y-158851692D01*
X96843529Y-158703006D01*
X96841270Y-158691272D01*
X96785128Y-158499901D01*
X96780698Y-158488825D01*
X96689381Y-158311522D01*
X96682931Y-158301476D01*
X96559738Y-158144643D01*
X96551501Y-158135994D01*
X96400877Y-158005288D01*
X96391153Y-157998353D01*
X96218533Y-157898490D01*
X96207669Y-157893516D01*
X96019274Y-157828094D01*
X96007675Y-157825267D01*
X95996437Y-157823637D01*
X95931892Y-157794066D01*
X95893580Y-157734293D01*
X95893666Y-157663297D01*
X95932122Y-157603617D01*
X95963271Y-157583834D01*
X96030719Y-157553805D01*
X96030726Y-157553801D01*
X96036752Y-157551118D01*
X96061471Y-157533159D01*
X96126584Y-157485851D01*
X96191253Y-157438866D01*
X96226035Y-157400237D01*
X96314621Y-157301852D01*
X96314622Y-157301851D01*
X96319040Y-157296944D01*
X96414527Y-157131556D01*
X96473542Y-156949928D01*
X96474586Y-156940000D01*
X96492814Y-156766565D01*
X96493504Y-156760000D01*
X96488624Y-156713569D01*
X96474232Y-156576635D01*
X96474232Y-156576633D01*
X96473542Y-156570072D01*
X96414527Y-156388444D01*
X96393195Y-156351495D01*
X96341024Y-156261134D01*
X96319040Y-156223056D01*
X96191253Y-156081134D01*
X96036752Y-155968882D01*
X96030724Y-155966198D01*
X96030722Y-155966197D01*
X95868319Y-155893891D01*
X95868318Y-155893891D01*
X95862288Y-155891206D01*
X95768888Y-155871353D01*
X95681944Y-155852872D01*
X95681939Y-155852872D01*
X95675487Y-155851500D01*
X95484513Y-155851500D01*
X95478061Y-155852872D01*
X95478056Y-155852872D01*
X95391112Y-155871353D01*
X95297712Y-155891206D01*
X95291682Y-155893891D01*
X95291681Y-155893891D01*
X95129278Y-155966197D01*
X95129276Y-155966198D01*
X95123248Y-155968882D01*
X95117907Y-155972762D01*
X95117906Y-155972763D01*
X94990329Y-156065454D01*
X94968747Y-156081134D01*
X94964334Y-156086036D01*
X94964332Y-156086037D01*
X94942926Y-156109811D01*
X94882480Y-156147050D01*
X94849290Y-156151500D01*
X92559415Y-156151500D01*
X92508166Y-156140607D01*
X92358319Y-156073891D01*
X92358318Y-156073891D01*
X92352288Y-156071206D01*
X92258888Y-156051353D01*
X92171944Y-156032872D01*
X92171939Y-156032872D01*
X92165487Y-156031500D01*
X91974513Y-156031500D01*
X91968061Y-156032872D01*
X91968056Y-156032872D01*
X91881112Y-156051353D01*
X91787712Y-156071206D01*
X91781682Y-156073891D01*
X91781681Y-156073891D01*
X91619278Y-156146197D01*
X91619276Y-156146198D01*
X91613248Y-156148882D01*
X91458747Y-156261134D01*
X91454326Y-156266044D01*
X91454325Y-156266045D01*
X91338458Y-156394729D01*
X91330960Y-156403056D01*
X91316995Y-156427244D01*
X91256108Y-156532704D01*
X91235473Y-156568444D01*
X91176458Y-156750072D01*
X91175768Y-156756633D01*
X91175768Y-156756635D01*
X91171106Y-156800989D01*
X91156496Y-156940000D01*
X91157186Y-156946565D01*
X91173343Y-157100287D01*
X91176458Y-157129928D01*
X91235473Y-157311556D01*
X91330960Y-157476944D01*
X91335378Y-157481851D01*
X91335379Y-157481852D01*
X91453552Y-157613096D01*
X91458747Y-157618866D01*
X91613248Y-157731118D01*
X91619276Y-157733802D01*
X91619278Y-157733803D01*
X91781681Y-157806109D01*
X91787712Y-157808794D01*
X91865211Y-157825267D01*
X91968056Y-157847128D01*
X91968061Y-157847128D01*
X91974513Y-157848500D01*
X92165487Y-157848500D01*
X92171939Y-157847128D01*
X92171944Y-157847128D01*
X92274789Y-157825267D01*
X92352288Y-157808794D01*
X92358319Y-157806109D01*
X92520722Y-157733803D01*
X92520724Y-157733802D01*
X92526752Y-157731118D01*
X92681253Y-157618866D01*
X92686448Y-157613096D01*
X92804621Y-157481852D01*
X92804622Y-157481851D01*
X92809040Y-157476944D01*
X92835277Y-157431500D01*
X92886659Y-157382507D01*
X92944396Y-157368500D01*
X94849290Y-157368500D01*
X94917411Y-157388502D01*
X94942926Y-157410189D01*
X94962115Y-157431500D01*
X94968747Y-157438866D01*
X94974456Y-157443014D01*
X95098530Y-157533159D01*
X95123248Y-157551118D01*
X95129276Y-157553802D01*
X95129278Y-157553803D01*
X95285610Y-157623406D01*
X95297712Y-157628794D01*
X95322816Y-157634130D01*
X95323851Y-157634350D01*
X95386324Y-157668078D01*
X95420646Y-157730228D01*
X95415918Y-157801067D01*
X95373642Y-157858105D01*
X95349805Y-157872298D01*
X95200618Y-157940129D01*
X95190276Y-157946076D01*
X95027603Y-158061468D01*
X95018575Y-158069261D01*
X94880658Y-158213331D01*
X94873262Y-158222696D01*
X94765079Y-158390241D01*
X94759583Y-158400845D01*
X94685039Y-158585812D01*
X94681645Y-158597270D01*
X94643143Y-158794428D01*
X94642066Y-158803291D01*
X94642000Y-158805984D01*
X94642000Y-158942666D01*
X94621998Y-159010787D01*
X94568342Y-159057280D01*
X94498068Y-159067384D01*
X94489804Y-159065913D01*
X94433553Y-159053957D01*
X94410232Y-159049000D01*
X94229768Y-159049000D01*
X94223315Y-159050372D01*
X94223311Y-159050372D01*
X94143277Y-159067384D01*
X94053248Y-159086520D01*
X94047219Y-159089204D01*
X94047217Y-159089205D01*
X93894416Y-159157237D01*
X93894414Y-159157238D01*
X93888386Y-159159922D01*
X93883045Y-159163802D01*
X93883044Y-159163803D01*
X93747731Y-159262113D01*
X93747729Y-159262115D01*
X93742387Y-159265996D01*
X93737969Y-159270903D01*
X93737965Y-159270907D01*
X93631907Y-159388697D01*
X93621633Y-159400107D01*
X93531401Y-159556393D01*
X93529359Y-159562678D01*
X93478691Y-159718621D01*
X93475635Y-159728025D01*
X93474945Y-159734588D01*
X93474945Y-159734589D01*
X93457461Y-159900935D01*
X93456771Y-159907500D01*
X93475635Y-160086975D01*
X93531401Y-160258607D01*
X93534704Y-160264329D01*
X93534705Y-160264330D01*
X93562516Y-160312500D01*
X93579254Y-160381496D01*
X93556033Y-160448587D01*
X93500226Y-160492474D01*
X93453397Y-160501500D01*
X91095955Y-160501500D01*
X91027834Y-160481498D01*
X91006859Y-160464595D01*
X90808274Y-160266009D01*
X90774249Y-160203697D01*
X90772060Y-160163748D01*
X90772814Y-160156571D01*
X90772814Y-160156565D01*
X90773504Y-160150000D01*
X90753542Y-159960072D01*
X90694527Y-159778444D01*
X90683783Y-159759834D01*
X90602341Y-159618774D01*
X90599040Y-159613056D01*
X90558499Y-159568030D01*
X90475675Y-159476045D01*
X90475674Y-159476044D01*
X90471253Y-159471134D01*
X90316752Y-159358882D01*
X90310724Y-159356198D01*
X90310722Y-159356197D01*
X90148319Y-159283891D01*
X90148318Y-159283891D01*
X90142288Y-159281206D01*
X90048887Y-159261353D01*
X89961944Y-159242872D01*
X89961939Y-159242872D01*
X89955487Y-159241500D01*
X89764513Y-159241500D01*
X89758061Y-159242872D01*
X89758056Y-159242872D01*
X89671113Y-159261353D01*
X89577712Y-159281206D01*
X89571682Y-159283891D01*
X89571681Y-159283891D01*
X89409278Y-159356197D01*
X89409276Y-159356198D01*
X89403248Y-159358882D01*
X89397908Y-159362762D01*
X89397906Y-159362763D01*
X89372917Y-159380919D01*
X89306050Y-159404777D01*
X89236898Y-159388697D01*
X89205220Y-159363294D01*
X89202273Y-159360021D01*
X89117613Y-159265996D01*
X89099857Y-159253095D01*
X88976957Y-159163803D01*
X88976956Y-159163802D01*
X88971615Y-159159922D01*
X88965587Y-159157238D01*
X88965585Y-159157237D01*
X88812783Y-159089205D01*
X88812781Y-159089205D01*
X88806752Y-159086520D01*
X88716723Y-159067384D01*
X88636689Y-159050372D01*
X88636685Y-159050372D01*
X88630232Y-159049000D01*
X88449768Y-159049000D01*
X88426447Y-159053957D01*
X88370196Y-159065913D01*
X88299406Y-159060511D01*
X88242773Y-159017694D01*
X88218280Y-158951056D01*
X88218000Y-158942666D01*
X88218000Y-158857668D01*
X88217715Y-158851692D01*
X88203529Y-158703006D01*
X88201270Y-158691272D01*
X88145128Y-158499901D01*
X88140698Y-158488825D01*
X88049381Y-158311522D01*
X88042931Y-158301476D01*
X87919738Y-158144643D01*
X87911502Y-158135995D01*
X87858126Y-158089678D01*
X87819785Y-158029924D01*
X87819835Y-157958928D01*
X87829583Y-157935117D01*
X87832053Y-157930496D01*
X87838229Y-157918942D01*
X87859597Y-157848500D01*
X87882635Y-157772555D01*
X87882636Y-157772551D01*
X87884431Y-157766633D01*
X87894989Y-157659436D01*
X87896128Y-157650881D01*
X87900387Y-157625569D01*
X87900387Y-157625564D01*
X87901193Y-157620776D01*
X87901346Y-157608237D01*
X87897395Y-157580649D01*
X87896122Y-157562786D01*
X87896122Y-153706695D01*
X88177251Y-153706695D01*
X88177548Y-153711848D01*
X88177548Y-153711851D01*
X88183011Y-153806590D01*
X88190110Y-153929715D01*
X88191247Y-153934761D01*
X88191248Y-153934767D01*
X88211119Y-154022939D01*
X88239222Y-154147639D01*
X88287163Y-154265705D01*
X88319841Y-154346180D01*
X88323266Y-154354616D01*
X88439987Y-154545088D01*
X88586250Y-154713938D01*
X88758126Y-154856632D01*
X88951000Y-154969338D01*
X89159692Y-155049030D01*
X89164760Y-155050061D01*
X89164763Y-155050062D01*
X89272017Y-155071883D01*
X89378597Y-155093567D01*
X89383772Y-155093757D01*
X89383774Y-155093757D01*
X89596673Y-155101564D01*
X89596677Y-155101564D01*
X89601837Y-155101753D01*
X89606957Y-155101097D01*
X89606959Y-155101097D01*
X89818288Y-155074025D01*
X89818289Y-155074025D01*
X89823416Y-155073368D01*
X89828366Y-155071883D01*
X90032429Y-155010661D01*
X90032434Y-155010659D01*
X90037384Y-155009174D01*
X90237994Y-154910896D01*
X90419860Y-154781173D01*
X90578096Y-154623489D01*
X90637594Y-154540689D01*
X90705435Y-154446277D01*
X90708453Y-154442077D01*
X90752297Y-154353366D01*
X90805136Y-154246453D01*
X90805137Y-154246451D01*
X90807430Y-154241811D01*
X90851283Y-154097473D01*
X90870865Y-154033023D01*
X90870865Y-154033021D01*
X90872370Y-154028069D01*
X90901529Y-153806590D01*
X90903156Y-153740000D01*
X90884852Y-153517361D01*
X90830431Y-153300702D01*
X90741354Y-153095840D01*
X90620014Y-152908277D01*
X90469670Y-152743051D01*
X90465619Y-152739852D01*
X90465615Y-152739848D01*
X90298414Y-152607800D01*
X90298410Y-152607798D01*
X90294359Y-152604598D01*
X90252569Y-152581529D01*
X90202598Y-152531097D01*
X90187826Y-152461654D01*
X90212942Y-152395248D01*
X90240294Y-152368641D01*
X90415328Y-152243792D01*
X90423200Y-152237139D01*
X90574052Y-152086812D01*
X90580730Y-152078965D01*
X90705003Y-151906020D01*
X90710313Y-151897183D01*
X90804670Y-151706267D01*
X90808469Y-151696672D01*
X90870377Y-151492910D01*
X90872555Y-151482837D01*
X90873986Y-151471962D01*
X90871775Y-151457778D01*
X90858617Y-151454000D01*
X88223225Y-151454000D01*
X88209694Y-151457973D01*
X88208257Y-151467966D01*
X88238565Y-151602446D01*
X88241645Y-151612275D01*
X88321770Y-151809603D01*
X88326413Y-151818794D01*
X88437694Y-152000388D01*
X88443777Y-152008699D01*
X88583213Y-152169667D01*
X88590580Y-152176883D01*
X88754434Y-152312916D01*
X88762881Y-152318831D01*
X88831969Y-152359203D01*
X88880693Y-152410842D01*
X88893764Y-152480625D01*
X88867033Y-152546396D01*
X88826584Y-152579752D01*
X88813607Y-152586507D01*
X88809474Y-152589610D01*
X88809471Y-152589612D01*
X88639100Y-152717530D01*
X88634965Y-152720635D01*
X88480629Y-152882138D01*
X88354743Y-153066680D01*
X88260688Y-153269305D01*
X88200989Y-153484570D01*
X88177251Y-153706695D01*
X87896122Y-153706695D01*
X87896122Y-135565786D01*
X87897868Y-135544882D01*
X87900386Y-135529914D01*
X87901193Y-135525118D01*
X87901346Y-135512579D01*
X87899860Y-135502202D01*
X87898939Y-135474942D01*
X87912040Y-135299891D01*
X87914840Y-135281292D01*
X87916358Y-135274635D01*
X87932651Y-135203156D01*
X87967293Y-135141184D01*
X88029939Y-135107779D01*
X88100701Y-135113546D01*
X88157112Y-135156654D01*
X88181262Y-135223417D01*
X88181500Y-135231159D01*
X88181500Y-136858134D01*
X88188255Y-136920316D01*
X88239385Y-137056705D01*
X88326739Y-137173261D01*
X88443295Y-137260615D01*
X88451704Y-137263767D01*
X88451705Y-137263768D01*
X88560451Y-137304535D01*
X88617216Y-137347176D01*
X88641916Y-137413738D01*
X88626709Y-137483087D01*
X88607316Y-137509568D01*
X88480629Y-137642138D01*
X88354743Y-137826680D01*
X88260688Y-138029305D01*
X88200989Y-138244570D01*
X88177251Y-138466695D01*
X88177548Y-138471848D01*
X88177548Y-138471851D01*
X88183011Y-138566590D01*
X88190110Y-138689715D01*
X88191247Y-138694761D01*
X88191248Y-138694767D01*
X88192072Y-138698423D01*
X88239222Y-138907639D01*
X88323266Y-139114616D01*
X88325965Y-139119020D01*
X88400897Y-139241298D01*
X88439987Y-139305088D01*
X88586250Y-139473938D01*
X88758126Y-139616632D01*
X88828595Y-139657811D01*
X88831445Y-139659476D01*
X88880169Y-139711114D01*
X88893240Y-139780897D01*
X88866509Y-139846669D01*
X88826055Y-139880027D01*
X88813607Y-139886507D01*
X88809474Y-139889610D01*
X88809471Y-139889612D01*
X88663567Y-139999160D01*
X88634965Y-140020635D01*
X88631393Y-140024373D01*
X88552801Y-140106615D01*
X88480629Y-140182138D01*
X88354743Y-140366680D01*
X88339003Y-140400590D01*
X88272993Y-140542797D01*
X88260688Y-140569305D01*
X88200989Y-140784570D01*
X88177251Y-141006695D01*
X88177548Y-141011848D01*
X88177548Y-141011851D01*
X88183011Y-141106590D01*
X88190110Y-141229715D01*
X88191247Y-141234761D01*
X88191248Y-141234767D01*
X88211119Y-141322939D01*
X88239222Y-141447639D01*
X88323266Y-141654616D01*
X88439987Y-141845088D01*
X88586250Y-142013938D01*
X88758126Y-142156632D01*
X88828595Y-142197811D01*
X88831445Y-142199476D01*
X88880169Y-142251114D01*
X88893240Y-142320897D01*
X88866509Y-142386669D01*
X88826055Y-142420027D01*
X88813607Y-142426507D01*
X88809474Y-142429610D01*
X88809471Y-142429612D01*
X88639100Y-142557530D01*
X88634965Y-142560635D01*
X88480629Y-142722138D01*
X88354743Y-142906680D01*
X88260688Y-143109305D01*
X88200989Y-143324570D01*
X88177251Y-143546695D01*
X88177548Y-143551848D01*
X88177548Y-143551851D01*
X88183011Y-143646590D01*
X88190110Y-143769715D01*
X88191247Y-143774761D01*
X88191248Y-143774767D01*
X88211119Y-143862939D01*
X88239222Y-143987639D01*
X88323266Y-144194616D01*
X88439987Y-144385088D01*
X88586250Y-144553938D01*
X88758126Y-144696632D01*
X88798771Y-144720383D01*
X88831445Y-144739476D01*
X88880169Y-144791114D01*
X88893240Y-144860897D01*
X88866509Y-144926669D01*
X88826055Y-144960027D01*
X88813607Y-144966507D01*
X88809474Y-144969610D01*
X88809471Y-144969612D01*
X88639100Y-145097530D01*
X88634965Y-145100635D01*
X88480629Y-145262138D01*
X88354743Y-145446680D01*
X88260688Y-145649305D01*
X88200989Y-145864570D01*
X88177251Y-146086695D01*
X88177548Y-146091848D01*
X88177548Y-146091851D01*
X88183011Y-146186590D01*
X88190110Y-146309715D01*
X88191247Y-146314761D01*
X88191248Y-146314767D01*
X88211119Y-146402939D01*
X88239222Y-146527639D01*
X88323266Y-146734616D01*
X88364846Y-146802469D01*
X88401212Y-146861812D01*
X88439987Y-146925088D01*
X88586250Y-147093938D01*
X88758126Y-147236632D01*
X88796018Y-147258774D01*
X88831445Y-147279476D01*
X88880169Y-147331114D01*
X88893240Y-147400897D01*
X88866509Y-147466669D01*
X88826055Y-147500027D01*
X88813607Y-147506507D01*
X88809474Y-147509610D01*
X88809471Y-147509612D01*
X88639100Y-147637530D01*
X88634965Y-147640635D01*
X88631393Y-147644373D01*
X88511454Y-147769882D01*
X88480629Y-147802138D01*
X88354743Y-147986680D01*
X88322842Y-148055405D01*
X88273569Y-148161556D01*
X88260688Y-148189305D01*
X88200989Y-148404570D01*
X88177251Y-148626695D01*
X88177548Y-148631848D01*
X88177548Y-148631851D01*
X88183011Y-148726590D01*
X88190110Y-148849715D01*
X88191247Y-148854761D01*
X88191248Y-148854767D01*
X88192067Y-148858400D01*
X88239222Y-149067639D01*
X88323266Y-149274616D01*
X88439987Y-149465088D01*
X88586250Y-149633938D01*
X88620970Y-149662763D01*
X88746827Y-149767251D01*
X88758126Y-149776632D01*
X88814945Y-149809834D01*
X88831955Y-149819774D01*
X88880679Y-149871412D01*
X88893750Y-149941195D01*
X88867019Y-150006967D01*
X88826562Y-150040327D01*
X88818457Y-150044546D01*
X88809738Y-150050036D01*
X88639433Y-150177905D01*
X88631726Y-150184748D01*
X88484590Y-150338717D01*
X88478104Y-150346727D01*
X88358098Y-150522649D01*
X88353000Y-150531623D01*
X88263338Y-150724783D01*
X88259775Y-150734470D01*
X88204389Y-150934183D01*
X88205912Y-150942607D01*
X88218292Y-150946000D01*
X90858344Y-150946000D01*
X90871875Y-150942027D01*
X90873180Y-150932947D01*
X90831214Y-150765875D01*
X90827894Y-150756124D01*
X90742972Y-150560814D01*
X90738105Y-150551739D01*
X90622426Y-150372926D01*
X90616136Y-150364757D01*
X90472806Y-150207240D01*
X90465273Y-150200215D01*
X90298139Y-150068222D01*
X90289556Y-150062520D01*
X90252602Y-150042120D01*
X90202631Y-149991687D01*
X90187859Y-149922245D01*
X90212975Y-149855839D01*
X90240327Y-149829232D01*
X90267522Y-149809834D01*
X90419860Y-149701173D01*
X90458405Y-149662763D01*
X90503176Y-149618148D01*
X90578096Y-149543489D01*
X90637594Y-149460689D01*
X90705435Y-149366277D01*
X90708453Y-149362077D01*
X90757558Y-149262721D01*
X90805136Y-149166453D01*
X90805137Y-149166451D01*
X90807430Y-149161811D01*
X90872370Y-148948069D01*
X90901529Y-148726590D01*
X90901611Y-148723240D01*
X90903074Y-148663365D01*
X90903074Y-148663361D01*
X90903156Y-148660000D01*
X90884852Y-148437361D01*
X90830431Y-148220702D01*
X90741354Y-148015840D01*
X90683618Y-147926594D01*
X90622822Y-147832617D01*
X90622820Y-147832614D01*
X90620014Y-147828277D01*
X90469670Y-147663051D01*
X90465619Y-147659852D01*
X90465615Y-147659848D01*
X90298414Y-147527800D01*
X90298410Y-147527798D01*
X90294359Y-147524598D01*
X90253053Y-147501796D01*
X90203084Y-147451364D01*
X90188312Y-147381921D01*
X90213428Y-147315516D01*
X90240780Y-147288909D01*
X90297925Y-147248148D01*
X90419860Y-147161173D01*
X90451525Y-147129619D01*
X90550230Y-147031258D01*
X90578096Y-147003489D01*
X90581407Y-146998882D01*
X90705435Y-146826277D01*
X90708453Y-146822077D01*
X90761970Y-146713794D01*
X90805136Y-146626453D01*
X90805137Y-146626451D01*
X90807430Y-146621811D01*
X90872370Y-146408069D01*
X90901529Y-146186590D01*
X90901611Y-146183240D01*
X90903074Y-146123365D01*
X90903074Y-146123361D01*
X90903156Y-146120000D01*
X90884852Y-145897361D01*
X90830431Y-145680702D01*
X90741354Y-145475840D01*
X90683769Y-145386827D01*
X90622822Y-145292617D01*
X90622820Y-145292614D01*
X90620014Y-145288277D01*
X90469670Y-145123051D01*
X90465619Y-145119852D01*
X90465615Y-145119848D01*
X90298414Y-144987800D01*
X90298410Y-144987798D01*
X90294359Y-144984598D01*
X90253053Y-144961796D01*
X90203084Y-144911364D01*
X90188312Y-144841921D01*
X90213428Y-144775516D01*
X90240780Y-144748909D01*
X90284603Y-144717650D01*
X90419860Y-144621173D01*
X90442647Y-144598466D01*
X90574435Y-144467137D01*
X90578096Y-144463489D01*
X90637594Y-144380689D01*
X90705435Y-144286277D01*
X90708453Y-144282077D01*
X90716346Y-144266108D01*
X90805136Y-144086453D01*
X90805137Y-144086451D01*
X90807430Y-144081811D01*
X90872370Y-143868069D01*
X90901529Y-143646590D01*
X90903156Y-143580000D01*
X90884852Y-143357361D01*
X90830431Y-143140702D01*
X90741354Y-142935840D01*
X90620014Y-142748277D01*
X90469670Y-142583051D01*
X90465619Y-142579852D01*
X90465615Y-142579848D01*
X90298414Y-142447800D01*
X90298410Y-142447798D01*
X90294359Y-142444598D01*
X90253053Y-142421796D01*
X90203084Y-142371364D01*
X90188312Y-142301921D01*
X90213428Y-142235516D01*
X90240780Y-142208909D01*
X90284603Y-142177650D01*
X90419860Y-142081173D01*
X90578096Y-141923489D01*
X90637594Y-141840689D01*
X90705435Y-141746277D01*
X90708453Y-141742077D01*
X90807430Y-141541811D01*
X90872370Y-141328069D01*
X90901529Y-141106590D01*
X90903156Y-141040000D01*
X90884852Y-140817361D01*
X90830431Y-140600702D01*
X90741354Y-140395840D01*
X90620014Y-140208277D01*
X90469670Y-140043051D01*
X90465619Y-140039852D01*
X90465615Y-140039848D01*
X90298414Y-139907800D01*
X90298410Y-139907798D01*
X90294359Y-139904598D01*
X90253053Y-139881796D01*
X90203084Y-139831364D01*
X90188312Y-139761921D01*
X90213428Y-139695516D01*
X90240780Y-139668909D01*
X90284603Y-139637650D01*
X90419860Y-139541173D01*
X90578096Y-139383489D01*
X90637594Y-139300689D01*
X90705435Y-139206277D01*
X90708453Y-139202077D01*
X90798873Y-139019126D01*
X90805136Y-139006453D01*
X90805137Y-139006451D01*
X90807430Y-139001811D01*
X90872370Y-138788069D01*
X90901529Y-138566590D01*
X90903156Y-138500000D01*
X90884852Y-138277361D01*
X90830431Y-138060702D01*
X90741354Y-137855840D01*
X90620014Y-137668277D01*
X90616532Y-137664450D01*
X90472798Y-137506488D01*
X90441746Y-137442642D01*
X90450141Y-137372143D01*
X90495317Y-137317375D01*
X90521761Y-137303706D01*
X90628297Y-137263767D01*
X90636705Y-137260615D01*
X90753261Y-137173261D01*
X90840615Y-137056705D01*
X90891745Y-136920316D01*
X90898500Y-136858134D01*
X90898500Y-135061866D01*
X90891745Y-134999684D01*
X90840615Y-134863295D01*
X90753261Y-134746739D01*
X90636705Y-134659385D01*
X90500316Y-134608255D01*
X90438134Y-134601500D01*
X88641866Y-134601500D01*
X88579684Y-134608255D01*
X88499592Y-134638280D01*
X88428787Y-134643463D01*
X88366418Y-134609543D01*
X88332289Y-134547288D01*
X88337235Y-134476463D01*
X88369565Y-134428023D01*
X88373922Y-134423972D01*
X88449650Y-134353560D01*
X88464330Y-134341826D01*
X88615080Y-134238774D01*
X88632621Y-134226783D01*
X88648896Y-134217358D01*
X88832436Y-134128648D01*
X88849934Y-134121750D01*
X88948623Y-134091134D01*
X89010751Y-134071861D01*
X89032945Y-134067822D01*
X89032868Y-134067262D01*
X89037696Y-134066598D01*
X89042554Y-134066309D01*
X89048423Y-134065034D01*
X89048689Y-134065015D01*
X89048939Y-134064922D01*
X89054808Y-134063647D01*
X89057579Y-134062577D01*
X89058403Y-134062353D01*
X89724210Y-133899834D01*
X90460547Y-133720099D01*
X90460569Y-133720093D01*
X90461361Y-133719900D01*
X91858370Y-133339242D01*
X91859195Y-133338993D01*
X91859207Y-133338990D01*
X93243913Y-132921802D01*
X93243914Y-132921802D01*
X93244756Y-132921548D01*
X93245538Y-132921290D01*
X93245565Y-132921281D01*
X94618765Y-132467369D01*
X94618797Y-132467358D01*
X94619538Y-132467113D01*
X94626524Y-132464596D01*
X95980943Y-131976549D01*
X95980949Y-131976547D01*
X95981742Y-131976261D01*
X95982490Y-131975969D01*
X95982516Y-131975959D01*
X97155087Y-131517834D01*
X97330403Y-131449338D01*
X98072557Y-131136370D01*
X98663776Y-130887052D01*
X98663803Y-130887040D01*
X98664567Y-130886718D01*
X98665329Y-130886372D01*
X98665353Y-130886362D01*
X99982502Y-130289155D01*
X99982512Y-130289150D01*
X99983289Y-130288798D01*
X101285635Y-129656002D01*
X102570683Y-128988779D01*
X102575623Y-128986045D01*
X103836805Y-128287998D01*
X103836838Y-128287979D01*
X103837523Y-128287600D01*
X103838231Y-128287183D01*
X103838254Y-128287170D01*
X105084555Y-127553377D01*
X105084560Y-127553374D01*
X105085258Y-127552963D01*
X106313005Y-126785386D01*
X106313673Y-126784943D01*
X106313692Y-126784931D01*
X107306374Y-126126944D01*
X107519894Y-125985415D01*
X107520577Y-125984935D01*
X107520597Y-125984922D01*
X108704399Y-125154086D01*
X108704402Y-125154084D01*
X108705070Y-125153615D01*
X108847148Y-125048148D01*
X109867026Y-124291073D01*
X109867057Y-124291050D01*
X109867696Y-124290575D01*
X109868333Y-124290076D01*
X109868357Y-124290057D01*
X110567260Y-123741812D01*
X111006946Y-123396907D01*
X112122016Y-122473242D01*
X113212114Y-121520236D01*
X114276469Y-120538563D01*
X114605161Y-120218807D01*
X114798606Y-120030620D01*
X115314329Y-119528917D01*
X115314925Y-119528306D01*
X116324360Y-118492627D01*
X116324378Y-118492608D01*
X116324956Y-118492015D01*
X117307637Y-117428590D01*
X117652256Y-117035150D01*
X118261100Y-116340052D01*
X118261113Y-116340037D01*
X118261676Y-116339394D01*
X118496167Y-116056857D01*
X119185830Y-115225883D01*
X119185831Y-115225882D01*
X119186396Y-115225201D01*
X119570730Y-114736206D01*
X120080640Y-114087438D01*
X120080668Y-114087402D01*
X120081143Y-114086797D01*
X120701473Y-113252785D01*
X120944809Y-112925629D01*
X120944819Y-112925615D01*
X120945284Y-112924990D01*
X120989934Y-112861500D01*
X121777728Y-111741281D01*
X121777735Y-111741270D01*
X121778206Y-111740601D01*
X122579320Y-110534470D01*
X122579761Y-110533765D01*
X122579783Y-110533732D01*
X123347602Y-109308180D01*
X123348059Y-109307451D01*
X124083878Y-108060412D01*
X124786256Y-106794237D01*
X125454696Y-105509822D01*
X126088725Y-104208076D01*
X126089069Y-104207320D01*
X126687557Y-102890661D01*
X126687567Y-102890639D01*
X126687893Y-102889921D01*
X127251777Y-101556290D01*
X127269942Y-101509928D01*
X127779688Y-100208866D01*
X127779692Y-100208857D01*
X127779977Y-100208128D01*
X128272120Y-98846390D01*
X128727856Y-97472039D01*
X128918649Y-96840934D01*
X129146620Y-96086854D01*
X129146627Y-96086830D01*
X129146863Y-96086049D01*
X129528844Y-94689401D01*
X129735359Y-93846819D01*
X129873342Y-93283849D01*
X129873346Y-93283831D01*
X129873529Y-93283085D01*
X130180674Y-91868094D01*
X130450062Y-90445433D01*
X130681501Y-89016107D01*
X130787885Y-88226467D01*
X130874718Y-87581940D01*
X130874719Y-87581931D01*
X130874827Y-87581130D01*
X131029905Y-86141517D01*
X131121593Y-85007797D01*
X131147020Y-84941511D01*
X131204249Y-84899495D01*
X131247182Y-84891955D01*
X131692418Y-84891955D01*
X131713322Y-84893701D01*
X131733086Y-84897026D01*
X131739276Y-84897102D01*
X131740761Y-84897120D01*
X131740766Y-84897120D01*
X131745625Y-84897179D01*
X131750439Y-84896490D01*
X131750448Y-84896489D01*
X131772274Y-84893363D01*
X131777775Y-84892699D01*
X131904021Y-84880264D01*
X131909945Y-84878467D01*
X132050407Y-84835859D01*
X132050410Y-84835858D01*
X132056330Y-84834062D01*
X132196698Y-84759033D01*
X132201488Y-84755102D01*
X132314947Y-84661989D01*
X132319732Y-84658062D01*
X132420703Y-84535028D01*
X132495732Y-84394660D01*
X132513571Y-84335852D01*
X132540138Y-84248273D01*
X132540139Y-84248269D01*
X132541934Y-84242351D01*
X132552492Y-84135154D01*
X132553631Y-84126599D01*
X132557890Y-84101287D01*
X132557890Y-84101282D01*
X132558696Y-84096494D01*
X132558849Y-84083955D01*
X132554898Y-84056367D01*
X132553625Y-84038504D01*
X132553625Y-83734669D01*
X154782901Y-83734669D01*
X154783271Y-83741490D01*
X154788795Y-83792352D01*
X154792421Y-83807604D01*
X154837576Y-83928054D01*
X154846114Y-83943649D01*
X154922615Y-84045724D01*
X154935176Y-84058285D01*
X155037251Y-84134786D01*
X155052846Y-84143324D01*
X155173294Y-84188478D01*
X155188549Y-84192105D01*
X155239414Y-84197631D01*
X155246228Y-84198000D01*
X156018785Y-84198000D01*
X156034024Y-84193525D01*
X156035229Y-84192135D01*
X156036900Y-84184452D01*
X156036900Y-84179884D01*
X156544900Y-84179884D01*
X156549375Y-84195123D01*
X156550765Y-84196328D01*
X156558448Y-84197999D01*
X157335569Y-84197999D01*
X157342390Y-84197629D01*
X157393252Y-84192105D01*
X157408504Y-84188479D01*
X157528954Y-84143324D01*
X157544549Y-84134786D01*
X157646624Y-84058285D01*
X157659185Y-84045724D01*
X157735686Y-83943649D01*
X157744224Y-83928054D01*
X157789378Y-83807606D01*
X157793005Y-83792351D01*
X157798531Y-83741486D01*
X157798900Y-83734672D01*
X157798900Y-82212115D01*
X157794425Y-82196876D01*
X157793035Y-82195671D01*
X157785352Y-82194000D01*
X156563015Y-82194000D01*
X156547776Y-82198475D01*
X156546571Y-82199865D01*
X156544900Y-82207548D01*
X156544900Y-84179884D01*
X156036900Y-84179884D01*
X156036900Y-82212115D01*
X156032425Y-82196876D01*
X156031035Y-82195671D01*
X156023352Y-82194000D01*
X154801016Y-82194000D01*
X154785777Y-82198475D01*
X154784572Y-82199865D01*
X154782901Y-82207548D01*
X154782901Y-83734669D01*
X132553625Y-83734669D01*
X132553625Y-82067955D01*
X132573627Y-81999834D01*
X132627283Y-81953341D01*
X132679625Y-81941955D01*
X147644173Y-81941955D01*
X147665077Y-81943701D01*
X147684841Y-81947026D01*
X147691031Y-81947102D01*
X147692516Y-81947120D01*
X147692521Y-81947120D01*
X147697380Y-81947179D01*
X147702194Y-81946490D01*
X147702203Y-81946489D01*
X147724029Y-81943363D01*
X147729530Y-81942699D01*
X147855776Y-81930264D01*
X147861700Y-81928467D01*
X148002162Y-81885859D01*
X148002165Y-81885858D01*
X148008085Y-81884062D01*
X148148453Y-81809033D01*
X148271487Y-81708062D01*
X148372458Y-81585028D01*
X148447487Y-81444660D01*
X148493689Y-81292351D01*
X148504247Y-81185154D01*
X148505386Y-81176599D01*
X148509645Y-81151287D01*
X148509645Y-81151282D01*
X148510451Y-81146494D01*
X148510604Y-81133955D01*
X148506653Y-81106367D01*
X148505380Y-81088504D01*
X148505380Y-80567955D01*
X148525382Y-80499834D01*
X148579038Y-80453341D01*
X148631380Y-80441955D01*
X150004173Y-80441955D01*
X150025077Y-80443701D01*
X150044841Y-80447026D01*
X150051031Y-80447102D01*
X150052516Y-80447120D01*
X150052521Y-80447120D01*
X150057380Y-80447179D01*
X150062194Y-80446490D01*
X150062203Y-80446489D01*
X150084029Y-80443363D01*
X150089530Y-80442699D01*
X150215776Y-80430264D01*
X150221700Y-80428467D01*
X150362162Y-80385859D01*
X150362165Y-80385858D01*
X150368085Y-80384062D01*
X150508453Y-80309033D01*
X150631487Y-80208062D01*
X150648716Y-80187069D01*
X150728527Y-80089818D01*
X150732458Y-80085028D01*
X150807487Y-79944660D01*
X150810007Y-79936352D01*
X150851893Y-79798273D01*
X150851894Y-79798269D01*
X150853689Y-79792351D01*
X150864247Y-79685154D01*
X150865386Y-79676599D01*
X150869645Y-79651287D01*
X150869645Y-79651282D01*
X150870451Y-79646494D01*
X150870604Y-79633955D01*
X150866653Y-79606367D01*
X150865380Y-79588504D01*
X150865380Y-79167955D01*
X150885382Y-79099834D01*
X150939038Y-79053341D01*
X150991380Y-79041955D01*
X154723380Y-79041955D01*
X154791501Y-79061957D01*
G37*
%TD.AperFunction*%
%TD*%
M02*
