%TF.GenerationSoftware,KiCad,Pcbnew,(6.0.6-0)*%
%TF.CreationDate,2022-07-21T13:24:00+02:00*%
%TF.ProjectId,GlowTube,476c6f77-5475-4626-952e-6b696361645f,rev?*%
%TF.SameCoordinates,Original*%
%TF.FileFunction,Other,Comment*%
%FSLAX46Y46*%
G04 Gerber Fmt 4.6, Leading zero omitted, Abs format (unit mm)*
G04 Created by KiCad (PCBNEW (6.0.6-0)) date 2022-07-21 13:24:00*
%MOMM*%
%LPD*%
G01*
G04 APERTURE LIST*
%ADD10C,0.150000*%
%ADD11C,0.100000*%
G04 APERTURE END LIST*
D10*
%TO.C,U2*%
X154549666Y-121819104D02*
X154549666Y-121342914D01*
X154835380Y-121914342D02*
X153835380Y-121581009D01*
X154835380Y-121247676D01*
X154168714Y-120914342D02*
X154835380Y-120914342D01*
X154263952Y-120914342D02*
X154216333Y-120866723D01*
X154168714Y-120771485D01*
X154168714Y-120628628D01*
X154216333Y-120533390D01*
X154311571Y-120485771D01*
X154835380Y-120485771D01*
X154168714Y-120152438D02*
X154168714Y-119771485D01*
X153835380Y-120009580D02*
X154692523Y-120009580D01*
X154787761Y-119961961D01*
X154835380Y-119866723D01*
X154835380Y-119771485D01*
X154787761Y-119057200D02*
X154835380Y-119152438D01*
X154835380Y-119342914D01*
X154787761Y-119438152D01*
X154692523Y-119485771D01*
X154311571Y-119485771D01*
X154216333Y-119438152D01*
X154168714Y-119342914D01*
X154168714Y-119152438D01*
X154216333Y-119057200D01*
X154311571Y-119009580D01*
X154406809Y-119009580D01*
X154502047Y-119485771D01*
X154168714Y-118581009D02*
X154835380Y-118581009D01*
X154263952Y-118581009D02*
X154216333Y-118533390D01*
X154168714Y-118438152D01*
X154168714Y-118295295D01*
X154216333Y-118200057D01*
X154311571Y-118152438D01*
X154835380Y-118152438D01*
X154168714Y-117676247D02*
X154835380Y-117676247D01*
X154263952Y-117676247D02*
X154216333Y-117628628D01*
X154168714Y-117533390D01*
X154168714Y-117390533D01*
X154216333Y-117295295D01*
X154311571Y-117247676D01*
X154835380Y-117247676D01*
X154835380Y-116342914D02*
X154311571Y-116342914D01*
X154216333Y-116390533D01*
X154168714Y-116485771D01*
X154168714Y-116676247D01*
X154216333Y-116771485D01*
X154787761Y-116342914D02*
X154835380Y-116438152D01*
X154835380Y-116676247D01*
X154787761Y-116771485D01*
X154692523Y-116819104D01*
X154597285Y-116819104D01*
X154502047Y-116771485D01*
X154454428Y-116676247D01*
X154454428Y-116438152D01*
X154406809Y-116342914D01*
X160835380Y-125128628D02*
X159835380Y-125128628D01*
X160835380Y-124557200D02*
X160263952Y-124985771D01*
X159835380Y-124557200D02*
X160406809Y-125128628D01*
X160311571Y-124128628D02*
X160311571Y-123795295D01*
X160835380Y-123652438D02*
X160835380Y-124128628D01*
X159835380Y-124128628D01*
X159835380Y-123652438D01*
X160311571Y-123223866D02*
X160311571Y-122890533D01*
X160835380Y-122747676D02*
X160835380Y-123223866D01*
X159835380Y-123223866D01*
X159835380Y-122747676D01*
X160835380Y-122319104D02*
X159835380Y-122319104D01*
X159835380Y-121938152D01*
X159883000Y-121842914D01*
X159930619Y-121795295D01*
X160025857Y-121747676D01*
X160168714Y-121747676D01*
X160263952Y-121795295D01*
X160311571Y-121842914D01*
X160359190Y-121938152D01*
X160359190Y-122319104D01*
X160454428Y-121319104D02*
X160454428Y-120557200D01*
X159835380Y-119890533D02*
X159835380Y-119700057D01*
X159883000Y-119604819D01*
X159978238Y-119509580D01*
X160168714Y-119461961D01*
X160502047Y-119461961D01*
X160692523Y-119509580D01*
X160787761Y-119604819D01*
X160835380Y-119700057D01*
X160835380Y-119890533D01*
X160787761Y-119985771D01*
X160692523Y-120081009D01*
X160502047Y-120128628D01*
X160168714Y-120128628D01*
X159978238Y-120081009D01*
X159883000Y-119985771D01*
X159835380Y-119890533D01*
X159835380Y-119033390D02*
X160644904Y-119033390D01*
X160740142Y-118985771D01*
X160787761Y-118938152D01*
X160835380Y-118842914D01*
X160835380Y-118652438D01*
X160787761Y-118557200D01*
X160740142Y-118509580D01*
X160644904Y-118461961D01*
X159835380Y-118461961D01*
X159835380Y-118128628D02*
X159835380Y-117557200D01*
X160835380Y-117842914D02*
X159835380Y-117842914D01*
X159835380Y-116557200D02*
X159835380Y-115890533D01*
X160835380Y-116557200D01*
X160835380Y-115890533D01*
X159835380Y-115319104D02*
X159835380Y-115128628D01*
X159883000Y-115033390D01*
X159978238Y-114938152D01*
X160168714Y-114890533D01*
X160502047Y-114890533D01*
X160692523Y-114938152D01*
X160787761Y-115033390D01*
X160835380Y-115128628D01*
X160835380Y-115319104D01*
X160787761Y-115414342D01*
X160692523Y-115509580D01*
X160502047Y-115557200D01*
X160168714Y-115557200D01*
X159978238Y-115509580D01*
X159883000Y-115414342D01*
X159835380Y-115319104D01*
X160835380Y-114461961D02*
X159835380Y-114461961D01*
X160835380Y-113890533D01*
X159835380Y-113890533D01*
X160311571Y-113414342D02*
X160311571Y-113081009D01*
X160835380Y-112938152D02*
X160835380Y-113414342D01*
X159835380Y-113414342D01*
X159835380Y-112938152D01*
D11*
X155484190Y-108595295D02*
X155484190Y-108833390D01*
X155722285Y-108857200D01*
X155698476Y-108833390D01*
X155674666Y-108785771D01*
X155674666Y-108666723D01*
X155698476Y-108619104D01*
X155722285Y-108595295D01*
X155769904Y-108571485D01*
X155888952Y-108571485D01*
X155936571Y-108595295D01*
X155960380Y-108619104D01*
X155984190Y-108666723D01*
X155984190Y-108785771D01*
X155960380Y-108833390D01*
X155936571Y-108857200D01*
X155984190Y-107976247D02*
X155650857Y-107976247D01*
X155698476Y-107976247D02*
X155674666Y-107952438D01*
X155650857Y-107904819D01*
X155650857Y-107833390D01*
X155674666Y-107785771D01*
X155722285Y-107761961D01*
X155984190Y-107761961D01*
X155722285Y-107761961D02*
X155674666Y-107738152D01*
X155650857Y-107690533D01*
X155650857Y-107619104D01*
X155674666Y-107571485D01*
X155722285Y-107547676D01*
X155984190Y-107547676D01*
X155984190Y-107309580D02*
X155650857Y-107309580D01*
X155698476Y-107309580D02*
X155674666Y-107285771D01*
X155650857Y-107238152D01*
X155650857Y-107166723D01*
X155674666Y-107119104D01*
X155722285Y-107095295D01*
X155984190Y-107095295D01*
X155722285Y-107095295D02*
X155674666Y-107071485D01*
X155650857Y-107023866D01*
X155650857Y-106952438D01*
X155674666Y-106904819D01*
X155722285Y-106881009D01*
X155984190Y-106881009D01*
X155484190Y-131595295D02*
X155484190Y-131833390D01*
X155722285Y-131857200D01*
X155698476Y-131833390D01*
X155674666Y-131785771D01*
X155674666Y-131666723D01*
X155698476Y-131619104D01*
X155722285Y-131595295D01*
X155769904Y-131571485D01*
X155888952Y-131571485D01*
X155936571Y-131595295D01*
X155960380Y-131619104D01*
X155984190Y-131666723D01*
X155984190Y-131785771D01*
X155960380Y-131833390D01*
X155936571Y-131857200D01*
X155984190Y-130976247D02*
X155650857Y-130976247D01*
X155698476Y-130976247D02*
X155674666Y-130952438D01*
X155650857Y-130904819D01*
X155650857Y-130833390D01*
X155674666Y-130785771D01*
X155722285Y-130761961D01*
X155984190Y-130761961D01*
X155722285Y-130761961D02*
X155674666Y-130738152D01*
X155650857Y-130690533D01*
X155650857Y-130619104D01*
X155674666Y-130571485D01*
X155722285Y-130547676D01*
X155984190Y-130547676D01*
X155984190Y-130309580D02*
X155650857Y-130309580D01*
X155698476Y-130309580D02*
X155674666Y-130285771D01*
X155650857Y-130238152D01*
X155650857Y-130166723D01*
X155674666Y-130119104D01*
X155722285Y-130095295D01*
X155984190Y-130095295D01*
X155722285Y-130095295D02*
X155674666Y-130071485D01*
X155650857Y-130023866D01*
X155650857Y-129952438D01*
X155674666Y-129904819D01*
X155722285Y-129881009D01*
X155984190Y-129881009D01*
X159719904Y-126583390D02*
X159481809Y-126583390D01*
X159458000Y-126821485D01*
X159481809Y-126797676D01*
X159529428Y-126773866D01*
X159648476Y-126773866D01*
X159696095Y-126797676D01*
X159719904Y-126821485D01*
X159743714Y-126869104D01*
X159743714Y-126988152D01*
X159719904Y-127035771D01*
X159696095Y-127059580D01*
X159648476Y-127083390D01*
X159529428Y-127083390D01*
X159481809Y-127059580D01*
X159458000Y-127035771D01*
X160338952Y-127083390D02*
X160338952Y-126750057D01*
X160338952Y-126797676D02*
X160362761Y-126773866D01*
X160410380Y-126750057D01*
X160481809Y-126750057D01*
X160529428Y-126773866D01*
X160553238Y-126821485D01*
X160553238Y-127083390D01*
X160553238Y-126821485D02*
X160577047Y-126773866D01*
X160624666Y-126750057D01*
X160696095Y-126750057D01*
X160743714Y-126773866D01*
X160767523Y-126821485D01*
X160767523Y-127083390D01*
X161005619Y-127083390D02*
X161005619Y-126750057D01*
X161005619Y-126797676D02*
X161029428Y-126773866D01*
X161077047Y-126750057D01*
X161148476Y-126750057D01*
X161196095Y-126773866D01*
X161219904Y-126821485D01*
X161219904Y-127083390D01*
X161219904Y-126821485D02*
X161243714Y-126773866D01*
X161291333Y-126750057D01*
X161362761Y-126750057D01*
X161410380Y-126773866D01*
X161434190Y-126821485D01*
X161434190Y-127083390D01*
X155258000Y-132857200D02*
X155058000Y-132657200D01*
X161983000Y-127457200D02*
X161783000Y-127257200D01*
X155258000Y-105257200D02*
X155058000Y-105457200D01*
X155258000Y-105257200D02*
X155458000Y-105457200D01*
X155258000Y-105257200D02*
X155258000Y-109857200D01*
X155258000Y-128257200D02*
X155058000Y-128457200D01*
X157383000Y-127457200D02*
X157583000Y-127257200D01*
X155258000Y-128257200D02*
X155458000Y-128457200D01*
X155258000Y-128257200D02*
X155258000Y-132857200D01*
X157383000Y-127457200D02*
X161983000Y-127457200D01*
X155258000Y-109857200D02*
X155058000Y-109657200D01*
X155258000Y-132857200D02*
X155458000Y-132657200D01*
X155258000Y-109857200D02*
X155458000Y-109657200D01*
X157383000Y-127457200D02*
X157583000Y-127657200D01*
X161983000Y-127457200D02*
X161783000Y-127657200D01*
%TD*%
M02*
