%TF.GenerationSoftware,KiCad,Pcbnew,(6.0.4-0)*%
%TF.CreationDate,2022-05-05T16:48:37+02:00*%
%TF.ProjectId,GlowTube,476c6f77-5475-4626-952e-6b696361645f,rev?*%
%TF.SameCoordinates,Original*%
%TF.FileFunction,Legend,Top*%
%TF.FilePolarity,Positive*%
%FSLAX46Y46*%
G04 Gerber Fmt 4.6, Leading zero omitted, Abs format (unit mm)*
G04 Created by KiCad (PCBNEW (6.0.4-0)) date 2022-05-05 16:48:37*
%MOMM*%
%LPD*%
G01*
G04 APERTURE LIST*
%ADD10C,0.150000*%
%ADD11C,0.400000*%
%ADD12C,0.010000*%
%ADD13C,0.120000*%
%ADD14C,0.250000*%
%ADD15C,0.200000*%
%ADD16C,0.059995*%
%ADD17C,0.127000*%
%ADD18C,0.254001*%
%ADD19C,0.151994*%
G04 APERTURE END LIST*
D10*
X105416376Y-134618304D02*
X105416376Y-133818304D01*
X105683042Y-134389733D01*
X105949709Y-133818304D01*
X105949709Y-134618304D01*
X106673519Y-134618304D02*
X106673519Y-134199257D01*
X106635423Y-134123066D01*
X106559233Y-134084971D01*
X106406852Y-134084971D01*
X106330661Y-134123066D01*
X106673519Y-134580209D02*
X106597328Y-134618304D01*
X106406852Y-134618304D01*
X106330661Y-134580209D01*
X106292566Y-134504019D01*
X106292566Y-134427828D01*
X106330661Y-134351638D01*
X106406852Y-134313542D01*
X106597328Y-134313542D01*
X106673519Y-134275447D01*
X107054471Y-134618304D02*
X107054471Y-134084971D01*
X107054471Y-133818304D02*
X107016376Y-133856400D01*
X107054471Y-133894495D01*
X107092566Y-133856400D01*
X107054471Y-133818304D01*
X107054471Y-133894495D01*
X107435423Y-134084971D02*
X107435423Y-134618304D01*
X107435423Y-134161161D02*
X107473519Y-134123066D01*
X107549709Y-134084971D01*
X107663995Y-134084971D01*
X107740185Y-134123066D01*
X107778280Y-134199257D01*
X107778280Y-134618304D01*
X108768757Y-134618304D02*
X108768757Y-133818304D01*
X109073519Y-133818304D01*
X109149709Y-133856400D01*
X109187804Y-133894495D01*
X109225900Y-133970685D01*
X109225900Y-134084971D01*
X109187804Y-134161161D01*
X109149709Y-134199257D01*
X109073519Y-134237352D01*
X108768757Y-134237352D01*
X110025900Y-134542114D02*
X109987804Y-134580209D01*
X109873519Y-134618304D01*
X109797328Y-134618304D01*
X109683042Y-134580209D01*
X109606852Y-134504019D01*
X109568757Y-134427828D01*
X109530661Y-134275447D01*
X109530661Y-134161161D01*
X109568757Y-134008780D01*
X109606852Y-133932590D01*
X109683042Y-133856400D01*
X109797328Y-133818304D01*
X109873519Y-133818304D01*
X109987804Y-133856400D01*
X110025900Y-133894495D01*
X110635423Y-134199257D02*
X110749709Y-134237352D01*
X110787804Y-134275447D01*
X110825900Y-134351638D01*
X110825900Y-134465923D01*
X110787804Y-134542114D01*
X110749709Y-134580209D01*
X110673519Y-134618304D01*
X110368757Y-134618304D01*
X110368757Y-133818304D01*
X110635423Y-133818304D01*
X110711614Y-133856400D01*
X110749709Y-133894495D01*
X110787804Y-133970685D01*
X110787804Y-134046876D01*
X110749709Y-134123066D01*
X110711614Y-134161161D01*
X110635423Y-134199257D01*
X110368757Y-134199257D01*
X111702090Y-134084971D02*
X111892566Y-134618304D01*
X112083042Y-134084971D01*
X112806852Y-134618304D02*
X112349709Y-134618304D01*
X112578280Y-134618304D02*
X112578280Y-133818304D01*
X112502090Y-133932590D01*
X112425900Y-134008780D01*
X112349709Y-134046876D01*
X113149709Y-134542114D02*
X113187804Y-134580209D01*
X113149709Y-134618304D01*
X113111614Y-134580209D01*
X113149709Y-134542114D01*
X113149709Y-134618304D01*
X113683042Y-133818304D02*
X113759233Y-133818304D01*
X113835423Y-133856400D01*
X113873519Y-133894495D01*
X113911614Y-133970685D01*
X113949709Y-134123066D01*
X113949709Y-134313542D01*
X113911614Y-134465923D01*
X113873519Y-134542114D01*
X113835423Y-134580209D01*
X113759233Y-134618304D01*
X113683042Y-134618304D01*
X113606852Y-134580209D01*
X113568757Y-134542114D01*
X113530661Y-134465923D01*
X113492566Y-134313542D01*
X113492566Y-134123066D01*
X113530661Y-133970685D01*
X113568757Y-133894495D01*
X113606852Y-133856400D01*
X113683042Y-133818304D01*
X114902090Y-134618304D02*
X114902090Y-133818304D01*
X114902090Y-134123066D02*
X114978280Y-134084971D01*
X115130661Y-134084971D01*
X115206852Y-134123066D01*
X115244947Y-134161161D01*
X115283042Y-134237352D01*
X115283042Y-134465923D01*
X115244947Y-134542114D01*
X115206852Y-134580209D01*
X115130661Y-134618304D01*
X114978280Y-134618304D01*
X114902090Y-134580209D01*
X115930661Y-134580209D02*
X115854471Y-134618304D01*
X115702090Y-134618304D01*
X115625900Y-134580209D01*
X115587804Y-134504019D01*
X115587804Y-134199257D01*
X115625900Y-134123066D01*
X115702090Y-134084971D01*
X115854471Y-134084971D01*
X115930661Y-134123066D01*
X115968757Y-134199257D01*
X115968757Y-134275447D01*
X115587804Y-134351638D01*
X116197328Y-134084971D02*
X116502090Y-134084971D01*
X116311614Y-133818304D02*
X116311614Y-134504019D01*
X116349709Y-134580209D01*
X116425900Y-134618304D01*
X116502090Y-134618304D01*
X117111614Y-134618304D02*
X117111614Y-134199257D01*
X117073519Y-134123066D01*
X116997328Y-134084971D01*
X116844947Y-134084971D01*
X116768757Y-134123066D01*
X117111614Y-134580209D02*
X117035423Y-134618304D01*
X116844947Y-134618304D01*
X116768757Y-134580209D01*
X116730661Y-134504019D01*
X116730661Y-134427828D01*
X116768757Y-134351638D01*
X116844947Y-134313542D01*
X117035423Y-134313542D01*
X117111614Y-134275447D01*
X118063995Y-133894495D02*
X118102090Y-133856400D01*
X118178280Y-133818304D01*
X118368757Y-133818304D01*
X118444947Y-133856400D01*
X118483042Y-133894495D01*
X118521138Y-133970685D01*
X118521138Y-134046876D01*
X118483042Y-134161161D01*
X118025900Y-134618304D01*
X118521138Y-134618304D01*
X91327976Y-136183904D02*
X91327976Y-135383904D01*
X91861309Y-135383904D02*
X92013690Y-135383904D01*
X92089880Y-135422000D01*
X92166071Y-135498190D01*
X92204166Y-135650571D01*
X92204166Y-135917238D01*
X92166071Y-136069619D01*
X92089880Y-136145809D01*
X92013690Y-136183904D01*
X91861309Y-136183904D01*
X91785119Y-136145809D01*
X91708928Y-136069619D01*
X91670833Y-135917238D01*
X91670833Y-135650571D01*
X91708928Y-135498190D01*
X91785119Y-135422000D01*
X91861309Y-135383904D01*
X92966071Y-136183904D02*
X92508928Y-136183904D01*
X92737500Y-136183904D02*
X92737500Y-135383904D01*
X92661309Y-135498190D01*
X92585119Y-135574380D01*
X92508928Y-135612476D01*
X93270833Y-135460095D02*
X93308928Y-135422000D01*
X93385119Y-135383904D01*
X93575595Y-135383904D01*
X93651785Y-135422000D01*
X93689880Y-135460095D01*
X93727976Y-135536285D01*
X93727976Y-135612476D01*
X93689880Y-135726761D01*
X93232738Y-136183904D01*
X93727976Y-136183904D01*
X94642261Y-135345809D02*
X93956547Y-136374380D01*
X94908928Y-136183904D02*
X94908928Y-135383904D01*
X95175595Y-135955333D01*
X95442261Y-135383904D01*
X95442261Y-136183904D01*
X95823214Y-136183904D02*
X95823214Y-135383904D01*
X96166071Y-136145809D02*
X96280357Y-136183904D01*
X96470833Y-136183904D01*
X96547023Y-136145809D01*
X96585119Y-136107714D01*
X96623214Y-136031523D01*
X96623214Y-135955333D01*
X96585119Y-135879142D01*
X96547023Y-135841047D01*
X96470833Y-135802952D01*
X96318452Y-135764857D01*
X96242261Y-135726761D01*
X96204166Y-135688666D01*
X96166071Y-135612476D01*
X96166071Y-135536285D01*
X96204166Y-135460095D01*
X96242261Y-135422000D01*
X96318452Y-135383904D01*
X96508928Y-135383904D01*
X96623214Y-135422000D01*
X97118452Y-135383904D02*
X97270833Y-135383904D01*
X97347023Y-135422000D01*
X97423214Y-135498190D01*
X97461309Y-135650571D01*
X97461309Y-135917238D01*
X97423214Y-136069619D01*
X97347023Y-136145809D01*
X97270833Y-136183904D01*
X97118452Y-136183904D01*
X97042261Y-136145809D01*
X96966071Y-136069619D01*
X96927976Y-135917238D01*
X96927976Y-135650571D01*
X96966071Y-135498190D01*
X97042261Y-135422000D01*
X97118452Y-135383904D01*
X91327976Y-138759904D02*
X91327976Y-137959904D01*
X91861309Y-137959904D02*
X92013690Y-137959904D01*
X92089880Y-137998000D01*
X92166071Y-138074190D01*
X92204166Y-138226571D01*
X92204166Y-138493238D01*
X92166071Y-138645619D01*
X92089880Y-138721809D01*
X92013690Y-138759904D01*
X91861309Y-138759904D01*
X91785119Y-138721809D01*
X91708928Y-138645619D01*
X91670833Y-138493238D01*
X91670833Y-138226571D01*
X91708928Y-138074190D01*
X91785119Y-137998000D01*
X91861309Y-137959904D01*
X92966071Y-138759904D02*
X92508928Y-138759904D01*
X92737500Y-138759904D02*
X92737500Y-137959904D01*
X92661309Y-138074190D01*
X92585119Y-138150380D01*
X92508928Y-138188476D01*
X93232738Y-137959904D02*
X93727976Y-137959904D01*
X93461309Y-138264666D01*
X93575595Y-138264666D01*
X93651785Y-138302761D01*
X93689880Y-138340857D01*
X93727976Y-138417047D01*
X93727976Y-138607523D01*
X93689880Y-138683714D01*
X93651785Y-138721809D01*
X93575595Y-138759904D01*
X93347023Y-138759904D01*
X93270833Y-138721809D01*
X93232738Y-138683714D01*
X94642261Y-137921809D02*
X93956547Y-138950380D01*
X94908928Y-138759904D02*
X94908928Y-137959904D01*
X95175595Y-138531333D01*
X95442261Y-137959904D01*
X95442261Y-138759904D01*
X95975595Y-137959904D02*
X96127976Y-137959904D01*
X96204166Y-137998000D01*
X96280357Y-138074190D01*
X96318452Y-138226571D01*
X96318452Y-138493238D01*
X96280357Y-138645619D01*
X96204166Y-138721809D01*
X96127976Y-138759904D01*
X95975595Y-138759904D01*
X95899404Y-138721809D01*
X95823214Y-138645619D01*
X95785119Y-138493238D01*
X95785119Y-138226571D01*
X95823214Y-138074190D01*
X95899404Y-137998000D01*
X95975595Y-137959904D01*
X96623214Y-138721809D02*
X96737500Y-138759904D01*
X96927976Y-138759904D01*
X97004166Y-138721809D01*
X97042261Y-138683714D01*
X97080357Y-138607523D01*
X97080357Y-138531333D01*
X97042261Y-138455142D01*
X97004166Y-138417047D01*
X96927976Y-138378952D01*
X96775595Y-138340857D01*
X96699404Y-138302761D01*
X96661309Y-138264666D01*
X96623214Y-138188476D01*
X96623214Y-138112285D01*
X96661309Y-138036095D01*
X96699404Y-137998000D01*
X96775595Y-137959904D01*
X96966071Y-137959904D01*
X97080357Y-137998000D01*
X97423214Y-138759904D02*
X97423214Y-137959904D01*
X91327976Y-141335904D02*
X91327976Y-140535904D01*
X91861309Y-140535904D02*
X92013690Y-140535904D01*
X92089880Y-140574000D01*
X92166071Y-140650190D01*
X92204166Y-140802571D01*
X92204166Y-141069238D01*
X92166071Y-141221619D01*
X92089880Y-141297809D01*
X92013690Y-141335904D01*
X91861309Y-141335904D01*
X91785119Y-141297809D01*
X91708928Y-141221619D01*
X91670833Y-141069238D01*
X91670833Y-140802571D01*
X91708928Y-140650190D01*
X91785119Y-140574000D01*
X91861309Y-140535904D01*
X92508928Y-140612095D02*
X92547023Y-140574000D01*
X92623214Y-140535904D01*
X92813690Y-140535904D01*
X92889880Y-140574000D01*
X92927976Y-140612095D01*
X92966071Y-140688285D01*
X92966071Y-140764476D01*
X92927976Y-140878761D01*
X92470833Y-141335904D01*
X92966071Y-141335904D01*
X93689880Y-140535904D02*
X93308928Y-140535904D01*
X93270833Y-140916857D01*
X93308928Y-140878761D01*
X93385119Y-140840666D01*
X93575595Y-140840666D01*
X93651785Y-140878761D01*
X93689880Y-140916857D01*
X93727976Y-140993047D01*
X93727976Y-141183523D01*
X93689880Y-141259714D01*
X93651785Y-141297809D01*
X93575595Y-141335904D01*
X93385119Y-141335904D01*
X93308928Y-141297809D01*
X93270833Y-141259714D01*
X94642261Y-140497809D02*
X93956547Y-141526380D01*
X94870833Y-141107333D02*
X95251785Y-141107333D01*
X94794642Y-141335904D02*
X95061309Y-140535904D01*
X95327976Y-141335904D01*
X96013690Y-141335904D02*
X95556547Y-141335904D01*
X95785119Y-141335904D02*
X95785119Y-140535904D01*
X95708928Y-140650190D01*
X95632738Y-140726380D01*
X95556547Y-140764476D01*
X91327976Y-143911904D02*
X91327976Y-143111904D01*
X91861309Y-143111904D02*
X92013690Y-143111904D01*
X92089880Y-143150000D01*
X92166071Y-143226190D01*
X92204166Y-143378571D01*
X92204166Y-143645238D01*
X92166071Y-143797619D01*
X92089880Y-143873809D01*
X92013690Y-143911904D01*
X91861309Y-143911904D01*
X91785119Y-143873809D01*
X91708928Y-143797619D01*
X91670833Y-143645238D01*
X91670833Y-143378571D01*
X91708928Y-143226190D01*
X91785119Y-143150000D01*
X91861309Y-143111904D01*
X92508928Y-143188095D02*
X92547023Y-143150000D01*
X92623214Y-143111904D01*
X92813690Y-143111904D01*
X92889880Y-143150000D01*
X92927976Y-143188095D01*
X92966071Y-143264285D01*
X92966071Y-143340476D01*
X92927976Y-143454761D01*
X92470833Y-143911904D01*
X92966071Y-143911904D01*
X93651785Y-143111904D02*
X93499404Y-143111904D01*
X93423214Y-143150000D01*
X93385119Y-143188095D01*
X93308928Y-143302380D01*
X93270833Y-143454761D01*
X93270833Y-143759523D01*
X93308928Y-143835714D01*
X93347023Y-143873809D01*
X93423214Y-143911904D01*
X93575595Y-143911904D01*
X93651785Y-143873809D01*
X93689880Y-143835714D01*
X93727976Y-143759523D01*
X93727976Y-143569047D01*
X93689880Y-143492857D01*
X93651785Y-143454761D01*
X93575595Y-143416666D01*
X93423214Y-143416666D01*
X93347023Y-143454761D01*
X93308928Y-143492857D01*
X93270833Y-143569047D01*
X94642261Y-143073809D02*
X93956547Y-144102380D01*
X94870833Y-143683333D02*
X95251785Y-143683333D01*
X94794642Y-143911904D02*
X95061309Y-143111904D01*
X95327976Y-143911904D01*
X95747023Y-143111904D02*
X95823214Y-143111904D01*
X95899404Y-143150000D01*
X95937500Y-143188095D01*
X95975595Y-143264285D01*
X96013690Y-143416666D01*
X96013690Y-143607142D01*
X95975595Y-143759523D01*
X95937500Y-143835714D01*
X95899404Y-143873809D01*
X95823214Y-143911904D01*
X95747023Y-143911904D01*
X95670833Y-143873809D01*
X95632738Y-143835714D01*
X95594642Y-143759523D01*
X95556547Y-143607142D01*
X95556547Y-143416666D01*
X95594642Y-143264285D01*
X95632738Y-143188095D01*
X95670833Y-143150000D01*
X95747023Y-143111904D01*
X91251785Y-145687904D02*
X91747023Y-145687904D01*
X91480357Y-145992666D01*
X91594642Y-145992666D01*
X91670833Y-146030761D01*
X91708928Y-146068857D01*
X91747023Y-146145047D01*
X91747023Y-146335523D01*
X91708928Y-146411714D01*
X91670833Y-146449809D01*
X91594642Y-146487904D01*
X91366071Y-146487904D01*
X91289880Y-146449809D01*
X91251785Y-146411714D01*
X92089880Y-146411714D02*
X92127976Y-146449809D01*
X92089880Y-146487904D01*
X92051785Y-146449809D01*
X92089880Y-146411714D01*
X92089880Y-146487904D01*
X92394642Y-145687904D02*
X92889880Y-145687904D01*
X92623214Y-145992666D01*
X92737500Y-145992666D01*
X92813690Y-146030761D01*
X92851785Y-146068857D01*
X92889880Y-146145047D01*
X92889880Y-146335523D01*
X92851785Y-146411714D01*
X92813690Y-146449809D01*
X92737500Y-146487904D01*
X92508928Y-146487904D01*
X92432738Y-146449809D01*
X92394642Y-146411714D01*
X93118452Y-145687904D02*
X93385119Y-146487904D01*
X93651785Y-145687904D01*
X91708928Y-148263904D02*
X91327976Y-148263904D01*
X91289880Y-148644857D01*
X91327976Y-148606761D01*
X91404166Y-148568666D01*
X91594642Y-148568666D01*
X91670833Y-148606761D01*
X91708928Y-148644857D01*
X91747023Y-148721047D01*
X91747023Y-148911523D01*
X91708928Y-148987714D01*
X91670833Y-149025809D01*
X91594642Y-149063904D01*
X91404166Y-149063904D01*
X91327976Y-149025809D01*
X91289880Y-148987714D01*
X91975595Y-148263904D02*
X92242261Y-149063904D01*
X92508928Y-148263904D01*
X91747023Y-150878000D02*
X91670833Y-150839904D01*
X91556547Y-150839904D01*
X91442261Y-150878000D01*
X91366071Y-150954190D01*
X91327976Y-151030380D01*
X91289880Y-151182761D01*
X91289880Y-151297047D01*
X91327976Y-151449428D01*
X91366071Y-151525619D01*
X91442261Y-151601809D01*
X91556547Y-151639904D01*
X91632738Y-151639904D01*
X91747023Y-151601809D01*
X91785119Y-151563714D01*
X91785119Y-151297047D01*
X91632738Y-151297047D01*
X92127976Y-151639904D02*
X92127976Y-150839904D01*
X92585119Y-151639904D01*
X92585119Y-150839904D01*
X92966071Y-151639904D02*
X92966071Y-150839904D01*
X93156547Y-150839904D01*
X93270833Y-150878000D01*
X93347023Y-150954190D01*
X93385119Y-151030380D01*
X93423214Y-151182761D01*
X93423214Y-151297047D01*
X93385119Y-151449428D01*
X93347023Y-151525619D01*
X93270833Y-151601809D01*
X93156547Y-151639904D01*
X92966071Y-151639904D01*
X164348095Y-85365000D02*
X164252857Y-85317380D01*
X164110000Y-85317380D01*
X163967142Y-85365000D01*
X163871904Y-85460238D01*
X163824285Y-85555476D01*
X163776666Y-85745952D01*
X163776666Y-85888809D01*
X163824285Y-86079285D01*
X163871904Y-86174523D01*
X163967142Y-86269761D01*
X164110000Y-86317380D01*
X164205238Y-86317380D01*
X164348095Y-86269761D01*
X164395714Y-86222142D01*
X164395714Y-85888809D01*
X164205238Y-85888809D01*
X164824285Y-86317380D02*
X164824285Y-85317380D01*
X165395714Y-86317380D01*
X165395714Y-85317380D01*
X165871904Y-86317380D02*
X165871904Y-85317380D01*
X166110000Y-85317380D01*
X166252857Y-85365000D01*
X166348095Y-85460238D01*
X166395714Y-85555476D01*
X166443333Y-85745952D01*
X166443333Y-85888809D01*
X166395714Y-86079285D01*
X166348095Y-86174523D01*
X166252857Y-86269761D01*
X166110000Y-86317380D01*
X165871904Y-86317380D01*
X156500952Y-86317380D02*
X156024761Y-86317380D01*
X156024761Y-85317380D01*
X156834285Y-85793571D02*
X157167619Y-85793571D01*
X157310476Y-86317380D02*
X156834285Y-86317380D01*
X156834285Y-85317380D01*
X157310476Y-85317380D01*
X157739047Y-86317380D02*
X157739047Y-85317380D01*
X157977142Y-85317380D01*
X158120000Y-85365000D01*
X158215238Y-85460238D01*
X158262857Y-85555476D01*
X158310476Y-85745952D01*
X158310476Y-85888809D01*
X158262857Y-86079285D01*
X158215238Y-86174523D01*
X158120000Y-86269761D01*
X157977142Y-86317380D01*
X157739047Y-86317380D01*
X159262857Y-86317380D02*
X158691428Y-86317380D01*
X158977142Y-86317380D02*
X158977142Y-85317380D01*
X158881904Y-85460238D01*
X158786666Y-85555476D01*
X158691428Y-85603095D01*
X155762857Y-88308333D02*
X155715238Y-88260714D01*
X155620000Y-88117857D01*
X155572380Y-88022619D01*
X155524761Y-87879761D01*
X155477142Y-87641666D01*
X155477142Y-87451190D01*
X155524761Y-87213095D01*
X155572380Y-87070238D01*
X155620000Y-86975000D01*
X155715238Y-86832142D01*
X155762857Y-86784523D01*
X156143809Y-87927380D02*
X156143809Y-86927380D01*
X156810476Y-86927380D02*
X157000952Y-86927380D01*
X157096190Y-86975000D01*
X157191428Y-87070238D01*
X157239047Y-87260714D01*
X157239047Y-87594047D01*
X157191428Y-87784523D01*
X157096190Y-87879761D01*
X157000952Y-87927380D01*
X156810476Y-87927380D01*
X156715238Y-87879761D01*
X156620000Y-87784523D01*
X156572380Y-87594047D01*
X156572380Y-87260714D01*
X156620000Y-87070238D01*
X156715238Y-86975000D01*
X156810476Y-86927380D01*
X158191428Y-87927380D02*
X157620000Y-87927380D01*
X157905714Y-87927380D02*
X157905714Y-86927380D01*
X157810476Y-87070238D01*
X157715238Y-87165476D01*
X157620000Y-87213095D01*
X159048571Y-86927380D02*
X158858095Y-86927380D01*
X158762857Y-86975000D01*
X158715238Y-87022619D01*
X158620000Y-87165476D01*
X158572380Y-87355952D01*
X158572380Y-87736904D01*
X158620000Y-87832142D01*
X158667619Y-87879761D01*
X158762857Y-87927380D01*
X158953333Y-87927380D01*
X159048571Y-87879761D01*
X159096190Y-87832142D01*
X159143809Y-87736904D01*
X159143809Y-87498809D01*
X159096190Y-87403571D01*
X159048571Y-87355952D01*
X158953333Y-87308333D01*
X158762857Y-87308333D01*
X158667619Y-87355952D01*
X158620000Y-87403571D01*
X158572380Y-87498809D01*
X159477142Y-88308333D02*
X159524761Y-88260714D01*
X159620000Y-88117857D01*
X159667619Y-88022619D01*
X159715238Y-87879761D01*
X159762857Y-87641666D01*
X159762857Y-87451190D01*
X159715238Y-87213095D01*
X159667619Y-87070238D01*
X159620000Y-86975000D01*
X159524761Y-86832142D01*
X159477142Y-86784523D01*
X137347619Y-143932380D02*
X137014285Y-143456190D01*
X136776190Y-143932380D02*
X136776190Y-142932380D01*
X137157142Y-142932380D01*
X137252380Y-142980000D01*
X137300000Y-143027619D01*
X137347619Y-143122857D01*
X137347619Y-143265714D01*
X137300000Y-143360952D01*
X137252380Y-143408571D01*
X137157142Y-143456190D01*
X136776190Y-143456190D01*
X137776190Y-143408571D02*
X138109523Y-143408571D01*
X138252380Y-143932380D02*
X137776190Y-143932380D01*
X137776190Y-142932380D01*
X138252380Y-142932380D01*
X138633333Y-143884761D02*
X138776190Y-143932380D01*
X139014285Y-143932380D01*
X139109523Y-143884761D01*
X139157142Y-143837142D01*
X139204761Y-143741904D01*
X139204761Y-143646666D01*
X139157142Y-143551428D01*
X139109523Y-143503809D01*
X139014285Y-143456190D01*
X138823809Y-143408571D01*
X138728571Y-143360952D01*
X138680952Y-143313333D01*
X138633333Y-143218095D01*
X138633333Y-143122857D01*
X138680952Y-143027619D01*
X138728571Y-142980000D01*
X138823809Y-142932380D01*
X139061904Y-142932380D01*
X139204761Y-142980000D01*
X139633333Y-143408571D02*
X139966666Y-143408571D01*
X140109523Y-143932380D02*
X139633333Y-143932380D01*
X139633333Y-142932380D01*
X140109523Y-142932380D01*
X140395238Y-142932380D02*
X140966666Y-142932380D01*
X140680952Y-143932380D02*
X140680952Y-142932380D01*
X149909523Y-85317380D02*
X149433333Y-85317380D01*
X149385714Y-85793571D01*
X149433333Y-85745952D01*
X149528571Y-85698333D01*
X149766666Y-85698333D01*
X149861904Y-85745952D01*
X149909523Y-85793571D01*
X149957142Y-85888809D01*
X149957142Y-86126904D01*
X149909523Y-86222142D01*
X149861904Y-86269761D01*
X149766666Y-86317380D01*
X149528571Y-86317380D01*
X149433333Y-86269761D01*
X149385714Y-86222142D01*
X150242857Y-85317380D02*
X150576190Y-86317380D01*
X150909523Y-85317380D01*
D11*
X106861361Y-130771200D02*
X106623266Y-130652152D01*
X106266123Y-130652152D01*
X105908980Y-130771200D01*
X105670885Y-131009295D01*
X105551838Y-131247390D01*
X105432790Y-131723580D01*
X105432790Y-132080723D01*
X105551838Y-132556914D01*
X105670885Y-132795009D01*
X105908980Y-133033104D01*
X106266123Y-133152152D01*
X106504219Y-133152152D01*
X106861361Y-133033104D01*
X106980409Y-132914057D01*
X106980409Y-132080723D01*
X106504219Y-132080723D01*
X108408980Y-133152152D02*
X108170885Y-133033104D01*
X108051838Y-132795009D01*
X108051838Y-130652152D01*
X109718504Y-133152152D02*
X109480409Y-133033104D01*
X109361361Y-132914057D01*
X109242314Y-132675961D01*
X109242314Y-131961676D01*
X109361361Y-131723580D01*
X109480409Y-131604533D01*
X109718504Y-131485485D01*
X110075647Y-131485485D01*
X110313742Y-131604533D01*
X110432790Y-131723580D01*
X110551838Y-131961676D01*
X110551838Y-132675961D01*
X110432790Y-132914057D01*
X110313742Y-133033104D01*
X110075647Y-133152152D01*
X109718504Y-133152152D01*
X111385171Y-131485485D02*
X111861361Y-133152152D01*
X112337552Y-131961676D01*
X112813742Y-133152152D01*
X113289933Y-131485485D01*
X113885171Y-130652152D02*
X115313742Y-130652152D01*
X114599457Y-133152152D02*
X114599457Y-130652152D01*
X117218504Y-131485485D02*
X117218504Y-133152152D01*
X116147076Y-131485485D02*
X116147076Y-132795009D01*
X116266123Y-133033104D01*
X116504219Y-133152152D01*
X116861361Y-133152152D01*
X117099457Y-133033104D01*
X117218504Y-132914057D01*
X118408980Y-133152152D02*
X118408980Y-130652152D01*
X118408980Y-131604533D02*
X118647076Y-131485485D01*
X119123266Y-131485485D01*
X119361361Y-131604533D01*
X119480409Y-131723580D01*
X119599457Y-131961676D01*
X119599457Y-132675961D01*
X119480409Y-132914057D01*
X119361361Y-133033104D01*
X119123266Y-133152152D01*
X118647076Y-133152152D01*
X118408980Y-133033104D01*
X121623266Y-133033104D02*
X121385171Y-133152152D01*
X120908980Y-133152152D01*
X120670885Y-133033104D01*
X120551838Y-132795009D01*
X120551838Y-131842628D01*
X120670885Y-131604533D01*
X120908980Y-131485485D01*
X121385171Y-131485485D01*
X121623266Y-131604533D01*
X121742314Y-131842628D01*
X121742314Y-132080723D01*
X120551838Y-132318819D01*
D10*
X130082857Y-143408571D02*
X130225714Y-143456190D01*
X130273333Y-143503809D01*
X130320952Y-143599047D01*
X130320952Y-143741904D01*
X130273333Y-143837142D01*
X130225714Y-143884761D01*
X130130476Y-143932380D01*
X129749523Y-143932380D01*
X129749523Y-142932380D01*
X130082857Y-142932380D01*
X130178095Y-142980000D01*
X130225714Y-143027619D01*
X130273333Y-143122857D01*
X130273333Y-143218095D01*
X130225714Y-143313333D01*
X130178095Y-143360952D01*
X130082857Y-143408571D01*
X129749523Y-143408571D01*
X130940000Y-142932380D02*
X131130476Y-142932380D01*
X131225714Y-142980000D01*
X131320952Y-143075238D01*
X131368571Y-143265714D01*
X131368571Y-143599047D01*
X131320952Y-143789523D01*
X131225714Y-143884761D01*
X131130476Y-143932380D01*
X130940000Y-143932380D01*
X130844761Y-143884761D01*
X130749523Y-143789523D01*
X130701904Y-143599047D01*
X130701904Y-143265714D01*
X130749523Y-143075238D01*
X130844761Y-142980000D01*
X130940000Y-142932380D01*
X131987619Y-142932380D02*
X132178095Y-142932380D01*
X132273333Y-142980000D01*
X132368571Y-143075238D01*
X132416190Y-143265714D01*
X132416190Y-143599047D01*
X132368571Y-143789523D01*
X132273333Y-143884761D01*
X132178095Y-143932380D01*
X131987619Y-143932380D01*
X131892380Y-143884761D01*
X131797142Y-143789523D01*
X131749523Y-143599047D01*
X131749523Y-143265714D01*
X131797142Y-143075238D01*
X131892380Y-142980000D01*
X131987619Y-142932380D01*
X132701904Y-142932380D02*
X133273333Y-142932380D01*
X132987619Y-143932380D02*
X132987619Y-142932380D01*
X105784633Y-137259904D02*
X105784633Y-136459904D01*
X105784633Y-137221809D02*
X105708442Y-137259904D01*
X105556061Y-137259904D01*
X105479871Y-137221809D01*
X105441776Y-137183714D01*
X105403680Y-137107523D01*
X105403680Y-136878952D01*
X105441776Y-136802761D01*
X105479871Y-136764666D01*
X105556061Y-136726571D01*
X105708442Y-136726571D01*
X105784633Y-136764666D01*
X106470347Y-137221809D02*
X106394157Y-137259904D01*
X106241776Y-137259904D01*
X106165585Y-137221809D01*
X106127490Y-137145619D01*
X106127490Y-136840857D01*
X106165585Y-136764666D01*
X106241776Y-136726571D01*
X106394157Y-136726571D01*
X106470347Y-136764666D01*
X106508442Y-136840857D01*
X106508442Y-136917047D01*
X106127490Y-136993238D01*
X106813204Y-137221809D02*
X106889395Y-137259904D01*
X107041776Y-137259904D01*
X107117966Y-137221809D01*
X107156061Y-137145619D01*
X107156061Y-137107523D01*
X107117966Y-137031333D01*
X107041776Y-136993238D01*
X106927490Y-136993238D01*
X106851300Y-136955142D01*
X106813204Y-136878952D01*
X106813204Y-136840857D01*
X106851300Y-136764666D01*
X106927490Y-136726571D01*
X107041776Y-136726571D01*
X107117966Y-136764666D01*
X107498919Y-137259904D02*
X107498919Y-136726571D01*
X107498919Y-136459904D02*
X107460823Y-136498000D01*
X107498919Y-136536095D01*
X107537014Y-136498000D01*
X107498919Y-136459904D01*
X107498919Y-136536095D01*
X108222728Y-136726571D02*
X108222728Y-137374190D01*
X108184633Y-137450380D01*
X108146538Y-137488476D01*
X108070347Y-137526571D01*
X107956061Y-137526571D01*
X107879871Y-137488476D01*
X108222728Y-137221809D02*
X108146538Y-137259904D01*
X107994157Y-137259904D01*
X107917966Y-137221809D01*
X107879871Y-137183714D01*
X107841776Y-137107523D01*
X107841776Y-136878952D01*
X107879871Y-136802761D01*
X107917966Y-136764666D01*
X107994157Y-136726571D01*
X108146538Y-136726571D01*
X108222728Y-136764666D01*
X108603680Y-136726571D02*
X108603680Y-137259904D01*
X108603680Y-136802761D02*
X108641776Y-136764666D01*
X108717966Y-136726571D01*
X108832252Y-136726571D01*
X108908442Y-136764666D01*
X108946538Y-136840857D01*
X108946538Y-137259904D01*
X109632252Y-137221809D02*
X109556061Y-137259904D01*
X109403680Y-137259904D01*
X109327490Y-137221809D01*
X109289395Y-137145619D01*
X109289395Y-136840857D01*
X109327490Y-136764666D01*
X109403680Y-136726571D01*
X109556061Y-136726571D01*
X109632252Y-136764666D01*
X109670347Y-136840857D01*
X109670347Y-136917047D01*
X109289395Y-136993238D01*
X110356061Y-137259904D02*
X110356061Y-136459904D01*
X110356061Y-137221809D02*
X110279871Y-137259904D01*
X110127490Y-137259904D01*
X110051300Y-137221809D01*
X110013204Y-137183714D01*
X109975109Y-137107523D01*
X109975109Y-136878952D01*
X110013204Y-136802761D01*
X110051300Y-136764666D01*
X110127490Y-136726571D01*
X110279871Y-136726571D01*
X110356061Y-136764666D01*
X111346538Y-137259904D02*
X111346538Y-136459904D01*
X111346538Y-136764666D02*
X111422728Y-136726571D01*
X111575109Y-136726571D01*
X111651300Y-136764666D01*
X111689395Y-136802761D01*
X111727490Y-136878952D01*
X111727490Y-137107523D01*
X111689395Y-137183714D01*
X111651300Y-137221809D01*
X111575109Y-137259904D01*
X111422728Y-137259904D01*
X111346538Y-137221809D01*
X111994157Y-136726571D02*
X112184633Y-137259904D01*
X112375109Y-136726571D02*
X112184633Y-137259904D01*
X112108442Y-137450380D01*
X112070347Y-137488476D01*
X111994157Y-137526571D01*
X117011049Y-158928496D02*
X117011049Y-158128496D01*
X117315811Y-158128496D01*
X117392001Y-158166592D01*
X117430096Y-158204687D01*
X117468192Y-158280877D01*
X117468192Y-158395163D01*
X117430096Y-158471353D01*
X117392001Y-158509449D01*
X117315811Y-158547544D01*
X117011049Y-158547544D01*
X118268192Y-158852306D02*
X118230096Y-158890401D01*
X118115811Y-158928496D01*
X118039620Y-158928496D01*
X117925334Y-158890401D01*
X117849144Y-158814211D01*
X117811049Y-158738020D01*
X117772953Y-158585639D01*
X117772953Y-158471353D01*
X117811049Y-158318972D01*
X117849144Y-158242782D01*
X117925334Y-158166592D01*
X118039620Y-158128496D01*
X118115811Y-158128496D01*
X118230096Y-158166592D01*
X118268192Y-158204687D01*
X118877715Y-158509449D02*
X118992001Y-158547544D01*
X119030096Y-158585639D01*
X119068192Y-158661830D01*
X119068192Y-158776115D01*
X119030096Y-158852306D01*
X118992001Y-158890401D01*
X118915811Y-158928496D01*
X118611049Y-158928496D01*
X118611049Y-158128496D01*
X118877715Y-158128496D01*
X118953906Y-158166592D01*
X118992001Y-158204687D01*
X119030096Y-158280877D01*
X119030096Y-158357068D01*
X118992001Y-158433258D01*
X118953906Y-158471353D01*
X118877715Y-158509449D01*
X118611049Y-158509449D01*
X119906287Y-158395163D02*
X120211049Y-158395163D01*
X120020573Y-158928496D02*
X120020573Y-158242782D01*
X120058668Y-158166592D01*
X120134858Y-158128496D01*
X120211049Y-158128496D01*
X120477715Y-158928496D02*
X120477715Y-158395163D01*
X120477715Y-158128496D02*
X120439620Y-158166592D01*
X120477715Y-158204687D01*
X120515811Y-158166592D01*
X120477715Y-158128496D01*
X120477715Y-158204687D01*
X120972953Y-158928496D02*
X120896763Y-158890401D01*
X120858668Y-158814211D01*
X120858668Y-158128496D01*
X121582477Y-158890401D02*
X121506287Y-158928496D01*
X121353906Y-158928496D01*
X121277715Y-158890401D01*
X121239620Y-158814211D01*
X121239620Y-158509449D01*
X121277715Y-158433258D01*
X121353906Y-158395163D01*
X121506287Y-158395163D01*
X121582477Y-158433258D01*
X121620573Y-158509449D01*
X121620573Y-158585639D01*
X121239620Y-158661830D01*
X121925334Y-158890401D02*
X122001525Y-158928496D01*
X122153906Y-158928496D01*
X122230096Y-158890401D01*
X122268192Y-158814211D01*
X122268192Y-158776115D01*
X122230096Y-158699925D01*
X122153906Y-158661830D01*
X122039620Y-158661830D01*
X121963430Y-158623734D01*
X121925334Y-158547544D01*
X121925334Y-158509449D01*
X121963430Y-158433258D01*
X122039620Y-158395163D01*
X122153906Y-158395163D01*
X122230096Y-158433258D01*
X122611049Y-158852306D02*
X122649144Y-158890401D01*
X122611049Y-158928496D01*
X122572953Y-158890401D01*
X122611049Y-158852306D01*
X122611049Y-158928496D01*
X122611049Y-158433258D02*
X122649144Y-158471353D01*
X122611049Y-158509449D01*
X122572953Y-158471353D01*
X122611049Y-158433258D01*
X122611049Y-158509449D01*
X117011049Y-160216496D02*
X117011049Y-159416496D01*
X117353906Y-160216496D02*
X117353906Y-159797449D01*
X117315811Y-159721258D01*
X117239620Y-159683163D01*
X117125334Y-159683163D01*
X117049144Y-159721258D01*
X117011049Y-159759353D01*
X117620573Y-159683163D02*
X117925334Y-159683163D01*
X117734858Y-159416496D02*
X117734858Y-160102211D01*
X117772953Y-160178401D01*
X117849144Y-160216496D01*
X117925334Y-160216496D01*
X118077715Y-159683163D02*
X118382477Y-159683163D01*
X118192001Y-159416496D02*
X118192001Y-160102211D01*
X118230096Y-160178401D01*
X118306287Y-160216496D01*
X118382477Y-160216496D01*
X118649144Y-159683163D02*
X118649144Y-160483163D01*
X118649144Y-159721258D02*
X118725334Y-159683163D01*
X118877715Y-159683163D01*
X118953906Y-159721258D01*
X118992001Y-159759353D01*
X119030096Y-159835544D01*
X119030096Y-160064115D01*
X118992001Y-160140306D01*
X118953906Y-160178401D01*
X118877715Y-160216496D01*
X118725334Y-160216496D01*
X118649144Y-160178401D01*
X119334858Y-160178401D02*
X119411049Y-160216496D01*
X119563430Y-160216496D01*
X119639620Y-160178401D01*
X119677715Y-160102211D01*
X119677715Y-160064115D01*
X119639620Y-159987925D01*
X119563430Y-159949830D01*
X119449144Y-159949830D01*
X119372953Y-159911734D01*
X119334858Y-159835544D01*
X119334858Y-159797449D01*
X119372953Y-159721258D01*
X119449144Y-159683163D01*
X119563430Y-159683163D01*
X119639620Y-159721258D01*
X120020573Y-160140306D02*
X120058668Y-160178401D01*
X120020573Y-160216496D01*
X119982477Y-160178401D01*
X120020573Y-160140306D01*
X120020573Y-160216496D01*
X120020573Y-159721258D02*
X120058668Y-159759353D01*
X120020573Y-159797449D01*
X119982477Y-159759353D01*
X120020573Y-159721258D01*
X120020573Y-159797449D01*
X120972953Y-159378401D02*
X120287239Y-160406972D01*
X121811049Y-159378401D02*
X121125334Y-160406972D01*
X122077715Y-160216496D02*
X122077715Y-159416496D01*
X122077715Y-159721258D02*
X122153906Y-159683163D01*
X122306287Y-159683163D01*
X122382477Y-159721258D01*
X122420573Y-159759353D01*
X122458668Y-159835544D01*
X122458668Y-160064115D01*
X122420573Y-160140306D01*
X122382477Y-160178401D01*
X122306287Y-160216496D01*
X122153906Y-160216496D01*
X122077715Y-160178401D01*
X122801525Y-160216496D02*
X122801525Y-159683163D01*
X122801525Y-159416496D02*
X122763430Y-159454592D01*
X122801525Y-159492687D01*
X122839620Y-159454592D01*
X122801525Y-159416496D01*
X122801525Y-159492687D01*
X123068192Y-159683163D02*
X123372953Y-159683163D01*
X123182477Y-159416496D02*
X123182477Y-160102211D01*
X123220573Y-160178401D01*
X123296763Y-160216496D01*
X123372953Y-160216496D01*
X123639620Y-160140306D02*
X123677715Y-160178401D01*
X123639620Y-160216496D01*
X123601525Y-160178401D01*
X123639620Y-160140306D01*
X123639620Y-160216496D01*
X124134858Y-160216496D02*
X124058668Y-160178401D01*
X124020573Y-160102211D01*
X124020573Y-159416496D01*
X124363430Y-159683163D02*
X124553906Y-160216496D01*
X124744382Y-159683163D02*
X124553906Y-160216496D01*
X124477715Y-160406972D01*
X124439620Y-160445068D01*
X124363430Y-160483163D01*
X125620573Y-159378401D02*
X124934858Y-160406972D01*
X125811049Y-159416496D02*
X126306287Y-159416496D01*
X126039620Y-159721258D01*
X126153906Y-159721258D01*
X126230096Y-159759353D01*
X126268192Y-159797449D01*
X126306287Y-159873639D01*
X126306287Y-160064115D01*
X126268192Y-160140306D01*
X126230096Y-160178401D01*
X126153906Y-160216496D01*
X125925334Y-160216496D01*
X125849144Y-160178401D01*
X125811049Y-160140306D01*
X126611049Y-160178401D02*
X126687239Y-160216496D01*
X126839620Y-160216496D01*
X126915811Y-160178401D01*
X126953906Y-160102211D01*
X126953906Y-160064115D01*
X126915811Y-159987925D01*
X126839620Y-159949830D01*
X126725334Y-159949830D01*
X126649144Y-159911734D01*
X126611049Y-159835544D01*
X126611049Y-159797449D01*
X126649144Y-159721258D01*
X126725334Y-159683163D01*
X126839620Y-159683163D01*
X126915811Y-159721258D01*
X127296763Y-160216496D02*
X127296763Y-159683163D01*
X127296763Y-159835544D02*
X127334858Y-159759353D01*
X127372953Y-159721258D01*
X127449144Y-159683163D01*
X127525334Y-159683163D01*
X127677715Y-159416496D02*
X127944382Y-160216496D01*
X128211049Y-159416496D01*
X128477715Y-160216496D02*
X128477715Y-159416496D01*
X128668192Y-159416496D01*
X128782477Y-159454592D01*
X128858668Y-159530782D01*
X128896763Y-159606972D01*
X128934858Y-159759353D01*
X128934858Y-159873639D01*
X128896763Y-160026020D01*
X128858668Y-160102211D01*
X128782477Y-160178401D01*
X128668192Y-160216496D01*
X128477715Y-160216496D01*
X129658668Y-159416496D02*
X129277715Y-159416496D01*
X129239620Y-159797449D01*
X129277715Y-159759353D01*
X129353906Y-159721258D01*
X129544382Y-159721258D01*
X129620573Y-159759353D01*
X129658668Y-159797449D01*
X129696763Y-159873639D01*
X129696763Y-160064115D01*
X129658668Y-160140306D01*
X129620573Y-160178401D01*
X129544382Y-160216496D01*
X129353906Y-160216496D01*
X129277715Y-160178401D01*
X129239620Y-160140306D01*
X130077715Y-160216496D02*
X130230096Y-160216496D01*
X130306287Y-160178401D01*
X130344382Y-160140306D01*
X130420573Y-160026020D01*
X130458668Y-159873639D01*
X130458668Y-159568877D01*
X130420573Y-159492687D01*
X130382477Y-159454592D01*
X130306287Y-159416496D01*
X130153906Y-159416496D01*
X130077715Y-159454592D01*
X130039620Y-159492687D01*
X130001525Y-159568877D01*
X130001525Y-159759353D01*
X130039620Y-159835544D01*
X130077715Y-159873639D01*
X130153906Y-159911734D01*
X130306287Y-159911734D01*
X130382477Y-159873639D01*
X130420573Y-159835544D01*
X130458668Y-159759353D01*
%TO.C,U1*%
X158260000Y-95002380D02*
X158260000Y-95240476D01*
X158021904Y-95145238D02*
X158260000Y-95240476D01*
X158498095Y-95145238D01*
X158117142Y-95430952D02*
X158260000Y-95240476D01*
X158402857Y-95430952D01*
%TO.C,OSHW logo*%
G36*
X130993910Y-150022348D02*
G01*
X131072454Y-150022778D01*
X131129298Y-150023942D01*
X131168105Y-150026207D01*
X131192538Y-150029940D01*
X131206262Y-150035506D01*
X131212940Y-150043273D01*
X131216236Y-150053605D01*
X131216556Y-150054943D01*
X131221562Y-150079079D01*
X131230829Y-150126701D01*
X131243392Y-150192741D01*
X131258287Y-150272128D01*
X131274551Y-150359796D01*
X131275119Y-150362875D01*
X131291410Y-150448789D01*
X131306652Y-150524696D01*
X131319861Y-150586045D01*
X131330054Y-150628282D01*
X131336248Y-150646855D01*
X131336543Y-150647184D01*
X131354788Y-150656253D01*
X131392405Y-150671367D01*
X131441271Y-150689262D01*
X131441543Y-150689358D01*
X131503093Y-150712493D01*
X131575657Y-150741965D01*
X131644057Y-150771597D01*
X131647294Y-150773062D01*
X131758702Y-150823626D01*
X132005399Y-150655160D01*
X132081077Y-150603803D01*
X132149631Y-150557889D01*
X132207088Y-150520030D01*
X132249476Y-150492837D01*
X132272825Y-150478921D01*
X132275042Y-150477889D01*
X132292010Y-150482484D01*
X132323701Y-150504655D01*
X132371352Y-150545447D01*
X132436198Y-150605905D01*
X132502397Y-150670227D01*
X132566214Y-150733612D01*
X132623329Y-150791451D01*
X132670305Y-150840175D01*
X132703703Y-150876210D01*
X132720085Y-150895984D01*
X132720694Y-150897002D01*
X132722505Y-150910572D01*
X132715683Y-150932733D01*
X132698540Y-150966478D01*
X132669393Y-151014800D01*
X132626555Y-151080692D01*
X132569448Y-151165517D01*
X132518766Y-151240177D01*
X132473461Y-151307140D01*
X132436150Y-151362516D01*
X132409452Y-151402420D01*
X132395985Y-151422962D01*
X132395137Y-151424356D01*
X132396781Y-151444038D01*
X132409245Y-151482293D01*
X132430048Y-151531889D01*
X132437462Y-151547728D01*
X132469814Y-151618290D01*
X132504328Y-151698353D01*
X132532365Y-151767629D01*
X132552568Y-151819045D01*
X132568615Y-151858119D01*
X132577888Y-151878541D01*
X132579041Y-151880114D01*
X132596096Y-151882721D01*
X132636298Y-151889863D01*
X132694302Y-151900523D01*
X132764763Y-151913685D01*
X132842335Y-151928333D01*
X132921672Y-151943449D01*
X132997431Y-151958018D01*
X133064264Y-151971022D01*
X133116828Y-151981445D01*
X133149776Y-151988270D01*
X133157857Y-151990199D01*
X133166205Y-151994962D01*
X133172506Y-152005718D01*
X133177045Y-152026098D01*
X133180104Y-152059734D01*
X133181967Y-152110255D01*
X133182918Y-152181292D01*
X133183240Y-152276476D01*
X133183257Y-152315492D01*
X133183257Y-152632799D01*
X133107057Y-152647839D01*
X133064663Y-152655995D01*
X133001400Y-152667899D01*
X132924962Y-152682116D01*
X132843043Y-152697210D01*
X132820400Y-152701355D01*
X132744806Y-152716053D01*
X132678953Y-152730505D01*
X132628366Y-152743375D01*
X132598574Y-152753322D01*
X132593612Y-152756287D01*
X132581426Y-152777283D01*
X132563953Y-152817967D01*
X132544577Y-152870322D01*
X132540734Y-152881600D01*
X132515339Y-152951523D01*
X132483817Y-153030418D01*
X132452969Y-153101266D01*
X132452817Y-153101595D01*
X132401447Y-153212733D01*
X132570399Y-153461253D01*
X132739352Y-153709772D01*
X132522429Y-153927058D01*
X132456819Y-153991726D01*
X132396979Y-154048733D01*
X132346267Y-154095033D01*
X132308046Y-154127584D01*
X132285675Y-154143343D01*
X132282466Y-154144343D01*
X132263626Y-154136469D01*
X132225180Y-154114578D01*
X132171330Y-154081267D01*
X132106276Y-154039131D01*
X132035940Y-153991943D01*
X131964555Y-153943810D01*
X131900908Y-153901928D01*
X131849041Y-153868871D01*
X131812995Y-153847218D01*
X131796867Y-153839543D01*
X131777189Y-153846037D01*
X131739875Y-153863150D01*
X131692621Y-153887326D01*
X131687612Y-153890013D01*
X131623977Y-153921927D01*
X131580341Y-153937579D01*
X131553202Y-153937745D01*
X131539057Y-153923204D01*
X131538975Y-153923000D01*
X131531905Y-153905779D01*
X131515042Y-153864899D01*
X131489695Y-153803525D01*
X131457171Y-153724819D01*
X131418778Y-153631947D01*
X131375822Y-153528072D01*
X131334222Y-153427502D01*
X131288504Y-153316516D01*
X131246526Y-153213703D01*
X131209548Y-153122215D01*
X131178827Y-153045201D01*
X131155622Y-152985815D01*
X131141190Y-152947209D01*
X131136743Y-152932800D01*
X131147896Y-152916272D01*
X131177069Y-152889930D01*
X131215971Y-152860887D01*
X131326757Y-152769039D01*
X131413351Y-152663759D01*
X131474716Y-152547266D01*
X131509815Y-152421776D01*
X131517608Y-152289507D01*
X131511943Y-152228457D01*
X131481078Y-152101795D01*
X131427920Y-151989941D01*
X131355767Y-151894001D01*
X131267917Y-151815076D01*
X131167665Y-151754270D01*
X131058310Y-151712687D01*
X130943147Y-151691428D01*
X130825475Y-151691599D01*
X130708590Y-151714301D01*
X130595789Y-151760638D01*
X130490369Y-151831713D01*
X130446368Y-151871911D01*
X130361979Y-151975129D01*
X130303222Y-152087925D01*
X130269704Y-152207010D01*
X130261035Y-152329095D01*
X130276823Y-152450893D01*
X130316678Y-152569116D01*
X130380207Y-152680475D01*
X130467021Y-152781684D01*
X130564029Y-152860887D01*
X130604437Y-152891162D01*
X130632982Y-152917219D01*
X130643257Y-152932825D01*
X130637877Y-152949843D01*
X130622575Y-152990500D01*
X130598612Y-153051642D01*
X130567244Y-153130119D01*
X130529732Y-153222780D01*
X130487333Y-153326472D01*
X130445663Y-153427526D01*
X130399690Y-153538607D01*
X130357107Y-153641541D01*
X130319221Y-153733165D01*
X130287340Y-153810316D01*
X130262771Y-153869831D01*
X130246820Y-153908544D01*
X130240910Y-153923000D01*
X130226948Y-153937685D01*
X130199940Y-153937642D01*
X130156413Y-153922099D01*
X130092890Y-153890284D01*
X130092388Y-153890013D01*
X130044560Y-153865323D01*
X130005897Y-153847338D01*
X129984095Y-153839614D01*
X129983133Y-153839543D01*
X129966721Y-153847378D01*
X129930487Y-153869165D01*
X129878474Y-153902328D01*
X129814725Y-153944291D01*
X129744060Y-153991943D01*
X129672116Y-154040191D01*
X129607274Y-154082151D01*
X129553735Y-154115227D01*
X129515697Y-154136821D01*
X129497533Y-154144343D01*
X129480808Y-154134457D01*
X129447180Y-154106826D01*
X129400010Y-154064495D01*
X129342658Y-154010505D01*
X129278484Y-153947899D01*
X129257497Y-153926983D01*
X129040499Y-153709623D01*
X129205668Y-153467220D01*
X129255864Y-153392781D01*
X129299919Y-153325972D01*
X129335362Y-153270665D01*
X129359719Y-153230729D01*
X129370522Y-153210036D01*
X129370838Y-153208563D01*
X129365143Y-153189058D01*
X129349826Y-153149822D01*
X129327537Y-153097430D01*
X129311893Y-153062355D01*
X129282641Y-152995201D01*
X129255094Y-152927358D01*
X129233737Y-152870034D01*
X129227935Y-152852572D01*
X129211452Y-152805938D01*
X129195340Y-152769905D01*
X129186490Y-152756287D01*
X129166960Y-152747952D01*
X129124334Y-152736137D01*
X129064145Y-152722181D01*
X128991922Y-152707422D01*
X128959600Y-152701355D01*
X128877522Y-152686273D01*
X128798795Y-152671669D01*
X128731109Y-152658980D01*
X128682160Y-152649642D01*
X128672943Y-152647839D01*
X128596743Y-152632799D01*
X128596743Y-152315492D01*
X128596914Y-152211154D01*
X128597616Y-152132213D01*
X128599134Y-152075038D01*
X128601749Y-152035999D01*
X128605746Y-152011465D01*
X128611409Y-151997805D01*
X128619020Y-151991389D01*
X128622143Y-151990199D01*
X128640978Y-151985980D01*
X128682588Y-151977562D01*
X128741630Y-151965961D01*
X128812757Y-151952195D01*
X128890625Y-151937280D01*
X128969887Y-151922232D01*
X129045198Y-151908069D01*
X129111213Y-151895806D01*
X129162587Y-151886461D01*
X129193975Y-151881050D01*
X129200959Y-151880114D01*
X129207285Y-151867596D01*
X129221290Y-151834246D01*
X129240355Y-151786377D01*
X129247634Y-151767629D01*
X129276996Y-151695195D01*
X129311571Y-151615170D01*
X129342537Y-151547728D01*
X129365323Y-151496159D01*
X129380482Y-151453785D01*
X129385542Y-151427834D01*
X129384736Y-151424356D01*
X129374041Y-151407936D01*
X129349620Y-151371417D01*
X129314095Y-151318687D01*
X129270087Y-151253635D01*
X129220217Y-151180151D01*
X129210356Y-151165645D01*
X129152492Y-151079704D01*
X129109956Y-151014261D01*
X129081054Y-150966304D01*
X129064090Y-150932820D01*
X129057367Y-150910795D01*
X129059190Y-150897217D01*
X129059236Y-150897131D01*
X129073586Y-150879297D01*
X129105323Y-150844817D01*
X129151010Y-150797268D01*
X129207204Y-150740222D01*
X129270468Y-150677255D01*
X129277602Y-150670227D01*
X129357330Y-150593020D01*
X129418857Y-150536330D01*
X129463421Y-150499110D01*
X129492257Y-150480315D01*
X129504958Y-150477889D01*
X129523494Y-150488471D01*
X129561961Y-150512916D01*
X129616386Y-150548612D01*
X129682798Y-150592947D01*
X129757225Y-150643311D01*
X129774601Y-150655160D01*
X130021297Y-150823626D01*
X130132706Y-150773062D01*
X130200457Y-150743595D01*
X130273183Y-150713959D01*
X130335703Y-150690330D01*
X130338457Y-150689358D01*
X130387360Y-150671457D01*
X130425057Y-150656320D01*
X130443425Y-150647210D01*
X130443456Y-150647184D01*
X130449285Y-150630717D01*
X130459192Y-150590219D01*
X130472195Y-150530242D01*
X130487309Y-150455340D01*
X130503552Y-150370064D01*
X130504881Y-150362875D01*
X130521175Y-150275014D01*
X130536133Y-150195260D01*
X130548791Y-150128681D01*
X130558186Y-150080347D01*
X130563354Y-150055325D01*
X130563444Y-150054943D01*
X130566589Y-150044299D01*
X130572704Y-150036262D01*
X130585453Y-150030467D01*
X130608500Y-150026547D01*
X130645509Y-150024135D01*
X130700144Y-150022865D01*
X130776067Y-150022371D01*
X130876944Y-150022286D01*
X130890000Y-150022286D01*
X130993910Y-150022348D01*
G37*
D12*
X130993910Y-150022348D02*
X131072454Y-150022778D01*
X131129298Y-150023942D01*
X131168105Y-150026207D01*
X131192538Y-150029940D01*
X131206262Y-150035506D01*
X131212940Y-150043273D01*
X131216236Y-150053605D01*
X131216556Y-150054943D01*
X131221562Y-150079079D01*
X131230829Y-150126701D01*
X131243392Y-150192741D01*
X131258287Y-150272128D01*
X131274551Y-150359796D01*
X131275119Y-150362875D01*
X131291410Y-150448789D01*
X131306652Y-150524696D01*
X131319861Y-150586045D01*
X131330054Y-150628282D01*
X131336248Y-150646855D01*
X131336543Y-150647184D01*
X131354788Y-150656253D01*
X131392405Y-150671367D01*
X131441271Y-150689262D01*
X131441543Y-150689358D01*
X131503093Y-150712493D01*
X131575657Y-150741965D01*
X131644057Y-150771597D01*
X131647294Y-150773062D01*
X131758702Y-150823626D01*
X132005399Y-150655160D01*
X132081077Y-150603803D01*
X132149631Y-150557889D01*
X132207088Y-150520030D01*
X132249476Y-150492837D01*
X132272825Y-150478921D01*
X132275042Y-150477889D01*
X132292010Y-150482484D01*
X132323701Y-150504655D01*
X132371352Y-150545447D01*
X132436198Y-150605905D01*
X132502397Y-150670227D01*
X132566214Y-150733612D01*
X132623329Y-150791451D01*
X132670305Y-150840175D01*
X132703703Y-150876210D01*
X132720085Y-150895984D01*
X132720694Y-150897002D01*
X132722505Y-150910572D01*
X132715683Y-150932733D01*
X132698540Y-150966478D01*
X132669393Y-151014800D01*
X132626555Y-151080692D01*
X132569448Y-151165517D01*
X132518766Y-151240177D01*
X132473461Y-151307140D01*
X132436150Y-151362516D01*
X132409452Y-151402420D01*
X132395985Y-151422962D01*
X132395137Y-151424356D01*
X132396781Y-151444038D01*
X132409245Y-151482293D01*
X132430048Y-151531889D01*
X132437462Y-151547728D01*
X132469814Y-151618290D01*
X132504328Y-151698353D01*
X132532365Y-151767629D01*
X132552568Y-151819045D01*
X132568615Y-151858119D01*
X132577888Y-151878541D01*
X132579041Y-151880114D01*
X132596096Y-151882721D01*
X132636298Y-151889863D01*
X132694302Y-151900523D01*
X132764763Y-151913685D01*
X132842335Y-151928333D01*
X132921672Y-151943449D01*
X132997431Y-151958018D01*
X133064264Y-151971022D01*
X133116828Y-151981445D01*
X133149776Y-151988270D01*
X133157857Y-151990199D01*
X133166205Y-151994962D01*
X133172506Y-152005718D01*
X133177045Y-152026098D01*
X133180104Y-152059734D01*
X133181967Y-152110255D01*
X133182918Y-152181292D01*
X133183240Y-152276476D01*
X133183257Y-152315492D01*
X133183257Y-152632799D01*
X133107057Y-152647839D01*
X133064663Y-152655995D01*
X133001400Y-152667899D01*
X132924962Y-152682116D01*
X132843043Y-152697210D01*
X132820400Y-152701355D01*
X132744806Y-152716053D01*
X132678953Y-152730505D01*
X132628366Y-152743375D01*
X132598574Y-152753322D01*
X132593612Y-152756287D01*
X132581426Y-152777283D01*
X132563953Y-152817967D01*
X132544577Y-152870322D01*
X132540734Y-152881600D01*
X132515339Y-152951523D01*
X132483817Y-153030418D01*
X132452969Y-153101266D01*
X132452817Y-153101595D01*
X132401447Y-153212733D01*
X132570399Y-153461253D01*
X132739352Y-153709772D01*
X132522429Y-153927058D01*
X132456819Y-153991726D01*
X132396979Y-154048733D01*
X132346267Y-154095033D01*
X132308046Y-154127584D01*
X132285675Y-154143343D01*
X132282466Y-154144343D01*
X132263626Y-154136469D01*
X132225180Y-154114578D01*
X132171330Y-154081267D01*
X132106276Y-154039131D01*
X132035940Y-153991943D01*
X131964555Y-153943810D01*
X131900908Y-153901928D01*
X131849041Y-153868871D01*
X131812995Y-153847218D01*
X131796867Y-153839543D01*
X131777189Y-153846037D01*
X131739875Y-153863150D01*
X131692621Y-153887326D01*
X131687612Y-153890013D01*
X131623977Y-153921927D01*
X131580341Y-153937579D01*
X131553202Y-153937745D01*
X131539057Y-153923204D01*
X131538975Y-153923000D01*
X131531905Y-153905779D01*
X131515042Y-153864899D01*
X131489695Y-153803525D01*
X131457171Y-153724819D01*
X131418778Y-153631947D01*
X131375822Y-153528072D01*
X131334222Y-153427502D01*
X131288504Y-153316516D01*
X131246526Y-153213703D01*
X131209548Y-153122215D01*
X131178827Y-153045201D01*
X131155622Y-152985815D01*
X131141190Y-152947209D01*
X131136743Y-152932800D01*
X131147896Y-152916272D01*
X131177069Y-152889930D01*
X131215971Y-152860887D01*
X131326757Y-152769039D01*
X131413351Y-152663759D01*
X131474716Y-152547266D01*
X131509815Y-152421776D01*
X131517608Y-152289507D01*
X131511943Y-152228457D01*
X131481078Y-152101795D01*
X131427920Y-151989941D01*
X131355767Y-151894001D01*
X131267917Y-151815076D01*
X131167665Y-151754270D01*
X131058310Y-151712687D01*
X130943147Y-151691428D01*
X130825475Y-151691599D01*
X130708590Y-151714301D01*
X130595789Y-151760638D01*
X130490369Y-151831713D01*
X130446368Y-151871911D01*
X130361979Y-151975129D01*
X130303222Y-152087925D01*
X130269704Y-152207010D01*
X130261035Y-152329095D01*
X130276823Y-152450893D01*
X130316678Y-152569116D01*
X130380207Y-152680475D01*
X130467021Y-152781684D01*
X130564029Y-152860887D01*
X130604437Y-152891162D01*
X130632982Y-152917219D01*
X130643257Y-152932825D01*
X130637877Y-152949843D01*
X130622575Y-152990500D01*
X130598612Y-153051642D01*
X130567244Y-153130119D01*
X130529732Y-153222780D01*
X130487333Y-153326472D01*
X130445663Y-153427526D01*
X130399690Y-153538607D01*
X130357107Y-153641541D01*
X130319221Y-153733165D01*
X130287340Y-153810316D01*
X130262771Y-153869831D01*
X130246820Y-153908544D01*
X130240910Y-153923000D01*
X130226948Y-153937685D01*
X130199940Y-153937642D01*
X130156413Y-153922099D01*
X130092890Y-153890284D01*
X130092388Y-153890013D01*
X130044560Y-153865323D01*
X130005897Y-153847338D01*
X129984095Y-153839614D01*
X129983133Y-153839543D01*
X129966721Y-153847378D01*
X129930487Y-153869165D01*
X129878474Y-153902328D01*
X129814725Y-153944291D01*
X129744060Y-153991943D01*
X129672116Y-154040191D01*
X129607274Y-154082151D01*
X129553735Y-154115227D01*
X129515697Y-154136821D01*
X129497533Y-154144343D01*
X129480808Y-154134457D01*
X129447180Y-154106826D01*
X129400010Y-154064495D01*
X129342658Y-154010505D01*
X129278484Y-153947899D01*
X129257497Y-153926983D01*
X129040499Y-153709623D01*
X129205668Y-153467220D01*
X129255864Y-153392781D01*
X129299919Y-153325972D01*
X129335362Y-153270665D01*
X129359719Y-153230729D01*
X129370522Y-153210036D01*
X129370838Y-153208563D01*
X129365143Y-153189058D01*
X129349826Y-153149822D01*
X129327537Y-153097430D01*
X129311893Y-153062355D01*
X129282641Y-152995201D01*
X129255094Y-152927358D01*
X129233737Y-152870034D01*
X129227935Y-152852572D01*
X129211452Y-152805938D01*
X129195340Y-152769905D01*
X129186490Y-152756287D01*
X129166960Y-152747952D01*
X129124334Y-152736137D01*
X129064145Y-152722181D01*
X128991922Y-152707422D01*
X128959600Y-152701355D01*
X128877522Y-152686273D01*
X128798795Y-152671669D01*
X128731109Y-152658980D01*
X128682160Y-152649642D01*
X128672943Y-152647839D01*
X128596743Y-152632799D01*
X128596743Y-152315492D01*
X128596914Y-152211154D01*
X128597616Y-152132213D01*
X128599134Y-152075038D01*
X128601749Y-152035999D01*
X128605746Y-152011465D01*
X128611409Y-151997805D01*
X128619020Y-151991389D01*
X128622143Y-151990199D01*
X128640978Y-151985980D01*
X128682588Y-151977562D01*
X128741630Y-151965961D01*
X128812757Y-151952195D01*
X128890625Y-151937280D01*
X128969887Y-151922232D01*
X129045198Y-151908069D01*
X129111213Y-151895806D01*
X129162587Y-151886461D01*
X129193975Y-151881050D01*
X129200959Y-151880114D01*
X129207285Y-151867596D01*
X129221290Y-151834246D01*
X129240355Y-151786377D01*
X129247634Y-151767629D01*
X129276996Y-151695195D01*
X129311571Y-151615170D01*
X129342537Y-151547728D01*
X129365323Y-151496159D01*
X129380482Y-151453785D01*
X129385542Y-151427834D01*
X129384736Y-151424356D01*
X129374041Y-151407936D01*
X129349620Y-151371417D01*
X129314095Y-151318687D01*
X129270087Y-151253635D01*
X129220217Y-151180151D01*
X129210356Y-151165645D01*
X129152492Y-151079704D01*
X129109956Y-151014261D01*
X129081054Y-150966304D01*
X129064090Y-150932820D01*
X129057367Y-150910795D01*
X129059190Y-150897217D01*
X129059236Y-150897131D01*
X129073586Y-150879297D01*
X129105323Y-150844817D01*
X129151010Y-150797268D01*
X129207204Y-150740222D01*
X129270468Y-150677255D01*
X129277602Y-150670227D01*
X129357330Y-150593020D01*
X129418857Y-150536330D01*
X129463421Y-150499110D01*
X129492257Y-150480315D01*
X129504958Y-150477889D01*
X129523494Y-150488471D01*
X129561961Y-150512916D01*
X129616386Y-150548612D01*
X129682798Y-150592947D01*
X129757225Y-150643311D01*
X129774601Y-150655160D01*
X130021297Y-150823626D01*
X130132706Y-150773062D01*
X130200457Y-150743595D01*
X130273183Y-150713959D01*
X130335703Y-150690330D01*
X130338457Y-150689358D01*
X130387360Y-150671457D01*
X130425057Y-150656320D01*
X130443425Y-150647210D01*
X130443456Y-150647184D01*
X130449285Y-150630717D01*
X130459192Y-150590219D01*
X130472195Y-150530242D01*
X130487309Y-150455340D01*
X130503552Y-150370064D01*
X130504881Y-150362875D01*
X130521175Y-150275014D01*
X130536133Y-150195260D01*
X130548791Y-150128681D01*
X130558186Y-150080347D01*
X130563354Y-150055325D01*
X130563444Y-150054943D01*
X130566589Y-150044299D01*
X130572704Y-150036262D01*
X130585453Y-150030467D01*
X130608500Y-150026547D01*
X130645509Y-150024135D01*
X130700144Y-150022865D01*
X130776067Y-150022371D01*
X130876944Y-150022286D01*
X130890000Y-150022286D01*
X130993910Y-150022348D01*
G36*
X133758196Y-154875384D02*
G01*
X133771884Y-154826695D01*
X133794096Y-154790849D01*
X133826574Y-154762513D01*
X133840733Y-154753355D01*
X133905053Y-154729507D01*
X133975473Y-154728006D01*
X134043595Y-154746966D01*
X134101021Y-154784497D01*
X134128719Y-154818096D01*
X134150662Y-154879064D01*
X134152405Y-154927308D01*
X134148457Y-154991816D01*
X133999686Y-155056934D01*
X133927349Y-155090202D01*
X133880084Y-155116964D01*
X133855507Y-155140144D01*
X133851237Y-155162667D01*
X133864889Y-155187455D01*
X133879943Y-155203886D01*
X133923746Y-155230235D01*
X133971389Y-155232081D01*
X134015145Y-155211546D01*
X134047289Y-155170752D01*
X134053038Y-155156347D01*
X134080576Y-155111356D01*
X134112258Y-155092182D01*
X134155714Y-155075779D01*
X134155714Y-155137966D01*
X134151872Y-155180283D01*
X134136823Y-155215969D01*
X134105280Y-155256943D01*
X134100592Y-155262267D01*
X134065506Y-155298720D01*
X134035347Y-155318283D01*
X133997615Y-155327283D01*
X133966335Y-155330230D01*
X133910385Y-155330965D01*
X133870555Y-155321660D01*
X133845708Y-155307846D01*
X133806656Y-155277467D01*
X133779625Y-155244613D01*
X133762517Y-155203294D01*
X133753238Y-155147521D01*
X133749693Y-155071305D01*
X133749410Y-155032622D01*
X133750372Y-154986247D01*
X133838007Y-154986247D01*
X133839023Y-155011126D01*
X133841556Y-155015200D01*
X133858274Y-155009665D01*
X133894249Y-154995017D01*
X133942331Y-154974190D01*
X133952386Y-154969714D01*
X134013152Y-154938814D01*
X134046632Y-154911657D01*
X134053990Y-154886220D01*
X134036391Y-154860481D01*
X134021856Y-154849109D01*
X133969410Y-154826364D01*
X133920322Y-154830122D01*
X133879227Y-154857884D01*
X133850758Y-154907152D01*
X133841631Y-154946257D01*
X133838007Y-154986247D01*
X133750372Y-154986247D01*
X133751285Y-154942249D01*
X133758196Y-154875384D01*
G37*
X133758196Y-154875384D02*
X133771884Y-154826695D01*
X133794096Y-154790849D01*
X133826574Y-154762513D01*
X133840733Y-154753355D01*
X133905053Y-154729507D01*
X133975473Y-154728006D01*
X134043595Y-154746966D01*
X134101021Y-154784497D01*
X134128719Y-154818096D01*
X134150662Y-154879064D01*
X134152405Y-154927308D01*
X134148457Y-154991816D01*
X133999686Y-155056934D01*
X133927349Y-155090202D01*
X133880084Y-155116964D01*
X133855507Y-155140144D01*
X133851237Y-155162667D01*
X133864889Y-155187455D01*
X133879943Y-155203886D01*
X133923746Y-155230235D01*
X133971389Y-155232081D01*
X134015145Y-155211546D01*
X134047289Y-155170752D01*
X134053038Y-155156347D01*
X134080576Y-155111356D01*
X134112258Y-155092182D01*
X134155714Y-155075779D01*
X134155714Y-155137966D01*
X134151872Y-155180283D01*
X134136823Y-155215969D01*
X134105280Y-155256943D01*
X134100592Y-155262267D01*
X134065506Y-155298720D01*
X134035347Y-155318283D01*
X133997615Y-155327283D01*
X133966335Y-155330230D01*
X133910385Y-155330965D01*
X133870555Y-155321660D01*
X133845708Y-155307846D01*
X133806656Y-155277467D01*
X133779625Y-155244613D01*
X133762517Y-155203294D01*
X133753238Y-155147521D01*
X133749693Y-155071305D01*
X133749410Y-155032622D01*
X133750372Y-154986247D01*
X133838007Y-154986247D01*
X133839023Y-155011126D01*
X133841556Y-155015200D01*
X133858274Y-155009665D01*
X133894249Y-154995017D01*
X133942331Y-154974190D01*
X133952386Y-154969714D01*
X134013152Y-154938814D01*
X134046632Y-154911657D01*
X134053990Y-154886220D01*
X134036391Y-154860481D01*
X134021856Y-154849109D01*
X133969410Y-154826364D01*
X133920322Y-154830122D01*
X133879227Y-154857884D01*
X133850758Y-154907152D01*
X133841631Y-154946257D01*
X133838007Y-154986247D01*
X133750372Y-154986247D01*
X133751285Y-154942249D01*
X133758196Y-154875384D01*
G36*
X131674726Y-154870086D02*
G01*
X131697135Y-154818600D01*
X131732124Y-154778443D01*
X131759375Y-154757861D01*
X131808907Y-154735625D01*
X131866316Y-154725304D01*
X131919682Y-154728067D01*
X131949543Y-154739212D01*
X131961261Y-154742383D01*
X131969037Y-154730557D01*
X131974465Y-154698866D01*
X131978571Y-154650593D01*
X131983067Y-154596829D01*
X131989313Y-154564482D01*
X132000676Y-154545985D01*
X132020528Y-154533770D01*
X132033000Y-154528362D01*
X132080171Y-154508601D01*
X132080117Y-154845358D01*
X132079933Y-154953837D01*
X132079219Y-155037287D01*
X132077675Y-155099704D01*
X132075001Y-155145085D01*
X132070894Y-155177429D01*
X132065055Y-155200733D01*
X132057182Y-155218995D01*
X132051221Y-155229418D01*
X132001855Y-155285945D01*
X131939264Y-155321377D01*
X131870013Y-155334090D01*
X131800668Y-155322463D01*
X131759375Y-155301568D01*
X131716025Y-155265422D01*
X131686481Y-155221276D01*
X131668655Y-155163462D01*
X131660463Y-155086313D01*
X131659302Y-155029714D01*
X131659458Y-155025647D01*
X131760857Y-155025647D01*
X131761476Y-155090550D01*
X131764314Y-155133514D01*
X131770840Y-155161622D01*
X131782523Y-155181953D01*
X131796483Y-155197288D01*
X131843365Y-155226890D01*
X131893701Y-155229419D01*
X131941276Y-155204705D01*
X131944979Y-155201356D01*
X131960783Y-155183935D01*
X131970693Y-155163209D01*
X131976058Y-155132362D01*
X131978228Y-155084577D01*
X131978571Y-155031748D01*
X131977827Y-154965381D01*
X131974748Y-154921106D01*
X131968061Y-154892009D01*
X131956496Y-154871173D01*
X131947013Y-154860107D01*
X131902960Y-154832198D01*
X131852224Y-154828843D01*
X131803796Y-154850159D01*
X131794450Y-154858073D01*
X131778540Y-154875647D01*
X131768610Y-154896587D01*
X131763278Y-154927782D01*
X131761163Y-154976122D01*
X131760857Y-155025647D01*
X131659458Y-155025647D01*
X131662810Y-154938568D01*
X131674726Y-154870086D01*
G37*
X131674726Y-154870086D02*
X131697135Y-154818600D01*
X131732124Y-154778443D01*
X131759375Y-154757861D01*
X131808907Y-154735625D01*
X131866316Y-154725304D01*
X131919682Y-154728067D01*
X131949543Y-154739212D01*
X131961261Y-154742383D01*
X131969037Y-154730557D01*
X131974465Y-154698866D01*
X131978571Y-154650593D01*
X131983067Y-154596829D01*
X131989313Y-154564482D01*
X132000676Y-154545985D01*
X132020528Y-154533770D01*
X132033000Y-154528362D01*
X132080171Y-154508601D01*
X132080117Y-154845358D01*
X132079933Y-154953837D01*
X132079219Y-155037287D01*
X132077675Y-155099704D01*
X132075001Y-155145085D01*
X132070894Y-155177429D01*
X132065055Y-155200733D01*
X132057182Y-155218995D01*
X132051221Y-155229418D01*
X132001855Y-155285945D01*
X131939264Y-155321377D01*
X131870013Y-155334090D01*
X131800668Y-155322463D01*
X131759375Y-155301568D01*
X131716025Y-155265422D01*
X131686481Y-155221276D01*
X131668655Y-155163462D01*
X131660463Y-155086313D01*
X131659302Y-155029714D01*
X131659458Y-155025647D01*
X131760857Y-155025647D01*
X131761476Y-155090550D01*
X131764314Y-155133514D01*
X131770840Y-155161622D01*
X131782523Y-155181953D01*
X131796483Y-155197288D01*
X131843365Y-155226890D01*
X131893701Y-155229419D01*
X131941276Y-155204705D01*
X131944979Y-155201356D01*
X131960783Y-155183935D01*
X131970693Y-155163209D01*
X131976058Y-155132362D01*
X131978228Y-155084577D01*
X131978571Y-155031748D01*
X131977827Y-154965381D01*
X131974748Y-154921106D01*
X131968061Y-154892009D01*
X131956496Y-154871173D01*
X131947013Y-154860107D01*
X131902960Y-154832198D01*
X131852224Y-154828843D01*
X131803796Y-154850159D01*
X131794450Y-154858073D01*
X131778540Y-154875647D01*
X131768610Y-154896587D01*
X131763278Y-154927782D01*
X131761163Y-154976122D01*
X131760857Y-155025647D01*
X131659458Y-155025647D01*
X131662810Y-154938568D01*
X131674726Y-154870086D01*
G36*
X128183677Y-154930333D02*
G01*
X128186450Y-154882958D01*
X128190388Y-154849290D01*
X128195849Y-154825498D01*
X128203192Y-154807753D01*
X128212777Y-154792224D01*
X128216887Y-154786381D01*
X128271405Y-154731185D01*
X128340336Y-154699890D01*
X128420072Y-154691165D01*
X128489744Y-154699918D01*
X128545201Y-154727568D01*
X128594148Y-154778480D01*
X128607629Y-154797338D01*
X128622314Y-154822015D01*
X128631842Y-154848816D01*
X128637293Y-154884587D01*
X128639747Y-154936169D01*
X128640286Y-155004267D01*
X128637852Y-155097588D01*
X128629394Y-155167657D01*
X128613174Y-155219931D01*
X128587454Y-155259869D01*
X128550497Y-155292929D01*
X128547782Y-155294886D01*
X128511360Y-155314908D01*
X128467502Y-155324815D01*
X128411724Y-155327257D01*
X128321048Y-155327257D01*
X128321010Y-155415283D01*
X128320166Y-155464308D01*
X128315024Y-155493065D01*
X128301587Y-155510311D01*
X128275858Y-155524808D01*
X128269679Y-155527769D01*
X128240764Y-155541648D01*
X128218376Y-155550414D01*
X128201729Y-155551171D01*
X128190036Y-155541023D01*
X128182510Y-155517073D01*
X128178366Y-155476426D01*
X128176815Y-155416186D01*
X128177071Y-155333455D01*
X128178349Y-155225339D01*
X128178748Y-155193000D01*
X128180185Y-155081524D01*
X128181472Y-155008603D01*
X128320971Y-155008603D01*
X128321755Y-155070499D01*
X128325240Y-155110997D01*
X128333124Y-155137708D01*
X128347105Y-155158244D01*
X128356597Y-155168260D01*
X128395404Y-155197567D01*
X128429763Y-155199952D01*
X128465216Y-155175750D01*
X128466114Y-155174857D01*
X128480539Y-155156153D01*
X128489313Y-155130732D01*
X128493739Y-155091584D01*
X128495118Y-155031697D01*
X128495143Y-155018430D01*
X128491812Y-154935901D01*
X128480969Y-154878691D01*
X128461340Y-154843766D01*
X128431650Y-154828094D01*
X128414491Y-154826514D01*
X128373766Y-154833926D01*
X128345832Y-154858330D01*
X128329017Y-154902980D01*
X128321650Y-154971130D01*
X128320971Y-155008603D01*
X128181472Y-155008603D01*
X128181708Y-154995245D01*
X128183677Y-154930333D01*
G37*
X128183677Y-154930333D02*
X128186450Y-154882958D01*
X128190388Y-154849290D01*
X128195849Y-154825498D01*
X128203192Y-154807753D01*
X128212777Y-154792224D01*
X128216887Y-154786381D01*
X128271405Y-154731185D01*
X128340336Y-154699890D01*
X128420072Y-154691165D01*
X128489744Y-154699918D01*
X128545201Y-154727568D01*
X128594148Y-154778480D01*
X128607629Y-154797338D01*
X128622314Y-154822015D01*
X128631842Y-154848816D01*
X128637293Y-154884587D01*
X128639747Y-154936169D01*
X128640286Y-155004267D01*
X128637852Y-155097588D01*
X128629394Y-155167657D01*
X128613174Y-155219931D01*
X128587454Y-155259869D01*
X128550497Y-155292929D01*
X128547782Y-155294886D01*
X128511360Y-155314908D01*
X128467502Y-155324815D01*
X128411724Y-155327257D01*
X128321048Y-155327257D01*
X128321010Y-155415283D01*
X128320166Y-155464308D01*
X128315024Y-155493065D01*
X128301587Y-155510311D01*
X128275858Y-155524808D01*
X128269679Y-155527769D01*
X128240764Y-155541648D01*
X128218376Y-155550414D01*
X128201729Y-155551171D01*
X128190036Y-155541023D01*
X128182510Y-155517073D01*
X128178366Y-155476426D01*
X128176815Y-155416186D01*
X128177071Y-155333455D01*
X128178349Y-155225339D01*
X128178748Y-155193000D01*
X128180185Y-155081524D01*
X128181472Y-155008603D01*
X128320971Y-155008603D01*
X128321755Y-155070499D01*
X128325240Y-155110997D01*
X128333124Y-155137708D01*
X128347105Y-155158244D01*
X128356597Y-155168260D01*
X128395404Y-155197567D01*
X128429763Y-155199952D01*
X128465216Y-155175750D01*
X128466114Y-155174857D01*
X128480539Y-155156153D01*
X128489313Y-155130732D01*
X128493739Y-155091584D01*
X128495118Y-155031697D01*
X128495143Y-155018430D01*
X128491812Y-154935901D01*
X128480969Y-154878691D01*
X128461340Y-154843766D01*
X128431650Y-154828094D01*
X128414491Y-154826514D01*
X128373766Y-154833926D01*
X128345832Y-154858330D01*
X128329017Y-154902980D01*
X128321650Y-154971130D01*
X128320971Y-155008603D01*
X128181472Y-155008603D01*
X128181708Y-154995245D01*
X128183677Y-154930333D01*
G36*
X132669833Y-154738663D02*
G01*
X132672048Y-154776850D01*
X132673784Y-154834886D01*
X132674899Y-154908180D01*
X132675257Y-154985055D01*
X132675257Y-155245196D01*
X132629326Y-155291127D01*
X132597675Y-155319429D01*
X132569890Y-155330893D01*
X132531915Y-155330168D01*
X132516840Y-155328321D01*
X132469726Y-155322948D01*
X132430756Y-155319869D01*
X132421257Y-155319585D01*
X132389233Y-155321445D01*
X132343432Y-155326114D01*
X132325674Y-155328321D01*
X132282057Y-155331735D01*
X132252745Y-155324320D01*
X132223680Y-155301427D01*
X132213188Y-155291127D01*
X132167257Y-155245196D01*
X132167257Y-154758602D01*
X132204226Y-154741758D01*
X132236059Y-154729282D01*
X132254683Y-154724914D01*
X132259458Y-154738718D01*
X132263921Y-154777286D01*
X132267775Y-154836356D01*
X132270722Y-154911663D01*
X132272143Y-154975286D01*
X132276114Y-155225657D01*
X132310759Y-155230556D01*
X132342268Y-155227131D01*
X132357708Y-155216041D01*
X132362023Y-155195308D01*
X132365708Y-155151145D01*
X132368469Y-155089146D01*
X132370012Y-155014909D01*
X132370235Y-154976706D01*
X132370457Y-154756783D01*
X132416166Y-154740849D01*
X132448518Y-154730015D01*
X132466115Y-154724962D01*
X132466623Y-154724914D01*
X132468388Y-154738648D01*
X132470329Y-154776730D01*
X132472282Y-154834482D01*
X132474084Y-154907227D01*
X132475343Y-154975286D01*
X132479314Y-155225657D01*
X132566400Y-155225657D01*
X132570396Y-154997240D01*
X132574392Y-154768822D01*
X132616847Y-154746868D01*
X132648192Y-154731793D01*
X132666744Y-154724951D01*
X132667279Y-154724914D01*
X132669833Y-154738663D01*
G37*
X132669833Y-154738663D02*
X132672048Y-154776850D01*
X132673784Y-154834886D01*
X132674899Y-154908180D01*
X132675257Y-154985055D01*
X132675257Y-155245196D01*
X132629326Y-155291127D01*
X132597675Y-155319429D01*
X132569890Y-155330893D01*
X132531915Y-155330168D01*
X132516840Y-155328321D01*
X132469726Y-155322948D01*
X132430756Y-155319869D01*
X132421257Y-155319585D01*
X132389233Y-155321445D01*
X132343432Y-155326114D01*
X132325674Y-155328321D01*
X132282057Y-155331735D01*
X132252745Y-155324320D01*
X132223680Y-155301427D01*
X132213188Y-155291127D01*
X132167257Y-155245196D01*
X132167257Y-154758602D01*
X132204226Y-154741758D01*
X132236059Y-154729282D01*
X132254683Y-154724914D01*
X132259458Y-154738718D01*
X132263921Y-154777286D01*
X132267775Y-154836356D01*
X132270722Y-154911663D01*
X132272143Y-154975286D01*
X132276114Y-155225657D01*
X132310759Y-155230556D01*
X132342268Y-155227131D01*
X132357708Y-155216041D01*
X132362023Y-155195308D01*
X132365708Y-155151145D01*
X132368469Y-155089146D01*
X132370012Y-155014909D01*
X132370235Y-154976706D01*
X132370457Y-154756783D01*
X132416166Y-154740849D01*
X132448518Y-154730015D01*
X132466115Y-154724962D01*
X132466623Y-154724914D01*
X132468388Y-154738648D01*
X132470329Y-154776730D01*
X132472282Y-154834482D01*
X132474084Y-154907227D01*
X132475343Y-154975286D01*
X132479314Y-155225657D01*
X132566400Y-155225657D01*
X132570396Y-154997240D01*
X132574392Y-154768822D01*
X132616847Y-154746868D01*
X132648192Y-154731793D01*
X132666744Y-154724951D01*
X132667279Y-154724914D01*
X132669833Y-154738663D01*
G36*
X133034876Y-154736335D02*
G01*
X133076667Y-154755344D01*
X133109469Y-154778378D01*
X133133503Y-154804133D01*
X133150097Y-154837358D01*
X133160577Y-154882800D01*
X133166271Y-154945207D01*
X133168507Y-155029327D01*
X133168743Y-155084721D01*
X133168743Y-155300826D01*
X133131774Y-155317670D01*
X133102656Y-155329981D01*
X133088231Y-155334514D01*
X133085472Y-155321025D01*
X133083282Y-155284653D01*
X133081942Y-155231542D01*
X133081657Y-155189372D01*
X133080434Y-155128447D01*
X133077136Y-155080115D01*
X133072321Y-155050518D01*
X133068496Y-155044229D01*
X133042783Y-155050652D01*
X133002418Y-155067125D01*
X132955679Y-155089458D01*
X132910845Y-155113457D01*
X132876193Y-155134930D01*
X132860002Y-155149685D01*
X132859938Y-155149845D01*
X132861330Y-155177152D01*
X132873818Y-155203219D01*
X132895743Y-155224392D01*
X132927743Y-155231474D01*
X132955092Y-155230649D01*
X132993826Y-155230042D01*
X133014158Y-155239116D01*
X133026369Y-155263092D01*
X133027909Y-155267613D01*
X133033203Y-155301806D01*
X133019047Y-155322568D01*
X132982148Y-155332462D01*
X132942289Y-155334292D01*
X132870562Y-155320727D01*
X132833432Y-155301355D01*
X132787576Y-155255845D01*
X132763256Y-155199983D01*
X132761073Y-155140957D01*
X132781629Y-155085953D01*
X132812549Y-155051486D01*
X132843420Y-155032189D01*
X132891942Y-155007759D01*
X132948485Y-154982985D01*
X132957910Y-154979199D01*
X133020019Y-154951791D01*
X133055822Y-154927634D01*
X133067337Y-154903619D01*
X133056580Y-154876635D01*
X133038114Y-154855543D01*
X132994469Y-154829572D01*
X132946446Y-154827624D01*
X132902406Y-154847637D01*
X132870709Y-154887551D01*
X132866549Y-154897848D01*
X132842327Y-154935724D01*
X132806965Y-154963842D01*
X132762343Y-154986917D01*
X132762343Y-154921485D01*
X132764969Y-154881506D01*
X132776230Y-154849997D01*
X132801199Y-154816378D01*
X132825169Y-154790484D01*
X132862441Y-154753817D01*
X132891401Y-154734121D01*
X132922505Y-154726220D01*
X132957713Y-154724914D01*
X133034876Y-154736335D01*
G37*
X133034876Y-154736335D02*
X133076667Y-154755344D01*
X133109469Y-154778378D01*
X133133503Y-154804133D01*
X133150097Y-154837358D01*
X133160577Y-154882800D01*
X133166271Y-154945207D01*
X133168507Y-155029327D01*
X133168743Y-155084721D01*
X133168743Y-155300826D01*
X133131774Y-155317670D01*
X133102656Y-155329981D01*
X133088231Y-155334514D01*
X133085472Y-155321025D01*
X133083282Y-155284653D01*
X133081942Y-155231542D01*
X133081657Y-155189372D01*
X133080434Y-155128447D01*
X133077136Y-155080115D01*
X133072321Y-155050518D01*
X133068496Y-155044229D01*
X133042783Y-155050652D01*
X133002418Y-155067125D01*
X132955679Y-155089458D01*
X132910845Y-155113457D01*
X132876193Y-155134930D01*
X132860002Y-155149685D01*
X132859938Y-155149845D01*
X132861330Y-155177152D01*
X132873818Y-155203219D01*
X132895743Y-155224392D01*
X132927743Y-155231474D01*
X132955092Y-155230649D01*
X132993826Y-155230042D01*
X133014158Y-155239116D01*
X133026369Y-155263092D01*
X133027909Y-155267613D01*
X133033203Y-155301806D01*
X133019047Y-155322568D01*
X132982148Y-155332462D01*
X132942289Y-155334292D01*
X132870562Y-155320727D01*
X132833432Y-155301355D01*
X132787576Y-155255845D01*
X132763256Y-155199983D01*
X132761073Y-155140957D01*
X132781629Y-155085953D01*
X132812549Y-155051486D01*
X132843420Y-155032189D01*
X132891942Y-155007759D01*
X132948485Y-154982985D01*
X132957910Y-154979199D01*
X133020019Y-154951791D01*
X133055822Y-154927634D01*
X133067337Y-154903619D01*
X133056580Y-154876635D01*
X133038114Y-154855543D01*
X132994469Y-154829572D01*
X132946446Y-154827624D01*
X132902406Y-154847637D01*
X132870709Y-154887551D01*
X132866549Y-154897848D01*
X132842327Y-154935724D01*
X132806965Y-154963842D01*
X132762343Y-154986917D01*
X132762343Y-154921485D01*
X132764969Y-154881506D01*
X132776230Y-154849997D01*
X132801199Y-154816378D01*
X132825169Y-154790484D01*
X132862441Y-154753817D01*
X132891401Y-154734121D01*
X132922505Y-154726220D01*
X132957713Y-154724914D01*
X133034876Y-154736335D01*
G36*
X127627096Y-154888159D02*
G01*
X127632068Y-154851949D01*
X127640713Y-154825299D01*
X127654005Y-154801722D01*
X127656943Y-154797338D01*
X127706313Y-154738249D01*
X127760109Y-154703947D01*
X127825602Y-154690331D01*
X127847842Y-154689665D01*
X127931115Y-154701962D01*
X127999145Y-154737733D01*
X128049351Y-154795301D01*
X128067185Y-154832312D01*
X128081063Y-154887882D01*
X128088167Y-154958096D01*
X128088840Y-155034727D01*
X128083427Y-155109552D01*
X128072270Y-155174342D01*
X128055714Y-155220873D01*
X128050626Y-155228887D01*
X127990355Y-155288707D01*
X127918769Y-155324535D01*
X127841092Y-155335020D01*
X127762548Y-155318810D01*
X127740689Y-155309092D01*
X127698122Y-155279143D01*
X127660763Y-155239433D01*
X127657232Y-155234397D01*
X127642881Y-155210124D01*
X127633394Y-155184178D01*
X127627790Y-155150022D01*
X127625086Y-155101119D01*
X127624299Y-155030935D01*
X127624286Y-155015200D01*
X127624322Y-155010192D01*
X127769429Y-155010192D01*
X127770273Y-155076430D01*
X127773596Y-155120386D01*
X127780583Y-155148779D01*
X127792416Y-155168325D01*
X127798457Y-155174857D01*
X127833186Y-155199680D01*
X127866903Y-155198548D01*
X127900995Y-155177016D01*
X127921329Y-155154029D01*
X127933371Y-155120478D01*
X127940134Y-155067569D01*
X127940598Y-155061399D01*
X127941752Y-154965513D01*
X127929688Y-154894299D01*
X127904570Y-154848194D01*
X127866560Y-154827635D01*
X127852992Y-154826514D01*
X127817364Y-154832152D01*
X127792994Y-154851686D01*
X127778093Y-154889042D01*
X127770875Y-154948150D01*
X127769429Y-155010192D01*
X127624322Y-155010192D01*
X127624826Y-154940413D01*
X127627096Y-154888159D01*
G37*
X127627096Y-154888159D02*
X127632068Y-154851949D01*
X127640713Y-154825299D01*
X127654005Y-154801722D01*
X127656943Y-154797338D01*
X127706313Y-154738249D01*
X127760109Y-154703947D01*
X127825602Y-154690331D01*
X127847842Y-154689665D01*
X127931115Y-154701962D01*
X127999145Y-154737733D01*
X128049351Y-154795301D01*
X128067185Y-154832312D01*
X128081063Y-154887882D01*
X128088167Y-154958096D01*
X128088840Y-155034727D01*
X128083427Y-155109552D01*
X128072270Y-155174342D01*
X128055714Y-155220873D01*
X128050626Y-155228887D01*
X127990355Y-155288707D01*
X127918769Y-155324535D01*
X127841092Y-155335020D01*
X127762548Y-155318810D01*
X127740689Y-155309092D01*
X127698122Y-155279143D01*
X127660763Y-155239433D01*
X127657232Y-155234397D01*
X127642881Y-155210124D01*
X127633394Y-155184178D01*
X127627790Y-155150022D01*
X127625086Y-155101119D01*
X127624299Y-155030935D01*
X127624286Y-155015200D01*
X127624322Y-155010192D01*
X127769429Y-155010192D01*
X127770273Y-155076430D01*
X127773596Y-155120386D01*
X127780583Y-155148779D01*
X127792416Y-155168325D01*
X127798457Y-155174857D01*
X127833186Y-155199680D01*
X127866903Y-155198548D01*
X127900995Y-155177016D01*
X127921329Y-155154029D01*
X127933371Y-155120478D01*
X127940134Y-155067569D01*
X127940598Y-155061399D01*
X127941752Y-154965513D01*
X127929688Y-154894299D01*
X127904570Y-154848194D01*
X127866560Y-154827635D01*
X127852992Y-154826514D01*
X127817364Y-154832152D01*
X127792994Y-154851686D01*
X127778093Y-154889042D01*
X127770875Y-154948150D01*
X127769429Y-155010192D01*
X127624322Y-155010192D01*
X127624826Y-154940413D01*
X127627096Y-154888159D01*
G36*
X131419926Y-154729755D02*
G01*
X131485858Y-154754084D01*
X131539273Y-154797117D01*
X131560164Y-154827409D01*
X131582939Y-154882994D01*
X131582466Y-154923186D01*
X131558562Y-154950217D01*
X131549717Y-154954813D01*
X131511530Y-154969144D01*
X131492028Y-154965472D01*
X131485422Y-154941407D01*
X131485086Y-154928114D01*
X131472992Y-154879210D01*
X131441471Y-154844999D01*
X131397659Y-154828476D01*
X131348695Y-154832634D01*
X131308894Y-154854227D01*
X131295450Y-154866544D01*
X131285921Y-154881487D01*
X131279485Y-154904075D01*
X131275317Y-154939328D01*
X131272597Y-154992266D01*
X131270502Y-155067907D01*
X131269960Y-155091857D01*
X131267981Y-155173790D01*
X131265731Y-155231455D01*
X131262357Y-155269608D01*
X131257006Y-155293004D01*
X131248824Y-155306398D01*
X131236959Y-155314545D01*
X131229362Y-155318144D01*
X131197102Y-155330452D01*
X131178111Y-155334514D01*
X131171836Y-155320948D01*
X131168006Y-155279934D01*
X131166600Y-155210999D01*
X131167598Y-155113669D01*
X131167908Y-155098657D01*
X131170101Y-155009859D01*
X131172693Y-154945019D01*
X131176382Y-154899067D01*
X131181864Y-154866935D01*
X131189835Y-154843553D01*
X131200993Y-154823852D01*
X131206830Y-154815410D01*
X131240296Y-154778057D01*
X131277727Y-154749003D01*
X131282309Y-154746467D01*
X131349426Y-154726443D01*
X131419926Y-154729755D01*
G37*
X131419926Y-154729755D02*
X131485858Y-154754084D01*
X131539273Y-154797117D01*
X131560164Y-154827409D01*
X131582939Y-154882994D01*
X131582466Y-154923186D01*
X131558562Y-154950217D01*
X131549717Y-154954813D01*
X131511530Y-154969144D01*
X131492028Y-154965472D01*
X131485422Y-154941407D01*
X131485086Y-154928114D01*
X131472992Y-154879210D01*
X131441471Y-154844999D01*
X131397659Y-154828476D01*
X131348695Y-154832634D01*
X131308894Y-154854227D01*
X131295450Y-154866544D01*
X131285921Y-154881487D01*
X131279485Y-154904075D01*
X131275317Y-154939328D01*
X131272597Y-154992266D01*
X131270502Y-155067907D01*
X131269960Y-155091857D01*
X131267981Y-155173790D01*
X131265731Y-155231455D01*
X131262357Y-155269608D01*
X131257006Y-155293004D01*
X131248824Y-155306398D01*
X131236959Y-155314545D01*
X131229362Y-155318144D01*
X131197102Y-155330452D01*
X131178111Y-155334514D01*
X131171836Y-155320948D01*
X131168006Y-155279934D01*
X131166600Y-155210999D01*
X131167598Y-155113669D01*
X131167908Y-155098657D01*
X131170101Y-155009859D01*
X131172693Y-154945019D01*
X131176382Y-154899067D01*
X131181864Y-154866935D01*
X131189835Y-154843553D01*
X131200993Y-154823852D01*
X131206830Y-154815410D01*
X131240296Y-154778057D01*
X131277727Y-154749003D01*
X131282309Y-154746467D01*
X131349426Y-154726443D01*
X131419926Y-154729755D01*
G36*
X129606093Y-154707780D02*
G01*
X129652672Y-154734723D01*
X129685057Y-154761466D01*
X129708742Y-154789484D01*
X129725059Y-154823748D01*
X129735339Y-154869227D01*
X129740914Y-154930892D01*
X129743116Y-155013711D01*
X129743371Y-155073246D01*
X129743371Y-155292391D01*
X129681686Y-155320044D01*
X129620000Y-155347697D01*
X129612743Y-155107670D01*
X129609744Y-155018028D01*
X129606598Y-154952962D01*
X129602701Y-154908026D01*
X129597447Y-154878770D01*
X129590231Y-154860748D01*
X129580450Y-154849511D01*
X129577312Y-154847079D01*
X129529761Y-154828083D01*
X129481697Y-154835600D01*
X129453086Y-154855543D01*
X129441447Y-154869675D01*
X129433391Y-154888220D01*
X129428271Y-154916334D01*
X129425441Y-154959173D01*
X129424256Y-155021895D01*
X129424057Y-155087261D01*
X129424018Y-155169268D01*
X129422614Y-155227316D01*
X129417914Y-155266465D01*
X129407987Y-155291780D01*
X129390903Y-155308323D01*
X129364732Y-155321156D01*
X129329775Y-155334491D01*
X129291596Y-155349007D01*
X129296141Y-155091389D01*
X129297971Y-154998519D01*
X129300112Y-154929889D01*
X129303181Y-154880711D01*
X129307794Y-154846198D01*
X129314568Y-154821562D01*
X129324119Y-154802016D01*
X129335634Y-154784770D01*
X129391190Y-154729680D01*
X129458980Y-154697822D01*
X129532713Y-154690191D01*
X129606093Y-154707780D01*
G37*
X129606093Y-154707780D02*
X129652672Y-154734723D01*
X129685057Y-154761466D01*
X129708742Y-154789484D01*
X129725059Y-154823748D01*
X129735339Y-154869227D01*
X129740914Y-154930892D01*
X129743116Y-155013711D01*
X129743371Y-155073246D01*
X129743371Y-155292391D01*
X129681686Y-155320044D01*
X129620000Y-155347697D01*
X129612743Y-155107670D01*
X129609744Y-155018028D01*
X129606598Y-154952962D01*
X129602701Y-154908026D01*
X129597447Y-154878770D01*
X129590231Y-154860748D01*
X129580450Y-154849511D01*
X129577312Y-154847079D01*
X129529761Y-154828083D01*
X129481697Y-154835600D01*
X129453086Y-154855543D01*
X129441447Y-154869675D01*
X129433391Y-154888220D01*
X129428271Y-154916334D01*
X129425441Y-154959173D01*
X129424256Y-155021895D01*
X129424057Y-155087261D01*
X129424018Y-155169268D01*
X129422614Y-155227316D01*
X129417914Y-155266465D01*
X129407987Y-155291780D01*
X129390903Y-155308323D01*
X129364732Y-155321156D01*
X129329775Y-155334491D01*
X129291596Y-155349007D01*
X129296141Y-155091389D01*
X129297971Y-154998519D01*
X129300112Y-154929889D01*
X129303181Y-154880711D01*
X129307794Y-154846198D01*
X129314568Y-154821562D01*
X129324119Y-154802016D01*
X129335634Y-154784770D01*
X129391190Y-154729680D01*
X129458980Y-154697822D01*
X129532713Y-154690191D01*
X129606093Y-154707780D01*
G36*
X130265886Y-154631289D02*
G01*
X130270139Y-154690613D01*
X130275025Y-154725572D01*
X130281795Y-154740820D01*
X130291702Y-154741015D01*
X130294914Y-154739195D01*
X130337644Y-154726015D01*
X130393227Y-154726785D01*
X130449737Y-154740333D01*
X130485082Y-154757861D01*
X130521321Y-154785861D01*
X130547813Y-154817549D01*
X130565999Y-154857813D01*
X130577322Y-154911543D01*
X130583222Y-154983626D01*
X130585143Y-155078951D01*
X130585177Y-155097237D01*
X130585200Y-155302646D01*
X130539491Y-155318580D01*
X130507027Y-155329420D01*
X130489215Y-155334468D01*
X130488691Y-155334514D01*
X130486937Y-155320828D01*
X130485444Y-155283076D01*
X130484326Y-155226224D01*
X130483697Y-155155234D01*
X130483600Y-155112073D01*
X130483398Y-155026973D01*
X130482358Y-154965981D01*
X130479831Y-154924177D01*
X130475164Y-154896642D01*
X130467707Y-154878456D01*
X130456811Y-154864698D01*
X130450007Y-154858073D01*
X130403272Y-154831375D01*
X130352272Y-154829375D01*
X130306001Y-154851955D01*
X130297444Y-154860107D01*
X130284893Y-154875436D01*
X130276188Y-154893618D01*
X130270631Y-154919909D01*
X130267526Y-154959562D01*
X130266176Y-155017832D01*
X130265886Y-155098173D01*
X130265886Y-155302646D01*
X130220177Y-155318580D01*
X130187713Y-155329420D01*
X130169901Y-155334468D01*
X130169377Y-155334514D01*
X130168037Y-155320623D01*
X130166828Y-155281439D01*
X130165801Y-155220700D01*
X130165002Y-155142141D01*
X130164481Y-155049498D01*
X130164286Y-154946509D01*
X130164286Y-154549342D01*
X130211457Y-154529444D01*
X130258629Y-154509547D01*
X130265886Y-154631289D01*
G37*
X130265886Y-154631289D02*
X130270139Y-154690613D01*
X130275025Y-154725572D01*
X130281795Y-154740820D01*
X130291702Y-154741015D01*
X130294914Y-154739195D01*
X130337644Y-154726015D01*
X130393227Y-154726785D01*
X130449737Y-154740333D01*
X130485082Y-154757861D01*
X130521321Y-154785861D01*
X130547813Y-154817549D01*
X130565999Y-154857813D01*
X130577322Y-154911543D01*
X130583222Y-154983626D01*
X130585143Y-155078951D01*
X130585177Y-155097237D01*
X130585200Y-155302646D01*
X130539491Y-155318580D01*
X130507027Y-155329420D01*
X130489215Y-155334468D01*
X130488691Y-155334514D01*
X130486937Y-155320828D01*
X130485444Y-155283076D01*
X130484326Y-155226224D01*
X130483697Y-155155234D01*
X130483600Y-155112073D01*
X130483398Y-155026973D01*
X130482358Y-154965981D01*
X130479831Y-154924177D01*
X130475164Y-154896642D01*
X130467707Y-154878456D01*
X130456811Y-154864698D01*
X130450007Y-154858073D01*
X130403272Y-154831375D01*
X130352272Y-154829375D01*
X130306001Y-154851955D01*
X130297444Y-154860107D01*
X130284893Y-154875436D01*
X130276188Y-154893618D01*
X130270631Y-154919909D01*
X130267526Y-154959562D01*
X130266176Y-155017832D01*
X130265886Y-155098173D01*
X130265886Y-155302646D01*
X130220177Y-155318580D01*
X130187713Y-155329420D01*
X130169901Y-155334468D01*
X130169377Y-155334514D01*
X130168037Y-155320623D01*
X130166828Y-155281439D01*
X130165801Y-155220700D01*
X130165002Y-155142141D01*
X130164481Y-155049498D01*
X130164286Y-154946509D01*
X130164286Y-154549342D01*
X130211457Y-154529444D01*
X130258629Y-154509547D01*
X130265886Y-154631289D01*
G36*
X130929744Y-154730968D02*
G01*
X130986616Y-154752087D01*
X130987267Y-154752493D01*
X131022440Y-154778380D01*
X131048407Y-154808633D01*
X131066670Y-154848058D01*
X131078732Y-154901462D01*
X131086096Y-154973651D01*
X131090264Y-155069432D01*
X131090629Y-155083078D01*
X131095876Y-155288842D01*
X131051716Y-155311678D01*
X131019763Y-155327110D01*
X131000470Y-155334423D01*
X130999578Y-155334514D01*
X130996239Y-155321022D01*
X130993587Y-155284626D01*
X130991956Y-155231452D01*
X130991600Y-155188393D01*
X130991592Y-155118641D01*
X130988403Y-155074837D01*
X130977288Y-155053944D01*
X130953501Y-155052925D01*
X130912296Y-155068741D01*
X130850086Y-155097815D01*
X130804341Y-155121963D01*
X130780813Y-155142913D01*
X130773896Y-155165747D01*
X130773886Y-155166877D01*
X130785299Y-155206212D01*
X130819092Y-155227462D01*
X130870809Y-155230539D01*
X130908061Y-155230006D01*
X130927703Y-155240735D01*
X130939952Y-155266505D01*
X130947002Y-155299337D01*
X130936842Y-155317966D01*
X130933017Y-155320632D01*
X130897001Y-155331340D01*
X130846566Y-155332856D01*
X130794626Y-155325759D01*
X130757822Y-155312788D01*
X130706938Y-155269585D01*
X130678014Y-155209446D01*
X130672286Y-155162462D01*
X130676657Y-155120082D01*
X130692475Y-155085488D01*
X130723797Y-155054763D01*
X130774678Y-155023990D01*
X130849176Y-154989252D01*
X130853714Y-154987288D01*
X130920821Y-154956287D01*
X130962232Y-154930862D01*
X130979981Y-154908014D01*
X130976107Y-154884745D01*
X130952643Y-154858056D01*
X130945627Y-154851914D01*
X130898630Y-154828100D01*
X130849933Y-154829103D01*
X130807522Y-154852451D01*
X130779384Y-154895675D01*
X130776769Y-154904160D01*
X130751308Y-154945308D01*
X130719001Y-154965128D01*
X130672286Y-154984770D01*
X130672286Y-154933950D01*
X130686496Y-154860082D01*
X130728675Y-154792327D01*
X130750624Y-154769661D01*
X130800517Y-154740569D01*
X130863967Y-154727400D01*
X130929744Y-154730968D01*
G37*
X130929744Y-154730968D02*
X130986616Y-154752087D01*
X130987267Y-154752493D01*
X131022440Y-154778380D01*
X131048407Y-154808633D01*
X131066670Y-154848058D01*
X131078732Y-154901462D01*
X131086096Y-154973651D01*
X131090264Y-155069432D01*
X131090629Y-155083078D01*
X131095876Y-155288842D01*
X131051716Y-155311678D01*
X131019763Y-155327110D01*
X131000470Y-155334423D01*
X130999578Y-155334514D01*
X130996239Y-155321022D01*
X130993587Y-155284626D01*
X130991956Y-155231452D01*
X130991600Y-155188393D01*
X130991592Y-155118641D01*
X130988403Y-155074837D01*
X130977288Y-155053944D01*
X130953501Y-155052925D01*
X130912296Y-155068741D01*
X130850086Y-155097815D01*
X130804341Y-155121963D01*
X130780813Y-155142913D01*
X130773896Y-155165747D01*
X130773886Y-155166877D01*
X130785299Y-155206212D01*
X130819092Y-155227462D01*
X130870809Y-155230539D01*
X130908061Y-155230006D01*
X130927703Y-155240735D01*
X130939952Y-155266505D01*
X130947002Y-155299337D01*
X130936842Y-155317966D01*
X130933017Y-155320632D01*
X130897001Y-155331340D01*
X130846566Y-155332856D01*
X130794626Y-155325759D01*
X130757822Y-155312788D01*
X130706938Y-155269585D01*
X130678014Y-155209446D01*
X130672286Y-155162462D01*
X130676657Y-155120082D01*
X130692475Y-155085488D01*
X130723797Y-155054763D01*
X130774678Y-155023990D01*
X130849176Y-154989252D01*
X130853714Y-154987288D01*
X130920821Y-154956287D01*
X130962232Y-154930862D01*
X130979981Y-154908014D01*
X130976107Y-154884745D01*
X130952643Y-154858056D01*
X130945627Y-154851914D01*
X130898630Y-154828100D01*
X130849933Y-154829103D01*
X130807522Y-154852451D01*
X130779384Y-154895675D01*
X130776769Y-154904160D01*
X130751308Y-154945308D01*
X130719001Y-154965128D01*
X130672286Y-154984770D01*
X130672286Y-154933950D01*
X130686496Y-154860082D01*
X130728675Y-154792327D01*
X130750624Y-154769661D01*
X130800517Y-154740569D01*
X130863967Y-154727400D01*
X130929744Y-154730968D01*
G36*
X128761550Y-154816212D02*
G01*
X128795456Y-154767302D01*
X128856653Y-154717878D01*
X128924063Y-154693359D01*
X128992880Y-154691797D01*
X129058303Y-154711239D01*
X129115527Y-154749735D01*
X129159749Y-154805335D01*
X129186167Y-154876086D01*
X129191510Y-154928162D01*
X129190903Y-154949893D01*
X129185822Y-154966531D01*
X129171855Y-154981437D01*
X129144589Y-154997973D01*
X129099612Y-155019498D01*
X129032511Y-155049374D01*
X129032171Y-155049524D01*
X128970407Y-155077813D01*
X128919759Y-155102933D01*
X128885404Y-155122179D01*
X128872518Y-155132848D01*
X128872514Y-155132934D01*
X128883872Y-155156166D01*
X128910431Y-155181774D01*
X128940923Y-155200221D01*
X128956370Y-155203886D01*
X128998515Y-155191212D01*
X129034808Y-155159471D01*
X129052517Y-155124572D01*
X129069552Y-155098845D01*
X129102922Y-155069546D01*
X129142149Y-155044235D01*
X129176756Y-155030471D01*
X129183993Y-155029714D01*
X129192139Y-155042160D01*
X129192630Y-155073972D01*
X129186643Y-155116866D01*
X129175357Y-155162558D01*
X129159950Y-155202761D01*
X129159171Y-155204322D01*
X129112804Y-155269062D01*
X129052711Y-155313097D01*
X128984465Y-155334711D01*
X128913638Y-155332185D01*
X128845804Y-155303804D01*
X128842788Y-155301808D01*
X128789427Y-155253448D01*
X128754340Y-155190352D01*
X128734922Y-155107387D01*
X128732316Y-155084078D01*
X128727701Y-154974055D01*
X128733233Y-154922748D01*
X128872514Y-154922748D01*
X128874324Y-154954753D01*
X128884222Y-154964093D01*
X128908898Y-154957105D01*
X128947795Y-154940587D01*
X128991275Y-154919881D01*
X128992356Y-154919333D01*
X129029209Y-154899949D01*
X129044000Y-154887013D01*
X129040353Y-154873451D01*
X129024995Y-154855632D01*
X128985923Y-154829845D01*
X128943846Y-154827950D01*
X128906103Y-154846717D01*
X128880034Y-154882915D01*
X128872514Y-154922748D01*
X128733233Y-154922748D01*
X128737194Y-154886027D01*
X128761550Y-154816212D01*
G37*
X128761550Y-154816212D02*
X128795456Y-154767302D01*
X128856653Y-154717878D01*
X128924063Y-154693359D01*
X128992880Y-154691797D01*
X129058303Y-154711239D01*
X129115527Y-154749735D01*
X129159749Y-154805335D01*
X129186167Y-154876086D01*
X129191510Y-154928162D01*
X129190903Y-154949893D01*
X129185822Y-154966531D01*
X129171855Y-154981437D01*
X129144589Y-154997973D01*
X129099612Y-155019498D01*
X129032511Y-155049374D01*
X129032171Y-155049524D01*
X128970407Y-155077813D01*
X128919759Y-155102933D01*
X128885404Y-155122179D01*
X128872518Y-155132848D01*
X128872514Y-155132934D01*
X128883872Y-155156166D01*
X128910431Y-155181774D01*
X128940923Y-155200221D01*
X128956370Y-155203886D01*
X128998515Y-155191212D01*
X129034808Y-155159471D01*
X129052517Y-155124572D01*
X129069552Y-155098845D01*
X129102922Y-155069546D01*
X129142149Y-155044235D01*
X129176756Y-155030471D01*
X129183993Y-155029714D01*
X129192139Y-155042160D01*
X129192630Y-155073972D01*
X129186643Y-155116866D01*
X129175357Y-155162558D01*
X129159950Y-155202761D01*
X129159171Y-155204322D01*
X129112804Y-155269062D01*
X129052711Y-155313097D01*
X128984465Y-155334711D01*
X128913638Y-155332185D01*
X128845804Y-155303804D01*
X128842788Y-155301808D01*
X128789427Y-155253448D01*
X128754340Y-155190352D01*
X128734922Y-155107387D01*
X128732316Y-155084078D01*
X128727701Y-154974055D01*
X128733233Y-154922748D01*
X128872514Y-154922748D01*
X128874324Y-154954753D01*
X128884222Y-154964093D01*
X128908898Y-154957105D01*
X128947795Y-154940587D01*
X128991275Y-154919881D01*
X128992356Y-154919333D01*
X129029209Y-154899949D01*
X129044000Y-154887013D01*
X129040353Y-154873451D01*
X129024995Y-154855632D01*
X128985923Y-154829845D01*
X128943846Y-154827950D01*
X128906103Y-154846717D01*
X128880034Y-154882915D01*
X128872514Y-154922748D01*
X128733233Y-154922748D01*
X128737194Y-154886027D01*
X128761550Y-154816212D01*
G36*
X133542600Y-154738752D02*
G01*
X133559948Y-154746334D01*
X133601356Y-154779128D01*
X133636765Y-154826547D01*
X133658664Y-154877151D01*
X133662229Y-154902098D01*
X133650279Y-154936927D01*
X133624067Y-154955357D01*
X133595964Y-154966516D01*
X133583095Y-154968572D01*
X133576829Y-154953649D01*
X133564456Y-154921175D01*
X133559028Y-154906502D01*
X133528590Y-154855744D01*
X133484520Y-154830427D01*
X133428010Y-154831206D01*
X133423825Y-154832203D01*
X133393655Y-154846507D01*
X133371476Y-154874393D01*
X133356327Y-154919287D01*
X133347250Y-154984615D01*
X133343286Y-155073804D01*
X133342914Y-155121261D01*
X133342730Y-155196071D01*
X133341522Y-155247069D01*
X133338309Y-155279471D01*
X133332109Y-155298495D01*
X133321940Y-155309356D01*
X133306819Y-155317272D01*
X133305946Y-155317670D01*
X133276828Y-155329981D01*
X133262403Y-155334514D01*
X133260186Y-155320809D01*
X133258289Y-155282925D01*
X133256847Y-155225715D01*
X133255998Y-155154027D01*
X133255829Y-155101565D01*
X133256692Y-155000047D01*
X133260070Y-154923032D01*
X133267142Y-154866023D01*
X133279088Y-154824526D01*
X133297090Y-154794043D01*
X133322327Y-154770080D01*
X133347247Y-154753355D01*
X133407171Y-154731097D01*
X133476911Y-154726076D01*
X133542600Y-154738752D01*
G37*
X133542600Y-154738752D02*
X133559948Y-154746334D01*
X133601356Y-154779128D01*
X133636765Y-154826547D01*
X133658664Y-154877151D01*
X133662229Y-154902098D01*
X133650279Y-154936927D01*
X133624067Y-154955357D01*
X133595964Y-154966516D01*
X133583095Y-154968572D01*
X133576829Y-154953649D01*
X133564456Y-154921175D01*
X133559028Y-154906502D01*
X133528590Y-154855744D01*
X133484520Y-154830427D01*
X133428010Y-154831206D01*
X133423825Y-154832203D01*
X133393655Y-154846507D01*
X133371476Y-154874393D01*
X133356327Y-154919287D01*
X133347250Y-154984615D01*
X133343286Y-155073804D01*
X133342914Y-155121261D01*
X133342730Y-155196071D01*
X133341522Y-155247069D01*
X133338309Y-155279471D01*
X133332109Y-155298495D01*
X133321940Y-155309356D01*
X133306819Y-155317272D01*
X133305946Y-155317670D01*
X133276828Y-155329981D01*
X133262403Y-155334514D01*
X133260186Y-155320809D01*
X133258289Y-155282925D01*
X133256847Y-155225715D01*
X133255998Y-155154027D01*
X133255829Y-155101565D01*
X133256692Y-155000047D01*
X133260070Y-154923032D01*
X133267142Y-154866023D01*
X133279088Y-154824526D01*
X133297090Y-154794043D01*
X133322327Y-154770080D01*
X133347247Y-154753355D01*
X133407171Y-154731097D01*
X133476911Y-154726076D01*
X133542600Y-154738752D01*
D13*
%TO.C,R2*%
X100367500Y-168995276D02*
X100367500Y-169504724D01*
X101412500Y-168995276D02*
X101412500Y-169504724D01*
%TO.C,G\u002A\u002A\u002A*%
G36*
X115138202Y-140055882D02*
G01*
X115158978Y-140068601D01*
X115170645Y-140095698D01*
X115172036Y-140101027D01*
X115171465Y-140141065D01*
X115152559Y-140172898D01*
X115121799Y-140192691D01*
X115085667Y-140196613D01*
X115050645Y-140180830D01*
X115045313Y-140175957D01*
X115025993Y-140141667D01*
X115027209Y-140105069D01*
X115045699Y-140073545D01*
X115078200Y-140054476D01*
X115100124Y-140051947D01*
X115138202Y-140055882D01*
G37*
G36*
X110925151Y-139260854D02*
G01*
X110965181Y-139266474D01*
X110988972Y-139279586D01*
X111002127Y-139297694D01*
X111015189Y-139341259D01*
X111007966Y-139380640D01*
X110985468Y-139412379D01*
X110952706Y-139433019D01*
X110914689Y-139439102D01*
X110876427Y-139427170D01*
X110849534Y-139403000D01*
X110829418Y-139365269D01*
X110829406Y-139330350D01*
X110842756Y-139288647D01*
X110865608Y-139266701D01*
X110903984Y-139260141D01*
X110925151Y-139260854D01*
G37*
G36*
X110967740Y-138730362D02*
G01*
X111002940Y-138757826D01*
X111023082Y-138800396D01*
X111023706Y-138854560D01*
X111023510Y-138855624D01*
X111011075Y-138890715D01*
X110984854Y-138912514D01*
X110971307Y-138918770D01*
X110938241Y-138931598D01*
X110915675Y-138934744D01*
X110890513Y-138928700D01*
X110873089Y-138922467D01*
X110841012Y-138898112D01*
X110821498Y-138857410D01*
X110817686Y-138807918D01*
X110819755Y-138794032D01*
X110836880Y-138758083D01*
X110870016Y-138734796D01*
X110921946Y-138721514D01*
X110967740Y-138730362D01*
G37*
G36*
X106539051Y-138471254D02*
G01*
X106566102Y-138488744D01*
X106583557Y-138522604D01*
X106590656Y-138567165D01*
X106587145Y-138611648D01*
X106572769Y-138645276D01*
X106569861Y-138648519D01*
X106538837Y-138665494D01*
X106494869Y-138674309D01*
X106449786Y-138673622D01*
X106421022Y-138665407D01*
X106391526Y-138637474D01*
X106375444Y-138596004D01*
X106373349Y-138549718D01*
X106385817Y-138507338D01*
X106408841Y-138480511D01*
X106448189Y-138464753D01*
X106495175Y-138461855D01*
X106539051Y-138471254D01*
G37*
G36*
X106279065Y-138471016D02*
G01*
X106315451Y-138497829D01*
X106332392Y-138540439D01*
X106328703Y-138597147D01*
X106326037Y-138607716D01*
X106302984Y-138648134D01*
X106263890Y-138672588D01*
X106214338Y-138678995D01*
X106165432Y-138667619D01*
X106137918Y-138644374D01*
X106118792Y-138605945D01*
X106112159Y-138562483D01*
X106114755Y-138542248D01*
X106133482Y-138496939D01*
X106164663Y-138471300D01*
X106212935Y-138461924D01*
X106224416Y-138461700D01*
X106279065Y-138471016D01*
G37*
G36*
X105752905Y-141259941D02*
G01*
X105785414Y-141289559D01*
X105799856Y-141336683D01*
X105800440Y-141350452D01*
X105792039Y-141398322D01*
X105765946Y-141428252D01*
X105720828Y-141441472D01*
X105700587Y-141442378D01*
X105659960Y-141437982D01*
X105634560Y-141422359D01*
X105627724Y-141413824D01*
X105608086Y-141367858D01*
X105609419Y-141322553D01*
X105628965Y-141283840D01*
X105663964Y-141257649D01*
X105704082Y-141249662D01*
X105752905Y-141259941D01*
G37*
G36*
X108703299Y-140195210D02*
G01*
X108709350Y-140197279D01*
X108746446Y-140214447D01*
X108767540Y-140238688D01*
X108777161Y-140262431D01*
X108786353Y-140320732D01*
X108775315Y-140371100D01*
X108745674Y-140408765D01*
X108722828Y-140422008D01*
X108692405Y-140434034D01*
X108670905Y-140437877D01*
X108646240Y-140433967D01*
X108616872Y-140425766D01*
X108574981Y-140401519D01*
X108548866Y-140360546D01*
X108541105Y-140308169D01*
X108545227Y-140277991D01*
X108558567Y-140241377D01*
X108583061Y-140216949D01*
X108606822Y-140203703D01*
X108641735Y-140188836D01*
X108669078Y-140186307D01*
X108703299Y-140195210D01*
G37*
G36*
X107467024Y-138723864D02*
G01*
X107507190Y-138743231D01*
X107536129Y-138778245D01*
X107547718Y-138825896D01*
X107547734Y-138827861D01*
X107540858Y-138866389D01*
X107525250Y-138897061D01*
X107492798Y-138920030D01*
X107449731Y-138932064D01*
X107409637Y-138929577D01*
X107406409Y-138928429D01*
X107366274Y-138902902D01*
X107345949Y-138863614D01*
X107342170Y-138826802D01*
X107345873Y-138786656D01*
X107360342Y-138759763D01*
X107377497Y-138744122D01*
X107421752Y-138723157D01*
X107467024Y-138723864D01*
G37*
G36*
X109466243Y-138990153D02*
G01*
X109504956Y-139009699D01*
X109531147Y-139044698D01*
X109539135Y-139084816D01*
X109528855Y-139133639D01*
X109499238Y-139166148D01*
X109452113Y-139180590D01*
X109438344Y-139181174D01*
X109391999Y-139173514D01*
X109367682Y-139157679D01*
X109350252Y-139123321D01*
X109345722Y-139080296D01*
X109353585Y-139038960D01*
X109373335Y-139009666D01*
X109374973Y-139008458D01*
X109420939Y-138988820D01*
X109466243Y-138990153D01*
G37*
G36*
X105486789Y-139261864D02*
G01*
X105513351Y-139273102D01*
X105518272Y-139278114D01*
X105532985Y-139312988D01*
X105533923Y-139356929D01*
X105521666Y-139397690D01*
X105511944Y-139411794D01*
X105479060Y-139431984D01*
X105437417Y-139437720D01*
X105398601Y-139428446D01*
X105383825Y-139417959D01*
X105359131Y-139377260D01*
X105354607Y-139330458D01*
X105365268Y-139297694D01*
X105382860Y-139275736D01*
X105409511Y-139264707D01*
X105442244Y-139260854D01*
X105486789Y-139261864D01*
G37*
G36*
X106529887Y-139265895D02*
G01*
X106551116Y-139278450D01*
X106568066Y-139310621D01*
X106571640Y-139352103D01*
X106562494Y-139391923D01*
X106542751Y-139418129D01*
X106498936Y-139435830D01*
X106453515Y-139433386D01*
X106417132Y-139412433D01*
X106396951Y-139377301D01*
X106392044Y-139334697D01*
X106402592Y-139295536D01*
X106414932Y-139279523D01*
X106447571Y-139263581D01*
X106489849Y-139259007D01*
X106529887Y-139265895D01*
G37*
G36*
X105714022Y-138462047D02*
G01*
X105756800Y-138470817D01*
X105787097Y-138486910D01*
X105787592Y-138487395D01*
X105809323Y-138525179D01*
X105815002Y-138572023D01*
X105805123Y-138617929D01*
X105780175Y-138652894D01*
X105779436Y-138653484D01*
X105732353Y-138676440D01*
X105682306Y-138677828D01*
X105637094Y-138657896D01*
X105626411Y-138648576D01*
X105602929Y-138609405D01*
X105596095Y-138561943D01*
X105605290Y-138515227D01*
X105629894Y-138478295D01*
X105638555Y-138471533D01*
X105670646Y-138461864D01*
X105714022Y-138462047D01*
G37*
G36*
X114636494Y-138469643D02*
G01*
X114671797Y-138494205D01*
X114688948Y-138536492D01*
X114691082Y-138565066D01*
X114680698Y-138615881D01*
X114653310Y-138653875D01*
X114614566Y-138676524D01*
X114570113Y-138681304D01*
X114525601Y-138665691D01*
X114504206Y-138648576D01*
X114480074Y-138613200D01*
X114472680Y-138567260D01*
X114472671Y-138565066D01*
X114481062Y-138513369D01*
X114507013Y-138479954D01*
X114551688Y-138463720D01*
X114581877Y-138461700D01*
X114636494Y-138469643D01*
G37*
G36*
X108457591Y-139269075D02*
G01*
X108486859Y-139299486D01*
X108498394Y-139346446D01*
X108498467Y-139351053D01*
X108487599Y-139392782D01*
X108459301Y-139422185D01*
X108420036Y-139436400D01*
X108376264Y-139432561D01*
X108347153Y-139418129D01*
X108327721Y-139397470D01*
X108319546Y-139366039D01*
X108318599Y-139341494D01*
X108324086Y-139297762D01*
X108343249Y-139271782D01*
X108380136Y-139259997D01*
X108413384Y-139258260D01*
X108457591Y-139269075D01*
G37*
G36*
X110444859Y-138731490D02*
G01*
X110445620Y-138731776D01*
X110478402Y-138748234D01*
X110495651Y-138770878D01*
X110501994Y-138807621D01*
X110502519Y-138829082D01*
X110492393Y-138879570D01*
X110463475Y-138914146D01*
X110418607Y-138930766D01*
X110364716Y-138928247D01*
X110330157Y-138909581D01*
X110307034Y-138874544D01*
X110297543Y-138830744D01*
X110303881Y-138785787D01*
X110316440Y-138761074D01*
X110349831Y-138734025D01*
X110395585Y-138723495D01*
X110444859Y-138731490D01*
G37*
G36*
X114881237Y-139525909D02*
G01*
X114910993Y-139555960D01*
X114922312Y-139602320D01*
X114922342Y-139605150D01*
X114917066Y-139645658D01*
X114898758Y-139671332D01*
X114893788Y-139675084D01*
X114849599Y-139693325D01*
X114807036Y-139687506D01*
X114781017Y-139669388D01*
X114760084Y-139633556D01*
X114757632Y-139592965D01*
X114771073Y-139554874D01*
X114797822Y-139526540D01*
X114835290Y-139515219D01*
X114835973Y-139515215D01*
X114881237Y-139525909D01*
G37*
G36*
X108980125Y-140732461D02*
G01*
X109007174Y-140749954D01*
X109023700Y-140782825D01*
X109030446Y-140827003D01*
X109027241Y-140871659D01*
X109013919Y-140905960D01*
X109009682Y-140910973D01*
X108980563Y-140926578D01*
X108937929Y-140935456D01*
X108893415Y-140936150D01*
X108863025Y-140929320D01*
X108834585Y-140904562D01*
X108818140Y-140865222D01*
X108814280Y-140819743D01*
X108823596Y-140776570D01*
X108846677Y-140744145D01*
X108849913Y-140741715D01*
X108889263Y-140725955D01*
X108936250Y-140723058D01*
X108980125Y-140732461D01*
G37*
G36*
X109940673Y-138471016D02*
G01*
X109977060Y-138497829D01*
X109994001Y-138540439D01*
X109990312Y-138597147D01*
X109987645Y-138607716D01*
X109964592Y-138648134D01*
X109925498Y-138672588D01*
X109875946Y-138678995D01*
X109827041Y-138667619D01*
X109799527Y-138644374D01*
X109780401Y-138605945D01*
X109773767Y-138562483D01*
X109776364Y-138542248D01*
X109795091Y-138496939D01*
X109826272Y-138471300D01*
X109874543Y-138461924D01*
X109886024Y-138461700D01*
X109940673Y-138471016D01*
G37*
G36*
X114883555Y-138465359D02*
G01*
X114921656Y-138486719D01*
X114922342Y-138487395D01*
X114944072Y-138525179D01*
X114949752Y-138572023D01*
X114939873Y-138617929D01*
X114914925Y-138652894D01*
X114914185Y-138653484D01*
X114867103Y-138676440D01*
X114817056Y-138677828D01*
X114771844Y-138657896D01*
X114761161Y-138648576D01*
X114735332Y-138606102D01*
X114730753Y-138556619D01*
X114747673Y-138507926D01*
X114756254Y-138495552D01*
X114790853Y-138470267D01*
X114836621Y-138460039D01*
X114883555Y-138465359D01*
G37*
G36*
X108939354Y-139520377D02*
G01*
X108983067Y-139537941D01*
X109005514Y-139569813D01*
X109007325Y-139616903D01*
X109007163Y-139617955D01*
X108990108Y-139663118D01*
X108959565Y-139689187D01*
X108920999Y-139694422D01*
X108879874Y-139677082D01*
X108864044Y-139663549D01*
X108837714Y-139625434D01*
X108836845Y-139588002D01*
X108861461Y-139549455D01*
X108865480Y-139545315D01*
X108894254Y-139522764D01*
X108923471Y-139518051D01*
X108939354Y-139520377D01*
G37*
G36*
X111679578Y-138471395D02*
G01*
X111715511Y-138499313D01*
X111732239Y-138543699D01*
X111731709Y-138583622D01*
X111714330Y-138632949D01*
X111681088Y-138666022D01*
X111637622Y-138680656D01*
X111589571Y-138674662D01*
X111551540Y-138653484D01*
X111526255Y-138618884D01*
X111516027Y-138573117D01*
X111521348Y-138526182D01*
X111542707Y-138488081D01*
X111543384Y-138487395D01*
X111576925Y-138467682D01*
X111625962Y-138461700D01*
X111679578Y-138471395D01*
G37*
G36*
X111907316Y-138990153D02*
G01*
X111946029Y-139009699D01*
X111972220Y-139044698D01*
X111980207Y-139084816D01*
X111969928Y-139133639D01*
X111940310Y-139166148D01*
X111893186Y-139180590D01*
X111879417Y-139181174D01*
X111833072Y-139173514D01*
X111808754Y-139157679D01*
X111791324Y-139123321D01*
X111786794Y-139080296D01*
X111794657Y-139038960D01*
X111814408Y-139009666D01*
X111816045Y-139008458D01*
X111862011Y-138988820D01*
X111907316Y-138990153D01*
G37*
G36*
X115134136Y-139525594D02*
G01*
X115165949Y-139551712D01*
X115185052Y-139586048D01*
X115186403Y-139615432D01*
X115166137Y-139657769D01*
X115133014Y-139684607D01*
X115093576Y-139693567D01*
X115054363Y-139682271D01*
X115037972Y-139669388D01*
X115016516Y-139632853D01*
X115014355Y-139592022D01*
X115028782Y-139554041D01*
X115057091Y-139526057D01*
X115096371Y-139515215D01*
X115134136Y-139525594D01*
G37*
G36*
X110692520Y-139522322D02*
G01*
X110725696Y-139545376D01*
X110744619Y-139583898D01*
X110746823Y-139605150D01*
X110736233Y-139649532D01*
X110708618Y-139679847D01*
X110670217Y-139692943D01*
X110627267Y-139685672D01*
X110608357Y-139675084D01*
X110587306Y-139651113D01*
X110579957Y-139613950D01*
X110579803Y-139605150D01*
X110585078Y-139564641D01*
X110603386Y-139538968D01*
X110608357Y-139535216D01*
X110651328Y-139517885D01*
X110692520Y-139522322D01*
G37*
G36*
X115138244Y-138465850D02*
G01*
X115174870Y-138480601D01*
X115201237Y-138513935D01*
X115210255Y-138561699D01*
X115203477Y-138609001D01*
X115180601Y-138648755D01*
X115141562Y-138672613D01*
X115091761Y-138678656D01*
X115040997Y-138666794D01*
X115011040Y-138642256D01*
X114994199Y-138602981D01*
X114991343Y-138556824D01*
X115003344Y-138511641D01*
X115020844Y-138485027D01*
X115050517Y-138468360D01*
X115093217Y-138461865D01*
X115138244Y-138465850D01*
G37*
G36*
X106272578Y-139537781D02*
G01*
X106284045Y-139547981D01*
X106307469Y-139586356D01*
X106306410Y-139627077D01*
X106281217Y-139665883D01*
X106273836Y-139672600D01*
X106239816Y-139691535D01*
X106201303Y-139690295D01*
X106177367Y-139682254D01*
X106148502Y-139657919D01*
X106137251Y-139617349D01*
X106140992Y-139579059D01*
X106160124Y-139539770D01*
X106192416Y-139518928D01*
X106231892Y-139517833D01*
X106272578Y-139537781D01*
G37*
G36*
X111937205Y-137938238D02*
G01*
X111976819Y-137969058D01*
X112000942Y-138014856D01*
X112005903Y-138051588D01*
X111994728Y-138104248D01*
X111964031Y-138144059D01*
X111918053Y-138167947D01*
X111861036Y-138172839D01*
X111842350Y-138170130D01*
X111805032Y-138150661D01*
X111777160Y-138112764D01*
X111763083Y-138063192D01*
X111762204Y-138045627D01*
X111769749Y-137992701D01*
X111793481Y-137956958D01*
X111831879Y-137935163D01*
X111887193Y-137925803D01*
X111937205Y-137938238D01*
G37*
G36*
X111664560Y-142320729D02*
G01*
X111677601Y-142328304D01*
X111693798Y-142356287D01*
X111696084Y-142393655D01*
X111684485Y-142428207D01*
X111677368Y-142437161D01*
X111646679Y-142453436D01*
X111608995Y-142455984D01*
X111576520Y-142444749D01*
X111568710Y-142437633D01*
X111556976Y-142409333D01*
X111554073Y-142371835D01*
X111560101Y-142337986D01*
X111567842Y-142324971D01*
X111593376Y-142314083D01*
X111629858Y-142312798D01*
X111664560Y-142320729D01*
G37*
G36*
X106498282Y-139520377D02*
G01*
X106541995Y-139537941D01*
X106564441Y-139569813D01*
X106566253Y-139616903D01*
X106566091Y-139617955D01*
X106549035Y-139663118D01*
X106518493Y-139689187D01*
X106479927Y-139694422D01*
X106438801Y-139677082D01*
X106422972Y-139663549D01*
X106396641Y-139625434D01*
X106395773Y-139588002D01*
X106420389Y-139549455D01*
X106424408Y-139545315D01*
X106453182Y-139522764D01*
X106482398Y-139518051D01*
X106498282Y-139520377D01*
G37*
G36*
X109470541Y-138724619D02*
G01*
X109509897Y-138743072D01*
X109535255Y-138776517D01*
X109546108Y-138818078D01*
X109541949Y-138860878D01*
X109522273Y-138898040D01*
X109486572Y-138922689D01*
X109485170Y-138923191D01*
X109456238Y-138932695D01*
X109436723Y-138934709D01*
X109412394Y-138929627D01*
X109397810Y-138925607D01*
X109363867Y-138904590D01*
X109343619Y-138868983D01*
X109337395Y-138826140D01*
X109345520Y-138783414D01*
X109368323Y-138748161D01*
X109389267Y-138733617D01*
X109438576Y-138722307D01*
X109470541Y-138724619D01*
G37*
G36*
X115411867Y-139531143D02*
G01*
X115433676Y-139551686D01*
X115441613Y-139588304D01*
X115442092Y-139606749D01*
X115432540Y-139654112D01*
X115407380Y-139684425D01*
X115371854Y-139695655D01*
X115331202Y-139685769D01*
X115299331Y-139662113D01*
X115276780Y-139633339D01*
X115272067Y-139604122D01*
X115274392Y-139588238D01*
X115292089Y-139544448D01*
X115324142Y-139521939D01*
X115370904Y-139520256D01*
X115411867Y-139531143D01*
G37*
G36*
X114871698Y-140057856D02*
G01*
X114890183Y-140067636D01*
X114904461Y-140093245D01*
X114908997Y-140129980D01*
X114903349Y-140165014D01*
X114894077Y-140180729D01*
X114866201Y-140194269D01*
X114830100Y-140195708D01*
X114797324Y-140186015D01*
X114781469Y-140171295D01*
X114767722Y-140126339D01*
X114774572Y-140087926D01*
X114799518Y-140061278D01*
X114838832Y-140051609D01*
X114871698Y-140057856D01*
G37*
G36*
X110191496Y-141527099D02*
G01*
X110212724Y-141539654D01*
X110229674Y-141571825D01*
X110233248Y-141613307D01*
X110224102Y-141653127D01*
X110204359Y-141679333D01*
X110160544Y-141697034D01*
X110115123Y-141694590D01*
X110078740Y-141673637D01*
X110058559Y-141638505D01*
X110053653Y-141595901D01*
X110064201Y-141556740D01*
X110076540Y-141540727D01*
X110109180Y-141524785D01*
X110151457Y-141520211D01*
X110191496Y-141527099D01*
G37*
G36*
X112891439Y-139263748D02*
G01*
X112917420Y-139282910D01*
X112929204Y-139319797D01*
X112930941Y-139353045D01*
X112920173Y-139394575D01*
X112892435Y-139423825D01*
X112854573Y-139438157D01*
X112813434Y-139434934D01*
X112776768Y-139412433D01*
X112755355Y-139374395D01*
X112753675Y-139328861D01*
X112771072Y-139286815D01*
X112791732Y-139267382D01*
X112823162Y-139259208D01*
X112847707Y-139258260D01*
X112891439Y-139263748D01*
G37*
G36*
X105745173Y-140061408D02*
G01*
X105768960Y-140089997D01*
X105774745Y-140124487D01*
X105767387Y-140166564D01*
X105743624Y-140189583D01*
X105704082Y-140196146D01*
X105670815Y-140191445D01*
X105648837Y-140180729D01*
X105636374Y-140153614D01*
X105634380Y-140116512D01*
X105642415Y-140082248D01*
X105652730Y-140067636D01*
X105680492Y-140054961D01*
X105704082Y-140051609D01*
X105745173Y-140061408D01*
G37*
G36*
X105492881Y-138997713D02*
G01*
X105517790Y-139014153D01*
X105538646Y-139051207D01*
X105543485Y-139084816D01*
X105533205Y-139133639D01*
X105503588Y-139166148D01*
X105456463Y-139180590D01*
X105442694Y-139181174D01*
X105396350Y-139173514D01*
X105372032Y-139157679D01*
X105357608Y-139129152D01*
X105350841Y-139090976D01*
X105350769Y-139087016D01*
X105360980Y-139037061D01*
X105390079Y-139003577D01*
X105435761Y-138988923D01*
X105447127Y-138988458D01*
X105492881Y-138997713D01*
G37*
G36*
X107492324Y-139267723D02*
G01*
X107522970Y-139295446D01*
X107534781Y-139340431D01*
X107534886Y-139345994D01*
X107524163Y-139390617D01*
X107496093Y-139421905D01*
X107456825Y-139436929D01*
X107412507Y-139432756D01*
X107383572Y-139418129D01*
X107362467Y-139394042D01*
X107355156Y-139356685D01*
X107355018Y-139348384D01*
X107362965Y-139299956D01*
X107387817Y-139270568D01*
X107431092Y-139258681D01*
X107443878Y-139258260D01*
X107492324Y-139267723D01*
G37*
G36*
X105989622Y-141251502D02*
G01*
X106028841Y-141269662D01*
X106049633Y-141298058D01*
X106058422Y-141338915D01*
X106054858Y-141381794D01*
X106038593Y-141416255D01*
X106033900Y-141421115D01*
X105998002Y-141438529D01*
X105952866Y-141441494D01*
X105910251Y-141430371D01*
X105890374Y-141416682D01*
X105869518Y-141379629D01*
X105864679Y-141346020D01*
X105875453Y-141299990D01*
X105903822Y-141267055D01*
X105943855Y-141249973D01*
X105989622Y-141251502D01*
G37*
G36*
X111666206Y-141787992D02*
G01*
X111695713Y-141817701D01*
X111709982Y-141858033D01*
X111710405Y-141866353D01*
X111699859Y-141910574D01*
X111672476Y-141940806D01*
X111634637Y-141954064D01*
X111592726Y-141947365D01*
X111568488Y-141932697D01*
X111544476Y-141899352D01*
X111540092Y-141860166D01*
X111552676Y-141822085D01*
X111579570Y-141792056D01*
X111618113Y-141777025D01*
X111628318Y-141776419D01*
X111666206Y-141787992D01*
G37*
G36*
X105474891Y-140985823D02*
G01*
X105514247Y-141004276D01*
X105539605Y-141037721D01*
X105550458Y-141079281D01*
X105546299Y-141122081D01*
X105526623Y-141159244D01*
X105490922Y-141183893D01*
X105489520Y-141184395D01*
X105459989Y-141193463D01*
X105442466Y-141196595D01*
X105441998Y-141196521D01*
X105424534Y-141192966D01*
X105404696Y-141189115D01*
X105376751Y-141172361D01*
X105354462Y-141140156D01*
X105340940Y-141087802D01*
X105349584Y-141041735D01*
X105376930Y-141006393D01*
X105419517Y-140986214D01*
X105473880Y-140985637D01*
X105474891Y-140985823D01*
G37*
G36*
X115408767Y-138467621D02*
G01*
X115438147Y-138483078D01*
X115439165Y-138484184D01*
X115465811Y-138531745D01*
X115467828Y-138586130D01*
X115461618Y-138610448D01*
X115436060Y-138651620D01*
X115395250Y-138675031D01*
X115343985Y-138678991D01*
X115299747Y-138667459D01*
X115271516Y-138643587D01*
X115255054Y-138604941D01*
X115250948Y-138559884D01*
X115259783Y-138516775D01*
X115282146Y-138483977D01*
X115286636Y-138480511D01*
X115322414Y-138466083D01*
X115366657Y-138461871D01*
X115408767Y-138467621D01*
G37*
G36*
X110925151Y-141522057D02*
G01*
X110965181Y-141527678D01*
X110988972Y-141540789D01*
X111002127Y-141558898D01*
X111015189Y-141602463D01*
X111007966Y-141641844D01*
X110985468Y-141673583D01*
X110952706Y-141694223D01*
X110914689Y-141700306D01*
X110876427Y-141688373D01*
X110849534Y-141664204D01*
X110829418Y-141626473D01*
X110829406Y-141591554D01*
X110842756Y-141549851D01*
X110865608Y-141527905D01*
X110903984Y-141521345D01*
X110925151Y-141522057D01*
G37*
G36*
X105492881Y-141258917D02*
G01*
X105517790Y-141275357D01*
X105538646Y-141312411D01*
X105543485Y-141346020D01*
X105533205Y-141394843D01*
X105503588Y-141427351D01*
X105456463Y-141441794D01*
X105442694Y-141442378D01*
X105396350Y-141434718D01*
X105372032Y-141418883D01*
X105357608Y-141390356D01*
X105350841Y-141352180D01*
X105350769Y-141348220D01*
X105360980Y-141298264D01*
X105390079Y-141264781D01*
X105435761Y-141250126D01*
X105447127Y-141249662D01*
X105492881Y-141258917D01*
G37*
G36*
X110187541Y-140993032D02*
G01*
X110219040Y-141011049D01*
X110238646Y-141043117D01*
X110246380Y-141086075D01*
X110241940Y-141129130D01*
X110225027Y-141161492D01*
X110223278Y-141163159D01*
X110181992Y-141185327D01*
X110130503Y-141192077D01*
X110107761Y-141189451D01*
X110072876Y-141170793D01*
X110049969Y-141135961D01*
X110040908Y-141092403D01*
X110047558Y-141047566D01*
X110064521Y-141016905D01*
X110097807Y-140994099D01*
X110142215Y-140986012D01*
X110187541Y-140993032D01*
G37*
G36*
X107482763Y-137934006D02*
G01*
X107488814Y-137936075D01*
X107525910Y-137953244D01*
X107547004Y-137977484D01*
X107556625Y-138001227D01*
X107565816Y-138059528D01*
X107554779Y-138109896D01*
X107525138Y-138147561D01*
X107502292Y-138160804D01*
X107471869Y-138172830D01*
X107450369Y-138176673D01*
X107425704Y-138172763D01*
X107396336Y-138164562D01*
X107354445Y-138140315D01*
X107328329Y-138099342D01*
X107320569Y-138046965D01*
X107324691Y-138016787D01*
X107338031Y-137980173D01*
X107362525Y-137955745D01*
X107386286Y-137942499D01*
X107421199Y-137927632D01*
X107448541Y-137925103D01*
X107482763Y-137934006D01*
G37*
G36*
X114622968Y-140061408D02*
G01*
X114646754Y-140089997D01*
X114652539Y-140124487D01*
X114645182Y-140166564D01*
X114621418Y-140189583D01*
X114581877Y-140196146D01*
X114548609Y-140191445D01*
X114526631Y-140180729D01*
X114514168Y-140153614D01*
X114512175Y-140116512D01*
X114520209Y-140082248D01*
X114530525Y-140067636D01*
X114558287Y-140054961D01*
X114581877Y-140051609D01*
X114622968Y-140061408D01*
G37*
G36*
X113151408Y-138469865D02*
G01*
X113186373Y-138494813D01*
X113186963Y-138495552D01*
X113210570Y-138541779D01*
X113212616Y-138587032D01*
X113197062Y-138627348D01*
X113167868Y-138658769D01*
X113128995Y-138677333D01*
X113084404Y-138679079D01*
X113038056Y-138660047D01*
X113029032Y-138653484D01*
X113003747Y-138618884D01*
X112993519Y-138573117D01*
X112998839Y-138526182D01*
X113020198Y-138488081D01*
X113020875Y-138487395D01*
X113058658Y-138465665D01*
X113105503Y-138459985D01*
X113151408Y-138469865D01*
G37*
G36*
X110200661Y-140732461D02*
G01*
X110227710Y-140749954D01*
X110244236Y-140782825D01*
X110250982Y-140827003D01*
X110247778Y-140871659D01*
X110234455Y-140905960D01*
X110230218Y-140910973D01*
X110201099Y-140926578D01*
X110158466Y-140935456D01*
X110113951Y-140936150D01*
X110083561Y-140929320D01*
X110055121Y-140904562D01*
X110038676Y-140865222D01*
X110034817Y-140819743D01*
X110044132Y-140776570D01*
X110067213Y-140744145D01*
X110070450Y-140741715D01*
X110109799Y-140725955D01*
X110156786Y-140723058D01*
X110200661Y-140732461D01*
G37*
G36*
X112426344Y-141251502D02*
G01*
X112465563Y-141269662D01*
X112486355Y-141298058D01*
X112495144Y-141338915D01*
X112491580Y-141381794D01*
X112475316Y-141416255D01*
X112470622Y-141421115D01*
X112434724Y-141438529D01*
X112389589Y-141441494D01*
X112346974Y-141430371D01*
X112327097Y-141416682D01*
X112306240Y-141379629D01*
X112301401Y-141346020D01*
X112312175Y-141299990D01*
X112340544Y-141267055D01*
X112380577Y-141249973D01*
X112426344Y-141251502D01*
G37*
G36*
X109215028Y-139522322D02*
G01*
X109248205Y-139545376D01*
X109267128Y-139583898D01*
X109269332Y-139605150D01*
X109258741Y-139649532D01*
X109231127Y-139679847D01*
X109192726Y-139692943D01*
X109149776Y-139685672D01*
X109130866Y-139675084D01*
X109109815Y-139651113D01*
X109102466Y-139613950D01*
X109102312Y-139605150D01*
X109107587Y-139564641D01*
X109125895Y-139538968D01*
X109130866Y-139535216D01*
X109173836Y-139517885D01*
X109215028Y-139522322D01*
G37*
G36*
X110974886Y-140730846D02*
G01*
X111010188Y-140755409D01*
X111027340Y-140797696D01*
X111029474Y-140826270D01*
X111019089Y-140877085D01*
X110991701Y-140915079D01*
X110952957Y-140937728D01*
X110908505Y-140942508D01*
X110863992Y-140926895D01*
X110842598Y-140909780D01*
X110818466Y-140874404D01*
X110811072Y-140828464D01*
X110811062Y-140826270D01*
X110819453Y-140774573D01*
X110845404Y-140741158D01*
X110890079Y-140724924D01*
X110920268Y-140722904D01*
X110974886Y-140730846D01*
G37*
G36*
X114371978Y-139264627D02*
G01*
X114400601Y-139285747D01*
X114412669Y-139324650D01*
X114413571Y-139344627D01*
X114402547Y-139388782D01*
X114373740Y-139420820D01*
X114333549Y-139437313D01*
X114288376Y-139434832D01*
X114264411Y-139424541D01*
X114243228Y-139399074D01*
X114233080Y-139360221D01*
X114235345Y-139318406D01*
X114246691Y-139290323D01*
X114266134Y-139269005D01*
X114293488Y-139259776D01*
X114323645Y-139258260D01*
X114371978Y-139264627D01*
G37*
G36*
X107488995Y-141258732D02*
G01*
X107523125Y-141287989D01*
X107540118Y-141321839D01*
X107541231Y-141355172D01*
X107531113Y-141393630D01*
X107513776Y-141424528D01*
X107505175Y-141432284D01*
X107479784Y-141439460D01*
X107442539Y-141441696D01*
X107406362Y-141438963D01*
X107385848Y-141432545D01*
X107364267Y-141407584D01*
X107347516Y-141371123D01*
X107342170Y-141342173D01*
X107349839Y-141315046D01*
X107368334Y-141284108D01*
X107368798Y-141283514D01*
X107405077Y-141254983D01*
X107447394Y-141247226D01*
X107488995Y-141258732D01*
G37*
G36*
X115393973Y-139791767D02*
G01*
X115423205Y-139817946D01*
X115436053Y-139860128D01*
X115436252Y-139866877D01*
X115429540Y-139908215D01*
X115407120Y-139931221D01*
X115365566Y-139939108D01*
X115359165Y-139939191D01*
X115323961Y-139935143D01*
X115299184Y-139925250D01*
X115297496Y-139923774D01*
X115284347Y-139896529D01*
X115281685Y-139859459D01*
X115288683Y-139823555D01*
X115304514Y-139799808D01*
X115306930Y-139798318D01*
X115353501Y-139784315D01*
X115393973Y-139791767D01*
G37*
G36*
X107482763Y-140195210D02*
G01*
X107488814Y-140197279D01*
X107525910Y-140214447D01*
X107547004Y-140238688D01*
X107556625Y-140262431D01*
X107565816Y-140320732D01*
X107554779Y-140371100D01*
X107525138Y-140408765D01*
X107502292Y-140422008D01*
X107471869Y-140434034D01*
X107450369Y-140437877D01*
X107425704Y-140433967D01*
X107396336Y-140425766D01*
X107354445Y-140401519D01*
X107328329Y-140360546D01*
X107320569Y-140308169D01*
X107324691Y-140277991D01*
X107338031Y-140241377D01*
X107362525Y-140216949D01*
X107386286Y-140203703D01*
X107421199Y-140188836D01*
X107448541Y-140186307D01*
X107482763Y-140195210D01*
G37*
G36*
X109489800Y-140731069D02*
G01*
X109524765Y-140756016D01*
X109525355Y-140756756D01*
X109545387Y-140796638D01*
X109551983Y-140834426D01*
X109541094Y-140881926D01*
X109512369Y-140917038D01*
X109471717Y-140937195D01*
X109425047Y-140939825D01*
X109378269Y-140922359D01*
X109367423Y-140914688D01*
X109342138Y-140880088D01*
X109331910Y-140834321D01*
X109337230Y-140787386D01*
X109358590Y-140749285D01*
X109359267Y-140748599D01*
X109397050Y-140726869D01*
X109443894Y-140721189D01*
X109489800Y-140731069D01*
G37*
G36*
X108980125Y-138471257D02*
G01*
X109007174Y-138488750D01*
X109023700Y-138521621D01*
X109030446Y-138565799D01*
X109027241Y-138610455D01*
X109013919Y-138644757D01*
X109009682Y-138649770D01*
X108980563Y-138665375D01*
X108937929Y-138674252D01*
X108893415Y-138674946D01*
X108863025Y-138668116D01*
X108834585Y-138643358D01*
X108818140Y-138604018D01*
X108814280Y-138558539D01*
X108823596Y-138515366D01*
X108846677Y-138482941D01*
X108849913Y-138480511D01*
X108889263Y-138464751D01*
X108936250Y-138461855D01*
X108980125Y-138471257D01*
G37*
G36*
X106527440Y-139791185D02*
G01*
X106543040Y-139800435D01*
X106554368Y-139825798D01*
X106557996Y-139863239D01*
X106553924Y-139900321D01*
X106543040Y-139923774D01*
X106515796Y-139936923D01*
X106478725Y-139939585D01*
X106442821Y-139932587D01*
X106419074Y-139916756D01*
X106417584Y-139914340D01*
X106405286Y-139871958D01*
X106409704Y-139830272D01*
X106424474Y-139805207D01*
X106453189Y-139790362D01*
X106491666Y-139785521D01*
X106527440Y-139791185D01*
G37*
G36*
X105993984Y-139523396D02*
G01*
X106015993Y-139535216D01*
X106038579Y-139564984D01*
X106046105Y-139605161D01*
X106038571Y-139645335D01*
X106015993Y-139675084D01*
X105971804Y-139693325D01*
X105929241Y-139687506D01*
X105903222Y-139669388D01*
X105879563Y-139631737D01*
X105876837Y-139592968D01*
X105890979Y-139557914D01*
X105917927Y-139531410D01*
X105953616Y-139518293D01*
X105993984Y-139523396D01*
G37*
G36*
X111913056Y-139522322D02*
G01*
X111946232Y-139545376D01*
X111965155Y-139583898D01*
X111967360Y-139605150D01*
X111956769Y-139649532D01*
X111929154Y-139679847D01*
X111890753Y-139692943D01*
X111847803Y-139685672D01*
X111828893Y-139675084D01*
X111807842Y-139651113D01*
X111800494Y-139613950D01*
X111800339Y-139605150D01*
X111805615Y-139564641D01*
X111823923Y-139538968D01*
X111828893Y-139535216D01*
X111871864Y-139517885D01*
X111913056Y-139522322D01*
G37*
G36*
X115407682Y-139265895D02*
G01*
X115428910Y-139278450D01*
X115445860Y-139310621D01*
X115449434Y-139352103D01*
X115440289Y-139391923D01*
X115420545Y-139418129D01*
X115376730Y-139435830D01*
X115331309Y-139433386D01*
X115294927Y-139412433D01*
X115274746Y-139377301D01*
X115269839Y-139334697D01*
X115280387Y-139295536D01*
X115292726Y-139279523D01*
X115325366Y-139263581D01*
X115367643Y-139259007D01*
X115407682Y-139265895D01*
G37*
G36*
X112439490Y-141523240D02*
G01*
X112464786Y-141536914D01*
X112474117Y-141548018D01*
X112492583Y-141591603D01*
X112490160Y-141632797D01*
X112471259Y-141667381D01*
X112440286Y-141691134D01*
X112401653Y-141699835D01*
X112359766Y-141689263D01*
X112340083Y-141676333D01*
X112317739Y-141645950D01*
X112311679Y-141605323D01*
X112317537Y-141558818D01*
X112337657Y-141531786D01*
X112375861Y-141520452D01*
X112398604Y-141519464D01*
X112439490Y-141523240D01*
G37*
G36*
X115411651Y-138736094D02*
G01*
X115445610Y-138765858D01*
X115461186Y-138812660D01*
X115461947Y-138827861D01*
X115451095Y-138877113D01*
X115421206Y-138912075D01*
X115376284Y-138929835D01*
X115323947Y-138928247D01*
X115288628Y-138908966D01*
X115264922Y-138870953D01*
X115256383Y-138820569D01*
X115266386Y-138772408D01*
X115295824Y-138740784D01*
X115343843Y-138726467D01*
X115361563Y-138725663D01*
X115411651Y-138736094D01*
G37*
G36*
X109940673Y-140732219D02*
G01*
X109977060Y-140759033D01*
X109994001Y-140801643D01*
X109990312Y-140858351D01*
X109987645Y-140868920D01*
X109964592Y-140909338D01*
X109925498Y-140933791D01*
X109875946Y-140940199D01*
X109827041Y-140928823D01*
X109799527Y-140905578D01*
X109780401Y-140867149D01*
X109773767Y-140823687D01*
X109776364Y-140803452D01*
X109795091Y-140758143D01*
X109826272Y-140732504D01*
X109874543Y-140723128D01*
X109886024Y-140722904D01*
X109940673Y-140732219D01*
G37*
G36*
X106246487Y-140985068D02*
G01*
X106286654Y-141004434D01*
X106315593Y-141039449D01*
X106327182Y-141087100D01*
X106327198Y-141089065D01*
X106320322Y-141127593D01*
X106304714Y-141158265D01*
X106272261Y-141181234D01*
X106229195Y-141193268D01*
X106189101Y-141190781D01*
X106185873Y-141189633D01*
X106145738Y-141164106D01*
X106125413Y-141124818D01*
X106121634Y-141088006D01*
X106125337Y-141047860D01*
X106139806Y-141020967D01*
X106156961Y-141005326D01*
X106201215Y-140984361D01*
X106246487Y-140985068D01*
G37*
G36*
X107718818Y-139520377D02*
G01*
X107762531Y-139537941D01*
X107784977Y-139569813D01*
X107786789Y-139616903D01*
X107786627Y-139617955D01*
X107769572Y-139663118D01*
X107739029Y-139689187D01*
X107700463Y-139694422D01*
X107659337Y-139677082D01*
X107643508Y-139663549D01*
X107617177Y-139625434D01*
X107616309Y-139588002D01*
X107640925Y-139549455D01*
X107644944Y-139545315D01*
X107673718Y-139522764D01*
X107702935Y-139518051D01*
X107718818Y-139520377D01*
G37*
G36*
X105491160Y-140461438D02*
G01*
X105530626Y-140485958D01*
X105557302Y-140526312D01*
X105562511Y-140564322D01*
X105555899Y-140608048D01*
X105540264Y-140647124D01*
X105518400Y-140671185D01*
X105518198Y-140671294D01*
X105477469Y-140683176D01*
X105429885Y-140683502D01*
X105386681Y-140673169D01*
X105363943Y-140658992D01*
X105334839Y-140613217D01*
X105329656Y-140558964D01*
X105337071Y-140526339D01*
X105362034Y-140485669D01*
X105400367Y-140461294D01*
X105445574Y-140453217D01*
X105491160Y-140461438D01*
G37*
G36*
X108697413Y-139525594D02*
G01*
X108729227Y-139551712D01*
X108748330Y-139586048D01*
X108749681Y-139615432D01*
X108728288Y-139660022D01*
X108692551Y-139686334D01*
X108647731Y-139691335D01*
X108626945Y-139686168D01*
X108594360Y-139663389D01*
X108578581Y-139629218D01*
X108578302Y-139590486D01*
X108592216Y-139554025D01*
X108619015Y-139526667D01*
X108657393Y-139515246D01*
X108659648Y-139515215D01*
X108697413Y-139525594D01*
G37*
G36*
X110445669Y-141787992D02*
G01*
X110475177Y-141817701D01*
X110489446Y-141858033D01*
X110489868Y-141866353D01*
X110479323Y-141910574D01*
X110451940Y-141940806D01*
X110414101Y-141954064D01*
X110372189Y-141947365D01*
X110347952Y-141932697D01*
X110323940Y-141899352D01*
X110319556Y-141860166D01*
X110332140Y-141822085D01*
X110359034Y-141792056D01*
X110397576Y-141777025D01*
X110407781Y-141776419D01*
X110445669Y-141787992D01*
G37*
G36*
X108720137Y-140732219D02*
G01*
X108756524Y-140759033D01*
X108773464Y-140801643D01*
X108769776Y-140858351D01*
X108767109Y-140868920D01*
X108744056Y-140909338D01*
X108704962Y-140933791D01*
X108655410Y-140940199D01*
X108606505Y-140928823D01*
X108578990Y-140905578D01*
X108559865Y-140867149D01*
X108553231Y-140823687D01*
X108555828Y-140803452D01*
X108574555Y-140758143D01*
X108605735Y-140732504D01*
X108654007Y-140723128D01*
X108665488Y-140722904D01*
X108720137Y-140732219D01*
G37*
G36*
X107488995Y-138997528D02*
G01*
X107523125Y-139026786D01*
X107540118Y-139060635D01*
X107541231Y-139093968D01*
X107531113Y-139132426D01*
X107513776Y-139163324D01*
X107505175Y-139171080D01*
X107479784Y-139178257D01*
X107442539Y-139180492D01*
X107406362Y-139177759D01*
X107385848Y-139171341D01*
X107364267Y-139146381D01*
X107347516Y-139109919D01*
X107342170Y-139080969D01*
X107349839Y-139053842D01*
X107368334Y-139022904D01*
X107368798Y-139022310D01*
X107405077Y-138993779D01*
X107447394Y-138986022D01*
X107488995Y-138997528D01*
G37*
G36*
X109489833Y-141525831D02*
G01*
X109518457Y-141546951D01*
X109530525Y-141585854D01*
X109531426Y-141605831D01*
X109520402Y-141649986D01*
X109491595Y-141682024D01*
X109451405Y-141698517D01*
X109406231Y-141696036D01*
X109382267Y-141685745D01*
X109361083Y-141660278D01*
X109350936Y-141621425D01*
X109353201Y-141579610D01*
X109364546Y-141551527D01*
X109383989Y-141530209D01*
X109411344Y-141520980D01*
X109441500Y-141519464D01*
X109489833Y-141525831D01*
G37*
G36*
X106271788Y-141528927D02*
G01*
X106302434Y-141556650D01*
X106314245Y-141601635D01*
X106314350Y-141607198D01*
X106303627Y-141651821D01*
X106275557Y-141683109D01*
X106236289Y-141698132D01*
X106191970Y-141693959D01*
X106163036Y-141679333D01*
X106141931Y-141655246D01*
X106134620Y-141617889D01*
X106134482Y-141609588D01*
X106142429Y-141561160D01*
X106167281Y-141531772D01*
X106210556Y-141519885D01*
X106223342Y-141519464D01*
X106271788Y-141528927D01*
G37*
G36*
X106265010Y-140060309D02*
G01*
X106285045Y-140075769D01*
X106299342Y-140112254D01*
X106293365Y-140147086D01*
X106272378Y-140175776D01*
X106241644Y-140193838D01*
X106206428Y-140196784D01*
X106171994Y-140180126D01*
X106167519Y-140175957D01*
X106149679Y-140141668D01*
X106151654Y-140100955D01*
X106164686Y-140074538D01*
X106191546Y-140056806D01*
X106228862Y-140052103D01*
X106265010Y-140060309D01*
G37*
G36*
X112885568Y-138731829D02*
G01*
X112917067Y-138749846D01*
X112936674Y-138781913D01*
X112944407Y-138824871D01*
X112939968Y-138867927D01*
X112923054Y-138900288D01*
X112921305Y-138901955D01*
X112880020Y-138924123D01*
X112828530Y-138930873D01*
X112805788Y-138928247D01*
X112770903Y-138909589D01*
X112747997Y-138874757D01*
X112738935Y-138831199D01*
X112745585Y-138786363D01*
X112762548Y-138755702D01*
X112795834Y-138732895D01*
X112840242Y-138724808D01*
X112885568Y-138731829D01*
G37*
G36*
X109930068Y-138997528D02*
G01*
X109964197Y-139026786D01*
X109981190Y-139060635D01*
X109982304Y-139093968D01*
X109972185Y-139132426D01*
X109954848Y-139163324D01*
X109946247Y-139171080D01*
X109920856Y-139178257D01*
X109883611Y-139180492D01*
X109847434Y-139177759D01*
X109826921Y-139171341D01*
X109805339Y-139146381D01*
X109788588Y-139109919D01*
X109783242Y-139080969D01*
X109790912Y-139053842D01*
X109809406Y-139022904D01*
X109809870Y-139022310D01*
X109846150Y-138993779D01*
X109888467Y-138986022D01*
X109930068Y-138997528D01*
G37*
G36*
X109238506Y-140732599D02*
G01*
X109274438Y-140760517D01*
X109291167Y-140804903D01*
X109290637Y-140844826D01*
X109273258Y-140894153D01*
X109240016Y-140927226D01*
X109196550Y-140941860D01*
X109148499Y-140935866D01*
X109110468Y-140914688D01*
X109085183Y-140880088D01*
X109074955Y-140834321D01*
X109080275Y-140787386D01*
X109101635Y-140749285D01*
X109102312Y-140748599D01*
X109135853Y-140728886D01*
X109184889Y-140722904D01*
X109238506Y-140732599D01*
G37*
G36*
X108687560Y-140985068D02*
G01*
X108727727Y-141004434D01*
X108756666Y-141039449D01*
X108768254Y-141087100D01*
X108768270Y-141089065D01*
X108761394Y-141127593D01*
X108745787Y-141158265D01*
X108713334Y-141181234D01*
X108670267Y-141193268D01*
X108630173Y-141190781D01*
X108626945Y-141189633D01*
X108586810Y-141164106D01*
X108566486Y-141124818D01*
X108562706Y-141088006D01*
X108566409Y-141047860D01*
X108580878Y-141020967D01*
X108598033Y-141005326D01*
X108642288Y-140984361D01*
X108687560Y-140985068D01*
G37*
G36*
X112441137Y-142056706D02*
G01*
X112470093Y-142084413D01*
X112481143Y-142123726D01*
X112471218Y-142169026D01*
X112467970Y-142175544D01*
X112445865Y-142193062D01*
X112410598Y-142200678D01*
X112372883Y-142197984D01*
X112343437Y-142184571D01*
X112339376Y-142180439D01*
X112327024Y-142153078D01*
X112322814Y-142123308D01*
X112331923Y-142079249D01*
X112359019Y-142053482D01*
X112397341Y-142046222D01*
X112441137Y-142056706D01*
G37*
G36*
X108939354Y-141781581D02*
G01*
X108983067Y-141799145D01*
X109005514Y-141831017D01*
X109007325Y-141878107D01*
X109007163Y-141879159D01*
X108990108Y-141924322D01*
X108959565Y-141950391D01*
X108920999Y-141955625D01*
X108879874Y-141938285D01*
X108864044Y-141924752D01*
X108837714Y-141886638D01*
X108836845Y-141849206D01*
X108861461Y-141810659D01*
X108865480Y-141806519D01*
X108894254Y-141783968D01*
X108923471Y-141779255D01*
X108939354Y-141781581D01*
G37*
G36*
X107252037Y-137941695D02*
G01*
X107278648Y-137961354D01*
X107297657Y-137995983D01*
X107304668Y-138042821D01*
X107299753Y-138091395D01*
X107282984Y-138131230D01*
X107277431Y-138138084D01*
X107253760Y-138158396D01*
X107235676Y-138166377D01*
X107210408Y-138168765D01*
X107194421Y-138171314D01*
X107159792Y-138172695D01*
X107141160Y-138170421D01*
X107104725Y-138151015D01*
X107078010Y-138114322D01*
X107063662Y-138067755D01*
X107064327Y-138018731D01*
X107075452Y-137986333D01*
X107107644Y-137950284D01*
X107152961Y-137930194D01*
X107203669Y-137927014D01*
X107252037Y-137941695D01*
G37*
G36*
X107499601Y-138471016D02*
G01*
X107535988Y-138497829D01*
X107552928Y-138540439D01*
X107549240Y-138597147D01*
X107546573Y-138607716D01*
X107523520Y-138648134D01*
X107484426Y-138672588D01*
X107434874Y-138678995D01*
X107385968Y-138667619D01*
X107358454Y-138644374D01*
X107339329Y-138605945D01*
X107332695Y-138562483D01*
X107335292Y-138542248D01*
X107354019Y-138496939D01*
X107385199Y-138471300D01*
X107433471Y-138461924D01*
X107444952Y-138461700D01*
X107499601Y-138471016D01*
G37*
G36*
X110450367Y-139263748D02*
G01*
X110476347Y-139282910D01*
X110488132Y-139319797D01*
X110489868Y-139353045D01*
X110479101Y-139394575D01*
X110451362Y-139423825D01*
X110413500Y-139438157D01*
X110372361Y-139434934D01*
X110335695Y-139412433D01*
X110314283Y-139374395D01*
X110312603Y-139328861D01*
X110330000Y-139286815D01*
X110350659Y-139267382D01*
X110382090Y-139259208D01*
X110406635Y-139258260D01*
X110450367Y-139263748D01*
G37*
G36*
X107476877Y-139525594D02*
G01*
X107508691Y-139551712D01*
X107527793Y-139586048D01*
X107529145Y-139615432D01*
X107507752Y-139660022D01*
X107472015Y-139686334D01*
X107427195Y-139691335D01*
X107406409Y-139686168D01*
X107373824Y-139663389D01*
X107358045Y-139629218D01*
X107357766Y-139590486D01*
X107371680Y-139554025D01*
X107398479Y-139526667D01*
X107436856Y-139515246D01*
X107439112Y-139515215D01*
X107476877Y-139525594D01*
G37*
G36*
X111421197Y-140732461D02*
G01*
X111448246Y-140749954D01*
X111464773Y-140782825D01*
X111471518Y-140827003D01*
X111468314Y-140871659D01*
X111454992Y-140905960D01*
X111450755Y-140910973D01*
X111421636Y-140926578D01*
X111379002Y-140935456D01*
X111334487Y-140936150D01*
X111304097Y-140929320D01*
X111275657Y-140904562D01*
X111259212Y-140865222D01*
X111255353Y-140819743D01*
X111264668Y-140776570D01*
X111287749Y-140744145D01*
X111290986Y-140741715D01*
X111330336Y-140725955D01*
X111377322Y-140723058D01*
X111421197Y-140732461D01*
G37*
G36*
X108720189Y-140463438D02*
G01*
X108758568Y-140493104D01*
X108778606Y-140540077D01*
X108781118Y-140568731D01*
X108771127Y-140623384D01*
X108741905Y-140661277D01*
X108694580Y-140681328D01*
X108660581Y-140684361D01*
X108619809Y-140681074D01*
X108593183Y-140668252D01*
X108576486Y-140650509D01*
X108551820Y-140602153D01*
X108548635Y-140552902D01*
X108564442Y-140508279D01*
X108596753Y-140473805D01*
X108643077Y-140455000D01*
X108665488Y-140453101D01*
X108720189Y-140463438D01*
G37*
G36*
X110692520Y-141783526D02*
G01*
X110725696Y-141806580D01*
X110744619Y-141845102D01*
X110746823Y-141866353D01*
X110736233Y-141910736D01*
X110708618Y-141941051D01*
X110670217Y-141954147D01*
X110627267Y-141946875D01*
X110608357Y-141936288D01*
X110587306Y-141912317D01*
X110579957Y-141875154D01*
X110579803Y-141866353D01*
X110585078Y-141825845D01*
X110603386Y-141800171D01*
X110608357Y-141796419D01*
X110651328Y-141779089D01*
X110692520Y-141783526D01*
G37*
G36*
X106542310Y-139007480D02*
G01*
X106569867Y-139040067D01*
X106580684Y-139084476D01*
X106579183Y-139104041D01*
X106568218Y-139139121D01*
X106551378Y-139163880D01*
X106549871Y-139165072D01*
X106512898Y-139179336D01*
X106468237Y-139180008D01*
X106427691Y-139167952D01*
X106410130Y-139154839D01*
X106389997Y-139116495D01*
X106386810Y-139071799D01*
X106400149Y-139030961D01*
X106415986Y-139012498D01*
X106459691Y-138990510D01*
X106503692Y-138989899D01*
X106542310Y-139007480D01*
G37*
G36*
X112891867Y-138994150D02*
G01*
X112900110Y-138998290D01*
X112927909Y-139030404D01*
X112940983Y-139073766D01*
X112938213Y-139118589D01*
X112918479Y-139155089D01*
X112918093Y-139155478D01*
X112883625Y-139175130D01*
X112840015Y-139181423D01*
X112798127Y-139174194D01*
X112772335Y-139157679D01*
X112754906Y-139123321D01*
X112750375Y-139080296D01*
X112758238Y-139038960D01*
X112777989Y-139009666D01*
X112779627Y-139008458D01*
X112814289Y-138993959D01*
X112855978Y-138988829D01*
X112891867Y-138994150D01*
G37*
G36*
X111412032Y-141527099D02*
G01*
X111433260Y-141539654D01*
X111450210Y-141571825D01*
X111453784Y-141613307D01*
X111444639Y-141653127D01*
X111424895Y-141679333D01*
X111381080Y-141697034D01*
X111335659Y-141694590D01*
X111299277Y-141673637D01*
X111279096Y-141638505D01*
X111274189Y-141595901D01*
X111284737Y-141556740D01*
X111297076Y-141540727D01*
X111329716Y-141524785D01*
X111371993Y-141520211D01*
X111412032Y-141527099D01*
G37*
G36*
X113929046Y-139267723D02*
G01*
X113959692Y-139295446D01*
X113971503Y-139340431D01*
X113971608Y-139345994D01*
X113960885Y-139390617D01*
X113932816Y-139421905D01*
X113893547Y-139436929D01*
X113849229Y-139432756D01*
X113820294Y-139418129D01*
X113799190Y-139394042D01*
X113791879Y-139356685D01*
X113791740Y-139348384D01*
X113799687Y-139299956D01*
X113824539Y-139270568D01*
X113867814Y-139258681D01*
X113880601Y-139258260D01*
X113929046Y-139267723D01*
G37*
G36*
X108709531Y-141258732D02*
G01*
X108743661Y-141287989D01*
X108760654Y-141321839D01*
X108761768Y-141355172D01*
X108751649Y-141393630D01*
X108734312Y-141424528D01*
X108725711Y-141432284D01*
X108700320Y-141439460D01*
X108663075Y-141441696D01*
X108626898Y-141438963D01*
X108606385Y-141432545D01*
X108584803Y-141407584D01*
X108568052Y-141371123D01*
X108562706Y-141342173D01*
X108570375Y-141315046D01*
X108588870Y-141284108D01*
X108589334Y-141283514D01*
X108625613Y-141254983D01*
X108667931Y-141247226D01*
X108709531Y-141258732D01*
G37*
G36*
X107499652Y-138202234D02*
G01*
X107538032Y-138231900D01*
X107558070Y-138278874D01*
X107560582Y-138307527D01*
X107550590Y-138362180D01*
X107521369Y-138400073D01*
X107474044Y-138420124D01*
X107440045Y-138423157D01*
X107399273Y-138419870D01*
X107372647Y-138407048D01*
X107355950Y-138389305D01*
X107331283Y-138340949D01*
X107328098Y-138291699D01*
X107343906Y-138247075D01*
X107376217Y-138212601D01*
X107422541Y-138193796D01*
X107444952Y-138191897D01*
X107499652Y-138202234D01*
G37*
G36*
X110189517Y-141259906D02*
G01*
X110220294Y-141284989D01*
X110238733Y-141324650D01*
X110240990Y-141369088D01*
X110227679Y-141408449D01*
X110211480Y-141426276D01*
X110182029Y-141437390D01*
X110141302Y-141441875D01*
X110102375Y-141439121D01*
X110082756Y-141432284D01*
X110063153Y-141407883D01*
X110049732Y-141370070D01*
X110046223Y-141331013D01*
X110048068Y-141319133D01*
X110069193Y-141280697D01*
X110104813Y-141257021D01*
X110147424Y-141249595D01*
X110189517Y-141259906D01*
G37*
G36*
X108441922Y-138728375D02*
G01*
X108480029Y-138748068D01*
X108491674Y-138760570D01*
X108508444Y-138803311D01*
X108508429Y-138851478D01*
X108491878Y-138893118D01*
X108488832Y-138897061D01*
X108456379Y-138920030D01*
X108413312Y-138932064D01*
X108373218Y-138929577D01*
X108369990Y-138928429D01*
X108329339Y-138902279D01*
X108309128Y-138862146D01*
X108305948Y-138829082D01*
X108308844Y-138785366D01*
X108320173Y-138758075D01*
X108344510Y-138738228D01*
X108355283Y-138732250D01*
X108396573Y-138722320D01*
X108441922Y-138728375D01*
G37*
G36*
X114389359Y-138743400D02*
G01*
X114416624Y-138779615D01*
X114425659Y-138828389D01*
X114420122Y-138864658D01*
X114402694Y-138901206D01*
X114371272Y-138921759D01*
X114367687Y-138923061D01*
X114338469Y-138932663D01*
X114318841Y-138934700D01*
X114294477Y-138929588D01*
X114280057Y-138925595D01*
X114245476Y-138903708D01*
X114224458Y-138864879D01*
X114220425Y-138815778D01*
X114221073Y-138810655D01*
X114233696Y-138764947D01*
X114258407Y-138737917D01*
X114294539Y-138724697D01*
X114347463Y-138723756D01*
X114389359Y-138743400D01*
G37*
G36*
X106005760Y-138465359D02*
G01*
X106043861Y-138486719D01*
X106044547Y-138487395D01*
X106066278Y-138525179D01*
X106071957Y-138572023D01*
X106062078Y-138617929D01*
X106037130Y-138652894D01*
X106036391Y-138653484D01*
X105989308Y-138676440D01*
X105939261Y-138677828D01*
X105894049Y-138657896D01*
X105883366Y-138648576D01*
X105857538Y-138606102D01*
X105852959Y-138556619D01*
X105869879Y-138507926D01*
X105878459Y-138495552D01*
X105913059Y-138470267D01*
X105958826Y-138460039D01*
X106005760Y-138465359D01*
G37*
G36*
X110710336Y-140731069D02*
G01*
X110745301Y-140756016D01*
X110745891Y-140756756D01*
X110769498Y-140802983D01*
X110771544Y-140848236D01*
X110755989Y-140888552D01*
X110726796Y-140919973D01*
X110687923Y-140938537D01*
X110643332Y-140940283D01*
X110596983Y-140921251D01*
X110587959Y-140914688D01*
X110562674Y-140880088D01*
X110552446Y-140834321D01*
X110557766Y-140787386D01*
X110579126Y-140749285D01*
X110579803Y-140748599D01*
X110617586Y-140726869D01*
X110664431Y-140721189D01*
X110710336Y-140731069D01*
G37*
G36*
X108446833Y-140726563D02*
G01*
X108484934Y-140747923D01*
X108485620Y-140748599D01*
X108507350Y-140786383D01*
X108513030Y-140833227D01*
X108503150Y-140879132D01*
X108478202Y-140914098D01*
X108477463Y-140914688D01*
X108430380Y-140937644D01*
X108380333Y-140939032D01*
X108335122Y-140919100D01*
X108324439Y-140909780D01*
X108298610Y-140867306D01*
X108294031Y-140817823D01*
X108310951Y-140769130D01*
X108319531Y-140756756D01*
X108354131Y-140731471D01*
X108399898Y-140721243D01*
X108446833Y-140726563D01*
G37*
G36*
X106525932Y-138731829D02*
G01*
X106557431Y-138749846D01*
X106577038Y-138781913D01*
X106584772Y-138824871D01*
X106580332Y-138867927D01*
X106563418Y-138900288D01*
X106561669Y-138901955D01*
X106520384Y-138924123D01*
X106468895Y-138930873D01*
X106446152Y-138928247D01*
X106411267Y-138909589D01*
X106388361Y-138874757D01*
X106379299Y-138831199D01*
X106385950Y-138786363D01*
X106402913Y-138755702D01*
X106436198Y-138732895D01*
X106480606Y-138724808D01*
X106525932Y-138731829D01*
G37*
G36*
X112900114Y-138471395D02*
G01*
X112936047Y-138499313D01*
X112952775Y-138543699D01*
X112952245Y-138583622D01*
X112934867Y-138632949D01*
X112901624Y-138666022D01*
X112858158Y-138680656D01*
X112810108Y-138674662D01*
X112772077Y-138653484D01*
X112746792Y-138618884D01*
X112736564Y-138573117D01*
X112741884Y-138526182D01*
X112763243Y-138488081D01*
X112763920Y-138487395D01*
X112797461Y-138467682D01*
X112846498Y-138461700D01*
X112900114Y-138471395D01*
G37*
G36*
X111948287Y-138743400D02*
G01*
X111975552Y-138779615D01*
X111984586Y-138828389D01*
X111979050Y-138864658D01*
X111961622Y-138901206D01*
X111930200Y-138921759D01*
X111926615Y-138923061D01*
X111897396Y-138932663D01*
X111877768Y-138934700D01*
X111853405Y-138929588D01*
X111838985Y-138925595D01*
X111804403Y-138903708D01*
X111783385Y-138864879D01*
X111779352Y-138815778D01*
X111780001Y-138810655D01*
X111792624Y-138764947D01*
X111817334Y-138737917D01*
X111853466Y-138724697D01*
X111906391Y-138723756D01*
X111948287Y-138743400D01*
G37*
G36*
X105477827Y-141781316D02*
G01*
X105510370Y-141804518D01*
X105528596Y-141844454D01*
X105530637Y-141866353D01*
X105520434Y-141913156D01*
X105492140Y-141944373D01*
X105449226Y-141956267D01*
X105447127Y-141956288D01*
X105416448Y-141949027D01*
X105392171Y-141936288D01*
X105369585Y-141906519D01*
X105362059Y-141866342D01*
X105369593Y-141826168D01*
X105392171Y-141796419D01*
X105436562Y-141777674D01*
X105477827Y-141781316D01*
G37*
G36*
X110197680Y-140463438D02*
G01*
X110236059Y-140493104D01*
X110256097Y-140540077D01*
X110258609Y-140568731D01*
X110248272Y-140623431D01*
X110218606Y-140661810D01*
X110171633Y-140681849D01*
X110142979Y-140684361D01*
X110096585Y-140677825D01*
X110061407Y-140655292D01*
X110058885Y-140652825D01*
X110034970Y-140618018D01*
X110027383Y-140572876D01*
X110027350Y-140568731D01*
X110037687Y-140514030D01*
X110067352Y-140475651D01*
X110114326Y-140455613D01*
X110142979Y-140453101D01*
X110197680Y-140463438D01*
G37*
G36*
X110459042Y-138471395D02*
G01*
X110494975Y-138499313D01*
X110511703Y-138543699D01*
X110511173Y-138583622D01*
X110493794Y-138632949D01*
X110460552Y-138666022D01*
X110417086Y-138680656D01*
X110369035Y-138674662D01*
X110331004Y-138653484D01*
X110305719Y-138618884D01*
X110295491Y-138573117D01*
X110300811Y-138526182D01*
X110322171Y-138488081D01*
X110322848Y-138487395D01*
X110356389Y-138467682D01*
X110405426Y-138461700D01*
X110459042Y-138471395D01*
G37*
G36*
X114612576Y-139520112D02*
G01*
X114645120Y-139543314D01*
X114663345Y-139583250D01*
X114665387Y-139605150D01*
X114655184Y-139651952D01*
X114626889Y-139683169D01*
X114583976Y-139695063D01*
X114581877Y-139695084D01*
X114551197Y-139687823D01*
X114526920Y-139675084D01*
X114505869Y-139651113D01*
X114498521Y-139613950D01*
X114498366Y-139605150D01*
X114503642Y-139564641D01*
X114521950Y-139538968D01*
X114526920Y-139535216D01*
X114571311Y-139516471D01*
X114612576Y-139520112D01*
G37*
G36*
X113913599Y-139525594D02*
G01*
X113945413Y-139551712D01*
X113964516Y-139586048D01*
X113965867Y-139615432D01*
X113946150Y-139655657D01*
X113913307Y-139682925D01*
X113874267Y-139694691D01*
X113835961Y-139688409D01*
X113813003Y-139671589D01*
X113793787Y-139634307D01*
X113793450Y-139592774D01*
X113809077Y-139554245D01*
X113837753Y-139525975D01*
X113875834Y-139515215D01*
X113913599Y-139525594D01*
G37*
G36*
X108430694Y-138990298D02*
G01*
X108469913Y-139008458D01*
X108490706Y-139036854D01*
X108499494Y-139077711D01*
X108495930Y-139120590D01*
X108479666Y-139155051D01*
X108474972Y-139159911D01*
X108439074Y-139177325D01*
X108393939Y-139180290D01*
X108351324Y-139169168D01*
X108331447Y-139155478D01*
X108310590Y-139118425D01*
X108305751Y-139084816D01*
X108316525Y-139038786D01*
X108344894Y-139005851D01*
X108384927Y-138988769D01*
X108430694Y-138990298D01*
G37*
G36*
X105505397Y-140202003D02*
G01*
X105545028Y-140231485D01*
X105566003Y-140278329D01*
X105569181Y-140311776D01*
X105558057Y-140365054D01*
X105527440Y-140405204D01*
X105481458Y-140429208D01*
X105424242Y-140434046D01*
X105405628Y-140431334D01*
X105367008Y-140412018D01*
X105340320Y-140375986D01*
X105327211Y-140330070D01*
X105329326Y-140281100D01*
X105348313Y-140235908D01*
X105356087Y-140225770D01*
X105380161Y-140202905D01*
X105407173Y-140192728D01*
X105448238Y-140191007D01*
X105505397Y-140202003D01*
G37*
G36*
X109933396Y-139267723D02*
G01*
X109964042Y-139295446D01*
X109975853Y-139340431D01*
X109975959Y-139345994D01*
X109965236Y-139390617D01*
X109937166Y-139421905D01*
X109897897Y-139436929D01*
X109853579Y-139432756D01*
X109824644Y-139418129D01*
X109803540Y-139394042D01*
X109796229Y-139356685D01*
X109796090Y-139348384D01*
X109804037Y-139299956D01*
X109828889Y-139270568D01*
X109872164Y-139258681D01*
X109884951Y-139258260D01*
X109933396Y-139267723D01*
G37*
G36*
X109908096Y-138723864D02*
G01*
X109948263Y-138743231D01*
X109977202Y-138778245D01*
X109988790Y-138825896D01*
X109988806Y-138827861D01*
X109981931Y-138866389D01*
X109966323Y-138897061D01*
X109933870Y-138920030D01*
X109890803Y-138932064D01*
X109850709Y-138929577D01*
X109847481Y-138928429D01*
X109807346Y-138902902D01*
X109787022Y-138863614D01*
X109783242Y-138826802D01*
X109786945Y-138786656D01*
X109801414Y-138759763D01*
X109818570Y-138744122D01*
X109862824Y-138723157D01*
X109908096Y-138723864D01*
G37*
G36*
X105734782Y-139520112D02*
G01*
X105767325Y-139543314D01*
X105785551Y-139583250D01*
X105787592Y-139605150D01*
X105782317Y-139645658D01*
X105764009Y-139671332D01*
X105759038Y-139675084D01*
X105714849Y-139693325D01*
X105672286Y-139687506D01*
X105646267Y-139669388D01*
X105625218Y-139633768D01*
X105620536Y-139592053D01*
X105632013Y-139554055D01*
X105649126Y-139535216D01*
X105693516Y-139516471D01*
X105734782Y-139520112D01*
G37*
G36*
X107476877Y-141786797D02*
G01*
X107508691Y-141812916D01*
X107527793Y-141847251D01*
X107529145Y-141876636D01*
X107507752Y-141921226D01*
X107472015Y-141947538D01*
X107427195Y-141952539D01*
X107406409Y-141947372D01*
X107373824Y-141924593D01*
X107358045Y-141890422D01*
X107357766Y-141851689D01*
X107371680Y-141815228D01*
X107398479Y-141787871D01*
X107436856Y-141776449D01*
X107439112Y-141776419D01*
X107476877Y-141786797D01*
G37*
G36*
X107223979Y-141787113D02*
G01*
X107253734Y-141817164D01*
X107265054Y-141863524D01*
X107265083Y-141866353D01*
X107259808Y-141906862D01*
X107241500Y-141932536D01*
X107236529Y-141936288D01*
X107192340Y-141954529D01*
X107149777Y-141948710D01*
X107123758Y-141930592D01*
X107102826Y-141894759D01*
X107100373Y-141854169D01*
X107113815Y-141816078D01*
X107140563Y-141787744D01*
X107178031Y-141776422D01*
X107178714Y-141776419D01*
X107223979Y-141787113D01*
G37*
G36*
X105501111Y-140731731D02*
G01*
X105537014Y-140758296D01*
X105554465Y-140802721D01*
X105556333Y-140828692D01*
X105545771Y-140878564D01*
X105517977Y-140915766D01*
X105478792Y-140937765D01*
X105434052Y-140942029D01*
X105389599Y-140926023D01*
X105369456Y-140909780D01*
X105345324Y-140874404D01*
X105337931Y-140828464D01*
X105337921Y-140826270D01*
X105346362Y-140774512D01*
X105372414Y-140741054D01*
X105417167Y-140724855D01*
X105446626Y-140722904D01*
X105501111Y-140731731D01*
G37*
G36*
X113929873Y-138998673D02*
G01*
X113962462Y-139027979D01*
X113976379Y-139074370D01*
X113976748Y-139084816D01*
X113966499Y-139134083D01*
X113937326Y-139166895D01*
X113891587Y-139180850D01*
X113882139Y-139181174D01*
X113844413Y-139176876D01*
X113815140Y-139166394D01*
X113813174Y-139165072D01*
X113796144Y-139141863D01*
X113784406Y-139107118D01*
X113783862Y-139104041D01*
X113786568Y-139053702D01*
X113809928Y-139015000D01*
X113850194Y-138992412D01*
X113880615Y-138988458D01*
X113929873Y-138998673D01*
G37*
G36*
X110459042Y-140732599D02*
G01*
X110494975Y-140760517D01*
X110511703Y-140804903D01*
X110511173Y-140844826D01*
X110493794Y-140894153D01*
X110460552Y-140927226D01*
X110417086Y-140941860D01*
X110369035Y-140935866D01*
X110331004Y-140914688D01*
X110305719Y-140880088D01*
X110295491Y-140834321D01*
X110300811Y-140787386D01*
X110322171Y-140749285D01*
X110322848Y-140748599D01*
X110356389Y-140728886D01*
X110405426Y-140722904D01*
X110459042Y-140732599D01*
G37*
G36*
X109215028Y-141783526D02*
G01*
X109248205Y-141806580D01*
X109267128Y-141845102D01*
X109269332Y-141866353D01*
X109258741Y-141910736D01*
X109231127Y-141941051D01*
X109192726Y-141954147D01*
X109149776Y-141946875D01*
X109130866Y-141936288D01*
X109109815Y-141912317D01*
X109102466Y-141875154D01*
X109102312Y-141866353D01*
X109107587Y-141825845D01*
X109125895Y-141800171D01*
X109130866Y-141796419D01*
X109173836Y-141779089D01*
X109215028Y-141783526D01*
G37*
G36*
X109238506Y-138471395D02*
G01*
X109274438Y-138499313D01*
X109291167Y-138543699D01*
X109290637Y-138583622D01*
X109273258Y-138632949D01*
X109240016Y-138666022D01*
X109196550Y-138680656D01*
X109148499Y-138674662D01*
X109110468Y-138653484D01*
X109085183Y-138618884D01*
X109074955Y-138573117D01*
X109080275Y-138526182D01*
X109101635Y-138488081D01*
X109102312Y-138487395D01*
X109135853Y-138467682D01*
X109184889Y-138461700D01*
X109238506Y-138471395D01*
G37*
G36*
X110974886Y-138469643D02*
G01*
X111010188Y-138494205D01*
X111027340Y-138536492D01*
X111029474Y-138565066D01*
X111019089Y-138615881D01*
X110991701Y-138653875D01*
X110952957Y-138676524D01*
X110908505Y-138681304D01*
X110863992Y-138665691D01*
X110842598Y-138648576D01*
X110818466Y-138613200D01*
X110811072Y-138567260D01*
X110811062Y-138565066D01*
X110819453Y-138513369D01*
X110845404Y-138479954D01*
X110890079Y-138463720D01*
X110920268Y-138461700D01*
X110974886Y-138469643D01*
G37*
G36*
X114348388Y-138990153D02*
G01*
X114387101Y-139009699D01*
X114413292Y-139044698D01*
X114421280Y-139084816D01*
X114411000Y-139133639D01*
X114381382Y-139166148D01*
X114334258Y-139180590D01*
X114320489Y-139181174D01*
X114274144Y-139173514D01*
X114249826Y-139157679D01*
X114232397Y-139123321D01*
X114227866Y-139080296D01*
X114235730Y-139038960D01*
X114255480Y-139009666D01*
X114257118Y-139008458D01*
X114303084Y-138988820D01*
X114348388Y-138990153D01*
G37*
G36*
X115408096Y-138999254D02*
G01*
X115442161Y-139027802D01*
X115458972Y-139068338D01*
X115455081Y-139115098D01*
X115447176Y-139133839D01*
X115426602Y-139163472D01*
X115399737Y-139177414D01*
X115359165Y-139180780D01*
X115324765Y-139178243D01*
X115301269Y-139172060D01*
X115300062Y-139171341D01*
X115275240Y-139141850D01*
X115261776Y-139100877D01*
X115262716Y-139067559D01*
X115283696Y-139020732D01*
X115318946Y-138994925D01*
X115360224Y-138988458D01*
X115408096Y-138999254D01*
G37*
G36*
X111913056Y-141783526D02*
G01*
X111946232Y-141806580D01*
X111965155Y-141845102D01*
X111967360Y-141866353D01*
X111956769Y-141910736D01*
X111929154Y-141941051D01*
X111890753Y-141954147D01*
X111847803Y-141946875D01*
X111828893Y-141936288D01*
X111807842Y-141912317D01*
X111800494Y-141875154D01*
X111800339Y-141866353D01*
X111805615Y-141825845D01*
X111823923Y-141800171D01*
X111828893Y-141796419D01*
X111871864Y-141779089D01*
X111913056Y-141783526D01*
G37*
G36*
X106539051Y-140732458D02*
G01*
X106566102Y-140749948D01*
X106583557Y-140783808D01*
X106590656Y-140828368D01*
X106587145Y-140872852D01*
X106572769Y-140906480D01*
X106569861Y-140909723D01*
X106538837Y-140926698D01*
X106494869Y-140935513D01*
X106449786Y-140934826D01*
X106421022Y-140926611D01*
X106391526Y-140898678D01*
X106375444Y-140857208D01*
X106373349Y-140810922D01*
X106385817Y-140768541D01*
X106408841Y-140741715D01*
X106448189Y-140725957D01*
X106495175Y-140723059D01*
X106539051Y-140732458D01*
G37*
G36*
X107499601Y-140732219D02*
G01*
X107535988Y-140759033D01*
X107552928Y-140801643D01*
X107549240Y-140858351D01*
X107546573Y-140868920D01*
X107523520Y-140909338D01*
X107484426Y-140933791D01*
X107434874Y-140940199D01*
X107385968Y-140928823D01*
X107358454Y-140905578D01*
X107339329Y-140867149D01*
X107332695Y-140823687D01*
X107335292Y-140803452D01*
X107354019Y-140758143D01*
X107385199Y-140732504D01*
X107433471Y-140723128D01*
X107444952Y-140722904D01*
X107499601Y-140732219D01*
G37*
G36*
X111410053Y-141259906D02*
G01*
X111440830Y-141284989D01*
X111459269Y-141324650D01*
X111461526Y-141369088D01*
X111448216Y-141408449D01*
X111432016Y-141426276D01*
X111402565Y-141437390D01*
X111361838Y-141441875D01*
X111322911Y-141439121D01*
X111303292Y-141432284D01*
X111283689Y-141407883D01*
X111270268Y-141370070D01*
X111266759Y-141331013D01*
X111268604Y-141319133D01*
X111289729Y-141280697D01*
X111325350Y-141257021D01*
X111367960Y-141249595D01*
X111410053Y-141259906D01*
G37*
G36*
X112447444Y-140991245D02*
G01*
X112476990Y-141012955D01*
X112498657Y-141039724D01*
X112505427Y-141067876D01*
X112503087Y-141098233D01*
X112494555Y-141135765D01*
X112482144Y-141163594D01*
X112478871Y-141167632D01*
X112450074Y-141183570D01*
X112410135Y-141192566D01*
X112373263Y-141191860D01*
X112365640Y-141189633D01*
X112324989Y-141163483D01*
X112304778Y-141123350D01*
X112301598Y-141090285D01*
X112304549Y-141046379D01*
X112315882Y-141019047D01*
X112339934Y-140999490D01*
X112348736Y-140994630D01*
X112399459Y-140980522D01*
X112447444Y-140991245D01*
G37*
G36*
X107467024Y-140985068D02*
G01*
X107507190Y-141004434D01*
X107536129Y-141039449D01*
X107547718Y-141087100D01*
X107547734Y-141089065D01*
X107540858Y-141127593D01*
X107525250Y-141158265D01*
X107492798Y-141181234D01*
X107449731Y-141193268D01*
X107409637Y-141190781D01*
X107406409Y-141189633D01*
X107366274Y-141164106D01*
X107345949Y-141124818D01*
X107342170Y-141088006D01*
X107345873Y-141047860D01*
X107360342Y-141020967D01*
X107377497Y-141005326D01*
X107421752Y-140984361D01*
X107467024Y-140985068D01*
G37*
G36*
X111930872Y-138469865D02*
G01*
X111965837Y-138494813D01*
X111966427Y-138495552D01*
X111990034Y-138541779D01*
X111992080Y-138587032D01*
X111976526Y-138627348D01*
X111947332Y-138658769D01*
X111908459Y-138677333D01*
X111863868Y-138679079D01*
X111817519Y-138660047D01*
X111808495Y-138653484D01*
X111783210Y-138618884D01*
X111772982Y-138573117D01*
X111778303Y-138526182D01*
X111799662Y-138488081D01*
X111800339Y-138487395D01*
X111838122Y-138465665D01*
X111884967Y-138459985D01*
X111930872Y-138469865D01*
G37*
G36*
X110195804Y-140195482D02*
G01*
X110236249Y-140222877D01*
X110261286Y-140267881D01*
X110263237Y-140275190D01*
X110266528Y-140333938D01*
X110248991Y-140381913D01*
X110214364Y-140415879D01*
X110166384Y-140432600D01*
X110108787Y-140428841D01*
X110091635Y-140423744D01*
X110052677Y-140398330D01*
X110029030Y-140359013D01*
X110020843Y-140312635D01*
X110028268Y-140266041D01*
X110051456Y-140226075D01*
X110086728Y-140201088D01*
X110144461Y-140187588D01*
X110195804Y-140195482D01*
G37*
G36*
X105486789Y-141523068D02*
G01*
X105513351Y-141534306D01*
X105518272Y-141539318D01*
X105532985Y-141574192D01*
X105533923Y-141618133D01*
X105521666Y-141658894D01*
X105511944Y-141672998D01*
X105479060Y-141693188D01*
X105437417Y-141698924D01*
X105398601Y-141689650D01*
X105383825Y-141679163D01*
X105359131Y-141638464D01*
X105354607Y-141591661D01*
X105365268Y-141558898D01*
X105382860Y-141536940D01*
X105409511Y-141525910D01*
X105442244Y-141522057D01*
X105486789Y-141523068D01*
G37*
G36*
X112430706Y-141784599D02*
G01*
X112452715Y-141796419D01*
X112475301Y-141826188D01*
X112482827Y-141866365D01*
X112475293Y-141906539D01*
X112452715Y-141936288D01*
X112408527Y-141954529D01*
X112365964Y-141948710D01*
X112339944Y-141930592D01*
X112316285Y-141892941D01*
X112313559Y-141854171D01*
X112327701Y-141819117D01*
X112354649Y-141792614D01*
X112390339Y-141779497D01*
X112430706Y-141784599D01*
G37*
G36*
X107223979Y-139525909D02*
G01*
X107253734Y-139555960D01*
X107265054Y-139602320D01*
X107265083Y-139605150D01*
X107259808Y-139645658D01*
X107241500Y-139671332D01*
X107236529Y-139675084D01*
X107192340Y-139693325D01*
X107149777Y-139687506D01*
X107123758Y-139669388D01*
X107102826Y-139633556D01*
X107100373Y-139592965D01*
X107113815Y-139554874D01*
X107140563Y-139526540D01*
X107178031Y-139515219D01*
X107178714Y-139515215D01*
X107223979Y-139525909D01*
G37*
G36*
X111930906Y-139264627D02*
G01*
X111959529Y-139285747D01*
X111971597Y-139324650D01*
X111972499Y-139344627D01*
X111961474Y-139388782D01*
X111932667Y-139420820D01*
X111892477Y-139437313D01*
X111847303Y-139434832D01*
X111823339Y-139424541D01*
X111802155Y-139399074D01*
X111792008Y-139360221D01*
X111794273Y-139318406D01*
X111805618Y-139290323D01*
X111825061Y-139269005D01*
X111852416Y-139259776D01*
X111882572Y-139258260D01*
X111930906Y-139264627D01*
G37*
G36*
X107226297Y-140726563D02*
G01*
X107264398Y-140747923D01*
X107265083Y-140748599D01*
X107286814Y-140786383D01*
X107292494Y-140833227D01*
X107282614Y-140879132D01*
X107257666Y-140914098D01*
X107256927Y-140914688D01*
X107209844Y-140937644D01*
X107159797Y-140939032D01*
X107114586Y-140919100D01*
X107103903Y-140909780D01*
X107078074Y-140867306D01*
X107073495Y-140817823D01*
X107090415Y-140769130D01*
X107098995Y-140756756D01*
X107133595Y-140731471D01*
X107179362Y-140721243D01*
X107226297Y-140726563D01*
G37*
G36*
X112181896Y-142322612D02*
G01*
X112205682Y-142351201D01*
X112211467Y-142385691D01*
X112204110Y-142427768D01*
X112180346Y-142450787D01*
X112140804Y-142457350D01*
X112107537Y-142452649D01*
X112085559Y-142441933D01*
X112073096Y-142414818D01*
X112071103Y-142377715D01*
X112079137Y-142343451D01*
X112089453Y-142328840D01*
X112117214Y-142316165D01*
X112140804Y-142312813D01*
X112181896Y-142322612D01*
G37*
G36*
X112171504Y-141781316D02*
G01*
X112204048Y-141804518D01*
X112222273Y-141844454D01*
X112224315Y-141866353D01*
X112214112Y-141913156D01*
X112185817Y-141944373D01*
X112142903Y-141956267D01*
X112140804Y-141956288D01*
X112110125Y-141949027D01*
X112085848Y-141936288D01*
X112064797Y-141912317D01*
X112057449Y-141875154D01*
X112057294Y-141866353D01*
X112062570Y-141825845D01*
X112080878Y-141800171D01*
X112085848Y-141796419D01*
X112130239Y-141777674D01*
X112171504Y-141781316D01*
G37*
G36*
X113663019Y-138465359D02*
G01*
X113701120Y-138486719D01*
X113701806Y-138487395D01*
X113723536Y-138525179D01*
X113729216Y-138572023D01*
X113719336Y-138617929D01*
X113694389Y-138652894D01*
X113693649Y-138653484D01*
X113646566Y-138676440D01*
X113596519Y-138677828D01*
X113551308Y-138657896D01*
X113540625Y-138648576D01*
X113514796Y-138606102D01*
X113510217Y-138556619D01*
X113527137Y-138507926D01*
X113535718Y-138495552D01*
X113570317Y-138470267D01*
X113616085Y-138460039D01*
X113663019Y-138465359D01*
G37*
G36*
X110159891Y-139520377D02*
G01*
X110203603Y-139537941D01*
X110226050Y-139569813D01*
X110227861Y-139616903D01*
X110227700Y-139617955D01*
X110210644Y-139663118D01*
X110180101Y-139689187D01*
X110141535Y-139694422D01*
X110100410Y-139677082D01*
X110084580Y-139663549D01*
X110058250Y-139625434D01*
X110057381Y-139588002D01*
X110081997Y-139549455D01*
X110086016Y-139545315D01*
X110114790Y-139522764D01*
X110144007Y-139518051D01*
X110159891Y-139520377D01*
G37*
G36*
X112442483Y-140726563D02*
G01*
X112480584Y-140747923D01*
X112481270Y-140748599D01*
X112503000Y-140786383D01*
X112508680Y-140833227D01*
X112498800Y-140879132D01*
X112473852Y-140914098D01*
X112473113Y-140914688D01*
X112426030Y-140937644D01*
X112375983Y-140939032D01*
X112330772Y-140919100D01*
X112320089Y-140909780D01*
X112294260Y-140867306D01*
X112289681Y-140817823D01*
X112306601Y-140769130D01*
X112315181Y-140756756D01*
X112349781Y-140731471D01*
X112395548Y-140721243D01*
X112442483Y-140726563D01*
G37*
G36*
X111666206Y-139526788D02*
G01*
X111695713Y-139556498D01*
X111709982Y-139596829D01*
X111710405Y-139605150D01*
X111699859Y-139649371D01*
X111672476Y-139679602D01*
X111634637Y-139692860D01*
X111592726Y-139686162D01*
X111568488Y-139671493D01*
X111544476Y-139638148D01*
X111540092Y-139598962D01*
X111552676Y-139560881D01*
X111579570Y-139530852D01*
X111618113Y-139515821D01*
X111628318Y-139515215D01*
X111666206Y-139526788D01*
G37*
G36*
X112171504Y-139520112D02*
G01*
X112204048Y-139543314D01*
X112222273Y-139583250D01*
X112224315Y-139605150D01*
X112214112Y-139651952D01*
X112185817Y-139683169D01*
X112142903Y-139695063D01*
X112140804Y-139695084D01*
X112110125Y-139687823D01*
X112085848Y-139675084D01*
X112064797Y-139651113D01*
X112057449Y-139613950D01*
X112057294Y-139605150D01*
X112062570Y-139564641D01*
X112080878Y-139538968D01*
X112085848Y-139535216D01*
X112130239Y-139516471D01*
X112171504Y-139520112D01*
G37*
G36*
X107492324Y-141528927D02*
G01*
X107522970Y-141556650D01*
X107534781Y-141601635D01*
X107534886Y-141607198D01*
X107524163Y-141651821D01*
X107496093Y-141683109D01*
X107456825Y-141698132D01*
X107412507Y-141693959D01*
X107383572Y-141679333D01*
X107362467Y-141655246D01*
X107355156Y-141617889D01*
X107355018Y-141609588D01*
X107362965Y-141561160D01*
X107387817Y-141531772D01*
X107431092Y-141519885D01*
X107443878Y-141519464D01*
X107492324Y-141528927D01*
G37*
G36*
X106005425Y-140059238D02*
G01*
X106029909Y-140084607D01*
X106037721Y-140121116D01*
X106028529Y-140155577D01*
X106004779Y-140181944D01*
X105970698Y-140195141D01*
X105935417Y-140194078D01*
X105908066Y-140177663D01*
X105903270Y-140170541D01*
X105892122Y-140129807D01*
X105898681Y-140090894D01*
X105921039Y-140063045D01*
X105926062Y-140060180D01*
X105969175Y-140049573D01*
X106005425Y-140059238D01*
G37*
G36*
X108712860Y-141528927D02*
G01*
X108743506Y-141556650D01*
X108755317Y-141601635D01*
X108755422Y-141607198D01*
X108744699Y-141651821D01*
X108716629Y-141683109D01*
X108677361Y-141698132D01*
X108633043Y-141693959D01*
X108604108Y-141679333D01*
X108583004Y-141655246D01*
X108575693Y-141617889D01*
X108575554Y-141609588D01*
X108583501Y-141561160D01*
X108608353Y-141531772D01*
X108651628Y-141519885D01*
X108664415Y-141519464D01*
X108712860Y-141528927D01*
G37*
G36*
X106498282Y-141781581D02*
G01*
X106541995Y-141799145D01*
X106564441Y-141831017D01*
X106566253Y-141878107D01*
X106566091Y-141879159D01*
X106549035Y-141924322D01*
X106518493Y-141950391D01*
X106479927Y-141955625D01*
X106438801Y-141938285D01*
X106422972Y-141924752D01*
X106396641Y-141886638D01*
X106395773Y-141849206D01*
X106420389Y-141810659D01*
X106424408Y-141806519D01*
X106453182Y-141783968D01*
X106482398Y-141779255D01*
X106498282Y-141781581D01*
G37*
G36*
X113415958Y-138469643D02*
G01*
X113451260Y-138494205D01*
X113468412Y-138536492D01*
X113470546Y-138565066D01*
X113460162Y-138615881D01*
X113432774Y-138653875D01*
X113394030Y-138676524D01*
X113349577Y-138681304D01*
X113305064Y-138665691D01*
X113283670Y-138648576D01*
X113259538Y-138613200D01*
X113252144Y-138567260D01*
X113252135Y-138565066D01*
X113260526Y-138513369D01*
X113286476Y-138479954D01*
X113331152Y-138463720D01*
X113361340Y-138461700D01*
X113415958Y-138469643D01*
G37*
G36*
X113903746Y-138723864D02*
G01*
X113943913Y-138743231D01*
X113972852Y-138778245D01*
X113984440Y-138825896D01*
X113984456Y-138827861D01*
X113977581Y-138866389D01*
X113961973Y-138897061D01*
X113929520Y-138920030D01*
X113886453Y-138932064D01*
X113846359Y-138929577D01*
X113843131Y-138928429D01*
X113802996Y-138902902D01*
X113782672Y-138863614D01*
X113778892Y-138826802D01*
X113782595Y-138786656D01*
X113797064Y-138759763D01*
X113814220Y-138744122D01*
X113858474Y-138723157D01*
X113903746Y-138723864D01*
G37*
G36*
X109489833Y-139264627D02*
G01*
X109518457Y-139285747D01*
X109530525Y-139324650D01*
X109531426Y-139344627D01*
X109520402Y-139388782D01*
X109491595Y-139420820D01*
X109451405Y-139437313D01*
X109406231Y-139434832D01*
X109382267Y-139424541D01*
X109361083Y-139399074D01*
X109350936Y-139360221D01*
X109353201Y-139318406D01*
X109364546Y-139290323D01*
X109383989Y-139269005D01*
X109411344Y-139259776D01*
X109441500Y-139258260D01*
X109489833Y-139264627D01*
G37*
G36*
X105474891Y-138724619D02*
G01*
X105514247Y-138743072D01*
X105539605Y-138776517D01*
X105550458Y-138818078D01*
X105546299Y-138860878D01*
X105526623Y-138898040D01*
X105490922Y-138922689D01*
X105489520Y-138923191D01*
X105459989Y-138932259D01*
X105442466Y-138935391D01*
X105441998Y-138935317D01*
X105424534Y-138931762D01*
X105404696Y-138927911D01*
X105376751Y-138911158D01*
X105354462Y-138878952D01*
X105340940Y-138826598D01*
X105349584Y-138780531D01*
X105376930Y-138745189D01*
X105419517Y-138725011D01*
X105473880Y-138724433D01*
X105474891Y-138724619D01*
G37*
G36*
X112886742Y-139526788D02*
G01*
X112916249Y-139556498D01*
X112930518Y-139596829D01*
X112930941Y-139605150D01*
X112920395Y-139649371D01*
X112893012Y-139679602D01*
X112855174Y-139692860D01*
X112813262Y-139686162D01*
X112789024Y-139671493D01*
X112765012Y-139638148D01*
X112760628Y-139598962D01*
X112773213Y-139560881D01*
X112800106Y-139530852D01*
X112838649Y-139515821D01*
X112848854Y-139515215D01*
X112886742Y-139526788D01*
G37*
G36*
X110428959Y-138991331D02*
G01*
X110468982Y-139009566D01*
X110476520Y-139016576D01*
X110497919Y-139055844D01*
X110501395Y-139101535D01*
X110486911Y-139143202D01*
X110477021Y-139155478D01*
X110442552Y-139175130D01*
X110398942Y-139181423D01*
X110357055Y-139174194D01*
X110331263Y-139157679D01*
X110313833Y-139123321D01*
X110309303Y-139080296D01*
X110317166Y-139038960D01*
X110336917Y-139009666D01*
X110338554Y-139008458D01*
X110382124Y-138990764D01*
X110428959Y-138991331D01*
G37*
G36*
X110117284Y-143379528D02*
G01*
X110165463Y-143388525D01*
X110212312Y-143401943D01*
X110272799Y-143425798D01*
X110339069Y-143456447D01*
X110403262Y-143490249D01*
X110457523Y-143523562D01*
X110458997Y-143524572D01*
X110540545Y-143586690D01*
X110618171Y-143658950D01*
X110694046Y-143744067D01*
X110770339Y-143844755D01*
X110849219Y-143963728D01*
X110932855Y-144103702D01*
X110959839Y-144151340D01*
X111009510Y-144237690D01*
X111050938Y-144303604D01*
X111086677Y-144351961D01*
X111119280Y-144385643D01*
X111151301Y-144407529D01*
X111185294Y-144420501D01*
X111201681Y-144424154D01*
X111274191Y-144448334D01*
X111330248Y-144488624D01*
X111367983Y-144541328D01*
X111385526Y-144602746D01*
X111381009Y-144669180D01*
X111356447Y-144730363D01*
X111283245Y-144837669D01*
X111189643Y-144942421D01*
X111080882Y-145040361D01*
X110962199Y-145127229D01*
X110838835Y-145198765D01*
X110716600Y-145250518D01*
X110676802Y-145260562D01*
X110620249Y-145270501D01*
X110555848Y-145278905D01*
X110516176Y-145282695D01*
X110428988Y-145292490D01*
X110359963Y-145306105D01*
X110320666Y-145319198D01*
X110266717Y-145351019D01*
X110215228Y-145394930D01*
X110174287Y-145443250D01*
X110156409Y-145475167D01*
X110150593Y-145492640D01*
X110151520Y-145508363D01*
X110161997Y-145527063D01*
X110184830Y-145553465D01*
X110222824Y-145592293D01*
X110230564Y-145600041D01*
X110339564Y-145725847D01*
X110424894Y-145861415D01*
X110486530Y-146006457D01*
X110524450Y-146160682D01*
X110538630Y-146323802D01*
X110529047Y-146495526D01*
X110495679Y-146675566D01*
X110438503Y-146863631D01*
X110357495Y-147059432D01*
X110347951Y-147079702D01*
X110315593Y-147146600D01*
X110284499Y-147208013D01*
X110252947Y-147266572D01*
X110219214Y-147324910D01*
X110181579Y-147385656D01*
X110138319Y-147451442D01*
X110087712Y-147524899D01*
X110028036Y-147608660D01*
X109957569Y-147705354D01*
X109874588Y-147817613D01*
X109795295Y-147924067D01*
X109684242Y-148074603D01*
X109589037Y-148207740D01*
X109508571Y-148325387D01*
X109441736Y-148429451D01*
X109387424Y-148521840D01*
X109344525Y-148604462D01*
X109311931Y-148679225D01*
X109288534Y-148748035D01*
X109273225Y-148812802D01*
X109270851Y-148826577D01*
X109265549Y-148916114D01*
X109280974Y-148990686D01*
X109317199Y-149050611D01*
X109323107Y-149056999D01*
X109349783Y-149079962D01*
X109382668Y-149097562D01*
X109427334Y-149111821D01*
X109489352Y-149124761D01*
X109527580Y-149131203D01*
X109574307Y-149149606D01*
X109620340Y-149185752D01*
X109658438Y-149232536D01*
X109681067Y-149281757D01*
X109686461Y-149348411D01*
X109669492Y-149414428D01*
X109632955Y-149473941D01*
X109579646Y-149521084D01*
X109562257Y-149531183D01*
X109553905Y-149533933D01*
X109539090Y-149536392D01*
X109516516Y-149538574D01*
X109484892Y-149540493D01*
X109442922Y-149542161D01*
X109389312Y-149543593D01*
X109322770Y-149544801D01*
X109242001Y-149545800D01*
X109145711Y-149546603D01*
X109032607Y-149547223D01*
X108901394Y-149547674D01*
X108750779Y-149547970D01*
X108579468Y-149548124D01*
X108386168Y-149548149D01*
X108169583Y-149548059D01*
X107962712Y-149547900D01*
X107763338Y-149547637D01*
X107570494Y-149547222D01*
X107385807Y-149546665D01*
X107210904Y-149545978D01*
X107047414Y-149545174D01*
X106896963Y-149544263D01*
X106761180Y-149543258D01*
X106641691Y-149542171D01*
X106540124Y-149541012D01*
X106458107Y-149539795D01*
X106397268Y-149538530D01*
X106359233Y-149537230D01*
X106346469Y-149536204D01*
X106225388Y-149499156D01*
X106108105Y-149438159D01*
X105995927Y-149354838D01*
X105890156Y-149250817D01*
X105792097Y-149127722D01*
X105703054Y-148987177D01*
X105624331Y-148830808D01*
X105557231Y-148660239D01*
X105506086Y-148489050D01*
X105474472Y-148346573D01*
X105450832Y-148199892D01*
X105435569Y-148054476D01*
X105429086Y-147915793D01*
X105431787Y-147789310D01*
X105444075Y-147680496D01*
X105445763Y-147671239D01*
X105465705Y-147579330D01*
X105494931Y-147464758D01*
X105533111Y-147328690D01*
X105579913Y-147172292D01*
X105635006Y-146996730D01*
X105652870Y-146941214D01*
X105682894Y-146846560D01*
X105714291Y-146744387D01*
X105744634Y-146642815D01*
X105771496Y-146549959D01*
X105791184Y-146478695D01*
X105811245Y-146402480D01*
X105825476Y-146343586D01*
X105834864Y-146294562D01*
X105840390Y-146247952D01*
X105843038Y-146196304D01*
X105843791Y-146132164D01*
X105843731Y-146080415D01*
X105842338Y-145984627D01*
X105838312Y-145906496D01*
X105830965Y-145838054D01*
X105819610Y-145771336D01*
X105815177Y-145749795D01*
X105773233Y-145585022D01*
X105722146Y-145442942D01*
X105661237Y-145321988D01*
X105589829Y-145220593D01*
X105582540Y-145211996D01*
X105542617Y-145160531D01*
X105503238Y-145101443D01*
X105475713Y-145052790D01*
X105455918Y-145010758D01*
X105443685Y-144975955D01*
X105437247Y-144939545D01*
X105434837Y-144892693D01*
X105434605Y-144847226D01*
X105438889Y-144761592D01*
X105453107Y-144693092D01*
X105480088Y-144634168D01*
X105522658Y-144577261D01*
X105544398Y-144553668D01*
X105622711Y-144490200D01*
X105714536Y-144447128D01*
X105816866Y-144425161D01*
X105926697Y-144425010D01*
X106019251Y-144441407D01*
X106152705Y-144488412D01*
X106279029Y-144557793D01*
X106395133Y-144646550D01*
X106497924Y-144751682D01*
X106584311Y-144870190D01*
X106651204Y-144999072D01*
X106682086Y-145084715D01*
X106697049Y-145159050D01*
X106704396Y-145253407D01*
X106704440Y-145363368D01*
X106697499Y-145484514D01*
X106683887Y-145612428D01*
X106663920Y-145742691D01*
X106637913Y-145870884D01*
X106621101Y-145939090D01*
X106596334Y-146029260D01*
X106571139Y-146111925D01*
X106543952Y-146190504D01*
X106513208Y-146268419D01*
X106477342Y-146349092D01*
X106434790Y-146435942D01*
X106383987Y-146532391D01*
X106323369Y-146641861D01*
X106251371Y-146767771D01*
X106207741Y-146842891D01*
X106119951Y-146997843D01*
X106047288Y-147136362D01*
X105988446Y-147261767D01*
X105942117Y-147377376D01*
X105906996Y-147486509D01*
X105881775Y-147592486D01*
X105865148Y-147698626D01*
X105862854Y-147719072D01*
X105856311Y-147832821D01*
X105860655Y-147939713D01*
X105875099Y-148036337D01*
X105898856Y-148119282D01*
X105931140Y-148185137D01*
X105971163Y-148230490D01*
X105982655Y-148238452D01*
X106042876Y-148261280D01*
X106105768Y-148260851D01*
X106166270Y-148238413D01*
X106219319Y-148195213D01*
X106234482Y-148176399D01*
X106252351Y-148149140D01*
X106264215Y-148121934D01*
X106271902Y-148087678D01*
X106277239Y-148039268D01*
X106280188Y-147998754D01*
X106302643Y-147825479D01*
X106347831Y-147640344D01*
X106415728Y-147443425D01*
X106506311Y-147234797D01*
X106520834Y-147204593D01*
X106653837Y-146954618D01*
X106800291Y-146725122D01*
X106962032Y-146514083D01*
X107140892Y-146319482D01*
X107338707Y-146139298D01*
X107557310Y-145971510D01*
X107763527Y-145835466D01*
X107885653Y-145759957D01*
X107988383Y-145695977D01*
X108074317Y-145641771D01*
X108146054Y-145595583D01*
X108206193Y-145555658D01*
X108257333Y-145520241D01*
X108302075Y-145487576D01*
X108343017Y-145455908D01*
X108382758Y-145423482D01*
X108418645Y-145393061D01*
X108513353Y-145308310D01*
X108589464Y-145231955D01*
X108650710Y-145159684D01*
X108700825Y-145087182D01*
X108734227Y-145028388D01*
X108765115Y-144964919D01*
X108788451Y-144904928D01*
X108805635Y-144842359D01*
X108818062Y-144771152D01*
X108827132Y-144685252D01*
X108833003Y-144600307D01*
X108838654Y-144521017D01*
X108846029Y-144441544D01*
X108854298Y-144369619D01*
X108862634Y-144312972D01*
X108865372Y-144298385D01*
X108909809Y-144127612D01*
X108969900Y-143970470D01*
X109044390Y-143828855D01*
X109132019Y-143704660D01*
X109231533Y-143599779D01*
X109341672Y-143516107D01*
X109409801Y-143478102D01*
X109454894Y-143453748D01*
X109480980Y-143432666D01*
X109493479Y-143410161D01*
X109494999Y-143404297D01*
X109521607Y-143318136D01*
X109563322Y-143226732D01*
X109617278Y-143133502D01*
X109680606Y-143041862D01*
X109750440Y-142955227D01*
X109823912Y-142877013D01*
X109898156Y-142810638D01*
X109970304Y-142759515D01*
X110037490Y-142727062D01*
X110070603Y-142718518D01*
X110117284Y-142710943D01*
X110117284Y-143379528D01*
G37*
G36*
X107718818Y-141781581D02*
G01*
X107762531Y-141799145D01*
X107784977Y-141831017D01*
X107786789Y-141878107D01*
X107786627Y-141879159D01*
X107769572Y-141924322D01*
X107739029Y-141950391D01*
X107700463Y-141955625D01*
X107659337Y-141938285D01*
X107643508Y-141924752D01*
X107617177Y-141886638D01*
X107616309Y-141849206D01*
X107640925Y-141810659D01*
X107644944Y-141806519D01*
X107673718Y-141783968D01*
X107702935Y-141779255D01*
X107718818Y-141781581D01*
G37*
G36*
X111910604Y-142315278D02*
G01*
X111937425Y-142336879D01*
X111951803Y-142374657D01*
X111952177Y-142377980D01*
X111950653Y-142412959D01*
X111941311Y-142438491D01*
X111940968Y-142438918D01*
X111915895Y-142452605D01*
X111879560Y-142456843D01*
X111844728Y-142451287D01*
X111828604Y-142441933D01*
X111817798Y-142418984D01*
X111813189Y-142385097D01*
X111813187Y-142384414D01*
X111822632Y-142344420D01*
X111846493Y-142319359D01*
X111878055Y-142309541D01*
X111910604Y-142315278D01*
G37*
G36*
X110969091Y-138998737D02*
G01*
X111001600Y-139028355D01*
X111016043Y-139075480D01*
X111016626Y-139089248D01*
X111008225Y-139137118D01*
X110982133Y-139167048D01*
X110937014Y-139180268D01*
X110916773Y-139181174D01*
X110876146Y-139176778D01*
X110850746Y-139161155D01*
X110843910Y-139152620D01*
X110824272Y-139106654D01*
X110825605Y-139061349D01*
X110845151Y-139022636D01*
X110880150Y-138996445D01*
X110920268Y-138988458D01*
X110969091Y-138998737D01*
G37*
G36*
X108720137Y-138471016D02*
G01*
X108756524Y-138497829D01*
X108773464Y-138540439D01*
X108769776Y-138597147D01*
X108767109Y-138607716D01*
X108744056Y-138648134D01*
X108704962Y-138672588D01*
X108655410Y-138678995D01*
X108606505Y-138667619D01*
X108578990Y-138644374D01*
X108559865Y-138605945D01*
X108553231Y-138562483D01*
X108555828Y-138542248D01*
X108574555Y-138496939D01*
X108605735Y-138471300D01*
X108654007Y-138461924D01*
X108665488Y-138461700D01*
X108720137Y-138471016D01*
G37*
G36*
X111408077Y-140993032D02*
G01*
X111439576Y-141011049D01*
X111459182Y-141043117D01*
X111466916Y-141086075D01*
X111462477Y-141129130D01*
X111445563Y-141161492D01*
X111443814Y-141163159D01*
X111402529Y-141185327D01*
X111351039Y-141192077D01*
X111328297Y-141189451D01*
X111293412Y-141170793D01*
X111270505Y-141135961D01*
X111261444Y-141092403D01*
X111268094Y-141047566D01*
X111285057Y-141016905D01*
X111318343Y-140994099D01*
X111362751Y-140986012D01*
X111408077Y-140993032D01*
G37*
D10*
%TO.C,U3*%
X146534345Y-134989244D02*
X147034345Y-134989244D01*
X142034345Y-134989244D02*
X142034345Y-135489244D01*
X146534345Y-139989244D02*
X147034345Y-139989244D01*
X147034345Y-134989244D02*
X147034345Y-135489244D01*
X142034345Y-139989244D02*
X142034345Y-139489244D01*
X142534345Y-139989244D02*
X142034345Y-139989244D01*
X147034345Y-139989244D02*
X147034345Y-139489244D01*
X142534345Y-134989244D02*
X142034345Y-134989244D01*
D14*
X141865345Y-134669844D02*
G75*
G03*
X141865345Y-134669844I-125000J0D01*
G01*
D13*
%TO.C,C11*%
X133928583Y-134252100D02*
X134221117Y-134252100D01*
X133928583Y-133232100D02*
X134221117Y-133232100D01*
%TO.C,U1*%
X152522100Y-94882700D02*
X157017900Y-94882700D01*
X157017900Y-89777300D02*
X152522100Y-89777300D01*
X155074800Y-94882700D02*
G75*
G03*
X154465200Y-94882700I-304800J0D01*
G01*
%TO.C,G\u002A\u002A\u002A*%
G36*
X124698975Y-150508660D02*
G01*
X123664351Y-150508660D01*
X123664351Y-149474037D01*
X124698975Y-149474037D01*
X124698975Y-150508660D01*
G37*
G36*
X117456612Y-153267656D02*
G01*
X117111738Y-153267656D01*
X117111738Y-152922781D01*
X117456612Y-152922781D01*
X117456612Y-153267656D01*
G37*
G36*
X121939979Y-149129163D02*
G01*
X121595105Y-149129163D01*
X121595105Y-148784288D01*
X121939979Y-148784288D01*
X121939979Y-149129163D01*
G37*
G36*
X121595105Y-149474037D02*
G01*
X120905356Y-149474037D01*
X120905356Y-149129163D01*
X121595105Y-149129163D01*
X121595105Y-149474037D01*
G37*
G36*
X117801487Y-154647153D02*
G01*
X117456612Y-154647153D01*
X117456612Y-153957404D01*
X117801487Y-153957404D01*
X117801487Y-154647153D01*
G37*
G36*
X124354100Y-153957404D02*
G01*
X124009226Y-153957404D01*
X124009226Y-154647153D01*
X124354100Y-154647153D01*
X124354100Y-154992028D01*
X124009226Y-154992028D01*
X124009226Y-155336902D01*
X124354100Y-155336902D01*
X124354100Y-155681776D01*
X124009226Y-155681776D01*
X124009226Y-156026651D01*
X124354100Y-156026651D01*
X124354100Y-155681776D01*
X125388723Y-155681776D01*
X125388723Y-157406148D01*
X123319477Y-157406148D01*
X123319477Y-157061274D01*
X124354100Y-157061274D01*
X125043849Y-157061274D01*
X125043849Y-156371525D01*
X124698975Y-156371525D01*
X124698975Y-156716400D01*
X124354100Y-156716400D01*
X124354100Y-157061274D01*
X123319477Y-157061274D01*
X123319477Y-156716400D01*
X124009226Y-156716400D01*
X124009226Y-156371525D01*
X123664351Y-156371525D01*
X123664351Y-156026651D01*
X123319477Y-156026651D01*
X123319477Y-156371525D01*
X122974603Y-156371525D01*
X122974603Y-156026651D01*
X122284854Y-156026651D01*
X122284854Y-156371525D01*
X121939979Y-156371525D01*
X121939979Y-155681776D01*
X122284854Y-155681776D01*
X122629728Y-155681776D01*
X123664351Y-155681776D01*
X123664351Y-154647153D01*
X122629728Y-154647153D01*
X122629728Y-155681776D01*
X122284854Y-155681776D01*
X122284854Y-154302279D01*
X122974603Y-154302279D01*
X122974603Y-153957404D01*
X122284854Y-153957404D01*
X122284854Y-154302279D01*
X121595105Y-154302279D01*
X121595105Y-153267656D01*
X121939979Y-153267656D01*
X121939979Y-153612530D01*
X122629728Y-153612530D01*
X122974603Y-153612530D01*
X123319477Y-153612530D01*
X123319477Y-153267656D01*
X122974603Y-153267656D01*
X122974603Y-153612530D01*
X122629728Y-153612530D01*
X122629728Y-152922781D01*
X122284854Y-152922781D01*
X122284854Y-152577907D01*
X121595105Y-152577907D01*
X121595105Y-152233032D01*
X122629728Y-152233032D01*
X122629728Y-152577907D01*
X123319477Y-152577907D01*
X123319477Y-153267656D01*
X123664351Y-153267656D01*
X123664351Y-152922781D01*
X124009226Y-152922781D01*
X124009226Y-153267656D01*
X123664351Y-153267656D01*
X123664351Y-153612530D01*
X124009226Y-153612530D01*
X124009226Y-153267656D01*
X124354100Y-153267656D01*
X124354100Y-153957404D01*
G37*
G36*
X125388723Y-148784288D02*
G01*
X125388723Y-151198409D01*
X122974603Y-151198409D01*
X122974603Y-150836291D01*
X123336721Y-150836291D01*
X125026605Y-150836291D01*
X125026605Y-149146406D01*
X123336721Y-149146406D01*
X123336721Y-150836291D01*
X122974603Y-150836291D01*
X122974603Y-148784288D01*
X125388723Y-148784288D01*
G37*
G36*
X117111738Y-151888158D02*
G01*
X116766863Y-151888158D01*
X116766863Y-151543284D01*
X117111738Y-151543284D01*
X117111738Y-151888158D01*
G37*
G36*
X120215607Y-153612530D02*
G01*
X120560482Y-153612530D01*
X120560482Y-154992028D01*
X120215607Y-154992028D01*
X120215607Y-154302279D01*
X119525859Y-154302279D01*
X119525859Y-153957404D01*
X118836110Y-153957404D01*
X118836110Y-153612530D01*
X119525859Y-153612530D01*
X119525859Y-153267656D01*
X120215607Y-153267656D01*
X120215607Y-153612530D01*
G37*
G36*
X119525859Y-153267656D02*
G01*
X118836110Y-153267656D01*
X118836110Y-153612530D01*
X118491235Y-153612530D01*
X118491235Y-153957404D01*
X117801487Y-153957404D01*
X117801487Y-153612530D01*
X118146361Y-153612530D01*
X118146361Y-153267656D01*
X118491235Y-153267656D01*
X118491235Y-152922781D01*
X119525859Y-152922781D01*
X119525859Y-153267656D01*
G37*
G36*
X117111738Y-152577907D02*
G01*
X116766863Y-152577907D01*
X116766863Y-152233032D01*
X117111738Y-152233032D01*
X117111738Y-152577907D01*
G37*
G36*
X121595105Y-153267656D02*
G01*
X121250231Y-153267656D01*
X121250231Y-152922781D01*
X121595105Y-152922781D01*
X121595105Y-153267656D01*
G37*
G36*
X120560482Y-157406148D02*
G01*
X120215607Y-157406148D01*
X120215607Y-157061274D01*
X120560482Y-157061274D01*
X120560482Y-157406148D01*
G37*
G36*
X119870733Y-154992028D02*
G01*
X119525859Y-154992028D01*
X119525859Y-154647153D01*
X119870733Y-154647153D01*
X119870733Y-154992028D01*
G37*
G36*
X118491235Y-150508660D02*
G01*
X117456612Y-150508660D01*
X117456612Y-149474037D01*
X118491235Y-149474037D01*
X118491235Y-150508660D01*
G37*
G36*
X117111738Y-154647153D02*
G01*
X116766863Y-154647153D01*
X116766863Y-153267656D01*
X117111738Y-153267656D01*
X117111738Y-154647153D01*
G37*
G36*
X121250231Y-154302279D02*
G01*
X121595105Y-154302279D01*
X121595105Y-154647153D01*
X121939979Y-154647153D01*
X121939979Y-154992028D01*
X121250231Y-154992028D01*
X121250231Y-154647153D01*
X120905356Y-154647153D01*
X120905356Y-153957404D01*
X121250231Y-153957404D01*
X121250231Y-154302279D01*
G37*
G36*
X121250231Y-155336902D02*
G01*
X120905356Y-155336902D01*
X120905356Y-156026651D01*
X120560482Y-156026651D01*
X120560482Y-154992028D01*
X121250231Y-154992028D01*
X121250231Y-155336902D01*
G37*
G36*
X124698975Y-154647153D02*
G01*
X124354100Y-154647153D01*
X124354100Y-154302279D01*
X124698975Y-154302279D01*
X124698975Y-154647153D01*
G37*
G36*
X124698975Y-151888158D02*
G01*
X123664351Y-151888158D01*
X123664351Y-152233032D01*
X123319477Y-152233032D01*
X123319477Y-151888158D01*
X122974603Y-151888158D01*
X122974603Y-151543284D01*
X124698975Y-151543284D01*
X124698975Y-151888158D01*
G37*
G36*
X120560482Y-149818912D02*
G01*
X121250231Y-149818912D01*
X121250231Y-150508660D01*
X121595105Y-150508660D01*
X121939979Y-150508660D01*
X122284854Y-150508660D01*
X122284854Y-150163786D01*
X121939979Y-150163786D01*
X121939979Y-150508660D01*
X121595105Y-150508660D01*
X121595105Y-149818912D01*
X122629728Y-149818912D01*
X122629728Y-151198409D01*
X122284854Y-151198409D01*
X122284854Y-150853535D01*
X121939979Y-150853535D01*
X121939979Y-151198409D01*
X121595105Y-151198409D01*
X121595105Y-150853535D01*
X121250231Y-150853535D01*
X121250231Y-151888158D01*
X120905356Y-151888158D01*
X120905356Y-153267656D01*
X120560482Y-153267656D01*
X120560482Y-152922781D01*
X119525859Y-152922781D01*
X119525859Y-152577907D01*
X119870733Y-152577907D01*
X120560482Y-152577907D01*
X120560482Y-151888158D01*
X120905356Y-151888158D01*
X120905356Y-151543284D01*
X120215607Y-151543284D01*
X120215607Y-152233032D01*
X119870733Y-152233032D01*
X119870733Y-152577907D01*
X119525859Y-152577907D01*
X118491235Y-152577907D01*
X118491235Y-151888158D01*
X117801487Y-151888158D01*
X117801487Y-152577907D01*
X118146361Y-152577907D01*
X118146361Y-152922781D01*
X117456612Y-152922781D01*
X117456612Y-152233032D01*
X117111738Y-152233032D01*
X117111738Y-151888158D01*
X117456612Y-151888158D01*
X117456612Y-151543284D01*
X119180984Y-151543284D01*
X119180984Y-151888158D01*
X118836110Y-151888158D01*
X118836110Y-152233032D01*
X119870733Y-152233032D01*
X119870733Y-151543284D01*
X119525859Y-151543284D01*
X119525859Y-151198409D01*
X119870733Y-151198409D01*
X120215607Y-151198409D01*
X120215607Y-150853535D01*
X120560482Y-150853535D01*
X120560482Y-151198409D01*
X120905356Y-151198409D01*
X120905356Y-150853535D01*
X121250231Y-150853535D01*
X121250231Y-150508660D01*
X120905356Y-150508660D01*
X120905356Y-150163786D01*
X120560482Y-150163786D01*
X120560482Y-150508660D01*
X119870733Y-150508660D01*
X119870733Y-151198409D01*
X119525859Y-151198409D01*
X119525859Y-149474037D01*
X119870733Y-149474037D01*
X119870733Y-149818912D01*
X120215607Y-149818912D01*
X120215607Y-149474037D01*
X120560482Y-149474037D01*
X120560482Y-149818912D01*
X120215607Y-149818912D01*
X120215607Y-150163786D01*
X120560482Y-150163786D01*
X120560482Y-149818912D01*
G37*
G36*
X121595105Y-156371525D02*
G01*
X121939979Y-156371525D01*
X121939979Y-156716400D01*
X122284854Y-156716400D01*
X122284854Y-156371525D01*
X122629728Y-156371525D01*
X122629728Y-156716400D01*
X122974603Y-156716400D01*
X122974603Y-157061274D01*
X121939979Y-157061274D01*
X121939979Y-157406148D01*
X121595105Y-157406148D01*
X121595105Y-157061274D01*
X121939979Y-157061274D01*
X121939979Y-156716400D01*
X121595105Y-156716400D01*
X121595105Y-157061274D01*
X121250231Y-157061274D01*
X121250231Y-157406148D01*
X120905356Y-157406148D01*
X120905356Y-156716400D01*
X121250231Y-156716400D01*
X121250231Y-156371525D01*
X120905356Y-156371525D01*
X120905356Y-156026651D01*
X121595105Y-156026651D01*
X121595105Y-156371525D01*
G37*
G36*
X118836110Y-154302279D02*
G01*
X119525859Y-154302279D01*
X119525859Y-154647153D01*
X118146361Y-154647153D01*
X118146361Y-154302279D01*
X118491235Y-154302279D01*
X118491235Y-153957404D01*
X118836110Y-153957404D01*
X118836110Y-154302279D01*
G37*
G36*
X119870733Y-157406148D02*
G01*
X119525859Y-157406148D01*
X119525859Y-157061274D01*
X119870733Y-157061274D01*
X119870733Y-157406148D01*
G37*
G36*
X120905356Y-149129163D02*
G01*
X120560482Y-149129163D01*
X120560482Y-148784288D01*
X120905356Y-148784288D01*
X120905356Y-149129163D01*
G37*
G36*
X119180984Y-154992028D02*
G01*
X119180984Y-157406148D01*
X116766863Y-157406148D01*
X116766863Y-157044030D01*
X117128981Y-157044030D01*
X118818866Y-157044030D01*
X118818866Y-155354146D01*
X117128981Y-155354146D01*
X117128981Y-157044030D01*
X116766863Y-157044030D01*
X116766863Y-154992028D01*
X119180984Y-154992028D01*
G37*
G36*
X122629728Y-151888158D02*
G01*
X121595105Y-151888158D01*
X121595105Y-151543284D01*
X122629728Y-151543284D01*
X122629728Y-151888158D01*
G37*
G36*
X121939979Y-155681776D02*
G01*
X121595105Y-155681776D01*
X121595105Y-155336902D01*
X121939979Y-155336902D01*
X121939979Y-155681776D01*
G37*
G36*
X119180984Y-148784288D02*
G01*
X119180984Y-151198409D01*
X116766863Y-151198409D01*
X116766863Y-150836291D01*
X117128981Y-150836291D01*
X118818866Y-150836291D01*
X118818866Y-149146406D01*
X117128981Y-149146406D01*
X117128981Y-150836291D01*
X116766863Y-150836291D01*
X116766863Y-148784288D01*
X119180984Y-148784288D01*
G37*
G36*
X122629728Y-149474037D02*
G01*
X121939979Y-149474037D01*
X121939979Y-149129163D01*
X122284854Y-149129163D01*
X122284854Y-148784288D01*
X122629728Y-148784288D01*
X122629728Y-149474037D01*
G37*
G36*
X124354100Y-152577907D02*
G01*
X123664351Y-152577907D01*
X123664351Y-152233032D01*
X124354100Y-152233032D01*
X124354100Y-152577907D01*
G37*
G36*
X125388723Y-155336902D02*
G01*
X124354100Y-155336902D01*
X124354100Y-154992028D01*
X125388723Y-154992028D01*
X125388723Y-155336902D01*
G37*
G36*
X123319477Y-155336902D02*
G01*
X122974603Y-155336902D01*
X122974603Y-154992028D01*
X123319477Y-154992028D01*
X123319477Y-155336902D01*
G37*
G36*
X125043849Y-152233032D02*
G01*
X125388723Y-152233032D01*
X125388723Y-153267656D01*
X125043849Y-153267656D01*
X125043849Y-153612530D01*
X125388723Y-153612530D01*
X125388723Y-154302279D01*
X125043849Y-154302279D01*
X125043849Y-153957404D01*
X124698975Y-153957404D01*
X124698975Y-153267656D01*
X124354100Y-153267656D01*
X124354100Y-152922781D01*
X125043849Y-152922781D01*
X125043849Y-152577907D01*
X124698975Y-152577907D01*
X124698975Y-151888158D01*
X125043849Y-151888158D01*
X125043849Y-152233032D01*
G37*
G36*
X119870733Y-155336902D02*
G01*
X119870733Y-154992028D01*
X120215607Y-154992028D01*
X120215607Y-156026651D01*
X119870733Y-156026651D01*
X119870733Y-156371525D01*
X120215607Y-156371525D01*
X120215607Y-156026651D01*
X120560482Y-156026651D01*
X120560482Y-156371525D01*
X120215607Y-156371525D01*
X120215607Y-157061274D01*
X119870733Y-157061274D01*
X119870733Y-156716400D01*
X119525859Y-156716400D01*
X119525859Y-155336902D01*
X119870733Y-155336902D01*
G37*
G36*
X118491235Y-156716400D02*
G01*
X117456612Y-156716400D01*
X117456612Y-155681776D01*
X118491235Y-155681776D01*
X118491235Y-156716400D01*
G37*
G36*
X121250231Y-153612530D02*
G01*
X120905356Y-153612530D01*
X120905356Y-153267656D01*
X121250231Y-153267656D01*
X121250231Y-153612530D01*
G37*
%TO.C,C6*%
X138060858Y-139863733D02*
X138060858Y-140156267D01*
X139080858Y-139863733D02*
X139080858Y-140156267D01*
%TO.C,R4*%
X145099574Y-106364600D02*
X144590126Y-106364600D01*
X145099574Y-105319600D02*
X144590126Y-105319600D01*
%TO.C,C10*%
X144698583Y-103522100D02*
X144991117Y-103522100D01*
X144698583Y-104542100D02*
X144991117Y-104542100D01*
D15*
%TO.C,U5*%
X143640000Y-130240000D02*
X145040000Y-130240000D01*
X143640000Y-132440000D02*
X145040000Y-132440000D01*
X145433472Y-132434209D02*
G75*
G03*
X145430932Y-132434209I-1270J-134405D01*
G01*
D16*
X145423439Y-132439924D02*
G75*
G03*
X145423439Y-132439924I-29997J0D01*
G01*
D13*
%TO.C,R7*%
X133820126Y-130624600D02*
X134329574Y-130624600D01*
X133820126Y-129579600D02*
X134329574Y-129579600D01*
%TO.C,C4*%
X141020000Y-89524437D02*
X141020000Y-95280000D01*
X141020000Y-95280000D02*
X143370000Y-95280000D01*
X142084437Y-88460000D02*
X143370000Y-88460000D01*
X146277500Y-87432500D02*
X146277500Y-88220000D01*
X146775563Y-88460000D02*
X147840000Y-89524437D01*
X146775563Y-88460000D02*
X145490000Y-88460000D01*
X147840000Y-95280000D02*
X145490000Y-95280000D01*
X147840000Y-89524437D02*
X147840000Y-95280000D01*
X142084437Y-88460000D02*
X141020000Y-89524437D01*
X146671250Y-87826250D02*
X145883750Y-87826250D01*
%TO.C,C5*%
X139830858Y-140156267D02*
X139830858Y-139863733D01*
X140850858Y-140156267D02*
X140850858Y-139863733D01*
D17*
%TO.C,U2*%
X132310000Y-110060000D02*
X131660000Y-110060000D01*
X131660000Y-110060000D02*
X131660000Y-112510000D01*
X131660000Y-128060000D02*
X132310000Y-128060000D01*
X131660000Y-125610000D02*
X131660000Y-128060000D01*
D15*
X149760000Y-109060000D02*
G75*
G03*
X149760000Y-109060000I-100000J0D01*
G01*
D13*
%TO.C,C9*%
X140280000Y-105998767D02*
X140280000Y-105706233D01*
X141300000Y-105998767D02*
X141300000Y-105706233D01*
%TO.C,J1*%
X90870000Y-134630000D02*
X90870000Y-135960000D01*
X90870000Y-137230000D02*
X90870000Y-152530000D01*
X88210000Y-152530000D02*
X90870000Y-152530000D01*
X88210000Y-137230000D02*
X90870000Y-137230000D01*
X88210000Y-137230000D02*
X88210000Y-152530000D01*
X89540000Y-134630000D02*
X90870000Y-134630000D01*
D18*
%TO.C,C12*%
X139895006Y-87320000D02*
X139895006Y-94720000D01*
D13*
%TO.C,R3*%
X98187500Y-168995276D02*
X98187500Y-169504724D01*
X99232500Y-168995276D02*
X99232500Y-169504724D01*
%TO.C,F1*%
X90043748Y-162770000D02*
X92816252Y-162770000D01*
X90043748Y-166190000D02*
X92816252Y-166190000D01*
%TO.C,R6*%
X144590126Y-108184600D02*
X145099574Y-108184600D01*
X144590126Y-107139600D02*
X145099574Y-107139600D01*
D19*
%TO.C,U6*%
X138999975Y-104600513D02*
X138999975Y-105000513D01*
X139200000Y-107420579D02*
X138547142Y-107420579D01*
X138599975Y-104600513D02*
X138999975Y-104600513D01*
X135200000Y-107400538D02*
X135200000Y-106758654D01*
X139199009Y-105042042D02*
X139199009Y-104399421D01*
X135219964Y-107420579D02*
X135200000Y-107400538D01*
X135841885Y-104400538D02*
X135200000Y-104400538D01*
X139200000Y-107420579D02*
X139200000Y-106758654D01*
X135852858Y-107420579D02*
X135219964Y-107420579D01*
X139199009Y-104399421D02*
X138838278Y-104399421D01*
X138837668Y-104400538D02*
X138558115Y-104400538D01*
X135200000Y-105042423D02*
X135200000Y-104400538D01*
D16*
X139229972Y-104400513D02*
G75*
G03*
X139229972Y-104400513I-29997J0D01*
G01*
D13*
%TO.C,U4*%
X105860000Y-154860000D02*
X107120000Y-154860000D01*
X112680000Y-154860000D02*
X111420000Y-154860000D01*
X105860000Y-160870000D02*
X105860000Y-154860000D01*
X112680000Y-158620000D02*
X112680000Y-154860000D01*
%TO.C,C7*%
X113320000Y-159373733D02*
X113320000Y-159666267D01*
X114340000Y-159373733D02*
X114340000Y-159666267D01*
%TO.C,R5*%
X134329574Y-132444600D02*
X133820126Y-132444600D01*
X134329574Y-131399600D02*
X133820126Y-131399600D01*
%TO.C,C1*%
X148701117Y-107152100D02*
X148408583Y-107152100D01*
X148701117Y-108172100D02*
X148408583Y-108172100D01*
%TO.C,R1*%
X160675276Y-93532500D02*
X161184724Y-93532500D01*
X160675276Y-92487500D02*
X161184724Y-92487500D01*
%TO.C,C8*%
X113320000Y-154166267D02*
X113320000Y-153873733D01*
X114340000Y-154166267D02*
X114340000Y-153873733D01*
%TO.C,C2*%
X149090000Y-93632967D02*
X149090000Y-93340433D01*
X150110000Y-93632967D02*
X150110000Y-93340433D01*
%TO.C,R8*%
X160675276Y-90487500D02*
X161184724Y-90487500D01*
X160675276Y-91532500D02*
X161184724Y-91532500D01*
%TO.C,C3*%
X102605563Y-164110000D02*
X101320000Y-164110000D01*
X96850000Y-163045563D02*
X96850000Y-157290000D01*
X103670000Y-157290000D02*
X101320000Y-157290000D01*
X97914437Y-164110000D02*
X99200000Y-164110000D01*
X98412500Y-165137500D02*
X98412500Y-164350000D01*
X97914437Y-164110000D02*
X96850000Y-163045563D01*
X96850000Y-157290000D02*
X99200000Y-157290000D01*
X98018750Y-164743750D02*
X98806250Y-164743750D01*
X102605563Y-164110000D02*
X103670000Y-163045563D01*
X103670000Y-163045563D02*
X103670000Y-157290000D01*
%TD*%
M02*
