%TF.GenerationSoftware,KiCad,Pcbnew,(6.0.4-0)*%
%TF.CreationDate,2022-07-09T22:38:39+02:00*%
%TF.ProjectId,GlowTube,476c6f77-5475-4626-952e-6b696361645f,rev?*%
%TF.SameCoordinates,Original*%
%TF.FileFunction,Profile,NP*%
%FSLAX46Y46*%
G04 Gerber Fmt 4.6, Leading zero omitted, Abs format (unit mm)*
G04 Created by KiCad (PCBNEW (6.0.4-0)) date 2022-07-09 22:38:39*
%MOMM*%
%LPD*%
G01*
G04 APERTURE LIST*
%TA.AperFunction,Profile*%
%ADD10C,0.100000*%
%TD*%
%ADD11C,0.100000*%
G04 APERTURE END LIST*
D10*
X86483479Y-174001421D02*
G75*
G03*
X87183450Y-174701421I700021J21D01*
G01*
X166981778Y-95920473D02*
X166981778Y-82510473D01*
X150300816Y-143986689D02*
G75*
G03*
X150781778Y-142685703I-1518816J1300889D01*
G01*
D11*
X137003343Y-82510473D02*
X137001468Y-82623874D01*
X136999423Y-82737274D01*
X136997207Y-82850670D01*
X136994821Y-82964064D01*
D10*
X86839996Y-155819970D02*
G75*
G03*
X87144887Y-155472920I-45096J347070D01*
G01*
X134427266Y-84920466D02*
G75*
G03*
X132427266Y-86920473I34J-2000034D01*
G01*
X127543813Y-102920500D02*
G75*
G03*
X125732455Y-104072545I-13J-2000000D01*
G01*
X87144887Y-135670995D02*
X87144887Y-155472920D01*
X86788573Y-155826645D02*
G75*
G03*
X86483450Y-156173777I44927J-347155D01*
G01*
X88713309Y-133718110D02*
G75*
G03*
X87144887Y-135670995I431591J-1952890D01*
G01*
D11*
X134995296Y-84920473D02*
X135117134Y-84916758D01*
X135238276Y-84905657D01*
X135358388Y-84887236D01*
X135477139Y-84861561D01*
X135594196Y-84828696D01*
X135709226Y-84788708D01*
X135754597Y-84770733D01*
D10*
X164981778Y-97920478D02*
G75*
G03*
X166981778Y-95920473I-78J2000078D01*
G01*
X100895302Y-174679792D02*
G75*
G03*
X150300808Y-143986682I-23761092J93356922D01*
G01*
X86788576Y-155826666D02*
G75*
G03*
X86840000Y-155820000I-10524676J81392766D01*
G01*
X134995296Y-84920473D02*
X134427266Y-84920473D01*
X86483450Y-156173777D02*
X86483450Y-174001421D01*
X150781778Y-142685703D02*
X150781778Y-99920473D01*
X152781778Y-97920473D02*
X164981778Y-97920473D01*
X88713310Y-133718114D02*
G75*
G03*
X125732455Y-104072545I-11579100J52395244D01*
G01*
D11*
X135754597Y-84770733D02*
X135865903Y-84721040D01*
X135973760Y-84664779D01*
X136077886Y-84602137D01*
X136177998Y-84533300D01*
X136273814Y-84458455D01*
X136365050Y-84377789D01*
X136400200Y-84343935D01*
X136400200Y-84343935D02*
X136484307Y-84255705D01*
X136562729Y-84162708D01*
X136635277Y-84065224D01*
X136701760Y-83963534D01*
X136761987Y-83857916D01*
X136815768Y-83748652D01*
X136835433Y-83703988D01*
D10*
X132427266Y-86920473D02*
X132427266Y-100920473D01*
X166981778Y-82510473D02*
X137003343Y-82510473D01*
X100722645Y-174701432D02*
G75*
G03*
X100895303Y-174679794I-45J700032D01*
G01*
X130427266Y-102920466D02*
G75*
G03*
X132427266Y-100920473I34J1999966D01*
G01*
D11*
X136835433Y-83703988D02*
X136878831Y-83593000D01*
X136915478Y-83479845D01*
X136945306Y-83364832D01*
X136968249Y-83248272D01*
X136984240Y-83130473D01*
X136993212Y-83011745D01*
X136994821Y-82964064D01*
D10*
X130427266Y-102920473D02*
X127543813Y-102920473D01*
X87183450Y-174701421D02*
X100722645Y-174701421D01*
X152781778Y-97920478D02*
G75*
G03*
X150781778Y-99920473I-78J-1999922D01*
G01*
M02*
