%TF.GenerationSoftware,KiCad,Pcbnew,(6.0.4-0)*%
%TF.CreationDate,2022-06-27T19:58:50+02:00*%
%TF.ProjectId,GlowTube,476c6f77-5475-4626-952e-6b696361645f,rev?*%
%TF.SameCoordinates,Original*%
%TF.FileFunction,Soldermask,Top*%
%TF.FilePolarity,Negative*%
%FSLAX46Y46*%
G04 Gerber Fmt 4.6, Leading zero omitted, Abs format (unit mm)*
G04 Created by KiCad (PCBNEW (6.0.4-0)) date 2022-06-27 19:58:50*
%MOMM*%
%LPD*%
G01*
G04 APERTURE LIST*
G04 Aperture macros list*
%AMRoundRect*
0 Rectangle with rounded corners*
0 $1 Rounding radius*
0 $2 $3 $4 $5 $6 $7 $8 $9 X,Y pos of 4 corners*
0 Add a 4 corners polygon primitive as box body*
4,1,4,$2,$3,$4,$5,$6,$7,$8,$9,$2,$3,0*
0 Add four circle primitives for the rounded corners*
1,1,$1+$1,$2,$3*
1,1,$1+$1,$4,$5*
1,1,$1+$1,$6,$7*
1,1,$1+$1,$8,$9*
0 Add four rect primitives between the rounded corners*
20,1,$1+$1,$2,$3,$4,$5,0*
20,1,$1+$1,$4,$5,$6,$7,0*
20,1,$1+$1,$6,$7,$8,$9,0*
20,1,$1+$1,$8,$9,$2,$3,0*%
G04 Aperture macros list end*
%ADD10RoundRect,0.237500X-0.237500X0.250000X-0.237500X-0.250000X0.237500X-0.250000X0.237500X0.250000X0*%
%ADD11R,0.900000X0.280010*%
%ADD12R,0.280010X0.900000*%
%ADD13R,3.300000X3.300000*%
%ADD14R,2.000000X3.500000*%
%ADD15RoundRect,0.237500X-0.300000X-0.237500X0.300000X-0.237500X0.300000X0.237500X-0.300000X0.237500X0*%
%ADD16O,0.750013X0.250013*%
%ADD17RoundRect,0.237500X-0.237500X0.300000X-0.237500X-0.300000X0.237500X-0.300000X0.237500X0.300000X0*%
%ADD18RoundRect,0.237500X0.250000X0.237500X-0.250000X0.237500X-0.250000X-0.237500X0.250000X-0.237500X0*%
%ADD19R,0.600000X0.419990*%
%ADD20RoundRect,0.237500X-0.250000X-0.237500X0.250000X-0.237500X0.250000X0.237500X-0.250000X0.237500X0*%
%ADD21RoundRect,0.250000X-0.550000X1.500000X-0.550000X-1.500000X0.550000X-1.500000X0.550000X1.500000X0*%
%ADD22RoundRect,0.237500X0.237500X-0.300000X0.237500X0.300000X-0.237500X0.300000X-0.237500X-0.300000X0*%
%ADD23R,0.900000X2.000000*%
%ADD24R,2.000000X0.900000*%
%ADD25R,1.330000X1.330000*%
%ADD26R,1.700000X1.700000*%
%ADD27O,1.700000X1.700000*%
%ADD28C,1.600000*%
%ADD29C,2.100000*%
%ADD30RoundRect,0.250000X-0.400000X-1.450000X0.400000X-1.450000X0.400000X1.450000X-0.400000X1.450000X0*%
%ADD31R,1.050013X0.550013*%
%ADD32R,0.450013X1.400000*%
%ADD33R,2.400000X0.450013*%
%ADD34O,1.200000X2.200000*%
%ADD35O,1.200000X1.800000*%
%ADD36R,0.300000X1.300000*%
%ADD37R,0.600000X1.300000*%
%ADD38C,0.700025*%
%ADD39R,0.980010X2.470003*%
%ADD40R,3.600000X2.470003*%
%ADD41RoundRect,0.237500X0.300000X0.237500X-0.300000X0.237500X-0.300000X-0.237500X0.300000X-0.237500X0*%
%ADD42R,1.500000X0.900000*%
%ADD43RoundRect,0.237500X0.237500X-0.250000X0.237500X0.250000X-0.237500X0.250000X-0.237500X-0.250000X0*%
%ADD44RoundRect,0.250000X0.550000X-1.500000X0.550000X1.500000X-0.550000X1.500000X-0.550000X-1.500000X0*%
G04 APERTURE END LIST*
D10*
%TO.C,R2*%
X100890000Y-168337500D03*
X100890000Y-170162500D03*
%TD*%
D11*
%TO.C,U3*%
X142034396Y-135988177D03*
X142034396Y-136488558D03*
X142034396Y-136988939D03*
X142034396Y-137489320D03*
X142034396Y-137989701D03*
X142034396Y-138490082D03*
X142034396Y-138990463D03*
D12*
X143033126Y-139989447D03*
X143533507Y-139989447D03*
X144033888Y-139989447D03*
X144534269Y-139989447D03*
X145034650Y-139989447D03*
X145535031Y-139989447D03*
X146035412Y-139989447D03*
D11*
X147034396Y-138990463D03*
X147034396Y-138490082D03*
X147034396Y-137989701D03*
X147034396Y-137489320D03*
X147034396Y-136988939D03*
X147034396Y-136488558D03*
X147034396Y-135988177D03*
D12*
X146035412Y-134989447D03*
X145535031Y-134989447D03*
X145034650Y-134989447D03*
X144534269Y-134989447D03*
X144033888Y-134989447D03*
X143533507Y-134989447D03*
X143033126Y-134989447D03*
D13*
X144534269Y-137489320D03*
%TD*%
D14*
%TO.C,P2*%
X157680000Y-84210000D03*
%TD*%
D15*
%TO.C,C11*%
X134937350Y-133742100D03*
X133212350Y-133742100D03*
%TD*%
D16*
%TO.C,U1*%
X156830089Y-91768039D03*
X156830089Y-92268166D03*
X156830089Y-92768039D03*
X156830089Y-93268166D03*
X159929911Y-93268166D03*
X159929911Y-92768039D03*
X159929911Y-92268166D03*
X159929911Y-91768039D03*
%TD*%
D17*
%TO.C,C6*%
X138570858Y-139147500D03*
X138570858Y-140872500D03*
%TD*%
D18*
%TO.C,R4*%
X145757350Y-105842100D03*
X143932350Y-105842100D03*
%TD*%
D15*
%TO.C,C10*%
X145707350Y-104032100D03*
X143982350Y-104032100D03*
%TD*%
D19*
%TO.C,U5*%
X145289962Y-131989987D03*
X145289962Y-131340000D03*
X145289962Y-130690013D03*
X143390038Y-130690013D03*
X143390038Y-131340000D03*
X143390038Y-131989987D03*
%TD*%
D20*
%TO.C,R7*%
X133162350Y-130102100D03*
X134987350Y-130102100D03*
%TD*%
D21*
%TO.C,C4*%
X144430000Y-89070000D03*
X144430000Y-94670000D03*
%TD*%
D22*
%TO.C,C5*%
X140340858Y-140872500D03*
X140340858Y-139147500D03*
%TD*%
D14*
%TO.C,P3*%
X165096200Y-84210000D03*
%TD*%
D23*
%TO.C,U2*%
X149653300Y-110575100D03*
X148383300Y-110575100D03*
X147113300Y-110575100D03*
X145843300Y-110575100D03*
X144573300Y-110575100D03*
X143303300Y-110575100D03*
X142033300Y-110575100D03*
X140763300Y-110575100D03*
X139493300Y-110575100D03*
X138223300Y-110575100D03*
X136953300Y-110575100D03*
X135683300Y-110575100D03*
X134413300Y-110575100D03*
X133143300Y-110575100D03*
D24*
X132143300Y-113360100D03*
X132143300Y-114630100D03*
X132143300Y-115900100D03*
X132143300Y-117170100D03*
X132143300Y-118440100D03*
X132143300Y-119710100D03*
X132143300Y-120980100D03*
X132143300Y-122250100D03*
X132143300Y-123520100D03*
X132143300Y-124790100D03*
D23*
X133143300Y-127575100D03*
X134413300Y-127575100D03*
X135683300Y-127575100D03*
X136953300Y-127575100D03*
X138223300Y-127575100D03*
X139493300Y-127575100D03*
X140763300Y-127575100D03*
X142033300Y-127575100D03*
X143303300Y-127575100D03*
X144573300Y-127575100D03*
X145843300Y-127575100D03*
X147113300Y-127575100D03*
X148383300Y-127575100D03*
X149653300Y-127575100D03*
D25*
X142153300Y-119910100D03*
X140318300Y-118075100D03*
X143988300Y-118075100D03*
X142153300Y-116240100D03*
X140318300Y-116240100D03*
X143988300Y-119910100D03*
X142153300Y-118075100D03*
X143988300Y-116240100D03*
X140318300Y-119910100D03*
%TD*%
D22*
%TO.C,C9*%
X140580000Y-106672500D03*
X140580000Y-104947500D03*
%TD*%
D26*
%TO.C,J1*%
X89540000Y-135960000D03*
D27*
X89540000Y-138500000D03*
X89540000Y-141040000D03*
X89540000Y-143580000D03*
X89540000Y-146120000D03*
X89540000Y-148660000D03*
X89540000Y-151200000D03*
%TD*%
D28*
%TO.C,C12*%
X134145044Y-90770064D03*
X134145044Y-95269936D03*
D29*
X136644917Y-89420051D03*
X136644917Y-96619949D03*
%TD*%
D10*
%TO.C,R3*%
X98710000Y-168337500D03*
X98710000Y-170162500D03*
%TD*%
D30*
%TO.C,F1*%
X89205000Y-164480000D03*
X93655000Y-164480000D03*
%TD*%
D20*
%TO.C,R6*%
X143932350Y-107662100D03*
X145757350Y-107662100D03*
%TD*%
D31*
%TO.C,U6*%
X137875083Y-105475545D03*
X136524816Y-105475545D03*
X136524816Y-106325431D03*
X137875083Y-106325431D03*
D32*
X138924867Y-105900488D03*
D33*
X137199949Y-104675443D03*
D32*
X135475032Y-105900488D03*
D33*
X137199949Y-107125532D03*
%TD*%
D34*
%TO.C,USB1*%
X96250041Y-169272408D03*
D35*
X96250041Y-173452494D03*
D34*
X87609959Y-169272408D03*
D35*
X87609959Y-173452494D03*
D36*
X90179936Y-168529964D03*
X91179936Y-168529964D03*
X92680064Y-168529964D03*
X93680064Y-168529964D03*
D37*
X94330051Y-168529964D03*
X95129898Y-168529964D03*
D36*
X93179936Y-168529964D03*
X92179936Y-168529964D03*
X91680064Y-168529964D03*
X90680064Y-168529964D03*
D37*
X89529949Y-168529964D03*
X88730102Y-168529964D03*
D38*
X89039982Y-169772535D03*
X94820018Y-169772535D03*
%TD*%
D39*
%TO.C,U4*%
X106970025Y-159604900D03*
X109270000Y-159604900D03*
X111569975Y-159604900D03*
D40*
X109270000Y-153935100D03*
%TD*%
D17*
%TO.C,C7*%
X113830000Y-158657500D03*
X113830000Y-160382500D03*
%TD*%
D18*
%TO.C,R5*%
X134987350Y-131922100D03*
X133162350Y-131922100D03*
%TD*%
D41*
%TO.C,C1*%
X149417350Y-107662100D03*
X147692350Y-107662100D03*
%TD*%
D17*
%TO.C,C14*%
X162870000Y-91527500D03*
X162870000Y-93252500D03*
%TD*%
D42*
%TO.C,SW1*%
X136730076Y-145149936D03*
X140529924Y-145149936D03*
X140529924Y-146650064D03*
X136730076Y-146650064D03*
%TD*%
%TO.C,SW2*%
X133049924Y-145149936D03*
X129250076Y-145149936D03*
X133049924Y-146650064D03*
X129250076Y-146650064D03*
%TD*%
D43*
%TO.C,R1*%
X154940000Y-92092500D03*
X154940000Y-90267500D03*
%TD*%
D14*
%TO.C,P1*%
X150203800Y-84210000D03*
%TD*%
D22*
%TO.C,C8*%
X113830000Y-154882500D03*
X113830000Y-153157500D03*
%TD*%
D17*
%TO.C,C2*%
X150890000Y-90317500D03*
X150890000Y-92042500D03*
%TD*%
D43*
%TO.C,R8*%
X152915000Y-92092500D03*
X152915000Y-90267500D03*
%TD*%
D44*
%TO.C,C3*%
X100260000Y-163500000D03*
X100260000Y-157900000D03*
%TD*%
D22*
%TO.C,C13*%
X142270000Y-106672500D03*
X142270000Y-104947500D03*
%TD*%
M02*
