%TF.GenerationSoftware,KiCad,Pcbnew,(6.0.4-0)*%
%TF.CreationDate,2022-05-04T17:09:46+02:00*%
%TF.ProjectId,GlowTube,476c6f77-5475-4626-952e-6b696361645f,rev?*%
%TF.SameCoordinates,Original*%
%TF.FileFunction,Legend,Bot*%
%TF.FilePolarity,Positive*%
%FSLAX46Y46*%
G04 Gerber Fmt 4.6, Leading zero omitted, Abs format (unit mm)*
G04 Created by KiCad (PCBNEW (6.0.4-0)) date 2022-05-04 17:09:46*
%MOMM*%
%LPD*%
G01*
G04 APERTURE LIST*
%ADD10C,0.150000*%
%ADD11C,0.400000*%
G04 APERTURE END LIST*
D10*
X126457334Y-129808345D02*
X126266858Y-130341678D01*
X126076381Y-129808345D01*
X125352572Y-130341678D02*
X125809715Y-130341678D01*
X125581143Y-130341678D02*
X125581143Y-129541678D01*
X125657334Y-129655964D01*
X125733524Y-129732154D01*
X125809715Y-129770250D01*
X125009715Y-130265488D02*
X124971620Y-130303583D01*
X125009715Y-130341678D01*
X125047810Y-130303583D01*
X125009715Y-130265488D01*
X125009715Y-130341678D01*
X124476381Y-129541678D02*
X124400191Y-129541678D01*
X124324000Y-129579774D01*
X124285905Y-129617869D01*
X124247810Y-129694059D01*
X124209715Y-129846440D01*
X124209715Y-130036916D01*
X124247810Y-130189297D01*
X124285905Y-130265488D01*
X124324000Y-130303583D01*
X124400191Y-130341678D01*
X124476381Y-130341678D01*
X124552572Y-130303583D01*
X124590667Y-130265488D01*
X124628762Y-130189297D01*
X124666858Y-130036916D01*
X124666858Y-129846440D01*
X124628762Y-129694059D01*
X124590667Y-129617869D01*
X124552572Y-129579774D01*
X124476381Y-129541678D01*
X123257334Y-130341678D02*
X123257334Y-129541678D01*
X123257334Y-129846440D02*
X123181143Y-129808345D01*
X123028762Y-129808345D01*
X122952572Y-129846440D01*
X122914477Y-129884535D01*
X122876381Y-129960726D01*
X122876381Y-130189297D01*
X122914477Y-130265488D01*
X122952572Y-130303583D01*
X123028762Y-130341678D01*
X123181143Y-130341678D01*
X123257334Y-130303583D01*
X122228762Y-130303583D02*
X122304953Y-130341678D01*
X122457334Y-130341678D01*
X122533524Y-130303583D01*
X122571620Y-130227393D01*
X122571620Y-129922631D01*
X122533524Y-129846440D01*
X122457334Y-129808345D01*
X122304953Y-129808345D01*
X122228762Y-129846440D01*
X122190667Y-129922631D01*
X122190667Y-129998821D01*
X122571620Y-130075012D01*
X121962096Y-129808345D02*
X121657334Y-129808345D01*
X121847810Y-129541678D02*
X121847810Y-130227393D01*
X121809715Y-130303583D01*
X121733524Y-130341678D01*
X121657334Y-130341678D01*
X121047810Y-130341678D02*
X121047810Y-129922631D01*
X121085905Y-129846440D01*
X121162096Y-129808345D01*
X121314477Y-129808345D01*
X121390667Y-129846440D01*
X121047810Y-130303583D02*
X121124000Y-130341678D01*
X121314477Y-130341678D01*
X121390667Y-130303583D01*
X121428762Y-130227393D01*
X121428762Y-130151202D01*
X121390667Y-130075012D01*
X121314477Y-130036916D01*
X121124000Y-130036916D01*
X121047810Y-129998821D01*
X120095429Y-129617869D02*
X120057334Y-129579774D01*
X119981143Y-129541678D01*
X119790667Y-129541678D01*
X119714477Y-129579774D01*
X119676381Y-129617869D01*
X119638286Y-129694059D01*
X119638286Y-129770250D01*
X119676381Y-129884535D01*
X120133524Y-130341678D01*
X119638286Y-130341678D01*
X97423214Y-136183904D02*
X97423214Y-135383904D01*
X96889880Y-135383904D02*
X96737500Y-135383904D01*
X96661309Y-135422000D01*
X96585119Y-135498190D01*
X96547023Y-135650571D01*
X96547023Y-135917238D01*
X96585119Y-136069619D01*
X96661309Y-136145809D01*
X96737500Y-136183904D01*
X96889880Y-136183904D01*
X96966071Y-136145809D01*
X97042261Y-136069619D01*
X97080357Y-135917238D01*
X97080357Y-135650571D01*
X97042261Y-135498190D01*
X96966071Y-135422000D01*
X96889880Y-135383904D01*
X95785119Y-136183904D02*
X96242261Y-136183904D01*
X96013690Y-136183904D02*
X96013690Y-135383904D01*
X96089880Y-135498190D01*
X96166071Y-135574380D01*
X96242261Y-135612476D01*
X95480357Y-135460095D02*
X95442261Y-135422000D01*
X95366071Y-135383904D01*
X95175595Y-135383904D01*
X95099404Y-135422000D01*
X95061309Y-135460095D01*
X95023214Y-135536285D01*
X95023214Y-135612476D01*
X95061309Y-135726761D01*
X95518452Y-136183904D01*
X95023214Y-136183904D01*
X94108928Y-135345809D02*
X94794642Y-136374380D01*
X93842261Y-136183904D02*
X93842261Y-135383904D01*
X93575595Y-135955333D01*
X93308928Y-135383904D01*
X93308928Y-136183904D01*
X92927976Y-136183904D02*
X92927976Y-135383904D01*
X92585119Y-136145809D02*
X92470833Y-136183904D01*
X92280357Y-136183904D01*
X92204166Y-136145809D01*
X92166071Y-136107714D01*
X92127976Y-136031523D01*
X92127976Y-135955333D01*
X92166071Y-135879142D01*
X92204166Y-135841047D01*
X92280357Y-135802952D01*
X92432738Y-135764857D01*
X92508928Y-135726761D01*
X92547023Y-135688666D01*
X92585119Y-135612476D01*
X92585119Y-135536285D01*
X92547023Y-135460095D01*
X92508928Y-135422000D01*
X92432738Y-135383904D01*
X92242261Y-135383904D01*
X92127976Y-135422000D01*
X91632738Y-135383904D02*
X91480357Y-135383904D01*
X91404166Y-135422000D01*
X91327976Y-135498190D01*
X91289880Y-135650571D01*
X91289880Y-135917238D01*
X91327976Y-136069619D01*
X91404166Y-136145809D01*
X91480357Y-136183904D01*
X91632738Y-136183904D01*
X91708928Y-136145809D01*
X91785119Y-136069619D01*
X91823214Y-135917238D01*
X91823214Y-135650571D01*
X91785119Y-135498190D01*
X91708928Y-135422000D01*
X91632738Y-135383904D01*
X97423214Y-138759904D02*
X97423214Y-137959904D01*
X96889880Y-137959904D02*
X96737500Y-137959904D01*
X96661309Y-137998000D01*
X96585119Y-138074190D01*
X96547023Y-138226571D01*
X96547023Y-138493238D01*
X96585119Y-138645619D01*
X96661309Y-138721809D01*
X96737500Y-138759904D01*
X96889880Y-138759904D01*
X96966071Y-138721809D01*
X97042261Y-138645619D01*
X97080357Y-138493238D01*
X97080357Y-138226571D01*
X97042261Y-138074190D01*
X96966071Y-137998000D01*
X96889880Y-137959904D01*
X95785119Y-138759904D02*
X96242261Y-138759904D01*
X96013690Y-138759904D02*
X96013690Y-137959904D01*
X96089880Y-138074190D01*
X96166071Y-138150380D01*
X96242261Y-138188476D01*
X95518452Y-137959904D02*
X95023214Y-137959904D01*
X95289880Y-138264666D01*
X95175595Y-138264666D01*
X95099404Y-138302761D01*
X95061309Y-138340857D01*
X95023214Y-138417047D01*
X95023214Y-138607523D01*
X95061309Y-138683714D01*
X95099404Y-138721809D01*
X95175595Y-138759904D01*
X95404166Y-138759904D01*
X95480357Y-138721809D01*
X95518452Y-138683714D01*
X94108928Y-137921809D02*
X94794642Y-138950380D01*
X93842261Y-138759904D02*
X93842261Y-137959904D01*
X93575595Y-138531333D01*
X93308928Y-137959904D01*
X93308928Y-138759904D01*
X92775595Y-137959904D02*
X92623214Y-137959904D01*
X92547023Y-137998000D01*
X92470833Y-138074190D01*
X92432738Y-138226571D01*
X92432738Y-138493238D01*
X92470833Y-138645619D01*
X92547023Y-138721809D01*
X92623214Y-138759904D01*
X92775595Y-138759904D01*
X92851785Y-138721809D01*
X92927976Y-138645619D01*
X92966071Y-138493238D01*
X92966071Y-138226571D01*
X92927976Y-138074190D01*
X92851785Y-137998000D01*
X92775595Y-137959904D01*
X92127976Y-138721809D02*
X92013690Y-138759904D01*
X91823214Y-138759904D01*
X91747023Y-138721809D01*
X91708928Y-138683714D01*
X91670833Y-138607523D01*
X91670833Y-138531333D01*
X91708928Y-138455142D01*
X91747023Y-138417047D01*
X91823214Y-138378952D01*
X91975595Y-138340857D01*
X92051785Y-138302761D01*
X92089880Y-138264666D01*
X92127976Y-138188476D01*
X92127976Y-138112285D01*
X92089880Y-138036095D01*
X92051785Y-137998000D01*
X91975595Y-137959904D01*
X91785119Y-137959904D01*
X91670833Y-137998000D01*
X91327976Y-138759904D02*
X91327976Y-137959904D01*
X95975595Y-141335904D02*
X95975595Y-140535904D01*
X95442261Y-140535904D02*
X95289880Y-140535904D01*
X95213690Y-140574000D01*
X95137500Y-140650190D01*
X95099404Y-140802571D01*
X95099404Y-141069238D01*
X95137500Y-141221619D01*
X95213690Y-141297809D01*
X95289880Y-141335904D01*
X95442261Y-141335904D01*
X95518452Y-141297809D01*
X95594642Y-141221619D01*
X95632738Y-141069238D01*
X95632738Y-140802571D01*
X95594642Y-140650190D01*
X95518452Y-140574000D01*
X95442261Y-140535904D01*
X94794642Y-140612095D02*
X94756547Y-140574000D01*
X94680357Y-140535904D01*
X94489880Y-140535904D01*
X94413690Y-140574000D01*
X94375595Y-140612095D01*
X94337500Y-140688285D01*
X94337500Y-140764476D01*
X94375595Y-140878761D01*
X94832738Y-141335904D01*
X94337500Y-141335904D01*
X93613690Y-140535904D02*
X93994642Y-140535904D01*
X94032738Y-140916857D01*
X93994642Y-140878761D01*
X93918452Y-140840666D01*
X93727976Y-140840666D01*
X93651785Y-140878761D01*
X93613690Y-140916857D01*
X93575595Y-140993047D01*
X93575595Y-141183523D01*
X93613690Y-141259714D01*
X93651785Y-141297809D01*
X93727976Y-141335904D01*
X93918452Y-141335904D01*
X93994642Y-141297809D01*
X94032738Y-141259714D01*
X92661309Y-140497809D02*
X93347023Y-141526380D01*
X92432738Y-141107333D02*
X92051785Y-141107333D01*
X92508928Y-141335904D02*
X92242261Y-140535904D01*
X91975595Y-141335904D01*
X91289880Y-141335904D02*
X91747023Y-141335904D01*
X91518452Y-141335904D02*
X91518452Y-140535904D01*
X91594642Y-140650190D01*
X91670833Y-140726380D01*
X91747023Y-140764476D01*
X95975595Y-143911904D02*
X95975595Y-143111904D01*
X95442261Y-143111904D02*
X95289880Y-143111904D01*
X95213690Y-143150000D01*
X95137500Y-143226190D01*
X95099404Y-143378571D01*
X95099404Y-143645238D01*
X95137500Y-143797619D01*
X95213690Y-143873809D01*
X95289880Y-143911904D01*
X95442261Y-143911904D01*
X95518452Y-143873809D01*
X95594642Y-143797619D01*
X95632738Y-143645238D01*
X95632738Y-143378571D01*
X95594642Y-143226190D01*
X95518452Y-143150000D01*
X95442261Y-143111904D01*
X94794642Y-143188095D02*
X94756547Y-143150000D01*
X94680357Y-143111904D01*
X94489880Y-143111904D01*
X94413690Y-143150000D01*
X94375595Y-143188095D01*
X94337500Y-143264285D01*
X94337500Y-143340476D01*
X94375595Y-143454761D01*
X94832738Y-143911904D01*
X94337500Y-143911904D01*
X93651785Y-143111904D02*
X93804166Y-143111904D01*
X93880357Y-143150000D01*
X93918452Y-143188095D01*
X93994642Y-143302380D01*
X94032738Y-143454761D01*
X94032738Y-143759523D01*
X93994642Y-143835714D01*
X93956547Y-143873809D01*
X93880357Y-143911904D01*
X93727976Y-143911904D01*
X93651785Y-143873809D01*
X93613690Y-143835714D01*
X93575595Y-143759523D01*
X93575595Y-143569047D01*
X93613690Y-143492857D01*
X93651785Y-143454761D01*
X93727976Y-143416666D01*
X93880357Y-143416666D01*
X93956547Y-143454761D01*
X93994642Y-143492857D01*
X94032738Y-143569047D01*
X92661309Y-143073809D02*
X93347023Y-144102380D01*
X92432738Y-143683333D02*
X92051785Y-143683333D01*
X92508928Y-143911904D02*
X92242261Y-143111904D01*
X91975595Y-143911904D01*
X91556547Y-143111904D02*
X91480357Y-143111904D01*
X91404166Y-143150000D01*
X91366071Y-143188095D01*
X91327976Y-143264285D01*
X91289880Y-143416666D01*
X91289880Y-143607142D01*
X91327976Y-143759523D01*
X91366071Y-143835714D01*
X91404166Y-143873809D01*
X91480357Y-143911904D01*
X91556547Y-143911904D01*
X91632738Y-143873809D01*
X91670833Y-143835714D01*
X91708928Y-143759523D01*
X91747023Y-143607142D01*
X91747023Y-143416666D01*
X91708928Y-143264285D01*
X91670833Y-143188095D01*
X91632738Y-143150000D01*
X91556547Y-143111904D01*
X93613690Y-145687904D02*
X93118452Y-145687904D01*
X93385119Y-145992666D01*
X93270833Y-145992666D01*
X93194642Y-146030761D01*
X93156547Y-146068857D01*
X93118452Y-146145047D01*
X93118452Y-146335523D01*
X93156547Y-146411714D01*
X93194642Y-146449809D01*
X93270833Y-146487904D01*
X93499404Y-146487904D01*
X93575595Y-146449809D01*
X93613690Y-146411714D01*
X92775595Y-146411714D02*
X92737500Y-146449809D01*
X92775595Y-146487904D01*
X92813690Y-146449809D01*
X92775595Y-146411714D01*
X92775595Y-146487904D01*
X92470833Y-145687904D02*
X91975595Y-145687904D01*
X92242261Y-145992666D01*
X92127976Y-145992666D01*
X92051785Y-146030761D01*
X92013690Y-146068857D01*
X91975595Y-146145047D01*
X91975595Y-146335523D01*
X92013690Y-146411714D01*
X92051785Y-146449809D01*
X92127976Y-146487904D01*
X92356547Y-146487904D01*
X92432738Y-146449809D01*
X92470833Y-146411714D01*
X91747023Y-145687904D02*
X91480357Y-146487904D01*
X91213690Y-145687904D01*
X92013690Y-148263904D02*
X92394642Y-148263904D01*
X92432738Y-148644857D01*
X92394642Y-148606761D01*
X92318452Y-148568666D01*
X92127976Y-148568666D01*
X92051785Y-148606761D01*
X92013690Y-148644857D01*
X91975595Y-148721047D01*
X91975595Y-148911523D01*
X92013690Y-148987714D01*
X92051785Y-149025809D01*
X92127976Y-149063904D01*
X92318452Y-149063904D01*
X92394642Y-149025809D01*
X92432738Y-148987714D01*
X91747023Y-148263904D02*
X91480357Y-149063904D01*
X91213690Y-148263904D01*
X92966071Y-150878000D02*
X93042261Y-150839904D01*
X93156547Y-150839904D01*
X93270833Y-150878000D01*
X93347023Y-150954190D01*
X93385119Y-151030380D01*
X93423214Y-151182761D01*
X93423214Y-151297047D01*
X93385119Y-151449428D01*
X93347023Y-151525619D01*
X93270833Y-151601809D01*
X93156547Y-151639904D01*
X93080357Y-151639904D01*
X92966071Y-151601809D01*
X92927976Y-151563714D01*
X92927976Y-151297047D01*
X93080357Y-151297047D01*
X92585119Y-151639904D02*
X92585119Y-150839904D01*
X92127976Y-151639904D01*
X92127976Y-150839904D01*
X91747023Y-151639904D02*
X91747023Y-150839904D01*
X91556547Y-150839904D01*
X91442261Y-150878000D01*
X91366071Y-150954190D01*
X91327976Y-151030380D01*
X91289880Y-151182761D01*
X91289880Y-151297047D01*
X91327976Y-151449428D01*
X91366071Y-151525619D01*
X91442261Y-151601809D01*
X91556547Y-151639904D01*
X91747023Y-151639904D01*
X159120000Y-86317380D02*
X159596190Y-86317380D01*
X159596190Y-85317380D01*
X158786666Y-85793571D02*
X158453333Y-85793571D01*
X158310476Y-86317380D02*
X158786666Y-86317380D01*
X158786666Y-85317380D01*
X158310476Y-85317380D01*
X157881904Y-86317380D02*
X157881904Y-85317380D01*
X157643809Y-85317380D01*
X157500952Y-85365000D01*
X157405714Y-85460238D01*
X157358095Y-85555476D01*
X157310476Y-85745952D01*
X157310476Y-85888809D01*
X157358095Y-86079285D01*
X157405714Y-86174523D01*
X157500952Y-86269761D01*
X157643809Y-86317380D01*
X157881904Y-86317380D01*
X156167619Y-85412619D02*
X156120000Y-85365000D01*
X156024761Y-85317380D01*
X155786666Y-85317380D01*
X155691428Y-85365000D01*
X155643809Y-85412619D01*
X155596190Y-85507857D01*
X155596190Y-85603095D01*
X155643809Y-85745952D01*
X156215238Y-86317380D01*
X155596190Y-86317380D01*
X159477142Y-88308333D02*
X159524761Y-88260714D01*
X159620000Y-88117857D01*
X159667619Y-88022619D01*
X159715238Y-87879761D01*
X159762857Y-87641666D01*
X159762857Y-87451190D01*
X159715238Y-87213095D01*
X159667619Y-87070238D01*
X159620000Y-86975000D01*
X159524761Y-86832142D01*
X159477142Y-86784523D01*
X159096190Y-87927380D02*
X159096190Y-86927380D01*
X158429523Y-86927380D02*
X158239047Y-86927380D01*
X158143809Y-86975000D01*
X158048571Y-87070238D01*
X158000952Y-87260714D01*
X158000952Y-87594047D01*
X158048571Y-87784523D01*
X158143809Y-87879761D01*
X158239047Y-87927380D01*
X158429523Y-87927380D01*
X158524761Y-87879761D01*
X158620000Y-87784523D01*
X158667619Y-87594047D01*
X158667619Y-87260714D01*
X158620000Y-87070238D01*
X158524761Y-86975000D01*
X158429523Y-86927380D01*
X157048571Y-87927380D02*
X157620000Y-87927380D01*
X157334285Y-87927380D02*
X157334285Y-86927380D01*
X157429523Y-87070238D01*
X157524761Y-87165476D01*
X157620000Y-87213095D01*
X156715238Y-86927380D02*
X156048571Y-86927380D01*
X156477142Y-87927380D01*
X155762857Y-88308333D02*
X155715238Y-88260714D01*
X155620000Y-88117857D01*
X155572380Y-88022619D01*
X155524761Y-87879761D01*
X155477142Y-87641666D01*
X155477142Y-87451190D01*
X155524761Y-87213095D01*
X155572380Y-87070238D01*
X155620000Y-86975000D01*
X155715238Y-86832142D01*
X155762857Y-86784523D01*
X165881904Y-85365000D02*
X165977142Y-85317380D01*
X166120000Y-85317380D01*
X166262857Y-85365000D01*
X166358095Y-85460238D01*
X166405714Y-85555476D01*
X166453333Y-85745952D01*
X166453333Y-85888809D01*
X166405714Y-86079285D01*
X166358095Y-86174523D01*
X166262857Y-86269761D01*
X166120000Y-86317380D01*
X166024761Y-86317380D01*
X165881904Y-86269761D01*
X165834285Y-86222142D01*
X165834285Y-85888809D01*
X166024761Y-85888809D01*
X165405714Y-86317380D02*
X165405714Y-85317380D01*
X164834285Y-86317380D01*
X164834285Y-85317380D01*
X164358095Y-86317380D02*
X164358095Y-85317380D01*
X164120000Y-85317380D01*
X163977142Y-85365000D01*
X163881904Y-85460238D01*
X163834285Y-85555476D01*
X163786666Y-85745952D01*
X163786666Y-85888809D01*
X163834285Y-86079285D01*
X163881904Y-86174523D01*
X163977142Y-86269761D01*
X164120000Y-86317380D01*
X164358095Y-86317380D01*
X150290476Y-85317380D02*
X150766666Y-85317380D01*
X150814285Y-85793571D01*
X150766666Y-85745952D01*
X150671428Y-85698333D01*
X150433333Y-85698333D01*
X150338095Y-85745952D01*
X150290476Y-85793571D01*
X150242857Y-85888809D01*
X150242857Y-86126904D01*
X150290476Y-86222142D01*
X150338095Y-86269761D01*
X150433333Y-86317380D01*
X150671428Y-86317380D01*
X150766666Y-86269761D01*
X150814285Y-86222142D01*
X149957142Y-85317380D02*
X149623809Y-86317380D01*
X149290476Y-85317380D01*
D11*
X124936158Y-126494574D02*
X125174253Y-126375526D01*
X125531396Y-126375526D01*
X125888539Y-126494574D01*
X126126634Y-126732669D01*
X126245681Y-126970764D01*
X126364729Y-127446954D01*
X126364729Y-127804097D01*
X126245681Y-128280288D01*
X126126634Y-128518383D01*
X125888539Y-128756478D01*
X125531396Y-128875526D01*
X125293300Y-128875526D01*
X124936158Y-128756478D01*
X124817110Y-128637431D01*
X124817110Y-127804097D01*
X125293300Y-127804097D01*
X123388539Y-128875526D02*
X123626634Y-128756478D01*
X123745681Y-128518383D01*
X123745681Y-126375526D01*
X122079015Y-128875526D02*
X122317110Y-128756478D01*
X122436158Y-128637431D01*
X122555205Y-128399335D01*
X122555205Y-127685050D01*
X122436158Y-127446954D01*
X122317110Y-127327907D01*
X122079015Y-127208859D01*
X121721872Y-127208859D01*
X121483777Y-127327907D01*
X121364729Y-127446954D01*
X121245681Y-127685050D01*
X121245681Y-128399335D01*
X121364729Y-128637431D01*
X121483777Y-128756478D01*
X121721872Y-128875526D01*
X122079015Y-128875526D01*
X120412348Y-127208859D02*
X119936158Y-128875526D01*
X119459967Y-127685050D01*
X118983777Y-128875526D01*
X118507586Y-127208859D01*
X117912348Y-126375526D02*
X116483777Y-126375526D01*
X117198062Y-128875526D02*
X117198062Y-126375526D01*
X114579015Y-127208859D02*
X114579015Y-128875526D01*
X115650443Y-127208859D02*
X115650443Y-128518383D01*
X115531396Y-128756478D01*
X115293300Y-128875526D01*
X114936158Y-128875526D01*
X114698062Y-128756478D01*
X114579015Y-128637431D01*
X113388539Y-128875526D02*
X113388539Y-126375526D01*
X113388539Y-127327907D02*
X113150443Y-127208859D01*
X112674253Y-127208859D01*
X112436158Y-127327907D01*
X112317110Y-127446954D01*
X112198062Y-127685050D01*
X112198062Y-128399335D01*
X112317110Y-128637431D01*
X112436158Y-128756478D01*
X112674253Y-128875526D01*
X113150443Y-128875526D01*
X113388539Y-128756478D01*
X110174253Y-128756478D02*
X110412348Y-128875526D01*
X110888539Y-128875526D01*
X111126634Y-128756478D01*
X111245681Y-128518383D01*
X111245681Y-127566002D01*
X111126634Y-127327907D01*
X110888539Y-127208859D01*
X110412348Y-127208859D01*
X110174253Y-127327907D01*
X110055205Y-127566002D01*
X110055205Y-127804097D01*
X111245681Y-128042193D01*
D10*
X126012886Y-132983278D02*
X126012886Y-132183278D01*
X126012886Y-132945183D02*
X126089077Y-132983278D01*
X126241458Y-132983278D01*
X126317648Y-132945183D01*
X126355743Y-132907088D01*
X126393839Y-132830897D01*
X126393839Y-132602326D01*
X126355743Y-132526135D01*
X126317648Y-132488040D01*
X126241458Y-132449945D01*
X126089077Y-132449945D01*
X126012886Y-132488040D01*
X125327172Y-132945183D02*
X125403362Y-132983278D01*
X125555743Y-132983278D01*
X125631934Y-132945183D01*
X125670029Y-132868993D01*
X125670029Y-132564231D01*
X125631934Y-132488040D01*
X125555743Y-132449945D01*
X125403362Y-132449945D01*
X125327172Y-132488040D01*
X125289077Y-132564231D01*
X125289077Y-132640421D01*
X125670029Y-132716612D01*
X124984315Y-132945183D02*
X124908124Y-132983278D01*
X124755743Y-132983278D01*
X124679553Y-132945183D01*
X124641458Y-132868993D01*
X124641458Y-132830897D01*
X124679553Y-132754707D01*
X124755743Y-132716612D01*
X124870029Y-132716612D01*
X124946220Y-132678516D01*
X124984315Y-132602326D01*
X124984315Y-132564231D01*
X124946220Y-132488040D01*
X124870029Y-132449945D01*
X124755743Y-132449945D01*
X124679553Y-132488040D01*
X124298600Y-132983278D02*
X124298600Y-132449945D01*
X124298600Y-132183278D02*
X124336696Y-132221374D01*
X124298600Y-132259469D01*
X124260505Y-132221374D01*
X124298600Y-132183278D01*
X124298600Y-132259469D01*
X123574791Y-132449945D02*
X123574791Y-133097564D01*
X123612886Y-133173754D01*
X123650981Y-133211850D01*
X123727172Y-133249945D01*
X123841458Y-133249945D01*
X123917648Y-133211850D01*
X123574791Y-132945183D02*
X123650981Y-132983278D01*
X123803362Y-132983278D01*
X123879553Y-132945183D01*
X123917648Y-132907088D01*
X123955743Y-132830897D01*
X123955743Y-132602326D01*
X123917648Y-132526135D01*
X123879553Y-132488040D01*
X123803362Y-132449945D01*
X123650981Y-132449945D01*
X123574791Y-132488040D01*
X123193839Y-132449945D02*
X123193839Y-132983278D01*
X123193839Y-132526135D02*
X123155743Y-132488040D01*
X123079553Y-132449945D01*
X122965267Y-132449945D01*
X122889077Y-132488040D01*
X122850981Y-132564231D01*
X122850981Y-132983278D01*
X122165267Y-132945183D02*
X122241458Y-132983278D01*
X122393839Y-132983278D01*
X122470029Y-132945183D01*
X122508124Y-132868993D01*
X122508124Y-132564231D01*
X122470029Y-132488040D01*
X122393839Y-132449945D01*
X122241458Y-132449945D01*
X122165267Y-132488040D01*
X122127172Y-132564231D01*
X122127172Y-132640421D01*
X122508124Y-132716612D01*
X121441458Y-132983278D02*
X121441458Y-132183278D01*
X121441458Y-132945183D02*
X121517648Y-132983278D01*
X121670029Y-132983278D01*
X121746220Y-132945183D01*
X121784315Y-132907088D01*
X121822410Y-132830897D01*
X121822410Y-132602326D01*
X121784315Y-132526135D01*
X121746220Y-132488040D01*
X121670029Y-132449945D01*
X121517648Y-132449945D01*
X121441458Y-132488040D01*
X120450981Y-132983278D02*
X120450981Y-132183278D01*
X120450981Y-132488040D02*
X120374791Y-132449945D01*
X120222410Y-132449945D01*
X120146220Y-132488040D01*
X120108124Y-132526135D01*
X120070029Y-132602326D01*
X120070029Y-132830897D01*
X120108124Y-132907088D01*
X120146220Y-132945183D01*
X120222410Y-132983278D01*
X120374791Y-132983278D01*
X120450981Y-132945183D01*
X119803362Y-132449945D02*
X119612886Y-132983278D01*
X119422410Y-132449945D02*
X119612886Y-132983278D01*
X119689077Y-133173754D01*
X119727172Y-133211850D01*
X119803362Y-133249945D01*
X125488950Y-160098496D02*
X125488950Y-159298496D01*
X125184188Y-159298496D01*
X125107998Y-159336592D01*
X125069903Y-159374687D01*
X125031807Y-159450877D01*
X125031807Y-159565163D01*
X125069903Y-159641353D01*
X125107998Y-159679449D01*
X125184188Y-159717544D01*
X125488950Y-159717544D01*
X124231807Y-160022306D02*
X124269903Y-160060401D01*
X124384188Y-160098496D01*
X124460379Y-160098496D01*
X124574665Y-160060401D01*
X124650855Y-159984211D01*
X124688950Y-159908020D01*
X124727046Y-159755639D01*
X124727046Y-159641353D01*
X124688950Y-159488972D01*
X124650855Y-159412782D01*
X124574665Y-159336592D01*
X124460379Y-159298496D01*
X124384188Y-159298496D01*
X124269903Y-159336592D01*
X124231807Y-159374687D01*
X123622284Y-159679449D02*
X123507998Y-159717544D01*
X123469903Y-159755639D01*
X123431807Y-159831830D01*
X123431807Y-159946115D01*
X123469903Y-160022306D01*
X123507998Y-160060401D01*
X123584188Y-160098496D01*
X123888950Y-160098496D01*
X123888950Y-159298496D01*
X123622284Y-159298496D01*
X123546093Y-159336592D01*
X123507998Y-159374687D01*
X123469903Y-159450877D01*
X123469903Y-159527068D01*
X123507998Y-159603258D01*
X123546093Y-159641353D01*
X123622284Y-159679449D01*
X123888950Y-159679449D01*
X122593712Y-159565163D02*
X122288950Y-159565163D01*
X122479427Y-160098496D02*
X122479427Y-159412782D01*
X122441331Y-159336592D01*
X122365141Y-159298496D01*
X122288950Y-159298496D01*
X122022284Y-160098496D02*
X122022284Y-159565163D01*
X122022284Y-159298496D02*
X122060379Y-159336592D01*
X122022284Y-159374687D01*
X121984188Y-159336592D01*
X122022284Y-159298496D01*
X122022284Y-159374687D01*
X121527046Y-160098496D02*
X121603236Y-160060401D01*
X121641331Y-159984211D01*
X121641331Y-159298496D01*
X120917522Y-160060401D02*
X120993712Y-160098496D01*
X121146093Y-160098496D01*
X121222284Y-160060401D01*
X121260379Y-159984211D01*
X121260379Y-159679449D01*
X121222284Y-159603258D01*
X121146093Y-159565163D01*
X120993712Y-159565163D01*
X120917522Y-159603258D01*
X120879426Y-159679449D01*
X120879426Y-159755639D01*
X121260379Y-159831830D01*
X120574665Y-160060401D02*
X120498474Y-160098496D01*
X120346093Y-160098496D01*
X120269903Y-160060401D01*
X120231807Y-159984211D01*
X120231807Y-159946115D01*
X120269903Y-159869925D01*
X120346093Y-159831830D01*
X120460379Y-159831830D01*
X120536569Y-159793734D01*
X120574665Y-159717544D01*
X120574665Y-159679449D01*
X120536569Y-159603258D01*
X120460379Y-159565163D01*
X120346093Y-159565163D01*
X120269903Y-159603258D01*
X119888950Y-160022306D02*
X119850855Y-160060401D01*
X119888950Y-160098496D01*
X119927046Y-160060401D01*
X119888950Y-160022306D01*
X119888950Y-160098496D01*
X119888950Y-159603258D02*
X119850855Y-159641353D01*
X119888950Y-159679449D01*
X119927046Y-159641353D01*
X119888950Y-159603258D01*
X119888950Y-159679449D01*
X125488950Y-161386496D02*
X125488950Y-160586496D01*
X125146093Y-161386496D02*
X125146093Y-160967449D01*
X125184188Y-160891258D01*
X125260379Y-160853163D01*
X125374665Y-160853163D01*
X125450855Y-160891258D01*
X125488950Y-160929353D01*
X124879427Y-160853163D02*
X124574665Y-160853163D01*
X124765141Y-160586496D02*
X124765141Y-161272211D01*
X124727046Y-161348401D01*
X124650855Y-161386496D01*
X124574665Y-161386496D01*
X124422284Y-160853163D02*
X124117522Y-160853163D01*
X124307998Y-160586496D02*
X124307998Y-161272211D01*
X124269903Y-161348401D01*
X124193712Y-161386496D01*
X124117522Y-161386496D01*
X123850855Y-160853163D02*
X123850855Y-161653163D01*
X123850855Y-160891258D02*
X123774665Y-160853163D01*
X123622284Y-160853163D01*
X123546093Y-160891258D01*
X123507998Y-160929353D01*
X123469903Y-161005544D01*
X123469903Y-161234115D01*
X123507998Y-161310306D01*
X123546093Y-161348401D01*
X123622284Y-161386496D01*
X123774665Y-161386496D01*
X123850855Y-161348401D01*
X123165141Y-161348401D02*
X123088950Y-161386496D01*
X122936569Y-161386496D01*
X122860379Y-161348401D01*
X122822284Y-161272211D01*
X122822284Y-161234115D01*
X122860379Y-161157925D01*
X122936569Y-161119830D01*
X123050855Y-161119830D01*
X123127046Y-161081734D01*
X123165141Y-161005544D01*
X123165141Y-160967449D01*
X123127046Y-160891258D01*
X123050855Y-160853163D01*
X122936569Y-160853163D01*
X122860379Y-160891258D01*
X122479427Y-161310306D02*
X122441331Y-161348401D01*
X122479427Y-161386496D01*
X122517522Y-161348401D01*
X122479427Y-161310306D01*
X122479427Y-161386496D01*
X122479427Y-160891258D02*
X122441331Y-160929353D01*
X122479427Y-160967449D01*
X122517522Y-160929353D01*
X122479427Y-160891258D01*
X122479427Y-160967449D01*
X121527046Y-160548401D02*
X122212760Y-161576972D01*
X120688950Y-160548401D02*
X121374665Y-161576972D01*
X120422284Y-161386496D02*
X120422284Y-160586496D01*
X120422284Y-160891258D02*
X120346093Y-160853163D01*
X120193712Y-160853163D01*
X120117522Y-160891258D01*
X120079427Y-160929353D01*
X120041331Y-161005544D01*
X120041331Y-161234115D01*
X120079427Y-161310306D01*
X120117522Y-161348401D01*
X120193712Y-161386496D01*
X120346093Y-161386496D01*
X120422284Y-161348401D01*
X119698474Y-161386496D02*
X119698474Y-160853163D01*
X119698474Y-160586496D02*
X119736569Y-160624592D01*
X119698474Y-160662687D01*
X119660379Y-160624592D01*
X119698474Y-160586496D01*
X119698474Y-160662687D01*
X119431807Y-160853163D02*
X119127046Y-160853163D01*
X119317522Y-160586496D02*
X119317522Y-161272211D01*
X119279427Y-161348401D01*
X119203236Y-161386496D01*
X119127046Y-161386496D01*
X118860379Y-161310306D02*
X118822284Y-161348401D01*
X118860379Y-161386496D01*
X118898474Y-161348401D01*
X118860379Y-161310306D01*
X118860379Y-161386496D01*
X118365141Y-161386496D02*
X118441331Y-161348401D01*
X118479427Y-161272211D01*
X118479427Y-160586496D01*
X118136569Y-160853163D02*
X117946093Y-161386496D01*
X117755617Y-160853163D02*
X117946093Y-161386496D01*
X118022284Y-161576972D01*
X118060379Y-161615068D01*
X118136569Y-161653163D01*
X116879427Y-160548401D02*
X117565141Y-161576972D01*
X116688950Y-160586496D02*
X116193712Y-160586496D01*
X116460379Y-160891258D01*
X116346093Y-160891258D01*
X116269903Y-160929353D01*
X116231807Y-160967449D01*
X116193712Y-161043639D01*
X116193712Y-161234115D01*
X116231807Y-161310306D01*
X116269903Y-161348401D01*
X116346093Y-161386496D01*
X116574665Y-161386496D01*
X116650855Y-161348401D01*
X116688950Y-161310306D01*
X115888950Y-161348401D02*
X115812760Y-161386496D01*
X115660379Y-161386496D01*
X115584188Y-161348401D01*
X115546093Y-161272211D01*
X115546093Y-161234115D01*
X115584188Y-161157925D01*
X115660379Y-161119830D01*
X115774665Y-161119830D01*
X115850855Y-161081734D01*
X115888950Y-161005544D01*
X115888950Y-160967449D01*
X115850855Y-160891258D01*
X115774665Y-160853163D01*
X115660379Y-160853163D01*
X115584188Y-160891258D01*
X115203236Y-161386496D02*
X115203236Y-160853163D01*
X115203236Y-161005544D02*
X115165141Y-160929353D01*
X115127046Y-160891258D01*
X115050855Y-160853163D01*
X114974665Y-160853163D01*
X114822284Y-160586496D02*
X114555617Y-161386496D01*
X114288950Y-160586496D01*
X114022284Y-161386496D02*
X114022284Y-160586496D01*
X113831807Y-160586496D01*
X113717522Y-160624592D01*
X113641331Y-160700782D01*
X113603236Y-160776972D01*
X113565141Y-160929353D01*
X113565141Y-161043639D01*
X113603236Y-161196020D01*
X113641331Y-161272211D01*
X113717522Y-161348401D01*
X113831807Y-161386496D01*
X114022284Y-161386496D01*
X112841331Y-160586496D02*
X113222284Y-160586496D01*
X113260379Y-160967449D01*
X113222284Y-160929353D01*
X113146093Y-160891258D01*
X112955617Y-160891258D01*
X112879427Y-160929353D01*
X112841331Y-160967449D01*
X112803236Y-161043639D01*
X112803236Y-161234115D01*
X112841331Y-161310306D01*
X112879427Y-161348401D01*
X112955617Y-161386496D01*
X113146093Y-161386496D01*
X113222284Y-161348401D01*
X113260379Y-161310306D01*
X112422284Y-161386496D02*
X112269903Y-161386496D01*
X112193712Y-161348401D01*
X112155617Y-161310306D01*
X112079427Y-161196020D01*
X112041331Y-161043639D01*
X112041331Y-160738877D01*
X112079427Y-160662687D01*
X112117522Y-160624592D01*
X112193712Y-160586496D01*
X112346093Y-160586496D01*
X112422284Y-160624592D01*
X112460379Y-160662687D01*
X112498474Y-160738877D01*
X112498474Y-160929353D01*
X112460379Y-161005544D01*
X112422284Y-161043639D01*
X112346093Y-161081734D01*
X112193712Y-161081734D01*
X112117522Y-161043639D01*
X112079427Y-161005544D01*
X112041331Y-160929353D01*
%TO.C,G\u002A\u002A\u002A*%
G36*
X116719320Y-135777850D02*
G01*
X116751821Y-135796919D01*
X116770311Y-135828443D01*
X116771527Y-135865041D01*
X116752207Y-135899331D01*
X116746875Y-135904204D01*
X116711853Y-135919987D01*
X116675721Y-135916065D01*
X116644961Y-135896272D01*
X116626055Y-135864439D01*
X116625484Y-135824401D01*
X116626875Y-135819072D01*
X116638542Y-135791975D01*
X116659318Y-135779256D01*
X116697396Y-135775321D01*
X116719320Y-135777850D01*
G37*
G36*
X120931912Y-134990075D02*
G01*
X120954764Y-135012021D01*
X120968114Y-135053724D01*
X120968102Y-135088643D01*
X120947986Y-135126374D01*
X120921093Y-135150544D01*
X120882831Y-135162476D01*
X120844814Y-135156393D01*
X120812052Y-135135753D01*
X120789554Y-135104014D01*
X120782331Y-135064633D01*
X120795393Y-135021068D01*
X120808548Y-135002960D01*
X120832339Y-134989848D01*
X120872369Y-134984228D01*
X120893536Y-134983515D01*
X120931912Y-134990075D01*
G37*
G36*
X120927504Y-134458170D02*
G01*
X120960640Y-134481457D01*
X120977765Y-134517406D01*
X120979834Y-134531292D01*
X120976022Y-134580784D01*
X120956508Y-134621486D01*
X120924431Y-134645841D01*
X120907007Y-134652074D01*
X120881845Y-134658118D01*
X120859279Y-134654972D01*
X120826213Y-134642144D01*
X120812666Y-134635888D01*
X120786445Y-134614089D01*
X120774010Y-134578998D01*
X120773814Y-134577934D01*
X120774438Y-134523770D01*
X120794580Y-134481200D01*
X120829780Y-134453736D01*
X120875574Y-134444888D01*
X120927504Y-134458170D01*
G37*
G36*
X125349331Y-134188127D02*
G01*
X125388679Y-134203885D01*
X125411703Y-134230712D01*
X125424171Y-134273092D01*
X125422076Y-134319378D01*
X125405994Y-134360848D01*
X125376498Y-134388781D01*
X125347734Y-134396996D01*
X125302651Y-134397683D01*
X125258683Y-134388868D01*
X125227659Y-134371893D01*
X125224751Y-134368650D01*
X125210375Y-134335022D01*
X125206864Y-134290539D01*
X125213963Y-134245978D01*
X125231418Y-134212118D01*
X125258469Y-134194628D01*
X125302345Y-134185229D01*
X125349331Y-134188127D01*
G37*
G36*
X125584585Y-134185298D02*
G01*
X125632857Y-134194674D01*
X125664038Y-134220313D01*
X125682765Y-134265622D01*
X125685361Y-134285857D01*
X125678728Y-134329319D01*
X125659602Y-134367748D01*
X125632088Y-134390993D01*
X125583182Y-134402369D01*
X125533630Y-134395962D01*
X125494536Y-134371508D01*
X125471483Y-134331090D01*
X125468817Y-134320521D01*
X125465128Y-134263813D01*
X125482069Y-134221203D01*
X125518455Y-134194390D01*
X125573104Y-134185074D01*
X125584585Y-134185298D01*
G37*
G36*
X126133556Y-136981023D02*
G01*
X126168555Y-137007214D01*
X126188101Y-137045927D01*
X126189434Y-137091232D01*
X126169796Y-137137198D01*
X126162960Y-137145733D01*
X126137560Y-137161356D01*
X126096933Y-137165752D01*
X126076692Y-137164846D01*
X126031574Y-137151626D01*
X126005481Y-137121696D01*
X125997080Y-137073826D01*
X125997664Y-137060057D01*
X126012106Y-137012933D01*
X126044615Y-136983315D01*
X126093438Y-136973036D01*
X126133556Y-136981023D01*
G37*
G36*
X123155785Y-135912210D02*
G01*
X123190698Y-135927077D01*
X123214459Y-135940323D01*
X123238953Y-135964751D01*
X123252293Y-136001365D01*
X123256415Y-136031543D01*
X123248654Y-136083920D01*
X123222539Y-136124893D01*
X123180648Y-136149140D01*
X123151280Y-136157341D01*
X123126615Y-136161251D01*
X123105115Y-136157408D01*
X123074692Y-136145382D01*
X123051846Y-136132139D01*
X123022205Y-136094474D01*
X123011167Y-136044106D01*
X123020359Y-135985805D01*
X123029980Y-135962062D01*
X123051074Y-135937821D01*
X123088170Y-135920653D01*
X123094221Y-135918584D01*
X123128442Y-135909681D01*
X123155785Y-135912210D01*
G37*
G36*
X124420023Y-134467496D02*
G01*
X124437178Y-134483137D01*
X124451647Y-134510030D01*
X124455350Y-134550176D01*
X124451571Y-134586988D01*
X124431246Y-134626276D01*
X124391111Y-134651803D01*
X124387883Y-134652951D01*
X124347789Y-134655438D01*
X124304722Y-134643404D01*
X124272270Y-134620435D01*
X124256662Y-134589763D01*
X124249786Y-134551235D01*
X124249802Y-134549270D01*
X124261391Y-134501619D01*
X124290330Y-134466605D01*
X124330496Y-134447238D01*
X124375768Y-134446531D01*
X124420023Y-134467496D01*
G37*
G36*
X122422547Y-134731832D02*
G01*
X122424185Y-134733040D01*
X122443935Y-134762334D01*
X122451798Y-134803670D01*
X122447268Y-134846695D01*
X122429838Y-134881053D01*
X122405521Y-134896888D01*
X122359176Y-134904548D01*
X122345407Y-134903964D01*
X122298282Y-134889522D01*
X122268665Y-134857013D01*
X122258385Y-134808190D01*
X122266373Y-134768072D01*
X122292564Y-134733073D01*
X122331277Y-134713527D01*
X122376581Y-134712194D01*
X122422547Y-134731832D01*
G37*
G36*
X126388009Y-134988081D02*
G01*
X126414660Y-134999110D01*
X126432252Y-135021068D01*
X126442913Y-135053832D01*
X126438389Y-135100634D01*
X126413695Y-135141333D01*
X126398919Y-135151820D01*
X126360103Y-135161094D01*
X126318460Y-135155358D01*
X126285576Y-135135168D01*
X126275854Y-135121064D01*
X126263597Y-135080303D01*
X126264535Y-135036362D01*
X126279248Y-135001488D01*
X126284169Y-134996476D01*
X126310731Y-134985238D01*
X126355276Y-134984228D01*
X126388009Y-134988081D01*
G37*
G36*
X125349949Y-134986955D02*
G01*
X125382588Y-135002897D01*
X125394928Y-135018910D01*
X125405476Y-135058071D01*
X125400569Y-135100675D01*
X125380388Y-135135807D01*
X125344005Y-135156760D01*
X125298584Y-135159204D01*
X125254769Y-135141503D01*
X125235026Y-135115297D01*
X125225880Y-135075477D01*
X125229454Y-135033995D01*
X125246404Y-135001824D01*
X125267633Y-134989269D01*
X125307671Y-134982381D01*
X125349949Y-134986955D01*
G37*
G36*
X126158965Y-134194907D02*
G01*
X126167626Y-134201669D01*
X126192230Y-134238601D01*
X126201425Y-134285317D01*
X126194591Y-134332779D01*
X126171109Y-134371950D01*
X126160426Y-134381270D01*
X126115214Y-134401202D01*
X126065167Y-134399814D01*
X126018084Y-134376858D01*
X126017345Y-134376268D01*
X125992397Y-134341303D01*
X125982518Y-134295397D01*
X125988197Y-134248553D01*
X126009928Y-134210769D01*
X126010423Y-134210284D01*
X126040720Y-134194191D01*
X126083498Y-134185421D01*
X126126874Y-134185238D01*
X126158965Y-134194907D01*
G37*
G36*
X117245832Y-134187094D02*
G01*
X117290507Y-134203328D01*
X117316458Y-134236743D01*
X117324849Y-134288440D01*
X117324840Y-134290634D01*
X117317446Y-134336574D01*
X117293314Y-134371950D01*
X117271919Y-134389065D01*
X117227407Y-134404678D01*
X117182954Y-134399898D01*
X117144210Y-134377249D01*
X117116822Y-134339255D01*
X117106438Y-134288440D01*
X117108572Y-134259866D01*
X117125723Y-134217579D01*
X117161026Y-134193017D01*
X117215643Y-134185074D01*
X117245832Y-134187094D01*
G37*
G36*
X123417384Y-134983371D02*
G01*
X123454271Y-134995156D01*
X123473434Y-135021136D01*
X123478921Y-135064868D01*
X123477974Y-135089413D01*
X123469799Y-135120844D01*
X123450367Y-135141503D01*
X123421256Y-135155935D01*
X123377484Y-135159774D01*
X123338219Y-135145559D01*
X123309921Y-135116156D01*
X123299053Y-135074427D01*
X123299126Y-135069820D01*
X123310661Y-135022860D01*
X123339929Y-134992449D01*
X123384136Y-134981634D01*
X123417384Y-134983371D01*
G37*
G36*
X121447689Y-134457399D02*
G01*
X121481080Y-134484448D01*
X121493639Y-134509161D01*
X121499977Y-134554118D01*
X121490486Y-134597918D01*
X121467363Y-134632955D01*
X121432804Y-134651621D01*
X121378913Y-134654140D01*
X121334045Y-134637520D01*
X121305127Y-134602944D01*
X121295001Y-134552456D01*
X121295526Y-134530995D01*
X121301869Y-134494252D01*
X121319118Y-134471608D01*
X121351900Y-134455150D01*
X121352661Y-134454864D01*
X121401935Y-134446869D01*
X121447689Y-134457399D01*
G37*
G36*
X116962230Y-135238593D02*
G01*
X116999698Y-135249914D01*
X117026447Y-135278248D01*
X117039888Y-135316339D01*
X117037436Y-135356930D01*
X117016503Y-135392762D01*
X116990484Y-135410880D01*
X116947921Y-135416699D01*
X116903732Y-135398458D01*
X116898762Y-135394706D01*
X116880454Y-135369032D01*
X116875178Y-135328524D01*
X116875208Y-135325694D01*
X116886527Y-135279334D01*
X116916283Y-135249283D01*
X116961547Y-135238589D01*
X116962230Y-135238593D01*
G37*
G36*
X122908257Y-136449329D02*
G01*
X122947607Y-136465089D01*
X122950843Y-136467519D01*
X122973924Y-136499944D01*
X122983240Y-136543117D01*
X122979380Y-136588596D01*
X122962935Y-136627936D01*
X122934495Y-136652694D01*
X122904105Y-136659524D01*
X122859591Y-136658830D01*
X122816957Y-136649952D01*
X122787838Y-136634347D01*
X122783601Y-136629334D01*
X122770279Y-136595033D01*
X122767074Y-136550377D01*
X122773820Y-136506199D01*
X122790346Y-136473328D01*
X122817395Y-136455835D01*
X122861270Y-136446432D01*
X122908257Y-136449329D01*
G37*
G36*
X121922977Y-134185298D02*
G01*
X121971248Y-134194674D01*
X122002429Y-134220313D01*
X122021156Y-134265622D01*
X122023753Y-134285857D01*
X122017119Y-134329319D01*
X121997993Y-134367748D01*
X121970479Y-134390993D01*
X121921574Y-134402369D01*
X121872022Y-134395962D01*
X121832928Y-134371508D01*
X121809875Y-134331090D01*
X121807208Y-134320521D01*
X121803519Y-134263813D01*
X121820460Y-134221203D01*
X121856847Y-134194390D01*
X121911496Y-134185074D01*
X121922977Y-134185298D01*
G37*
G36*
X117006667Y-134193641D02*
G01*
X117041266Y-134218926D01*
X117049847Y-134231300D01*
X117066767Y-134279993D01*
X117062188Y-134329476D01*
X117036359Y-134371950D01*
X117025676Y-134381270D01*
X116980464Y-134401202D01*
X116930417Y-134399814D01*
X116883335Y-134376858D01*
X116882595Y-134376268D01*
X116857647Y-134341303D01*
X116847768Y-134295397D01*
X116853448Y-134248553D01*
X116875178Y-134210769D01*
X116875864Y-134210093D01*
X116913965Y-134188733D01*
X116960899Y-134183413D01*
X117006667Y-134193641D01*
G37*
G36*
X122903266Y-135246138D02*
G01*
X122932040Y-135268689D01*
X122936059Y-135272829D01*
X122960675Y-135311376D01*
X122959806Y-135348808D01*
X122933476Y-135386923D01*
X122917646Y-135400456D01*
X122876521Y-135417796D01*
X122837955Y-135412561D01*
X122807412Y-135386492D01*
X122790357Y-135341329D01*
X122790195Y-135340277D01*
X122792006Y-135293187D01*
X122814453Y-135261315D01*
X122858166Y-135243751D01*
X122874049Y-135241425D01*
X122903266Y-135246138D01*
G37*
G36*
X120220595Y-134191056D02*
G01*
X120254136Y-134210769D01*
X120254813Y-134211455D01*
X120276172Y-134249556D01*
X120281493Y-134296491D01*
X120271265Y-134342258D01*
X120245980Y-134376858D01*
X120207949Y-134398036D01*
X120159898Y-134404030D01*
X120116432Y-134389396D01*
X120083190Y-134356323D01*
X120065811Y-134306996D01*
X120065281Y-134267073D01*
X120082009Y-134222687D01*
X120117942Y-134194769D01*
X120171558Y-134185074D01*
X120220595Y-134191056D01*
G37*
G36*
X119981475Y-134731832D02*
G01*
X119983112Y-134733040D01*
X120002863Y-134762334D01*
X120010726Y-134803670D01*
X120006196Y-134846695D01*
X119988766Y-134881053D01*
X119964448Y-134896888D01*
X119918103Y-134904548D01*
X119904334Y-134903964D01*
X119857210Y-134889522D01*
X119827592Y-134857013D01*
X119817313Y-134808190D01*
X119825300Y-134768072D01*
X119851491Y-134733073D01*
X119890204Y-134713527D01*
X119935509Y-134712194D01*
X119981475Y-134731832D01*
G37*
G36*
X116740429Y-135249431D02*
G01*
X116768738Y-135277415D01*
X116783165Y-135315396D01*
X116781004Y-135356227D01*
X116759548Y-135392762D01*
X116743157Y-135405645D01*
X116703944Y-135416941D01*
X116664506Y-135407981D01*
X116631383Y-135381143D01*
X116611117Y-135338806D01*
X116612468Y-135309422D01*
X116631571Y-135275086D01*
X116663384Y-135248968D01*
X116701149Y-135238589D01*
X116740429Y-135249431D01*
G37*
G36*
X121189163Y-135258590D02*
G01*
X121194134Y-135262342D01*
X121212442Y-135288015D01*
X121217717Y-135328524D01*
X121217563Y-135337324D01*
X121210214Y-135374487D01*
X121189163Y-135398458D01*
X121170253Y-135409046D01*
X121127303Y-135416317D01*
X121088902Y-135403221D01*
X121061287Y-135372906D01*
X121050697Y-135328524D01*
X121052901Y-135307272D01*
X121071824Y-135268750D01*
X121105000Y-135245696D01*
X121146192Y-135241259D01*
X121189163Y-135258590D01*
G37*
G36*
X116747003Y-134191734D02*
G01*
X116776676Y-134208401D01*
X116794176Y-134235015D01*
X116806177Y-134280198D01*
X116803321Y-134326355D01*
X116786480Y-134365630D01*
X116756523Y-134390168D01*
X116705759Y-134402030D01*
X116655958Y-134395987D01*
X116616919Y-134372129D01*
X116594043Y-134332375D01*
X116587265Y-134285073D01*
X116596283Y-134237309D01*
X116622650Y-134203975D01*
X116659276Y-134189224D01*
X116704303Y-134185239D01*
X116747003Y-134191734D01*
G37*
G36*
X125605104Y-135242302D02*
G01*
X125637396Y-135263144D01*
X125656528Y-135302433D01*
X125660269Y-135340723D01*
X125649018Y-135381293D01*
X125620153Y-135405628D01*
X125596217Y-135413669D01*
X125557704Y-135414909D01*
X125523684Y-135395974D01*
X125516303Y-135389257D01*
X125491110Y-135350451D01*
X125490051Y-135309730D01*
X125513475Y-135271355D01*
X125524942Y-135261155D01*
X125565628Y-135241207D01*
X125605104Y-135242302D01*
G37*
G36*
X119965641Y-133658537D02*
G01*
X120004039Y-133680332D01*
X120027771Y-133716075D01*
X120035316Y-133769001D01*
X120034437Y-133786566D01*
X120020360Y-133836138D01*
X119992488Y-133874035D01*
X119955170Y-133893504D01*
X119936484Y-133896213D01*
X119879467Y-133891321D01*
X119833489Y-133867433D01*
X119802792Y-133827622D01*
X119791617Y-133774962D01*
X119796578Y-133738230D01*
X119820701Y-133692432D01*
X119860315Y-133661612D01*
X119910327Y-133649177D01*
X119965641Y-133658537D01*
G37*
G36*
X120204144Y-138037457D02*
G01*
X120229678Y-138048345D01*
X120237419Y-138061360D01*
X120243447Y-138095209D01*
X120240544Y-138132707D01*
X120228810Y-138161007D01*
X120221000Y-138168123D01*
X120188525Y-138179358D01*
X120150841Y-138176810D01*
X120120152Y-138160535D01*
X120113035Y-138151581D01*
X120101436Y-138117029D01*
X120103722Y-138079661D01*
X120119919Y-138051678D01*
X120132960Y-138044103D01*
X120167662Y-138036172D01*
X120204144Y-138037457D01*
G37*
G36*
X125344338Y-135246138D02*
G01*
X125373112Y-135268689D01*
X125377131Y-135272829D01*
X125401747Y-135311376D01*
X125400879Y-135348808D01*
X125374548Y-135386923D01*
X125358719Y-135400456D01*
X125317593Y-135417796D01*
X125279027Y-135412561D01*
X125248485Y-135386492D01*
X125231429Y-135341329D01*
X125231267Y-135340277D01*
X125233079Y-135293187D01*
X125255525Y-135261315D01*
X125299238Y-135243751D01*
X125315122Y-135241425D01*
X125344338Y-135246138D01*
G37*
G36*
X122408253Y-134456991D02*
G01*
X122429197Y-134471535D01*
X122452000Y-134506788D01*
X122460125Y-134549514D01*
X122453901Y-134592357D01*
X122433653Y-134627964D01*
X122399710Y-134648981D01*
X122385126Y-134653001D01*
X122360797Y-134658083D01*
X122341282Y-134656069D01*
X122312350Y-134646565D01*
X122310948Y-134646063D01*
X122275247Y-134621414D01*
X122255571Y-134584252D01*
X122251412Y-134541452D01*
X122262265Y-134499891D01*
X122287623Y-134466446D01*
X122326979Y-134447993D01*
X122358944Y-134445681D01*
X122408253Y-134456991D01*
G37*
G36*
X116473378Y-135245313D02*
G01*
X116505431Y-135267822D01*
X116523128Y-135311612D01*
X116525453Y-135327496D01*
X116520740Y-135356713D01*
X116498189Y-135385487D01*
X116466318Y-135409143D01*
X116425666Y-135419029D01*
X116390140Y-135407799D01*
X116364980Y-135377486D01*
X116355428Y-135330123D01*
X116355907Y-135311678D01*
X116363844Y-135275060D01*
X116385653Y-135254517D01*
X116426616Y-135243630D01*
X116473378Y-135245313D01*
G37*
G36*
X116998002Y-135784652D02*
G01*
X117022948Y-135811300D01*
X117029798Y-135849713D01*
X117016051Y-135894669D01*
X117000196Y-135909389D01*
X116967420Y-135919082D01*
X116931319Y-135917643D01*
X116903443Y-135904103D01*
X116894171Y-135888388D01*
X116888523Y-135853354D01*
X116893059Y-135816619D01*
X116907337Y-135791010D01*
X116925822Y-135781230D01*
X116958688Y-135774983D01*
X116998002Y-135784652D01*
G37*
G36*
X121688340Y-137248159D02*
G01*
X121720980Y-137264101D01*
X121733319Y-137280114D01*
X121743867Y-137319275D01*
X121738961Y-137361879D01*
X121718780Y-137397011D01*
X121682397Y-137417964D01*
X121636976Y-137420408D01*
X121593161Y-137402707D01*
X121573418Y-137376501D01*
X121564272Y-137336681D01*
X121567846Y-137295199D01*
X121584796Y-137263028D01*
X121606024Y-137250473D01*
X121646063Y-137243585D01*
X121688340Y-137248159D01*
G37*
G36*
X118974358Y-134982582D02*
G01*
X119005788Y-134990756D01*
X119026448Y-135010189D01*
X119043845Y-135052235D01*
X119042165Y-135097769D01*
X119020752Y-135135807D01*
X118984086Y-135158308D01*
X118942947Y-135161531D01*
X118905085Y-135147199D01*
X118877347Y-135117949D01*
X118866579Y-135076419D01*
X118868316Y-135043171D01*
X118880100Y-135006284D01*
X118906081Y-134987122D01*
X118949813Y-134981634D01*
X118974358Y-134982582D01*
G37*
G36*
X126117028Y-135778335D02*
G01*
X126144790Y-135791010D01*
X126155105Y-135805622D01*
X126163140Y-135839886D01*
X126161146Y-135876988D01*
X126148683Y-135904103D01*
X126126705Y-135914819D01*
X126093438Y-135919520D01*
X126053896Y-135912957D01*
X126030133Y-135889938D01*
X126022775Y-135847861D01*
X126028560Y-135813371D01*
X126052347Y-135784782D01*
X126093438Y-135774983D01*
X126117028Y-135778335D01*
G37*
G36*
X126361759Y-134712297D02*
G01*
X126407441Y-134726951D01*
X126436540Y-134760435D01*
X126446751Y-134810390D01*
X126446679Y-134814350D01*
X126439912Y-134852526D01*
X126425488Y-134881053D01*
X126401170Y-134896888D01*
X126354826Y-134904548D01*
X126341057Y-134903964D01*
X126293932Y-134889522D01*
X126264315Y-134857013D01*
X126254035Y-134808190D01*
X126258874Y-134774581D01*
X126279730Y-134737527D01*
X126304639Y-134721087D01*
X126350393Y-134711832D01*
X126361759Y-134712297D01*
G37*
G36*
X124366428Y-134982055D02*
G01*
X124409703Y-134993942D01*
X124434555Y-135023330D01*
X124442502Y-135071758D01*
X124442364Y-135080059D01*
X124435053Y-135117416D01*
X124413948Y-135141503D01*
X124385013Y-135156130D01*
X124340695Y-135160303D01*
X124301427Y-135145279D01*
X124273357Y-135113991D01*
X124262634Y-135069368D01*
X124262739Y-135063805D01*
X124274550Y-135018820D01*
X124305196Y-134991097D01*
X124353642Y-134981634D01*
X124366428Y-134982055D01*
G37*
G36*
X125893698Y-136990429D02*
G01*
X125922067Y-137023364D01*
X125932841Y-137069394D01*
X125928002Y-137103003D01*
X125907146Y-137140056D01*
X125887269Y-137153745D01*
X125844654Y-137164868D01*
X125799518Y-137161903D01*
X125763620Y-137144489D01*
X125758927Y-137139629D01*
X125742662Y-137105168D01*
X125739098Y-137062289D01*
X125747887Y-137021432D01*
X125768679Y-136993036D01*
X125807898Y-136974876D01*
X125853665Y-136973347D01*
X125893698Y-136990429D01*
G37*
G36*
X120179407Y-137500399D02*
G01*
X120217950Y-137515430D01*
X120244844Y-137545459D01*
X120257428Y-137583540D01*
X120253044Y-137622726D01*
X120229032Y-137656071D01*
X120204794Y-137670739D01*
X120162883Y-137677438D01*
X120125044Y-137664180D01*
X120097661Y-137633948D01*
X120087115Y-137589727D01*
X120087538Y-137581407D01*
X120101807Y-137541075D01*
X120131314Y-137511366D01*
X120169202Y-137499793D01*
X120179407Y-137500399D01*
G37*
G36*
X126378003Y-136709588D02*
G01*
X126420590Y-136729767D01*
X126447936Y-136765109D01*
X126456580Y-136811176D01*
X126443058Y-136863530D01*
X126420769Y-136895735D01*
X126392824Y-136912489D01*
X126372986Y-136916340D01*
X126355522Y-136919895D01*
X126355054Y-136919969D01*
X126337531Y-136916837D01*
X126308000Y-136907769D01*
X126306598Y-136907267D01*
X126270897Y-136882618D01*
X126251221Y-136845455D01*
X126247062Y-136802655D01*
X126257915Y-136761095D01*
X126283273Y-136727650D01*
X126322629Y-136709197D01*
X126323640Y-136709011D01*
X126378003Y-136709588D01*
G37*
G36*
X116475106Y-134189457D02*
G01*
X116510884Y-134203885D01*
X116515374Y-134207351D01*
X116537737Y-134240149D01*
X116546572Y-134283258D01*
X116542466Y-134328315D01*
X116526004Y-134366961D01*
X116497773Y-134390833D01*
X116453535Y-134402365D01*
X116402270Y-134398405D01*
X116361460Y-134374994D01*
X116335902Y-134333822D01*
X116329692Y-134309504D01*
X116331709Y-134255119D01*
X116358355Y-134207558D01*
X116359373Y-134206452D01*
X116388753Y-134190995D01*
X116430863Y-134185245D01*
X116475106Y-134189457D01*
G37*
G36*
X120931912Y-137251279D02*
G01*
X120954764Y-137273225D01*
X120968114Y-137314928D01*
X120968102Y-137349847D01*
X120947986Y-137387578D01*
X120921093Y-137411747D01*
X120882831Y-137423680D01*
X120844814Y-137417597D01*
X120812052Y-137396957D01*
X120789554Y-137365218D01*
X120782331Y-137325837D01*
X120795393Y-137282272D01*
X120808548Y-137264163D01*
X120832339Y-137251052D01*
X120872369Y-137245431D01*
X120893536Y-137244719D01*
X120931912Y-137251279D01*
G37*
G36*
X126361759Y-136973500D02*
G01*
X126407441Y-136988155D01*
X126436540Y-137021638D01*
X126446751Y-137071594D01*
X126446679Y-137075554D01*
X126439912Y-137113730D01*
X126425488Y-137142257D01*
X126401170Y-137158092D01*
X126354826Y-137165752D01*
X126341057Y-137165168D01*
X126293932Y-137150725D01*
X126264315Y-137118217D01*
X126254035Y-137069394D01*
X126258874Y-137035785D01*
X126279730Y-136998731D01*
X126304639Y-136982291D01*
X126350393Y-136973036D01*
X126361759Y-136973500D01*
G37*
G36*
X121699713Y-136717473D02*
G01*
X121732999Y-136740279D01*
X121749962Y-136770940D01*
X121756612Y-136815777D01*
X121747551Y-136859335D01*
X121724644Y-136894167D01*
X121689759Y-136912825D01*
X121667017Y-136915451D01*
X121615528Y-136908701D01*
X121574242Y-136886533D01*
X121572493Y-136884866D01*
X121555580Y-136852504D01*
X121551140Y-136809449D01*
X121558874Y-136766491D01*
X121578480Y-136734423D01*
X121609979Y-136716406D01*
X121655305Y-136709386D01*
X121699713Y-136717473D01*
G37*
G36*
X124376321Y-133651006D02*
G01*
X124411234Y-133665873D01*
X124434995Y-133679119D01*
X124459489Y-133703547D01*
X124472829Y-133740161D01*
X124476951Y-133770339D01*
X124469191Y-133822716D01*
X124443075Y-133863689D01*
X124401184Y-133887936D01*
X124371816Y-133896137D01*
X124347151Y-133900047D01*
X124325651Y-133896204D01*
X124295228Y-133884178D01*
X124272382Y-133870935D01*
X124242741Y-133833270D01*
X124231704Y-133782902D01*
X124240895Y-133724601D01*
X124250516Y-133700858D01*
X124271610Y-133676618D01*
X124308706Y-133659449D01*
X124314757Y-133657380D01*
X124348979Y-133648477D01*
X124376321Y-133651006D01*
G37*
G36*
X117239233Y-135778335D02*
G01*
X117266995Y-135791010D01*
X117277311Y-135805622D01*
X117285345Y-135839886D01*
X117283352Y-135876988D01*
X117270889Y-135904103D01*
X117248911Y-135914819D01*
X117215643Y-135919520D01*
X117176102Y-135912957D01*
X117152338Y-135889938D01*
X117144981Y-135847861D01*
X117150766Y-135813371D01*
X117174552Y-135784782D01*
X117215643Y-135774983D01*
X117239233Y-135778335D01*
G37*
G36*
X118738862Y-134189039D02*
G01*
X118776645Y-134210769D01*
X118777322Y-134211455D01*
X118798681Y-134249556D01*
X118804001Y-134296491D01*
X118793773Y-134342258D01*
X118768488Y-134376858D01*
X118759464Y-134383421D01*
X118713116Y-134402453D01*
X118668525Y-134400707D01*
X118629652Y-134382143D01*
X118600458Y-134350722D01*
X118584904Y-134310406D01*
X118586950Y-134265153D01*
X118610557Y-134218926D01*
X118611147Y-134218187D01*
X118646112Y-134193239D01*
X118692017Y-134183359D01*
X118738862Y-134189039D01*
G37*
G36*
X121687721Y-136449329D02*
G01*
X121727070Y-136465089D01*
X121730307Y-136467519D01*
X121753388Y-136499944D01*
X121762703Y-136543117D01*
X121758844Y-136588596D01*
X121742399Y-136627936D01*
X121713959Y-136652694D01*
X121683569Y-136659524D01*
X121639054Y-136658830D01*
X121596421Y-136649952D01*
X121567302Y-136634347D01*
X121563065Y-136629334D01*
X121549742Y-136595033D01*
X121546538Y-136550377D01*
X121553284Y-136506199D01*
X121569810Y-136473328D01*
X121596859Y-136455835D01*
X121640734Y-136446432D01*
X121687721Y-136449329D01*
G37*
G36*
X119456976Y-136990429D02*
G01*
X119485345Y-137023364D01*
X119496119Y-137069394D01*
X119491280Y-137103003D01*
X119470423Y-137140056D01*
X119450546Y-137153745D01*
X119407931Y-137164868D01*
X119362796Y-137161903D01*
X119326898Y-137144489D01*
X119322204Y-137139629D01*
X119305940Y-137105168D01*
X119302376Y-137062289D01*
X119311165Y-137021432D01*
X119331957Y-136993036D01*
X119371176Y-136974876D01*
X119416943Y-136973347D01*
X119456976Y-136990429D01*
G37*
G36*
X122666654Y-135258590D02*
G01*
X122671625Y-135262342D01*
X122689933Y-135288015D01*
X122695208Y-135328524D01*
X122695054Y-135337324D01*
X122687705Y-135374487D01*
X122666654Y-135398458D01*
X122647744Y-135409046D01*
X122604794Y-135416317D01*
X122566393Y-135403221D01*
X122538779Y-135372906D01*
X122528188Y-135328524D01*
X122530392Y-135307272D01*
X122549315Y-135268750D01*
X122582492Y-135245696D01*
X122623684Y-135241259D01*
X122666654Y-135258590D01*
G37*
G36*
X120907441Y-136448298D02*
G01*
X120952116Y-136464532D01*
X120978067Y-136497947D01*
X120986458Y-136549644D01*
X120986448Y-136551838D01*
X120979054Y-136597778D01*
X120954922Y-136633154D01*
X120933528Y-136650269D01*
X120889015Y-136665882D01*
X120844563Y-136661102D01*
X120805819Y-136638453D01*
X120778431Y-136600459D01*
X120768046Y-136549644D01*
X120770180Y-136521070D01*
X120787332Y-136478783D01*
X120822634Y-136454220D01*
X120877252Y-136446278D01*
X120907441Y-136448298D01*
G37*
G36*
X117504032Y-134983150D02*
G01*
X117531386Y-134992379D01*
X117550829Y-135013697D01*
X117562175Y-135041780D01*
X117564440Y-135083595D01*
X117554292Y-135122448D01*
X117533109Y-135147915D01*
X117509144Y-135158206D01*
X117463971Y-135160687D01*
X117423780Y-135144194D01*
X117394973Y-135112156D01*
X117383949Y-135068001D01*
X117384851Y-135048024D01*
X117396919Y-135009121D01*
X117425542Y-134988001D01*
X117473875Y-134981634D01*
X117504032Y-134983150D01*
G37*
G36*
X124392443Y-136978357D02*
G01*
X124428722Y-137006888D01*
X124429186Y-137007482D01*
X124447681Y-137038420D01*
X124455350Y-137065547D01*
X124450004Y-137094497D01*
X124433253Y-137130958D01*
X124411672Y-137155919D01*
X124391158Y-137162337D01*
X124354981Y-137165070D01*
X124317736Y-137162834D01*
X124292345Y-137155658D01*
X124283744Y-137147902D01*
X124266407Y-137117004D01*
X124256289Y-137078546D01*
X124257402Y-137045213D01*
X124274395Y-137011363D01*
X124308525Y-136982106D01*
X124350126Y-136970600D01*
X124392443Y-136978357D01*
G37*
G36*
X116490590Y-135521692D02*
G01*
X116493006Y-135523182D01*
X116508837Y-135546929D01*
X116515835Y-135582833D01*
X116513173Y-135619903D01*
X116500024Y-135647148D01*
X116498336Y-135648624D01*
X116473559Y-135658517D01*
X116438355Y-135662565D01*
X116431954Y-135662482D01*
X116390400Y-135654595D01*
X116367980Y-135631589D01*
X116361268Y-135590251D01*
X116361467Y-135583502D01*
X116374315Y-135541320D01*
X116403547Y-135515141D01*
X116444019Y-135507689D01*
X116490590Y-135521692D01*
G37*
G36*
X124376321Y-135912210D02*
G01*
X124411234Y-135927077D01*
X124434995Y-135940323D01*
X124459489Y-135964751D01*
X124472829Y-136001365D01*
X124476951Y-136031543D01*
X124469191Y-136083920D01*
X124443075Y-136124893D01*
X124401184Y-136149140D01*
X124371816Y-136157341D01*
X124347151Y-136161251D01*
X124325651Y-136157408D01*
X124295228Y-136145382D01*
X124272382Y-136132139D01*
X124242741Y-136094474D01*
X124231704Y-136044106D01*
X124240895Y-135985805D01*
X124250516Y-135962062D01*
X124271610Y-135937821D01*
X124308706Y-135920653D01*
X124314757Y-135918584D01*
X124348979Y-135909681D01*
X124376321Y-135912210D01*
G37*
G36*
X122400470Y-136450243D02*
G01*
X122438253Y-136471973D01*
X122438930Y-136472659D01*
X122460290Y-136510760D01*
X122465610Y-136557695D01*
X122455382Y-136603462D01*
X122430097Y-136638062D01*
X122419251Y-136645733D01*
X122372473Y-136663199D01*
X122325803Y-136660569D01*
X122285151Y-136640412D01*
X122256426Y-136605300D01*
X122245537Y-136557800D01*
X122252133Y-136520012D01*
X122272165Y-136480130D01*
X122272755Y-136479390D01*
X122307720Y-136454443D01*
X122353626Y-136444563D01*
X122400470Y-136450243D01*
G37*
G36*
X122908257Y-134188125D02*
G01*
X122947607Y-134203885D01*
X122950843Y-134206315D01*
X122973924Y-134238740D01*
X122983240Y-134281913D01*
X122979380Y-134327392D01*
X122962935Y-134366732D01*
X122934495Y-134391490D01*
X122904105Y-134398320D01*
X122859591Y-134397626D01*
X122816957Y-134388749D01*
X122787838Y-134373144D01*
X122783601Y-134368131D01*
X122770279Y-134333829D01*
X122767074Y-134289173D01*
X122773820Y-134244995D01*
X122790346Y-134212124D01*
X122817395Y-134194631D01*
X122861270Y-134185229D01*
X122908257Y-134188125D01*
G37*
G36*
X125344331Y-135513736D02*
G01*
X125373046Y-135528581D01*
X125387816Y-135553646D01*
X125392234Y-135595332D01*
X125379936Y-135637714D01*
X125378446Y-135640130D01*
X125354699Y-135655961D01*
X125318795Y-135662959D01*
X125281724Y-135660297D01*
X125254480Y-135647148D01*
X125243596Y-135623695D01*
X125239524Y-135586613D01*
X125243152Y-135549172D01*
X125254480Y-135523809D01*
X125270080Y-135514559D01*
X125305854Y-135508895D01*
X125344331Y-135513736D01*
G37*
G36*
X125879593Y-135254784D02*
G01*
X125906541Y-135281288D01*
X125920683Y-135316342D01*
X125917957Y-135355111D01*
X125894298Y-135392762D01*
X125868279Y-135410880D01*
X125825716Y-135416699D01*
X125781527Y-135398458D01*
X125758949Y-135368709D01*
X125751415Y-135328535D01*
X125758941Y-135288358D01*
X125781527Y-135258590D01*
X125803536Y-135246770D01*
X125843904Y-135241667D01*
X125879593Y-135254784D01*
G37*
G36*
X119968627Y-135258590D02*
G01*
X119973597Y-135262342D01*
X119991905Y-135288015D01*
X119997181Y-135328524D01*
X119997026Y-135337324D01*
X119989678Y-135374487D01*
X119968627Y-135398458D01*
X119949717Y-135409046D01*
X119906767Y-135416317D01*
X119868366Y-135403221D01*
X119840751Y-135372906D01*
X119830160Y-135328524D01*
X119832365Y-135307272D01*
X119851288Y-135268750D01*
X119884464Y-135245696D01*
X119925656Y-135241259D01*
X119968627Y-135258590D01*
G37*
G36*
X116472154Y-134986955D02*
G01*
X116504794Y-135002897D01*
X116517133Y-135018910D01*
X116527681Y-135058071D01*
X116522774Y-135100675D01*
X116502593Y-135135807D01*
X116466211Y-135156760D01*
X116420790Y-135159204D01*
X116376975Y-135141503D01*
X116357231Y-135115297D01*
X116348086Y-135075477D01*
X116351660Y-135033995D01*
X116368610Y-135001824D01*
X116389838Y-134989269D01*
X116429877Y-134982381D01*
X116472154Y-134986955D01*
G37*
G36*
X119421659Y-137243826D02*
G01*
X119459863Y-137255160D01*
X119479983Y-137282192D01*
X119485841Y-137328697D01*
X119479781Y-137369324D01*
X119457437Y-137399707D01*
X119437754Y-137412637D01*
X119395867Y-137423209D01*
X119357234Y-137414508D01*
X119326261Y-137390755D01*
X119307360Y-137356171D01*
X119304937Y-137314977D01*
X119323403Y-137271392D01*
X119332734Y-137260288D01*
X119358030Y-137246614D01*
X119398916Y-137242838D01*
X119421659Y-137243826D01*
G37*
G36*
X116453677Y-134449841D02*
G01*
X116501696Y-134464158D01*
X116531134Y-134495782D01*
X116541137Y-134543943D01*
X116532598Y-134594327D01*
X116508892Y-134632340D01*
X116473573Y-134651621D01*
X116421236Y-134653209D01*
X116376314Y-134635449D01*
X116346425Y-134600487D01*
X116335573Y-134551235D01*
X116336334Y-134536034D01*
X116351910Y-134489232D01*
X116385869Y-134459468D01*
X116435957Y-134449037D01*
X116453677Y-134449841D01*
G37*
G36*
X121922977Y-136446502D02*
G01*
X121971248Y-136455878D01*
X122002429Y-136481517D01*
X122021156Y-136526826D01*
X122023753Y-136547061D01*
X122017119Y-136590523D01*
X121997993Y-136628952D01*
X121970479Y-136652197D01*
X121921574Y-136663573D01*
X121872022Y-136657165D01*
X121832928Y-136632712D01*
X121809875Y-136592294D01*
X121807208Y-136581725D01*
X121803519Y-136525017D01*
X121820460Y-136482407D01*
X121856847Y-136455593D01*
X121911496Y-136446278D01*
X121922977Y-136446502D01*
G37*
G36*
X125640559Y-136728700D02*
G01*
X125657714Y-136744341D01*
X125672183Y-136771234D01*
X125675886Y-136811380D01*
X125672107Y-136848192D01*
X125651782Y-136887480D01*
X125611647Y-136913007D01*
X125608419Y-136914155D01*
X125568325Y-136916642D01*
X125525259Y-136904608D01*
X125492806Y-136881639D01*
X125477198Y-136850967D01*
X125470322Y-136812439D01*
X125470338Y-136810474D01*
X125481927Y-136762823D01*
X125510866Y-136727808D01*
X125551033Y-136708442D01*
X125596305Y-136707735D01*
X125640559Y-136728700D01*
G37*
G36*
X124123802Y-135246138D02*
G01*
X124152576Y-135268689D01*
X124156595Y-135272829D01*
X124181211Y-135311376D01*
X124180343Y-135348808D01*
X124154012Y-135386923D01*
X124138183Y-135400456D01*
X124097057Y-135417796D01*
X124058491Y-135412561D01*
X124027948Y-135386492D01*
X124010893Y-135341329D01*
X124010731Y-135340277D01*
X124012543Y-135293187D01*
X124034989Y-135261315D01*
X124078702Y-135243751D01*
X124094585Y-135241425D01*
X124123802Y-135246138D01*
G37*
G36*
X126397153Y-136184668D02*
G01*
X126435486Y-136209043D01*
X126460449Y-136249713D01*
X126467864Y-136282338D01*
X126462681Y-136336591D01*
X126433577Y-136382366D01*
X126410839Y-136396543D01*
X126367635Y-136406876D01*
X126320051Y-136406550D01*
X126279322Y-136394668D01*
X126279120Y-136394559D01*
X126257256Y-136370498D01*
X126241621Y-136331422D01*
X126235009Y-136287696D01*
X126240218Y-136249686D01*
X126266894Y-136209332D01*
X126306360Y-136184812D01*
X126351946Y-136176591D01*
X126397153Y-136184668D01*
G37*
G36*
X123140127Y-135238620D02*
G01*
X123178505Y-135250041D01*
X123205304Y-135277399D01*
X123219218Y-135313860D01*
X123218939Y-135352592D01*
X123203160Y-135386763D01*
X123170575Y-135409542D01*
X123149789Y-135414709D01*
X123104969Y-135409708D01*
X123069232Y-135383396D01*
X123047839Y-135338806D01*
X123049190Y-135309422D01*
X123068293Y-135275086D01*
X123100107Y-135248968D01*
X123137872Y-135238589D01*
X123140127Y-135238620D01*
G37*
G36*
X121399944Y-137500399D02*
G01*
X121438486Y-137515430D01*
X121465380Y-137545459D01*
X121477964Y-137583540D01*
X121473580Y-137622726D01*
X121449568Y-137656071D01*
X121425331Y-137670739D01*
X121383419Y-137677438D01*
X121345580Y-137664180D01*
X121318197Y-137633948D01*
X121307652Y-137589727D01*
X121308074Y-137581407D01*
X121322343Y-137541075D01*
X121351851Y-137511366D01*
X121389739Y-137499793D01*
X121399944Y-137500399D01*
G37*
G36*
X123143513Y-136446502D02*
G01*
X123191785Y-136455878D01*
X123222965Y-136481517D01*
X123241692Y-136526826D01*
X123244289Y-136547061D01*
X123237655Y-136590523D01*
X123218530Y-136628952D01*
X123191015Y-136652197D01*
X123142110Y-136663573D01*
X123092558Y-136657165D01*
X123053464Y-136632712D01*
X123030411Y-136592294D01*
X123027744Y-136581725D01*
X123024056Y-136525017D01*
X123040996Y-136482407D01*
X123077383Y-136455593D01*
X123132032Y-136446278D01*
X123143513Y-136446502D01*
G37*
G36*
X124392443Y-134717153D02*
G01*
X124428722Y-134745684D01*
X124429186Y-134746278D01*
X124447681Y-134777216D01*
X124455350Y-134804343D01*
X124450004Y-134833293D01*
X124433253Y-134869755D01*
X124411672Y-134894715D01*
X124391158Y-134901133D01*
X124354981Y-134903866D01*
X124317736Y-134901631D01*
X124292345Y-134894454D01*
X124283744Y-134886698D01*
X124266407Y-134855800D01*
X124256289Y-134817342D01*
X124257402Y-134784009D01*
X124274395Y-134750160D01*
X124308525Y-134720902D01*
X124350126Y-134709396D01*
X124392443Y-134717153D01*
G37*
G36*
X122386176Y-137244354D02*
G01*
X122413531Y-137253583D01*
X122432974Y-137274901D01*
X122444319Y-137302984D01*
X122446584Y-137344799D01*
X122436437Y-137383652D01*
X122415253Y-137409119D01*
X122391289Y-137419410D01*
X122346115Y-137421891D01*
X122305925Y-137405398D01*
X122277118Y-137373360D01*
X122266094Y-137329205D01*
X122266995Y-137309228D01*
X122279063Y-137270325D01*
X122307687Y-137249205D01*
X122356020Y-137242838D01*
X122386176Y-137244354D01*
G37*
G36*
X125586964Y-137243259D02*
G01*
X125630239Y-137255146D01*
X125655091Y-137284534D01*
X125663038Y-137332962D01*
X125662900Y-137341263D01*
X125655589Y-137378620D01*
X125634484Y-137402707D01*
X125605550Y-137417333D01*
X125561231Y-137421506D01*
X125521963Y-137406483D01*
X125493893Y-137375195D01*
X125483170Y-137330572D01*
X125483275Y-137325009D01*
X125495086Y-137280024D01*
X125525732Y-137252301D01*
X125574178Y-137242838D01*
X125586964Y-137243259D01*
G37*
G36*
X125605974Y-135780180D02*
G01*
X125632834Y-135797912D01*
X125645866Y-135824329D01*
X125647841Y-135865042D01*
X125630001Y-135899331D01*
X125625526Y-135903500D01*
X125591092Y-135920158D01*
X125555876Y-135917212D01*
X125525142Y-135899150D01*
X125504155Y-135870460D01*
X125498178Y-135835628D01*
X125512475Y-135799143D01*
X125532510Y-135783683D01*
X125568658Y-135775477D01*
X125605974Y-135780180D01*
G37*
G36*
X119001686Y-134456269D02*
G01*
X119034972Y-134479076D01*
X119051935Y-134509737D01*
X119058585Y-134554573D01*
X119049523Y-134598131D01*
X119026617Y-134632963D01*
X118991732Y-134651621D01*
X118968990Y-134654247D01*
X118917500Y-134647497D01*
X118876215Y-134625329D01*
X118874466Y-134623662D01*
X118857552Y-134591301D01*
X118853113Y-134548245D01*
X118860846Y-134505287D01*
X118880453Y-134473220D01*
X118911952Y-134455203D01*
X118957278Y-134448182D01*
X119001686Y-134456269D01*
G37*
G36*
X121951370Y-134717153D02*
G01*
X121987650Y-134745684D01*
X121988114Y-134746278D01*
X122006608Y-134777216D01*
X122014278Y-134804343D01*
X122008932Y-134833293D01*
X121992181Y-134869755D01*
X121970599Y-134894715D01*
X121950086Y-134901133D01*
X121913909Y-134903866D01*
X121876664Y-134901631D01*
X121851273Y-134894454D01*
X121842672Y-134886698D01*
X121825335Y-134855800D01*
X121815216Y-134817342D01*
X121816330Y-134784009D01*
X121833323Y-134750160D01*
X121867452Y-134720902D01*
X121909053Y-134709396D01*
X121951370Y-134717153D01*
G37*
G36*
X122661667Y-136452260D02*
G01*
X122695208Y-136471973D01*
X122695885Y-136472659D01*
X122717245Y-136510760D01*
X122722565Y-136557695D01*
X122712337Y-136603462D01*
X122687052Y-136638062D01*
X122649021Y-136659240D01*
X122600970Y-136665234D01*
X122557504Y-136650600D01*
X122524262Y-136617527D01*
X122506883Y-136568200D01*
X122506353Y-136528277D01*
X122523082Y-136483891D01*
X122559014Y-136455973D01*
X122612631Y-136446278D01*
X122661667Y-136452260D01*
G37*
G36*
X123199487Y-136728700D02*
G01*
X123216642Y-136744341D01*
X123231111Y-136771234D01*
X123234814Y-136811380D01*
X123231034Y-136848192D01*
X123210710Y-136887480D01*
X123170575Y-136913007D01*
X123167347Y-136914155D01*
X123127253Y-136916642D01*
X123084186Y-136904608D01*
X123051733Y-136881639D01*
X123036126Y-136850967D01*
X123029250Y-136812439D01*
X123029266Y-136810474D01*
X123040854Y-136762823D01*
X123069793Y-136727808D01*
X123109960Y-136708442D01*
X123155232Y-136707735D01*
X123199487Y-136728700D01*
G37*
G36*
X119438501Y-137776856D02*
G01*
X119465597Y-137802623D01*
X119474706Y-137846682D01*
X119470496Y-137876452D01*
X119458144Y-137903813D01*
X119454083Y-137907945D01*
X119424637Y-137921358D01*
X119386922Y-137924052D01*
X119351655Y-137916436D01*
X119329550Y-137898918D01*
X119326302Y-137892400D01*
X119316377Y-137847100D01*
X119327427Y-137807787D01*
X119356383Y-137780080D01*
X119400179Y-137769596D01*
X119438501Y-137776856D01*
G37*
G36*
X122903266Y-137507342D02*
G01*
X122932040Y-137529893D01*
X122936059Y-137534033D01*
X122960675Y-137572580D01*
X122959806Y-137610012D01*
X122933476Y-137648126D01*
X122917646Y-137661659D01*
X122876521Y-137678999D01*
X122837955Y-137673765D01*
X122807412Y-137647696D01*
X122790357Y-137602533D01*
X122790195Y-137601481D01*
X122792006Y-137554391D01*
X122814453Y-137522519D01*
X122858166Y-137504955D01*
X122874049Y-137502629D01*
X122903266Y-137507342D01*
G37*
G36*
X124644559Y-133653568D02*
G01*
X124689876Y-133673658D01*
X124722068Y-133709707D01*
X124733193Y-133742105D01*
X124733858Y-133791129D01*
X124719510Y-133837696D01*
X124692795Y-133874389D01*
X124656360Y-133893795D01*
X124637728Y-133896069D01*
X124603099Y-133894688D01*
X124587112Y-133892139D01*
X124561844Y-133889751D01*
X124543760Y-133881770D01*
X124520089Y-133861458D01*
X124514536Y-133854604D01*
X124497767Y-133814769D01*
X124492852Y-133766195D01*
X124499863Y-133719357D01*
X124518872Y-133684728D01*
X124545483Y-133665069D01*
X124593851Y-133650388D01*
X124644559Y-133653568D01*
G37*
G36*
X124364049Y-134185298D02*
G01*
X124412321Y-134194674D01*
X124443501Y-134220313D01*
X124462228Y-134265622D01*
X124464825Y-134285857D01*
X124458191Y-134329319D01*
X124439066Y-134367748D01*
X124411552Y-134390993D01*
X124362646Y-134402369D01*
X124313094Y-134395962D01*
X124274000Y-134371508D01*
X124250947Y-134331090D01*
X124248280Y-134320521D01*
X124244592Y-134263813D01*
X124261532Y-134221203D01*
X124297919Y-134194390D01*
X124352568Y-134185074D01*
X124364049Y-134185298D01*
G37*
G36*
X121415430Y-134982582D02*
G01*
X121446861Y-134990756D01*
X121467520Y-135010189D01*
X121484917Y-135052235D01*
X121483237Y-135097769D01*
X121461825Y-135135807D01*
X121425159Y-135158308D01*
X121384020Y-135161531D01*
X121346158Y-135147199D01*
X121318419Y-135117949D01*
X121307652Y-135076419D01*
X121309388Y-135043171D01*
X121321173Y-135006284D01*
X121347153Y-134987122D01*
X121390885Y-134981634D01*
X121415430Y-134982582D01*
G37*
G36*
X124360664Y-135238620D02*
G01*
X124399041Y-135250041D01*
X124425840Y-135277399D01*
X124439754Y-135313860D01*
X124439475Y-135352592D01*
X124423696Y-135386763D01*
X124391111Y-135409542D01*
X124370325Y-135414709D01*
X124325505Y-135409708D01*
X124289768Y-135383396D01*
X124268375Y-135338806D01*
X124269727Y-135309422D01*
X124288829Y-135275086D01*
X124320643Y-135248968D01*
X124358408Y-135238589D01*
X124360664Y-135238620D01*
G37*
G36*
X120467184Y-136449329D02*
G01*
X120506534Y-136465089D01*
X120509771Y-136467519D01*
X120532852Y-136499944D01*
X120542167Y-136543117D01*
X120538308Y-136588596D01*
X120521863Y-136627936D01*
X120493423Y-136652694D01*
X120463033Y-136659524D01*
X120418518Y-136658830D01*
X120375884Y-136649952D01*
X120346765Y-136634347D01*
X120342528Y-136629334D01*
X120329206Y-136595033D01*
X120326002Y-136550377D01*
X120332747Y-136506199D01*
X120349274Y-136473328D01*
X120376323Y-136455835D01*
X120420198Y-136446432D01*
X120467184Y-136449329D01*
G37*
G36*
X123154443Y-136178374D02*
G01*
X123200767Y-136197179D01*
X123233078Y-136231653D01*
X123248885Y-136276276D01*
X123245700Y-136325527D01*
X123221034Y-136373883D01*
X123204337Y-136391626D01*
X123177711Y-136404448D01*
X123136939Y-136407735D01*
X123102940Y-136404702D01*
X123055615Y-136384651D01*
X123026393Y-136346758D01*
X123016402Y-136292105D01*
X123018914Y-136263451D01*
X123038952Y-136216478D01*
X123077331Y-136186812D01*
X123132032Y-136176475D01*
X123154443Y-136178374D01*
G37*
G36*
X121189163Y-137519793D02*
G01*
X121194134Y-137523545D01*
X121212442Y-137549219D01*
X121217717Y-137589727D01*
X121217563Y-137598528D01*
X121210214Y-137635691D01*
X121189163Y-137659662D01*
X121170253Y-137670249D01*
X121127303Y-137677521D01*
X121088902Y-137664425D01*
X121061287Y-137634110D01*
X121050697Y-137589727D01*
X121052901Y-137568476D01*
X121071824Y-137529954D01*
X121105000Y-137506900D01*
X121146192Y-137502463D01*
X121189163Y-137519793D01*
G37*
G36*
X125337829Y-134713884D02*
G01*
X125381534Y-134735872D01*
X125397371Y-134754335D01*
X125410710Y-134795173D01*
X125407523Y-134839869D01*
X125387390Y-134878213D01*
X125369829Y-134891326D01*
X125329283Y-134903382D01*
X125284622Y-134902710D01*
X125247649Y-134888446D01*
X125246142Y-134887254D01*
X125229302Y-134862495D01*
X125218337Y-134827415D01*
X125216836Y-134807850D01*
X125227653Y-134763441D01*
X125255210Y-134730854D01*
X125293828Y-134713273D01*
X125337829Y-134713884D01*
G37*
G36*
X118983231Y-134717333D02*
G01*
X119017893Y-134731832D01*
X119019531Y-134733040D01*
X119039282Y-134762334D01*
X119047145Y-134803670D01*
X119042614Y-134846695D01*
X119025185Y-134881053D01*
X118999393Y-134897568D01*
X118957505Y-134904797D01*
X118913895Y-134898504D01*
X118879427Y-134878852D01*
X118879041Y-134878463D01*
X118859307Y-134841963D01*
X118856537Y-134797140D01*
X118869611Y-134753778D01*
X118897410Y-134721664D01*
X118905653Y-134717524D01*
X118941542Y-134712203D01*
X118983231Y-134717333D01*
G37*
G36*
X120467804Y-137248159D02*
G01*
X120500444Y-137264101D01*
X120512783Y-137280114D01*
X120523331Y-137319275D01*
X120518424Y-137361879D01*
X120498243Y-137397011D01*
X120461861Y-137417964D01*
X120416440Y-137420408D01*
X120372625Y-137402707D01*
X120352881Y-137376501D01*
X120343736Y-137336681D01*
X120347310Y-137295199D01*
X120364260Y-137263028D01*
X120385488Y-137250473D01*
X120425527Y-137243585D01*
X120467804Y-137248159D01*
G37*
G36*
X117929706Y-134982055D02*
G01*
X117972981Y-134993942D01*
X117997833Y-135023330D01*
X118005780Y-135071758D01*
X118005641Y-135080059D01*
X117998330Y-135117416D01*
X117977226Y-135141503D01*
X117948291Y-135156130D01*
X117903973Y-135160303D01*
X117864704Y-135145279D01*
X117836635Y-135113991D01*
X117825912Y-135069368D01*
X117826017Y-135063805D01*
X117837828Y-135018820D01*
X117868474Y-134991097D01*
X117916919Y-134981634D01*
X117929706Y-134982055D01*
G37*
G36*
X123171907Y-136978357D02*
G01*
X123208186Y-137006888D01*
X123208650Y-137007482D01*
X123227145Y-137038420D01*
X123234814Y-137065547D01*
X123229468Y-137094497D01*
X123212717Y-137130958D01*
X123191135Y-137155919D01*
X123170622Y-137162337D01*
X123134445Y-137165070D01*
X123097200Y-137162834D01*
X123071809Y-137155658D01*
X123063208Y-137147902D01*
X123045871Y-137117004D01*
X123035752Y-137078546D01*
X123036866Y-137045213D01*
X123053859Y-137011363D01*
X123087989Y-136982106D01*
X123129589Y-136970600D01*
X123171907Y-136978357D01*
G37*
G36*
X124374979Y-133917170D02*
G01*
X124421303Y-133935975D01*
X124453614Y-133970449D01*
X124469422Y-134015073D01*
X124466237Y-134064323D01*
X124441570Y-134112679D01*
X124424873Y-134130422D01*
X124398247Y-134143244D01*
X124357475Y-134146531D01*
X124323476Y-134143498D01*
X124276151Y-134123447D01*
X124246930Y-134085554D01*
X124236938Y-134030901D01*
X124239450Y-134002248D01*
X124259488Y-133955274D01*
X124297868Y-133925608D01*
X124352568Y-133915271D01*
X124374979Y-133917170D01*
G37*
G36*
X121692707Y-136980395D02*
G01*
X121728327Y-137004071D01*
X121749452Y-137042507D01*
X121751297Y-137054387D01*
X121747788Y-137093444D01*
X121734367Y-137131257D01*
X121714764Y-137155658D01*
X121695145Y-137162495D01*
X121656218Y-137165249D01*
X121615491Y-137160764D01*
X121586040Y-137149650D01*
X121569841Y-137131823D01*
X121556530Y-137092462D01*
X121558787Y-137048024D01*
X121577226Y-137008363D01*
X121608003Y-136983280D01*
X121650096Y-136972969D01*
X121692707Y-136980395D01*
G37*
G36*
X123442237Y-134455624D02*
G01*
X123453010Y-134461602D01*
X123477347Y-134481449D01*
X123488676Y-134508740D01*
X123491572Y-134552456D01*
X123488392Y-134585520D01*
X123468181Y-134625653D01*
X123427530Y-134651803D01*
X123424302Y-134652951D01*
X123384208Y-134655438D01*
X123341141Y-134643404D01*
X123308688Y-134620435D01*
X123305642Y-134616492D01*
X123289091Y-134574852D01*
X123289076Y-134526685D01*
X123305846Y-134483944D01*
X123317491Y-134471442D01*
X123355598Y-134451749D01*
X123400947Y-134445694D01*
X123442237Y-134455624D01*
G37*
G36*
X117502981Y-134448071D02*
G01*
X117539113Y-134461291D01*
X117563824Y-134488321D01*
X117576447Y-134534029D01*
X117577095Y-134539152D01*
X117573062Y-134588253D01*
X117552044Y-134627082D01*
X117517463Y-134648969D01*
X117503043Y-134652962D01*
X117478679Y-134658074D01*
X117459051Y-134656037D01*
X117429833Y-134646435D01*
X117426248Y-134645133D01*
X117394826Y-134624580D01*
X117377398Y-134588032D01*
X117371861Y-134551763D01*
X117380896Y-134502989D01*
X117408161Y-134466774D01*
X117450057Y-134447130D01*
X117502981Y-134448071D01*
G37*
G36*
X125884461Y-134193641D02*
G01*
X125919061Y-134218926D01*
X125927641Y-134231300D01*
X125944561Y-134279993D01*
X125939982Y-134329476D01*
X125914154Y-134371950D01*
X125903471Y-134381270D01*
X125858259Y-134401202D01*
X125808212Y-134399814D01*
X125761129Y-134376858D01*
X125760390Y-134376268D01*
X125735442Y-134341303D01*
X125725563Y-134295397D01*
X125731242Y-134248553D01*
X125752973Y-134210769D01*
X125753659Y-134210093D01*
X125791760Y-134188733D01*
X125838694Y-134183413D01*
X125884461Y-134193641D01*
G37*
G36*
X121179934Y-136450243D02*
G01*
X121217717Y-136471973D01*
X121218394Y-136472659D01*
X121239754Y-136510760D01*
X121245074Y-136557695D01*
X121234846Y-136603462D01*
X121209561Y-136638062D01*
X121200537Y-136644625D01*
X121154188Y-136663657D01*
X121109597Y-136661911D01*
X121070724Y-136643347D01*
X121041531Y-136611926D01*
X121025976Y-136571610D01*
X121028022Y-136526357D01*
X121051629Y-136480130D01*
X121052219Y-136479390D01*
X121087184Y-136454443D01*
X121133089Y-136444563D01*
X121179934Y-136450243D01*
G37*
G36*
X123443389Y-136454845D02*
G01*
X123477989Y-136480130D01*
X123486569Y-136492504D01*
X123503489Y-136541197D01*
X123498910Y-136590680D01*
X123473081Y-136633154D01*
X123462398Y-136642474D01*
X123417187Y-136662406D01*
X123367140Y-136661018D01*
X123320057Y-136638062D01*
X123319318Y-136637472D01*
X123294370Y-136602506D01*
X123284490Y-136556601D01*
X123290170Y-136509757D01*
X123311900Y-136471973D01*
X123312586Y-136471297D01*
X123350687Y-136449937D01*
X123397622Y-136444617D01*
X123443389Y-136454845D01*
G37*
G36*
X125361322Y-134456269D02*
G01*
X125394607Y-134479076D01*
X125411570Y-134509737D01*
X125418221Y-134554573D01*
X125409159Y-134598131D01*
X125386253Y-134632963D01*
X125351368Y-134651621D01*
X125328625Y-134654247D01*
X125277136Y-134647497D01*
X125235851Y-134625329D01*
X125234102Y-134623662D01*
X125217188Y-134591301D01*
X125212748Y-134548245D01*
X125220482Y-134505287D01*
X125240089Y-134473220D01*
X125271588Y-134455203D01*
X125316914Y-134448182D01*
X125361322Y-134456269D01*
G37*
G36*
X119000059Y-134191056D02*
G01*
X119033600Y-134210769D01*
X119034277Y-134211455D01*
X119055636Y-134249556D01*
X119060956Y-134296491D01*
X119050728Y-134342258D01*
X119025443Y-134376858D01*
X118987412Y-134398036D01*
X118939362Y-134404030D01*
X118895896Y-134389396D01*
X118862653Y-134356323D01*
X118845275Y-134306996D01*
X118844745Y-134267073D01*
X118861473Y-134222687D01*
X118897406Y-134194769D01*
X118951022Y-134185074D01*
X119000059Y-134191056D01*
G37*
G36*
X119944054Y-134448071D02*
G01*
X119980186Y-134461291D01*
X120004896Y-134488321D01*
X120017519Y-134534029D01*
X120018168Y-134539152D01*
X120014135Y-134588253D01*
X119993117Y-134627082D01*
X119958535Y-134648969D01*
X119944115Y-134652962D01*
X119919752Y-134658074D01*
X119900124Y-134656037D01*
X119870905Y-134646435D01*
X119867320Y-134645133D01*
X119835898Y-134624580D01*
X119818470Y-134588032D01*
X119812934Y-134551763D01*
X119821968Y-134502989D01*
X119849233Y-134466774D01*
X119891129Y-134447130D01*
X119944054Y-134448071D01*
G37*
G36*
X126405349Y-137519793D02*
G01*
X126427927Y-137549542D01*
X126435461Y-137589716D01*
X126427935Y-137629893D01*
X126405349Y-137659662D01*
X126381072Y-137672401D01*
X126350393Y-137679662D01*
X126348294Y-137679641D01*
X126305380Y-137667747D01*
X126277086Y-137636530D01*
X126266883Y-137589727D01*
X126268924Y-137567828D01*
X126287150Y-137527892D01*
X126319693Y-137504690D01*
X126360958Y-137501048D01*
X126405349Y-137519793D01*
G37*
G36*
X121683194Y-136178987D02*
G01*
X121730168Y-136199025D01*
X121759833Y-136237404D01*
X121770170Y-136292105D01*
X121770137Y-136296250D01*
X121762550Y-136341392D01*
X121738635Y-136376199D01*
X121736113Y-136378666D01*
X121700935Y-136401199D01*
X121654541Y-136407735D01*
X121625887Y-136405223D01*
X121578914Y-136385184D01*
X121549248Y-136346805D01*
X121538911Y-136292105D01*
X121541423Y-136263451D01*
X121561461Y-136216478D01*
X121599840Y-136186812D01*
X121654541Y-136176475D01*
X121683194Y-136178987D01*
G37*
G36*
X121441131Y-134191056D02*
G01*
X121474672Y-134210769D01*
X121475349Y-134211455D01*
X121496709Y-134249556D01*
X121502029Y-134296491D01*
X121491801Y-134342258D01*
X121466516Y-134376858D01*
X121428485Y-134398036D01*
X121380434Y-134404030D01*
X121336968Y-134389396D01*
X121303726Y-134356323D01*
X121286347Y-134306996D01*
X121285817Y-134267073D01*
X121302545Y-134222687D01*
X121338478Y-134194769D01*
X121392094Y-134185074D01*
X121441131Y-134191056D01*
G37*
G36*
X117270600Y-135258590D02*
G01*
X117275570Y-135262342D01*
X117293878Y-135288015D01*
X117299154Y-135328524D01*
X117298999Y-135337324D01*
X117291651Y-135374487D01*
X117270600Y-135398458D01*
X117246323Y-135411197D01*
X117215643Y-135418458D01*
X117213544Y-135418437D01*
X117170631Y-135406543D01*
X117142336Y-135375326D01*
X117132133Y-135328524D01*
X117134175Y-135306624D01*
X117152400Y-135266688D01*
X117184944Y-135243486D01*
X117226209Y-135239845D01*
X117270600Y-135258590D01*
G37*
G36*
X117959767Y-135249349D02*
G01*
X117988443Y-135277619D01*
X118004070Y-135316148D01*
X118003733Y-135357681D01*
X117984517Y-135394963D01*
X117961559Y-135411783D01*
X117923253Y-135418065D01*
X117884213Y-135406299D01*
X117851370Y-135379031D01*
X117831653Y-135338806D01*
X117833004Y-135309422D01*
X117852107Y-135275086D01*
X117883921Y-135248968D01*
X117921686Y-135238589D01*
X117959767Y-135249349D01*
G37*
G36*
X123452626Y-134729225D02*
G01*
X123480995Y-134762160D01*
X123491769Y-134808190D01*
X123486930Y-134841799D01*
X123466073Y-134878852D01*
X123446196Y-134892542D01*
X123403581Y-134903664D01*
X123358446Y-134900699D01*
X123322548Y-134883285D01*
X123317854Y-134878425D01*
X123301590Y-134843964D01*
X123298026Y-134801085D01*
X123306814Y-134760228D01*
X123327607Y-134731832D01*
X123366826Y-134713672D01*
X123412593Y-134712143D01*
X123452626Y-134729225D01*
G37*
G36*
X126390347Y-135916102D02*
G01*
X126417359Y-135926279D01*
X126441433Y-135949144D01*
X126449207Y-135959282D01*
X126468194Y-136004474D01*
X126470309Y-136053444D01*
X126457200Y-136099360D01*
X126430512Y-136135392D01*
X126391892Y-136154708D01*
X126373278Y-136157420D01*
X126316062Y-136152582D01*
X126270080Y-136128578D01*
X126239463Y-136088428D01*
X126228339Y-136035150D01*
X126231517Y-136001703D01*
X126252492Y-135954859D01*
X126292123Y-135925377D01*
X126349282Y-135914381D01*
X126390347Y-135916102D01*
G37*
G36*
X121925356Y-134982055D02*
G01*
X121968631Y-134993942D01*
X121993483Y-135023330D01*
X122001430Y-135071758D01*
X122001291Y-135080059D01*
X121993980Y-135117416D01*
X121972876Y-135141503D01*
X121943941Y-135156130D01*
X121899623Y-135160303D01*
X121860354Y-135145279D01*
X121832284Y-135113991D01*
X121821561Y-135069368D01*
X121821667Y-135063805D01*
X121833478Y-135018820D01*
X121864124Y-134991097D01*
X121912569Y-134981634D01*
X121925356Y-134982055D01*
G37*
G36*
X121978950Y-134467496D02*
G01*
X121996106Y-134483137D01*
X122010575Y-134510030D01*
X122014278Y-134550176D01*
X122010498Y-134586988D01*
X121990174Y-134626276D01*
X121950039Y-134651803D01*
X121946811Y-134652951D01*
X121906717Y-134655438D01*
X121863650Y-134643404D01*
X121831197Y-134620435D01*
X121815589Y-134589763D01*
X121808714Y-134551235D01*
X121808730Y-134549270D01*
X121820318Y-134501619D01*
X121849257Y-134466605D01*
X121889424Y-134447238D01*
X121934696Y-134446531D01*
X121978950Y-134467496D01*
G37*
G36*
X126148394Y-135258590D02*
G01*
X126165507Y-135277429D01*
X126176984Y-135315427D01*
X126172302Y-135357142D01*
X126151253Y-135392762D01*
X126125234Y-135410880D01*
X126082671Y-135416699D01*
X126038482Y-135398458D01*
X126033511Y-135394706D01*
X126015203Y-135369032D01*
X126009928Y-135328524D01*
X126011969Y-135306624D01*
X126030195Y-135266688D01*
X126062738Y-135243486D01*
X126104004Y-135239845D01*
X126148394Y-135258590D01*
G37*
G36*
X124360664Y-137499823D02*
G01*
X124399041Y-137511245D01*
X124425840Y-137538602D01*
X124439754Y-137575063D01*
X124439475Y-137613796D01*
X124423696Y-137647967D01*
X124391111Y-137670746D01*
X124370325Y-137675913D01*
X124325505Y-137670912D01*
X124289768Y-137644600D01*
X124268375Y-137600010D01*
X124269727Y-137570625D01*
X124288829Y-137536290D01*
X124320643Y-137510171D01*
X124358408Y-137499793D01*
X124360664Y-137499823D01*
G37*
G36*
X124619489Y-137499796D02*
G01*
X124656957Y-137511118D01*
X124683705Y-137539452D01*
X124697147Y-137577543D01*
X124694694Y-137618133D01*
X124673762Y-137653966D01*
X124647743Y-137672084D01*
X124605180Y-137677903D01*
X124560991Y-137659662D01*
X124556020Y-137655910D01*
X124537712Y-137630236D01*
X124532437Y-137589727D01*
X124532466Y-137586898D01*
X124543786Y-137540538D01*
X124573541Y-137510487D01*
X124618806Y-137499793D01*
X124619489Y-137499796D01*
G37*
G36*
X126380353Y-136448229D02*
G01*
X126425106Y-136464428D01*
X126451158Y-136497886D01*
X126459599Y-136549644D01*
X126459589Y-136551838D01*
X126452196Y-136597778D01*
X126428064Y-136633154D01*
X126407921Y-136649397D01*
X126363468Y-136665403D01*
X126318728Y-136661139D01*
X126279543Y-136639140D01*
X126251749Y-136601938D01*
X126241187Y-136552066D01*
X126243055Y-136526095D01*
X126260506Y-136481670D01*
X126296409Y-136455105D01*
X126350894Y-136446278D01*
X126380353Y-136448229D01*
G37*
G36*
X117947326Y-134715786D02*
G01*
X117987592Y-134738374D01*
X118010952Y-134777076D01*
X118013658Y-134827415D01*
X118013114Y-134830492D01*
X118001376Y-134865237D01*
X117984346Y-134888446D01*
X117982380Y-134889768D01*
X117953107Y-134900250D01*
X117915381Y-134904548D01*
X117905933Y-134904224D01*
X117860194Y-134890269D01*
X117831021Y-134857457D01*
X117820772Y-134808190D01*
X117821141Y-134797744D01*
X117835058Y-134751353D01*
X117867647Y-134722047D01*
X117916905Y-134711832D01*
X117947326Y-134715786D01*
G37*
G36*
X121441131Y-136452260D02*
G01*
X121474672Y-136471973D01*
X121475349Y-136472659D01*
X121496709Y-136510760D01*
X121502029Y-136557695D01*
X121491801Y-136603462D01*
X121466516Y-136638062D01*
X121428485Y-136659240D01*
X121380434Y-136665234D01*
X121336968Y-136650600D01*
X121303726Y-136617527D01*
X121286347Y-136568200D01*
X121285817Y-136528277D01*
X121302545Y-136483891D01*
X121338478Y-136455973D01*
X121392094Y-136446278D01*
X121441131Y-136452260D01*
G37*
G36*
X122666654Y-137519793D02*
G01*
X122671625Y-137523545D01*
X122689933Y-137549219D01*
X122695208Y-137589727D01*
X122695054Y-137598528D01*
X122687705Y-137635691D01*
X122666654Y-137659662D01*
X122647744Y-137670249D01*
X122604794Y-137677521D01*
X122566393Y-137664425D01*
X122538779Y-137634110D01*
X122528188Y-137589727D01*
X122530392Y-137568476D01*
X122549315Y-137529954D01*
X122582492Y-137506900D01*
X122623684Y-137502463D01*
X122666654Y-137519793D01*
G37*
G36*
X122661667Y-134191056D02*
G01*
X122695208Y-134210769D01*
X122695885Y-134211455D01*
X122717245Y-134249556D01*
X122722565Y-134296491D01*
X122712337Y-134342258D01*
X122687052Y-134376858D01*
X122649021Y-134398036D01*
X122600970Y-134404030D01*
X122557504Y-134389396D01*
X122524262Y-134356323D01*
X122506883Y-134306996D01*
X122506353Y-134267073D01*
X122523082Y-134222687D01*
X122559014Y-134194769D01*
X122612631Y-134185074D01*
X122661667Y-134191056D01*
G37*
G36*
X120907441Y-134187094D02*
G01*
X120952116Y-134203328D01*
X120978067Y-134236743D01*
X120986458Y-134288440D01*
X120986448Y-134290634D01*
X120979054Y-134336574D01*
X120954922Y-134371950D01*
X120933528Y-134389065D01*
X120889015Y-134404678D01*
X120844563Y-134399898D01*
X120805819Y-134377249D01*
X120778431Y-134339255D01*
X120768046Y-134288440D01*
X120770180Y-134259866D01*
X120787332Y-134217579D01*
X120822634Y-134193017D01*
X120877252Y-134185074D01*
X120907441Y-134187094D01*
G37*
G36*
X117540402Y-134731832D02*
G01*
X117542040Y-134733040D01*
X117561790Y-134762334D01*
X117569654Y-134803670D01*
X117565123Y-134846695D01*
X117547694Y-134881053D01*
X117523376Y-134896888D01*
X117477031Y-134904548D01*
X117463262Y-134903964D01*
X117416138Y-134889522D01*
X117386520Y-134857013D01*
X117376240Y-134808190D01*
X117384228Y-134768072D01*
X117410419Y-134733073D01*
X117449132Y-134713527D01*
X117494436Y-134712194D01*
X117540402Y-134731832D01*
G37*
G36*
X116478574Y-134718299D02*
G01*
X116513824Y-134744106D01*
X116534804Y-134790933D01*
X116535744Y-134824251D01*
X116522280Y-134865224D01*
X116497458Y-134894715D01*
X116496251Y-134895434D01*
X116472755Y-134901617D01*
X116438355Y-134904154D01*
X116397783Y-134900788D01*
X116370918Y-134886846D01*
X116350344Y-134857213D01*
X116342439Y-134838472D01*
X116338548Y-134791712D01*
X116355359Y-134751176D01*
X116389424Y-134722628D01*
X116437296Y-134711832D01*
X116478574Y-134718299D01*
G37*
G36*
X119968627Y-137519793D02*
G01*
X119973597Y-137523545D01*
X119991905Y-137549219D01*
X119997181Y-137589727D01*
X119997026Y-137598528D01*
X119989678Y-137635691D01*
X119968627Y-137659662D01*
X119949717Y-137670249D01*
X119906767Y-137677521D01*
X119868366Y-137664425D01*
X119840751Y-137634110D01*
X119830160Y-137589727D01*
X119832365Y-137568476D01*
X119851288Y-137529954D01*
X119884464Y-137506900D01*
X119925656Y-137502463D01*
X119968627Y-137519793D01*
G37*
G36*
X125349331Y-136449331D02*
G01*
X125388679Y-136465089D01*
X125411703Y-136491915D01*
X125424171Y-136534296D01*
X125422076Y-136580582D01*
X125405994Y-136622052D01*
X125376498Y-136649985D01*
X125347734Y-136658200D01*
X125302651Y-136658887D01*
X125258683Y-136650072D01*
X125227659Y-136633097D01*
X125224751Y-136629854D01*
X125210375Y-136596226D01*
X125206864Y-136551742D01*
X125213963Y-136507182D01*
X125231418Y-136473322D01*
X125258469Y-136455832D01*
X125302345Y-136446433D01*
X125349331Y-136449331D01*
G37*
G36*
X124364049Y-136446502D02*
G01*
X124412321Y-136455878D01*
X124443501Y-136481517D01*
X124462228Y-136526826D01*
X124464825Y-136547061D01*
X124458191Y-136590523D01*
X124439066Y-136628952D01*
X124411552Y-136652197D01*
X124362646Y-136663573D01*
X124313094Y-136657165D01*
X124274000Y-136632712D01*
X124250947Y-136592294D01*
X124248280Y-136581725D01*
X124244592Y-136525017D01*
X124261532Y-136482407D01*
X124297919Y-136455593D01*
X124352568Y-136446278D01*
X124364049Y-136446502D01*
G37*
G36*
X120472170Y-136980395D02*
G01*
X120507791Y-137004071D01*
X120528916Y-137042507D01*
X120530761Y-137054387D01*
X120527252Y-137093444D01*
X120513831Y-137131257D01*
X120494228Y-137155658D01*
X120474609Y-137162495D01*
X120435682Y-137165249D01*
X120394955Y-137160764D01*
X120365504Y-137149650D01*
X120349304Y-137131823D01*
X120335994Y-137092462D01*
X120338251Y-137048024D01*
X120356690Y-137008363D01*
X120387467Y-136983280D01*
X120429560Y-136972969D01*
X120472170Y-136980395D01*
G37*
G36*
X119448784Y-136718004D02*
G01*
X119457586Y-136722864D01*
X119481638Y-136742421D01*
X119492971Y-136769753D01*
X119495922Y-136813659D01*
X119492742Y-136846724D01*
X119472531Y-136886857D01*
X119431880Y-136913007D01*
X119424257Y-136915234D01*
X119387385Y-136915940D01*
X119347446Y-136906944D01*
X119318649Y-136891006D01*
X119315376Y-136886968D01*
X119302965Y-136859139D01*
X119294433Y-136821607D01*
X119292093Y-136791250D01*
X119298863Y-136763098D01*
X119320530Y-136736329D01*
X119350076Y-136714619D01*
X119398061Y-136703896D01*
X119448784Y-136718004D01*
G37*
G36*
X124420023Y-136728700D02*
G01*
X124437178Y-136744341D01*
X124451647Y-136771234D01*
X124455350Y-136811380D01*
X124451571Y-136848192D01*
X124431246Y-136887480D01*
X124391111Y-136913007D01*
X124387883Y-136914155D01*
X124347789Y-136916642D01*
X124304722Y-136904608D01*
X124272270Y-136881639D01*
X124256662Y-136850967D01*
X124249786Y-136812439D01*
X124249802Y-136810474D01*
X124261391Y-136762823D01*
X124290330Y-136727808D01*
X124330496Y-136708442D01*
X124375768Y-136707735D01*
X124420023Y-136728700D01*
G37*
G36*
X119959398Y-134189039D02*
G01*
X119997181Y-134210769D01*
X119997858Y-134211455D01*
X120019217Y-134249556D01*
X120024538Y-134296491D01*
X120014310Y-134342258D01*
X119989025Y-134376858D01*
X119980001Y-134383421D01*
X119933652Y-134402453D01*
X119889061Y-134400707D01*
X119850188Y-134382143D01*
X119820994Y-134350722D01*
X119805440Y-134310406D01*
X119807486Y-134265153D01*
X119831093Y-134218926D01*
X119831683Y-134218187D01*
X119866648Y-134193239D01*
X119912553Y-134183359D01*
X119959398Y-134189039D01*
G37*
G36*
X121710792Y-135924462D02*
G01*
X121746064Y-135949449D01*
X121769252Y-135989415D01*
X121776677Y-136036009D01*
X121768490Y-136082387D01*
X121744843Y-136121704D01*
X121705885Y-136147118D01*
X121688733Y-136152215D01*
X121631136Y-136155974D01*
X121583156Y-136139253D01*
X121548529Y-136105287D01*
X121530992Y-136057312D01*
X121534283Y-135998564D01*
X121536234Y-135991255D01*
X121561271Y-135946251D01*
X121601716Y-135918856D01*
X121653059Y-135910962D01*
X121710792Y-135924462D01*
G37*
G36*
X126388009Y-137249284D02*
G01*
X126414660Y-137260314D01*
X126432252Y-137282272D01*
X126442913Y-137315035D01*
X126438389Y-137361838D01*
X126413695Y-137402537D01*
X126398919Y-137413024D01*
X126360103Y-137422298D01*
X126318460Y-137416562D01*
X126285576Y-137396372D01*
X126275854Y-137382268D01*
X126263597Y-137341507D01*
X126264535Y-137297566D01*
X126279248Y-137262692D01*
X126284169Y-137257680D01*
X126310731Y-137246442D01*
X126355276Y-137245431D01*
X126388009Y-137249284D01*
G37*
G36*
X119442871Y-137515988D02*
G01*
X119469819Y-137542491D01*
X119483961Y-137577545D01*
X119481235Y-137616315D01*
X119457576Y-137653966D01*
X119431556Y-137672084D01*
X119388993Y-137677903D01*
X119344805Y-137659662D01*
X119322227Y-137629913D01*
X119314693Y-137589739D01*
X119322219Y-137549562D01*
X119344805Y-137519793D01*
X119366814Y-137507973D01*
X119407181Y-137502871D01*
X119442871Y-137515988D01*
G37*
G36*
X124619489Y-135238593D02*
G01*
X124656957Y-135249914D01*
X124683705Y-135278248D01*
X124697147Y-135316339D01*
X124694694Y-135356930D01*
X124673762Y-135392762D01*
X124647743Y-135410880D01*
X124605180Y-135416699D01*
X124560991Y-135398458D01*
X124556020Y-135394706D01*
X124537712Y-135369032D01*
X124532437Y-135328524D01*
X124532466Y-135325694D01*
X124543786Y-135279334D01*
X124573541Y-135249283D01*
X124618806Y-135238589D01*
X124619489Y-135238593D01*
G37*
G36*
X119945104Y-134983150D02*
G01*
X119972459Y-134992379D01*
X119991902Y-135013697D01*
X120003247Y-135041780D01*
X120005512Y-135083595D01*
X119995365Y-135122448D01*
X119974181Y-135147915D01*
X119950217Y-135158206D01*
X119905043Y-135160687D01*
X119864853Y-135144194D01*
X119836046Y-135112156D01*
X119825021Y-135068001D01*
X119825923Y-135048024D01*
X119837991Y-135009121D01*
X119866614Y-134988001D01*
X119914948Y-134981634D01*
X119945104Y-134983150D01*
G37*
G36*
X124663925Y-136454845D02*
G01*
X124698525Y-136480130D01*
X124707105Y-136492504D01*
X124724025Y-136541197D01*
X124719446Y-136590680D01*
X124693617Y-136633154D01*
X124682934Y-136642474D01*
X124637723Y-136662406D01*
X124587676Y-136661018D01*
X124540593Y-136638062D01*
X124539854Y-136637472D01*
X124514906Y-136602506D01*
X124505026Y-136556601D01*
X124510706Y-136509757D01*
X124532437Y-136471973D01*
X124533122Y-136471297D01*
X124571223Y-136449937D01*
X124618158Y-136444617D01*
X124663925Y-136454845D01*
G37*
G36*
X119680306Y-138039539D02*
G01*
X119708067Y-138052214D01*
X119718383Y-138066825D01*
X119726417Y-138101089D01*
X119724424Y-138138192D01*
X119711961Y-138165307D01*
X119689983Y-138176023D01*
X119656716Y-138180724D01*
X119617174Y-138174161D01*
X119593410Y-138151142D01*
X119586053Y-138109065D01*
X119591838Y-138074575D01*
X119615624Y-138045986D01*
X119656716Y-138036187D01*
X119680306Y-138039539D01*
G37*
G36*
X119711672Y-137519793D02*
G01*
X119716642Y-137523545D01*
X119734950Y-137549219D01*
X119740226Y-137589727D01*
X119740071Y-137598528D01*
X119732723Y-137635691D01*
X119711672Y-137659662D01*
X119687395Y-137672401D01*
X119656716Y-137679662D01*
X119654617Y-137679641D01*
X119611703Y-137667747D01*
X119583408Y-137636530D01*
X119573205Y-137589727D01*
X119575247Y-137567828D01*
X119593472Y-137527892D01*
X119626016Y-137504690D01*
X119667281Y-137501048D01*
X119711672Y-137519793D01*
G37*
G36*
X118227203Y-134193641D02*
G01*
X118261802Y-134218926D01*
X118270383Y-134231300D01*
X118287303Y-134279993D01*
X118282724Y-134329476D01*
X118256895Y-134371950D01*
X118246212Y-134381270D01*
X118201001Y-134401202D01*
X118150954Y-134399814D01*
X118103871Y-134376858D01*
X118103131Y-134376268D01*
X118078184Y-134341303D01*
X118068304Y-134295397D01*
X118073984Y-134248553D01*
X118095714Y-134210769D01*
X118096400Y-134210093D01*
X118134501Y-134188733D01*
X118181435Y-134183413D01*
X118227203Y-134193641D01*
G37*
G36*
X121682730Y-135246138D02*
G01*
X121711504Y-135268689D01*
X121715523Y-135272829D01*
X121740139Y-135311376D01*
X121739270Y-135348808D01*
X121712940Y-135386923D01*
X121697110Y-135400456D01*
X121655985Y-135417796D01*
X121617419Y-135412561D01*
X121586876Y-135386492D01*
X121569820Y-135341329D01*
X121569659Y-135340277D01*
X121571470Y-135293187D01*
X121593917Y-135261315D01*
X121637629Y-135243751D01*
X121653513Y-135241425D01*
X121682730Y-135246138D01*
G37*
G36*
X119447739Y-136454845D02*
G01*
X119482339Y-136480130D01*
X119490919Y-136492504D01*
X119507839Y-136541197D01*
X119503260Y-136590680D01*
X119477431Y-136633154D01*
X119466748Y-136642474D01*
X119421537Y-136662406D01*
X119371490Y-136661018D01*
X119324407Y-136638062D01*
X119323668Y-136637472D01*
X119298720Y-136602506D01*
X119288840Y-136556601D01*
X119294520Y-136509757D01*
X119316250Y-136471973D01*
X119316936Y-136471297D01*
X119355037Y-136449937D01*
X119401972Y-136444617D01*
X119447739Y-136454845D01*
G37*
G36*
X120179407Y-135239195D02*
G01*
X120217950Y-135254226D01*
X120244844Y-135284255D01*
X120257428Y-135322336D01*
X120253044Y-135361522D01*
X120229032Y-135394867D01*
X120204794Y-135409536D01*
X120162883Y-135416234D01*
X120125044Y-135402976D01*
X120097661Y-135372745D01*
X120087115Y-135328524D01*
X120087538Y-135320203D01*
X120101807Y-135279872D01*
X120131314Y-135250162D01*
X120169202Y-135238589D01*
X120179407Y-135239195D01*
G37*
G36*
X119711672Y-135258590D02*
G01*
X119716642Y-135262342D01*
X119734950Y-135288015D01*
X119740226Y-135328524D01*
X119740071Y-135337324D01*
X119732723Y-135374487D01*
X119711672Y-135398458D01*
X119687395Y-135411197D01*
X119656716Y-135418458D01*
X119654617Y-135418437D01*
X119611703Y-135406543D01*
X119583408Y-135375326D01*
X119573205Y-135328524D01*
X119575247Y-135306624D01*
X119593472Y-135266688D01*
X119626016Y-135243486D01*
X119667281Y-135239845D01*
X119711672Y-135258590D01*
G37*
G36*
X124366428Y-137243259D02*
G01*
X124409703Y-137255146D01*
X124434555Y-137284534D01*
X124442502Y-137332962D01*
X124442364Y-137341263D01*
X124435053Y-137378620D01*
X124413948Y-137402707D01*
X124385013Y-137417333D01*
X124340695Y-137421506D01*
X124301427Y-137406483D01*
X124273357Y-137375195D01*
X124262634Y-137330572D01*
X124262739Y-137325009D01*
X124274550Y-137280024D01*
X124305196Y-137252301D01*
X124353642Y-137242838D01*
X124366428Y-137243259D01*
G37*
G36*
X125871458Y-135783554D02*
G01*
X125876481Y-135786419D01*
X125898839Y-135814268D01*
X125905398Y-135853181D01*
X125894250Y-135893915D01*
X125889454Y-135901037D01*
X125862103Y-135917452D01*
X125826822Y-135918515D01*
X125792741Y-135905318D01*
X125768991Y-135878951D01*
X125759799Y-135844490D01*
X125767611Y-135807981D01*
X125792095Y-135782612D01*
X125828345Y-135772947D01*
X125871458Y-135783554D01*
G37*
G36*
X123145892Y-137243259D02*
G01*
X123189167Y-137255146D01*
X123214019Y-137284534D01*
X123221966Y-137332962D01*
X123221827Y-137341263D01*
X123214516Y-137378620D01*
X123193412Y-137402707D01*
X123164477Y-137417333D01*
X123120159Y-137421506D01*
X123080891Y-137406483D01*
X123052821Y-137375195D01*
X123042098Y-137330572D01*
X123042203Y-137325009D01*
X123054014Y-137280024D01*
X123084660Y-137252301D01*
X123133105Y-137242838D01*
X123145892Y-137243259D01*
G37*
G36*
X125344338Y-137507342D02*
G01*
X125373112Y-137529893D01*
X125377131Y-137534033D01*
X125401747Y-137572580D01*
X125400879Y-137610012D01*
X125374548Y-137648126D01*
X125358719Y-137661659D01*
X125317593Y-137678999D01*
X125279027Y-137673765D01*
X125248485Y-137647696D01*
X125231429Y-137602533D01*
X125231267Y-137601481D01*
X125233079Y-137554391D01*
X125255525Y-137522519D01*
X125299238Y-137504955D01*
X125315122Y-137502629D01*
X125344338Y-137507342D01*
G37*
G36*
X118466368Y-134187094D02*
G01*
X118511044Y-134203328D01*
X118536994Y-134236743D01*
X118545385Y-134288440D01*
X118545376Y-134290634D01*
X118537982Y-134336574D01*
X118513850Y-134371950D01*
X118492456Y-134389065D01*
X118447943Y-134404678D01*
X118403490Y-134399898D01*
X118364746Y-134377249D01*
X118337358Y-134339255D01*
X118326974Y-134288440D01*
X118329108Y-134259866D01*
X118346260Y-134217579D01*
X118381562Y-134193017D01*
X118436180Y-134185074D01*
X118466368Y-134187094D01*
G37*
G36*
X117983300Y-134467496D02*
G01*
X118000456Y-134483137D01*
X118014925Y-134510030D01*
X118018628Y-134550176D01*
X118014848Y-134586988D01*
X117994524Y-134626276D01*
X117954389Y-134651803D01*
X117951161Y-134652951D01*
X117911067Y-134655438D01*
X117868000Y-134643404D01*
X117835547Y-134620435D01*
X117819939Y-134589763D01*
X117813064Y-134551235D01*
X117813080Y-134549270D01*
X117824668Y-134501619D01*
X117853607Y-134466605D01*
X117893774Y-134447238D01*
X117939046Y-134446531D01*
X117983300Y-134467496D01*
G37*
G36*
X122386176Y-134983150D02*
G01*
X122413531Y-134992379D01*
X122432974Y-135013697D01*
X122444319Y-135041780D01*
X122446584Y-135083595D01*
X122436437Y-135122448D01*
X122415253Y-135147915D01*
X122391289Y-135158206D01*
X122346115Y-135160687D01*
X122305925Y-135144194D01*
X122277118Y-135112156D01*
X122266094Y-135068001D01*
X122266995Y-135048024D01*
X122279063Y-135009121D01*
X122307687Y-134988001D01*
X122356020Y-134981634D01*
X122386176Y-134983150D01*
G37*
G36*
X126378003Y-134448385D02*
G01*
X126420590Y-134468563D01*
X126447936Y-134503905D01*
X126456580Y-134549972D01*
X126443058Y-134602326D01*
X126420769Y-134634532D01*
X126392824Y-134651285D01*
X126372986Y-134655136D01*
X126355522Y-134658691D01*
X126355054Y-134658765D01*
X126337531Y-134655633D01*
X126308000Y-134646565D01*
X126306598Y-134646063D01*
X126270897Y-134621414D01*
X126251221Y-134584252D01*
X126247062Y-134541452D01*
X126257915Y-134499891D01*
X126283273Y-134466446D01*
X126322629Y-134447993D01*
X126323640Y-134447807D01*
X126378003Y-134448385D01*
G37*
G36*
X118958871Y-135239195D02*
G01*
X118997414Y-135254226D01*
X119024307Y-135284255D01*
X119036892Y-135322336D01*
X119032508Y-135361522D01*
X119008496Y-135394867D01*
X118984258Y-135409536D01*
X118942346Y-135416234D01*
X118904508Y-135402976D01*
X118877125Y-135372745D01*
X118866579Y-135328524D01*
X118867002Y-135320203D01*
X118881271Y-135279872D01*
X118910778Y-135250162D01*
X118948666Y-135238589D01*
X118958871Y-135239195D01*
G37*
G36*
X121458966Y-134731832D02*
G01*
X121460603Y-134733040D01*
X121480354Y-134762334D01*
X121488217Y-134803670D01*
X121483687Y-134846695D01*
X121466257Y-134881053D01*
X121440465Y-134897568D01*
X121398578Y-134904797D01*
X121354968Y-134898504D01*
X121320499Y-134878852D01*
X121310609Y-134866576D01*
X121296125Y-134824909D01*
X121299601Y-134779218D01*
X121321000Y-134739950D01*
X121328538Y-134732940D01*
X121368561Y-134714705D01*
X121415396Y-134714138D01*
X121458966Y-134731832D01*
G37*
G36*
X121726917Y-138441892D02*
G01*
X121760030Y-138450436D01*
X121827216Y-138482889D01*
X121899364Y-138534012D01*
X121973608Y-138600387D01*
X122047080Y-138678601D01*
X122116914Y-138765236D01*
X122180242Y-138856876D01*
X122234198Y-138950106D01*
X122275913Y-139041510D01*
X122302521Y-139127671D01*
X122304041Y-139133535D01*
X122316540Y-139156040D01*
X122342626Y-139177122D01*
X122387719Y-139201476D01*
X122455848Y-139239481D01*
X122565987Y-139323153D01*
X122665501Y-139428034D01*
X122753130Y-139552229D01*
X122827620Y-139693844D01*
X122887711Y-139850986D01*
X122932148Y-140021759D01*
X122934886Y-140036346D01*
X122943222Y-140092993D01*
X122951491Y-140164918D01*
X122958866Y-140244391D01*
X122964517Y-140323681D01*
X122970388Y-140408626D01*
X122979458Y-140494526D01*
X122991885Y-140565733D01*
X123009069Y-140628302D01*
X123032405Y-140688293D01*
X123063293Y-140751762D01*
X123096695Y-140810556D01*
X123146810Y-140883058D01*
X123208056Y-140955329D01*
X123284167Y-141031684D01*
X123378875Y-141116435D01*
X123414762Y-141146856D01*
X123454503Y-141179282D01*
X123495445Y-141210950D01*
X123540187Y-141243615D01*
X123591327Y-141279032D01*
X123651466Y-141318957D01*
X123723203Y-141365145D01*
X123809137Y-141419351D01*
X123911867Y-141483331D01*
X124033993Y-141558840D01*
X124240210Y-141694884D01*
X124458813Y-141862672D01*
X124656628Y-142042856D01*
X124835488Y-142237457D01*
X124997229Y-142448496D01*
X125143683Y-142677992D01*
X125276686Y-142927967D01*
X125291209Y-142958171D01*
X125381792Y-143166799D01*
X125449689Y-143363718D01*
X125494877Y-143548853D01*
X125517332Y-143722128D01*
X125520281Y-143762642D01*
X125525618Y-143811052D01*
X125533305Y-143845308D01*
X125545169Y-143872514D01*
X125563038Y-143899773D01*
X125578201Y-143918587D01*
X125631250Y-143961787D01*
X125691752Y-143984225D01*
X125754644Y-143984654D01*
X125814865Y-143961826D01*
X125826357Y-143953864D01*
X125866380Y-143908511D01*
X125898664Y-143842656D01*
X125922421Y-143759711D01*
X125936865Y-143663087D01*
X125941209Y-143556195D01*
X125934666Y-143442446D01*
X125932372Y-143422000D01*
X125915745Y-143315860D01*
X125890524Y-143209883D01*
X125855403Y-143100750D01*
X125809074Y-142985141D01*
X125750232Y-142859736D01*
X125677569Y-142721217D01*
X125589779Y-142566265D01*
X125546149Y-142491145D01*
X125474151Y-142365235D01*
X125413533Y-142255765D01*
X125362730Y-142159316D01*
X125320178Y-142072466D01*
X125284312Y-141991793D01*
X125253568Y-141913878D01*
X125226381Y-141835299D01*
X125201186Y-141752634D01*
X125176419Y-141662464D01*
X125159607Y-141594258D01*
X125133600Y-141466065D01*
X125113633Y-141335802D01*
X125100021Y-141207888D01*
X125093080Y-141086742D01*
X125093124Y-140976781D01*
X125100471Y-140882424D01*
X125115434Y-140808089D01*
X125146316Y-140722446D01*
X125213209Y-140593564D01*
X125299596Y-140475056D01*
X125402387Y-140369924D01*
X125518491Y-140281167D01*
X125644815Y-140211786D01*
X125778269Y-140164781D01*
X125870823Y-140148384D01*
X125980654Y-140148535D01*
X126082984Y-140170502D01*
X126174809Y-140213574D01*
X126253122Y-140277042D01*
X126274862Y-140300635D01*
X126317432Y-140357542D01*
X126344413Y-140416466D01*
X126358631Y-140484966D01*
X126362915Y-140570600D01*
X126362683Y-140616067D01*
X126360273Y-140662919D01*
X126353835Y-140699329D01*
X126341602Y-140734132D01*
X126321807Y-140776164D01*
X126294282Y-140824817D01*
X126254903Y-140883905D01*
X126214980Y-140935370D01*
X126207691Y-140943967D01*
X126136283Y-141045362D01*
X126075374Y-141166316D01*
X126024287Y-141308396D01*
X125982343Y-141473169D01*
X125977910Y-141494710D01*
X125966555Y-141561428D01*
X125959208Y-141629870D01*
X125955182Y-141708001D01*
X125953789Y-141803789D01*
X125953729Y-141855538D01*
X125954482Y-141919678D01*
X125957130Y-141971326D01*
X125962656Y-142017936D01*
X125972044Y-142066960D01*
X125986275Y-142125854D01*
X126006336Y-142202069D01*
X126026024Y-142273333D01*
X126052886Y-142366189D01*
X126083229Y-142467761D01*
X126114626Y-142569934D01*
X126144650Y-142664588D01*
X126162514Y-142720104D01*
X126217607Y-142895666D01*
X126264409Y-143052064D01*
X126302589Y-143188132D01*
X126331815Y-143302704D01*
X126351757Y-143394613D01*
X126353445Y-143403870D01*
X126365733Y-143512684D01*
X126368434Y-143639167D01*
X126361951Y-143777850D01*
X126346688Y-143923266D01*
X126323048Y-144069947D01*
X126291434Y-144212424D01*
X126240289Y-144383613D01*
X126173189Y-144554182D01*
X126094466Y-144710551D01*
X126005423Y-144851096D01*
X125907364Y-144974191D01*
X125801593Y-145078212D01*
X125689415Y-145161533D01*
X125572132Y-145222530D01*
X125451051Y-145259578D01*
X125438287Y-145260604D01*
X125400252Y-145261904D01*
X125339413Y-145263169D01*
X125257396Y-145264386D01*
X125155829Y-145265545D01*
X125036340Y-145266632D01*
X124900557Y-145267637D01*
X124750106Y-145268548D01*
X124586616Y-145269352D01*
X124411713Y-145270039D01*
X124227026Y-145270596D01*
X124034182Y-145271011D01*
X123834808Y-145271274D01*
X123627937Y-145271433D01*
X123411352Y-145271523D01*
X123218052Y-145271498D01*
X123046741Y-145271344D01*
X122896126Y-145271048D01*
X122764913Y-145270597D01*
X122651809Y-145269977D01*
X122555519Y-145269174D01*
X122474750Y-145268175D01*
X122408208Y-145266967D01*
X122354598Y-145265535D01*
X122312628Y-145263867D01*
X122281004Y-145261948D01*
X122258430Y-145259766D01*
X122243615Y-145257307D01*
X122235263Y-145254557D01*
X122217874Y-145244458D01*
X122164565Y-145197315D01*
X122128028Y-145137802D01*
X122111059Y-145071785D01*
X122116453Y-145005131D01*
X122139082Y-144955910D01*
X122177180Y-144909126D01*
X122223213Y-144872980D01*
X122269940Y-144854577D01*
X122308168Y-144848135D01*
X122370186Y-144835195D01*
X122414852Y-144820936D01*
X122447737Y-144803336D01*
X122474413Y-144780373D01*
X122480321Y-144773985D01*
X122516546Y-144714060D01*
X122531971Y-144639488D01*
X122526669Y-144549951D01*
X122524295Y-144536176D01*
X122508986Y-144471409D01*
X122485589Y-144402599D01*
X122452995Y-144327836D01*
X122410096Y-144245214D01*
X122355784Y-144152825D01*
X122288949Y-144048761D01*
X122208483Y-143931114D01*
X122113278Y-143797977D01*
X122002225Y-143647441D01*
X121922932Y-143540987D01*
X121839951Y-143428728D01*
X121769484Y-143332034D01*
X121709808Y-143248273D01*
X121659201Y-143174816D01*
X121615941Y-143109030D01*
X121578306Y-143048284D01*
X121544573Y-142989946D01*
X121513021Y-142931387D01*
X121481927Y-142869974D01*
X121449569Y-142803076D01*
X121440025Y-142782806D01*
X121359017Y-142587005D01*
X121301841Y-142398940D01*
X121268473Y-142218900D01*
X121258890Y-142047176D01*
X121273070Y-141884056D01*
X121310990Y-141729831D01*
X121372626Y-141584789D01*
X121457956Y-141449221D01*
X121566956Y-141323415D01*
X121574696Y-141315667D01*
X121612690Y-141276839D01*
X121635523Y-141250437D01*
X121646000Y-141231737D01*
X121646927Y-141216014D01*
X121641111Y-141198541D01*
X121623233Y-141166624D01*
X121582292Y-141118304D01*
X121530803Y-141074393D01*
X121476854Y-141042572D01*
X121437557Y-141029479D01*
X121368532Y-141015864D01*
X121281344Y-141006069D01*
X121241672Y-141002279D01*
X121177271Y-140993875D01*
X121120718Y-140983936D01*
X121080920Y-140973892D01*
X120958685Y-140922139D01*
X120835321Y-140850603D01*
X120716638Y-140763735D01*
X120607877Y-140665795D01*
X120514275Y-140561043D01*
X120441073Y-140453737D01*
X120416511Y-140392554D01*
X120411994Y-140326120D01*
X120429537Y-140264702D01*
X120467272Y-140211998D01*
X120523329Y-140171708D01*
X120595839Y-140147528D01*
X120612226Y-140143875D01*
X120646219Y-140130903D01*
X120678240Y-140109017D01*
X120710843Y-140075335D01*
X120746582Y-140026978D01*
X120788010Y-139961064D01*
X120837681Y-139874714D01*
X120864665Y-139827076D01*
X120948301Y-139687102D01*
X121027181Y-139568129D01*
X121103474Y-139467441D01*
X121179349Y-139382324D01*
X121256975Y-139310064D01*
X121338523Y-139247946D01*
X121339997Y-139246936D01*
X121394258Y-139213623D01*
X121458451Y-139179821D01*
X121524721Y-139149172D01*
X121585208Y-139125317D01*
X121632057Y-139111899D01*
X121680236Y-139102902D01*
X121680236Y-138434317D01*
X121726917Y-138441892D01*
G37*
G36*
X124123802Y-137507342D02*
G01*
X124152576Y-137529893D01*
X124156595Y-137534033D01*
X124181211Y-137572580D01*
X124180343Y-137610012D01*
X124154012Y-137648126D01*
X124138183Y-137661659D01*
X124097057Y-137678999D01*
X124058491Y-137673765D01*
X124027948Y-137647696D01*
X124010893Y-137602533D01*
X124010731Y-137601481D01*
X124012543Y-137554391D01*
X124034989Y-137522519D01*
X124078702Y-137504955D01*
X124094585Y-137502629D01*
X124123802Y-137507342D01*
G37*
G36*
X119951027Y-138042733D02*
G01*
X119974888Y-138067794D01*
X119984333Y-138107788D01*
X119984331Y-138108471D01*
X119979722Y-138142358D01*
X119968916Y-138165307D01*
X119952792Y-138174661D01*
X119917960Y-138180217D01*
X119881625Y-138175979D01*
X119856552Y-138162292D01*
X119856209Y-138161865D01*
X119846867Y-138136333D01*
X119845343Y-138101354D01*
X119845717Y-138098031D01*
X119860095Y-138060253D01*
X119886916Y-138038652D01*
X119919465Y-138032915D01*
X119951027Y-138042733D01*
G37*
G36*
X120917370Y-134719819D02*
G01*
X120952369Y-134746010D01*
X120971915Y-134784723D01*
X120973248Y-134830028D01*
X120953610Y-134875994D01*
X120946774Y-134884529D01*
X120921374Y-134900152D01*
X120880747Y-134904548D01*
X120860506Y-134903642D01*
X120815387Y-134890422D01*
X120789295Y-134860492D01*
X120780894Y-134812622D01*
X120781477Y-134798854D01*
X120795920Y-134751729D01*
X120828429Y-134722111D01*
X120877252Y-134711832D01*
X120917370Y-134719819D01*
G37*
G36*
X123143513Y-134185298D02*
G01*
X123191785Y-134194674D01*
X123222965Y-134220313D01*
X123241692Y-134265622D01*
X123244289Y-134285857D01*
X123237655Y-134329319D01*
X123218530Y-134367748D01*
X123191015Y-134390993D01*
X123142110Y-134402369D01*
X123092558Y-134395962D01*
X123053464Y-134371508D01*
X123030411Y-134331090D01*
X123027744Y-134320521D01*
X123024056Y-134263813D01*
X123040996Y-134221203D01*
X123077383Y-134194390D01*
X123132032Y-134185074D01*
X123143513Y-134185298D01*
G37*
G36*
X120479177Y-136717473D02*
G01*
X120512463Y-136740279D01*
X120529426Y-136770940D01*
X120536076Y-136815777D01*
X120527015Y-136859335D01*
X120504108Y-136894167D01*
X120469223Y-136912825D01*
X120446481Y-136915451D01*
X120394991Y-136908701D01*
X120353706Y-136886533D01*
X120351957Y-136884866D01*
X120335043Y-136852504D01*
X120330604Y-136809449D01*
X120338338Y-136766491D01*
X120357944Y-136734423D01*
X120389443Y-136716406D01*
X120434769Y-136709386D01*
X120479177Y-136717473D01*
G37*
G36*
X118835649Y-151678660D02*
G01*
X117801025Y-151678660D01*
X117801025Y-150644037D01*
X118835649Y-150644037D01*
X118835649Y-151678660D01*
G37*
G36*
X125388262Y-154437656D02*
G01*
X125043388Y-154437656D01*
X125043388Y-154092781D01*
X125388262Y-154092781D01*
X125388262Y-154437656D01*
G37*
G36*
X120904895Y-150299163D02*
G01*
X120560021Y-150299163D01*
X120560021Y-149954288D01*
X120904895Y-149954288D01*
X120904895Y-150299163D01*
G37*
G36*
X121594644Y-150644037D02*
G01*
X120904895Y-150644037D01*
X120904895Y-150299163D01*
X121594644Y-150299163D01*
X121594644Y-150644037D01*
G37*
G36*
X125043388Y-155817153D02*
G01*
X124698513Y-155817153D01*
X124698513Y-155127404D01*
X125043388Y-155127404D01*
X125043388Y-155817153D01*
G37*
G36*
X118490774Y-157541525D02*
G01*
X118490774Y-157886400D01*
X119180523Y-157886400D01*
X119180523Y-158576148D01*
X117111277Y-158576148D01*
X117111277Y-158231274D01*
X117456151Y-158231274D01*
X118145900Y-158231274D01*
X118145900Y-157886400D01*
X117801025Y-157886400D01*
X117801025Y-157541525D01*
X117456151Y-157541525D01*
X117456151Y-158231274D01*
X117111277Y-158231274D01*
X117111277Y-157196651D01*
X118145900Y-157196651D01*
X118490774Y-157196651D01*
X118490774Y-156851776D01*
X118835649Y-156851776D01*
X119870272Y-156851776D01*
X119870272Y-155817153D01*
X118835649Y-155817153D01*
X118835649Y-156851776D01*
X118490774Y-156851776D01*
X118145900Y-156851776D01*
X118145900Y-157196651D01*
X117111277Y-157196651D01*
X117111277Y-156851776D01*
X118145900Y-156851776D01*
X118145900Y-156506902D01*
X118490774Y-156506902D01*
X118490774Y-156162028D01*
X118145900Y-156162028D01*
X118145900Y-155817153D01*
X118490774Y-155817153D01*
X118490774Y-155127404D01*
X118145900Y-155127404D01*
X118145900Y-154782530D01*
X118490774Y-154782530D01*
X118835649Y-154782530D01*
X119180523Y-154782530D01*
X119525397Y-154782530D01*
X119525397Y-154437656D01*
X119180523Y-154437656D01*
X119180523Y-154782530D01*
X118835649Y-154782530D01*
X118835649Y-154437656D01*
X118490774Y-154437656D01*
X118490774Y-154782530D01*
X118145900Y-154782530D01*
X118145900Y-154437656D01*
X118490774Y-154437656D01*
X118490774Y-154092781D01*
X118835649Y-154092781D01*
X118835649Y-154437656D01*
X119180523Y-154437656D01*
X119180523Y-153747907D01*
X119870272Y-153747907D01*
X119870272Y-153403032D01*
X120904895Y-153403032D01*
X120904895Y-153747907D01*
X120215146Y-153747907D01*
X120215146Y-154092781D01*
X119870272Y-154092781D01*
X119870272Y-154782530D01*
X120560021Y-154782530D01*
X120560021Y-154437656D01*
X120904895Y-154437656D01*
X120904895Y-155472279D01*
X120215146Y-155472279D01*
X120215146Y-155127404D01*
X119525397Y-155127404D01*
X119525397Y-155472279D01*
X120215146Y-155472279D01*
X120215146Y-156851776D01*
X120560021Y-156851776D01*
X120560021Y-157541525D01*
X120215146Y-157541525D01*
X120215146Y-157196651D01*
X119525397Y-157196651D01*
X119525397Y-157541525D01*
X119180523Y-157541525D01*
X119180523Y-157196651D01*
X118835649Y-157196651D01*
X118835649Y-157541525D01*
X118490774Y-157541525D01*
G37*
G36*
X117111277Y-152368409D02*
G01*
X117111277Y-152006291D01*
X117473395Y-152006291D01*
X119163279Y-152006291D01*
X119163279Y-150316406D01*
X117473395Y-150316406D01*
X117473395Y-152006291D01*
X117111277Y-152006291D01*
X117111277Y-149954288D01*
X119525397Y-149954288D01*
X119525397Y-152368409D01*
X117111277Y-152368409D01*
G37*
G36*
X125733137Y-153058158D02*
G01*
X125388262Y-153058158D01*
X125388262Y-152713284D01*
X125733137Y-152713284D01*
X125733137Y-153058158D01*
G37*
G36*
X122974141Y-154782530D02*
G01*
X123663890Y-154782530D01*
X123663890Y-155127404D01*
X122974141Y-155127404D01*
X122974141Y-155472279D01*
X122284393Y-155472279D01*
X122284393Y-156162028D01*
X121939518Y-156162028D01*
X121939518Y-154782530D01*
X122284393Y-154782530D01*
X122284393Y-154437656D01*
X122974141Y-154437656D01*
X122974141Y-154782530D01*
G37*
G36*
X124008765Y-154437656D02*
G01*
X124353639Y-154437656D01*
X124353639Y-154782530D01*
X124698513Y-154782530D01*
X124698513Y-155127404D01*
X124008765Y-155127404D01*
X124008765Y-154782530D01*
X123663890Y-154782530D01*
X123663890Y-154437656D01*
X122974141Y-154437656D01*
X122974141Y-154092781D01*
X124008765Y-154092781D01*
X124008765Y-154437656D01*
G37*
G36*
X125733137Y-153747907D02*
G01*
X125388262Y-153747907D01*
X125388262Y-153403032D01*
X125733137Y-153403032D01*
X125733137Y-153747907D01*
G37*
G36*
X121249769Y-154437656D02*
G01*
X120904895Y-154437656D01*
X120904895Y-154092781D01*
X121249769Y-154092781D01*
X121249769Y-154437656D01*
G37*
G36*
X122284393Y-158576148D02*
G01*
X121939518Y-158576148D01*
X121939518Y-158231274D01*
X122284393Y-158231274D01*
X122284393Y-158576148D01*
G37*
G36*
X122974141Y-156162028D02*
G01*
X122629267Y-156162028D01*
X122629267Y-155817153D01*
X122974141Y-155817153D01*
X122974141Y-156162028D01*
G37*
G36*
X125043388Y-151678660D02*
G01*
X124008765Y-151678660D01*
X124008765Y-150644037D01*
X125043388Y-150644037D01*
X125043388Y-151678660D01*
G37*
G36*
X125733137Y-155817153D02*
G01*
X125388262Y-155817153D01*
X125388262Y-154437656D01*
X125733137Y-154437656D01*
X125733137Y-155817153D01*
G37*
G36*
X121594644Y-155817153D02*
G01*
X121249769Y-155817153D01*
X121249769Y-156162028D01*
X120560021Y-156162028D01*
X120560021Y-155817153D01*
X120904895Y-155817153D01*
X120904895Y-155472279D01*
X121249769Y-155472279D01*
X121249769Y-155127404D01*
X121594644Y-155127404D01*
X121594644Y-155817153D01*
G37*
G36*
X121939518Y-157196651D02*
G01*
X121594644Y-157196651D01*
X121594644Y-156506902D01*
X121249769Y-156506902D01*
X121249769Y-156162028D01*
X121939518Y-156162028D01*
X121939518Y-157196651D01*
G37*
G36*
X118145900Y-155817153D02*
G01*
X117801025Y-155817153D01*
X117801025Y-155472279D01*
X118145900Y-155472279D01*
X118145900Y-155817153D01*
G37*
G36*
X119525397Y-153058158D02*
G01*
X119180523Y-153058158D01*
X119180523Y-153403032D01*
X118835649Y-153403032D01*
X118835649Y-153058158D01*
X117801025Y-153058158D01*
X117801025Y-152713284D01*
X119525397Y-152713284D01*
X119525397Y-153058158D01*
G37*
G36*
X121594644Y-152368409D02*
G01*
X121939518Y-152368409D01*
X121939518Y-152023535D01*
X122284393Y-152023535D01*
X122284393Y-152368409D01*
X122629267Y-152368409D01*
X122629267Y-151678660D01*
X121939518Y-151678660D01*
X121939518Y-151333786D01*
X122284393Y-151333786D01*
X122284393Y-150988912D01*
X121939518Y-150988912D01*
X121939518Y-151333786D01*
X121594644Y-151333786D01*
X121594644Y-151678660D01*
X121249769Y-151678660D01*
X121249769Y-152023535D01*
X120904895Y-152023535D01*
X120904895Y-152368409D01*
X120560021Y-152368409D01*
X120560021Y-152023535D01*
X120215146Y-152023535D01*
X120215146Y-152368409D01*
X119870272Y-152368409D01*
X119870272Y-151678660D01*
X120215146Y-151678660D01*
X120560021Y-151678660D01*
X120560021Y-151333786D01*
X120215146Y-151333786D01*
X120215146Y-151678660D01*
X119870272Y-151678660D01*
X119870272Y-150988912D01*
X120904895Y-150988912D01*
X120904895Y-151678660D01*
X121249769Y-151678660D01*
X121249769Y-150988912D01*
X121939518Y-150988912D01*
X121939518Y-150644037D01*
X122284393Y-150644037D01*
X122284393Y-150988912D01*
X122629267Y-150988912D01*
X122629267Y-150644037D01*
X122974141Y-150644037D01*
X122974141Y-152713284D01*
X122629267Y-152713284D01*
X122629267Y-153403032D01*
X123663890Y-153403032D01*
X123663890Y-153058158D01*
X123319016Y-153058158D01*
X123319016Y-152713284D01*
X125043388Y-152713284D01*
X125043388Y-153058158D01*
X125388262Y-153058158D01*
X125388262Y-153403032D01*
X125043388Y-153403032D01*
X125043388Y-154092781D01*
X124353639Y-154092781D01*
X124353639Y-153747907D01*
X124698513Y-153747907D01*
X124698513Y-153058158D01*
X124008765Y-153058158D01*
X124008765Y-153747907D01*
X122974141Y-153747907D01*
X122974141Y-154092781D01*
X121939518Y-154092781D01*
X121939518Y-154437656D01*
X121594644Y-154437656D01*
X121594644Y-153058158D01*
X121939518Y-153058158D01*
X121939518Y-153747907D01*
X122629267Y-153747907D01*
X122629267Y-153403032D01*
X122284393Y-153403032D01*
X122284393Y-152713284D01*
X121594644Y-152713284D01*
X121594644Y-153058158D01*
X121249769Y-153058158D01*
X121249769Y-152023535D01*
X121594644Y-152023535D01*
X121594644Y-152368409D01*
G37*
G36*
X121594644Y-157541525D02*
G01*
X121249769Y-157541525D01*
X121249769Y-157886400D01*
X121594644Y-157886400D01*
X121594644Y-158576148D01*
X121249769Y-158576148D01*
X121249769Y-158231274D01*
X120904895Y-158231274D01*
X120904895Y-157886400D01*
X120560021Y-157886400D01*
X120560021Y-158231274D01*
X120904895Y-158231274D01*
X120904895Y-158576148D01*
X120560021Y-158576148D01*
X120560021Y-158231274D01*
X119525397Y-158231274D01*
X119525397Y-157886400D01*
X119870272Y-157886400D01*
X119870272Y-157541525D01*
X120215146Y-157541525D01*
X120215146Y-157886400D01*
X120560021Y-157886400D01*
X120560021Y-157541525D01*
X120904895Y-157541525D01*
X120904895Y-157196651D01*
X121594644Y-157196651D01*
X121594644Y-157541525D01*
G37*
G36*
X124008765Y-155472279D02*
G01*
X124353639Y-155472279D01*
X124353639Y-155817153D01*
X122974141Y-155817153D01*
X122974141Y-155472279D01*
X123663890Y-155472279D01*
X123663890Y-155127404D01*
X124008765Y-155127404D01*
X124008765Y-155472279D01*
G37*
G36*
X122974141Y-158576148D02*
G01*
X122629267Y-158576148D01*
X122629267Y-158231274D01*
X122974141Y-158231274D01*
X122974141Y-158576148D01*
G37*
G36*
X121939518Y-150299163D02*
G01*
X121594644Y-150299163D01*
X121594644Y-149954288D01*
X121939518Y-149954288D01*
X121939518Y-150299163D01*
G37*
G36*
X123319016Y-158576148D02*
G01*
X123319016Y-158214030D01*
X123681134Y-158214030D01*
X125371019Y-158214030D01*
X125371019Y-156524146D01*
X123681134Y-156524146D01*
X123681134Y-158214030D01*
X123319016Y-158214030D01*
X123319016Y-156162028D01*
X125733137Y-156162028D01*
X125733137Y-158576148D01*
X123319016Y-158576148D01*
G37*
G36*
X120904895Y-153058158D02*
G01*
X119870272Y-153058158D01*
X119870272Y-152713284D01*
X120904895Y-152713284D01*
X120904895Y-153058158D01*
G37*
G36*
X120904895Y-156851776D02*
G01*
X120560021Y-156851776D01*
X120560021Y-156506902D01*
X120904895Y-156506902D01*
X120904895Y-156851776D01*
G37*
G36*
X123319016Y-152368409D02*
G01*
X123319016Y-152006291D01*
X123681134Y-152006291D01*
X125371019Y-152006291D01*
X125371019Y-150316406D01*
X123681134Y-150316406D01*
X123681134Y-152006291D01*
X123319016Y-152006291D01*
X123319016Y-149954288D01*
X125733137Y-149954288D01*
X125733137Y-152368409D01*
X123319016Y-152368409D01*
G37*
G36*
X120215146Y-150299163D02*
G01*
X120560021Y-150299163D01*
X120560021Y-150644037D01*
X119870272Y-150644037D01*
X119870272Y-149954288D01*
X120215146Y-149954288D01*
X120215146Y-150299163D01*
G37*
G36*
X118835649Y-153747907D02*
G01*
X118145900Y-153747907D01*
X118145900Y-153403032D01*
X118835649Y-153403032D01*
X118835649Y-153747907D01*
G37*
G36*
X118145900Y-156506902D02*
G01*
X117111277Y-156506902D01*
X117111277Y-156162028D01*
X118145900Y-156162028D01*
X118145900Y-156506902D01*
G37*
G36*
X119525397Y-156506902D02*
G01*
X119180523Y-156506902D01*
X119180523Y-156162028D01*
X119525397Y-156162028D01*
X119525397Y-156506902D01*
G37*
G36*
X117801025Y-153747907D02*
G01*
X117456151Y-153747907D01*
X117456151Y-154092781D01*
X118145900Y-154092781D01*
X118145900Y-154437656D01*
X117801025Y-154437656D01*
X117801025Y-155127404D01*
X117456151Y-155127404D01*
X117456151Y-155472279D01*
X117111277Y-155472279D01*
X117111277Y-154782530D01*
X117456151Y-154782530D01*
X117456151Y-154437656D01*
X117111277Y-154437656D01*
X117111277Y-153403032D01*
X117456151Y-153403032D01*
X117456151Y-153058158D01*
X117801025Y-153058158D01*
X117801025Y-153747907D01*
G37*
G36*
X122629267Y-157886400D02*
G01*
X122629267Y-158231274D01*
X122284393Y-158231274D01*
X122284393Y-157541525D01*
X122629267Y-157541525D01*
X122629267Y-157196651D01*
X122284393Y-157196651D01*
X122284393Y-157541525D01*
X121939518Y-157541525D01*
X121939518Y-157196651D01*
X122284393Y-157196651D01*
X122284393Y-156162028D01*
X122629267Y-156162028D01*
X122629267Y-156506902D01*
X122974141Y-156506902D01*
X122974141Y-157886400D01*
X122629267Y-157886400D01*
G37*
G36*
X125043388Y-157886400D02*
G01*
X124008765Y-157886400D01*
X124008765Y-156851776D01*
X125043388Y-156851776D01*
X125043388Y-157886400D01*
G37*
G36*
X121594644Y-154782530D02*
G01*
X121249769Y-154782530D01*
X121249769Y-154437656D01*
X121594644Y-154437656D01*
X121594644Y-154782530D01*
G37*
%TD*%
M02*
