<?xml version="1.0" standalone="no"?>
 <!DOCTYPE svg PUBLIC "-//W3C//DTD SVG 1.1//EN" 
 "http://www.w3.org/Graphics/SVG/1.1/DTD/svg11.dtd"> 
<svg
  xmlns:svg="http://www.w3.org/2000/svg"
  xmlns="http://www.w3.org/2000/svg"
  xmlns:xlink="http://www.w3.org/1999/xlink"
  version="1.1"
  width="29.700220cm" height="21.000720cm" viewBox="0 0 297002200 210007200">
<title>SVG Picture created as GlowTube-F_Paste.svg date 2022/03/25 12:21:38 </title>
  <desc>Picture generated by PCBNEW </desc>
<g style="fill:#000000; fill-opacity:1.000000;stroke:#000000; stroke-opacity:1.000000;
stroke-linecap:round; stroke-linejoin:round;"
 transform="translate(0 0) scale(1 1)">
</g>
<g style="fill:#000000; fill-opacity:0.0; 
stroke:#000000; stroke-width:0.000000; stroke-opacity:1; 
stroke-linecap:round; stroke-linejoin:round;">
</g>
<g style="fill:#000000; fill-opacity:0.0; 
stroke:#000000; stroke-width:240000.000000; stroke-opacity:1; 
stroke-linecap:round; stroke-linejoin:round;">
<path d="M139839199.992439 105255843.971780 A721249.000000 721249.000000 0.0 0 0 139329199.971780 105765843.992439" />
<path d="M140689200.028220 105765843.992439 A721249.000000 721249.000000 0.0 0 0 140179200.007561 105255843.971780" />
<path d="M140179200.007561 106615844.028220 A721249.000000 721249.000000 0.0 0 0 140689200.028220 106105844.007561" />
<path d="M139329199.971780 106105844.007561 A721249.000000 721249.000000 0.0 0 0 139839199.992439 106615844.028220" />
</g>
<g style="fill:#000000; fill-opacity:0.0; 
stroke:#000000; stroke-width:10000.000000; stroke-opacity:1; 
stroke-linecap:round; stroke-linejoin:round;">
<path d="M141434200 106760844
L141434200 107260844
" />
<path d="M141434200 107260844
L141134200 107260844
" />
<path d="M141134200 107260844
L141134200 106760844
" />
<path d="M141134200 106760844
L141434200 106760844
" />
</g>
<g style="fill:#000000; fill-opacity:1.0; 
stroke:#000000; stroke-width:10000.000000; stroke-opacity:1; 
stroke-linecap:round; stroke-linejoin:round;">
<path style="fill:#000000; fill-opacity:1.0; 
stroke:#000000; stroke-width:10000.000000; stroke-opacity:1; 
stroke-linecap:round; stroke-linejoin:round;fill-rule:evenodd;"
d="M 141434200.000000,107260844.000000
141134200.000000,107260844.000000
141134200.000000,106760844.000000
141434200.000000,106760844.000000
Z" /> 
</g>
<g style="fill:#000000; fill-opacity:0.0; 
stroke:#000000; stroke-width:10000.000000; stroke-opacity:1; 
stroke-linecap:round; stroke-linejoin:round;">
<path d="M142084200 106760844
L142084200 107260844
" />
<path d="M142084200 107260844
L141784200 107260844
" />
<path d="M141784200 107260844
L141784200 106760844
" />
<path d="M141784200 106760844
L142084200 106760844
" />
</g>
<g style="fill:#000000; fill-opacity:1.0; 
stroke:#000000; stroke-width:10000.000000; stroke-opacity:1; 
stroke-linecap:round; stroke-linejoin:round;">
<path style="fill:#000000; fill-opacity:1.0; 
stroke:#000000; stroke-width:10000.000000; stroke-opacity:1; 
stroke-linecap:round; stroke-linejoin:round;fill-rule:evenodd;"
d="M 142084200.000000,107260844.000000
141784200.000000,107260844.000000
141784200.000000,106760844.000000
142084200.000000,106760844.000000
Z" /> 
</g>
<g style="fill:#000000; fill-opacity:0.0; 
stroke:#000000; stroke-width:10000.000000; stroke-opacity:1; 
stroke-linecap:round; stroke-linejoin:round;">
<path d="M142734200 106760844
L142734200 107260844
" />
<path d="M142734200 107260844
L142434200 107260844
" />
<path d="M142434200 107260844
L142434200 106760844
" />
<path d="M142434200 106760844
L142734200 106760844
" />
</g>
<g style="fill:#000000; fill-opacity:1.0; 
stroke:#000000; stroke-width:10000.000000; stroke-opacity:1; 
stroke-linecap:round; stroke-linejoin:round;">
<path style="fill:#000000; fill-opacity:1.0; 
stroke:#000000; stroke-width:10000.000000; stroke-opacity:1; 
stroke-linecap:round; stroke-linejoin:round;fill-rule:evenodd;"
d="M 142734200.000000,107260844.000000
142434200.000000,107260844.000000
142434200.000000,106760844.000000
142734200.000000,106760844.000000
Z" /> 
</g>
<g style="fill:#000000; fill-opacity:0.0; 
stroke:#000000; stroke-width:10000.000000; stroke-opacity:1; 
stroke-linecap:round; stroke-linejoin:round;">
<path d="M142084200 104610844
L142084200 105110844
" />
<path d="M142084200 105110844
L141784200 105110844
" />
<path d="M141784200 105110844
L141784200 104610844
" />
<path d="M141784200 104610844
L142084200 104610844
" />
</g>
<g style="fill:#000000; fill-opacity:1.0; 
stroke:#000000; stroke-width:10000.000000; stroke-opacity:1; 
stroke-linecap:round; stroke-linejoin:round;">
<path style="fill:#000000; fill-opacity:1.0; 
stroke:#000000; stroke-width:10000.000000; stroke-opacity:1; 
stroke-linecap:round; stroke-linejoin:round;fill-rule:evenodd;"
d="M 142084200.000000,105110844.000000
141784200.000000,105110844.000000
141784200.000000,104610844.000000
142084200.000000,104610844.000000
Z" /> 
</g>
<g style="fill:#000000; fill-opacity:0.0; 
stroke:#000000; stroke-width:10000.000000; stroke-opacity:1; 
stroke-linecap:round; stroke-linejoin:round;">
<path d="M141434200 104610844
L141434200 105110844
" />
<path d="M141434200 105110844
L141134200 105110844
" />
<path d="M141134200 105110844
L141134200 104610844
" />
<path d="M141134200 104610844
L141434200 104610844
" />
</g>
<g style="fill:#000000; fill-opacity:1.0; 
stroke:#000000; stroke-width:10000.000000; stroke-opacity:1; 
stroke-linecap:round; stroke-linejoin:round;">
<path style="fill:#000000; fill-opacity:1.0; 
stroke:#000000; stroke-width:10000.000000; stroke-opacity:1; 
stroke-linecap:round; stroke-linejoin:round;fill-rule:evenodd;"
d="M 141434200.000000,105110844.000000
141134200.000000,105110844.000000
141134200.000000,104610844.000000
141434200.000000,104610844.000000
Z" /> 
</g>
<g style="fill:#000000; fill-opacity:0.0; 
stroke:#000000; stroke-width:10000.000000; stroke-opacity:1; 
stroke-linecap:round; stroke-linejoin:round;">
<path d="M142734200 104610844
L142734200 105110844
" />
<path d="M142734200 105110844
L142434200 105110844
" />
<path d="M142434200 105110844
L142434200 104610844
" />
<path d="M142434200 104610844
L142734200 104610844
" />
</g>
<g style="fill:#000000; fill-opacity:1.0; 
stroke:#000000; stroke-width:10000.000000; stroke-opacity:1; 
stroke-linecap:round; stroke-linejoin:round;">
<path style="fill:#000000; fill-opacity:1.0; 
stroke:#000000; stroke-width:10000.000000; stroke-opacity:1; 
stroke-linecap:round; stroke-linejoin:round;fill-rule:evenodd;"
d="M 142734200.000000,105110844.000000
142434200.000000,105110844.000000
142434200.000000,104610844.000000
142734200.000000,104610844.000000
Z" /> 
<g >
</g>
<g style="fill:#000000; fill-opacity:1.0; 
stroke:#000000; stroke-width:1.000000; stroke-opacity:1; 
stroke-linecap:round; stroke-linejoin:round;">
<path style="fill:#000000; fill-opacity:1.0; 
stroke:#000000; stroke-width:1.000000; stroke-opacity:1; 
stroke-linecap:round; stroke-linejoin:round;fill-rule:evenodd;"
d="M 98767500.000000,147082500.000000
98858387.000000,147100579.000000
98935438.000000,147152062.000000
98986921.000000,147229113.000000
99005000.000000,147320000.000000
99005000.000000,147820000.000000
98986921.000000,147910887.000000
98935438.000000,147987938.000000
98858387.000000,148039421.000000
98767500.000000,148057500.000000
98292500.000000,148057500.000000
98201613.000000,148039421.000000
98124562.000000,147987938.000000
98073079.000000,147910887.000000
98055000.000000,147820000.000000
98055000.000000,147320000.000000
98073079.000000,147229113.000000
98124562.000000,147152062.000000
98201613.000000,147100579.000000
98292500.000000,147082500.000000
Z" /> 
<path style="fill:#000000; fill-opacity:1.0; 
stroke:#000000; stroke-width:1.000000; stroke-opacity:1; 
stroke-linecap:round; stroke-linejoin:round;fill-rule:evenodd;"
d="M 98767500.000000,148907500.000000
98858387.000000,148925579.000000
98935438.000000,148977062.000000
98986921.000000,149054113.000000
99005000.000000,149145000.000000
99005000.000000,149645000.000000
98986921.000000,149735887.000000
98935438.000000,149812938.000000
98858387.000000,149864421.000000
98767500.000000,149882500.000000
98292500.000000,149882500.000000
98201613.000000,149864421.000000
98124562.000000,149812938.000000
98073079.000000,149735887.000000
98055000.000000,149645000.000000
98055000.000000,149145000.000000
98073079.000000,149054113.000000
98124562.000000,148977062.000000
98201613.000000,148925579.000000
98292500.000000,148907500.000000
Z" /> 
</g>
<g >
</g>
<g style="fill:#000000; fill-opacity:1.0; 
stroke:#000000; stroke-width:1.000000; stroke-opacity:1; 
stroke-linecap:round; stroke-linejoin:round;">
<path style="fill:#000000; fill-opacity:1.0; 
stroke:#000000; stroke-width:1.000000; stroke-opacity:1; 
stroke-linecap:round; stroke-linejoin:round;fill-rule:evenodd;"
d="M 123143488.000000,139539243.000000
123143488.000000,138039245.000000
125143486.000000,138039245.000000
125143486.000000,139539243.000000
Z" /> 
<path style="fill:#000000; fill-opacity:1.0; 
stroke:#000000; stroke-width:1.000000; stroke-opacity:1; 
stroke-linecap:round; stroke-linejoin:round;fill-rule:evenodd;"
d="M 123143488.000000,141839243.000000
123143488.000000,140339245.000000
125143486.000000,140339245.000000
125143486.000000,141839243.000000
Z" /> 
<path style="fill:#000000; fill-opacity:1.0; 
stroke:#000000; stroke-width:1.000000; stroke-opacity:1; 
stroke-linecap:round; stroke-linejoin:round;fill-rule:evenodd;"
d="M 123143488.000000,144139243.000000
123143488.000000,142639245.000000
125143486.000000,142639245.000000
125143486.000000,144139243.000000
Z" /> 
<path style="fill:#000000; fill-opacity:1.0; 
stroke:#000000; stroke-width:1.000000; stroke-opacity:1; 
stroke-linecap:round; stroke-linejoin:round;fill-rule:evenodd;"
d="M 129443488.000000,142989243.000000
129443488.000000,139189245.000000
131443486.000000,139189245.000000
131443486.000000,142989243.000000
Z" /> 
</g>
<g >
</g>
<g >
</g>
<g style="fill:#000000; fill-opacity:1.0; 
stroke:#000000; stroke-width:1.000000; stroke-opacity:1; 
stroke-linecap:round; stroke-linejoin:round;">
<path style="fill:#000000; fill-opacity:1.0; 
stroke:#000000; stroke-width:1.000000; stroke-opacity:1; 
stroke-linecap:round; stroke-linejoin:round;fill-rule:evenodd;"
d="M 151618901.000000,109705201.000000
152518899.000000,109705201.000000
152518899.000000,111705199.000000
151618901.000000,111705199.000000
Z" /> 
<path style="fill:#000000; fill-opacity:1.0; 
stroke:#000000; stroke-width:1.000000; stroke-opacity:1; 
stroke-linecap:round; stroke-linejoin:round;fill-rule:evenodd;"
d="M 150348901.000000,109705201.000000
151248899.000000,109705201.000000
151248899.000000,111705199.000000
150348901.000000,111705199.000000
Z" /> 
<path style="fill:#000000; fill-opacity:1.0; 
stroke:#000000; stroke-width:1.000000; stroke-opacity:1; 
stroke-linecap:round; stroke-linejoin:round;fill-rule:evenodd;"
d="M 149078901.000000,109705201.000000
149978899.000000,109705201.000000
149978899.000000,111705199.000000
149078901.000000,111705199.000000
Z" /> 
<path style="fill:#000000; fill-opacity:1.0; 
stroke:#000000; stroke-width:1.000000; stroke-opacity:1; 
stroke-linecap:round; stroke-linejoin:round;fill-rule:evenodd;"
d="M 147808901.000000,109705201.000000
148708899.000000,109705201.000000
148708899.000000,111705199.000000
147808901.000000,111705199.000000
Z" /> 
<path style="fill:#000000; fill-opacity:1.0; 
stroke:#000000; stroke-width:1.000000; stroke-opacity:1; 
stroke-linecap:round; stroke-linejoin:round;fill-rule:evenodd;"
d="M 146538901.000000,109705201.000000
147438899.000000,109705201.000000
147438899.000000,111705199.000000
146538901.000000,111705199.000000
Z" /> 
<path style="fill:#000000; fill-opacity:1.0; 
stroke:#000000; stroke-width:1.000000; stroke-opacity:1; 
stroke-linecap:round; stroke-linejoin:round;fill-rule:evenodd;"
d="M 145268901.000000,109705201.000000
146168899.000000,109705201.000000
146168899.000000,111705199.000000
145268901.000000,111705199.000000
Z" /> 
<path style="fill:#000000; fill-opacity:1.0; 
stroke:#000000; stroke-width:1.000000; stroke-opacity:1; 
stroke-linecap:round; stroke-linejoin:round;fill-rule:evenodd;"
d="M 143998901.000000,109705201.000000
144898899.000000,109705201.000000
144898899.000000,111705199.000000
143998901.000000,111705199.000000
Z" /> 
<path style="fill:#000000; fill-opacity:1.0; 
stroke:#000000; stroke-width:1.000000; stroke-opacity:1; 
stroke-linecap:round; stroke-linejoin:round;fill-rule:evenodd;"
d="M 142728901.000000,109705201.000000
143628899.000000,109705201.000000
143628899.000000,111705199.000000
142728901.000000,111705199.000000
Z" /> 
<path style="fill:#000000; fill-opacity:1.0; 
stroke:#000000; stroke-width:1.000000; stroke-opacity:1; 
stroke-linecap:round; stroke-linejoin:round;fill-rule:evenodd;"
d="M 141458901.000000,109705201.000000
142358899.000000,109705201.000000
142358899.000000,111705199.000000
141458901.000000,111705199.000000
Z" /> 
<path style="fill:#000000; fill-opacity:1.0; 
stroke:#000000; stroke-width:1.000000; stroke-opacity:1; 
stroke-linecap:round; stroke-linejoin:round;fill-rule:evenodd;"
d="M 140188901.000000,109705201.000000
141088899.000000,109705201.000000
141088899.000000,111705199.000000
140188901.000000,111705199.000000
Z" /> 
<path style="fill:#000000; fill-opacity:1.0; 
stroke:#000000; stroke-width:1.000000; stroke-opacity:1; 
stroke-linecap:round; stroke-linejoin:round;fill-rule:evenodd;"
d="M 138918901.000000,109705201.000000
139818899.000000,109705201.000000
139818899.000000,111705199.000000
138918901.000000,111705199.000000
Z" /> 
<path style="fill:#000000; fill-opacity:1.0; 
stroke:#000000; stroke-width:1.000000; stroke-opacity:1; 
stroke-linecap:round; stroke-linejoin:round;fill-rule:evenodd;"
d="M 137648901.000000,109705201.000000
138548899.000000,109705201.000000
138548899.000000,111705199.000000
137648901.000000,111705199.000000
Z" /> 
<path style="fill:#000000; fill-opacity:1.0; 
stroke:#000000; stroke-width:1.000000; stroke-opacity:1; 
stroke-linecap:round; stroke-linejoin:round;fill-rule:evenodd;"
d="M 136378901.000000,109705201.000000
137278899.000000,109705201.000000
137278899.000000,111705199.000000
136378901.000000,111705199.000000
Z" /> 
<path style="fill:#000000; fill-opacity:1.0; 
stroke:#000000; stroke-width:1.000000; stroke-opacity:1; 
stroke-linecap:round; stroke-linejoin:round;fill-rule:evenodd;"
d="M 135108901.000000,109705201.000000
136008899.000000,109705201.000000
136008899.000000,111705199.000000
135108901.000000,111705199.000000
Z" /> 
<path style="fill:#000000; fill-opacity:1.0; 
stroke:#000000; stroke-width:1.000000; stroke-opacity:1; 
stroke-linecap:round; stroke-linejoin:round;fill-rule:evenodd;"
d="M 133558901.000000,113040201.000000
135558899.000000,113040201.000000
135558899.000000,113940199.000000
133558901.000000,113940199.000000
Z" /> 
<path style="fill:#000000; fill-opacity:1.0; 
stroke:#000000; stroke-width:1.000000; stroke-opacity:1; 
stroke-linecap:round; stroke-linejoin:round;fill-rule:evenodd;"
d="M 133558901.000000,114310201.000000
135558899.000000,114310201.000000
135558899.000000,115210199.000000
133558901.000000,115210199.000000
Z" /> 
<path style="fill:#000000; fill-opacity:1.0; 
stroke:#000000; stroke-width:1.000000; stroke-opacity:1; 
stroke-linecap:round; stroke-linejoin:round;fill-rule:evenodd;"
d="M 133558901.000000,115580201.000000
135558899.000000,115580201.000000
135558899.000000,116480199.000000
133558901.000000,116480199.000000
Z" /> 
<path style="fill:#000000; fill-opacity:1.0; 
stroke:#000000; stroke-width:1.000000; stroke-opacity:1; 
stroke-linecap:round; stroke-linejoin:round;fill-rule:evenodd;"
d="M 133558901.000000,116850201.000000
135558899.000000,116850201.000000
135558899.000000,117750199.000000
133558901.000000,117750199.000000
Z" /> 
<path style="fill:#000000; fill-opacity:1.0; 
stroke:#000000; stroke-width:1.000000; stroke-opacity:1; 
stroke-linecap:round; stroke-linejoin:round;fill-rule:evenodd;"
d="M 133558901.000000,118120201.000000
135558899.000000,118120201.000000
135558899.000000,119020199.000000
133558901.000000,119020199.000000
Z" /> 
<path style="fill:#000000; fill-opacity:1.0; 
stroke:#000000; stroke-width:1.000000; stroke-opacity:1; 
stroke-linecap:round; stroke-linejoin:round;fill-rule:evenodd;"
d="M 133558901.000000,119390201.000000
135558899.000000,119390201.000000
135558899.000000,120290199.000000
133558901.000000,120290199.000000
Z" /> 
<path style="fill:#000000; fill-opacity:1.0; 
stroke:#000000; stroke-width:1.000000; stroke-opacity:1; 
stroke-linecap:round; stroke-linejoin:round;fill-rule:evenodd;"
d="M 133558901.000000,120660201.000000
135558899.000000,120660201.000000
135558899.000000,121560199.000000
133558901.000000,121560199.000000
Z" /> 
<path style="fill:#000000; fill-opacity:1.0; 
stroke:#000000; stroke-width:1.000000; stroke-opacity:1; 
stroke-linecap:round; stroke-linejoin:round;fill-rule:evenodd;"
d="M 133558901.000000,121930201.000000
135558899.000000,121930201.000000
135558899.000000,122830199.000000
133558901.000000,122830199.000000
Z" /> 
<path style="fill:#000000; fill-opacity:1.0; 
stroke:#000000; stroke-width:1.000000; stroke-opacity:1; 
stroke-linecap:round; stroke-linejoin:round;fill-rule:evenodd;"
d="M 133558901.000000,123200201.000000
135558899.000000,123200201.000000
135558899.000000,124100199.000000
133558901.000000,124100199.000000
Z" /> 
<path style="fill:#000000; fill-opacity:1.0; 
stroke:#000000; stroke-width:1.000000; stroke-opacity:1; 
stroke-linecap:round; stroke-linejoin:round;fill-rule:evenodd;"
d="M 133558901.000000,124470201.000000
135558899.000000,124470201.000000
135558899.000000,125370199.000000
133558901.000000,125370199.000000
Z" /> 
<path style="fill:#000000; fill-opacity:1.0; 
stroke:#000000; stroke-width:1.000000; stroke-opacity:1; 
stroke-linecap:round; stroke-linejoin:round;fill-rule:evenodd;"
d="M 135108901.000000,126705201.000000
136008899.000000,126705201.000000
136008899.000000,128705199.000000
135108901.000000,128705199.000000
Z" /> 
<path style="fill:#000000; fill-opacity:1.0; 
stroke:#000000; stroke-width:1.000000; stroke-opacity:1; 
stroke-linecap:round; stroke-linejoin:round;fill-rule:evenodd;"
d="M 136378901.000000,126705201.000000
137278899.000000,126705201.000000
137278899.000000,128705199.000000
136378901.000000,128705199.000000
Z" /> 
<path style="fill:#000000; fill-opacity:1.0; 
stroke:#000000; stroke-width:1.000000; stroke-opacity:1; 
stroke-linecap:round; stroke-linejoin:round;fill-rule:evenodd;"
d="M 137648901.000000,126705201.000000
138548899.000000,126705201.000000
138548899.000000,128705199.000000
137648901.000000,128705199.000000
Z" /> 
<path style="fill:#000000; fill-opacity:1.0; 
stroke:#000000; stroke-width:1.000000; stroke-opacity:1; 
stroke-linecap:round; stroke-linejoin:round;fill-rule:evenodd;"
d="M 138918901.000000,126705201.000000
139818899.000000,126705201.000000
139818899.000000,128705199.000000
138918901.000000,128705199.000000
Z" /> 
<path style="fill:#000000; fill-opacity:1.0; 
stroke:#000000; stroke-width:1.000000; stroke-opacity:1; 
stroke-linecap:round; stroke-linejoin:round;fill-rule:evenodd;"
d="M 140188901.000000,126705201.000000
141088899.000000,126705201.000000
141088899.000000,128705199.000000
140188901.000000,128705199.000000
Z" /> 
<path style="fill:#000000; fill-opacity:1.0; 
stroke:#000000; stroke-width:1.000000; stroke-opacity:1; 
stroke-linecap:round; stroke-linejoin:round;fill-rule:evenodd;"
d="M 141458901.000000,126705201.000000
142358899.000000,126705201.000000
142358899.000000,128705199.000000
141458901.000000,128705199.000000
Z" /> 
<path style="fill:#000000; fill-opacity:1.0; 
stroke:#000000; stroke-width:1.000000; stroke-opacity:1; 
stroke-linecap:round; stroke-linejoin:round;fill-rule:evenodd;"
d="M 142728901.000000,126705201.000000
143628899.000000,126705201.000000
143628899.000000,128705199.000000
142728901.000000,128705199.000000
Z" /> 
<path style="fill:#000000; fill-opacity:1.0; 
stroke:#000000; stroke-width:1.000000; stroke-opacity:1; 
stroke-linecap:round; stroke-linejoin:round;fill-rule:evenodd;"
d="M 143998901.000000,126705201.000000
144898899.000000,126705201.000000
144898899.000000,128705199.000000
143998901.000000,128705199.000000
Z" /> 
<path style="fill:#000000; fill-opacity:1.0; 
stroke:#000000; stroke-width:1.000000; stroke-opacity:1; 
stroke-linecap:round; stroke-linejoin:round;fill-rule:evenodd;"
d="M 145268901.000000,126705201.000000
146168899.000000,126705201.000000
146168899.000000,128705199.000000
145268901.000000,128705199.000000
Z" /> 
<path style="fill:#000000; fill-opacity:1.0; 
stroke:#000000; stroke-width:1.000000; stroke-opacity:1; 
stroke-linecap:round; stroke-linejoin:round;fill-rule:evenodd;"
d="M 146538901.000000,126705201.000000
147438899.000000,126705201.000000
147438899.000000,128705199.000000
146538901.000000,128705199.000000
Z" /> 
<path style="fill:#000000; fill-opacity:1.0; 
stroke:#000000; stroke-width:1.000000; stroke-opacity:1; 
stroke-linecap:round; stroke-linejoin:round;fill-rule:evenodd;"
d="M 147808901.000000,126705201.000000
148708899.000000,126705201.000000
148708899.000000,128705199.000000
147808901.000000,128705199.000000
Z" /> 
<path style="fill:#000000; fill-opacity:1.0; 
stroke:#000000; stroke-width:1.000000; stroke-opacity:1; 
stroke-linecap:round; stroke-linejoin:round;fill-rule:evenodd;"
d="M 149078901.000000,126705201.000000
149978899.000000,126705201.000000
149978899.000000,128705199.000000
149078901.000000,128705199.000000
Z" /> 
<path style="fill:#000000; fill-opacity:1.0; 
stroke:#000000; stroke-width:1.000000; stroke-opacity:1; 
stroke-linecap:round; stroke-linejoin:round;fill-rule:evenodd;"
d="M 150348901.000000,126705201.000000
151248899.000000,126705201.000000
151248899.000000,128705199.000000
150348901.000000,128705199.000000
Z" /> 
<path style="fill:#000000; fill-opacity:1.0; 
stroke:#000000; stroke-width:1.000000; stroke-opacity:1; 
stroke-linecap:round; stroke-linejoin:round;fill-rule:evenodd;"
d="M 151618901.000000,126705201.000000
152518899.000000,126705201.000000
152518899.000000,128705199.000000
151618901.000000,128705199.000000
Z" /> 
<path style="fill:#000000; fill-opacity:1.0; 
stroke:#000000; stroke-width:1.000000; stroke-opacity:1; 
stroke-linecap:round; stroke-linejoin:round;fill-rule:evenodd;"
d="M 145738901.000000,115705201.000000
147068899.000000,115705201.000000
147068899.000000,117035199.000000
145738901.000000,117035199.000000
Z" /> 
<path style="fill:#000000; fill-opacity:1.0; 
stroke:#000000; stroke-width:1.000000; stroke-opacity:1; 
stroke-linecap:round; stroke-linejoin:round;fill-rule:evenodd;"
d="M 145738901.000000,117540201.000000
147068899.000000,117540201.000000
147068899.000000,118870199.000000
145738901.000000,118870199.000000
Z" /> 
<path style="fill:#000000; fill-opacity:1.0; 
stroke:#000000; stroke-width:1.000000; stroke-opacity:1; 
stroke-linecap:round; stroke-linejoin:round;fill-rule:evenodd;"
d="M 145738901.000000,119375201.000000
147068899.000000,119375201.000000
147068899.000000,120705199.000000
145738901.000000,120705199.000000
Z" /> 
<path style="fill:#000000; fill-opacity:1.0; 
stroke:#000000; stroke-width:1.000000; stroke-opacity:1; 
stroke-linecap:round; stroke-linejoin:round;fill-rule:evenodd;"
d="M 143903901.000000,115705201.000000
145233899.000000,115705201.000000
145233899.000000,117035199.000000
143903901.000000,117035199.000000
Z" /> 
<path style="fill:#000000; fill-opacity:1.0; 
stroke:#000000; stroke-width:1.000000; stroke-opacity:1; 
stroke-linecap:round; stroke-linejoin:round;fill-rule:evenodd;"
d="M 143903901.000000,117540201.000000
145233899.000000,117540201.000000
145233899.000000,118870199.000000
143903901.000000,118870199.000000
Z" /> 
<path style="fill:#000000; fill-opacity:1.0; 
stroke:#000000; stroke-width:1.000000; stroke-opacity:1; 
stroke-linecap:round; stroke-linejoin:round;fill-rule:evenodd;"
d="M 143903901.000000,119375201.000000
145233899.000000,119375201.000000
145233899.000000,120705199.000000
143903901.000000,120705199.000000
Z" /> 
<path style="fill:#000000; fill-opacity:1.0; 
stroke:#000000; stroke-width:1.000000; stroke-opacity:1; 
stroke-linecap:round; stroke-linejoin:round;fill-rule:evenodd;"
d="M 142068901.000000,115705201.000000
143398899.000000,115705201.000000
143398899.000000,117035199.000000
142068901.000000,117035199.000000
Z" /> 
<path style="fill:#000000; fill-opacity:1.0; 
stroke:#000000; stroke-width:1.000000; stroke-opacity:1; 
stroke-linecap:round; stroke-linejoin:round;fill-rule:evenodd;"
d="M 142068901.000000,117540201.000000
143398899.000000,117540201.000000
143398899.000000,118870199.000000
142068901.000000,118870199.000000
Z" /> 
<path style="fill:#000000; fill-opacity:1.0; 
stroke:#000000; stroke-width:1.000000; stroke-opacity:1; 
stroke-linecap:round; stroke-linejoin:round;fill-rule:evenodd;"
d="M 142068901.000000,119375201.000000
143398899.000000,119375201.000000
143398899.000000,120705199.000000
142068901.000000,120705199.000000
Z" /> 
</g>
<g >
</g>
<g style="fill:#000000; fill-opacity:1.0; 
stroke:#000000; stroke-width:1.000000; stroke-opacity:1; 
stroke-linecap:round; stroke-linejoin:round;">
<path style="fill:#000000; fill-opacity:1.0; 
stroke:#000000; stroke-width:1.000000; stroke-opacity:1; 
stroke-linecap:round; stroke-linejoin:round;fill-rule:evenodd;"
d="M 127097500.000000,148597500.000000
127079421.000000,148688387.000000
127027938.000000,148765438.000000
126950887.000000,148816921.000000
126860000.000000,148835000.000000
126260000.000000,148835000.000000
126169113.000000,148816921.000000
126092062.000000,148765438.000000
126040579.000000,148688387.000000
126022500.000000,148597500.000000
126022500.000000,148122500.000000
126040579.000000,148031613.000000
126092062.000000,147954562.000000
126169113.000000,147903079.000000
126260000.000000,147885000.000000
126860000.000000,147885000.000000
126950887.000000,147903079.000000
127027938.000000,147954562.000000
127079421.000000,148031613.000000
127097500.000000,148122500.000000
Z" /> 
<path style="fill:#000000; fill-opacity:1.0; 
stroke:#000000; stroke-width:1.000000; stroke-opacity:1; 
stroke-linecap:round; stroke-linejoin:round;fill-rule:evenodd;"
d="M 125372500.000000,148597500.000000
125354421.000000,148688387.000000
125302938.000000,148765438.000000
125225887.000000,148816921.000000
125135000.000000,148835000.000000
124535000.000000,148835000.000000
124444113.000000,148816921.000000
124367062.000000,148765438.000000
124315579.000000,148688387.000000
124297500.000000,148597500.000000
124297500.000000,148122500.000000
124315579.000000,148031613.000000
124367062.000000,147954562.000000
124444113.000000,147903079.000000
124535000.000000,147885000.000000
125135000.000000,147885000.000000
125225887.000000,147903079.000000
125302938.000000,147954562.000000
125354421.000000,148031613.000000
125372500.000000,148122500.000000
Z" /> 
</g>
<g >
</g>
<g style="fill:#000000; fill-opacity:1.0; 
stroke:#000000; stroke-width:1.000000; stroke-opacity:1; 
stroke-linecap:round; stroke-linejoin:round;">
<path style="fill:#000000; fill-opacity:1.0; 
stroke:#000000; stroke-width:1.000000; stroke-opacity:1; 
stroke-linecap:round; stroke-linejoin:round;fill-rule:evenodd;"
d="M 142077600.000000,146253300.000000
142059521.000000,146344187.000000
142008038.000000,146421238.000000
141930987.000000,146472721.000000
141840100.000000,146490800.000000
141340100.000000,146490800.000000
141249213.000000,146472721.000000
141172162.000000,146421238.000000
141120679.000000,146344187.000000
141102600.000000,146253300.000000
141102600.000000,145778300.000000
141120679.000000,145687413.000000
141172162.000000,145610362.000000
141249213.000000,145558879.000000
141340100.000000,145540800.000000
141840100.000000,145540800.000000
141930987.000000,145558879.000000
142008038.000000,145610362.000000
142059521.000000,145687413.000000
142077600.000000,145778300.000000
Z" /> 
<path style="fill:#000000; fill-opacity:1.0; 
stroke:#000000; stroke-width:1.000000; stroke-opacity:1; 
stroke-linecap:round; stroke-linejoin:round;fill-rule:evenodd;"
d="M 140252600.000000,146253300.000000
140234521.000000,146344187.000000
140183038.000000,146421238.000000
140105987.000000,146472721.000000
140015100.000000,146490800.000000
139515100.000000,146490800.000000
139424213.000000,146472721.000000
139347162.000000,146421238.000000
139295679.000000,146344187.000000
139277600.000000,146253300.000000
139277600.000000,145778300.000000
139295679.000000,145687413.000000
139347162.000000,145610362.000000
139424213.000000,145558879.000000
139515100.000000,145540800.000000
140015100.000000,145540800.000000
140105987.000000,145558879.000000
140183038.000000,145610362.000000
140234521.000000,145687413.000000
140252600.000000,145778300.000000
Z" /> 
</g>
<g >
</g>
<g style="fill:#000000; fill-opacity:1.0; 
stroke:#000000; stroke-width:1.000000; stroke-opacity:1; 
stroke-linecap:round; stroke-linejoin:round;">
<path style="fill:#000000; fill-opacity:1.0; 
stroke:#000000; stroke-width:1.000000; stroke-opacity:1; 
stroke-linecap:round; stroke-linejoin:round;fill-rule:evenodd;"
d="M 119556400.000000,163060700.000000
119538321.000000,163151587.000000
119486838.000000,163228638.000000
119409787.000000,163280121.000000
119318900.000000,163298200.000000
118718900.000000,163298200.000000
118628013.000000,163280121.000000
118550962.000000,163228638.000000
118499479.000000,163151587.000000
118481400.000000,163060700.000000
118481400.000000,162585700.000000
118499479.000000,162494813.000000
118550962.000000,162417762.000000
118628013.000000,162366279.000000
118718900.000000,162348200.000000
119318900.000000,162348200.000000
119409787.000000,162366279.000000
119486838.000000,162417762.000000
119538321.000000,162494813.000000
119556400.000000,162585700.000000
Z" /> 
<path style="fill:#000000; fill-opacity:1.0; 
stroke:#000000; stroke-width:1.000000; stroke-opacity:1; 
stroke-linecap:round; stroke-linejoin:round;fill-rule:evenodd;"
d="M 117831400.000000,163060700.000000
117813321.000000,163151587.000000
117761838.000000,163228638.000000
117684787.000000,163280121.000000
117593900.000000,163298200.000000
116993900.000000,163298200.000000
116903013.000000,163280121.000000
116825962.000000,163228638.000000
116774479.000000,163151587.000000
116756400.000000,163060700.000000
116756400.000000,162585700.000000
116774479.000000,162494813.000000
116825962.000000,162417762.000000
116903013.000000,162366279.000000
116993900.000000,162348200.000000
117593900.000000,162348200.000000
117684787.000000,162366279.000000
117761838.000000,162417762.000000
117813321.000000,162494813.000000
117831400.000000,162585700.000000
Z" /> 
</g>
<g >
</g>
<g style="fill:#000000; fill-opacity:1.0; 
stroke:#000000; stroke-width:1.000000; stroke-opacity:1; 
stroke-linecap:round; stroke-linejoin:round;">
<path style="fill:#000000; fill-opacity:1.0; 
stroke:#000000; stroke-width:1.000000; stroke-opacity:1; 
stroke-linecap:round; stroke-linejoin:round;fill-rule:evenodd;"
d="M 112716700.000000,162585700.000000
112734779.000000,162494813.000000
112786262.000000,162417762.000000
112863313.000000,162366279.000000
112954200.000000,162348200.000000
113454200.000000,162348200.000000
113545087.000000,162366279.000000
113622138.000000,162417762.000000
113673621.000000,162494813.000000
113691700.000000,162585700.000000
113691700.000000,163060700.000000
113673621.000000,163151587.000000
113622138.000000,163228638.000000
113545087.000000,163280121.000000
113454200.000000,163298200.000000
112954200.000000,163298200.000000
112863313.000000,163280121.000000
112786262.000000,163228638.000000
112734779.000000,163151587.000000
112716700.000000,163060700.000000
Z" /> 
<path style="fill:#000000; fill-opacity:1.0; 
stroke:#000000; stroke-width:1.000000; stroke-opacity:1; 
stroke-linecap:round; stroke-linejoin:round;fill-rule:evenodd;"
d="M 114541700.000000,162585700.000000
114559779.000000,162494813.000000
114611262.000000,162417762.000000
114688313.000000,162366279.000000
114779200.000000,162348200.000000
115279200.000000,162348200.000000
115370087.000000,162366279.000000
115447138.000000,162417762.000000
115498621.000000,162494813.000000
115516700.000000,162585700.000000
115516700.000000,163060700.000000
115498621.000000,163151587.000000
115447138.000000,163228638.000000
115370087.000000,163280121.000000
115279200.000000,163298200.000000
114779200.000000,163298200.000000
114688313.000000,163280121.000000
114611262.000000,163228638.000000
114559779.000000,163151587.000000
114541700.000000,163060700.000000
Z" /> 
</g>
<g >
</g>
<g style="fill:#000000; fill-opacity:1.0; 
stroke:#000000; stroke-width:1.000000; stroke-opacity:1; 
stroke-linecap:round; stroke-linejoin:round;">
<path style="fill:#000000; fill-opacity:1.0; 
stroke:#000000; stroke-width:1.000000; stroke-opacity:1; 
stroke-linecap:round; stroke-linejoin:round;fill-rule:evenodd;"
d="M 141457200.000000,144820600.000000
141399797.000000,144809182.000000
141351134.000000,144776666.000000
141318618.000000,144728003.000000
141307200.000000,144670600.000000
141307200.000000,143495600.000000
141318618.000000,143438197.000000
141351134.000000,143389534.000000
141399797.000000,143357018.000000
141457200.000000,143345600.000000
141757200.000000,143345600.000000
141814603.000000,143357018.000000
141863266.000000,143389534.000000
141895782.000000,143438197.000000
141907200.000000,143495600.000000
141907200.000000,144670600.000000
141895782.000000,144728003.000000
141863266.000000,144776666.000000
141814603.000000,144809182.000000
141757200.000000,144820600.000000
Z" /> 
<path style="fill:#000000; fill-opacity:1.0; 
stroke:#000000; stroke-width:1.000000; stroke-opacity:1; 
stroke-linecap:round; stroke-linejoin:round;fill-rule:evenodd;"
d="M 143357200.000000,144820600.000000
143299797.000000,144809182.000000
143251134.000000,144776666.000000
143218618.000000,144728003.000000
143207200.000000,144670600.000000
143207200.000000,143495600.000000
143218618.000000,143438197.000000
143251134.000000,143389534.000000
143299797.000000,143357018.000000
143357200.000000,143345600.000000
143657200.000000,143345600.000000
143714603.000000,143357018.000000
143763266.000000,143389534.000000
143795782.000000,143438197.000000
143807200.000000,143495600.000000
143807200.000000,144670600.000000
143795782.000000,144728003.000000
143763266.000000,144776666.000000
143714603.000000,144809182.000000
143657200.000000,144820600.000000
Z" /> 
<path style="fill:#000000; fill-opacity:1.0; 
stroke:#000000; stroke-width:1.000000; stroke-opacity:1; 
stroke-linecap:round; stroke-linejoin:round;fill-rule:evenodd;"
d="M 142407200.000000,142945600.000000
142349797.000000,142934182.000000
142301134.000000,142901666.000000
142268618.000000,142853003.000000
142257200.000000,142795600.000000
142257200.000000,141620600.000000
142268618.000000,141563197.000000
142301134.000000,141514534.000000
142349797.000000,141482018.000000
142407200.000000,141470600.000000
142707200.000000,141470600.000000
142764603.000000,141482018.000000
142813266.000000,141514534.000000
142845782.000000,141563197.000000
142857200.000000,141620600.000000
142857200.000000,142795600.000000
142845782.000000,142853003.000000
142813266.000000,142901666.000000
142764603.000000,142934182.000000
142707200.000000,142945600.000000
Z" /> 
</g>
<g >
</g>
<g style="fill:#000000; fill-opacity:1.0; 
stroke:#000000; stroke-width:1.000000; stroke-opacity:1; 
stroke-linecap:round; stroke-linejoin:round;">
<path style="fill:#000000; fill-opacity:1.0; 
stroke:#000000; stroke-width:1.000000; stroke-opacity:1; 
stroke-linecap:round; stroke-linejoin:round;fill-rule:evenodd;"
d="M 124297500.000000,149646500.000000
124315579.000000,149555613.000000
124367062.000000,149478562.000000
124444113.000000,149427079.000000
124535000.000000,149409000.000000
125135000.000000,149409000.000000
125225887.000000,149427079.000000
125302938.000000,149478562.000000
125354421.000000,149555613.000000
125372500.000000,149646500.000000
125372500.000000,150121500.000000
125354421.000000,150212387.000000
125302938.000000,150289438.000000
125225887.000000,150340921.000000
125135000.000000,150359000.000000
124535000.000000,150359000.000000
124444113.000000,150340921.000000
124367062.000000,150289438.000000
124315579.000000,150212387.000000
124297500.000000,150121500.000000
Z" /> 
<path style="fill:#000000; fill-opacity:1.0; 
stroke:#000000; stroke-width:1.000000; stroke-opacity:1; 
stroke-linecap:round; stroke-linejoin:round;fill-rule:evenodd;"
d="M 126022500.000000,149646500.000000
126040579.000000,149555613.000000
126092062.000000,149478562.000000
126169113.000000,149427079.000000
126260000.000000,149409000.000000
126860000.000000,149409000.000000
126950887.000000,149427079.000000
127027938.000000,149478562.000000
127079421.000000,149555613.000000
127097500.000000,149646500.000000
127097500.000000,150121500.000000
127079421.000000,150212387.000000
127027938.000000,150289438.000000
126950887.000000,150340921.000000
126860000.000000,150359000.000000
126260000.000000,150359000.000000
126169113.000000,150340921.000000
126092062.000000,150289438.000000
126040579.000000,150212387.000000
126022500.000000,150121500.000000
Z" /> 
</g>
<g >
</g>
<g style="fill:#000000; fill-opacity:1.0; 
stroke:#000000; stroke-width:1.000000; stroke-opacity:1; 
stroke-linecap:round; stroke-linejoin:round;">
<path style="fill:#000000; fill-opacity:1.0; 
stroke:#000000; stroke-width:1.000000; stroke-opacity:1; 
stroke-linecap:round; stroke-linejoin:round;fill-rule:evenodd;"
d="M 149447500.000000,107842500.000000
149465579.000000,107751613.000000
149517062.000000,107674562.000000
149594113.000000,107623079.000000
149685000.000000,107605000.000000
150285000.000000,107605000.000000
150375887.000000,107623079.000000
150452938.000000,107674562.000000
150504421.000000,107751613.000000
150522500.000000,107842500.000000
150522500.000000,108317500.000000
150504421.000000,108408387.000000
150452938.000000,108485438.000000
150375887.000000,108536921.000000
150285000.000000,108555000.000000
149685000.000000,108555000.000000
149594113.000000,108536921.000000
149517062.000000,108485438.000000
149465579.000000,108408387.000000
149447500.000000,108317500.000000
Z" /> 
<path style="fill:#000000; fill-opacity:1.0; 
stroke:#000000; stroke-width:1.000000; stroke-opacity:1; 
stroke-linecap:round; stroke-linejoin:round;fill-rule:evenodd;"
d="M 151172500.000000,107842500.000000
151190579.000000,107751613.000000
151242062.000000,107674562.000000
151319113.000000,107623079.000000
151410000.000000,107605000.000000
152010000.000000,107605000.000000
152100887.000000,107623079.000000
152177938.000000,107674562.000000
152229421.000000,107751613.000000
152247500.000000,107842500.000000
152247500.000000,108317500.000000
152229421.000000,108408387.000000
152177938.000000,108485438.000000
152100887.000000,108536921.000000
152010000.000000,108555000.000000
151410000.000000,108555000.000000
151319113.000000,108536921.000000
151242062.000000,108485438.000000
151190579.000000,108408387.000000
151172500.000000,108317500.000000
Z" /> 
</g>
<g >
</g>
<g >
</g>
<g style="fill:#000000; fill-opacity:1.0; 
stroke:#000000; stroke-width:1.000000; stroke-opacity:1; 
stroke-linecap:round; stroke-linejoin:round;">
<path style="fill:#000000; fill-opacity:1.0; 
stroke:#000000; stroke-width:1.000000; stroke-opacity:1; 
stroke-linecap:round; stroke-linejoin:round;fill-rule:evenodd;"
d="M 145647599.000000,93082202.000000
145647599.000000,93437800.000000
143971201.000000,93437800.000000
143971201.000000,93082202.000000
Z" /> 
<path style="fill:#000000; fill-opacity:1.0; 
stroke:#000000; stroke-width:1.000000; stroke-opacity:1; 
stroke-linecap:round; stroke-linejoin:round;fill-rule:evenodd;"
d="M 145647599.000000,92432201.000000
145647599.000000,92787799.000000
143971201.000000,92787799.000000
143971201.000000,92432201.000000
Z" /> 
<path style="fill:#000000; fill-opacity:1.0; 
stroke:#000000; stroke-width:1.000000; stroke-opacity:1; 
stroke-linecap:round; stroke-linejoin:round;fill-rule:evenodd;"
d="M 145647599.000000,91782200.000000
145647599.000000,92137798.000000
143971201.000000,92137798.000000
143971201.000000,91782200.000000
Z" /> 
<path style="fill:#000000; fill-opacity:1.0; 
stroke:#000000; stroke-width:1.000000; stroke-opacity:1; 
stroke-linecap:round; stroke-linejoin:round;fill-rule:evenodd;"
d="M 145647599.000000,91132201.000000
145647599.000000,91487799.000000
143971201.000000,91487799.000000
143971201.000000,91132201.000000
Z" /> 
<path style="fill:#000000; fill-opacity:1.0; 
stroke:#000000; stroke-width:1.000000; stroke-opacity:1; 
stroke-linecap:round; stroke-linejoin:round;fill-rule:evenodd;"
d="M 145647599.000000,90482202.000000
145647599.000000,90837800.000000
143971201.000000,90837800.000000
143971201.000000,90482202.000000
Z" /> 
<path style="fill:#000000; fill-opacity:1.0; 
stroke:#000000; stroke-width:1.000000; stroke-opacity:1; 
stroke-linecap:round; stroke-linejoin:round;fill-rule:evenodd;"
d="M 145647599.000000,89832201.000000
145647599.000000,90187799.000000
143971201.000000,90187799.000000
143971201.000000,89832201.000000
Z" /> 
<path style="fill:#000000; fill-opacity:1.0; 
stroke:#000000; stroke-width:1.000000; stroke-opacity:1; 
stroke-linecap:round; stroke-linejoin:round;fill-rule:evenodd;"
d="M 145647599.000000,89182202.000000
145647599.000000,89537800.000000
143971201.000000,89537800.000000
143971201.000000,89182202.000000
Z" /> 
<path style="fill:#000000; fill-opacity:1.0; 
stroke:#000000; stroke-width:1.000000; stroke-opacity:1; 
stroke-linecap:round; stroke-linejoin:round;fill-rule:evenodd;"
d="M 140008799.000000,89182200.000000
140008799.000000,89537798.000000
138332401.000000,89537798.000000
138332401.000000,89182200.000000
Z" /> 
<path style="fill:#000000; fill-opacity:1.0; 
stroke:#000000; stroke-width:1.000000; stroke-opacity:1; 
stroke-linecap:round; stroke-linejoin:round;fill-rule:evenodd;"
d="M 140008799.000000,89832201.000000
140008799.000000,90187799.000000
138332401.000000,90187799.000000
138332401.000000,89832201.000000
Z" /> 
<path style="fill:#000000; fill-opacity:1.0; 
stroke:#000000; stroke-width:1.000000; stroke-opacity:1; 
stroke-linecap:round; stroke-linejoin:round;fill-rule:evenodd;"
d="M 140008799.000000,90482200.000000
140008799.000000,90837798.000000
138332401.000000,90837798.000000
138332401.000000,90482200.000000
Z" /> 
<path style="fill:#000000; fill-opacity:1.0; 
stroke:#000000; stroke-width:1.000000; stroke-opacity:1; 
stroke-linecap:round; stroke-linejoin:round;fill-rule:evenodd;"
d="M 140008799.000000,91132201.000000
140008799.000000,91487799.000000
138332401.000000,91487799.000000
138332401.000000,91132201.000000
Z" /> 
<path style="fill:#000000; fill-opacity:1.0; 
stroke:#000000; stroke-width:1.000000; stroke-opacity:1; 
stroke-linecap:round; stroke-linejoin:round;fill-rule:evenodd;"
d="M 140008799.000000,91782200.000000
140008799.000000,92137798.000000
138332401.000000,92137798.000000
138332401.000000,91782200.000000
Z" /> 
<path style="fill:#000000; fill-opacity:1.0; 
stroke:#000000; stroke-width:1.000000; stroke-opacity:1; 
stroke-linecap:round; stroke-linejoin:round;fill-rule:evenodd;"
d="M 140008799.000000,92432201.000000
140008799.000000,92787799.000000
138332401.000000,92787799.000000
138332401.000000,92432201.000000
Z" /> 
<path style="fill:#000000; fill-opacity:1.0; 
stroke:#000000; stroke-width:1.000000; stroke-opacity:1; 
stroke-linecap:round; stroke-linejoin:round;fill-rule:evenodd;"
d="M 140008799.000000,93082200.000000
140008799.000000,93437798.000000
138332401.000000,93437798.000000
138332401.000000,93082200.000000
Z" /> 
</g>
<g >
</g>
<g style="fill:#000000; fill-opacity:1.0; 
stroke:#000000; stroke-width:1.000000; stroke-opacity:1; 
stroke-linecap:round; stroke-linejoin:round;">
<path style="fill:#000000; fill-opacity:1.0; 
stroke:#000000; stroke-width:1.000000; stroke-opacity:1; 
stroke-linecap:round; stroke-linejoin:round;fill-rule:evenodd;"
d="M 154790000.000000,90440000.000000
154809030.000000,90344329.000000
154863223.000000,90263223.000000
154944329.000000,90209030.000000
155040000.000000,90190000.000000
158040000.000000,90190000.000000
158135671.000000,90209030.000000
158216777.000000,90263223.000000
158270970.000000,90344329.000000
158290000.000000,90440000.000000
158290000.000000,91540000.000000
158270970.000000,91635671.000000
158216777.000000,91716777.000000
158135671.000000,91770970.000000
158040000.000000,91790000.000000
155040000.000000,91790000.000000
154944329.000000,91770970.000000
154863223.000000,91716777.000000
154809030.000000,91635671.000000
154790000.000000,91540000.000000
Z" /> 
<path style="fill:#000000; fill-opacity:1.0; 
stroke:#000000; stroke-width:1.000000; stroke-opacity:1; 
stroke-linecap:round; stroke-linejoin:round;fill-rule:evenodd;"
d="M 160390000.000000,90440000.000000
160409030.000000,90344329.000000
160463223.000000,90263223.000000
160544329.000000,90209030.000000
160640000.000000,90190000.000000
163640000.000000,90190000.000000
163735671.000000,90209030.000000
163816777.000000,90263223.000000
163870970.000000,90344329.000000
163890000.000000,90440000.000000
163890000.000000,91540000.000000
163870970.000000,91635671.000000
163816777.000000,91716777.000000
163735671.000000,91770970.000000
163640000.000000,91790000.000000
160640000.000000,91790000.000000
160544329.000000,91770970.000000
160463223.000000,91716777.000000
160409030.000000,91635671.000000
160390000.000000,91540000.000000
Z" /> 
</g>
<g >
</g>
<g >
</g>
<g style="fill:#000000; fill-opacity:1.0; 
stroke:#000000; stroke-width:1.000000; stroke-opacity:1; 
stroke-linecap:round; stroke-linejoin:round;">
<path style="fill:#000000; fill-opacity:1.0; 
stroke:#000000; stroke-width:1.000000; stroke-opacity:1; 
stroke-linecap:round; stroke-linejoin:round;fill-rule:evenodd;"
d="M 137850400.000000,144846000.000000
137792997.000000,144834582.000000
137744334.000000,144802066.000000
137711818.000000,144753403.000000
137700400.000000,144696000.000000
137700400.000000,143521000.000000
137711818.000000,143463597.000000
137744334.000000,143414934.000000
137792997.000000,143382418.000000
137850400.000000,143371000.000000
138150400.000000,143371000.000000
138207803.000000,143382418.000000
138256466.000000,143414934.000000
138288982.000000,143463597.000000
138300400.000000,143521000.000000
138300400.000000,144696000.000000
138288982.000000,144753403.000000
138256466.000000,144802066.000000
138207803.000000,144834582.000000
138150400.000000,144846000.000000
Z" /> 
<path style="fill:#000000; fill-opacity:1.0; 
stroke:#000000; stroke-width:1.000000; stroke-opacity:1; 
stroke-linecap:round; stroke-linejoin:round;fill-rule:evenodd;"
d="M 139750400.000000,144846000.000000
139692997.000000,144834582.000000
139644334.000000,144802066.000000
139611818.000000,144753403.000000
139600400.000000,144696000.000000
139600400.000000,143521000.000000
139611818.000000,143463597.000000
139644334.000000,143414934.000000
139692997.000000,143382418.000000
139750400.000000,143371000.000000
140050400.000000,143371000.000000
140107803.000000,143382418.000000
140156466.000000,143414934.000000
140188982.000000,143463597.000000
140200400.000000,143521000.000000
140200400.000000,144696000.000000
140188982.000000,144753403.000000
140156466.000000,144802066.000000
140107803.000000,144834582.000000
140050400.000000,144846000.000000
Z" /> 
<path style="fill:#000000; fill-opacity:1.0; 
stroke:#000000; stroke-width:1.000000; stroke-opacity:1; 
stroke-linecap:round; stroke-linejoin:round;fill-rule:evenodd;"
d="M 138800400.000000,142971000.000000
138742997.000000,142959582.000000
138694334.000000,142927066.000000
138661818.000000,142878403.000000
138650400.000000,142821000.000000
138650400.000000,141646000.000000
138661818.000000,141588597.000000
138694334.000000,141539934.000000
138742997.000000,141507418.000000
138800400.000000,141496000.000000
139100400.000000,141496000.000000
139157803.000000,141507418.000000
139206466.000000,141539934.000000
139238982.000000,141588597.000000
139250400.000000,141646000.000000
139250400.000000,142821000.000000
139238982.000000,142878403.000000
139206466.000000,142927066.000000
139157803.000000,142959582.000000
139100400.000000,142971000.000000
Z" /> 
</g>
<g >
</g>
<g >
</g>
<g style="fill:#000000; fill-opacity:1.0; 
stroke:#000000; stroke-width:1.000000; stroke-opacity:1; 
stroke-linecap:round; stroke-linejoin:round;">
<path style="fill:#000000; fill-opacity:1.0; 
stroke:#000000; stroke-width:1.000000; stroke-opacity:1; 
stroke-linecap:round; stroke-linejoin:round;fill-rule:evenodd;"
d="M 128690000.000000,137075000.000000
128632597.000000,137063582.000000
128583934.000000,137031066.000000
128551418.000000,136982403.000000
128540000.000000,136925000.000000
128540000.000000,135750000.000000
128551418.000000,135692597.000000
128583934.000000,135643934.000000
128632597.000000,135611418.000000
128690000.000000,135600000.000000
128990000.000000,135600000.000000
129047403.000000,135611418.000000
129096066.000000,135643934.000000
129128582.000000,135692597.000000
129140000.000000,135750000.000000
129140000.000000,136925000.000000
129128582.000000,136982403.000000
129096066.000000,137031066.000000
129047403.000000,137063582.000000
128990000.000000,137075000.000000
Z" /> 
<path style="fill:#000000; fill-opacity:1.0; 
stroke:#000000; stroke-width:1.000000; stroke-opacity:1; 
stroke-linecap:round; stroke-linejoin:round;fill-rule:evenodd;"
d="M 130590000.000000,137075000.000000
130532597.000000,137063582.000000
130483934.000000,137031066.000000
130451418.000000,136982403.000000
130440000.000000,136925000.000000
130440000.000000,135750000.000000
130451418.000000,135692597.000000
130483934.000000,135643934.000000
130532597.000000,135611418.000000
130590000.000000,135600000.000000
130890000.000000,135600000.000000
130947403.000000,135611418.000000
130996066.000000,135643934.000000
131028582.000000,135692597.000000
131040000.000000,135750000.000000
131040000.000000,136925000.000000
131028582.000000,136982403.000000
130996066.000000,137031066.000000
130947403.000000,137063582.000000
130890000.000000,137075000.000000
Z" /> 
<path style="fill:#000000; fill-opacity:1.0; 
stroke:#000000; stroke-width:1.000000; stroke-opacity:1; 
stroke-linecap:round; stroke-linejoin:round;fill-rule:evenodd;"
d="M 129640000.000000,135200000.000000
129582597.000000,135188582.000000
129533934.000000,135156066.000000
129501418.000000,135107403.000000
129490000.000000,135050000.000000
129490000.000000,133875000.000000
129501418.000000,133817597.000000
129533934.000000,133768934.000000
129582597.000000,133736418.000000
129640000.000000,133725000.000000
129940000.000000,133725000.000000
129997403.000000,133736418.000000
130046066.000000,133768934.000000
130078582.000000,133817597.000000
130090000.000000,133875000.000000
130090000.000000,135050000.000000
130078582.000000,135107403.000000
130046066.000000,135156066.000000
129997403.000000,135188582.000000
129940000.000000,135200000.000000
Z" /> 
</g>
<g >
</g>
<g style="fill:#000000; fill-opacity:1.0; 
stroke:#000000; stroke-width:1.000000; stroke-opacity:1; 
stroke-linecap:round; stroke-linejoin:round;">
<path style="fill:#000000; fill-opacity:1.0; 
stroke:#000000; stroke-width:1.000000; stroke-opacity:1; 
stroke-linecap:round; stroke-linejoin:round;fill-rule:evenodd;"
d="M 100557500.000000,147090000.000000
100648387.000000,147108079.000000
100725438.000000,147159562.000000
100776921.000000,147236613.000000
100795000.000000,147327500.000000
100795000.000000,147827500.000000
100776921.000000,147918387.000000
100725438.000000,147995438.000000
100648387.000000,148046921.000000
100557500.000000,148065000.000000
100082500.000000,148065000.000000
99991613.000000,148046921.000000
99914562.000000,147995438.000000
99863079.000000,147918387.000000
99845000.000000,147827500.000000
99845000.000000,147327500.000000
99863079.000000,147236613.000000
99914562.000000,147159562.000000
99991613.000000,147108079.000000
100082500.000000,147090000.000000
Z" /> 
<path style="fill:#000000; fill-opacity:1.0; 
stroke:#000000; stroke-width:1.000000; stroke-opacity:1; 
stroke-linecap:round; stroke-linejoin:round;fill-rule:evenodd;"
d="M 100557500.000000,148915000.000000
100648387.000000,148933079.000000
100725438.000000,148984562.000000
100776921.000000,149061613.000000
100795000.000000,149152500.000000
100795000.000000,149652500.000000
100776921.000000,149743387.000000
100725438.000000,149820438.000000
100648387.000000,149871921.000000
100557500.000000,149890000.000000
100082500.000000,149890000.000000
99991613.000000,149871921.000000
99914562.000000,149820438.000000
99863079.000000,149743387.000000
99845000.000000,149652500.000000
99845000.000000,149152500.000000
99863079.000000,149061613.000000
99914562.000000,148984562.000000
99991613.000000,148933079.000000
100082500.000000,148915000.000000
Z" /> 
</g>
<g >
</g>
<g style="fill:#000000; fill-opacity:1.0; 
stroke:#000000; stroke-width:1.000000; stroke-opacity:1; 
stroke-linecap:round; stroke-linejoin:round;">
<path style="fill:#000000; fill-opacity:1.0; 
stroke:#000000; stroke-width:1.000000; stroke-opacity:1; 
stroke-linecap:round; stroke-linejoin:round;fill-rule:evenodd;"
d="M 101925000.000000,147320000.000000
101944030.000000,147224329.000000
101998223.000000,147143223.000000
102079329.000000,147089030.000000
102175000.000000,147070000.000000
102975000.000000,147070000.000000
103070671.000000,147089030.000000
103151777.000000,147143223.000000
103205970.000000,147224329.000000
103225000.000000,147320000.000000
103225000.000000,150220000.000000
103205970.000000,150315671.000000
103151777.000000,150396777.000000
103070671.000000,150450970.000000
102975000.000000,150470000.000000
102175000.000000,150470000.000000
102079329.000000,150450970.000000
101998223.000000,150396777.000000
101944030.000000,150315671.000000
101925000.000000,150220000.000000
Z" /> 
<path style="fill:#000000; fill-opacity:1.0; 
stroke:#000000; stroke-width:1.000000; stroke-opacity:1; 
stroke-linecap:round; stroke-linejoin:round;fill-rule:evenodd;"
d="M 106375000.000000,147320000.000000
106394030.000000,147224329.000000
106448223.000000,147143223.000000
106529329.000000,147089030.000000
106625000.000000,147070000.000000
107425000.000000,147070000.000000
107520671.000000,147089030.000000
107601777.000000,147143223.000000
107655970.000000,147224329.000000
107675000.000000,147320000.000000
107675000.000000,150220000.000000
107655970.000000,150315671.000000
107601777.000000,150396777.000000
107520671.000000,150450970.000000
107425000.000000,150470000.000000
106625000.000000,150470000.000000
106529329.000000,150450970.000000
106448223.000000,150396777.000000
106394030.000000,150315671.000000
106375000.000000,150220000.000000
Z" /> 
</g>
<g >
</g>
<g style="fill:#000000; fill-opacity:1.0; 
stroke:#000000; stroke-width:1.000000; stroke-opacity:1; 
stroke-linecap:round; stroke-linejoin:round;">
<path style="fill:#000000; fill-opacity:1.0; 
stroke:#000000; stroke-width:1.000000; stroke-opacity:1; 
stroke-linecap:round; stroke-linejoin:round;fill-rule:evenodd;"
d="M 144250387.000000,107435844.000000
144159500.000000,107417765.000000
144082449.000000,107366282.000000
144030966.000000,107289231.000000
144012887.000000,107198344.000000
144012887.000000,106698344.000000
144030966.000000,106607457.000000
144082449.000000,106530406.000000
144159500.000000,106478923.000000
144250387.000000,106460844.000000
144725387.000000,106460844.000000
144816274.000000,106478923.000000
144893325.000000,106530406.000000
144944808.000000,106607457.000000
144962887.000000,106698344.000000
144962887.000000,107198344.000000
144944808.000000,107289231.000000
144893325.000000,107366282.000000
144816274.000000,107417765.000000
144725387.000000,107435844.000000
Z" /> 
<path style="fill:#000000; fill-opacity:1.0; 
stroke:#000000; stroke-width:1.000000; stroke-opacity:1; 
stroke-linecap:round; stroke-linejoin:round;fill-rule:evenodd;"
d="M 144250387.000000,105610844.000000
144159500.000000,105592765.000000
144082449.000000,105541282.000000
144030966.000000,105464231.000000
144012887.000000,105373344.000000
144012887.000000,104873344.000000
144030966.000000,104782457.000000
144082449.000000,104705406.000000
144159500.000000,104653923.000000
144250387.000000,104635844.000000
144725387.000000,104635844.000000
144816274.000000,104653923.000000
144893325.000000,104705406.000000
144944808.000000,104782457.000000
144962887.000000,104873344.000000
144962887.000000,105373344.000000
144944808.000000,105464231.000000
144893325.000000,105541282.000000
144816274.000000,105592765.000000
144725387.000000,105610844.000000
Z" /> 
</g>
<g >
</g>
<g style="fill:#000000; fill-opacity:1.0; 
stroke:#000000; stroke-width:1.000000; stroke-opacity:1; 
stroke-linecap:round; stroke-linejoin:round;">
<path style="fill:#000000; fill-opacity:1.0; 
stroke:#000000; stroke-width:1.000000; stroke-opacity:1; 
stroke-linecap:round; stroke-linejoin:round;fill-rule:evenodd;"
d="M 87930001.000000,159317499.000000
87930001.000000,158017501.000000
88529999.000000,158017501.000000
88529999.000000,159317499.000000
Z" /> 
<path style="fill:#000000; fill-opacity:1.0; 
stroke:#000000; stroke-width:1.000000; stroke-opacity:1; 
stroke-linecap:round; stroke-linejoin:round;fill-rule:evenodd;"
d="M 88730001.000000,159317499.000000
88730001.000000,158017501.000000
89329999.000000,158017501.000000
89329999.000000,159317499.000000
Z" /> 
<path style="fill:#000000; fill-opacity:1.0; 
stroke:#000000; stroke-width:1.000000; stroke-opacity:1; 
stroke-linecap:round; stroke-linejoin:round;fill-rule:evenodd;"
d="M 90030001.000000,159317499.000000
90030001.000000,158017501.000000
90329999.000000,158017501.000000
90329999.000000,159317499.000000
Z" /> 
<path style="fill:#000000; fill-opacity:1.0; 
stroke:#000000; stroke-width:1.000000; stroke-opacity:1; 
stroke-linecap:round; stroke-linejoin:round;fill-rule:evenodd;"
d="M 91030001.000000,159317499.000000
91030001.000000,158017501.000000
91329999.000000,158017501.000000
91329999.000000,159317499.000000
Z" /> 
<path style="fill:#000000; fill-opacity:1.0; 
stroke:#000000; stroke-width:1.000000; stroke-opacity:1; 
stroke-linecap:round; stroke-linejoin:round;fill-rule:evenodd;"
d="M 91530001.000000,159317499.000000
91530001.000000,158017501.000000
91829999.000000,158017501.000000
91829999.000000,159317499.000000
Z" /> 
<path style="fill:#000000; fill-opacity:1.0; 
stroke:#000000; stroke-width:1.000000; stroke-opacity:1; 
stroke-linecap:round; stroke-linejoin:round;fill-rule:evenodd;"
d="M 92530001.000000,159317499.000000
92530001.000000,158017501.000000
92829999.000000,158017501.000000
92829999.000000,159317499.000000
Z" /> 
<path style="fill:#000000; fill-opacity:1.0; 
stroke:#000000; stroke-width:1.000000; stroke-opacity:1; 
stroke-linecap:round; stroke-linejoin:round;fill-rule:evenodd;"
d="M 94330001.000000,159317499.000000
94330001.000000,158017501.000000
94929999.000000,158017501.000000
94929999.000000,159317499.000000
Z" /> 
<path style="fill:#000000; fill-opacity:1.0; 
stroke:#000000; stroke-width:1.000000; stroke-opacity:1; 
stroke-linecap:round; stroke-linejoin:round;fill-rule:evenodd;"
d="M 93530001.000000,159317499.000000
93530001.000000,158017501.000000
94129999.000000,158017501.000000
94129999.000000,159317499.000000
Z" /> 
<path style="fill:#000000; fill-opacity:1.0; 
stroke:#000000; stroke-width:1.000000; stroke-opacity:1; 
stroke-linecap:round; stroke-linejoin:round;fill-rule:evenodd;"
d="M 93030001.000000,159317499.000000
93030001.000000,158017501.000000
93329999.000000,158017501.000000
93329999.000000,159317499.000000
Z" /> 
<path style="fill:#000000; fill-opacity:1.0; 
stroke:#000000; stroke-width:1.000000; stroke-opacity:1; 
stroke-linecap:round; stroke-linejoin:round;fill-rule:evenodd;"
d="M 92030001.000000,159317499.000000
92030001.000000,158017501.000000
92329999.000000,158017501.000000
92329999.000000,159317499.000000
Z" /> 
<path style="fill:#000000; fill-opacity:1.0; 
stroke:#000000; stroke-width:1.000000; stroke-opacity:1; 
stroke-linecap:round; stroke-linejoin:round;fill-rule:evenodd;"
d="M 90530001.000000,159317499.000000
90530001.000000,158017501.000000
90829999.000000,158017501.000000
90829999.000000,159317499.000000
Z" /> 
<path style="fill:#000000; fill-opacity:1.0; 
stroke:#000000; stroke-width:1.000000; stroke-opacity:1; 
stroke-linecap:round; stroke-linejoin:round;fill-rule:evenodd;"
d="M 89530001.000000,159317499.000000
89530001.000000,158017501.000000
89829999.000000,158017501.000000
89829999.000000,159317499.000000
Z" /> 
</g>
<g >
</g>
<g style="fill:#000000; fill-opacity:1.0; 
stroke:#000000; stroke-width:1.000000; stroke-opacity:1; 
stroke-linecap:round; stroke-linejoin:round;">
<path style="fill:#000000; fill-opacity:1.0; 
stroke:#000000; stroke-width:1.000000; stroke-opacity:1; 
stroke-linecap:round; stroke-linejoin:round;fill-rule:evenodd;"
d="M 129260015.000000,152190001.000000
130160013.000000,152190001.000000
130160013.000000,153089999.000000
129260015.000000,153089999.000000
Z" /> 
<path style="fill:#000000; fill-opacity:1.0; 
stroke:#000000; stroke-width:1.000000; stroke-opacity:1; 
stroke-linecap:round; stroke-linejoin:round;fill-rule:evenodd;"
d="M 130360015.000000,152190001.000000
131260013.000000,152190001.000000
131260013.000000,153089999.000000
130360015.000000,153089999.000000
Z" /> 
<path style="fill:#000000; fill-opacity:1.0; 
stroke:#000000; stroke-width:1.000000; stroke-opacity:1; 
stroke-linecap:round; stroke-linejoin:round;fill-rule:evenodd;"
d="M 131460015.000000,152190001.000000
132360013.000000,152190001.000000
132360013.000000,153089999.000000
131460015.000000,153089999.000000
Z" /> 
<path style="fill:#000000; fill-opacity:1.0; 
stroke:#000000; stroke-width:1.000000; stroke-opacity:1; 
stroke-linecap:round; stroke-linejoin:round;fill-rule:evenodd;"
d="M 131460015.000000,153290001.000000
132360013.000000,153290001.000000
132360013.000000,154189999.000000
131460015.000000,154189999.000000
Z" /> 
<path style="fill:#000000; fill-opacity:1.0; 
stroke:#000000; stroke-width:1.000000; stroke-opacity:1; 
stroke-linecap:round; stroke-linejoin:round;fill-rule:evenodd;"
d="M 131460015.000000,151090001.000000
132360013.000000,151090001.000000
132360013.000000,151989999.000000
131460015.000000,151989999.000000
Z" /> 
<path style="fill:#000000; fill-opacity:1.0; 
stroke:#000000; stroke-width:1.000000; stroke-opacity:1; 
stroke-linecap:round; stroke-linejoin:round;fill-rule:evenodd;"
d="M 129260015.000000,151090001.000000
130160013.000000,151090001.000000
130160013.000000,151989999.000000
129260015.000000,151989999.000000
Z" /> 
<path style="fill:#000000; fill-opacity:1.0; 
stroke:#000000; stroke-width:1.000000; stroke-opacity:1; 
stroke-linecap:round; stroke-linejoin:round;fill-rule:evenodd;"
d="M 130360015.000000,151090001.000000
131260013.000000,151090001.000000
131260013.000000,151989999.000000
130360015.000000,151989999.000000
Z" /> 
<path style="fill:#000000; fill-opacity:1.0; 
stroke:#000000; stroke-width:1.000000; stroke-opacity:1; 
stroke-linecap:round; stroke-linejoin:round;fill-rule:evenodd;"
d="M 129260015.000000,153290001.000000
130160013.000000,153290001.000000
130160013.000000,154189999.000000
129260015.000000,154189999.000000
Z" /> 
<path style="fill:#000000; fill-opacity:1.0; 
stroke:#000000; stroke-width:1.000000; stroke-opacity:1; 
stroke-linecap:round; stroke-linejoin:round;fill-rule:evenodd;"
d="M 130360015.000000,153290001.000000
131260013.000000,153290001.000000
131260013.000000,154189999.000000
130360015.000000,154189999.000000
Z" /> 
<path style="fill:#000000; fill-opacity:1.0; 
stroke:#000000; stroke-width:1.000000; stroke-opacity:1; 
stroke-linecap:round; stroke-linejoin:round;fill-rule:evenodd;"
d="M 132185014.000000,149789988.000000
132435012.000000,149789988.000000
132435012.000000,150689986.000000
132185014.000000,150689986.000000
Z" /> 
<path style="fill:#000000; fill-opacity:1.0; 
stroke:#000000; stroke-width:1.000000; stroke-opacity:1; 
stroke-linecap:round; stroke-linejoin:round;fill-rule:evenodd;"
d="M 131685014.000000,149789988.000000
131935012.000000,149789988.000000
131935012.000000,150689986.000000
131685014.000000,150689986.000000
Z" /> 
<path style="fill:#000000; fill-opacity:1.0; 
stroke:#000000; stroke-width:1.000000; stroke-opacity:1; 
stroke-linecap:round; stroke-linejoin:round;fill-rule:evenodd;"
d="M 131185014.000000,149789988.000000
131435012.000000,149789988.000000
131435012.000000,150689986.000000
131185014.000000,150689986.000000
Z" /> 
<path style="fill:#000000; fill-opacity:1.0; 
stroke:#000000; stroke-width:1.000000; stroke-opacity:1; 
stroke-linecap:round; stroke-linejoin:round;fill-rule:evenodd;"
d="M 130685014.000000,149789988.000000
130935012.000000,149789988.000000
130935012.000000,150689986.000000
130685014.000000,150689986.000000
Z" /> 
<path style="fill:#000000; fill-opacity:1.0; 
stroke:#000000; stroke-width:1.000000; stroke-opacity:1; 
stroke-linecap:round; stroke-linejoin:round;fill-rule:evenodd;"
d="M 130185015.000000,149789988.000000
130435013.000000,149789988.000000
130435013.000000,150689986.000000
130185015.000000,150689986.000000
Z" /> 
<path style="fill:#000000; fill-opacity:1.0; 
stroke:#000000; stroke-width:1.000000; stroke-opacity:1; 
stroke-linecap:round; stroke-linejoin:round;fill-rule:evenodd;"
d="M 129685015.000000,149789988.000000
129935013.000000,149789988.000000
129935013.000000,150689986.000000
129685015.000000,150689986.000000
Z" /> 
<path style="fill:#000000; fill-opacity:1.0; 
stroke:#000000; stroke-width:1.000000; stroke-opacity:1; 
stroke-linecap:round; stroke-linejoin:round;fill-rule:evenodd;"
d="M 129185015.000000,149789988.000000
129435013.000000,149789988.000000
129435013.000000,150689986.000000
129185015.000000,150689986.000000
Z" /> 
<path style="fill:#000000; fill-opacity:1.0; 
stroke:#000000; stroke-width:1.000000; stroke-opacity:1; 
stroke-linecap:round; stroke-linejoin:round;fill-rule:evenodd;"
d="M 127960001.000000,151015002.000000
128859999.000000,151015002.000000
128859999.000000,151265000.000000
127960001.000000,151265000.000000
Z" /> 
<path style="fill:#000000; fill-opacity:1.0; 
stroke:#000000; stroke-width:1.000000; stroke-opacity:1; 
stroke-linecap:round; stroke-linejoin:round;fill-rule:evenodd;"
d="M 127960001.000000,151515002.000000
128859999.000000,151515002.000000
128859999.000000,151765000.000000
127960001.000000,151765000.000000
Z" /> 
<path style="fill:#000000; fill-opacity:1.0; 
stroke:#000000; stroke-width:1.000000; stroke-opacity:1; 
stroke-linecap:round; stroke-linejoin:round;fill-rule:evenodd;"
d="M 127960001.000000,152015002.000000
128859999.000000,152015002.000000
128859999.000000,152265000.000000
127960001.000000,152265000.000000
Z" /> 
<path style="fill:#000000; fill-opacity:1.0; 
stroke:#000000; stroke-width:1.000000; stroke-opacity:1; 
stroke-linecap:round; stroke-linejoin:round;fill-rule:evenodd;"
d="M 127960001.000000,152515002.000000
128859999.000000,152515002.000000
128859999.000000,152765000.000000
127960001.000000,152765000.000000
Z" /> 
<path style="fill:#000000; fill-opacity:1.0; 
stroke:#000000; stroke-width:1.000000; stroke-opacity:1; 
stroke-linecap:round; stroke-linejoin:round;fill-rule:evenodd;"
d="M 127960001.000000,153015001.000000
128859999.000000,153015001.000000
128859999.000000,153264999.000000
127960001.000000,153264999.000000
Z" /> 
<path style="fill:#000000; fill-opacity:1.0; 
stroke:#000000; stroke-width:1.000000; stroke-opacity:1; 
stroke-linecap:round; stroke-linejoin:round;fill-rule:evenodd;"
d="M 127960001.000000,153515001.000000
128859999.000000,153515001.000000
128859999.000000,153764999.000000
127960001.000000,153764999.000000
Z" /> 
<path style="fill:#000000; fill-opacity:1.0; 
stroke:#000000; stroke-width:1.000000; stroke-opacity:1; 
stroke-linecap:round; stroke-linejoin:round;fill-rule:evenodd;"
d="M 127960001.000000,154015001.000000
128859999.000000,154015001.000000
128859999.000000,154264999.000000
127960001.000000,154264999.000000
Z" /> 
<path style="fill:#000000; fill-opacity:1.0; 
stroke:#000000; stroke-width:1.000000; stroke-opacity:1; 
stroke-linecap:round; stroke-linejoin:round;fill-rule:evenodd;"
d="M 129185015.000000,154590015.000000
129435013.000000,154590015.000000
129435013.000000,155490013.000000
129185015.000000,155490013.000000
Z" /> 
<path style="fill:#000000; fill-opacity:1.0; 
stroke:#000000; stroke-width:1.000000; stroke-opacity:1; 
stroke-linecap:round; stroke-linejoin:round;fill-rule:evenodd;"
d="M 129685015.000000,154590015.000000
129935013.000000,154590015.000000
129935013.000000,155490013.000000
129685015.000000,155490013.000000
Z" /> 
<path style="fill:#000000; fill-opacity:1.0; 
stroke:#000000; stroke-width:1.000000; stroke-opacity:1; 
stroke-linecap:round; stroke-linejoin:round;fill-rule:evenodd;"
d="M 130185015.000000,154590015.000000
130435013.000000,154590015.000000
130435013.000000,155490013.000000
130185015.000000,155490013.000000
Z" /> 
<path style="fill:#000000; fill-opacity:1.0; 
stroke:#000000; stroke-width:1.000000; stroke-opacity:1; 
stroke-linecap:round; stroke-linejoin:round;fill-rule:evenodd;"
d="M 130685014.000000,154590015.000000
130935012.000000,154590015.000000
130935012.000000,155490013.000000
130685014.000000,155490013.000000
Z" /> 
<path style="fill:#000000; fill-opacity:1.0; 
stroke:#000000; stroke-width:1.000000; stroke-opacity:1; 
stroke-linecap:round; stroke-linejoin:round;fill-rule:evenodd;"
d="M 131185014.000000,154590015.000000
131435012.000000,154590015.000000
131435012.000000,155490013.000000
131185014.000000,155490013.000000
Z" /> 
<path style="fill:#000000; fill-opacity:1.0; 
stroke:#000000; stroke-width:1.000000; stroke-opacity:1; 
stroke-linecap:round; stroke-linejoin:round;fill-rule:evenodd;"
d="M 131685014.000000,154590015.000000
131935012.000000,154590015.000000
131935012.000000,155490013.000000
131685014.000000,155490013.000000
Z" /> 
<path style="fill:#000000; fill-opacity:1.0; 
stroke:#000000; stroke-width:1.000000; stroke-opacity:1; 
stroke-linecap:round; stroke-linejoin:round;fill-rule:evenodd;"
d="M 132185014.000000,154590015.000000
132435012.000000,154590015.000000
132435012.000000,155490013.000000
132185014.000000,155490013.000000
Z" /> 
<path style="fill:#000000; fill-opacity:1.0; 
stroke:#000000; stroke-width:1.000000; stroke-opacity:1; 
stroke-linecap:round; stroke-linejoin:round;fill-rule:evenodd;"
d="M 132760028.000000,154015001.000000
133660026.000000,154015001.000000
133660026.000000,154264999.000000
132760028.000000,154264999.000000
Z" /> 
<path style="fill:#000000; fill-opacity:1.0; 
stroke:#000000; stroke-width:1.000000; stroke-opacity:1; 
stroke-linecap:round; stroke-linejoin:round;fill-rule:evenodd;"
d="M 132760028.000000,153515001.000000
133660026.000000,153515001.000000
133660026.000000,153764999.000000
132760028.000000,153764999.000000
Z" /> 
<path style="fill:#000000; fill-opacity:1.0; 
stroke:#000000; stroke-width:1.000000; stroke-opacity:1; 
stroke-linecap:round; stroke-linejoin:round;fill-rule:evenodd;"
d="M 132760028.000000,153015001.000000
133660026.000000,153015001.000000
133660026.000000,153264999.000000
132760028.000000,153264999.000000
Z" /> 
<path style="fill:#000000; fill-opacity:1.0; 
stroke:#000000; stroke-width:1.000000; stroke-opacity:1; 
stroke-linecap:round; stroke-linejoin:round;fill-rule:evenodd;"
d="M 132760028.000000,152515002.000000
133660026.000000,152515002.000000
133660026.000000,152765000.000000
132760028.000000,152765000.000000
Z" /> 
<path style="fill:#000000; fill-opacity:1.0; 
stroke:#000000; stroke-width:1.000000; stroke-opacity:1; 
stroke-linecap:round; stroke-linejoin:round;fill-rule:evenodd;"
d="M 132760028.000000,152015002.000000
133660026.000000,152015002.000000
133660026.000000,152265000.000000
132760028.000000,152265000.000000
Z" /> 
<path style="fill:#000000; fill-opacity:1.0; 
stroke:#000000; stroke-width:1.000000; stroke-opacity:1; 
stroke-linecap:round; stroke-linejoin:round;fill-rule:evenodd;"
d="M 132760028.000000,151515002.000000
133660026.000000,151515002.000000
133660026.000000,151765000.000000
132760028.000000,151765000.000000
Z" /> 
<path style="fill:#000000; fill-opacity:1.0; 
stroke:#000000; stroke-width:1.000000; stroke-opacity:1; 
stroke-linecap:round; stroke-linejoin:round;fill-rule:evenodd;"
d="M 132760028.000000,151015002.000000
133660026.000000,151015002.000000
133660026.000000,151265000.000000
132760028.000000,151265000.000000
Z" /> 
</g>
<g >
</g>
<g style="fill:#000000; fill-opacity:1.0; 
stroke:#000000; stroke-width:1.000000; stroke-opacity:1; 
stroke-linecap:round; stroke-linejoin:round;">
<path style="fill:#000000; fill-opacity:1.0; 
stroke:#000000; stroke-width:1.000000; stroke-opacity:1; 
stroke-linecap:round; stroke-linejoin:round;fill-rule:evenodd;"
d="M 132832587.000000,137758444.000000
132923474.000000,137776523.000000
133000525.000000,137828006.000000
133052008.000000,137905057.000000
133070087.000000,137995944.000000
133070087.000000,138595944.000000
133052008.000000,138686831.000000
133000525.000000,138763882.000000
132923474.000000,138815365.000000
132832587.000000,138833444.000000
132357587.000000,138833444.000000
132266700.000000,138815365.000000
132189649.000000,138763882.000000
132138166.000000,138686831.000000
132120087.000000,138595944.000000
132120087.000000,137995944.000000
132138166.000000,137905057.000000
132189649.000000,137828006.000000
132266700.000000,137776523.000000
132357587.000000,137758444.000000
Z" /> 
<path style="fill:#000000; fill-opacity:1.0; 
stroke:#000000; stroke-width:1.000000; stroke-opacity:1; 
stroke-linecap:round; stroke-linejoin:round;fill-rule:evenodd;"
d="M 132832587.000000,139483444.000000
132923474.000000,139501523.000000
133000525.000000,139553006.000000
133052008.000000,139630057.000000
133070087.000000,139720944.000000
133070087.000000,140320944.000000
133052008.000000,140411831.000000
133000525.000000,140488882.000000
132923474.000000,140540365.000000
132832587.000000,140558444.000000
132357587.000000,140558444.000000
132266700.000000,140540365.000000
132189649.000000,140488882.000000
132138166.000000,140411831.000000
132120087.000000,140320944.000000
132120087.000000,139720944.000000
132138166.000000,139630057.000000
132189649.000000,139553006.000000
132266700.000000,139501523.000000
132357587.000000,139483444.000000
Z" /> 
</g>
<g >
</g>
<g style="fill:#000000; fill-opacity:1.0; 
stroke:#000000; stroke-width:1.000000; stroke-opacity:1; 
stroke-linecap:round; stroke-linejoin:round;">
<path style="fill:#000000; fill-opacity:1.0; 
stroke:#000000; stroke-width:1.000000; stroke-opacity:1; 
stroke-linecap:round; stroke-linejoin:round;fill-rule:evenodd;"
d="M 139430000.000000,140012500.000000
139448079.000000,139921613.000000
139499562.000000,139844562.000000
139576613.000000,139793079.000000
139667500.000000,139775000.000000
140167500.000000,139775000.000000
140258387.000000,139793079.000000
140335438.000000,139844562.000000
140386921.000000,139921613.000000
140405000.000000,140012500.000000
140405000.000000,140487500.000000
140386921.000000,140578387.000000
140335438.000000,140655438.000000
140258387.000000,140706921.000000
140167500.000000,140725000.000000
139667500.000000,140725000.000000
139576613.000000,140706921.000000
139499562.000000,140655438.000000
139448079.000000,140578387.000000
139430000.000000,140487500.000000
Z" /> 
<path style="fill:#000000; fill-opacity:1.0; 
stroke:#000000; stroke-width:1.000000; stroke-opacity:1; 
stroke-linecap:round; stroke-linejoin:round;fill-rule:evenodd;"
d="M 141255000.000000,140012500.000000
141273079.000000,139921613.000000
141324562.000000,139844562.000000
141401613.000000,139793079.000000
141492500.000000,139775000.000000
141992500.000000,139775000.000000
142083387.000000,139793079.000000
142160438.000000,139844562.000000
142211921.000000,139921613.000000
142230000.000000,140012500.000000
142230000.000000,140487500.000000
142211921.000000,140578387.000000
142160438.000000,140655438.000000
142083387.000000,140706921.000000
141992500.000000,140725000.000000
141492500.000000,140725000.000000
141401613.000000,140706921.000000
141324562.000000,140655438.000000
141273079.000000,140578387.000000
141255000.000000,140487500.000000
Z" /> 
</g>
<g >
</g>
<g style="fill:#000000; fill-opacity:1.0; 
stroke:#000000; stroke-width:1.000000; stroke-opacity:1; 
stroke-linecap:round; stroke-linejoin:round;">
<path style="fill:#000000; fill-opacity:1.0; 
stroke:#000000; stroke-width:1.000000; stroke-opacity:1; 
stroke-linecap:round; stroke-linejoin:round;fill-rule:evenodd;"
d="M 138855000.000000,132870000.000000
138843582.000000,132927403.000000
138811066.000000,132976066.000000
138762403.000000,133008582.000000
138705000.000000,133020000.000000
137530000.000000,133020000.000000
137472597.000000,133008582.000000
137423934.000000,132976066.000000
137391418.000000,132927403.000000
137380000.000000,132870000.000000
137380000.000000,132570000.000000
137391418.000000,132512597.000000
137423934.000000,132463934.000000
137472597.000000,132431418.000000
137530000.000000,132420000.000000
138705000.000000,132420000.000000
138762403.000000,132431418.000000
138811066.000000,132463934.000000
138843582.000000,132512597.000000
138855000.000000,132570000.000000
Z" /> 
<path style="fill:#000000; fill-opacity:1.0; 
stroke:#000000; stroke-width:1.000000; stroke-opacity:1; 
stroke-linecap:round; stroke-linejoin:round;fill-rule:evenodd;"
d="M 138855000.000000,130970000.000000
138843582.000000,131027403.000000
138811066.000000,131076066.000000
138762403.000000,131108582.000000
138705000.000000,131120000.000000
137530000.000000,131120000.000000
137472597.000000,131108582.000000
137423934.000000,131076066.000000
137391418.000000,131027403.000000
137380000.000000,130970000.000000
137380000.000000,130670000.000000
137391418.000000,130612597.000000
137423934.000000,130563934.000000
137472597.000000,130531418.000000
137530000.000000,130520000.000000
138705000.000000,130520000.000000
138762403.000000,130531418.000000
138811066.000000,130563934.000000
138843582.000000,130612597.000000
138855000.000000,130670000.000000
Z" /> 
<path style="fill:#000000; fill-opacity:1.0; 
stroke:#000000; stroke-width:1.000000; stroke-opacity:1; 
stroke-linecap:round; stroke-linejoin:round;fill-rule:evenodd;"
d="M 136980000.000000,131920000.000000
136968582.000000,131977403.000000
136936066.000000,132026066.000000
136887403.000000,132058582.000000
136830000.000000,132070000.000000
135655000.000000,132070000.000000
135597597.000000,132058582.000000
135548934.000000,132026066.000000
135516418.000000,131977403.000000
135505000.000000,131920000.000000
135505000.000000,131620000.000000
135516418.000000,131562597.000000
135548934.000000,131513934.000000
135597597.000000,131481418.000000
135655000.000000,131470000.000000
136830000.000000,131470000.000000
136887403.000000,131481418.000000
136936066.000000,131513934.000000
136968582.000000,131562597.000000
136980000.000000,131620000.000000
Z" /> 
</g>
<g >
</g>
<g style="fill:#000000; fill-opacity:1.0; 
stroke:#000000; stroke-width:1.000000; stroke-opacity:1; 
stroke-linecap:round; stroke-linejoin:round;">
<path style="fill:#000000; fill-opacity:1.0; 
stroke:#000000; stroke-width:1.000000; stroke-opacity:1; 
stroke-linecap:round; stroke-linejoin:round;fill-rule:evenodd;"
d="M 106910000.000000,142700000.000000
106890970.000000,142795671.000000
106836777.000000,142876777.000000
106755671.000000,142930970.000000
106660000.000000,142950000.000000
103660000.000000,142950000.000000
103564329.000000,142930970.000000
103483223.000000,142876777.000000
103429030.000000,142795671.000000
103410000.000000,142700000.000000
103410000.000000,141600000.000000
103429030.000000,141504329.000000
103483223.000000,141423223.000000
103564329.000000,141369030.000000
103660000.000000,141350000.000000
106660000.000000,141350000.000000
106755671.000000,141369030.000000
106836777.000000,141423223.000000
106890970.000000,141504329.000000
106910000.000000,141600000.000000
Z" /> 
<path style="fill:#000000; fill-opacity:1.0; 
stroke:#000000; stroke-width:1.000000; stroke-opacity:1; 
stroke-linecap:round; stroke-linejoin:round;fill-rule:evenodd;"
d="M 101310000.000000,142700000.000000
101290970.000000,142795671.000000
101236777.000000,142876777.000000
101155671.000000,142930970.000000
101060000.000000,142950000.000000
98060000.000000,142950000.000000
97964329.000000,142930970.000000
97883223.000000,142876777.000000
97829030.000000,142795671.000000
97810000.000000,142700000.000000
97810000.000000,141600000.000000
97829030.000000,141504329.000000
97883223.000000,141423223.000000
97964329.000000,141369030.000000
98060000.000000,141350000.000000
101060000.000000,141350000.000000
101155671.000000,141369030.000000
101236777.000000,141423223.000000
101290970.000000,141504329.000000
101310000.000000,141600000.000000
Z" /> 
</g>
<g >
</g>
<g style="fill:#000000; fill-opacity:1.0; 
stroke:#000000; stroke-width:1.000000; stroke-opacity:1; 
stroke-linecap:round; stroke-linejoin:round;">
<path style="fill:#000000; fill-opacity:1.0; 
stroke:#000000; stroke-width:1.000000; stroke-opacity:1; 
stroke-linecap:round; stroke-linejoin:round;fill-rule:evenodd;"
d="M 121070001.000000,160109999.000000
121070001.000000,159210001.000000
122569999.000000,159210001.000000
122569999.000000,160109999.000000
Z" /> 
<path style="fill:#000000; fill-opacity:1.0; 
stroke:#000000; stroke-width:1.000000; stroke-opacity:1; 
stroke-linecap:round; stroke-linejoin:round;fill-rule:evenodd;"
d="M 124870001.000000,160109999.000000
124870001.000000,159210001.000000
126369999.000000,159210001.000000
126369999.000000,160109999.000000
Z" /> 
<path style="fill:#000000; fill-opacity:1.0; 
stroke:#000000; stroke-width:1.000000; stroke-opacity:1; 
stroke-linecap:round; stroke-linejoin:round;fill-rule:evenodd;"
d="M 121070001.000000,161609999.000000
121070001.000000,160710001.000000
122569999.000000,160710001.000000
122569999.000000,161609999.000000
Z" /> 
<path style="fill:#000000; fill-opacity:1.0; 
stroke:#000000; stroke-width:1.000000; stroke-opacity:1; 
stroke-linecap:round; stroke-linejoin:round;fill-rule:evenodd;"
d="M 124870001.000000,161609999.000000
124870001.000000,160710001.000000
126369999.000000,160710001.000000
126369999.000000,161609999.000000
Z" /> 
</g>
<g >
</g>
<g style="fill:#000000; fill-opacity:1.0; 
stroke:#000000; stroke-width:1.000000; stroke-opacity:1; 
stroke-linecap:round; stroke-linejoin:round;">
<path style="fill:#000000; fill-opacity:1.0; 
stroke:#000000; stroke-width:1.000000; stroke-opacity:1; 
stroke-linecap:round; stroke-linejoin:round;fill-rule:evenodd;"
d="M 117390001.000000,160109999.000000
117390001.000000,159210001.000000
118889999.000000,159210001.000000
118889999.000000,160109999.000000
Z" /> 
<path style="fill:#000000; fill-opacity:1.0; 
stroke:#000000; stroke-width:1.000000; stroke-opacity:1; 
stroke-linecap:round; stroke-linejoin:round;fill-rule:evenodd;"
d="M 113590001.000000,160109999.000000
113590001.000000,159210001.000000
115089999.000000,159210001.000000
115089999.000000,160109999.000000
Z" /> 
<path style="fill:#000000; fill-opacity:1.0; 
stroke:#000000; stroke-width:1.000000; stroke-opacity:1; 
stroke-linecap:round; stroke-linejoin:round;fill-rule:evenodd;"
d="M 113590001.000000,161609999.000000
113590001.000000,160710001.000000
115089999.000000,160710001.000000
115089999.000000,161609999.000000
Z" /> 
<path style="fill:#000000; fill-opacity:1.0; 
stroke:#000000; stroke-width:1.000000; stroke-opacity:1; 
stroke-linecap:round; stroke-linejoin:round;fill-rule:evenodd;"
d="M 117390001.000000,161609999.000000
117390001.000000,160710001.000000
118889999.000000,160710001.000000
118889999.000000,161609999.000000
Z" /> 
</g>
<g >
</g>
<g style="fill:#000000; fill-opacity:1.0; 
stroke:#000000; stroke-width:1.000000; stroke-opacity:1; 
stroke-linecap:round; stroke-linejoin:round;">
<path style="fill:#000000; fill-opacity:1.0; 
stroke:#000000; stroke-width:1.000000; stroke-opacity:1; 
stroke-linecap:round; stroke-linejoin:round;fill-rule:evenodd;"
d="M 159022500.000000,87110000.000000
158931613.000000,87091921.000000
158854562.000000,87040438.000000
158803079.000000,86963387.000000
158785000.000000,86872500.000000
158785000.000000,86372500.000000
158803079.000000,86281613.000000
158854562.000000,86204562.000000
158931613.000000,86153079.000000
159022500.000000,86135000.000000
159497500.000000,86135000.000000
159588387.000000,86153079.000000
159665438.000000,86204562.000000
159716921.000000,86281613.000000
159735000.000000,86372500.000000
159735000.000000,86872500.000000
159716921.000000,86963387.000000
159665438.000000,87040438.000000
159588387.000000,87091921.000000
159497500.000000,87110000.000000
Z" /> 
<path style="fill:#000000; fill-opacity:1.0; 
stroke:#000000; stroke-width:1.000000; stroke-opacity:1; 
stroke-linecap:round; stroke-linejoin:round;fill-rule:evenodd;"
d="M 159022500.000000,85285000.000000
158931613.000000,85266921.000000
158854562.000000,85215438.000000
158803079.000000,85138387.000000
158785000.000000,85047500.000000
158785000.000000,84547500.000000
158803079.000000,84456613.000000
158854562.000000,84379562.000000
158931613.000000,84328079.000000
159022500.000000,84310000.000000
159497500.000000,84310000.000000
159588387.000000,84328079.000000
159665438.000000,84379562.000000
159716921.000000,84456613.000000
159735000.000000,84547500.000000
159735000.000000,85047500.000000
159716921.000000,85138387.000000
159665438.000000,85215438.000000
159588387.000000,85266921.000000
159497500.000000,85285000.000000
Z" /> 
</g>
<g >
</g>
<g style="fill:#000000; fill-opacity:1.0; 
stroke:#000000; stroke-width:1.000000; stroke-opacity:1; 
stroke-linecap:round; stroke-linejoin:round;">
<path style="fill:#000000; fill-opacity:1.0; 
stroke:#000000; stroke-width:1.000000; stroke-opacity:1; 
stroke-linecap:round; stroke-linejoin:round;fill-rule:evenodd;"
d="M 141827887.000000,103203344.000000
141809808.000000,103294231.000000
141758325.000000,103371282.000000
141681274.000000,103422765.000000
141590387.000000,103440844.000000
140990387.000000,103440844.000000
140899500.000000,103422765.000000
140822449.000000,103371282.000000
140770966.000000,103294231.000000
140752887.000000,103203344.000000
140752887.000000,102728344.000000
140770966.000000,102637457.000000
140822449.000000,102560406.000000
140899500.000000,102508923.000000
140990387.000000,102490844.000000
141590387.000000,102490844.000000
141681274.000000,102508923.000000
141758325.000000,102560406.000000
141809808.000000,102637457.000000
141827887.000000,102728344.000000
Z" /> 
<path style="fill:#000000; fill-opacity:1.0; 
stroke:#000000; stroke-width:1.000000; stroke-opacity:1; 
stroke-linecap:round; stroke-linejoin:round;fill-rule:evenodd;"
d="M 140102887.000000,103203344.000000
140084808.000000,103294231.000000
140033325.000000,103371282.000000
139956274.000000,103422765.000000
139865387.000000,103440844.000000
139265387.000000,103440844.000000
139174500.000000,103422765.000000
139097449.000000,103371282.000000
139045966.000000,103294231.000000
139027887.000000,103203344.000000
139027887.000000,102728344.000000
139045966.000000,102637457.000000
139097449.000000,102560406.000000
139174500.000000,102508923.000000
139265387.000000,102490844.000000
139865387.000000,102490844.000000
139956274.000000,102508923.000000
140033325.000000,102560406.000000
140084808.000000,102637457.000000
140102887.000000,102728344.000000
Z" /> 
</g>
<g >
</g>
<g style="fill:#000000; fill-opacity:1.0; 
stroke:#000000; stroke-width:1.000000; stroke-opacity:1; 
stroke-linecap:round; stroke-linejoin:round;">
<path style="fill:#000000; fill-opacity:1.0; 
stroke:#000000; stroke-width:1.000000; stroke-opacity:1; 
stroke-linecap:round; stroke-linejoin:round;fill-rule:evenodd;"
d="M 136634600.000000,93827600.000000
136543713.000000,93809521.000000
136466662.000000,93758038.000000
136415179.000000,93680987.000000
136397100.000000,93590100.000000
136397100.000000,92990100.000000
136415179.000000,92899213.000000
136466662.000000,92822162.000000
136543713.000000,92770679.000000
136634600.000000,92752600.000000
137109600.000000,92752600.000000
137200487.000000,92770679.000000
137277538.000000,92822162.000000
137329021.000000,92899213.000000
137347100.000000,92990100.000000
137347100.000000,93590100.000000
137329021.000000,93680987.000000
137277538.000000,93758038.000000
137200487.000000,93809521.000000
137109600.000000,93827600.000000
Z" /> 
<path style="fill:#000000; fill-opacity:1.0; 
stroke:#000000; stroke-width:1.000000; stroke-opacity:1; 
stroke-linecap:round; stroke-linejoin:round;fill-rule:evenodd;"
d="M 136634600.000000,92102600.000000
136543713.000000,92084521.000000
136466662.000000,92033038.000000
136415179.000000,91955987.000000
136397100.000000,91865100.000000
136397100.000000,91265100.000000
136415179.000000,91174213.000000
136466662.000000,91097162.000000
136543713.000000,91045679.000000
136634600.000000,91027600.000000
137109600.000000,91027600.000000
137200487.000000,91045679.000000
137277538.000000,91097162.000000
137329021.000000,91174213.000000
137347100.000000,91265100.000000
137347100.000000,91865100.000000
137329021.000000,91955987.000000
137277538.000000,92033038.000000
137200487.000000,92084521.000000
137109600.000000,92102600.000000
Z" /> 
</g>
<g >
</g>
<g style="fill:#000000; fill-opacity:1.0; 
stroke:#000000; stroke-width:1.000000; stroke-opacity:1; 
stroke-linecap:round; stroke-linejoin:round;">
<path style="fill:#000000; fill-opacity:1.0; 
stroke:#000000; stroke-width:1.000000; stroke-opacity:1; 
stroke-linecap:round; stroke-linejoin:round;fill-rule:evenodd;"
d="M 121512500.000000,145610000.000000
121421613.000000,145591921.000000
121344562.000000,145540438.000000
121293079.000000,145463387.000000
121275000.000000,145372500.000000
121275000.000000,144772500.000000
121293079.000000,144681613.000000
121344562.000000,144604562.000000
121421613.000000,144553079.000000
121512500.000000,144535000.000000
121987500.000000,144535000.000000
122078387.000000,144553079.000000
122155438.000000,144604562.000000
122206921.000000,144681613.000000
122225000.000000,144772500.000000
122225000.000000,145372500.000000
122206921.000000,145463387.000000
122155438.000000,145540438.000000
122078387.000000,145591921.000000
121987500.000000,145610000.000000
Z" /> 
<path style="fill:#000000; fill-opacity:1.0; 
stroke:#000000; stroke-width:1.000000; stroke-opacity:1; 
stroke-linecap:round; stroke-linejoin:round;fill-rule:evenodd;"
d="M 121512500.000000,143885000.000000
121421613.000000,143866921.000000
121344562.000000,143815438.000000
121293079.000000,143738387.000000
121275000.000000,143647500.000000
121275000.000000,143047500.000000
121293079.000000,142956613.000000
121344562.000000,142879562.000000
121421613.000000,142828079.000000
121512500.000000,142810000.000000
121987500.000000,142810000.000000
122078387.000000,142828079.000000
122155438.000000,142879562.000000
122206921.000000,142956613.000000
122225000.000000,143047500.000000
122225000.000000,143647500.000000
122206921.000000,143738387.000000
122155438.000000,143815438.000000
122078387.000000,143866921.000000
121987500.000000,143885000.000000
Z" /> 
</g>
<g >
</g>
<g >
</g>
<g >
</g>
<g >
</g>
<g >
</g>
<g >
</g>
<g >
</g>
</g> 
</svg>
