<?xml version="1.0" standalone="no"?>
 <!DOCTYPE svg PUBLIC "-//W3C//DTD SVG 1.1//EN" 
 "http://www.w3.org/Graphics/SVG/1.1/DTD/svg11.dtd"> 
<svg
  xmlns:svg="http://www.w3.org/2000/svg"
  xmlns="http://www.w3.org/2000/svg"
  xmlns:xlink="http://www.w3.org/1999/xlink"
  version="1.1"
  width="29.700220cm" height="21.000720cm" viewBox="0 0 297002200 210007200">
<title>SVG Picture created as GlowTube-Edge_Cuts.svg date 2022/03/25 12:21:38 </title>
  <desc>Picture generated by PCBNEW </desc>
<g style="fill:#000000; fill-opacity:1.000000;stroke:#000000; stroke-opacity:1.000000;
stroke-linecap:round; stroke-linejoin:round;"
 transform="translate(0 0) scale(1 1)">
</g>
<g style="fill:#000000; fill-opacity:0.0; 
stroke:#000000; stroke-width:0.000000; stroke-opacity:1; 
stroke-linecap:round; stroke-linejoin:round;">
</g>
<g style="fill:#000000; fill-opacity:0.0; 
stroke:#000000; stroke-width:100000.000000; stroke-opacity:1; 
stroke-linecap:round; stroke-linejoin:round;">
<path d="M163257380 79633955
L163257380 78533955
" />
<path d="M155357380 78533955
L155357380 79633955
" />
<path d="M86420000.000000 157908237.000000 A300000.000000 300000.000000 0.0 0 0 86120000.000000 158208237.000000" />
<path d="M130934286 84383955
L131745625 84383955
" />
<path d="M125401146.057856 164601140.099595 A96644317.000000 96644317.000000 0.0 0 0 173430745.821649 84695319.993238" />
<path d="M87388122 157608237
L87388122 135512579
" />
<path d="M173430745.651167 84695319.986776 A300000.000000 300000.000000 0.0 0 0 173130961.000000 84383955.000000" />
<path d="M86120000 164571764
L86120000 158208237
" />
<path d="M86420000 157908237
L87088122 157908237
" />
<path d="M162957380.000000 79933955.000000 A300000.000000 300000.000000 0.0 0 0 163257380.000000 79633955.000000" />
<path d="M130934286.000000 84383955.000000 A300000.000000 300000.000000 0.0 0 0 130634966.974333 84663752.998268" />
<path d="M168257380 78533955
L168257380 84083955
" />
<path d="M168557380 84383955
L173130961 84383955
" />
<path d="M131745625.000000 84383955.000000 A300000.000000 300000.000000 0.0 0 0 132045625.000000 84083955.000000" />
<path d="M163257380 78533955
L168257380 78533955
" />
<path d="M148297380 79933955
L150057380 79933955
" />
<path d="M132345625.000000 81433955.000000 A300000.000000 300000.000000 0.0 0 0 132045625.000000 81733955.000000" />
<path d="M147697380.000000 81433955.000000 A300000.000000 300000.000000 0.0 0 0 147997380.000000 81133955.000000" />
<path d="M148297380.000000 79933955.000015 A299997.000000 299997.000000 0.0 0 0 147997380.000015 80233955.000000" />
<path d="M132345625 81433955
L147697380 81433955
" />
<path d="M124396527 164871764
L86420000 164871764
" />
<path d="M147997380 81133955
L147997380 80233955
" />
<path d="M155357380.000015 79633955.000000 A299997.000000 299997.000000 0.0 0 0 155657380.000000 79933954.999985" />
<path d="M87088122.000000 157908237.000000 A300000.000000 300000.000000 0.0 0 0 87388122.000000 157608237.000000" />
<path d="M132045625 84083955
L132045625 81733955
" />
<path d="M86120000.000000 164571764.000000 A300000.000000 300000.000000 0.0 0 0 86420000.000000 164871764.000000" />
<path d="M150357380 79633955
L150357380 78533955
" />
<path d="M150057380.000000 79933955.000000 A300000.000000 300000.000000 0.0 0 0 150357380.000000 79633955.000000" />
<path d="M88939751.078932 133563486.343124 A53901515.000000 53901515.000000 0.0 0 0 130634967.468174 84663753.031599" />
<path d="M88939751.004276 133563486.018587 A2000000.000000 2000000.000000 0.0 0 0 87388122.000000 135512579.000000" />
<path d="M150357380 78533955
L155357380 78533955
" />
<path d="M124396527.000000 164871763.999998 A2000011.000000 2000011.000000 0.0 0 0 125401145.904746 164601139.836027" />
<path d="M168257380.000015 84083955.000000 A299997.000000 299997.000000 0.0 0 0 168557380.000000 84383954.999985" />
<path d="M155657380 79933955
L162957380 79933955
" />
<g >
</g>
<g >
</g>
<g >
</g>
<g >
</g>
<g >
</g>
<g >
</g>
<g >
</g>
<g >
</g>
<g >
</g>
<g >
</g>
<g >
</g>
<g >
</g>
<g >
</g>
<g >
</g>
<g >
</g>
<g >
</g>
<g >
</g>
<g >
</g>
<g >
</g>
<g >
</g>
<g >
</g>
<g >
</g>
<g >
</g>
<g >
</g>
<g >
</g>
<g >
</g>
<g >
</g>
<g >
</g>
<g >
</g>
<g >
</g>
<g >
</g>
<g >
</g>
<g >
</g>
<g >
</g>
<g >
</g>
<g >
</g>
<g >
</g>
<g >
</g>
<g >
</g>
<g >
</g>
</g> 
</svg>
